M48
; DRILL file {KiCad 8.0.5} date 2024-11-10T17:01:51-0500
; FORMAT={-:-/ absolute / metric / decimal}
; #@! TF.CreationDate,2024-11-10T17:01:51-05:00
; #@! TF.GenerationSoftware,Kicad,Pcbnew,8.0.5
; #@! TF.FileFunction,Plated,1,2,PTH
FMAT,2
METRIC
; #@! TA.AperFunction,Plated,PTH,ViaDrill
T1C0.300
; #@! TA.AperFunction,Plated,PTH,ComponentDrill
T2C0.700
; #@! TA.AperFunction,Plated,PTH,ComponentDrill
T3C0.762
; #@! TA.AperFunction,Plated,PTH,ComponentDrill
T4C0.890
; #@! TA.AperFunction,Plated,PTH,ComponentDrill
T5C1.000
; #@! TA.AperFunction,Plated,PTH,ComponentDrill
T6C1.020
; #@! TA.AperFunction,Plated,PTH,ComponentDrill
T7C1.110
; #@! TA.AperFunction,Plated,PTH,ComponentDrill
T8C1.150
; #@! TA.AperFunction,Plated,PTH,ComponentDrill
T9C1.280
; #@! TA.AperFunction,Plated,PTH,ComponentDrill
T10C1.600
; #@! TA.AperFunction,Plated,PTH,ComponentDrill
T11C4.550
%
G90
G05
T1
X269.82Y-215.337
X290.538Y-194.279
X308.0Y-176.468
X323.518Y-200.663
X323.641Y-220.75
X329.309Y-212.574
X329.309Y-227.155
X329.376Y-188.42
X330.457Y-189.165
X337.148Y-170.573
X337.27Y-221.549
X343.773Y-163.653
X344.892Y-208.278
X345.333Y-218.135
X345.959Y-209.218
X346.693Y-202.577
X346.693Y-210.813
X349.129Y-182.34
X349.412Y-221.737
X349.43Y-156.398
X353.168Y-212.574
X356.13Y-152.51
T2
X266.96Y-179.0
X267.28Y-187.0
X269.5Y-179.0
X269.82Y-187.0
T3
X268.335Y-213.025
X268.335Y-220.525
X268.335Y-225.525
X368.0Y-152.0
X375.5Y-152.0
X380.5Y-152.0
T4
X357.243Y-252.257
X359.04Y-250.46
X360.836Y-248.664
X362.632Y-246.868
X364.428Y-245.072
X366.224Y-243.276
X368.02Y-241.48
X369.816Y-239.684
X371.612Y-237.888
X373.408Y-236.092
X375.204Y-234.296
X377.0Y-232.5
X378.796Y-230.704
X380.592Y-228.908
X382.388Y-227.112
X384.184Y-225.316
X385.98Y-223.52
X387.776Y-221.724
T5
X314.92Y-131.0
X317.46Y-131.0
X320.0Y-131.0
X325.08Y-131.0
X327.62Y-131.0
X330.16Y-131.0
X332.7Y-131.0
T6
X297.34Y-219.34
X297.34Y-232.0
X298.04Y-143.5
X298.04Y-156.16
X299.88Y-219.34
X299.88Y-232.0
X300.58Y-143.5
X300.58Y-156.16
X302.42Y-219.34
X302.42Y-232.0
X303.12Y-143.5
X303.12Y-156.16
X304.96Y-219.34
X304.96Y-232.0
X305.66Y-143.5
X305.66Y-156.16
X307.5Y-219.34
X307.5Y-232.0
X308.2Y-143.5
X308.2Y-156.16
X310.04Y-219.34
X310.04Y-232.0
X310.74Y-143.5
X310.74Y-156.16
X312.58Y-219.34
X312.58Y-232.0
X313.28Y-143.5
X313.28Y-156.16
X317.84Y-218.84
X317.84Y-231.5
X319.5Y-143.34
X319.5Y-156.0
X320.38Y-218.84
X320.38Y-231.5
X322.04Y-143.34
X322.04Y-156.0
X322.92Y-218.84
X322.92Y-231.5
X324.58Y-143.34
X324.58Y-156.0
X325.46Y-218.84
X325.46Y-231.5
X327.12Y-143.34
X327.12Y-156.0
X328.0Y-218.84
X328.0Y-231.5
X329.66Y-143.34
X329.66Y-156.0
X330.54Y-218.84
X330.54Y-231.5
X332.2Y-143.34
X332.2Y-156.0
X333.08Y-218.84
X333.08Y-231.5
X334.74Y-143.34
X334.74Y-156.0
X340.54Y-143.5
X340.54Y-156.16
X343.08Y-143.5
X343.08Y-156.16
X345.62Y-143.5
X345.62Y-156.16
X348.16Y-143.5
X348.16Y-156.16
X350.7Y-143.5
X350.7Y-156.16
X353.24Y-143.5
X353.24Y-156.16
X355.78Y-143.5
X355.78Y-156.16
T7
X350.76Y-170.64
X350.76Y-173.18
X350.76Y-175.72
X350.76Y-178.26
X350.76Y-180.8
X350.76Y-183.34
X350.76Y-185.88
X350.76Y-188.42
X350.76Y-190.96
X350.76Y-193.5
X350.76Y-196.04
X350.76Y-198.58
X350.76Y-201.12
X350.76Y-203.66
X350.76Y-206.2
X350.76Y-208.74
X350.76Y-211.28
X350.76Y-213.82
X350.76Y-216.36
X350.76Y-218.9
X350.76Y-221.44
X350.76Y-223.98
X350.76Y-226.52
X350.76Y-229.06
X353.3Y-216.36
X353.81Y-176.99
X353.81Y-179.53
X353.81Y-182.07
X353.81Y-184.61
X353.81Y-187.15
X355.84Y-216.36
X358.38Y-216.36
X360.92Y-216.36
X363.46Y-173.18
X363.46Y-216.36
X366.0Y-170.64
X366.0Y-173.18
X366.0Y-175.72
X366.0Y-178.26
X366.0Y-180.8
X366.0Y-183.34
X366.0Y-185.88
X366.0Y-188.42
X366.0Y-190.96
X366.0Y-193.5
X366.0Y-196.04
X366.0Y-198.58
X366.0Y-201.12
X366.0Y-203.66
X366.0Y-206.2
X366.0Y-208.74
X366.0Y-211.28
X366.0Y-213.82
X366.0Y-216.36
X366.0Y-218.9
X366.0Y-221.44
X366.0Y-223.98
X366.0Y-226.52
X366.0Y-229.06
T8
X318.3Y-244.0
X323.38Y-244.0
X328.46Y-244.0
X331.0Y-244.0
T9
X340.36Y-228.6
X342.9Y-228.6
X345.44Y-228.6
T10
X305.92Y-174.5
X308.42Y-201.0
X311.0Y-174.5
X313.5Y-201.0
X318.92Y-174.5
X321.0Y-201.0
X324.0Y-174.5
X326.08Y-201.0
X332.92Y-175.0
X332.92Y-201.0
X338.0Y-175.0
X338.0Y-201.0
T11
X366.5Y-131.4
X366.5Y-138.6
M30
