%TF.GenerationSoftware,KiCad,Pcbnew,8.0.5*%
%TF.CreationDate,2024-11-10T17:02:08-05:00*%
%TF.ProjectId,RoboCup25PCBv1,526f626f-4375-4703-9235-50434276312e,rev?*%
%TF.SameCoordinates,Original*%
%TF.FileFunction,Profile,NP*%
%FSLAX46Y46*%
G04 Gerber Fmt 4.6, Leading zero omitted, Abs format (unit mm)*
G04 Created by KiCad (PCBNEW 8.0.5) date 2024-11-10 17:02:08*
%MOMM*%
%LPD*%
G01*
G04 APERTURE LIST*
%TA.AperFunction,Profile*%
%ADD10C,0.200000*%
%TD*%
G04 APERTURE END LIST*
D10*
X292171784Y-270081270D02*
X292171784Y-251918500D01*
X375196255Y-171434831D02*
G75*
G02*
X371696255Y-171434831I-1750000J0D01*
G01*
X371696255Y-171434831D02*
G75*
G02*
X375196255Y-171434831I1750000J0D01*
G01*
X354334784Y-251918500D02*
X354334784Y-270149252D01*
X405257850Y-219081500D02*
G75*
G02*
X354334783Y-270149250I-81915110J30759760D01*
G01*
X354334784Y-106494220D02*
X354334784Y-124918500D01*
X394200077Y-229041949D02*
G75*
G02*
X386200077Y-229041949I-4000000J0D01*
G01*
X386200077Y-229041949D02*
G75*
G02*
X394200077Y-229041949I4000000J0D01*
G01*
X260000000Y-156918500D02*
X260000000Y-219081500D01*
X241672133Y-156918500D02*
G75*
G02*
X292171783Y-106562196I81670587J-31403220D01*
G01*
X327951844Y-193403322D02*
X317951844Y-193403322D01*
X375196255Y-204434831D02*
G75*
G02*
X371696255Y-204434831I-1750000J0D01*
G01*
X371696255Y-204434831D02*
G75*
G02*
X375196255Y-204434831I1750000J0D01*
G01*
X259200077Y-229041949D02*
G75*
G02*
X251200077Y-229041949I-4000000J0D01*
G01*
X251200077Y-229041949D02*
G75*
G02*
X259200077Y-229041949I4000000J0D01*
G01*
X266496255Y-171434831D02*
G75*
G02*
X262996255Y-171434831I-1750000J0D01*
G01*
X262996255Y-171434831D02*
G75*
G02*
X266496255Y-171434831I1750000J0D01*
G01*
X286274999Y-158375877D02*
G75*
G02*
X282774999Y-158375877I-1750000J0D01*
G01*
X282774999Y-158375877D02*
G75*
G02*
X286274999Y-158375877I1750000J0D01*
G01*
X341274999Y-238375877D02*
G75*
G02*
X337774999Y-238375877I-1750000J0D01*
G01*
X337774999Y-238375877D02*
G75*
G02*
X341274999Y-238375877I1750000J0D01*
G01*
X260000000Y-219081500D02*
X241427614Y-219081500D01*
X308274999Y-246375877D02*
G75*
G02*
X304774999Y-246375877I-1750000J0D01*
G01*
X304774999Y-246375877D02*
G75*
G02*
X308274999Y-246375877I1750000J0D01*
G01*
X308274999Y-138375877D02*
G75*
G02*
X304774999Y-138375877I-1750000J0D01*
G01*
X304774999Y-138375877D02*
G75*
G02*
X308274999Y-138375877I1750000J0D01*
G01*
X266496255Y-204434831D02*
G75*
G02*
X262996255Y-204434831I-1750000J0D01*
G01*
X262996255Y-204434831D02*
G75*
G02*
X266496255Y-204434831I1750000J0D01*
G01*
X285115524Y-140943664D02*
G75*
G02*
X281615524Y-140943664I-1750000J0D01*
G01*
X281615524Y-140943664D02*
G75*
G02*
X285115524Y-140943664I1750000J0D01*
G01*
X383196255Y-171434831D02*
G75*
G02*
X379696255Y-171434831I-1750000J0D01*
G01*
X379696255Y-171434831D02*
G75*
G02*
X383196255Y-171434831I1750000J0D01*
G01*
X354334784Y-106494220D02*
G75*
G02*
X405013330Y-156918500I-30992034J-81827500D01*
G01*
X292171784Y-251918500D02*
X354334784Y-251918500D01*
X308274999Y-130375877D02*
G75*
G02*
X304774999Y-130375877I-1750000J0D01*
G01*
X304774999Y-130375877D02*
G75*
G02*
X308274999Y-130375877I1750000J0D01*
G01*
X292171784Y-270081270D02*
G75*
G02*
X241427611Y-219081501I31170916J81759510D01*
G01*
X341274999Y-246375877D02*
G75*
G02*
X337774999Y-246375877I-1750000J0D01*
G01*
X337774999Y-246375877D02*
G75*
G02*
X341274999Y-246375877I1750000J0D01*
G01*
X327951844Y-183403322D02*
X327951844Y-193403322D01*
X286576645Y-120975717D02*
G75*
G02*
X278576645Y-120975717I-4000000J0D01*
G01*
X278576645Y-120975717D02*
G75*
G02*
X286576645Y-120975717I4000000J0D01*
G01*
X274496255Y-171434831D02*
G75*
G02*
X270996255Y-171434831I-1750000J0D01*
G01*
X270996255Y-171434831D02*
G75*
G02*
X274496255Y-171434831I1750000J0D01*
G01*
X405257850Y-219081500D02*
X387000000Y-219081500D01*
X341274999Y-130375877D02*
G75*
G02*
X337774999Y-130375877I-1750000J0D01*
G01*
X337774999Y-130375877D02*
G75*
G02*
X341274999Y-130375877I1750000J0D01*
G01*
X366576645Y-120975717D02*
G75*
G02*
X358576645Y-120975717I-4000000J0D01*
G01*
X358576645Y-120975717D02*
G75*
G02*
X366576645Y-120975717I4000000J0D01*
G01*
X292171784Y-124918500D02*
X292171784Y-106562198D01*
X387000000Y-156918500D02*
X405013330Y-156918500D01*
X341274999Y-138375877D02*
G75*
G02*
X337774999Y-138375877I-1750000J0D01*
G01*
X337774999Y-138375877D02*
G75*
G02*
X341274999Y-138375877I1750000J0D01*
G01*
X259200077Y-149041949D02*
G75*
G02*
X251200077Y-149041949I-4000000J0D01*
G01*
X251200077Y-149041949D02*
G75*
G02*
X259200077Y-149041949I4000000J0D01*
G01*
X317951844Y-193403322D02*
X317951844Y-183403322D01*
X274496255Y-204434831D02*
G75*
G02*
X270996255Y-204434831I-1750000J0D01*
G01*
X270996255Y-204434831D02*
G75*
G02*
X274496255Y-204434831I1750000J0D01*
G01*
X383196255Y-204434831D02*
G75*
G02*
X379696255Y-204434831I-1750000J0D01*
G01*
X379696255Y-204434831D02*
G75*
G02*
X383196255Y-204434831I1750000J0D01*
G01*
X387000000Y-219081500D02*
X387000000Y-156918500D01*
X366576645Y-255975717D02*
G75*
G02*
X358576645Y-255975717I-4000000J0D01*
G01*
X358576645Y-255975717D02*
G75*
G02*
X366576645Y-255975717I4000000J0D01*
G01*
X354334784Y-124918500D02*
X292171784Y-124918500D01*
X286576645Y-255975717D02*
G75*
G02*
X278576645Y-255975717I-4000000J0D01*
G01*
X278576645Y-255975717D02*
G75*
G02*
X286576645Y-255975717I4000000J0D01*
G01*
X317951844Y-183403322D02*
X327951844Y-183403322D01*
X308274999Y-238375877D02*
G75*
G02*
X304774999Y-238375877I-1750000J0D01*
G01*
X304774999Y-238375877D02*
G75*
G02*
X308274999Y-238375877I1750000J0D01*
G01*
X241672133Y-156918500D02*
X260000000Y-156918500D01*
X394200077Y-149041949D02*
G75*
G02*
X386200077Y-149041949I-4000000J0D01*
G01*
X386200077Y-149041949D02*
G75*
G02*
X394200077Y-149041949I4000000J0D01*
G01*
M02*
