%TF.GenerationSoftware,KiCad,Pcbnew,8.0.5*%
%TF.CreationDate,2024-11-10T17:02:08-05:00*%
%TF.ProjectId,RoboCup25PCBv1,526f626f-4375-4703-9235-50434276312e,rev?*%
%TF.SameCoordinates,Original*%
%TF.FileFunction,Legend,Top*%
%TF.FilePolarity,Positive*%
%FSLAX46Y46*%
G04 Gerber Fmt 4.6, Leading zero omitted, Abs format (unit mm)*
G04 Created by KiCad (PCBNEW 8.0.5) date 2024-11-10 17:02:08*
%MOMM*%
%LPD*%
G01*
G04 APERTURE LIST*
G04 Aperture macros list*
%AMRoundRect*
0 Rectangle with rounded corners*
0 $1 Rounding radius*
0 $2 $3 $4 $5 $6 $7 $8 $9 X,Y pos of 4 corners*
0 Add a 4 corners polygon primitive as box body*
4,1,4,$2,$3,$4,$5,$6,$7,$8,$9,$2,$3,0*
0 Add four circle primitives for the rounded corners*
1,1,$1+$1,$2,$3*
1,1,$1+$1,$4,$5*
1,1,$1+$1,$6,$7*
1,1,$1+$1,$8,$9*
0 Add four rect primitives between the rounded corners*
20,1,$1+$1,$2,$3,$4,$5,0*
20,1,$1+$1,$4,$5,$6,$7,0*
20,1,$1+$1,$6,$7,$8,$9,0*
20,1,$1+$1,$8,$9,$2,$3,0*%
G04 Aperture macros list end*
%ADD10C,0.150000*%
%ADD11C,0.100000*%
%ADD12C,0.254000*%
%ADD13C,0.127000*%
%ADD14C,0.200000*%
%ADD15C,0.120000*%
%ADD16RoundRect,0.102000X-1.200000X-1.200000X1.200000X-1.200000X1.200000X1.200000X-1.200000X1.200000X0*%
%ADD17C,2.604000*%
%ADD18C,1.524000*%
%ADD19R,1.920000X1.920000*%
%ADD20C,1.920000*%
%ADD21RoundRect,0.102000X0.862500X0.862500X-0.862500X0.862500X-0.862500X-0.862500X0.862500X-0.862500X0*%
%ADD22C,1.929000*%
%ADD23RoundRect,0.102000X1.200000X1.200000X-1.200000X1.200000X-1.200000X-1.200000X1.200000X-1.200000X0*%
%ADD24R,0.254000X0.675000*%
%ADD25R,0.675000X0.254000*%
%ADD26C,1.400000*%
%ADD27O,1.400000X1.400000*%
%ADD28RoundRect,0.102000X-0.754000X-0.754000X0.754000X-0.754000X0.754000X0.754000X-0.754000X0.754000X0*%
%ADD29C,1.712000*%
%ADD30R,1.000000X0.900000*%
%ADD31R,0.400000X0.800000*%
%ADD32C,1.869000*%
%ADD33RoundRect,0.100000X-0.217500X-0.100000X0.217500X-0.100000X0.217500X0.100000X-0.217500X0.100000X0*%
%ADD34C,6.204000*%
%ADD35RoundRect,0.102000X-3.000000X3.000000X-3.000000X-3.000000X3.000000X-3.000000X3.000000X3.000000X0*%
%ADD36RoundRect,0.102000X0.000000X-0.988535X0.988535X0.000000X0.000000X0.988535X-0.988535X0.000000X0*%
%ADD37C,1.602000*%
G04 APERTURE END LIST*
D10*
X333358333Y-193350866D02*
X333358333Y-194350866D01*
X333358333Y-194350866D02*
X333291666Y-194550866D01*
X333291666Y-194550866D02*
X333158333Y-194684200D01*
X333158333Y-194684200D02*
X332958333Y-194750866D01*
X332958333Y-194750866D02*
X332825000Y-194750866D01*
X333958333Y-193484200D02*
X334025000Y-193417533D01*
X334025000Y-193417533D02*
X334158333Y-193350866D01*
X334158333Y-193350866D02*
X334491667Y-193350866D01*
X334491667Y-193350866D02*
X334625000Y-193417533D01*
X334625000Y-193417533D02*
X334691667Y-193484200D01*
X334691667Y-193484200D02*
X334758333Y-193617533D01*
X334758333Y-193617533D02*
X334758333Y-193750866D01*
X334758333Y-193750866D02*
X334691667Y-193950866D01*
X334691667Y-193950866D02*
X333891667Y-194750866D01*
X333891667Y-194750866D02*
X334758333Y-194750866D01*
D11*
X316527419Y-241817619D02*
X315527419Y-241817619D01*
X315527419Y-241817619D02*
X315527419Y-241579524D01*
X315527419Y-241579524D02*
X315575038Y-241436667D01*
X315575038Y-241436667D02*
X315670276Y-241341429D01*
X315670276Y-241341429D02*
X315765514Y-241293810D01*
X315765514Y-241293810D02*
X315955990Y-241246191D01*
X315955990Y-241246191D02*
X316098847Y-241246191D01*
X316098847Y-241246191D02*
X316289323Y-241293810D01*
X316289323Y-241293810D02*
X316384561Y-241341429D01*
X316384561Y-241341429D02*
X316479800Y-241436667D01*
X316479800Y-241436667D02*
X316527419Y-241579524D01*
X316527419Y-241579524D02*
X316527419Y-241817619D01*
X316527419Y-240246191D02*
X316051228Y-240579524D01*
X316527419Y-240817619D02*
X315527419Y-240817619D01*
X315527419Y-240817619D02*
X315527419Y-240436667D01*
X315527419Y-240436667D02*
X315575038Y-240341429D01*
X315575038Y-240341429D02*
X315622657Y-240293810D01*
X315622657Y-240293810D02*
X315717895Y-240246191D01*
X315717895Y-240246191D02*
X315860752Y-240246191D01*
X315860752Y-240246191D02*
X315955990Y-240293810D01*
X315955990Y-240293810D02*
X316003609Y-240341429D01*
X316003609Y-240341429D02*
X316051228Y-240436667D01*
X316051228Y-240436667D02*
X316051228Y-240817619D01*
X315527419Y-239960476D02*
X316527419Y-239627143D01*
X316527419Y-239627143D02*
X315527419Y-239293810D01*
X315955990Y-238817619D02*
X315908371Y-238912857D01*
X315908371Y-238912857D02*
X315860752Y-238960476D01*
X315860752Y-238960476D02*
X315765514Y-239008095D01*
X315765514Y-239008095D02*
X315717895Y-239008095D01*
X315717895Y-239008095D02*
X315622657Y-238960476D01*
X315622657Y-238960476D02*
X315575038Y-238912857D01*
X315575038Y-238912857D02*
X315527419Y-238817619D01*
X315527419Y-238817619D02*
X315527419Y-238627143D01*
X315527419Y-238627143D02*
X315575038Y-238531905D01*
X315575038Y-238531905D02*
X315622657Y-238484286D01*
X315622657Y-238484286D02*
X315717895Y-238436667D01*
X315717895Y-238436667D02*
X315765514Y-238436667D01*
X315765514Y-238436667D02*
X315860752Y-238484286D01*
X315860752Y-238484286D02*
X315908371Y-238531905D01*
X315908371Y-238531905D02*
X315955990Y-238627143D01*
X315955990Y-238627143D02*
X315955990Y-238817619D01*
X315955990Y-238817619D02*
X316003609Y-238912857D01*
X316003609Y-238912857D02*
X316051228Y-238960476D01*
X316051228Y-238960476D02*
X316146466Y-239008095D01*
X316146466Y-239008095D02*
X316336942Y-239008095D01*
X316336942Y-239008095D02*
X316432180Y-238960476D01*
X316432180Y-238960476D02*
X316479800Y-238912857D01*
X316479800Y-238912857D02*
X316527419Y-238817619D01*
X316527419Y-238817619D02*
X316527419Y-238627143D01*
X316527419Y-238627143D02*
X316479800Y-238531905D01*
X316479800Y-238531905D02*
X316432180Y-238484286D01*
X316432180Y-238484286D02*
X316336942Y-238436667D01*
X316336942Y-238436667D02*
X316146466Y-238436667D01*
X316146466Y-238436667D02*
X316051228Y-238484286D01*
X316051228Y-238484286D02*
X316003609Y-238531905D01*
X316003609Y-238531905D02*
X315955990Y-238627143D01*
X315955990Y-237865238D02*
X315908371Y-237960476D01*
X315908371Y-237960476D02*
X315860752Y-238008095D01*
X315860752Y-238008095D02*
X315765514Y-238055714D01*
X315765514Y-238055714D02*
X315717895Y-238055714D01*
X315717895Y-238055714D02*
X315622657Y-238008095D01*
X315622657Y-238008095D02*
X315575038Y-237960476D01*
X315575038Y-237960476D02*
X315527419Y-237865238D01*
X315527419Y-237865238D02*
X315527419Y-237674762D01*
X315527419Y-237674762D02*
X315575038Y-237579524D01*
X315575038Y-237579524D02*
X315622657Y-237531905D01*
X315622657Y-237531905D02*
X315717895Y-237484286D01*
X315717895Y-237484286D02*
X315765514Y-237484286D01*
X315765514Y-237484286D02*
X315860752Y-237531905D01*
X315860752Y-237531905D02*
X315908371Y-237579524D01*
X315908371Y-237579524D02*
X315955990Y-237674762D01*
X315955990Y-237674762D02*
X315955990Y-237865238D01*
X315955990Y-237865238D02*
X316003609Y-237960476D01*
X316003609Y-237960476D02*
X316051228Y-238008095D01*
X316051228Y-238008095D02*
X316146466Y-238055714D01*
X316146466Y-238055714D02*
X316336942Y-238055714D01*
X316336942Y-238055714D02*
X316432180Y-238008095D01*
X316432180Y-238008095D02*
X316479800Y-237960476D01*
X316479800Y-237960476D02*
X316527419Y-237865238D01*
X316527419Y-237865238D02*
X316527419Y-237674762D01*
X316527419Y-237674762D02*
X316479800Y-237579524D01*
X316479800Y-237579524D02*
X316432180Y-237531905D01*
X316432180Y-237531905D02*
X316336942Y-237484286D01*
X316336942Y-237484286D02*
X316146466Y-237484286D01*
X316146466Y-237484286D02*
X316051228Y-237531905D01*
X316051228Y-237531905D02*
X316003609Y-237579524D01*
X316003609Y-237579524D02*
X315955990Y-237674762D01*
X315527419Y-237150952D02*
X315527419Y-236484286D01*
X315527419Y-236484286D02*
X316527419Y-236912857D01*
X315860752Y-235674762D02*
X316527419Y-235674762D01*
X315479800Y-235912857D02*
X316194085Y-236150952D01*
X316194085Y-236150952D02*
X316194085Y-235531905D01*
X316622657Y-235389048D02*
X316622657Y-234627143D01*
X316432180Y-233817619D02*
X316479800Y-233865238D01*
X316479800Y-233865238D02*
X316527419Y-234008095D01*
X316527419Y-234008095D02*
X316527419Y-234103333D01*
X316527419Y-234103333D02*
X316479800Y-234246190D01*
X316479800Y-234246190D02*
X316384561Y-234341428D01*
X316384561Y-234341428D02*
X316289323Y-234389047D01*
X316289323Y-234389047D02*
X316098847Y-234436666D01*
X316098847Y-234436666D02*
X315955990Y-234436666D01*
X315955990Y-234436666D02*
X315765514Y-234389047D01*
X315765514Y-234389047D02*
X315670276Y-234341428D01*
X315670276Y-234341428D02*
X315575038Y-234246190D01*
X315575038Y-234246190D02*
X315527419Y-234103333D01*
X315527419Y-234103333D02*
X315527419Y-234008095D01*
X315527419Y-234008095D02*
X315575038Y-233865238D01*
X315575038Y-233865238D02*
X315622657Y-233817619D01*
X316527419Y-232960476D02*
X316003609Y-232960476D01*
X316003609Y-232960476D02*
X315908371Y-233008095D01*
X315908371Y-233008095D02*
X315860752Y-233103333D01*
X315860752Y-233103333D02*
X315860752Y-233293809D01*
X315860752Y-233293809D02*
X315908371Y-233389047D01*
X316479800Y-232960476D02*
X316527419Y-233055714D01*
X316527419Y-233055714D02*
X316527419Y-233293809D01*
X316527419Y-233293809D02*
X316479800Y-233389047D01*
X316479800Y-233389047D02*
X316384561Y-233436666D01*
X316384561Y-233436666D02*
X316289323Y-233436666D01*
X316289323Y-233436666D02*
X316194085Y-233389047D01*
X316194085Y-233389047D02*
X316146466Y-233293809D01*
X316146466Y-233293809D02*
X316146466Y-233055714D01*
X316146466Y-233055714D02*
X316098847Y-232960476D01*
X316527419Y-232484285D02*
X315860752Y-232484285D01*
X316051228Y-232484285D02*
X315955990Y-232436666D01*
X315955990Y-232436666D02*
X315908371Y-232389047D01*
X315908371Y-232389047D02*
X315860752Y-232293809D01*
X315860752Y-232293809D02*
X315860752Y-232198571D01*
X316527419Y-231865237D02*
X315860752Y-231865237D01*
X316051228Y-231865237D02*
X315955990Y-231817618D01*
X315955990Y-231817618D02*
X315908371Y-231769999D01*
X315908371Y-231769999D02*
X315860752Y-231674761D01*
X315860752Y-231674761D02*
X315860752Y-231579523D01*
X316527419Y-231246189D02*
X315860752Y-231246189D01*
X315527419Y-231246189D02*
X315575038Y-231293808D01*
X315575038Y-231293808D02*
X315622657Y-231246189D01*
X315622657Y-231246189D02*
X315575038Y-231198570D01*
X315575038Y-231198570D02*
X315527419Y-231246189D01*
X315527419Y-231246189D02*
X315622657Y-231246189D01*
X316479800Y-230389047D02*
X316527419Y-230484285D01*
X316527419Y-230484285D02*
X316527419Y-230674761D01*
X316527419Y-230674761D02*
X316479800Y-230769999D01*
X316479800Y-230769999D02*
X316384561Y-230817618D01*
X316384561Y-230817618D02*
X316003609Y-230817618D01*
X316003609Y-230817618D02*
X315908371Y-230769999D01*
X315908371Y-230769999D02*
X315860752Y-230674761D01*
X315860752Y-230674761D02*
X315860752Y-230484285D01*
X315860752Y-230484285D02*
X315908371Y-230389047D01*
X315908371Y-230389047D02*
X316003609Y-230341428D01*
X316003609Y-230341428D02*
X316098847Y-230341428D01*
X316098847Y-230341428D02*
X316194085Y-230817618D01*
X316527419Y-229912856D02*
X315860752Y-229912856D01*
X316051228Y-229912856D02*
X315955990Y-229865237D01*
X315955990Y-229865237D02*
X315908371Y-229817618D01*
X315908371Y-229817618D02*
X315860752Y-229722380D01*
X315860752Y-229722380D02*
X315860752Y-229627142D01*
X316622657Y-229531904D02*
X316622657Y-228769999D01*
X316003609Y-228198570D02*
X316051228Y-228055713D01*
X316051228Y-228055713D02*
X316098847Y-228008094D01*
X316098847Y-228008094D02*
X316194085Y-227960475D01*
X316194085Y-227960475D02*
X316336942Y-227960475D01*
X316336942Y-227960475D02*
X316432180Y-228008094D01*
X316432180Y-228008094D02*
X316479800Y-228055713D01*
X316479800Y-228055713D02*
X316527419Y-228150951D01*
X316527419Y-228150951D02*
X316527419Y-228531903D01*
X316527419Y-228531903D02*
X315527419Y-228531903D01*
X315527419Y-228531903D02*
X315527419Y-228198570D01*
X315527419Y-228198570D02*
X315575038Y-228103332D01*
X315575038Y-228103332D02*
X315622657Y-228055713D01*
X315622657Y-228055713D02*
X315717895Y-228008094D01*
X315717895Y-228008094D02*
X315813133Y-228008094D01*
X315813133Y-228008094D02*
X315908371Y-228055713D01*
X315908371Y-228055713D02*
X315955990Y-228103332D01*
X315955990Y-228103332D02*
X316003609Y-228198570D01*
X316003609Y-228198570D02*
X316003609Y-228531903D01*
X316527419Y-227389046D02*
X316479800Y-227484284D01*
X316479800Y-227484284D02*
X316432180Y-227531903D01*
X316432180Y-227531903D02*
X316336942Y-227579522D01*
X316336942Y-227579522D02*
X316051228Y-227579522D01*
X316051228Y-227579522D02*
X315955990Y-227531903D01*
X315955990Y-227531903D02*
X315908371Y-227484284D01*
X315908371Y-227484284D02*
X315860752Y-227389046D01*
X315860752Y-227389046D02*
X315860752Y-227246189D01*
X315860752Y-227246189D02*
X315908371Y-227150951D01*
X315908371Y-227150951D02*
X315955990Y-227103332D01*
X315955990Y-227103332D02*
X316051228Y-227055713D01*
X316051228Y-227055713D02*
X316336942Y-227055713D01*
X316336942Y-227055713D02*
X316432180Y-227103332D01*
X316432180Y-227103332D02*
X316479800Y-227150951D01*
X316479800Y-227150951D02*
X316527419Y-227246189D01*
X316527419Y-227246189D02*
X316527419Y-227389046D01*
X316527419Y-226198570D02*
X316003609Y-226198570D01*
X316003609Y-226198570D02*
X315908371Y-226246189D01*
X315908371Y-226246189D02*
X315860752Y-226341427D01*
X315860752Y-226341427D02*
X315860752Y-226531903D01*
X315860752Y-226531903D02*
X315908371Y-226627141D01*
X316479800Y-226198570D02*
X316527419Y-226293808D01*
X316527419Y-226293808D02*
X316527419Y-226531903D01*
X316527419Y-226531903D02*
X316479800Y-226627141D01*
X316479800Y-226627141D02*
X316384561Y-226674760D01*
X316384561Y-226674760D02*
X316289323Y-226674760D01*
X316289323Y-226674760D02*
X316194085Y-226627141D01*
X316194085Y-226627141D02*
X316146466Y-226531903D01*
X316146466Y-226531903D02*
X316146466Y-226293808D01*
X316146466Y-226293808D02*
X316098847Y-226198570D01*
X316527419Y-225722379D02*
X315860752Y-225722379D01*
X316051228Y-225722379D02*
X315955990Y-225674760D01*
X315955990Y-225674760D02*
X315908371Y-225627141D01*
X315908371Y-225627141D02*
X315860752Y-225531903D01*
X315860752Y-225531903D02*
X315860752Y-225436665D01*
X316527419Y-224674760D02*
X315527419Y-224674760D01*
X316479800Y-224674760D02*
X316527419Y-224769998D01*
X316527419Y-224769998D02*
X316527419Y-224960474D01*
X316527419Y-224960474D02*
X316479800Y-225055712D01*
X316479800Y-225055712D02*
X316432180Y-225103331D01*
X316432180Y-225103331D02*
X316336942Y-225150950D01*
X316336942Y-225150950D02*
X316051228Y-225150950D01*
X316051228Y-225150950D02*
X315955990Y-225103331D01*
X315955990Y-225103331D02*
X315908371Y-225055712D01*
X315908371Y-225055712D02*
X315860752Y-224960474D01*
X315860752Y-224960474D02*
X315860752Y-224769998D01*
X315860752Y-224769998D02*
X315908371Y-224674760D01*
X315527419Y-224293807D02*
X315527419Y-223674760D01*
X315527419Y-223674760D02*
X315908371Y-224008093D01*
X315908371Y-224008093D02*
X315908371Y-223865236D01*
X315908371Y-223865236D02*
X315955990Y-223769998D01*
X315955990Y-223769998D02*
X316003609Y-223722379D01*
X316003609Y-223722379D02*
X316098847Y-223674760D01*
X316098847Y-223674760D02*
X316336942Y-223674760D01*
X316336942Y-223674760D02*
X316432180Y-223722379D01*
X316432180Y-223722379D02*
X316479800Y-223769998D01*
X316479800Y-223769998D02*
X316527419Y-223865236D01*
X316527419Y-223865236D02*
X316527419Y-224150950D01*
X316527419Y-224150950D02*
X316479800Y-224246188D01*
X316479800Y-224246188D02*
X316432180Y-224293807D01*
X267501667Y-204434800D02*
X267644524Y-204482419D01*
X267644524Y-204482419D02*
X267882619Y-204482419D01*
X267882619Y-204482419D02*
X267977857Y-204434800D01*
X267977857Y-204434800D02*
X268025476Y-204387180D01*
X268025476Y-204387180D02*
X268073095Y-204291942D01*
X268073095Y-204291942D02*
X268073095Y-204196704D01*
X268073095Y-204196704D02*
X268025476Y-204101466D01*
X268025476Y-204101466D02*
X267977857Y-204053847D01*
X267977857Y-204053847D02*
X267882619Y-204006228D01*
X267882619Y-204006228D02*
X267692143Y-203958609D01*
X267692143Y-203958609D02*
X267596905Y-203910990D01*
X267596905Y-203910990D02*
X267549286Y-203863371D01*
X267549286Y-203863371D02*
X267501667Y-203768133D01*
X267501667Y-203768133D02*
X267501667Y-203672895D01*
X267501667Y-203672895D02*
X267549286Y-203577657D01*
X267549286Y-203577657D02*
X267596905Y-203530038D01*
X267596905Y-203530038D02*
X267692143Y-203482419D01*
X267692143Y-203482419D02*
X267930238Y-203482419D01*
X267930238Y-203482419D02*
X268073095Y-203530038D01*
X268406429Y-203482419D02*
X268644524Y-204482419D01*
X268644524Y-204482419D02*
X268835000Y-203768133D01*
X268835000Y-203768133D02*
X269025476Y-204482419D01*
X269025476Y-204482419D02*
X269263572Y-203482419D01*
X269596905Y-203577657D02*
X269644524Y-203530038D01*
X269644524Y-203530038D02*
X269739762Y-203482419D01*
X269739762Y-203482419D02*
X269977857Y-203482419D01*
X269977857Y-203482419D02*
X270073095Y-203530038D01*
X270073095Y-203530038D02*
X270120714Y-203577657D01*
X270120714Y-203577657D02*
X270168333Y-203672895D01*
X270168333Y-203672895D02*
X270168333Y-203768133D01*
X270168333Y-203768133D02*
X270120714Y-203910990D01*
X270120714Y-203910990D02*
X269549286Y-204482419D01*
X269549286Y-204482419D02*
X270168333Y-204482419D01*
D12*
X340239047Y-229295270D02*
X340118095Y-229234794D01*
X340118095Y-229234794D02*
X339997142Y-229113842D01*
X339997142Y-229113842D02*
X339815714Y-228932413D01*
X339815714Y-228932413D02*
X339694761Y-228871937D01*
X339694761Y-228871937D02*
X339573809Y-228871937D01*
X339634285Y-229174318D02*
X339513333Y-229113842D01*
X339513333Y-229113842D02*
X339392380Y-228992889D01*
X339392380Y-228992889D02*
X339331904Y-228750984D01*
X339331904Y-228750984D02*
X339331904Y-228327651D01*
X339331904Y-228327651D02*
X339392380Y-228085746D01*
X339392380Y-228085746D02*
X339513333Y-227964794D01*
X339513333Y-227964794D02*
X339634285Y-227904318D01*
X339634285Y-227904318D02*
X339876190Y-227904318D01*
X339876190Y-227904318D02*
X339997142Y-227964794D01*
X339997142Y-227964794D02*
X340118095Y-228085746D01*
X340118095Y-228085746D02*
X340178571Y-228327651D01*
X340178571Y-228327651D02*
X340178571Y-228750984D01*
X340178571Y-228750984D02*
X340118095Y-228992889D01*
X340118095Y-228992889D02*
X339997142Y-229113842D01*
X339997142Y-229113842D02*
X339876190Y-229174318D01*
X339876190Y-229174318D02*
X339634285Y-229174318D01*
X341388095Y-229174318D02*
X340662380Y-229174318D01*
X341025237Y-229174318D02*
X341025237Y-227904318D01*
X341025237Y-227904318D02*
X340904285Y-228085746D01*
X340904285Y-228085746D02*
X340783333Y-228206699D01*
X340783333Y-228206699D02*
X340662380Y-228267175D01*
D10*
X328910714Y-246959819D02*
X328910714Y-245959819D01*
X328910714Y-245959819D02*
X329291666Y-245959819D01*
X329291666Y-245959819D02*
X329386904Y-246007438D01*
X329386904Y-246007438D02*
X329434523Y-246055057D01*
X329434523Y-246055057D02*
X329482142Y-246150295D01*
X329482142Y-246150295D02*
X329482142Y-246293152D01*
X329482142Y-246293152D02*
X329434523Y-246388390D01*
X329434523Y-246388390D02*
X329386904Y-246436009D01*
X329386904Y-246436009D02*
X329291666Y-246483628D01*
X329291666Y-246483628D02*
X328910714Y-246483628D01*
X329863095Y-246912200D02*
X330005952Y-246959819D01*
X330005952Y-246959819D02*
X330244047Y-246959819D01*
X330244047Y-246959819D02*
X330339285Y-246912200D01*
X330339285Y-246912200D02*
X330386904Y-246864580D01*
X330386904Y-246864580D02*
X330434523Y-246769342D01*
X330434523Y-246769342D02*
X330434523Y-246674104D01*
X330434523Y-246674104D02*
X330386904Y-246578866D01*
X330386904Y-246578866D02*
X330339285Y-246531247D01*
X330339285Y-246531247D02*
X330244047Y-246483628D01*
X330244047Y-246483628D02*
X330053571Y-246436009D01*
X330053571Y-246436009D02*
X329958333Y-246388390D01*
X329958333Y-246388390D02*
X329910714Y-246340771D01*
X329910714Y-246340771D02*
X329863095Y-246245533D01*
X329863095Y-246245533D02*
X329863095Y-246150295D01*
X329863095Y-246150295D02*
X329910714Y-246055057D01*
X329910714Y-246055057D02*
X329958333Y-246007438D01*
X329958333Y-246007438D02*
X330053571Y-245959819D01*
X330053571Y-245959819D02*
X330291666Y-245959819D01*
X330291666Y-245959819D02*
X330434523Y-246007438D01*
X330815476Y-246055057D02*
X330863095Y-246007438D01*
X330863095Y-246007438D02*
X330958333Y-245959819D01*
X330958333Y-245959819D02*
X331196428Y-245959819D01*
X331196428Y-245959819D02*
X331291666Y-246007438D01*
X331291666Y-246007438D02*
X331339285Y-246055057D01*
X331339285Y-246055057D02*
X331386904Y-246150295D01*
X331386904Y-246150295D02*
X331386904Y-246245533D01*
X331386904Y-246245533D02*
X331339285Y-246388390D01*
X331339285Y-246388390D02*
X330767857Y-246959819D01*
X330767857Y-246959819D02*
X331386904Y-246959819D01*
D11*
X331242580Y-133792380D02*
X332242580Y-133792380D01*
X332242580Y-133792380D02*
X332242580Y-134030475D01*
X332242580Y-134030475D02*
X332194961Y-134173332D01*
X332194961Y-134173332D02*
X332099723Y-134268570D01*
X332099723Y-134268570D02*
X332004485Y-134316189D01*
X332004485Y-134316189D02*
X331814009Y-134363808D01*
X331814009Y-134363808D02*
X331671152Y-134363808D01*
X331671152Y-134363808D02*
X331480676Y-134316189D01*
X331480676Y-134316189D02*
X331385438Y-134268570D01*
X331385438Y-134268570D02*
X331290200Y-134173332D01*
X331290200Y-134173332D02*
X331242580Y-134030475D01*
X331242580Y-134030475D02*
X331242580Y-133792380D01*
X331242580Y-135363808D02*
X331718771Y-135030475D01*
X331242580Y-134792380D02*
X332242580Y-134792380D01*
X332242580Y-134792380D02*
X332242580Y-135173332D01*
X332242580Y-135173332D02*
X332194961Y-135268570D01*
X332194961Y-135268570D02*
X332147342Y-135316189D01*
X332147342Y-135316189D02*
X332052104Y-135363808D01*
X332052104Y-135363808D02*
X331909247Y-135363808D01*
X331909247Y-135363808D02*
X331814009Y-135316189D01*
X331814009Y-135316189D02*
X331766390Y-135268570D01*
X331766390Y-135268570D02*
X331718771Y-135173332D01*
X331718771Y-135173332D02*
X331718771Y-134792380D01*
X332242580Y-135649523D02*
X331242580Y-135982856D01*
X331242580Y-135982856D02*
X332242580Y-136316189D01*
X331814009Y-136792380D02*
X331861628Y-136697142D01*
X331861628Y-136697142D02*
X331909247Y-136649523D01*
X331909247Y-136649523D02*
X332004485Y-136601904D01*
X332004485Y-136601904D02*
X332052104Y-136601904D01*
X332052104Y-136601904D02*
X332147342Y-136649523D01*
X332147342Y-136649523D02*
X332194961Y-136697142D01*
X332194961Y-136697142D02*
X332242580Y-136792380D01*
X332242580Y-136792380D02*
X332242580Y-136982856D01*
X332242580Y-136982856D02*
X332194961Y-137078094D01*
X332194961Y-137078094D02*
X332147342Y-137125713D01*
X332147342Y-137125713D02*
X332052104Y-137173332D01*
X332052104Y-137173332D02*
X332004485Y-137173332D01*
X332004485Y-137173332D02*
X331909247Y-137125713D01*
X331909247Y-137125713D02*
X331861628Y-137078094D01*
X331861628Y-137078094D02*
X331814009Y-136982856D01*
X331814009Y-136982856D02*
X331814009Y-136792380D01*
X331814009Y-136792380D02*
X331766390Y-136697142D01*
X331766390Y-136697142D02*
X331718771Y-136649523D01*
X331718771Y-136649523D02*
X331623533Y-136601904D01*
X331623533Y-136601904D02*
X331433057Y-136601904D01*
X331433057Y-136601904D02*
X331337819Y-136649523D01*
X331337819Y-136649523D02*
X331290200Y-136697142D01*
X331290200Y-136697142D02*
X331242580Y-136792380D01*
X331242580Y-136792380D02*
X331242580Y-136982856D01*
X331242580Y-136982856D02*
X331290200Y-137078094D01*
X331290200Y-137078094D02*
X331337819Y-137125713D01*
X331337819Y-137125713D02*
X331433057Y-137173332D01*
X331433057Y-137173332D02*
X331623533Y-137173332D01*
X331623533Y-137173332D02*
X331718771Y-137125713D01*
X331718771Y-137125713D02*
X331766390Y-137078094D01*
X331766390Y-137078094D02*
X331814009Y-136982856D01*
X331814009Y-137744761D02*
X331861628Y-137649523D01*
X331861628Y-137649523D02*
X331909247Y-137601904D01*
X331909247Y-137601904D02*
X332004485Y-137554285D01*
X332004485Y-137554285D02*
X332052104Y-137554285D01*
X332052104Y-137554285D02*
X332147342Y-137601904D01*
X332147342Y-137601904D02*
X332194961Y-137649523D01*
X332194961Y-137649523D02*
X332242580Y-137744761D01*
X332242580Y-137744761D02*
X332242580Y-137935237D01*
X332242580Y-137935237D02*
X332194961Y-138030475D01*
X332194961Y-138030475D02*
X332147342Y-138078094D01*
X332147342Y-138078094D02*
X332052104Y-138125713D01*
X332052104Y-138125713D02*
X332004485Y-138125713D01*
X332004485Y-138125713D02*
X331909247Y-138078094D01*
X331909247Y-138078094D02*
X331861628Y-138030475D01*
X331861628Y-138030475D02*
X331814009Y-137935237D01*
X331814009Y-137935237D02*
X331814009Y-137744761D01*
X331814009Y-137744761D02*
X331766390Y-137649523D01*
X331766390Y-137649523D02*
X331718771Y-137601904D01*
X331718771Y-137601904D02*
X331623533Y-137554285D01*
X331623533Y-137554285D02*
X331433057Y-137554285D01*
X331433057Y-137554285D02*
X331337819Y-137601904D01*
X331337819Y-137601904D02*
X331290200Y-137649523D01*
X331290200Y-137649523D02*
X331242580Y-137744761D01*
X331242580Y-137744761D02*
X331242580Y-137935237D01*
X331242580Y-137935237D02*
X331290200Y-138030475D01*
X331290200Y-138030475D02*
X331337819Y-138078094D01*
X331337819Y-138078094D02*
X331433057Y-138125713D01*
X331433057Y-138125713D02*
X331623533Y-138125713D01*
X331623533Y-138125713D02*
X331718771Y-138078094D01*
X331718771Y-138078094D02*
X331766390Y-138030475D01*
X331766390Y-138030475D02*
X331814009Y-137935237D01*
X332242580Y-138459047D02*
X332242580Y-139125713D01*
X332242580Y-139125713D02*
X331242580Y-138697142D01*
X331909247Y-139935237D02*
X331242580Y-139935237D01*
X332290200Y-139697142D02*
X331575914Y-139459047D01*
X331575914Y-139459047D02*
X331575914Y-140078094D01*
X331147342Y-140220952D02*
X331147342Y-140982856D01*
X331337819Y-141792380D02*
X331290200Y-141744761D01*
X331290200Y-141744761D02*
X331242580Y-141601904D01*
X331242580Y-141601904D02*
X331242580Y-141506666D01*
X331242580Y-141506666D02*
X331290200Y-141363809D01*
X331290200Y-141363809D02*
X331385438Y-141268571D01*
X331385438Y-141268571D02*
X331480676Y-141220952D01*
X331480676Y-141220952D02*
X331671152Y-141173333D01*
X331671152Y-141173333D02*
X331814009Y-141173333D01*
X331814009Y-141173333D02*
X332004485Y-141220952D01*
X332004485Y-141220952D02*
X332099723Y-141268571D01*
X332099723Y-141268571D02*
X332194961Y-141363809D01*
X332194961Y-141363809D02*
X332242580Y-141506666D01*
X332242580Y-141506666D02*
X332242580Y-141601904D01*
X332242580Y-141601904D02*
X332194961Y-141744761D01*
X332194961Y-141744761D02*
X332147342Y-141792380D01*
X331242580Y-142649523D02*
X331766390Y-142649523D01*
X331766390Y-142649523D02*
X331861628Y-142601904D01*
X331861628Y-142601904D02*
X331909247Y-142506666D01*
X331909247Y-142506666D02*
X331909247Y-142316190D01*
X331909247Y-142316190D02*
X331861628Y-142220952D01*
X331290200Y-142649523D02*
X331242580Y-142554285D01*
X331242580Y-142554285D02*
X331242580Y-142316190D01*
X331242580Y-142316190D02*
X331290200Y-142220952D01*
X331290200Y-142220952D02*
X331385438Y-142173333D01*
X331385438Y-142173333D02*
X331480676Y-142173333D01*
X331480676Y-142173333D02*
X331575914Y-142220952D01*
X331575914Y-142220952D02*
X331623533Y-142316190D01*
X331623533Y-142316190D02*
X331623533Y-142554285D01*
X331623533Y-142554285D02*
X331671152Y-142649523D01*
X331242580Y-143125714D02*
X331909247Y-143125714D01*
X331718771Y-143125714D02*
X331814009Y-143173333D01*
X331814009Y-143173333D02*
X331861628Y-143220952D01*
X331861628Y-143220952D02*
X331909247Y-143316190D01*
X331909247Y-143316190D02*
X331909247Y-143411428D01*
X331242580Y-143744762D02*
X331909247Y-143744762D01*
X331718771Y-143744762D02*
X331814009Y-143792381D01*
X331814009Y-143792381D02*
X331861628Y-143840000D01*
X331861628Y-143840000D02*
X331909247Y-143935238D01*
X331909247Y-143935238D02*
X331909247Y-144030476D01*
X331242580Y-144363810D02*
X331909247Y-144363810D01*
X332242580Y-144363810D02*
X332194961Y-144316191D01*
X332194961Y-144316191D02*
X332147342Y-144363810D01*
X332147342Y-144363810D02*
X332194961Y-144411429D01*
X332194961Y-144411429D02*
X332242580Y-144363810D01*
X332242580Y-144363810D02*
X332147342Y-144363810D01*
X331290200Y-145220952D02*
X331242580Y-145125714D01*
X331242580Y-145125714D02*
X331242580Y-144935238D01*
X331242580Y-144935238D02*
X331290200Y-144840000D01*
X331290200Y-144840000D02*
X331385438Y-144792381D01*
X331385438Y-144792381D02*
X331766390Y-144792381D01*
X331766390Y-144792381D02*
X331861628Y-144840000D01*
X331861628Y-144840000D02*
X331909247Y-144935238D01*
X331909247Y-144935238D02*
X331909247Y-145125714D01*
X331909247Y-145125714D02*
X331861628Y-145220952D01*
X331861628Y-145220952D02*
X331766390Y-145268571D01*
X331766390Y-145268571D02*
X331671152Y-145268571D01*
X331671152Y-145268571D02*
X331575914Y-144792381D01*
X331242580Y-145697143D02*
X331909247Y-145697143D01*
X331718771Y-145697143D02*
X331814009Y-145744762D01*
X331814009Y-145744762D02*
X331861628Y-145792381D01*
X331861628Y-145792381D02*
X331909247Y-145887619D01*
X331909247Y-145887619D02*
X331909247Y-145982857D01*
X331147342Y-146078096D02*
X331147342Y-146840000D01*
X331766390Y-147411429D02*
X331718771Y-147554286D01*
X331718771Y-147554286D02*
X331671152Y-147601905D01*
X331671152Y-147601905D02*
X331575914Y-147649524D01*
X331575914Y-147649524D02*
X331433057Y-147649524D01*
X331433057Y-147649524D02*
X331337819Y-147601905D01*
X331337819Y-147601905D02*
X331290200Y-147554286D01*
X331290200Y-147554286D02*
X331242580Y-147459048D01*
X331242580Y-147459048D02*
X331242580Y-147078096D01*
X331242580Y-147078096D02*
X332242580Y-147078096D01*
X332242580Y-147078096D02*
X332242580Y-147411429D01*
X332242580Y-147411429D02*
X332194961Y-147506667D01*
X332194961Y-147506667D02*
X332147342Y-147554286D01*
X332147342Y-147554286D02*
X332052104Y-147601905D01*
X332052104Y-147601905D02*
X331956866Y-147601905D01*
X331956866Y-147601905D02*
X331861628Y-147554286D01*
X331861628Y-147554286D02*
X331814009Y-147506667D01*
X331814009Y-147506667D02*
X331766390Y-147411429D01*
X331766390Y-147411429D02*
X331766390Y-147078096D01*
X331242580Y-148220953D02*
X331290200Y-148125715D01*
X331290200Y-148125715D02*
X331337819Y-148078096D01*
X331337819Y-148078096D02*
X331433057Y-148030477D01*
X331433057Y-148030477D02*
X331718771Y-148030477D01*
X331718771Y-148030477D02*
X331814009Y-148078096D01*
X331814009Y-148078096D02*
X331861628Y-148125715D01*
X331861628Y-148125715D02*
X331909247Y-148220953D01*
X331909247Y-148220953D02*
X331909247Y-148363810D01*
X331909247Y-148363810D02*
X331861628Y-148459048D01*
X331861628Y-148459048D02*
X331814009Y-148506667D01*
X331814009Y-148506667D02*
X331718771Y-148554286D01*
X331718771Y-148554286D02*
X331433057Y-148554286D01*
X331433057Y-148554286D02*
X331337819Y-148506667D01*
X331337819Y-148506667D02*
X331290200Y-148459048D01*
X331290200Y-148459048D02*
X331242580Y-148363810D01*
X331242580Y-148363810D02*
X331242580Y-148220953D01*
X331242580Y-149411429D02*
X331766390Y-149411429D01*
X331766390Y-149411429D02*
X331861628Y-149363810D01*
X331861628Y-149363810D02*
X331909247Y-149268572D01*
X331909247Y-149268572D02*
X331909247Y-149078096D01*
X331909247Y-149078096D02*
X331861628Y-148982858D01*
X331290200Y-149411429D02*
X331242580Y-149316191D01*
X331242580Y-149316191D02*
X331242580Y-149078096D01*
X331242580Y-149078096D02*
X331290200Y-148982858D01*
X331290200Y-148982858D02*
X331385438Y-148935239D01*
X331385438Y-148935239D02*
X331480676Y-148935239D01*
X331480676Y-148935239D02*
X331575914Y-148982858D01*
X331575914Y-148982858D02*
X331623533Y-149078096D01*
X331623533Y-149078096D02*
X331623533Y-149316191D01*
X331623533Y-149316191D02*
X331671152Y-149411429D01*
X331242580Y-149887620D02*
X331909247Y-149887620D01*
X331718771Y-149887620D02*
X331814009Y-149935239D01*
X331814009Y-149935239D02*
X331861628Y-149982858D01*
X331861628Y-149982858D02*
X331909247Y-150078096D01*
X331909247Y-150078096D02*
X331909247Y-150173334D01*
X331242580Y-150935239D02*
X332242580Y-150935239D01*
X331290200Y-150935239D02*
X331242580Y-150840001D01*
X331242580Y-150840001D02*
X331242580Y-150649525D01*
X331242580Y-150649525D02*
X331290200Y-150554287D01*
X331290200Y-150554287D02*
X331337819Y-150506668D01*
X331337819Y-150506668D02*
X331433057Y-150459049D01*
X331433057Y-150459049D02*
X331718771Y-150459049D01*
X331718771Y-150459049D02*
X331814009Y-150506668D01*
X331814009Y-150506668D02*
X331861628Y-150554287D01*
X331861628Y-150554287D02*
X331909247Y-150649525D01*
X331909247Y-150649525D02*
X331909247Y-150840001D01*
X331909247Y-150840001D02*
X331861628Y-150935239D01*
X332242580Y-151887620D02*
X332242580Y-151411430D01*
X332242580Y-151411430D02*
X331766390Y-151363811D01*
X331766390Y-151363811D02*
X331814009Y-151411430D01*
X331814009Y-151411430D02*
X331861628Y-151506668D01*
X331861628Y-151506668D02*
X331861628Y-151744763D01*
X331861628Y-151744763D02*
X331814009Y-151840001D01*
X331814009Y-151840001D02*
X331766390Y-151887620D01*
X331766390Y-151887620D02*
X331671152Y-151935239D01*
X331671152Y-151935239D02*
X331433057Y-151935239D01*
X331433057Y-151935239D02*
X331337819Y-151887620D01*
X331337819Y-151887620D02*
X331290200Y-151840001D01*
X331290200Y-151840001D02*
X331242580Y-151744763D01*
X331242580Y-151744763D02*
X331242580Y-151506668D01*
X331242580Y-151506668D02*
X331290200Y-151411430D01*
X331290200Y-151411430D02*
X331337819Y-151363811D01*
X359409800Y-152833332D02*
X359457419Y-152690475D01*
X359457419Y-152690475D02*
X359457419Y-152452380D01*
X359457419Y-152452380D02*
X359409800Y-152357142D01*
X359409800Y-152357142D02*
X359362180Y-152309523D01*
X359362180Y-152309523D02*
X359266942Y-152261904D01*
X359266942Y-152261904D02*
X359171704Y-152261904D01*
X359171704Y-152261904D02*
X359076466Y-152309523D01*
X359076466Y-152309523D02*
X359028847Y-152357142D01*
X359028847Y-152357142D02*
X358981228Y-152452380D01*
X358981228Y-152452380D02*
X358933609Y-152642856D01*
X358933609Y-152642856D02*
X358885990Y-152738094D01*
X358885990Y-152738094D02*
X358838371Y-152785713D01*
X358838371Y-152785713D02*
X358743133Y-152833332D01*
X358743133Y-152833332D02*
X358647895Y-152833332D01*
X358647895Y-152833332D02*
X358552657Y-152785713D01*
X358552657Y-152785713D02*
X358505038Y-152738094D01*
X358505038Y-152738094D02*
X358457419Y-152642856D01*
X358457419Y-152642856D02*
X358457419Y-152404761D01*
X358457419Y-152404761D02*
X358505038Y-152261904D01*
X358457419Y-151928570D02*
X359457419Y-151690475D01*
X359457419Y-151690475D02*
X358743133Y-151499999D01*
X358743133Y-151499999D02*
X359457419Y-151309523D01*
X359457419Y-151309523D02*
X358457419Y-151071428D01*
X359457419Y-150166666D02*
X359457419Y-150738094D01*
X359457419Y-150452380D02*
X358457419Y-150452380D01*
X358457419Y-150452380D02*
X358600276Y-150547618D01*
X358600276Y-150547618D02*
X358695514Y-150642856D01*
X358695514Y-150642856D02*
X358743133Y-150738094D01*
D10*
X309628333Y-180628866D02*
X309628333Y-181628866D01*
X309628333Y-181628866D02*
X309561666Y-181828866D01*
X309561666Y-181828866D02*
X309428333Y-181962200D01*
X309428333Y-181962200D02*
X309228333Y-182028866D01*
X309228333Y-182028866D02*
X309095000Y-182028866D01*
X310161667Y-180628866D02*
X311095000Y-180628866D01*
X311095000Y-180628866D02*
X310495000Y-182028866D01*
X308858333Y-193350866D02*
X308858333Y-194350866D01*
X308858333Y-194350866D02*
X308791666Y-194550866D01*
X308791666Y-194550866D02*
X308658333Y-194684200D01*
X308658333Y-194684200D02*
X308458333Y-194750866D01*
X308458333Y-194750866D02*
X308325000Y-194750866D01*
X309391667Y-193350866D02*
X310258333Y-193350866D01*
X310258333Y-193350866D02*
X309791667Y-193884200D01*
X309791667Y-193884200D02*
X309991667Y-193884200D01*
X309991667Y-193884200D02*
X310125000Y-193950866D01*
X310125000Y-193950866D02*
X310191667Y-194017533D01*
X310191667Y-194017533D02*
X310258333Y-194150866D01*
X310258333Y-194150866D02*
X310258333Y-194484200D01*
X310258333Y-194484200D02*
X310191667Y-194617533D01*
X310191667Y-194617533D02*
X310125000Y-194684200D01*
X310125000Y-194684200D02*
X309991667Y-194750866D01*
X309991667Y-194750866D02*
X309591667Y-194750866D01*
X309591667Y-194750866D02*
X309458333Y-194684200D01*
X309458333Y-194684200D02*
X309391667Y-194617533D01*
X311850595Y-184454819D02*
X311850595Y-185264342D01*
X311850595Y-185264342D02*
X311898214Y-185359580D01*
X311898214Y-185359580D02*
X311945833Y-185407200D01*
X311945833Y-185407200D02*
X312041071Y-185454819D01*
X312041071Y-185454819D02*
X312231547Y-185454819D01*
X312231547Y-185454819D02*
X312326785Y-185407200D01*
X312326785Y-185407200D02*
X312374404Y-185359580D01*
X312374404Y-185359580D02*
X312422023Y-185264342D01*
X312422023Y-185264342D02*
X312422023Y-184454819D01*
X313326785Y-184454819D02*
X313136309Y-184454819D01*
X313136309Y-184454819D02*
X313041071Y-184502438D01*
X313041071Y-184502438D02*
X312993452Y-184550057D01*
X312993452Y-184550057D02*
X312898214Y-184692914D01*
X312898214Y-184692914D02*
X312850595Y-184883390D01*
X312850595Y-184883390D02*
X312850595Y-185264342D01*
X312850595Y-185264342D02*
X312898214Y-185359580D01*
X312898214Y-185359580D02*
X312945833Y-185407200D01*
X312945833Y-185407200D02*
X313041071Y-185454819D01*
X313041071Y-185454819D02*
X313231547Y-185454819D01*
X313231547Y-185454819D02*
X313326785Y-185407200D01*
X313326785Y-185407200D02*
X313374404Y-185359580D01*
X313374404Y-185359580D02*
X313422023Y-185264342D01*
X313422023Y-185264342D02*
X313422023Y-185026247D01*
X313422023Y-185026247D02*
X313374404Y-184931009D01*
X313374404Y-184931009D02*
X313326785Y-184883390D01*
X313326785Y-184883390D02*
X313231547Y-184835771D01*
X313231547Y-184835771D02*
X313041071Y-184835771D01*
X313041071Y-184835771D02*
X312945833Y-184883390D01*
X312945833Y-184883390D02*
X312898214Y-184931009D01*
X312898214Y-184931009D02*
X312850595Y-185026247D01*
D11*
X296027419Y-242317619D02*
X295027419Y-242317619D01*
X295027419Y-242317619D02*
X295027419Y-242079524D01*
X295027419Y-242079524D02*
X295075038Y-241936667D01*
X295075038Y-241936667D02*
X295170276Y-241841429D01*
X295170276Y-241841429D02*
X295265514Y-241793810D01*
X295265514Y-241793810D02*
X295455990Y-241746191D01*
X295455990Y-241746191D02*
X295598847Y-241746191D01*
X295598847Y-241746191D02*
X295789323Y-241793810D01*
X295789323Y-241793810D02*
X295884561Y-241841429D01*
X295884561Y-241841429D02*
X295979800Y-241936667D01*
X295979800Y-241936667D02*
X296027419Y-242079524D01*
X296027419Y-242079524D02*
X296027419Y-242317619D01*
X296027419Y-240746191D02*
X295551228Y-241079524D01*
X296027419Y-241317619D02*
X295027419Y-241317619D01*
X295027419Y-241317619D02*
X295027419Y-240936667D01*
X295027419Y-240936667D02*
X295075038Y-240841429D01*
X295075038Y-240841429D02*
X295122657Y-240793810D01*
X295122657Y-240793810D02*
X295217895Y-240746191D01*
X295217895Y-240746191D02*
X295360752Y-240746191D01*
X295360752Y-240746191D02*
X295455990Y-240793810D01*
X295455990Y-240793810D02*
X295503609Y-240841429D01*
X295503609Y-240841429D02*
X295551228Y-240936667D01*
X295551228Y-240936667D02*
X295551228Y-241317619D01*
X295027419Y-240460476D02*
X296027419Y-240127143D01*
X296027419Y-240127143D02*
X295027419Y-239793810D01*
X295455990Y-239317619D02*
X295408371Y-239412857D01*
X295408371Y-239412857D02*
X295360752Y-239460476D01*
X295360752Y-239460476D02*
X295265514Y-239508095D01*
X295265514Y-239508095D02*
X295217895Y-239508095D01*
X295217895Y-239508095D02*
X295122657Y-239460476D01*
X295122657Y-239460476D02*
X295075038Y-239412857D01*
X295075038Y-239412857D02*
X295027419Y-239317619D01*
X295027419Y-239317619D02*
X295027419Y-239127143D01*
X295027419Y-239127143D02*
X295075038Y-239031905D01*
X295075038Y-239031905D02*
X295122657Y-238984286D01*
X295122657Y-238984286D02*
X295217895Y-238936667D01*
X295217895Y-238936667D02*
X295265514Y-238936667D01*
X295265514Y-238936667D02*
X295360752Y-238984286D01*
X295360752Y-238984286D02*
X295408371Y-239031905D01*
X295408371Y-239031905D02*
X295455990Y-239127143D01*
X295455990Y-239127143D02*
X295455990Y-239317619D01*
X295455990Y-239317619D02*
X295503609Y-239412857D01*
X295503609Y-239412857D02*
X295551228Y-239460476D01*
X295551228Y-239460476D02*
X295646466Y-239508095D01*
X295646466Y-239508095D02*
X295836942Y-239508095D01*
X295836942Y-239508095D02*
X295932180Y-239460476D01*
X295932180Y-239460476D02*
X295979800Y-239412857D01*
X295979800Y-239412857D02*
X296027419Y-239317619D01*
X296027419Y-239317619D02*
X296027419Y-239127143D01*
X296027419Y-239127143D02*
X295979800Y-239031905D01*
X295979800Y-239031905D02*
X295932180Y-238984286D01*
X295932180Y-238984286D02*
X295836942Y-238936667D01*
X295836942Y-238936667D02*
X295646466Y-238936667D01*
X295646466Y-238936667D02*
X295551228Y-238984286D01*
X295551228Y-238984286D02*
X295503609Y-239031905D01*
X295503609Y-239031905D02*
X295455990Y-239127143D01*
X295455990Y-238365238D02*
X295408371Y-238460476D01*
X295408371Y-238460476D02*
X295360752Y-238508095D01*
X295360752Y-238508095D02*
X295265514Y-238555714D01*
X295265514Y-238555714D02*
X295217895Y-238555714D01*
X295217895Y-238555714D02*
X295122657Y-238508095D01*
X295122657Y-238508095D02*
X295075038Y-238460476D01*
X295075038Y-238460476D02*
X295027419Y-238365238D01*
X295027419Y-238365238D02*
X295027419Y-238174762D01*
X295027419Y-238174762D02*
X295075038Y-238079524D01*
X295075038Y-238079524D02*
X295122657Y-238031905D01*
X295122657Y-238031905D02*
X295217895Y-237984286D01*
X295217895Y-237984286D02*
X295265514Y-237984286D01*
X295265514Y-237984286D02*
X295360752Y-238031905D01*
X295360752Y-238031905D02*
X295408371Y-238079524D01*
X295408371Y-238079524D02*
X295455990Y-238174762D01*
X295455990Y-238174762D02*
X295455990Y-238365238D01*
X295455990Y-238365238D02*
X295503609Y-238460476D01*
X295503609Y-238460476D02*
X295551228Y-238508095D01*
X295551228Y-238508095D02*
X295646466Y-238555714D01*
X295646466Y-238555714D02*
X295836942Y-238555714D01*
X295836942Y-238555714D02*
X295932180Y-238508095D01*
X295932180Y-238508095D02*
X295979800Y-238460476D01*
X295979800Y-238460476D02*
X296027419Y-238365238D01*
X296027419Y-238365238D02*
X296027419Y-238174762D01*
X296027419Y-238174762D02*
X295979800Y-238079524D01*
X295979800Y-238079524D02*
X295932180Y-238031905D01*
X295932180Y-238031905D02*
X295836942Y-237984286D01*
X295836942Y-237984286D02*
X295646466Y-237984286D01*
X295646466Y-237984286D02*
X295551228Y-238031905D01*
X295551228Y-238031905D02*
X295503609Y-238079524D01*
X295503609Y-238079524D02*
X295455990Y-238174762D01*
X295027419Y-237650952D02*
X295027419Y-236984286D01*
X295027419Y-236984286D02*
X296027419Y-237412857D01*
X295360752Y-236174762D02*
X296027419Y-236174762D01*
X294979800Y-236412857D02*
X295694085Y-236650952D01*
X295694085Y-236650952D02*
X295694085Y-236031905D01*
X296122657Y-235889048D02*
X296122657Y-235127143D01*
X295932180Y-234317619D02*
X295979800Y-234365238D01*
X295979800Y-234365238D02*
X296027419Y-234508095D01*
X296027419Y-234508095D02*
X296027419Y-234603333D01*
X296027419Y-234603333D02*
X295979800Y-234746190D01*
X295979800Y-234746190D02*
X295884561Y-234841428D01*
X295884561Y-234841428D02*
X295789323Y-234889047D01*
X295789323Y-234889047D02*
X295598847Y-234936666D01*
X295598847Y-234936666D02*
X295455990Y-234936666D01*
X295455990Y-234936666D02*
X295265514Y-234889047D01*
X295265514Y-234889047D02*
X295170276Y-234841428D01*
X295170276Y-234841428D02*
X295075038Y-234746190D01*
X295075038Y-234746190D02*
X295027419Y-234603333D01*
X295027419Y-234603333D02*
X295027419Y-234508095D01*
X295027419Y-234508095D02*
X295075038Y-234365238D01*
X295075038Y-234365238D02*
X295122657Y-234317619D01*
X296027419Y-233460476D02*
X295503609Y-233460476D01*
X295503609Y-233460476D02*
X295408371Y-233508095D01*
X295408371Y-233508095D02*
X295360752Y-233603333D01*
X295360752Y-233603333D02*
X295360752Y-233793809D01*
X295360752Y-233793809D02*
X295408371Y-233889047D01*
X295979800Y-233460476D02*
X296027419Y-233555714D01*
X296027419Y-233555714D02*
X296027419Y-233793809D01*
X296027419Y-233793809D02*
X295979800Y-233889047D01*
X295979800Y-233889047D02*
X295884561Y-233936666D01*
X295884561Y-233936666D02*
X295789323Y-233936666D01*
X295789323Y-233936666D02*
X295694085Y-233889047D01*
X295694085Y-233889047D02*
X295646466Y-233793809D01*
X295646466Y-233793809D02*
X295646466Y-233555714D01*
X295646466Y-233555714D02*
X295598847Y-233460476D01*
X296027419Y-232984285D02*
X295360752Y-232984285D01*
X295551228Y-232984285D02*
X295455990Y-232936666D01*
X295455990Y-232936666D02*
X295408371Y-232889047D01*
X295408371Y-232889047D02*
X295360752Y-232793809D01*
X295360752Y-232793809D02*
X295360752Y-232698571D01*
X296027419Y-232365237D02*
X295360752Y-232365237D01*
X295551228Y-232365237D02*
X295455990Y-232317618D01*
X295455990Y-232317618D02*
X295408371Y-232269999D01*
X295408371Y-232269999D02*
X295360752Y-232174761D01*
X295360752Y-232174761D02*
X295360752Y-232079523D01*
X296027419Y-231746189D02*
X295360752Y-231746189D01*
X295027419Y-231746189D02*
X295075038Y-231793808D01*
X295075038Y-231793808D02*
X295122657Y-231746189D01*
X295122657Y-231746189D02*
X295075038Y-231698570D01*
X295075038Y-231698570D02*
X295027419Y-231746189D01*
X295027419Y-231746189D02*
X295122657Y-231746189D01*
X295979800Y-230889047D02*
X296027419Y-230984285D01*
X296027419Y-230984285D02*
X296027419Y-231174761D01*
X296027419Y-231174761D02*
X295979800Y-231269999D01*
X295979800Y-231269999D02*
X295884561Y-231317618D01*
X295884561Y-231317618D02*
X295503609Y-231317618D01*
X295503609Y-231317618D02*
X295408371Y-231269999D01*
X295408371Y-231269999D02*
X295360752Y-231174761D01*
X295360752Y-231174761D02*
X295360752Y-230984285D01*
X295360752Y-230984285D02*
X295408371Y-230889047D01*
X295408371Y-230889047D02*
X295503609Y-230841428D01*
X295503609Y-230841428D02*
X295598847Y-230841428D01*
X295598847Y-230841428D02*
X295694085Y-231317618D01*
X296027419Y-230412856D02*
X295360752Y-230412856D01*
X295551228Y-230412856D02*
X295455990Y-230365237D01*
X295455990Y-230365237D02*
X295408371Y-230317618D01*
X295408371Y-230317618D02*
X295360752Y-230222380D01*
X295360752Y-230222380D02*
X295360752Y-230127142D01*
X296122657Y-230031904D02*
X296122657Y-229269999D01*
X295503609Y-228698570D02*
X295551228Y-228555713D01*
X295551228Y-228555713D02*
X295598847Y-228508094D01*
X295598847Y-228508094D02*
X295694085Y-228460475D01*
X295694085Y-228460475D02*
X295836942Y-228460475D01*
X295836942Y-228460475D02*
X295932180Y-228508094D01*
X295932180Y-228508094D02*
X295979800Y-228555713D01*
X295979800Y-228555713D02*
X296027419Y-228650951D01*
X296027419Y-228650951D02*
X296027419Y-229031903D01*
X296027419Y-229031903D02*
X295027419Y-229031903D01*
X295027419Y-229031903D02*
X295027419Y-228698570D01*
X295027419Y-228698570D02*
X295075038Y-228603332D01*
X295075038Y-228603332D02*
X295122657Y-228555713D01*
X295122657Y-228555713D02*
X295217895Y-228508094D01*
X295217895Y-228508094D02*
X295313133Y-228508094D01*
X295313133Y-228508094D02*
X295408371Y-228555713D01*
X295408371Y-228555713D02*
X295455990Y-228603332D01*
X295455990Y-228603332D02*
X295503609Y-228698570D01*
X295503609Y-228698570D02*
X295503609Y-229031903D01*
X296027419Y-227889046D02*
X295979800Y-227984284D01*
X295979800Y-227984284D02*
X295932180Y-228031903D01*
X295932180Y-228031903D02*
X295836942Y-228079522D01*
X295836942Y-228079522D02*
X295551228Y-228079522D01*
X295551228Y-228079522D02*
X295455990Y-228031903D01*
X295455990Y-228031903D02*
X295408371Y-227984284D01*
X295408371Y-227984284D02*
X295360752Y-227889046D01*
X295360752Y-227889046D02*
X295360752Y-227746189D01*
X295360752Y-227746189D02*
X295408371Y-227650951D01*
X295408371Y-227650951D02*
X295455990Y-227603332D01*
X295455990Y-227603332D02*
X295551228Y-227555713D01*
X295551228Y-227555713D02*
X295836942Y-227555713D01*
X295836942Y-227555713D02*
X295932180Y-227603332D01*
X295932180Y-227603332D02*
X295979800Y-227650951D01*
X295979800Y-227650951D02*
X296027419Y-227746189D01*
X296027419Y-227746189D02*
X296027419Y-227889046D01*
X296027419Y-226698570D02*
X295503609Y-226698570D01*
X295503609Y-226698570D02*
X295408371Y-226746189D01*
X295408371Y-226746189D02*
X295360752Y-226841427D01*
X295360752Y-226841427D02*
X295360752Y-227031903D01*
X295360752Y-227031903D02*
X295408371Y-227127141D01*
X295979800Y-226698570D02*
X296027419Y-226793808D01*
X296027419Y-226793808D02*
X296027419Y-227031903D01*
X296027419Y-227031903D02*
X295979800Y-227127141D01*
X295979800Y-227127141D02*
X295884561Y-227174760D01*
X295884561Y-227174760D02*
X295789323Y-227174760D01*
X295789323Y-227174760D02*
X295694085Y-227127141D01*
X295694085Y-227127141D02*
X295646466Y-227031903D01*
X295646466Y-227031903D02*
X295646466Y-226793808D01*
X295646466Y-226793808D02*
X295598847Y-226698570D01*
X296027419Y-226222379D02*
X295360752Y-226222379D01*
X295551228Y-226222379D02*
X295455990Y-226174760D01*
X295455990Y-226174760D02*
X295408371Y-226127141D01*
X295408371Y-226127141D02*
X295360752Y-226031903D01*
X295360752Y-226031903D02*
X295360752Y-225936665D01*
X296027419Y-225174760D02*
X295027419Y-225174760D01*
X295979800Y-225174760D02*
X296027419Y-225269998D01*
X296027419Y-225269998D02*
X296027419Y-225460474D01*
X296027419Y-225460474D02*
X295979800Y-225555712D01*
X295979800Y-225555712D02*
X295932180Y-225603331D01*
X295932180Y-225603331D02*
X295836942Y-225650950D01*
X295836942Y-225650950D02*
X295551228Y-225650950D01*
X295551228Y-225650950D02*
X295455990Y-225603331D01*
X295455990Y-225603331D02*
X295408371Y-225555712D01*
X295408371Y-225555712D02*
X295360752Y-225460474D01*
X295360752Y-225460474D02*
X295360752Y-225269998D01*
X295360752Y-225269998D02*
X295408371Y-225174760D01*
X295122657Y-224746188D02*
X295075038Y-224698569D01*
X295075038Y-224698569D02*
X295027419Y-224603331D01*
X295027419Y-224603331D02*
X295027419Y-224365236D01*
X295027419Y-224365236D02*
X295075038Y-224269998D01*
X295075038Y-224269998D02*
X295122657Y-224222379D01*
X295122657Y-224222379D02*
X295217895Y-224174760D01*
X295217895Y-224174760D02*
X295313133Y-224174760D01*
X295313133Y-224174760D02*
X295455990Y-224222379D01*
X295455990Y-224222379D02*
X296027419Y-224793807D01*
X296027419Y-224793807D02*
X296027419Y-224174760D01*
D10*
X268063333Y-177534819D02*
X267730000Y-177058628D01*
X267491905Y-177534819D02*
X267491905Y-176534819D01*
X267491905Y-176534819D02*
X267872857Y-176534819D01*
X267872857Y-176534819D02*
X267968095Y-176582438D01*
X267968095Y-176582438D02*
X268015714Y-176630057D01*
X268015714Y-176630057D02*
X268063333Y-176725295D01*
X268063333Y-176725295D02*
X268063333Y-176868152D01*
X268063333Y-176868152D02*
X268015714Y-176963390D01*
X268015714Y-176963390D02*
X267968095Y-177011009D01*
X267968095Y-177011009D02*
X267872857Y-177058628D01*
X267872857Y-177058628D02*
X267491905Y-177058628D01*
X269015714Y-177534819D02*
X268444286Y-177534819D01*
X268730000Y-177534819D02*
X268730000Y-176534819D01*
X268730000Y-176534819D02*
X268634762Y-176677676D01*
X268634762Y-176677676D02*
X268539524Y-176772914D01*
X268539524Y-176772914D02*
X268444286Y-176820533D01*
X314350714Y-127139819D02*
X314350714Y-126139819D01*
X314350714Y-126139819D02*
X314731666Y-126139819D01*
X314731666Y-126139819D02*
X314826904Y-126187438D01*
X314826904Y-126187438D02*
X314874523Y-126235057D01*
X314874523Y-126235057D02*
X314922142Y-126330295D01*
X314922142Y-126330295D02*
X314922142Y-126473152D01*
X314922142Y-126473152D02*
X314874523Y-126568390D01*
X314874523Y-126568390D02*
X314826904Y-126616009D01*
X314826904Y-126616009D02*
X314731666Y-126663628D01*
X314731666Y-126663628D02*
X314350714Y-126663628D01*
X315303095Y-127092200D02*
X315445952Y-127139819D01*
X315445952Y-127139819D02*
X315684047Y-127139819D01*
X315684047Y-127139819D02*
X315779285Y-127092200D01*
X315779285Y-127092200D02*
X315826904Y-127044580D01*
X315826904Y-127044580D02*
X315874523Y-126949342D01*
X315874523Y-126949342D02*
X315874523Y-126854104D01*
X315874523Y-126854104D02*
X315826904Y-126758866D01*
X315826904Y-126758866D02*
X315779285Y-126711247D01*
X315779285Y-126711247D02*
X315684047Y-126663628D01*
X315684047Y-126663628D02*
X315493571Y-126616009D01*
X315493571Y-126616009D02*
X315398333Y-126568390D01*
X315398333Y-126568390D02*
X315350714Y-126520771D01*
X315350714Y-126520771D02*
X315303095Y-126425533D01*
X315303095Y-126425533D02*
X315303095Y-126330295D01*
X315303095Y-126330295D02*
X315350714Y-126235057D01*
X315350714Y-126235057D02*
X315398333Y-126187438D01*
X315398333Y-126187438D02*
X315493571Y-126139819D01*
X315493571Y-126139819D02*
X315731666Y-126139819D01*
X315731666Y-126139819D02*
X315874523Y-126187438D01*
X316826904Y-127139819D02*
X316255476Y-127139819D01*
X316541190Y-127139819D02*
X316541190Y-126139819D01*
X316541190Y-126139819D02*
X316445952Y-126282676D01*
X316445952Y-126282676D02*
X316350714Y-126377914D01*
X316350714Y-126377914D02*
X316255476Y-126425533D01*
D11*
X357092580Y-133182380D02*
X358092580Y-133182380D01*
X358092580Y-133182380D02*
X358092580Y-133420475D01*
X358092580Y-133420475D02*
X358044961Y-133563332D01*
X358044961Y-133563332D02*
X357949723Y-133658570D01*
X357949723Y-133658570D02*
X357854485Y-133706189D01*
X357854485Y-133706189D02*
X357664009Y-133753808D01*
X357664009Y-133753808D02*
X357521152Y-133753808D01*
X357521152Y-133753808D02*
X357330676Y-133706189D01*
X357330676Y-133706189D02*
X357235438Y-133658570D01*
X357235438Y-133658570D02*
X357140200Y-133563332D01*
X357140200Y-133563332D02*
X357092580Y-133420475D01*
X357092580Y-133420475D02*
X357092580Y-133182380D01*
X357092580Y-134753808D02*
X357568771Y-134420475D01*
X357092580Y-134182380D02*
X358092580Y-134182380D01*
X358092580Y-134182380D02*
X358092580Y-134563332D01*
X358092580Y-134563332D02*
X358044961Y-134658570D01*
X358044961Y-134658570D02*
X357997342Y-134706189D01*
X357997342Y-134706189D02*
X357902104Y-134753808D01*
X357902104Y-134753808D02*
X357759247Y-134753808D01*
X357759247Y-134753808D02*
X357664009Y-134706189D01*
X357664009Y-134706189D02*
X357616390Y-134658570D01*
X357616390Y-134658570D02*
X357568771Y-134563332D01*
X357568771Y-134563332D02*
X357568771Y-134182380D01*
X358092580Y-135039523D02*
X357092580Y-135372856D01*
X357092580Y-135372856D02*
X358092580Y-135706189D01*
X357664009Y-136182380D02*
X357711628Y-136087142D01*
X357711628Y-136087142D02*
X357759247Y-136039523D01*
X357759247Y-136039523D02*
X357854485Y-135991904D01*
X357854485Y-135991904D02*
X357902104Y-135991904D01*
X357902104Y-135991904D02*
X357997342Y-136039523D01*
X357997342Y-136039523D02*
X358044961Y-136087142D01*
X358044961Y-136087142D02*
X358092580Y-136182380D01*
X358092580Y-136182380D02*
X358092580Y-136372856D01*
X358092580Y-136372856D02*
X358044961Y-136468094D01*
X358044961Y-136468094D02*
X357997342Y-136515713D01*
X357997342Y-136515713D02*
X357902104Y-136563332D01*
X357902104Y-136563332D02*
X357854485Y-136563332D01*
X357854485Y-136563332D02*
X357759247Y-136515713D01*
X357759247Y-136515713D02*
X357711628Y-136468094D01*
X357711628Y-136468094D02*
X357664009Y-136372856D01*
X357664009Y-136372856D02*
X357664009Y-136182380D01*
X357664009Y-136182380D02*
X357616390Y-136087142D01*
X357616390Y-136087142D02*
X357568771Y-136039523D01*
X357568771Y-136039523D02*
X357473533Y-135991904D01*
X357473533Y-135991904D02*
X357283057Y-135991904D01*
X357283057Y-135991904D02*
X357187819Y-136039523D01*
X357187819Y-136039523D02*
X357140200Y-136087142D01*
X357140200Y-136087142D02*
X357092580Y-136182380D01*
X357092580Y-136182380D02*
X357092580Y-136372856D01*
X357092580Y-136372856D02*
X357140200Y-136468094D01*
X357140200Y-136468094D02*
X357187819Y-136515713D01*
X357187819Y-136515713D02*
X357283057Y-136563332D01*
X357283057Y-136563332D02*
X357473533Y-136563332D01*
X357473533Y-136563332D02*
X357568771Y-136515713D01*
X357568771Y-136515713D02*
X357616390Y-136468094D01*
X357616390Y-136468094D02*
X357664009Y-136372856D01*
X357664009Y-137134761D02*
X357711628Y-137039523D01*
X357711628Y-137039523D02*
X357759247Y-136991904D01*
X357759247Y-136991904D02*
X357854485Y-136944285D01*
X357854485Y-136944285D02*
X357902104Y-136944285D01*
X357902104Y-136944285D02*
X357997342Y-136991904D01*
X357997342Y-136991904D02*
X358044961Y-137039523D01*
X358044961Y-137039523D02*
X358092580Y-137134761D01*
X358092580Y-137134761D02*
X358092580Y-137325237D01*
X358092580Y-137325237D02*
X358044961Y-137420475D01*
X358044961Y-137420475D02*
X357997342Y-137468094D01*
X357997342Y-137468094D02*
X357902104Y-137515713D01*
X357902104Y-137515713D02*
X357854485Y-137515713D01*
X357854485Y-137515713D02*
X357759247Y-137468094D01*
X357759247Y-137468094D02*
X357711628Y-137420475D01*
X357711628Y-137420475D02*
X357664009Y-137325237D01*
X357664009Y-137325237D02*
X357664009Y-137134761D01*
X357664009Y-137134761D02*
X357616390Y-137039523D01*
X357616390Y-137039523D02*
X357568771Y-136991904D01*
X357568771Y-136991904D02*
X357473533Y-136944285D01*
X357473533Y-136944285D02*
X357283057Y-136944285D01*
X357283057Y-136944285D02*
X357187819Y-136991904D01*
X357187819Y-136991904D02*
X357140200Y-137039523D01*
X357140200Y-137039523D02*
X357092580Y-137134761D01*
X357092580Y-137134761D02*
X357092580Y-137325237D01*
X357092580Y-137325237D02*
X357140200Y-137420475D01*
X357140200Y-137420475D02*
X357187819Y-137468094D01*
X357187819Y-137468094D02*
X357283057Y-137515713D01*
X357283057Y-137515713D02*
X357473533Y-137515713D01*
X357473533Y-137515713D02*
X357568771Y-137468094D01*
X357568771Y-137468094D02*
X357616390Y-137420475D01*
X357616390Y-137420475D02*
X357664009Y-137325237D01*
X358092580Y-137849047D02*
X358092580Y-138515713D01*
X358092580Y-138515713D02*
X357092580Y-138087142D01*
X357759247Y-139325237D02*
X357092580Y-139325237D01*
X358140200Y-139087142D02*
X357425914Y-138849047D01*
X357425914Y-138849047D02*
X357425914Y-139468094D01*
X356997342Y-139610952D02*
X356997342Y-140372856D01*
X357187819Y-141182380D02*
X357140200Y-141134761D01*
X357140200Y-141134761D02*
X357092580Y-140991904D01*
X357092580Y-140991904D02*
X357092580Y-140896666D01*
X357092580Y-140896666D02*
X357140200Y-140753809D01*
X357140200Y-140753809D02*
X357235438Y-140658571D01*
X357235438Y-140658571D02*
X357330676Y-140610952D01*
X357330676Y-140610952D02*
X357521152Y-140563333D01*
X357521152Y-140563333D02*
X357664009Y-140563333D01*
X357664009Y-140563333D02*
X357854485Y-140610952D01*
X357854485Y-140610952D02*
X357949723Y-140658571D01*
X357949723Y-140658571D02*
X358044961Y-140753809D01*
X358044961Y-140753809D02*
X358092580Y-140896666D01*
X358092580Y-140896666D02*
X358092580Y-140991904D01*
X358092580Y-140991904D02*
X358044961Y-141134761D01*
X358044961Y-141134761D02*
X357997342Y-141182380D01*
X357092580Y-142039523D02*
X357616390Y-142039523D01*
X357616390Y-142039523D02*
X357711628Y-141991904D01*
X357711628Y-141991904D02*
X357759247Y-141896666D01*
X357759247Y-141896666D02*
X357759247Y-141706190D01*
X357759247Y-141706190D02*
X357711628Y-141610952D01*
X357140200Y-142039523D02*
X357092580Y-141944285D01*
X357092580Y-141944285D02*
X357092580Y-141706190D01*
X357092580Y-141706190D02*
X357140200Y-141610952D01*
X357140200Y-141610952D02*
X357235438Y-141563333D01*
X357235438Y-141563333D02*
X357330676Y-141563333D01*
X357330676Y-141563333D02*
X357425914Y-141610952D01*
X357425914Y-141610952D02*
X357473533Y-141706190D01*
X357473533Y-141706190D02*
X357473533Y-141944285D01*
X357473533Y-141944285D02*
X357521152Y-142039523D01*
X357092580Y-142515714D02*
X357759247Y-142515714D01*
X357568771Y-142515714D02*
X357664009Y-142563333D01*
X357664009Y-142563333D02*
X357711628Y-142610952D01*
X357711628Y-142610952D02*
X357759247Y-142706190D01*
X357759247Y-142706190D02*
X357759247Y-142801428D01*
X357092580Y-143134762D02*
X357759247Y-143134762D01*
X357568771Y-143134762D02*
X357664009Y-143182381D01*
X357664009Y-143182381D02*
X357711628Y-143230000D01*
X357711628Y-143230000D02*
X357759247Y-143325238D01*
X357759247Y-143325238D02*
X357759247Y-143420476D01*
X357092580Y-143753810D02*
X357759247Y-143753810D01*
X358092580Y-143753810D02*
X358044961Y-143706191D01*
X358044961Y-143706191D02*
X357997342Y-143753810D01*
X357997342Y-143753810D02*
X358044961Y-143801429D01*
X358044961Y-143801429D02*
X358092580Y-143753810D01*
X358092580Y-143753810D02*
X357997342Y-143753810D01*
X357140200Y-144610952D02*
X357092580Y-144515714D01*
X357092580Y-144515714D02*
X357092580Y-144325238D01*
X357092580Y-144325238D02*
X357140200Y-144230000D01*
X357140200Y-144230000D02*
X357235438Y-144182381D01*
X357235438Y-144182381D02*
X357616390Y-144182381D01*
X357616390Y-144182381D02*
X357711628Y-144230000D01*
X357711628Y-144230000D02*
X357759247Y-144325238D01*
X357759247Y-144325238D02*
X357759247Y-144515714D01*
X357759247Y-144515714D02*
X357711628Y-144610952D01*
X357711628Y-144610952D02*
X357616390Y-144658571D01*
X357616390Y-144658571D02*
X357521152Y-144658571D01*
X357521152Y-144658571D02*
X357425914Y-144182381D01*
X357092580Y-145087143D02*
X357759247Y-145087143D01*
X357568771Y-145087143D02*
X357664009Y-145134762D01*
X357664009Y-145134762D02*
X357711628Y-145182381D01*
X357711628Y-145182381D02*
X357759247Y-145277619D01*
X357759247Y-145277619D02*
X357759247Y-145372857D01*
X356997342Y-145468096D02*
X356997342Y-146230000D01*
X357616390Y-146801429D02*
X357568771Y-146944286D01*
X357568771Y-146944286D02*
X357521152Y-146991905D01*
X357521152Y-146991905D02*
X357425914Y-147039524D01*
X357425914Y-147039524D02*
X357283057Y-147039524D01*
X357283057Y-147039524D02*
X357187819Y-146991905D01*
X357187819Y-146991905D02*
X357140200Y-146944286D01*
X357140200Y-146944286D02*
X357092580Y-146849048D01*
X357092580Y-146849048D02*
X357092580Y-146468096D01*
X357092580Y-146468096D02*
X358092580Y-146468096D01*
X358092580Y-146468096D02*
X358092580Y-146801429D01*
X358092580Y-146801429D02*
X358044961Y-146896667D01*
X358044961Y-146896667D02*
X357997342Y-146944286D01*
X357997342Y-146944286D02*
X357902104Y-146991905D01*
X357902104Y-146991905D02*
X357806866Y-146991905D01*
X357806866Y-146991905D02*
X357711628Y-146944286D01*
X357711628Y-146944286D02*
X357664009Y-146896667D01*
X357664009Y-146896667D02*
X357616390Y-146801429D01*
X357616390Y-146801429D02*
X357616390Y-146468096D01*
X357092580Y-147610953D02*
X357140200Y-147515715D01*
X357140200Y-147515715D02*
X357187819Y-147468096D01*
X357187819Y-147468096D02*
X357283057Y-147420477D01*
X357283057Y-147420477D02*
X357568771Y-147420477D01*
X357568771Y-147420477D02*
X357664009Y-147468096D01*
X357664009Y-147468096D02*
X357711628Y-147515715D01*
X357711628Y-147515715D02*
X357759247Y-147610953D01*
X357759247Y-147610953D02*
X357759247Y-147753810D01*
X357759247Y-147753810D02*
X357711628Y-147849048D01*
X357711628Y-147849048D02*
X357664009Y-147896667D01*
X357664009Y-147896667D02*
X357568771Y-147944286D01*
X357568771Y-147944286D02*
X357283057Y-147944286D01*
X357283057Y-147944286D02*
X357187819Y-147896667D01*
X357187819Y-147896667D02*
X357140200Y-147849048D01*
X357140200Y-147849048D02*
X357092580Y-147753810D01*
X357092580Y-147753810D02*
X357092580Y-147610953D01*
X357092580Y-148801429D02*
X357616390Y-148801429D01*
X357616390Y-148801429D02*
X357711628Y-148753810D01*
X357711628Y-148753810D02*
X357759247Y-148658572D01*
X357759247Y-148658572D02*
X357759247Y-148468096D01*
X357759247Y-148468096D02*
X357711628Y-148372858D01*
X357140200Y-148801429D02*
X357092580Y-148706191D01*
X357092580Y-148706191D02*
X357092580Y-148468096D01*
X357092580Y-148468096D02*
X357140200Y-148372858D01*
X357140200Y-148372858D02*
X357235438Y-148325239D01*
X357235438Y-148325239D02*
X357330676Y-148325239D01*
X357330676Y-148325239D02*
X357425914Y-148372858D01*
X357425914Y-148372858D02*
X357473533Y-148468096D01*
X357473533Y-148468096D02*
X357473533Y-148706191D01*
X357473533Y-148706191D02*
X357521152Y-148801429D01*
X357092580Y-149277620D02*
X357759247Y-149277620D01*
X357568771Y-149277620D02*
X357664009Y-149325239D01*
X357664009Y-149325239D02*
X357711628Y-149372858D01*
X357711628Y-149372858D02*
X357759247Y-149468096D01*
X357759247Y-149468096D02*
X357759247Y-149563334D01*
X357092580Y-150325239D02*
X358092580Y-150325239D01*
X357140200Y-150325239D02*
X357092580Y-150230001D01*
X357092580Y-150230001D02*
X357092580Y-150039525D01*
X357092580Y-150039525D02*
X357140200Y-149944287D01*
X357140200Y-149944287D02*
X357187819Y-149896668D01*
X357187819Y-149896668D02*
X357283057Y-149849049D01*
X357283057Y-149849049D02*
X357568771Y-149849049D01*
X357568771Y-149849049D02*
X357664009Y-149896668D01*
X357664009Y-149896668D02*
X357711628Y-149944287D01*
X357711628Y-149944287D02*
X357759247Y-150039525D01*
X357759247Y-150039525D02*
X357759247Y-150230001D01*
X357759247Y-150230001D02*
X357711628Y-150325239D01*
X357759247Y-151230001D02*
X357092580Y-151230001D01*
X358140200Y-150991906D02*
X357425914Y-150753811D01*
X357425914Y-150753811D02*
X357425914Y-151372858D01*
D10*
X262829405Y-189254819D02*
X262829405Y-188254819D01*
X262829405Y-188254819D02*
X263067500Y-188254819D01*
X263067500Y-188254819D02*
X263210357Y-188302438D01*
X263210357Y-188302438D02*
X263305595Y-188397676D01*
X263305595Y-188397676D02*
X263353214Y-188492914D01*
X263353214Y-188492914D02*
X263400833Y-188683390D01*
X263400833Y-188683390D02*
X263400833Y-188826247D01*
X263400833Y-188826247D02*
X263353214Y-189016723D01*
X263353214Y-189016723D02*
X263305595Y-189111961D01*
X263305595Y-189111961D02*
X263210357Y-189207200D01*
X263210357Y-189207200D02*
X263067500Y-189254819D01*
X263067500Y-189254819D02*
X262829405Y-189254819D01*
X263734167Y-188254819D02*
X264353214Y-188254819D01*
X264353214Y-188254819D02*
X264019881Y-188635771D01*
X264019881Y-188635771D02*
X264162738Y-188635771D01*
X264162738Y-188635771D02*
X264257976Y-188683390D01*
X264257976Y-188683390D02*
X264305595Y-188731009D01*
X264305595Y-188731009D02*
X264353214Y-188826247D01*
X264353214Y-188826247D02*
X264353214Y-189064342D01*
X264353214Y-189064342D02*
X264305595Y-189159580D01*
X264305595Y-189159580D02*
X264257976Y-189207200D01*
X264257976Y-189207200D02*
X264162738Y-189254819D01*
X264162738Y-189254819D02*
X263877024Y-189254819D01*
X263877024Y-189254819D02*
X263781786Y-189207200D01*
X263781786Y-189207200D02*
X263734167Y-189159580D01*
X358834819Y-200826189D02*
X357834819Y-200826189D01*
X358739580Y-199778571D02*
X358787200Y-199826190D01*
X358787200Y-199826190D02*
X358834819Y-199969047D01*
X358834819Y-199969047D02*
X358834819Y-200064285D01*
X358834819Y-200064285D02*
X358787200Y-200207142D01*
X358787200Y-200207142D02*
X358691961Y-200302380D01*
X358691961Y-200302380D02*
X358596723Y-200349999D01*
X358596723Y-200349999D02*
X358406247Y-200397618D01*
X358406247Y-200397618D02*
X358263390Y-200397618D01*
X358263390Y-200397618D02*
X358072914Y-200349999D01*
X358072914Y-200349999D02*
X357977676Y-200302380D01*
X357977676Y-200302380D02*
X357882438Y-200207142D01*
X357882438Y-200207142D02*
X357834819Y-200064285D01*
X357834819Y-200064285D02*
X357834819Y-199969047D01*
X357834819Y-199969047D02*
X357882438Y-199826190D01*
X357882438Y-199826190D02*
X357930057Y-199778571D01*
X358834819Y-198826190D02*
X358834819Y-199397618D01*
X358834819Y-199111904D02*
X357834819Y-199111904D01*
X357834819Y-199111904D02*
X357977676Y-199207142D01*
X357977676Y-199207142D02*
X358072914Y-199302380D01*
X358072914Y-199302380D02*
X358120533Y-199397618D01*
D11*
X314592580Y-133182380D02*
X315592580Y-133182380D01*
X315592580Y-133182380D02*
X315592580Y-133420475D01*
X315592580Y-133420475D02*
X315544961Y-133563332D01*
X315544961Y-133563332D02*
X315449723Y-133658570D01*
X315449723Y-133658570D02*
X315354485Y-133706189D01*
X315354485Y-133706189D02*
X315164009Y-133753808D01*
X315164009Y-133753808D02*
X315021152Y-133753808D01*
X315021152Y-133753808D02*
X314830676Y-133706189D01*
X314830676Y-133706189D02*
X314735438Y-133658570D01*
X314735438Y-133658570D02*
X314640200Y-133563332D01*
X314640200Y-133563332D02*
X314592580Y-133420475D01*
X314592580Y-133420475D02*
X314592580Y-133182380D01*
X314592580Y-134753808D02*
X315068771Y-134420475D01*
X314592580Y-134182380D02*
X315592580Y-134182380D01*
X315592580Y-134182380D02*
X315592580Y-134563332D01*
X315592580Y-134563332D02*
X315544961Y-134658570D01*
X315544961Y-134658570D02*
X315497342Y-134706189D01*
X315497342Y-134706189D02*
X315402104Y-134753808D01*
X315402104Y-134753808D02*
X315259247Y-134753808D01*
X315259247Y-134753808D02*
X315164009Y-134706189D01*
X315164009Y-134706189D02*
X315116390Y-134658570D01*
X315116390Y-134658570D02*
X315068771Y-134563332D01*
X315068771Y-134563332D02*
X315068771Y-134182380D01*
X315592580Y-135039523D02*
X314592580Y-135372856D01*
X314592580Y-135372856D02*
X315592580Y-135706189D01*
X315164009Y-136182380D02*
X315211628Y-136087142D01*
X315211628Y-136087142D02*
X315259247Y-136039523D01*
X315259247Y-136039523D02*
X315354485Y-135991904D01*
X315354485Y-135991904D02*
X315402104Y-135991904D01*
X315402104Y-135991904D02*
X315497342Y-136039523D01*
X315497342Y-136039523D02*
X315544961Y-136087142D01*
X315544961Y-136087142D02*
X315592580Y-136182380D01*
X315592580Y-136182380D02*
X315592580Y-136372856D01*
X315592580Y-136372856D02*
X315544961Y-136468094D01*
X315544961Y-136468094D02*
X315497342Y-136515713D01*
X315497342Y-136515713D02*
X315402104Y-136563332D01*
X315402104Y-136563332D02*
X315354485Y-136563332D01*
X315354485Y-136563332D02*
X315259247Y-136515713D01*
X315259247Y-136515713D02*
X315211628Y-136468094D01*
X315211628Y-136468094D02*
X315164009Y-136372856D01*
X315164009Y-136372856D02*
X315164009Y-136182380D01*
X315164009Y-136182380D02*
X315116390Y-136087142D01*
X315116390Y-136087142D02*
X315068771Y-136039523D01*
X315068771Y-136039523D02*
X314973533Y-135991904D01*
X314973533Y-135991904D02*
X314783057Y-135991904D01*
X314783057Y-135991904D02*
X314687819Y-136039523D01*
X314687819Y-136039523D02*
X314640200Y-136087142D01*
X314640200Y-136087142D02*
X314592580Y-136182380D01*
X314592580Y-136182380D02*
X314592580Y-136372856D01*
X314592580Y-136372856D02*
X314640200Y-136468094D01*
X314640200Y-136468094D02*
X314687819Y-136515713D01*
X314687819Y-136515713D02*
X314783057Y-136563332D01*
X314783057Y-136563332D02*
X314973533Y-136563332D01*
X314973533Y-136563332D02*
X315068771Y-136515713D01*
X315068771Y-136515713D02*
X315116390Y-136468094D01*
X315116390Y-136468094D02*
X315164009Y-136372856D01*
X315164009Y-137134761D02*
X315211628Y-137039523D01*
X315211628Y-137039523D02*
X315259247Y-136991904D01*
X315259247Y-136991904D02*
X315354485Y-136944285D01*
X315354485Y-136944285D02*
X315402104Y-136944285D01*
X315402104Y-136944285D02*
X315497342Y-136991904D01*
X315497342Y-136991904D02*
X315544961Y-137039523D01*
X315544961Y-137039523D02*
X315592580Y-137134761D01*
X315592580Y-137134761D02*
X315592580Y-137325237D01*
X315592580Y-137325237D02*
X315544961Y-137420475D01*
X315544961Y-137420475D02*
X315497342Y-137468094D01*
X315497342Y-137468094D02*
X315402104Y-137515713D01*
X315402104Y-137515713D02*
X315354485Y-137515713D01*
X315354485Y-137515713D02*
X315259247Y-137468094D01*
X315259247Y-137468094D02*
X315211628Y-137420475D01*
X315211628Y-137420475D02*
X315164009Y-137325237D01*
X315164009Y-137325237D02*
X315164009Y-137134761D01*
X315164009Y-137134761D02*
X315116390Y-137039523D01*
X315116390Y-137039523D02*
X315068771Y-136991904D01*
X315068771Y-136991904D02*
X314973533Y-136944285D01*
X314973533Y-136944285D02*
X314783057Y-136944285D01*
X314783057Y-136944285D02*
X314687819Y-136991904D01*
X314687819Y-136991904D02*
X314640200Y-137039523D01*
X314640200Y-137039523D02*
X314592580Y-137134761D01*
X314592580Y-137134761D02*
X314592580Y-137325237D01*
X314592580Y-137325237D02*
X314640200Y-137420475D01*
X314640200Y-137420475D02*
X314687819Y-137468094D01*
X314687819Y-137468094D02*
X314783057Y-137515713D01*
X314783057Y-137515713D02*
X314973533Y-137515713D01*
X314973533Y-137515713D02*
X315068771Y-137468094D01*
X315068771Y-137468094D02*
X315116390Y-137420475D01*
X315116390Y-137420475D02*
X315164009Y-137325237D01*
X315592580Y-137849047D02*
X315592580Y-138515713D01*
X315592580Y-138515713D02*
X314592580Y-138087142D01*
X315259247Y-139325237D02*
X314592580Y-139325237D01*
X315640200Y-139087142D02*
X314925914Y-138849047D01*
X314925914Y-138849047D02*
X314925914Y-139468094D01*
X314497342Y-139610952D02*
X314497342Y-140372856D01*
X314687819Y-141182380D02*
X314640200Y-141134761D01*
X314640200Y-141134761D02*
X314592580Y-140991904D01*
X314592580Y-140991904D02*
X314592580Y-140896666D01*
X314592580Y-140896666D02*
X314640200Y-140753809D01*
X314640200Y-140753809D02*
X314735438Y-140658571D01*
X314735438Y-140658571D02*
X314830676Y-140610952D01*
X314830676Y-140610952D02*
X315021152Y-140563333D01*
X315021152Y-140563333D02*
X315164009Y-140563333D01*
X315164009Y-140563333D02*
X315354485Y-140610952D01*
X315354485Y-140610952D02*
X315449723Y-140658571D01*
X315449723Y-140658571D02*
X315544961Y-140753809D01*
X315544961Y-140753809D02*
X315592580Y-140896666D01*
X315592580Y-140896666D02*
X315592580Y-140991904D01*
X315592580Y-140991904D02*
X315544961Y-141134761D01*
X315544961Y-141134761D02*
X315497342Y-141182380D01*
X314592580Y-142039523D02*
X315116390Y-142039523D01*
X315116390Y-142039523D02*
X315211628Y-141991904D01*
X315211628Y-141991904D02*
X315259247Y-141896666D01*
X315259247Y-141896666D02*
X315259247Y-141706190D01*
X315259247Y-141706190D02*
X315211628Y-141610952D01*
X314640200Y-142039523D02*
X314592580Y-141944285D01*
X314592580Y-141944285D02*
X314592580Y-141706190D01*
X314592580Y-141706190D02*
X314640200Y-141610952D01*
X314640200Y-141610952D02*
X314735438Y-141563333D01*
X314735438Y-141563333D02*
X314830676Y-141563333D01*
X314830676Y-141563333D02*
X314925914Y-141610952D01*
X314925914Y-141610952D02*
X314973533Y-141706190D01*
X314973533Y-141706190D02*
X314973533Y-141944285D01*
X314973533Y-141944285D02*
X315021152Y-142039523D01*
X314592580Y-142515714D02*
X315259247Y-142515714D01*
X315068771Y-142515714D02*
X315164009Y-142563333D01*
X315164009Y-142563333D02*
X315211628Y-142610952D01*
X315211628Y-142610952D02*
X315259247Y-142706190D01*
X315259247Y-142706190D02*
X315259247Y-142801428D01*
X314592580Y-143134762D02*
X315259247Y-143134762D01*
X315068771Y-143134762D02*
X315164009Y-143182381D01*
X315164009Y-143182381D02*
X315211628Y-143230000D01*
X315211628Y-143230000D02*
X315259247Y-143325238D01*
X315259247Y-143325238D02*
X315259247Y-143420476D01*
X314592580Y-143753810D02*
X315259247Y-143753810D01*
X315592580Y-143753810D02*
X315544961Y-143706191D01*
X315544961Y-143706191D02*
X315497342Y-143753810D01*
X315497342Y-143753810D02*
X315544961Y-143801429D01*
X315544961Y-143801429D02*
X315592580Y-143753810D01*
X315592580Y-143753810D02*
X315497342Y-143753810D01*
X314640200Y-144610952D02*
X314592580Y-144515714D01*
X314592580Y-144515714D02*
X314592580Y-144325238D01*
X314592580Y-144325238D02*
X314640200Y-144230000D01*
X314640200Y-144230000D02*
X314735438Y-144182381D01*
X314735438Y-144182381D02*
X315116390Y-144182381D01*
X315116390Y-144182381D02*
X315211628Y-144230000D01*
X315211628Y-144230000D02*
X315259247Y-144325238D01*
X315259247Y-144325238D02*
X315259247Y-144515714D01*
X315259247Y-144515714D02*
X315211628Y-144610952D01*
X315211628Y-144610952D02*
X315116390Y-144658571D01*
X315116390Y-144658571D02*
X315021152Y-144658571D01*
X315021152Y-144658571D02*
X314925914Y-144182381D01*
X314592580Y-145087143D02*
X315259247Y-145087143D01*
X315068771Y-145087143D02*
X315164009Y-145134762D01*
X315164009Y-145134762D02*
X315211628Y-145182381D01*
X315211628Y-145182381D02*
X315259247Y-145277619D01*
X315259247Y-145277619D02*
X315259247Y-145372857D01*
X314497342Y-145468096D02*
X314497342Y-146230000D01*
X315116390Y-146801429D02*
X315068771Y-146944286D01*
X315068771Y-146944286D02*
X315021152Y-146991905D01*
X315021152Y-146991905D02*
X314925914Y-147039524D01*
X314925914Y-147039524D02*
X314783057Y-147039524D01*
X314783057Y-147039524D02*
X314687819Y-146991905D01*
X314687819Y-146991905D02*
X314640200Y-146944286D01*
X314640200Y-146944286D02*
X314592580Y-146849048D01*
X314592580Y-146849048D02*
X314592580Y-146468096D01*
X314592580Y-146468096D02*
X315592580Y-146468096D01*
X315592580Y-146468096D02*
X315592580Y-146801429D01*
X315592580Y-146801429D02*
X315544961Y-146896667D01*
X315544961Y-146896667D02*
X315497342Y-146944286D01*
X315497342Y-146944286D02*
X315402104Y-146991905D01*
X315402104Y-146991905D02*
X315306866Y-146991905D01*
X315306866Y-146991905D02*
X315211628Y-146944286D01*
X315211628Y-146944286D02*
X315164009Y-146896667D01*
X315164009Y-146896667D02*
X315116390Y-146801429D01*
X315116390Y-146801429D02*
X315116390Y-146468096D01*
X314592580Y-147610953D02*
X314640200Y-147515715D01*
X314640200Y-147515715D02*
X314687819Y-147468096D01*
X314687819Y-147468096D02*
X314783057Y-147420477D01*
X314783057Y-147420477D02*
X315068771Y-147420477D01*
X315068771Y-147420477D02*
X315164009Y-147468096D01*
X315164009Y-147468096D02*
X315211628Y-147515715D01*
X315211628Y-147515715D02*
X315259247Y-147610953D01*
X315259247Y-147610953D02*
X315259247Y-147753810D01*
X315259247Y-147753810D02*
X315211628Y-147849048D01*
X315211628Y-147849048D02*
X315164009Y-147896667D01*
X315164009Y-147896667D02*
X315068771Y-147944286D01*
X315068771Y-147944286D02*
X314783057Y-147944286D01*
X314783057Y-147944286D02*
X314687819Y-147896667D01*
X314687819Y-147896667D02*
X314640200Y-147849048D01*
X314640200Y-147849048D02*
X314592580Y-147753810D01*
X314592580Y-147753810D02*
X314592580Y-147610953D01*
X314592580Y-148801429D02*
X315116390Y-148801429D01*
X315116390Y-148801429D02*
X315211628Y-148753810D01*
X315211628Y-148753810D02*
X315259247Y-148658572D01*
X315259247Y-148658572D02*
X315259247Y-148468096D01*
X315259247Y-148468096D02*
X315211628Y-148372858D01*
X314640200Y-148801429D02*
X314592580Y-148706191D01*
X314592580Y-148706191D02*
X314592580Y-148468096D01*
X314592580Y-148468096D02*
X314640200Y-148372858D01*
X314640200Y-148372858D02*
X314735438Y-148325239D01*
X314735438Y-148325239D02*
X314830676Y-148325239D01*
X314830676Y-148325239D02*
X314925914Y-148372858D01*
X314925914Y-148372858D02*
X314973533Y-148468096D01*
X314973533Y-148468096D02*
X314973533Y-148706191D01*
X314973533Y-148706191D02*
X315021152Y-148801429D01*
X314592580Y-149277620D02*
X315259247Y-149277620D01*
X315068771Y-149277620D02*
X315164009Y-149325239D01*
X315164009Y-149325239D02*
X315211628Y-149372858D01*
X315211628Y-149372858D02*
X315259247Y-149468096D01*
X315259247Y-149468096D02*
X315259247Y-149563334D01*
X314592580Y-150325239D02*
X315592580Y-150325239D01*
X314640200Y-150325239D02*
X314592580Y-150230001D01*
X314592580Y-150230001D02*
X314592580Y-150039525D01*
X314592580Y-150039525D02*
X314640200Y-149944287D01*
X314640200Y-149944287D02*
X314687819Y-149896668D01*
X314687819Y-149896668D02*
X314783057Y-149849049D01*
X314783057Y-149849049D02*
X315068771Y-149849049D01*
X315068771Y-149849049D02*
X315164009Y-149896668D01*
X315164009Y-149896668D02*
X315211628Y-149944287D01*
X315211628Y-149944287D02*
X315259247Y-150039525D01*
X315259247Y-150039525D02*
X315259247Y-150230001D01*
X315259247Y-150230001D02*
X315211628Y-150325239D01*
X314592580Y-151325239D02*
X314592580Y-150753811D01*
X314592580Y-151039525D02*
X315592580Y-151039525D01*
X315592580Y-151039525D02*
X315449723Y-150944287D01*
X315449723Y-150944287D02*
X315354485Y-150849049D01*
X315354485Y-150849049D02*
X315306866Y-150753811D01*
D10*
X338333333Y-220809580D02*
X338285714Y-220857200D01*
X338285714Y-220857200D02*
X338142857Y-220904819D01*
X338142857Y-220904819D02*
X338047619Y-220904819D01*
X338047619Y-220904819D02*
X337904762Y-220857200D01*
X337904762Y-220857200D02*
X337809524Y-220761961D01*
X337809524Y-220761961D02*
X337761905Y-220666723D01*
X337761905Y-220666723D02*
X337714286Y-220476247D01*
X337714286Y-220476247D02*
X337714286Y-220333390D01*
X337714286Y-220333390D02*
X337761905Y-220142914D01*
X337761905Y-220142914D02*
X337809524Y-220047676D01*
X337809524Y-220047676D02*
X337904762Y-219952438D01*
X337904762Y-219952438D02*
X338047619Y-219904819D01*
X338047619Y-219904819D02*
X338142857Y-219904819D01*
X338142857Y-219904819D02*
X338285714Y-219952438D01*
X338285714Y-219952438D02*
X338333333Y-220000057D01*
X339285714Y-220904819D02*
X338714286Y-220904819D01*
X339000000Y-220904819D02*
X339000000Y-219904819D01*
X339000000Y-219904819D02*
X338904762Y-220047676D01*
X338904762Y-220047676D02*
X338809524Y-220142914D01*
X338809524Y-220142914D02*
X338714286Y-220190533D01*
X371889819Y-130508333D02*
X372604104Y-130508333D01*
X372604104Y-130508333D02*
X372746961Y-130555952D01*
X372746961Y-130555952D02*
X372842200Y-130651190D01*
X372842200Y-130651190D02*
X372889819Y-130794047D01*
X372889819Y-130794047D02*
X372889819Y-130889285D01*
X372889819Y-129508333D02*
X372889819Y-130079761D01*
X372889819Y-129794047D02*
X371889819Y-129794047D01*
X371889819Y-129794047D02*
X372032676Y-129889285D01*
X372032676Y-129889285D02*
X372127914Y-129984523D01*
X372127914Y-129984523D02*
X372175533Y-130079761D01*
X321438333Y-193350866D02*
X321438333Y-194350866D01*
X321438333Y-194350866D02*
X321371666Y-194550866D01*
X321371666Y-194550866D02*
X321238333Y-194684200D01*
X321238333Y-194684200D02*
X321038333Y-194750866D01*
X321038333Y-194750866D02*
X320905000Y-194750866D01*
X322705000Y-193817533D02*
X322705000Y-194750866D01*
X322371667Y-193284200D02*
X322038333Y-194284200D01*
X322038333Y-194284200D02*
X322905000Y-194284200D01*
X268383333Y-185534819D02*
X268050000Y-185058628D01*
X267811905Y-185534819D02*
X267811905Y-184534819D01*
X267811905Y-184534819D02*
X268192857Y-184534819D01*
X268192857Y-184534819D02*
X268288095Y-184582438D01*
X268288095Y-184582438D02*
X268335714Y-184630057D01*
X268335714Y-184630057D02*
X268383333Y-184725295D01*
X268383333Y-184725295D02*
X268383333Y-184868152D01*
X268383333Y-184868152D02*
X268335714Y-184963390D01*
X268335714Y-184963390D02*
X268288095Y-185011009D01*
X268288095Y-185011009D02*
X268192857Y-185058628D01*
X268192857Y-185058628D02*
X267811905Y-185058628D01*
X268764286Y-184630057D02*
X268811905Y-184582438D01*
X268811905Y-184582438D02*
X268907143Y-184534819D01*
X268907143Y-184534819D02*
X269145238Y-184534819D01*
X269145238Y-184534819D02*
X269240476Y-184582438D01*
X269240476Y-184582438D02*
X269288095Y-184630057D01*
X269288095Y-184630057D02*
X269335714Y-184725295D01*
X269335714Y-184725295D02*
X269335714Y-184820533D01*
X269335714Y-184820533D02*
X269288095Y-184963390D01*
X269288095Y-184963390D02*
X268716667Y-185534819D01*
X268716667Y-185534819D02*
X269335714Y-185534819D01*
X374117295Y-239141169D02*
X374824402Y-239848276D01*
X374824402Y-239848276D02*
X374918683Y-240036838D01*
X374918683Y-240036838D02*
X374918683Y-240225400D01*
X374918683Y-240225400D02*
X374824402Y-240413961D01*
X374824402Y-240413961D02*
X374730121Y-240508242D01*
X375154385Y-238952607D02*
X375012964Y-238999748D01*
X375012964Y-238999748D02*
X374918683Y-238999748D01*
X374918683Y-238999748D02*
X374777261Y-238952607D01*
X374777261Y-238952607D02*
X374730121Y-238905467D01*
X374730121Y-238905467D02*
X374682981Y-238764045D01*
X374682981Y-238764045D02*
X374682981Y-238669764D01*
X374682981Y-238669764D02*
X374730121Y-238528343D01*
X374730121Y-238528343D02*
X374918683Y-238339781D01*
X374918683Y-238339781D02*
X375060104Y-238292641D01*
X375060104Y-238292641D02*
X375154385Y-238292641D01*
X375154385Y-238292641D02*
X375295806Y-238339781D01*
X375295806Y-238339781D02*
X375342947Y-238386922D01*
X375342947Y-238386922D02*
X375390087Y-238528343D01*
X375390087Y-238528343D02*
X375390087Y-238622624D01*
X375390087Y-238622624D02*
X375342947Y-238764045D01*
X375342947Y-238764045D02*
X375154385Y-238952607D01*
X375154385Y-238952607D02*
X375107245Y-239094029D01*
X375107245Y-239094029D02*
X375107245Y-239188309D01*
X375107245Y-239188309D02*
X375154385Y-239329731D01*
X375154385Y-239329731D02*
X375342947Y-239518293D01*
X375342947Y-239518293D02*
X375484368Y-239565433D01*
X375484368Y-239565433D02*
X375578649Y-239565433D01*
X375578649Y-239565433D02*
X375720071Y-239518293D01*
X375720071Y-239518293D02*
X375908632Y-239329731D01*
X375908632Y-239329731D02*
X375955773Y-239188309D01*
X375955773Y-239188309D02*
X375955773Y-239094029D01*
X375955773Y-239094029D02*
X375908632Y-238952607D01*
X375908632Y-238952607D02*
X375720071Y-238764045D01*
X375720071Y-238764045D02*
X375578649Y-238716905D01*
X375578649Y-238716905D02*
X375484368Y-238716905D01*
X375484368Y-238716905D02*
X375342947Y-238764045D01*
X262761905Y-181254819D02*
X262761905Y-180254819D01*
X262761905Y-180254819D02*
X263000000Y-180254819D01*
X263000000Y-180254819D02*
X263142857Y-180302438D01*
X263142857Y-180302438D02*
X263238095Y-180397676D01*
X263238095Y-180397676D02*
X263285714Y-180492914D01*
X263285714Y-180492914D02*
X263333333Y-180683390D01*
X263333333Y-180683390D02*
X263333333Y-180826247D01*
X263333333Y-180826247D02*
X263285714Y-181016723D01*
X263285714Y-181016723D02*
X263238095Y-181111961D01*
X263238095Y-181111961D02*
X263142857Y-181207200D01*
X263142857Y-181207200D02*
X263000000Y-181254819D01*
X263000000Y-181254819D02*
X262761905Y-181254819D01*
X263714286Y-180350057D02*
X263761905Y-180302438D01*
X263761905Y-180302438D02*
X263857143Y-180254819D01*
X263857143Y-180254819D02*
X264095238Y-180254819D01*
X264095238Y-180254819D02*
X264190476Y-180302438D01*
X264190476Y-180302438D02*
X264238095Y-180350057D01*
X264238095Y-180350057D02*
X264285714Y-180445295D01*
X264285714Y-180445295D02*
X264285714Y-180540533D01*
X264285714Y-180540533D02*
X264238095Y-180683390D01*
X264238095Y-180683390D02*
X263666667Y-181254819D01*
X263666667Y-181254819D02*
X264285714Y-181254819D01*
X336628333Y-181128866D02*
X336628333Y-182128866D01*
X336628333Y-182128866D02*
X336561666Y-182328866D01*
X336561666Y-182328866D02*
X336428333Y-182462200D01*
X336428333Y-182462200D02*
X336228333Y-182528866D01*
X336228333Y-182528866D02*
X336095000Y-182528866D01*
X337961667Y-181128866D02*
X337295000Y-181128866D01*
X337295000Y-181128866D02*
X337228333Y-181795533D01*
X337228333Y-181795533D02*
X337295000Y-181728866D01*
X337295000Y-181728866D02*
X337428333Y-181662200D01*
X337428333Y-181662200D02*
X337761667Y-181662200D01*
X337761667Y-181662200D02*
X337895000Y-181728866D01*
X337895000Y-181728866D02*
X337961667Y-181795533D01*
X337961667Y-181795533D02*
X338028333Y-181928866D01*
X338028333Y-181928866D02*
X338028333Y-182262200D01*
X338028333Y-182262200D02*
X337961667Y-182395533D01*
X337961667Y-182395533D02*
X337895000Y-182462200D01*
X337895000Y-182462200D02*
X337761667Y-182528866D01*
X337761667Y-182528866D02*
X337428333Y-182528866D01*
X337428333Y-182528866D02*
X337295000Y-182462200D01*
X337295000Y-182462200D02*
X337228333Y-182395533D01*
X322628333Y-180628866D02*
X322628333Y-181628866D01*
X322628333Y-181628866D02*
X322561666Y-181828866D01*
X322561666Y-181828866D02*
X322428333Y-181962200D01*
X322428333Y-181962200D02*
X322228333Y-182028866D01*
X322228333Y-182028866D02*
X322095000Y-182028866D01*
X323895000Y-180628866D02*
X323628333Y-180628866D01*
X323628333Y-180628866D02*
X323495000Y-180695533D01*
X323495000Y-180695533D02*
X323428333Y-180762200D01*
X323428333Y-180762200D02*
X323295000Y-180962200D01*
X323295000Y-180962200D02*
X323228333Y-181228866D01*
X323228333Y-181228866D02*
X323228333Y-181762200D01*
X323228333Y-181762200D02*
X323295000Y-181895533D01*
X323295000Y-181895533D02*
X323361667Y-181962200D01*
X323361667Y-181962200D02*
X323495000Y-182028866D01*
X323495000Y-182028866D02*
X323761667Y-182028866D01*
X323761667Y-182028866D02*
X323895000Y-181962200D01*
X323895000Y-181962200D02*
X323961667Y-181895533D01*
X323961667Y-181895533D02*
X324028333Y-181762200D01*
X324028333Y-181762200D02*
X324028333Y-181428866D01*
X324028333Y-181428866D02*
X323961667Y-181295533D01*
X323961667Y-181295533D02*
X323895000Y-181228866D01*
X323895000Y-181228866D02*
X323761667Y-181162200D01*
X323761667Y-181162200D02*
X323495000Y-181162200D01*
X323495000Y-181162200D02*
X323361667Y-181228866D01*
X323361667Y-181228866D02*
X323295000Y-181295533D01*
X323295000Y-181295533D02*
X323228333Y-181428866D01*
D13*
%TO.C,J2*%
X330380000Y-196000000D02*
X340540000Y-196000000D01*
X330380000Y-206600000D02*
X330380000Y-196000000D01*
X340540000Y-196000000D02*
X340540000Y-206600000D01*
X340540000Y-206600000D02*
X330380000Y-206600000D01*
D14*
X333020000Y-195000000D02*
G75*
G02*
X332820000Y-195000000I-100000J0D01*
G01*
X332820000Y-195000000D02*
G75*
G02*
X333020000Y-195000000I100000J0D01*
G01*
%TO.C,DRV8874_Carrier_Board3*%
D11*
X316570000Y-232770000D02*
X334370000Y-232770000D01*
X334370000Y-217570000D01*
X316570000Y-217570000D01*
X316570000Y-232770000D01*
%TO.C,SW2*%
X262335000Y-210025000D02*
X275335000Y-210025000D01*
X275335000Y-228825000D01*
X262335000Y-228825000D01*
X262335000Y-210025000D01*
X266035000Y-211375000D02*
X271035000Y-211375000D01*
X271035000Y-211975000D01*
X266035000Y-211975000D01*
X266035000Y-211375000D01*
X266035000Y-219075000D02*
X270835000Y-219075000D01*
X270835000Y-219675000D01*
X266035000Y-219675000D01*
X266035000Y-219075000D01*
X266035000Y-226775000D02*
X271035000Y-226775000D01*
X271035000Y-227375000D01*
X266035000Y-227375000D01*
X266035000Y-226775000D01*
D14*
%TO.C,Q1*%
X337630000Y-225405000D02*
X337630000Y-228600000D01*
X348170000Y-225405000D02*
X337630000Y-225405000D01*
X348170000Y-230095000D02*
X348170000Y-225405000D01*
D13*
%TO.C,PS2*%
X313400000Y-239270000D02*
X313400000Y-245270000D01*
X333000000Y-239270000D02*
X313400000Y-239270000D01*
X333000000Y-245270000D02*
X313400000Y-245270000D01*
X333000000Y-245270000D02*
X333000000Y-239270000D01*
D14*
X333600000Y-244070000D02*
G75*
G02*
X333400000Y-244070000I-100000J0D01*
G01*
X333400000Y-244070000D02*
G75*
G02*
X333600000Y-244070000I100000J0D01*
G01*
%TO.C,DRV8874_Carrier_Board5*%
D11*
X336010000Y-142070000D02*
X318210000Y-142070000D01*
X318210000Y-157270000D01*
X336010000Y-157270000D01*
X336010000Y-142070000D01*
%TO.C,SW1*%
X365000000Y-158000000D02*
X383800000Y-158000000D01*
X383800000Y-145000000D01*
X365000000Y-145000000D01*
X365000000Y-158000000D01*
X366350000Y-154300000D02*
X366950000Y-154300000D01*
X366950000Y-149300000D01*
X366350000Y-149300000D01*
X366350000Y-154300000D01*
X374050000Y-154300000D02*
X374650000Y-154300000D01*
X374650000Y-149500000D01*
X374050000Y-149500000D01*
X374050000Y-154300000D01*
X381750000Y-154300000D02*
X382350000Y-154300000D01*
X382350000Y-149300000D01*
X381750000Y-149300000D01*
X381750000Y-154300000D01*
D13*
%TO.C,J7*%
X303380000Y-168900000D02*
X313540000Y-168900000D01*
X303380000Y-179500000D02*
X303380000Y-168900000D01*
X313540000Y-168900000D02*
X313540000Y-179500000D01*
X313540000Y-179500000D02*
X303380000Y-179500000D01*
D14*
X311100000Y-180500000D02*
G75*
G02*
X310900000Y-180500000I-100000J0D01*
G01*
X310900000Y-180500000D02*
G75*
G02*
X311100000Y-180500000I100000J0D01*
G01*
D13*
%TO.C,J3*%
X305880000Y-196000000D02*
X316040000Y-196000000D01*
X305880000Y-206600000D02*
X305880000Y-196000000D01*
X316040000Y-196000000D02*
X316040000Y-206600000D01*
X316040000Y-206600000D02*
X305880000Y-206600000D01*
D14*
X308520000Y-195000000D02*
G75*
G02*
X308320000Y-195000000I-100000J0D01*
G01*
X308320000Y-195000000D02*
G75*
G02*
X308520000Y-195000000I100000J0D01*
G01*
D15*
%TO.C,U6*%
X309902500Y-190260000D02*
X309902500Y-190000000D01*
X309902500Y-190260000D02*
X310162500Y-190260000D01*
X315322500Y-186240000D02*
X315062500Y-186240000D01*
X315322500Y-186240000D02*
X315322500Y-186500000D01*
X315322500Y-190260000D02*
X315062500Y-190260000D01*
X315322500Y-190260000D02*
X315322500Y-190000000D01*
D11*
X309902500Y-186240000D02*
X309542500Y-186240000D01*
X309902500Y-185880000D01*
X309902500Y-186240000D01*
G36*
X309902500Y-186240000D02*
G01*
X309542500Y-186240000D01*
X309902500Y-185880000D01*
X309902500Y-186240000D01*
G37*
%TO.C,DRV8874_Carrier_Board2*%
X296070000Y-233270000D02*
X313870000Y-233270000D01*
X313870000Y-218070000D01*
X296070000Y-218070000D01*
X296070000Y-233270000D01*
D15*
%TO.C,R1*%
X267880000Y-179000000D02*
X268500000Y-179000000D01*
X267880000Y-179000000D02*
G75*
G02*
X266040000Y-179000000I-920000J0D01*
G01*
X266040000Y-179000000D02*
G75*
G02*
X267880000Y-179000000I920000J0D01*
G01*
D13*
%TO.C,PS1*%
X312920000Y-127800000D02*
X334720000Y-127800000D01*
X312920000Y-137000000D02*
X312920000Y-127800000D01*
X334720000Y-127800000D02*
X334720000Y-137000000D01*
X334720000Y-137000000D02*
X312920000Y-137000000D01*
D14*
X312420000Y-130900000D02*
G75*
G02*
X312220000Y-130900000I-100000J0D01*
G01*
X312220000Y-130900000D02*
G75*
G02*
X312420000Y-130900000I100000J0D01*
G01*
%TO.C,DRV8874_Carrier_Board4*%
D11*
X357050000Y-142230000D02*
X339250000Y-142230000D01*
X339250000Y-157430000D01*
X357050000Y-157430000D01*
X357050000Y-142230000D01*
D15*
%TO.C,D3*%
X261367500Y-187000000D02*
X261367500Y-187650000D01*
X261367500Y-187650000D02*
X262067500Y-187650000D01*
X262567500Y-186350000D02*
G75*
G02*
X264567500Y-186350000I1000000J-400000D01*
G01*
D14*
%TO.C,IC1*%
X348860000Y-175720000D02*
X348860000Y-175720000D01*
X348860000Y-175720000D02*
X348860000Y-175720000D01*
X348860000Y-175820000D02*
X348860000Y-175820000D01*
X349490000Y-169370000D02*
X349490000Y-230330000D01*
X349490000Y-230330000D02*
X367270000Y-230330000D01*
X367270000Y-169370000D02*
X349490000Y-169370000D01*
X367270000Y-230330000D02*
X367270000Y-169370000D01*
X348860000Y-175720000D02*
G75*
G02*
X348860000Y-175820000I0J-50000D01*
G01*
X348860000Y-175820000D02*
G75*
G02*
X348860000Y-175720000I0J50000D01*
G01*
X348860000Y-175820000D02*
G75*
G02*
X348860000Y-175720000I0J50000D01*
G01*
%TO.C,DRV8874_Carrier_Board1*%
D11*
X314550000Y-142230000D02*
X296750000Y-142230000D01*
X296750000Y-157430000D01*
X314550000Y-157430000D01*
X314550000Y-142230000D01*
D13*
%TO.C,J1*%
X362450000Y-127250000D02*
X370550000Y-127250000D01*
X362450000Y-139950000D02*
X362450000Y-127250000D01*
X364900000Y-142750000D02*
X362450000Y-139950000D01*
X366500000Y-125500000D02*
X366500000Y-126500000D01*
X366500000Y-143500000D02*
X366500000Y-144500000D01*
X367000000Y-126000000D02*
X366000000Y-126000000D01*
X368100000Y-142750000D02*
X364900000Y-142750000D01*
X370550000Y-127250000D02*
X370550000Y-139950000D01*
X370550000Y-139950000D02*
X368100000Y-142750000D01*
%TO.C,J4*%
X318460000Y-196000000D02*
X328620000Y-196000000D01*
X318460000Y-206600000D02*
X318460000Y-196000000D01*
X328620000Y-196000000D02*
X328620000Y-206600000D01*
X328620000Y-206600000D02*
X318460000Y-206600000D01*
D14*
X321100000Y-195000000D02*
G75*
G02*
X320900000Y-195000000I-100000J0D01*
G01*
X320900000Y-195000000D02*
G75*
G02*
X321100000Y-195000000I100000J0D01*
G01*
D15*
%TO.C,R2*%
X268200000Y-187000000D02*
X268820000Y-187000000D01*
X268200000Y-187000000D02*
G75*
G02*
X266360000Y-187000000I-920000J0D01*
G01*
X266360000Y-187000000D02*
G75*
G02*
X268200000Y-187000000I920000J0D01*
G01*
D13*
%TO.C,J8*%
X355659545Y-252185825D02*
X387705625Y-220139745D01*
X357314175Y-253840455D02*
X355659545Y-252185825D01*
X387705625Y-220139745D02*
X389360255Y-221794375D01*
X389360255Y-221794375D02*
X357314175Y-253840455D01*
D14*
X355809043Y-250722114D02*
G75*
G02*
X355609043Y-250722114I-100000J0D01*
G01*
X355609043Y-250722114D02*
G75*
G02*
X355809043Y-250722114I100000J0D01*
G01*
D15*
%TO.C,D2*%
X261300000Y-179000000D02*
X261300000Y-179650000D01*
X261300000Y-179650000D02*
X262000000Y-179650000D01*
X262500000Y-178350000D02*
G75*
G02*
X264500000Y-178350000I1000000J-400000D01*
G01*
D13*
%TO.C,J5*%
X330380000Y-169400000D02*
X340540000Y-169400000D01*
X330380000Y-180000000D02*
X330380000Y-169400000D01*
X340540000Y-169400000D02*
X340540000Y-180000000D01*
X340540000Y-180000000D02*
X330380000Y-180000000D01*
D14*
X338100000Y-181000000D02*
G75*
G02*
X337900000Y-181000000I-100000J0D01*
G01*
X337900000Y-181000000D02*
G75*
G02*
X338100000Y-181000000I100000J0D01*
G01*
D13*
%TO.C,J6*%
X316380000Y-168900000D02*
X326540000Y-168900000D01*
X316380000Y-179500000D02*
X316380000Y-168900000D01*
X326540000Y-168900000D02*
X326540000Y-179500000D01*
X326540000Y-179500000D02*
X316380000Y-179500000D01*
D14*
X324100000Y-180500000D02*
G75*
G02*
X323900000Y-180500000I-100000J0D01*
G01*
X323900000Y-180500000D02*
G75*
G02*
X324100000Y-180500000I100000J0D01*
G01*
%TD*%
%LPC*%
D16*
%TO.C,J2*%
X332920000Y-201000000D03*
D17*
X338000000Y-201000000D03*
%TD*%
D18*
%TO.C,DRV8874_Carrier_Board3*%
X317840000Y-231500000D03*
X320380000Y-231500000D03*
X322920000Y-231500000D03*
X325460000Y-231500000D03*
X328000000Y-231500000D03*
X330540000Y-231500000D03*
X333080000Y-231500000D03*
X333080000Y-218840000D03*
X330540000Y-218840000D03*
X328000000Y-218840000D03*
X325460000Y-218840000D03*
X322920000Y-218840000D03*
X320380000Y-218840000D03*
X317840000Y-218840000D03*
%TD*%
%TO.C,SW2*%
X268335000Y-220525000D03*
X268335000Y-213025000D03*
X268335000Y-225525000D03*
%TD*%
D19*
%TO.C,Q1*%
X340360000Y-228600000D03*
D20*
X342900000Y-228600000D03*
X345440000Y-228600000D03*
%TD*%
D21*
%TO.C,PS2*%
X331000000Y-244000000D03*
D22*
X328460000Y-244000000D03*
X323380000Y-244000000D03*
X318300000Y-244000000D03*
%TD*%
D18*
%TO.C,DRV8874_Carrier_Board5*%
X334740000Y-143340000D03*
X332200000Y-143340000D03*
X329660000Y-143340000D03*
X327120000Y-143340000D03*
X324580000Y-143340000D03*
X322040000Y-143340000D03*
X319500000Y-143340000D03*
X319500000Y-156000000D03*
X322040000Y-156000000D03*
X324580000Y-156000000D03*
X327120000Y-156000000D03*
X329660000Y-156000000D03*
X332200000Y-156000000D03*
X334740000Y-156000000D03*
%TD*%
%TO.C,SW1*%
X375500000Y-152000000D03*
X368000000Y-152000000D03*
X380500000Y-152000000D03*
%TD*%
D23*
%TO.C,J7*%
X311000000Y-174500000D03*
D17*
X305920000Y-174500000D03*
%TD*%
D16*
%TO.C,J3*%
X308420000Y-201000000D03*
D17*
X313500000Y-201000000D03*
%TD*%
D24*
%TO.C,U6*%
X310362500Y-186587500D03*
D25*
X310225000Y-187500000D03*
X310225000Y-188000000D03*
X310225000Y-188500000D03*
X310225000Y-189000000D03*
D24*
X310362500Y-189912500D03*
X310862500Y-189912500D03*
X311362500Y-189912500D03*
X311862500Y-189912500D03*
X312362500Y-189912500D03*
X312862500Y-189912500D03*
X313362500Y-189912500D03*
X313862500Y-189912500D03*
X314362500Y-189912500D03*
X314862500Y-189912500D03*
D25*
X315000000Y-189000000D03*
X315000000Y-188500000D03*
X315000000Y-188000000D03*
X315000000Y-187500000D03*
D24*
X314862500Y-186587500D03*
X314362500Y-186587500D03*
X313862500Y-186587500D03*
X313362500Y-186587500D03*
X312862500Y-186587500D03*
X312362500Y-186587500D03*
X311862500Y-186587500D03*
X311362500Y-186587500D03*
X310862500Y-186587500D03*
%TD*%
D18*
%TO.C,DRV8874_Carrier_Board2*%
X297340000Y-232000000D03*
X299880000Y-232000000D03*
X302420000Y-232000000D03*
X304960000Y-232000000D03*
X307500000Y-232000000D03*
X310040000Y-232000000D03*
X312580000Y-232000000D03*
X312580000Y-219340000D03*
X310040000Y-219340000D03*
X307500000Y-219340000D03*
X304960000Y-219340000D03*
X302420000Y-219340000D03*
X299880000Y-219340000D03*
X297340000Y-219340000D03*
%TD*%
D26*
%TO.C,R1*%
X266960000Y-179000000D03*
D27*
X269500000Y-179000000D03*
%TD*%
D28*
%TO.C,PS1*%
X314920000Y-131000000D03*
D29*
X317460000Y-131000000D03*
X320000000Y-131000000D03*
X325080000Y-131000000D03*
X327620000Y-131000000D03*
X330160000Y-131000000D03*
X332700000Y-131000000D03*
%TD*%
D18*
%TO.C,DRV8874_Carrier_Board4*%
X355780000Y-143500000D03*
X353240000Y-143500000D03*
X350700000Y-143500000D03*
X348160000Y-143500000D03*
X345620000Y-143500000D03*
X343080000Y-143500000D03*
X340540000Y-143500000D03*
X340540000Y-156160000D03*
X343080000Y-156160000D03*
X345620000Y-156160000D03*
X348160000Y-156160000D03*
X350700000Y-156160000D03*
X353240000Y-156160000D03*
X355780000Y-156160000D03*
%TD*%
D30*
%TO.C,D3*%
X262067500Y-187000000D03*
X265067500Y-187000000D03*
D31*
X263967500Y-187450000D03*
X263167500Y-187450000D03*
%TD*%
D32*
%TO.C,IC1*%
X350760000Y-175720000D03*
X350760000Y-178260000D03*
X350760000Y-180800000D03*
X350760000Y-183340000D03*
X350760000Y-185880000D03*
X350760000Y-188420000D03*
X350760000Y-190960000D03*
X350760000Y-193500000D03*
X350760000Y-196040000D03*
X350760000Y-198580000D03*
X350760000Y-201120000D03*
X350760000Y-203660000D03*
X366000000Y-203660000D03*
X366000000Y-201120000D03*
X366000000Y-198580000D03*
X366000000Y-196040000D03*
X366000000Y-193500000D03*
X366000000Y-190960000D03*
X366000000Y-188420000D03*
X366000000Y-185880000D03*
X366000000Y-183340000D03*
X366000000Y-180800000D03*
X366000000Y-178260000D03*
X350760000Y-208740000D03*
X350760000Y-211280000D03*
X350760000Y-213820000D03*
X350760000Y-216360000D03*
X350760000Y-218900000D03*
X350760000Y-221440000D03*
X350760000Y-223980000D03*
X350760000Y-226520000D03*
X350760000Y-229060000D03*
X366000000Y-229060000D03*
X366000000Y-226520000D03*
X366000000Y-223980000D03*
X366000000Y-221440000D03*
X366000000Y-218900000D03*
X366000000Y-216360000D03*
X366000000Y-213820000D03*
X366000000Y-211280000D03*
X366000000Y-208740000D03*
X350760000Y-206200000D03*
X353300000Y-216360000D03*
X355840000Y-216360000D03*
X358380000Y-216360000D03*
X360920000Y-216360000D03*
X363460000Y-216360000D03*
X353810000Y-187150000D03*
X353810000Y-184610000D03*
X353810000Y-182070000D03*
X353810000Y-179530000D03*
X353810000Y-176990000D03*
X366000000Y-175720000D03*
X366000000Y-170640000D03*
X350760000Y-173180000D03*
X363460000Y-173180000D03*
X366000000Y-206200000D03*
X366000000Y-173180000D03*
X350760000Y-170640000D03*
%TD*%
D18*
%TO.C,DRV8874_Carrier_Board1*%
X313280000Y-143500000D03*
X310740000Y-143500000D03*
X308200000Y-143500000D03*
X305660000Y-143500000D03*
X303120000Y-143500000D03*
X300580000Y-143500000D03*
X298040000Y-143500000D03*
X298040000Y-156160000D03*
X300580000Y-156160000D03*
X303120000Y-156160000D03*
X305660000Y-156160000D03*
X308200000Y-156160000D03*
X310740000Y-156160000D03*
X313280000Y-156160000D03*
%TD*%
D33*
%TO.C,C1*%
X338092500Y-221500000D03*
X338907500Y-221500000D03*
%TD*%
D34*
%TO.C,J1*%
X366500000Y-138600000D03*
D35*
X366500000Y-131400000D03*
%TD*%
D16*
%TO.C,J4*%
X321000000Y-201000000D03*
D17*
X326080000Y-201000000D03*
%TD*%
D26*
%TO.C,R2*%
X267280000Y-187000000D03*
D27*
X269820000Y-187000000D03*
%TD*%
D36*
%TO.C,J8*%
X357243465Y-252256535D03*
D37*
X359039516Y-250460484D03*
X360835567Y-248664433D03*
X362631618Y-246868382D03*
X364427669Y-245072331D03*
X366223721Y-243276279D03*
X368019772Y-241480228D03*
X369815823Y-239684177D03*
X371611874Y-237888126D03*
X373407926Y-236092074D03*
X375203977Y-234296023D03*
X377000028Y-232499972D03*
X378796079Y-230703921D03*
X380592131Y-228907869D03*
X382388182Y-227111818D03*
X384184233Y-225315767D03*
X385980284Y-223519716D03*
X387776335Y-221723665D03*
%TD*%
D30*
%TO.C,D2*%
X262000000Y-179000000D03*
X265000000Y-179000000D03*
D31*
X263900000Y-179450000D03*
X263100000Y-179450000D03*
%TD*%
D23*
%TO.C,J5*%
X338000000Y-175000000D03*
D17*
X332920000Y-175000000D03*
%TD*%
D23*
%TO.C,J6*%
X324000000Y-174500000D03*
D17*
X318920000Y-174500000D03*
%TD*%
%LPD*%
M02*
