%TF.GenerationSoftware,KiCad,Pcbnew,8.0.5*%
%TF.CreationDate,2024-11-10T17:02:08-05:00*%
%TF.ProjectId,RoboCup25PCBv1,526f626f-4375-4703-9235-50434276312e,rev?*%
%TF.SameCoordinates,Original*%
%TF.FileFunction,Soldermask,Bot*%
%TF.FilePolarity,Negative*%
%FSLAX46Y46*%
G04 Gerber Fmt 4.6, Leading zero omitted, Abs format (unit mm)*
G04 Created by KiCad (PCBNEW 8.0.5) date 2024-11-10 17:02:08*
%MOMM*%
%LPD*%
G01*
G04 APERTURE LIST*
G04 Aperture macros list*
%AMRoundRect*
0 Rectangle with rounded corners*
0 $1 Rounding radius*
0 $2 $3 $4 $5 $6 $7 $8 $9 X,Y pos of 4 corners*
0 Add a 4 corners polygon primitive as box body*
4,1,4,$2,$3,$4,$5,$6,$7,$8,$9,$2,$3,0*
0 Add four circle primitives for the rounded corners*
1,1,$1+$1,$2,$3*
1,1,$1+$1,$4,$5*
1,1,$1+$1,$6,$7*
1,1,$1+$1,$8,$9*
0 Add four rect primitives between the rounded corners*
20,1,$1+$1,$2,$3,$4,$5,0*
20,1,$1+$1,$4,$5,$6,$7,0*
20,1,$1+$1,$6,$7,$8,$9,0*
20,1,$1+$1,$8,$9,$2,$3,0*%
G04 Aperture macros list end*
%ADD10RoundRect,0.102000X-1.200000X-1.200000X1.200000X-1.200000X1.200000X1.200000X-1.200000X1.200000X0*%
%ADD11C,2.604000*%
%ADD12C,1.524000*%
%ADD13R,1.920000X1.920000*%
%ADD14C,1.920000*%
%ADD15RoundRect,0.102000X0.862500X0.862500X-0.862500X0.862500X-0.862500X-0.862500X0.862500X-0.862500X0*%
%ADD16C,1.929000*%
%ADD17RoundRect,0.102000X1.200000X1.200000X-1.200000X1.200000X-1.200000X-1.200000X1.200000X-1.200000X0*%
%ADD18C,1.400000*%
%ADD19O,1.400000X1.400000*%
%ADD20RoundRect,0.102000X-0.754000X-0.754000X0.754000X-0.754000X0.754000X0.754000X-0.754000X0.754000X0*%
%ADD21C,1.712000*%
%ADD22C,1.869000*%
%ADD23C,6.204000*%
%ADD24RoundRect,0.102000X-3.000000X3.000000X-3.000000X-3.000000X3.000000X-3.000000X3.000000X3.000000X0*%
%ADD25RoundRect,0.102000X0.000000X-0.988535X0.988535X0.000000X0.000000X0.988535X-0.988535X0.000000X0*%
%ADD26C,1.602000*%
G04 APERTURE END LIST*
D10*
%TO.C,J2*%
X332920000Y-201000000D03*
D11*
X338000000Y-201000000D03*
%TD*%
D12*
%TO.C,DRV8874_Carrier_Board3*%
X317840000Y-231500000D03*
X320380000Y-231500000D03*
X322920000Y-231500000D03*
X325460000Y-231500000D03*
X328000000Y-231500000D03*
X330540000Y-231500000D03*
X333080000Y-231500000D03*
X333080000Y-218840000D03*
X330540000Y-218840000D03*
X328000000Y-218840000D03*
X325460000Y-218840000D03*
X322920000Y-218840000D03*
X320380000Y-218840000D03*
X317840000Y-218840000D03*
%TD*%
%TO.C,SW2*%
X268335000Y-220525000D03*
X268335000Y-213025000D03*
X268335000Y-225525000D03*
%TD*%
D13*
%TO.C,Q1*%
X340360000Y-228600000D03*
D14*
X342900000Y-228600000D03*
X345440000Y-228600000D03*
%TD*%
D15*
%TO.C,PS2*%
X331000000Y-244000000D03*
D16*
X328460000Y-244000000D03*
X323380000Y-244000000D03*
X318300000Y-244000000D03*
%TD*%
D12*
%TO.C,DRV8874_Carrier_Board5*%
X334740000Y-143340000D03*
X332200000Y-143340000D03*
X329660000Y-143340000D03*
X327120000Y-143340000D03*
X324580000Y-143340000D03*
X322040000Y-143340000D03*
X319500000Y-143340000D03*
X319500000Y-156000000D03*
X322040000Y-156000000D03*
X324580000Y-156000000D03*
X327120000Y-156000000D03*
X329660000Y-156000000D03*
X332200000Y-156000000D03*
X334740000Y-156000000D03*
%TD*%
%TO.C,SW1*%
X375500000Y-152000000D03*
X368000000Y-152000000D03*
X380500000Y-152000000D03*
%TD*%
D17*
%TO.C,J7*%
X311000000Y-174500000D03*
D11*
X305920000Y-174500000D03*
%TD*%
D10*
%TO.C,J3*%
X308420000Y-201000000D03*
D11*
X313500000Y-201000000D03*
%TD*%
D12*
%TO.C,DRV8874_Carrier_Board2*%
X297340000Y-232000000D03*
X299880000Y-232000000D03*
X302420000Y-232000000D03*
X304960000Y-232000000D03*
X307500000Y-232000000D03*
X310040000Y-232000000D03*
X312580000Y-232000000D03*
X312580000Y-219340000D03*
X310040000Y-219340000D03*
X307500000Y-219340000D03*
X304960000Y-219340000D03*
X302420000Y-219340000D03*
X299880000Y-219340000D03*
X297340000Y-219340000D03*
%TD*%
D18*
%TO.C,R1*%
X266960000Y-179000000D03*
D19*
X269500000Y-179000000D03*
%TD*%
D20*
%TO.C,PS1*%
X314920000Y-131000000D03*
D21*
X317460000Y-131000000D03*
X320000000Y-131000000D03*
X325080000Y-131000000D03*
X327620000Y-131000000D03*
X330160000Y-131000000D03*
X332700000Y-131000000D03*
%TD*%
D12*
%TO.C,DRV8874_Carrier_Board4*%
X355780000Y-143500000D03*
X353240000Y-143500000D03*
X350700000Y-143500000D03*
X348160000Y-143500000D03*
X345620000Y-143500000D03*
X343080000Y-143500000D03*
X340540000Y-143500000D03*
X340540000Y-156160000D03*
X343080000Y-156160000D03*
X345620000Y-156160000D03*
X348160000Y-156160000D03*
X350700000Y-156160000D03*
X353240000Y-156160000D03*
X355780000Y-156160000D03*
%TD*%
D22*
%TO.C,IC1*%
X350760000Y-175720000D03*
X350760000Y-178260000D03*
X350760000Y-180800000D03*
X350760000Y-183340000D03*
X350760000Y-185880000D03*
X350760000Y-188420000D03*
X350760000Y-190960000D03*
X350760000Y-193500000D03*
X350760000Y-196040000D03*
X350760000Y-198580000D03*
X350760000Y-201120000D03*
X350760000Y-203660000D03*
X366000000Y-203660000D03*
X366000000Y-201120000D03*
X366000000Y-198580000D03*
X366000000Y-196040000D03*
X366000000Y-193500000D03*
X366000000Y-190960000D03*
X366000000Y-188420000D03*
X366000000Y-185880000D03*
X366000000Y-183340000D03*
X366000000Y-180800000D03*
X366000000Y-178260000D03*
X350760000Y-208740000D03*
X350760000Y-211280000D03*
X350760000Y-213820000D03*
X350760000Y-216360000D03*
X350760000Y-218900000D03*
X350760000Y-221440000D03*
X350760000Y-223980000D03*
X350760000Y-226520000D03*
X350760000Y-229060000D03*
X366000000Y-229060000D03*
X366000000Y-226520000D03*
X366000000Y-223980000D03*
X366000000Y-221440000D03*
X366000000Y-218900000D03*
X366000000Y-216360000D03*
X366000000Y-213820000D03*
X366000000Y-211280000D03*
X366000000Y-208740000D03*
X350760000Y-206200000D03*
X353300000Y-216360000D03*
X355840000Y-216360000D03*
X358380000Y-216360000D03*
X360920000Y-216360000D03*
X363460000Y-216360000D03*
X353810000Y-187150000D03*
X353810000Y-184610000D03*
X353810000Y-182070000D03*
X353810000Y-179530000D03*
X353810000Y-176990000D03*
X366000000Y-175720000D03*
X366000000Y-170640000D03*
X350760000Y-173180000D03*
X363460000Y-173180000D03*
X366000000Y-206200000D03*
X366000000Y-173180000D03*
X350760000Y-170640000D03*
%TD*%
D12*
%TO.C,DRV8874_Carrier_Board1*%
X313280000Y-143500000D03*
X310740000Y-143500000D03*
X308200000Y-143500000D03*
X305660000Y-143500000D03*
X303120000Y-143500000D03*
X300580000Y-143500000D03*
X298040000Y-143500000D03*
X298040000Y-156160000D03*
X300580000Y-156160000D03*
X303120000Y-156160000D03*
X305660000Y-156160000D03*
X308200000Y-156160000D03*
X310740000Y-156160000D03*
X313280000Y-156160000D03*
%TD*%
D23*
%TO.C,J1*%
X366500000Y-138600000D03*
D24*
X366500000Y-131400000D03*
%TD*%
D10*
%TO.C,J4*%
X321000000Y-201000000D03*
D11*
X326080000Y-201000000D03*
%TD*%
D18*
%TO.C,R2*%
X267280000Y-187000000D03*
D19*
X269820000Y-187000000D03*
%TD*%
D25*
%TO.C,J8*%
X357243465Y-252256535D03*
D26*
X359039516Y-250460484D03*
X360835567Y-248664433D03*
X362631618Y-246868382D03*
X364427669Y-245072331D03*
X366223721Y-243276279D03*
X368019772Y-241480228D03*
X369815823Y-239684177D03*
X371611874Y-237888126D03*
X373407926Y-236092074D03*
X375203977Y-234296023D03*
X377000028Y-232499972D03*
X378796079Y-230703921D03*
X380592131Y-228907869D03*
X382388182Y-227111818D03*
X384184233Y-225315767D03*
X385980284Y-223519716D03*
X387776335Y-221723665D03*
%TD*%
D17*
%TO.C,J5*%
X338000000Y-175000000D03*
D11*
X332920000Y-175000000D03*
%TD*%
D17*
%TO.C,J6*%
X324000000Y-174500000D03*
D11*
X318920000Y-174500000D03*
%TD*%
M02*
