G04 #@! TF.GenerationSoftware,KiCad,Pcbnew,8.0.5*
G04 #@! TF.CreationDate,2024-12-27T19:58:17-05:00*
G04 #@! TF.ProjectId,line_sensor_pcb,6c696e65-5f73-4656-9e73-6f725f706362,rev?*
G04 #@! TF.SameCoordinates,Original*
G04 #@! TF.FileFunction,Soldermask,Top*
G04 #@! TF.FilePolarity,Negative*
%FSLAX46Y46*%
G04 Gerber Fmt 4.6, Leading zero omitted, Abs format (unit mm)*
G04 Created by KiCad (PCBNEW 8.0.5) date 2024-12-27 19:58:17*
%MOMM*%
%LPD*%
G01*
G04 APERTURE LIST*
G04 Aperture macros list*
%AMRoundRect*
0 Rectangle with rounded corners*
0 $1 Rounding radius*
0 $2 $3 $4 $5 $6 $7 $8 $9 X,Y pos of 4 corners*
0 Add a 4 corners polygon primitive as box body*
4,1,4,$2,$3,$4,$5,$6,$7,$8,$9,$2,$3,0*
0 Add four circle primitives for the rounded corners*
1,1,$1+$1,$2,$3*
1,1,$1+$1,$4,$5*
1,1,$1+$1,$6,$7*
1,1,$1+$1,$8,$9*
0 Add four rect primitives between the rounded corners*
20,1,$1+$1,$2,$3,$4,$5,0*
20,1,$1+$1,$4,$5,$6,$7,0*
20,1,$1+$1,$6,$7,$8,$9,0*
20,1,$1+$1,$8,$9,$2,$3,0*%
G04 Aperture macros list end*
%ADD10C,1.300000*%
%ADD11R,0.800000X0.800000*%
%ADD12R,0.600000X3.100000*%
%ADD13R,1.300000X3.100000*%
%ADD14RoundRect,0.102000X0.699000X-0.699000X0.699000X0.699000X-0.699000X0.699000X-0.699000X-0.699000X0*%
%ADD15C,1.602000*%
G04 APERTURE END LIST*
D10*
X76300000Y-47040000D03*
X76300000Y-34040000D03*
X146000000Y-127100000D03*
X159000000Y-127100000D03*
D11*
X44420000Y-121920000D03*
X45720000Y-121920000D03*
X45720000Y-118820000D03*
X44420000Y-118820000D03*
D10*
X106580000Y-140920000D03*
X106580000Y-153920000D03*
X111460000Y-137160000D03*
X124460000Y-137160000D03*
D12*
X155868501Y-37981500D03*
X158568500Y-37981500D03*
D13*
X157218500Y-37981500D03*
D11*
X70414100Y-148870000D03*
X71714100Y-148870000D03*
X71714100Y-145770000D03*
X70414100Y-145770000D03*
X46731200Y-146168800D03*
X48031200Y-146168800D03*
X48031200Y-143068800D03*
X46731200Y-143068800D03*
D12*
X159050000Y-93980000D03*
X161750000Y-93980000D03*
D13*
X160400000Y-93980000D03*
D12*
X38902800Y-63935300D03*
X41602800Y-63935300D03*
D13*
X40252800Y-63935301D03*
D12*
X42731501Y-151118500D03*
X45431500Y-151118500D03*
D13*
X44081500Y-151118500D03*
D10*
X55780000Y-141140000D03*
X55780000Y-154140000D03*
D11*
X149860000Y-119380000D03*
X151160000Y-119380000D03*
X151160000Y-116280000D03*
X149860000Y-116280000D03*
X46731200Y-42931200D03*
X48031200Y-42931200D03*
X48031200Y-39831200D03*
X46731200Y-39831200D03*
D10*
X39320000Y-71220000D03*
X52320000Y-71220000D03*
X144780000Y-43180000D03*
X144780000Y-30180000D03*
X134520000Y-140920000D03*
X134520000Y-153920000D03*
D12*
X99300000Y-154880000D03*
X102000000Y-154880000D03*
D13*
X100650000Y-154880000D03*
D10*
X53440000Y-44500000D03*
X53440000Y-31500000D03*
D12*
X68741200Y-33182800D03*
X71441200Y-33182801D03*
D13*
X70091200Y-33182800D03*
D12*
X38902800Y-124598800D03*
X41602800Y-124598801D03*
D13*
X40252800Y-124598800D03*
D10*
X91540000Y-47040000D03*
X91540000Y-34040000D03*
D12*
X99360000Y-32650000D03*
X102060000Y-32650000D03*
D13*
X100710000Y-32650000D03*
D12*
X39290000Y-94550000D03*
X41990000Y-94550000D03*
D13*
X40640000Y-94550000D03*
D12*
X155868501Y-151118500D03*
X158568500Y-151118500D03*
D13*
X157218500Y-151118500D03*
D10*
X39320000Y-86460000D03*
X52320000Y-86460000D03*
D11*
X149968800Y-146168800D03*
X151268800Y-146168800D03*
X151268800Y-143068800D03*
X149968800Y-143068800D03*
X98350000Y-147880000D03*
X99650000Y-147880000D03*
X99650000Y-144780000D03*
X98350000Y-144780000D03*
D10*
X39320000Y-58520000D03*
X52320000Y-58520000D03*
D12*
X127300000Y-34172800D03*
X130000000Y-34172800D03*
D13*
X128650000Y-34172801D03*
D10*
X63540000Y-34020000D03*
X63540000Y-47020000D03*
X142280000Y-140700000D03*
X142280000Y-153700000D03*
D11*
X45340000Y-94550000D03*
X46640000Y-94550000D03*
X46640000Y-91450000D03*
X45340000Y-91450000D03*
X44420000Y-66614100D03*
X45720000Y-66614100D03*
X45720000Y-63514100D03*
X44420000Y-63514100D03*
D12*
X157277200Y-122058800D03*
X159977200Y-122058800D03*
D13*
X158627200Y-122058801D03*
D11*
X98410000Y-39650000D03*
X99710000Y-39650000D03*
X99710000Y-36550000D03*
X98410000Y-36550000D03*
D10*
X146000000Y-86460000D03*
X159000000Y-86460000D03*
D11*
X70470000Y-39650000D03*
X71770000Y-39650000D03*
X71770000Y-36550000D03*
X70470000Y-36550000D03*
D10*
X39320000Y-114300000D03*
X52320000Y-114300000D03*
D11*
X151100000Y-93980000D03*
X152400000Y-93980000D03*
X152400000Y-90880000D03*
X151100000Y-90880000D03*
D10*
X146000000Y-99160000D03*
X159000000Y-99160000D03*
D12*
X126840000Y-154940000D03*
X129540000Y-154940001D03*
D13*
X128190000Y-154940000D03*
D10*
X106580000Y-34240000D03*
X106580000Y-47240000D03*
X119560000Y-47040000D03*
X119560000Y-34040000D03*
D11*
X126285900Y-40640000D03*
X127585900Y-40640000D03*
X127585900Y-37540000D03*
X126285900Y-37540000D03*
D12*
X68685300Y-155337200D03*
X71385300Y-155337200D03*
D13*
X70035300Y-155337201D03*
D11*
X149860000Y-66040000D03*
X151160000Y-66040000D03*
X151160000Y-62940000D03*
X149860000Y-62940000D03*
D10*
X39320000Y-48260000D03*
X52320000Y-48260000D03*
D11*
X123211200Y-148472800D03*
X124511200Y-148472800D03*
X124511200Y-145372800D03*
X123211200Y-145372800D03*
D10*
X144480000Y-48260000D03*
X157480000Y-48260000D03*
D12*
X157277200Y-63361200D03*
X159977200Y-63361201D03*
D13*
X158627200Y-63361200D03*
D10*
X146000000Y-137260000D03*
X159000000Y-137260000D03*
D14*
X116840000Y-119380000D03*
D15*
X116840000Y-116840000D03*
X116840000Y-114300000D03*
X116840000Y-111760000D03*
X116840000Y-109220000D03*
X116840000Y-106680000D03*
X116840000Y-104140000D03*
X116840000Y-101600000D03*
X116840000Y-99060000D03*
X116840000Y-96520000D03*
X116840000Y-93980000D03*
X116840000Y-91440000D03*
X116840000Y-88900000D03*
X116840000Y-86360000D03*
X116840000Y-83820000D03*
X116840000Y-81280000D03*
X116840000Y-78740000D03*
X116840000Y-76200000D03*
D10*
X39320000Y-99160000D03*
X52320000Y-99160000D03*
X134720000Y-47040000D03*
X134720000Y-34040000D03*
D11*
X149968800Y-42931200D03*
X151268800Y-42931200D03*
X151268800Y-39831200D03*
X149968800Y-39831200D03*
D12*
X42731501Y-37981500D03*
X45431500Y-37981500D03*
D13*
X44081500Y-37981500D03*
D10*
X130760000Y-116940000D03*
X143760000Y-116940000D03*
X39320000Y-137260000D03*
X52320000Y-137260000D03*
X144480000Y-58420000D03*
X157480000Y-58420000D03*
X63400000Y-141140000D03*
X63400000Y-154140000D03*
X76100000Y-140920000D03*
X76100000Y-153920000D03*
X91480000Y-140920000D03*
X91480000Y-153920000D03*
X146000000Y-71220000D03*
X159000000Y-71220000D03*
X39320000Y-129640000D03*
X52320000Y-129640000D03*
M02*
