M48
; DRILL file {KiCad 8.0.5} date 2024-12-27T19:58:19-0500
; FORMAT={-:-/ absolute / metric / decimal}
; #@! TF.CreationDate,2024-12-27T19:58:19-05:00
; #@! TF.GenerationSoftware,Kicad,Pcbnew,8.0.5
; #@! TF.FileFunction,Plated,1,2,PTH
FMAT,2
METRIC
; #@! TA.AperFunction,Plated,PTH,ComponentDrill
T1C0.650
; #@! TA.AperFunction,Plated,PTH,ComponentDrill
T2C0.890
%
G90
G05
T1
X39.32Y-48.26
X39.32Y-58.52
X39.32Y-71.22
X39.32Y-86.46
X39.32Y-99.16
X39.32Y-114.3
X39.32Y-129.64
X39.32Y-137.26
X52.32Y-48.26
X52.32Y-58.52
X52.32Y-71.22
X52.32Y-86.46
X52.32Y-99.16
X52.32Y-114.3
X52.32Y-129.64
X52.32Y-137.26
X53.44Y-31.5
X53.44Y-44.5
X55.78Y-141.14
X55.78Y-154.14
X63.4Y-141.14
X63.4Y-154.14
X63.54Y-34.02
X63.54Y-47.02
X76.1Y-140.92
X76.1Y-153.92
X76.3Y-34.04
X76.3Y-47.04
X91.48Y-140.92
X91.48Y-153.92
X91.54Y-34.04
X91.54Y-47.04
X106.58Y-34.24
X106.58Y-47.24
X106.58Y-140.92
X106.58Y-153.92
X111.46Y-137.16
X119.56Y-34.04
X119.56Y-47.04
X124.46Y-137.16
X130.76Y-116.94
X134.52Y-140.92
X134.52Y-153.92
X134.72Y-34.04
X134.72Y-47.04
X142.28Y-140.7
X142.28Y-153.7
X143.76Y-116.94
X144.48Y-48.26
X144.48Y-58.42
X144.78Y-30.18
X144.78Y-43.18
X146.0Y-71.22
X146.0Y-86.46
X146.0Y-99.16
X146.0Y-127.1
X146.0Y-137.26
X157.48Y-48.26
X157.48Y-58.42
X159.0Y-71.22
X159.0Y-86.46
X159.0Y-99.16
X159.0Y-127.1
X159.0Y-137.26
T2
X116.84Y-76.2
X116.84Y-78.74
X116.84Y-81.28
X116.84Y-83.82
X116.84Y-86.36
X116.84Y-88.9
X116.84Y-91.44
X116.84Y-93.98
X116.84Y-96.52
X116.84Y-99.06
X116.84Y-101.6
X116.84Y-104.14
X116.84Y-106.68
X116.84Y-109.22
X116.84Y-111.76
X116.84Y-114.3
X116.84Y-116.84
X116.84Y-119.38
M30
