G04 #@! TF.GenerationSoftware,KiCad,Pcbnew,8.0.5*
G04 #@! TF.CreationDate,2024-12-27T19:58:17-05:00*
G04 #@! TF.ProjectId,line_sensor_pcb,6c696e65-5f73-4656-9e73-6f725f706362,rev?*
G04 #@! TF.SameCoordinates,Original*
G04 #@! TF.FileFunction,Copper,L2,Bot*
G04 #@! TF.FilePolarity,Positive*
%FSLAX46Y46*%
G04 Gerber Fmt 4.6, Leading zero omitted, Abs format (unit mm)*
G04 Created by KiCad (PCBNEW 8.0.5) date 2024-12-27 19:58:17*
%MOMM*%
%LPD*%
G01*
G04 APERTURE LIST*
G04 #@! TA.AperFunction,ComponentPad*
%ADD10C,1.300000*%
G04 #@! TD*
G04 #@! TA.AperFunction,ComponentPad*
%ADD11R,1.398000X1.398000*%
G04 #@! TD*
G04 #@! TA.AperFunction,ComponentPad*
%ADD12C,1.398000*%
G04 #@! TD*
G04 #@! TA.AperFunction,Conductor*
%ADD13C,0.200000*%
G04 #@! TD*
G04 APERTURE END LIST*
D10*
X76300000Y-47040000D03*
X76300000Y-34040000D03*
X146000000Y-127100000D03*
X159000000Y-127100000D03*
X106580000Y-140920000D03*
X106580000Y-153920000D03*
X111460000Y-137160000D03*
X124460000Y-137160000D03*
X55780000Y-141140000D03*
X55780000Y-154140000D03*
X39320000Y-71220000D03*
X52320000Y-71220000D03*
X144780000Y-43180000D03*
X144780000Y-30180000D03*
X134520000Y-140920000D03*
X134520000Y-153920000D03*
X53440000Y-44500000D03*
X53440000Y-31500000D03*
X91540000Y-47040000D03*
X91540000Y-34040000D03*
X39320000Y-86460000D03*
X52320000Y-86460000D03*
X39320000Y-58520000D03*
X52320000Y-58520000D03*
X63540000Y-34020000D03*
X63540000Y-47020000D03*
X142280000Y-140700000D03*
X142280000Y-153700000D03*
X146000000Y-86460000D03*
X159000000Y-86460000D03*
X39320000Y-114300000D03*
X52320000Y-114300000D03*
X146000000Y-99160000D03*
X159000000Y-99160000D03*
X106580000Y-34240000D03*
X106580000Y-47240000D03*
X119560000Y-47040000D03*
X119560000Y-34040000D03*
X39320000Y-48260000D03*
X52320000Y-48260000D03*
X144480000Y-48260000D03*
X157480000Y-48260000D03*
X146000000Y-137260000D03*
X159000000Y-137260000D03*
D11*
X116840000Y-119380000D03*
D12*
X116840000Y-116840000D03*
X116840000Y-114300000D03*
X116840000Y-111760000D03*
X116840000Y-109220000D03*
X116840000Y-106680000D03*
X116840000Y-104140000D03*
X116840000Y-101600000D03*
X116840000Y-99060000D03*
X116840000Y-96520000D03*
X116840000Y-93980000D03*
X116840000Y-91440000D03*
X116840000Y-88900000D03*
X116840000Y-86360000D03*
X116840000Y-83820000D03*
X116840000Y-81280000D03*
X116840000Y-78740000D03*
X116840000Y-76200000D03*
D10*
X39320000Y-99160000D03*
X52320000Y-99160000D03*
X134720000Y-47040000D03*
X134720000Y-34040000D03*
X130760000Y-116940000D03*
X143760000Y-116940000D03*
X39320000Y-137260000D03*
X52320000Y-137260000D03*
X144480000Y-58420000D03*
X157480000Y-58420000D03*
X63400000Y-141140000D03*
X63400000Y-154140000D03*
X76100000Y-140920000D03*
X76100000Y-153920000D03*
X91480000Y-140920000D03*
X91480000Y-153920000D03*
X146000000Y-71220000D03*
X159000000Y-71220000D03*
X39320000Y-129640000D03*
X52320000Y-129640000D03*
D13*
X39320000Y-58520000D02*
X39320000Y-71220000D01*
X146000000Y-137260000D02*
X146000000Y-127100000D01*
X93780000Y-47040000D02*
X106580000Y-34240000D01*
X38248400Y-72291600D02*
X39320000Y-71220000D01*
X108529200Y-34240000D02*
X106580000Y-34240000D01*
X144480000Y-48260000D02*
X144480000Y-58420000D01*
X76300000Y-47040000D02*
X76300000Y-46780000D01*
X39320000Y-129640000D02*
X39320000Y-114300000D01*
X39320000Y-99160000D02*
X38248400Y-100231600D01*
X38248400Y-100231600D02*
X38248400Y-113228400D01*
X38248400Y-113228400D02*
X39320000Y-114300000D01*
X39320000Y-137260000D02*
X43200000Y-141140000D01*
X53440000Y-44500000D02*
X43080000Y-44500000D01*
X76100000Y-140920000D02*
X91480000Y-140920000D01*
X43080000Y-44500000D02*
X39320000Y-48260000D01*
X146000000Y-71220000D02*
X146000000Y-86460000D01*
X130660000Y-114300000D02*
X130760000Y-114400000D01*
X116840000Y-114300000D02*
X130660000Y-114300000D01*
X144480000Y-69700000D02*
X146000000Y-71220000D01*
X76300000Y-46780000D02*
X63540000Y-34020000D01*
X43200000Y-141140000D02*
X55780000Y-141140000D01*
X119560000Y-47040000D02*
X119560000Y-45270800D01*
X39320000Y-86460000D02*
X38248400Y-85388400D01*
X140920000Y-127100000D02*
X146000000Y-127100000D01*
X130760000Y-116940000D02*
X140920000Y-127100000D01*
X130760000Y-114400000D02*
X130760000Y-116940000D01*
X119560000Y-45270800D02*
X108529200Y-34240000D01*
X39320000Y-48260000D02*
X39320000Y-58520000D01*
X146000000Y-99160000D02*
X130760000Y-114400000D01*
X146000000Y-99160000D02*
X146000000Y-86460000D01*
X39320000Y-99160000D02*
X39320000Y-86460000D01*
X91540000Y-47040000D02*
X93780000Y-47040000D01*
X39320000Y-137260000D02*
X39320000Y-129640000D01*
X38248400Y-85388400D02*
X38248400Y-72291600D01*
X144480000Y-58420000D02*
X144480000Y-69700000D01*
M02*
