G04 #@! TF.GenerationSoftware,KiCad,Pcbnew,8.0.5*
G04 #@! TF.CreationDate,2024-12-27T19:58:17-05:00*
G04 #@! TF.ProjectId,line_sensor_pcb,6c696e65-5f73-4656-9e73-6f725f706362,rev?*
G04 #@! TF.SameCoordinates,Original*
G04 #@! TF.FileFunction,Legend,Top*
G04 #@! TF.FilePolarity,Positive*
%FSLAX46Y46*%
G04 Gerber Fmt 4.6, Leading zero omitted, Abs format (unit mm)*
G04 Created by KiCad (PCBNEW 8.0.5) date 2024-12-27 19:58:17*
%MOMM*%
%LPD*%
G01*
G04 APERTURE LIST*
G04 Aperture macros list*
%AMRoundRect*
0 Rectangle with rounded corners*
0 $1 Rounding radius*
0 $2 $3 $4 $5 $6 $7 $8 $9 X,Y pos of 4 corners*
0 Add a 4 corners polygon primitive as box body*
4,1,4,$2,$3,$4,$5,$6,$7,$8,$9,$2,$3,0*
0 Add four circle primitives for the rounded corners*
1,1,$1+$1,$2,$3*
1,1,$1+$1,$4,$5*
1,1,$1+$1,$6,$7*
1,1,$1+$1,$8,$9*
0 Add four rect primitives between the rounded corners*
20,1,$1+$1,$2,$3,$4,$5,0*
20,1,$1+$1,$4,$5,$6,$7,0*
20,1,$1+$1,$6,$7,$8,$9,0*
20,1,$1+$1,$8,$9,$2,$3,0*%
G04 Aperture macros list end*
%ADD10C,0.100000*%
%ADD11C,0.254000*%
%ADD12C,0.150000*%
%ADD13C,0.300000*%
%ADD14C,0.127000*%
%ADD15C,0.200000*%
%ADD16C,1.300000*%
%ADD17R,0.800000X0.800000*%
%ADD18R,0.600000X3.100000*%
%ADD19R,1.300000X3.100000*%
%ADD20RoundRect,0.102000X0.699000X-0.699000X0.699000X0.699000X-0.699000X0.699000X-0.699000X-0.699000X0*%
%ADD21C,1.602000*%
G04 APERTURE END LIST*
D10*
X72757419Y-49278094D02*
X73566942Y-49278094D01*
X73566942Y-49278094D02*
X73662180Y-49230475D01*
X73662180Y-49230475D02*
X73709800Y-49182856D01*
X73709800Y-49182856D02*
X73757419Y-49087618D01*
X73757419Y-49087618D02*
X73757419Y-48897142D01*
X73757419Y-48897142D02*
X73709800Y-48801904D01*
X73709800Y-48801904D02*
X73662180Y-48754285D01*
X73662180Y-48754285D02*
X73566942Y-48706666D01*
X73566942Y-48706666D02*
X72757419Y-48706666D01*
X72852657Y-48278094D02*
X72805038Y-48230475D01*
X72805038Y-48230475D02*
X72757419Y-48135237D01*
X72757419Y-48135237D02*
X72757419Y-47897142D01*
X72757419Y-47897142D02*
X72805038Y-47801904D01*
X72805038Y-47801904D02*
X72852657Y-47754285D01*
X72852657Y-47754285D02*
X72947895Y-47706666D01*
X72947895Y-47706666D02*
X73043133Y-47706666D01*
X73043133Y-47706666D02*
X73185990Y-47754285D01*
X73185990Y-47754285D02*
X73757419Y-48325713D01*
X73757419Y-48325713D02*
X73757419Y-47706666D01*
X73757419Y-46754285D02*
X73757419Y-47325713D01*
X73757419Y-47039999D02*
X72757419Y-47039999D01*
X72757419Y-47039999D02*
X72900276Y-47135237D01*
X72900276Y-47135237D02*
X72995514Y-47230475D01*
X72995514Y-47230475D02*
X73043133Y-47325713D01*
X143761905Y-123557419D02*
X143761905Y-124366942D01*
X143761905Y-124366942D02*
X143809524Y-124462180D01*
X143809524Y-124462180D02*
X143857143Y-124509800D01*
X143857143Y-124509800D02*
X143952381Y-124557419D01*
X143952381Y-124557419D02*
X144142857Y-124557419D01*
X144142857Y-124557419D02*
X144238095Y-124509800D01*
X144238095Y-124509800D02*
X144285714Y-124462180D01*
X144285714Y-124462180D02*
X144333333Y-124366942D01*
X144333333Y-124366942D02*
X144333333Y-123557419D01*
X145333333Y-124557419D02*
X144761905Y-124557419D01*
X145047619Y-124557419D02*
X145047619Y-123557419D01*
X145047619Y-123557419D02*
X144952381Y-123700276D01*
X144952381Y-123700276D02*
X144857143Y-123795514D01*
X144857143Y-123795514D02*
X144761905Y-123843133D01*
X146238095Y-123557419D02*
X145761905Y-123557419D01*
X145761905Y-123557419D02*
X145714286Y-124033609D01*
X145714286Y-124033609D02*
X145761905Y-123985990D01*
X145761905Y-123985990D02*
X145857143Y-123938371D01*
X145857143Y-123938371D02*
X146095238Y-123938371D01*
X146095238Y-123938371D02*
X146190476Y-123985990D01*
X146190476Y-123985990D02*
X146238095Y-124033609D01*
X146238095Y-124033609D02*
X146285714Y-124128847D01*
X146285714Y-124128847D02*
X146285714Y-124366942D01*
X146285714Y-124366942D02*
X146238095Y-124462180D01*
X146238095Y-124462180D02*
X146190476Y-124509800D01*
X146190476Y-124509800D02*
X146095238Y-124557419D01*
X146095238Y-124557419D02*
X145857143Y-124557419D01*
X145857143Y-124557419D02*
X145761905Y-124509800D01*
X145761905Y-124509800D02*
X145714286Y-124462180D01*
D11*
X43843237Y-121194318D02*
X43843237Y-119924318D01*
X45173714Y-121073365D02*
X45113238Y-121133842D01*
X45113238Y-121133842D02*
X44931809Y-121194318D01*
X44931809Y-121194318D02*
X44810857Y-121194318D01*
X44810857Y-121194318D02*
X44629428Y-121133842D01*
X44629428Y-121133842D02*
X44508476Y-121012889D01*
X44508476Y-121012889D02*
X44447999Y-120891937D01*
X44447999Y-120891937D02*
X44387523Y-120650032D01*
X44387523Y-120650032D02*
X44387523Y-120468603D01*
X44387523Y-120468603D02*
X44447999Y-120226699D01*
X44447999Y-120226699D02*
X44508476Y-120105746D01*
X44508476Y-120105746D02*
X44629428Y-119984794D01*
X44629428Y-119984794D02*
X44810857Y-119924318D01*
X44810857Y-119924318D02*
X44931809Y-119924318D01*
X44931809Y-119924318D02*
X45113238Y-119984794D01*
X45113238Y-119984794D02*
X45173714Y-120045270D01*
X45778476Y-121194318D02*
X46020380Y-121194318D01*
X46020380Y-121194318D02*
X46141333Y-121133842D01*
X46141333Y-121133842D02*
X46201809Y-121073365D01*
X46201809Y-121073365D02*
X46322761Y-120891937D01*
X46322761Y-120891937D02*
X46383238Y-120650032D01*
X46383238Y-120650032D02*
X46383238Y-120166222D01*
X46383238Y-120166222D02*
X46322761Y-120045270D01*
X46322761Y-120045270D02*
X46262285Y-119984794D01*
X46262285Y-119984794D02*
X46141333Y-119924318D01*
X46141333Y-119924318D02*
X45899428Y-119924318D01*
X45899428Y-119924318D02*
X45778476Y-119984794D01*
X45778476Y-119984794D02*
X45717999Y-120045270D01*
X45717999Y-120045270D02*
X45657523Y-120166222D01*
X45657523Y-120166222D02*
X45657523Y-120468603D01*
X45657523Y-120468603D02*
X45717999Y-120589556D01*
X45717999Y-120589556D02*
X45778476Y-120650032D01*
X45778476Y-120650032D02*
X45899428Y-120710508D01*
X45899428Y-120710508D02*
X46141333Y-120710508D01*
X46141333Y-120710508D02*
X46262285Y-120650032D01*
X46262285Y-120650032D02*
X46322761Y-120589556D01*
X46322761Y-120589556D02*
X46383238Y-120468603D01*
D10*
X110122580Y-138681905D02*
X109313057Y-138681905D01*
X109313057Y-138681905D02*
X109217819Y-138729524D01*
X109217819Y-138729524D02*
X109170200Y-138777143D01*
X109170200Y-138777143D02*
X109122580Y-138872381D01*
X109122580Y-138872381D02*
X109122580Y-139062857D01*
X109122580Y-139062857D02*
X109170200Y-139158095D01*
X109170200Y-139158095D02*
X109217819Y-139205714D01*
X109217819Y-139205714D02*
X109313057Y-139253333D01*
X109313057Y-139253333D02*
X110122580Y-139253333D01*
X110027342Y-139681905D02*
X110074961Y-139729524D01*
X110074961Y-139729524D02*
X110122580Y-139824762D01*
X110122580Y-139824762D02*
X110122580Y-140062857D01*
X110122580Y-140062857D02*
X110074961Y-140158095D01*
X110074961Y-140158095D02*
X110027342Y-140205714D01*
X110027342Y-140205714D02*
X109932104Y-140253333D01*
X109932104Y-140253333D02*
X109836866Y-140253333D01*
X109836866Y-140253333D02*
X109694009Y-140205714D01*
X109694009Y-140205714D02*
X109122580Y-139634286D01*
X109122580Y-139634286D02*
X109122580Y-140253333D01*
X109694009Y-140824762D02*
X109741628Y-140729524D01*
X109741628Y-140729524D02*
X109789247Y-140681905D01*
X109789247Y-140681905D02*
X109884485Y-140634286D01*
X109884485Y-140634286D02*
X109932104Y-140634286D01*
X109932104Y-140634286D02*
X110027342Y-140681905D01*
X110027342Y-140681905D02*
X110074961Y-140729524D01*
X110074961Y-140729524D02*
X110122580Y-140824762D01*
X110122580Y-140824762D02*
X110122580Y-141015238D01*
X110122580Y-141015238D02*
X110074961Y-141110476D01*
X110074961Y-141110476D02*
X110027342Y-141158095D01*
X110027342Y-141158095D02*
X109932104Y-141205714D01*
X109932104Y-141205714D02*
X109884485Y-141205714D01*
X109884485Y-141205714D02*
X109789247Y-141158095D01*
X109789247Y-141158095D02*
X109741628Y-141110476D01*
X109741628Y-141110476D02*
X109694009Y-141015238D01*
X109694009Y-141015238D02*
X109694009Y-140824762D01*
X109694009Y-140824762D02*
X109646390Y-140729524D01*
X109646390Y-140729524D02*
X109598771Y-140681905D01*
X109598771Y-140681905D02*
X109503533Y-140634286D01*
X109503533Y-140634286D02*
X109313057Y-140634286D01*
X109313057Y-140634286D02*
X109217819Y-140681905D01*
X109217819Y-140681905D02*
X109170200Y-140729524D01*
X109170200Y-140729524D02*
X109122580Y-140824762D01*
X109122580Y-140824762D02*
X109122580Y-141015238D01*
X109122580Y-141015238D02*
X109170200Y-141110476D01*
X109170200Y-141110476D02*
X109217819Y-141158095D01*
X109217819Y-141158095D02*
X109313057Y-141205714D01*
X109313057Y-141205714D02*
X109503533Y-141205714D01*
X109503533Y-141205714D02*
X109598771Y-141158095D01*
X109598771Y-141158095D02*
X109646390Y-141110476D01*
X109646390Y-141110476D02*
X109694009Y-141015238D01*
X109221905Y-133617419D02*
X109221905Y-134426942D01*
X109221905Y-134426942D02*
X109269524Y-134522180D01*
X109269524Y-134522180D02*
X109317143Y-134569800D01*
X109317143Y-134569800D02*
X109412381Y-134617419D01*
X109412381Y-134617419D02*
X109602857Y-134617419D01*
X109602857Y-134617419D02*
X109698095Y-134569800D01*
X109698095Y-134569800D02*
X109745714Y-134522180D01*
X109745714Y-134522180D02*
X109793333Y-134426942D01*
X109793333Y-134426942D02*
X109793333Y-133617419D01*
X110221905Y-133712657D02*
X110269524Y-133665038D01*
X110269524Y-133665038D02*
X110364762Y-133617419D01*
X110364762Y-133617419D02*
X110602857Y-133617419D01*
X110602857Y-133617419D02*
X110698095Y-133665038D01*
X110698095Y-133665038D02*
X110745714Y-133712657D01*
X110745714Y-133712657D02*
X110793333Y-133807895D01*
X110793333Y-133807895D02*
X110793333Y-133903133D01*
X110793333Y-133903133D02*
X110745714Y-134045990D01*
X110745714Y-134045990D02*
X110174286Y-134617419D01*
X110174286Y-134617419D02*
X110793333Y-134617419D01*
X111269524Y-134617419D02*
X111460000Y-134617419D01*
X111460000Y-134617419D02*
X111555238Y-134569800D01*
X111555238Y-134569800D02*
X111602857Y-134522180D01*
X111602857Y-134522180D02*
X111698095Y-134379323D01*
X111698095Y-134379323D02*
X111745714Y-134188847D01*
X111745714Y-134188847D02*
X111745714Y-133807895D01*
X111745714Y-133807895D02*
X111698095Y-133712657D01*
X111698095Y-133712657D02*
X111650476Y-133665038D01*
X111650476Y-133665038D02*
X111555238Y-133617419D01*
X111555238Y-133617419D02*
X111364762Y-133617419D01*
X111364762Y-133617419D02*
X111269524Y-133665038D01*
X111269524Y-133665038D02*
X111221905Y-133712657D01*
X111221905Y-133712657D02*
X111174286Y-133807895D01*
X111174286Y-133807895D02*
X111174286Y-134045990D01*
X111174286Y-134045990D02*
X111221905Y-134141228D01*
X111221905Y-134141228D02*
X111269524Y-134188847D01*
X111269524Y-134188847D02*
X111364762Y-134236466D01*
X111364762Y-134236466D02*
X111555238Y-134236466D01*
X111555238Y-134236466D02*
X111650476Y-134188847D01*
X111650476Y-134188847D02*
X111698095Y-134141228D01*
X111698095Y-134141228D02*
X111745714Y-134045990D01*
X151092309Y-36103205D02*
X151568499Y-36103205D01*
X150997071Y-36388920D02*
X151330404Y-35388920D01*
X151330404Y-35388920D02*
X151663737Y-36388920D01*
X151997071Y-36388920D02*
X151997071Y-35388920D01*
X151997071Y-35388920D02*
X152330404Y-36103205D01*
X152330404Y-36103205D02*
X152663737Y-35388920D01*
X152663737Y-35388920D02*
X152663737Y-36388920D01*
X153473261Y-35865110D02*
X153616118Y-35912729D01*
X153616118Y-35912729D02*
X153663737Y-35960348D01*
X153663737Y-35960348D02*
X153711356Y-36055586D01*
X153711356Y-36055586D02*
X153711356Y-36198443D01*
X153711356Y-36198443D02*
X153663737Y-36293681D01*
X153663737Y-36293681D02*
X153616118Y-36341301D01*
X153616118Y-36341301D02*
X153520880Y-36388920D01*
X153520880Y-36388920D02*
X153139928Y-36388920D01*
X153139928Y-36388920D02*
X153139928Y-35388920D01*
X153139928Y-35388920D02*
X153473261Y-35388920D01*
X153473261Y-35388920D02*
X153568499Y-35436539D01*
X153568499Y-35436539D02*
X153616118Y-35484158D01*
X153616118Y-35484158D02*
X153663737Y-35579396D01*
X153663737Y-35579396D02*
X153663737Y-35674634D01*
X153663737Y-35674634D02*
X153616118Y-35769872D01*
X153616118Y-35769872D02*
X153568499Y-35817491D01*
X153568499Y-35817491D02*
X153473261Y-35865110D01*
X153473261Y-35865110D02*
X153139928Y-35865110D01*
X154139928Y-35865110D02*
X154473261Y-35865110D01*
X154616118Y-36388920D02*
X154139928Y-36388920D01*
X154139928Y-36388920D02*
X154139928Y-35388920D01*
X154139928Y-35388920D02*
X154616118Y-35388920D01*
X155616118Y-36388920D02*
X155282785Y-35912729D01*
X155044690Y-36388920D02*
X155044690Y-35388920D01*
X155044690Y-35388920D02*
X155425642Y-35388920D01*
X155425642Y-35388920D02*
X155520880Y-35436539D01*
X155520880Y-35436539D02*
X155568499Y-35484158D01*
X155568499Y-35484158D02*
X155616118Y-35579396D01*
X155616118Y-35579396D02*
X155616118Y-35722253D01*
X155616118Y-35722253D02*
X155568499Y-35817491D01*
X155568499Y-35817491D02*
X155520880Y-35865110D01*
X155520880Y-35865110D02*
X155425642Y-35912729D01*
X155425642Y-35912729D02*
X155044690Y-35912729D01*
X155806595Y-36484158D02*
X156568499Y-36484158D01*
X157282785Y-36388920D02*
X156806595Y-36388920D01*
X156806595Y-36388920D02*
X156806595Y-35388920D01*
X157616119Y-35865110D02*
X157949452Y-35865110D01*
X158092309Y-36388920D02*
X157616119Y-36388920D01*
X157616119Y-36388920D02*
X157616119Y-35388920D01*
X157616119Y-35388920D02*
X158092309Y-35388920D01*
X158520881Y-36388920D02*
X158520881Y-35388920D01*
X158520881Y-35388920D02*
X158758976Y-35388920D01*
X158758976Y-35388920D02*
X158901833Y-35436539D01*
X158901833Y-35436539D02*
X158997071Y-35531777D01*
X158997071Y-35531777D02*
X159044690Y-35627015D01*
X159044690Y-35627015D02*
X159092309Y-35817491D01*
X159092309Y-35817491D02*
X159092309Y-35960348D01*
X159092309Y-35960348D02*
X159044690Y-36150824D01*
X159044690Y-36150824D02*
X158997071Y-36246062D01*
X158997071Y-36246062D02*
X158901833Y-36341301D01*
X158901833Y-36341301D02*
X158758976Y-36388920D01*
X158758976Y-36388920D02*
X158520881Y-36388920D01*
X159473262Y-35484158D02*
X159520881Y-35436539D01*
X159520881Y-35436539D02*
X159616119Y-35388920D01*
X159616119Y-35388920D02*
X159854214Y-35388920D01*
X159854214Y-35388920D02*
X159949452Y-35436539D01*
X159949452Y-35436539D02*
X159997071Y-35484158D01*
X159997071Y-35484158D02*
X160044690Y-35579396D01*
X160044690Y-35579396D02*
X160044690Y-35674634D01*
X160044690Y-35674634D02*
X159997071Y-35817491D01*
X159997071Y-35817491D02*
X159425643Y-36388920D01*
X159425643Y-36388920D02*
X160044690Y-36388920D01*
D11*
X69232575Y-148144318D02*
X69232575Y-146874318D01*
X70563052Y-148023365D02*
X70502576Y-148083842D01*
X70502576Y-148083842D02*
X70321147Y-148144318D01*
X70321147Y-148144318D02*
X70200195Y-148144318D01*
X70200195Y-148144318D02*
X70018766Y-148083842D01*
X70018766Y-148083842D02*
X69897814Y-147962889D01*
X69897814Y-147962889D02*
X69837337Y-147841937D01*
X69837337Y-147841937D02*
X69776861Y-147600032D01*
X69776861Y-147600032D02*
X69776861Y-147418603D01*
X69776861Y-147418603D02*
X69837337Y-147176699D01*
X69837337Y-147176699D02*
X69897814Y-147055746D01*
X69897814Y-147055746D02*
X70018766Y-146934794D01*
X70018766Y-146934794D02*
X70200195Y-146874318D01*
X70200195Y-146874318D02*
X70321147Y-146874318D01*
X70321147Y-146874318D02*
X70502576Y-146934794D01*
X70502576Y-146934794D02*
X70563052Y-146995270D01*
X71772576Y-148144318D02*
X71046861Y-148144318D01*
X71409718Y-148144318D02*
X71409718Y-146874318D01*
X71409718Y-146874318D02*
X71288766Y-147055746D01*
X71288766Y-147055746D02*
X71167814Y-147176699D01*
X71167814Y-147176699D02*
X71046861Y-147237175D01*
X72982100Y-148144318D02*
X72256385Y-148144318D01*
X72619242Y-148144318D02*
X72619242Y-146874318D01*
X72619242Y-146874318D02*
X72498290Y-147055746D01*
X72498290Y-147055746D02*
X72377338Y-147176699D01*
X72377338Y-147176699D02*
X72256385Y-147237175D01*
X45549675Y-145443118D02*
X45549675Y-144173118D01*
X46880152Y-145322165D02*
X46819676Y-145382642D01*
X46819676Y-145382642D02*
X46638247Y-145443118D01*
X46638247Y-145443118D02*
X46517295Y-145443118D01*
X46517295Y-145443118D02*
X46335866Y-145382642D01*
X46335866Y-145382642D02*
X46214914Y-145261689D01*
X46214914Y-145261689D02*
X46154437Y-145140737D01*
X46154437Y-145140737D02*
X46093961Y-144898832D01*
X46093961Y-144898832D02*
X46093961Y-144717403D01*
X46093961Y-144717403D02*
X46154437Y-144475499D01*
X46154437Y-144475499D02*
X46214914Y-144354546D01*
X46214914Y-144354546D02*
X46335866Y-144233594D01*
X46335866Y-144233594D02*
X46517295Y-144173118D01*
X46517295Y-144173118D02*
X46638247Y-144173118D01*
X46638247Y-144173118D02*
X46819676Y-144233594D01*
X46819676Y-144233594D02*
X46880152Y-144294070D01*
X48089676Y-145443118D02*
X47363961Y-145443118D01*
X47726818Y-145443118D02*
X47726818Y-144173118D01*
X47726818Y-144173118D02*
X47605866Y-144354546D01*
X47605866Y-144354546D02*
X47484914Y-144475499D01*
X47484914Y-144475499D02*
X47363961Y-144535975D01*
X48875866Y-144173118D02*
X48996819Y-144173118D01*
X48996819Y-144173118D02*
X49117771Y-144233594D01*
X49117771Y-144233594D02*
X49178247Y-144294070D01*
X49178247Y-144294070D02*
X49238723Y-144415022D01*
X49238723Y-144415022D02*
X49299200Y-144656927D01*
X49299200Y-144656927D02*
X49299200Y-144959308D01*
X49299200Y-144959308D02*
X49238723Y-145201213D01*
X49238723Y-145201213D02*
X49178247Y-145322165D01*
X49178247Y-145322165D02*
X49117771Y-145382642D01*
X49117771Y-145382642D02*
X48996819Y-145443118D01*
X48996819Y-145443118D02*
X48875866Y-145443118D01*
X48875866Y-145443118D02*
X48754914Y-145382642D01*
X48754914Y-145382642D02*
X48694438Y-145322165D01*
X48694438Y-145322165D02*
X48633961Y-145201213D01*
X48633961Y-145201213D02*
X48573485Y-144959308D01*
X48573485Y-144959308D02*
X48573485Y-144656927D01*
X48573485Y-144656927D02*
X48633961Y-144415022D01*
X48633961Y-144415022D02*
X48694438Y-144294070D01*
X48694438Y-144294070D02*
X48754914Y-144233594D01*
X48754914Y-144233594D02*
X48875866Y-144173118D01*
D10*
X153797619Y-92101704D02*
X154273809Y-92101704D01*
X153702381Y-92387419D02*
X154035714Y-91387419D01*
X154035714Y-91387419D02*
X154369047Y-92387419D01*
X154702381Y-92387419D02*
X154702381Y-91387419D01*
X154702381Y-91387419D02*
X155035714Y-92101704D01*
X155035714Y-92101704D02*
X155369047Y-91387419D01*
X155369047Y-91387419D02*
X155369047Y-92387419D01*
X156178571Y-91863609D02*
X156321428Y-91911228D01*
X156321428Y-91911228D02*
X156369047Y-91958847D01*
X156369047Y-91958847D02*
X156416666Y-92054085D01*
X156416666Y-92054085D02*
X156416666Y-92196942D01*
X156416666Y-92196942D02*
X156369047Y-92292180D01*
X156369047Y-92292180D02*
X156321428Y-92339800D01*
X156321428Y-92339800D02*
X156226190Y-92387419D01*
X156226190Y-92387419D02*
X155845238Y-92387419D01*
X155845238Y-92387419D02*
X155845238Y-91387419D01*
X155845238Y-91387419D02*
X156178571Y-91387419D01*
X156178571Y-91387419D02*
X156273809Y-91435038D01*
X156273809Y-91435038D02*
X156321428Y-91482657D01*
X156321428Y-91482657D02*
X156369047Y-91577895D01*
X156369047Y-91577895D02*
X156369047Y-91673133D01*
X156369047Y-91673133D02*
X156321428Y-91768371D01*
X156321428Y-91768371D02*
X156273809Y-91815990D01*
X156273809Y-91815990D02*
X156178571Y-91863609D01*
X156178571Y-91863609D02*
X155845238Y-91863609D01*
X156845238Y-91863609D02*
X157178571Y-91863609D01*
X157321428Y-92387419D02*
X156845238Y-92387419D01*
X156845238Y-92387419D02*
X156845238Y-91387419D01*
X156845238Y-91387419D02*
X157321428Y-91387419D01*
X158321428Y-92387419D02*
X157988095Y-91911228D01*
X157750000Y-92387419D02*
X157750000Y-91387419D01*
X157750000Y-91387419D02*
X158130952Y-91387419D01*
X158130952Y-91387419D02*
X158226190Y-91435038D01*
X158226190Y-91435038D02*
X158273809Y-91482657D01*
X158273809Y-91482657D02*
X158321428Y-91577895D01*
X158321428Y-91577895D02*
X158321428Y-91720752D01*
X158321428Y-91720752D02*
X158273809Y-91815990D01*
X158273809Y-91815990D02*
X158226190Y-91863609D01*
X158226190Y-91863609D02*
X158130952Y-91911228D01*
X158130952Y-91911228D02*
X157750000Y-91911228D01*
X158511905Y-92482657D02*
X159273809Y-92482657D01*
X159988095Y-92387419D02*
X159511905Y-92387419D01*
X159511905Y-92387419D02*
X159511905Y-91387419D01*
X160321429Y-91863609D02*
X160654762Y-91863609D01*
X160797619Y-92387419D02*
X160321429Y-92387419D01*
X160321429Y-92387419D02*
X160321429Y-91387419D01*
X160321429Y-91387419D02*
X160797619Y-91387419D01*
X161226191Y-92387419D02*
X161226191Y-91387419D01*
X161226191Y-91387419D02*
X161464286Y-91387419D01*
X161464286Y-91387419D02*
X161607143Y-91435038D01*
X161607143Y-91435038D02*
X161702381Y-91530276D01*
X161702381Y-91530276D02*
X161750000Y-91625514D01*
X161750000Y-91625514D02*
X161797619Y-91815990D01*
X161797619Y-91815990D02*
X161797619Y-91958847D01*
X161797619Y-91958847D02*
X161750000Y-92149323D01*
X161750000Y-92149323D02*
X161702381Y-92244561D01*
X161702381Y-92244561D02*
X161607143Y-92339800D01*
X161607143Y-92339800D02*
X161464286Y-92387419D01*
X161464286Y-92387419D02*
X161226191Y-92387419D01*
X162750000Y-92387419D02*
X162178572Y-92387419D01*
X162464286Y-92387419D02*
X162464286Y-91387419D01*
X162464286Y-91387419D02*
X162369048Y-91530276D01*
X162369048Y-91530276D02*
X162273810Y-91625514D01*
X162273810Y-91625514D02*
X162178572Y-91673133D01*
X163607143Y-91387419D02*
X163416667Y-91387419D01*
X163416667Y-91387419D02*
X163321429Y-91435038D01*
X163321429Y-91435038D02*
X163273810Y-91482657D01*
X163273810Y-91482657D02*
X163178572Y-91625514D01*
X163178572Y-91625514D02*
X163130953Y-91815990D01*
X163130953Y-91815990D02*
X163130953Y-92196942D01*
X163130953Y-92196942D02*
X163178572Y-92292180D01*
X163178572Y-92292180D02*
X163226191Y-92339800D01*
X163226191Y-92339800D02*
X163321429Y-92387419D01*
X163321429Y-92387419D02*
X163511905Y-92387419D01*
X163511905Y-92387419D02*
X163607143Y-92339800D01*
X163607143Y-92339800D02*
X163654762Y-92292180D01*
X163654762Y-92292180D02*
X163702381Y-92196942D01*
X163702381Y-92196942D02*
X163702381Y-91958847D01*
X163702381Y-91958847D02*
X163654762Y-91863609D01*
X163654762Y-91863609D02*
X163607143Y-91815990D01*
X163607143Y-91815990D02*
X163511905Y-91768371D01*
X163511905Y-91768371D02*
X163321429Y-91768371D01*
X163321429Y-91768371D02*
X163226191Y-91815990D01*
X163226191Y-91815990D02*
X163178572Y-91863609D01*
X163178572Y-91863609D02*
X163130953Y-91958847D01*
X34126609Y-62057004D02*
X34602799Y-62057004D01*
X34031371Y-62342719D02*
X34364704Y-61342719D01*
X34364704Y-61342719D02*
X34698037Y-62342719D01*
X35031371Y-62342719D02*
X35031371Y-61342719D01*
X35031371Y-61342719D02*
X35364704Y-62057004D01*
X35364704Y-62057004D02*
X35698037Y-61342719D01*
X35698037Y-61342719D02*
X35698037Y-62342719D01*
X36507561Y-61818909D02*
X36650418Y-61866528D01*
X36650418Y-61866528D02*
X36698037Y-61914147D01*
X36698037Y-61914147D02*
X36745656Y-62009385D01*
X36745656Y-62009385D02*
X36745656Y-62152242D01*
X36745656Y-62152242D02*
X36698037Y-62247480D01*
X36698037Y-62247480D02*
X36650418Y-62295100D01*
X36650418Y-62295100D02*
X36555180Y-62342719D01*
X36555180Y-62342719D02*
X36174228Y-62342719D01*
X36174228Y-62342719D02*
X36174228Y-61342719D01*
X36174228Y-61342719D02*
X36507561Y-61342719D01*
X36507561Y-61342719D02*
X36602799Y-61390338D01*
X36602799Y-61390338D02*
X36650418Y-61437957D01*
X36650418Y-61437957D02*
X36698037Y-61533195D01*
X36698037Y-61533195D02*
X36698037Y-61628433D01*
X36698037Y-61628433D02*
X36650418Y-61723671D01*
X36650418Y-61723671D02*
X36602799Y-61771290D01*
X36602799Y-61771290D02*
X36507561Y-61818909D01*
X36507561Y-61818909D02*
X36174228Y-61818909D01*
X37174228Y-61818909D02*
X37507561Y-61818909D01*
X37650418Y-62342719D02*
X37174228Y-62342719D01*
X37174228Y-62342719D02*
X37174228Y-61342719D01*
X37174228Y-61342719D02*
X37650418Y-61342719D01*
X38650418Y-62342719D02*
X38317085Y-61866528D01*
X38078990Y-62342719D02*
X38078990Y-61342719D01*
X38078990Y-61342719D02*
X38459942Y-61342719D01*
X38459942Y-61342719D02*
X38555180Y-61390338D01*
X38555180Y-61390338D02*
X38602799Y-61437957D01*
X38602799Y-61437957D02*
X38650418Y-61533195D01*
X38650418Y-61533195D02*
X38650418Y-61676052D01*
X38650418Y-61676052D02*
X38602799Y-61771290D01*
X38602799Y-61771290D02*
X38555180Y-61818909D01*
X38555180Y-61818909D02*
X38459942Y-61866528D01*
X38459942Y-61866528D02*
X38078990Y-61866528D01*
X38840895Y-62437957D02*
X39602799Y-62437957D01*
X40317085Y-62342719D02*
X39840895Y-62342719D01*
X39840895Y-62342719D02*
X39840895Y-61342719D01*
X40650419Y-61818909D02*
X40983752Y-61818909D01*
X41126609Y-62342719D02*
X40650419Y-62342719D01*
X40650419Y-62342719D02*
X40650419Y-61342719D01*
X40650419Y-61342719D02*
X41126609Y-61342719D01*
X41555181Y-62342719D02*
X41555181Y-61342719D01*
X41555181Y-61342719D02*
X41793276Y-61342719D01*
X41793276Y-61342719D02*
X41936133Y-61390338D01*
X41936133Y-61390338D02*
X42031371Y-61485576D01*
X42031371Y-61485576D02*
X42078990Y-61580814D01*
X42078990Y-61580814D02*
X42126609Y-61771290D01*
X42126609Y-61771290D02*
X42126609Y-61914147D01*
X42126609Y-61914147D02*
X42078990Y-62104623D01*
X42078990Y-62104623D02*
X42031371Y-62199861D01*
X42031371Y-62199861D02*
X41936133Y-62295100D01*
X41936133Y-62295100D02*
X41793276Y-62342719D01*
X41793276Y-62342719D02*
X41555181Y-62342719D01*
X42459943Y-61342719D02*
X43126609Y-61342719D01*
X43126609Y-61342719D02*
X42698038Y-62342719D01*
X37479119Y-149240205D02*
X37955309Y-149240205D01*
X37383881Y-149525920D02*
X37717214Y-148525920D01*
X37717214Y-148525920D02*
X38050547Y-149525920D01*
X38383881Y-149525920D02*
X38383881Y-148525920D01*
X38383881Y-148525920D02*
X38717214Y-149240205D01*
X38717214Y-149240205D02*
X39050547Y-148525920D01*
X39050547Y-148525920D02*
X39050547Y-149525920D01*
X39860071Y-149002110D02*
X40002928Y-149049729D01*
X40002928Y-149049729D02*
X40050547Y-149097348D01*
X40050547Y-149097348D02*
X40098166Y-149192586D01*
X40098166Y-149192586D02*
X40098166Y-149335443D01*
X40098166Y-149335443D02*
X40050547Y-149430681D01*
X40050547Y-149430681D02*
X40002928Y-149478301D01*
X40002928Y-149478301D02*
X39907690Y-149525920D01*
X39907690Y-149525920D02*
X39526738Y-149525920D01*
X39526738Y-149525920D02*
X39526738Y-148525920D01*
X39526738Y-148525920D02*
X39860071Y-148525920D01*
X39860071Y-148525920D02*
X39955309Y-148573539D01*
X39955309Y-148573539D02*
X40002928Y-148621158D01*
X40002928Y-148621158D02*
X40050547Y-148716396D01*
X40050547Y-148716396D02*
X40050547Y-148811634D01*
X40050547Y-148811634D02*
X40002928Y-148906872D01*
X40002928Y-148906872D02*
X39955309Y-148954491D01*
X39955309Y-148954491D02*
X39860071Y-149002110D01*
X39860071Y-149002110D02*
X39526738Y-149002110D01*
X40526738Y-149002110D02*
X40860071Y-149002110D01*
X41002928Y-149525920D02*
X40526738Y-149525920D01*
X40526738Y-149525920D02*
X40526738Y-148525920D01*
X40526738Y-148525920D02*
X41002928Y-148525920D01*
X42002928Y-149525920D02*
X41669595Y-149049729D01*
X41431500Y-149525920D02*
X41431500Y-148525920D01*
X41431500Y-148525920D02*
X41812452Y-148525920D01*
X41812452Y-148525920D02*
X41907690Y-148573539D01*
X41907690Y-148573539D02*
X41955309Y-148621158D01*
X41955309Y-148621158D02*
X42002928Y-148716396D01*
X42002928Y-148716396D02*
X42002928Y-148859253D01*
X42002928Y-148859253D02*
X41955309Y-148954491D01*
X41955309Y-148954491D02*
X41907690Y-149002110D01*
X41907690Y-149002110D02*
X41812452Y-149049729D01*
X41812452Y-149049729D02*
X41431500Y-149049729D01*
X42193405Y-149621158D02*
X42955309Y-149621158D01*
X43669595Y-149525920D02*
X43193405Y-149525920D01*
X43193405Y-149525920D02*
X43193405Y-148525920D01*
X44002929Y-149002110D02*
X44336262Y-149002110D01*
X44479119Y-149525920D02*
X44002929Y-149525920D01*
X44002929Y-149525920D02*
X44002929Y-148525920D01*
X44002929Y-148525920D02*
X44479119Y-148525920D01*
X44907691Y-149525920D02*
X44907691Y-148525920D01*
X44907691Y-148525920D02*
X45145786Y-148525920D01*
X45145786Y-148525920D02*
X45288643Y-148573539D01*
X45288643Y-148573539D02*
X45383881Y-148668777D01*
X45383881Y-148668777D02*
X45431500Y-148764015D01*
X45431500Y-148764015D02*
X45479119Y-148954491D01*
X45479119Y-148954491D02*
X45479119Y-149097348D01*
X45479119Y-149097348D02*
X45431500Y-149287824D01*
X45431500Y-149287824D02*
X45383881Y-149383062D01*
X45383881Y-149383062D02*
X45288643Y-149478301D01*
X45288643Y-149478301D02*
X45145786Y-149525920D01*
X45145786Y-149525920D02*
X44907691Y-149525920D01*
X46431500Y-149525920D02*
X45860072Y-149525920D01*
X46145786Y-149525920D02*
X46145786Y-148525920D01*
X46145786Y-148525920D02*
X46050548Y-148668777D01*
X46050548Y-148668777D02*
X45955310Y-148764015D01*
X45955310Y-148764015D02*
X45860072Y-148811634D01*
X47050548Y-148525920D02*
X47145786Y-148525920D01*
X47145786Y-148525920D02*
X47241024Y-148573539D01*
X47241024Y-148573539D02*
X47288643Y-148621158D01*
X47288643Y-148621158D02*
X47336262Y-148716396D01*
X47336262Y-148716396D02*
X47383881Y-148906872D01*
X47383881Y-148906872D02*
X47383881Y-149144967D01*
X47383881Y-149144967D02*
X47336262Y-149335443D01*
X47336262Y-149335443D02*
X47288643Y-149430681D01*
X47288643Y-149430681D02*
X47241024Y-149478301D01*
X47241024Y-149478301D02*
X47145786Y-149525920D01*
X47145786Y-149525920D02*
X47050548Y-149525920D01*
X47050548Y-149525920D02*
X46955310Y-149478301D01*
X46955310Y-149478301D02*
X46907691Y-149430681D01*
X46907691Y-149430681D02*
X46860072Y-149335443D01*
X46860072Y-149335443D02*
X46812453Y-149144967D01*
X46812453Y-149144967D02*
X46812453Y-148906872D01*
X46812453Y-148906872D02*
X46860072Y-148716396D01*
X46860072Y-148716396D02*
X46907691Y-148621158D01*
X46907691Y-148621158D02*
X46955310Y-148573539D01*
X46955310Y-148573539D02*
X47050548Y-148525920D01*
X59322580Y-138901905D02*
X58513057Y-138901905D01*
X58513057Y-138901905D02*
X58417819Y-138949524D01*
X58417819Y-138949524D02*
X58370200Y-138997143D01*
X58370200Y-138997143D02*
X58322580Y-139092381D01*
X58322580Y-139092381D02*
X58322580Y-139282857D01*
X58322580Y-139282857D02*
X58370200Y-139378095D01*
X58370200Y-139378095D02*
X58417819Y-139425714D01*
X58417819Y-139425714D02*
X58513057Y-139473333D01*
X58513057Y-139473333D02*
X59322580Y-139473333D01*
X59227342Y-139901905D02*
X59274961Y-139949524D01*
X59274961Y-139949524D02*
X59322580Y-140044762D01*
X59322580Y-140044762D02*
X59322580Y-140282857D01*
X59322580Y-140282857D02*
X59274961Y-140378095D01*
X59274961Y-140378095D02*
X59227342Y-140425714D01*
X59227342Y-140425714D02*
X59132104Y-140473333D01*
X59132104Y-140473333D02*
X59036866Y-140473333D01*
X59036866Y-140473333D02*
X58894009Y-140425714D01*
X58894009Y-140425714D02*
X58322580Y-139854286D01*
X58322580Y-139854286D02*
X58322580Y-140473333D01*
X59322580Y-141330476D02*
X59322580Y-141140000D01*
X59322580Y-141140000D02*
X59274961Y-141044762D01*
X59274961Y-141044762D02*
X59227342Y-140997143D01*
X59227342Y-140997143D02*
X59084485Y-140901905D01*
X59084485Y-140901905D02*
X58894009Y-140854286D01*
X58894009Y-140854286D02*
X58513057Y-140854286D01*
X58513057Y-140854286D02*
X58417819Y-140901905D01*
X58417819Y-140901905D02*
X58370200Y-140949524D01*
X58370200Y-140949524D02*
X58322580Y-141044762D01*
X58322580Y-141044762D02*
X58322580Y-141235238D01*
X58322580Y-141235238D02*
X58370200Y-141330476D01*
X58370200Y-141330476D02*
X58417819Y-141378095D01*
X58417819Y-141378095D02*
X58513057Y-141425714D01*
X58513057Y-141425714D02*
X58751152Y-141425714D01*
X58751152Y-141425714D02*
X58846390Y-141378095D01*
X58846390Y-141378095D02*
X58894009Y-141330476D01*
X58894009Y-141330476D02*
X58941628Y-141235238D01*
X58941628Y-141235238D02*
X58941628Y-141044762D01*
X58941628Y-141044762D02*
X58894009Y-140949524D01*
X58894009Y-140949524D02*
X58846390Y-140901905D01*
X58846390Y-140901905D02*
X58751152Y-140854286D01*
D11*
X148678475Y-118654318D02*
X148678475Y-117384318D01*
X150008952Y-118533365D02*
X149948476Y-118593842D01*
X149948476Y-118593842D02*
X149767047Y-118654318D01*
X149767047Y-118654318D02*
X149646095Y-118654318D01*
X149646095Y-118654318D02*
X149464666Y-118593842D01*
X149464666Y-118593842D02*
X149343714Y-118472889D01*
X149343714Y-118472889D02*
X149283237Y-118351937D01*
X149283237Y-118351937D02*
X149222761Y-118110032D01*
X149222761Y-118110032D02*
X149222761Y-117928603D01*
X149222761Y-117928603D02*
X149283237Y-117686699D01*
X149283237Y-117686699D02*
X149343714Y-117565746D01*
X149343714Y-117565746D02*
X149464666Y-117444794D01*
X149464666Y-117444794D02*
X149646095Y-117384318D01*
X149646095Y-117384318D02*
X149767047Y-117384318D01*
X149767047Y-117384318D02*
X149948476Y-117444794D01*
X149948476Y-117444794D02*
X150008952Y-117505270D01*
X151218476Y-118654318D02*
X150492761Y-118654318D01*
X150855618Y-118654318D02*
X150855618Y-117384318D01*
X150855618Y-117384318D02*
X150734666Y-117565746D01*
X150734666Y-117565746D02*
X150613714Y-117686699D01*
X150613714Y-117686699D02*
X150492761Y-117747175D01*
X152367523Y-117384318D02*
X151762761Y-117384318D01*
X151762761Y-117384318D02*
X151702285Y-117989080D01*
X151702285Y-117989080D02*
X151762761Y-117928603D01*
X151762761Y-117928603D02*
X151883714Y-117868127D01*
X151883714Y-117868127D02*
X152186095Y-117868127D01*
X152186095Y-117868127D02*
X152307047Y-117928603D01*
X152307047Y-117928603D02*
X152367523Y-117989080D01*
X152367523Y-117989080D02*
X152428000Y-118110032D01*
X152428000Y-118110032D02*
X152428000Y-118412413D01*
X152428000Y-118412413D02*
X152367523Y-118533365D01*
X152367523Y-118533365D02*
X152307047Y-118593842D01*
X152307047Y-118593842D02*
X152186095Y-118654318D01*
X152186095Y-118654318D02*
X151883714Y-118654318D01*
X151883714Y-118654318D02*
X151762761Y-118593842D01*
X151762761Y-118593842D02*
X151702285Y-118533365D01*
X46154437Y-42205518D02*
X46154437Y-40935518D01*
X47484914Y-42084565D02*
X47424438Y-42145042D01*
X47424438Y-42145042D02*
X47243009Y-42205518D01*
X47243009Y-42205518D02*
X47122057Y-42205518D01*
X47122057Y-42205518D02*
X46940628Y-42145042D01*
X46940628Y-42145042D02*
X46819676Y-42024089D01*
X46819676Y-42024089D02*
X46759199Y-41903137D01*
X46759199Y-41903137D02*
X46698723Y-41661232D01*
X46698723Y-41661232D02*
X46698723Y-41479803D01*
X46698723Y-41479803D02*
X46759199Y-41237899D01*
X46759199Y-41237899D02*
X46819676Y-41116946D01*
X46819676Y-41116946D02*
X46940628Y-40995994D01*
X46940628Y-40995994D02*
X47122057Y-40935518D01*
X47122057Y-40935518D02*
X47243009Y-40935518D01*
X47243009Y-40935518D02*
X47424438Y-40995994D01*
X47424438Y-40995994D02*
X47484914Y-41056470D01*
X48573485Y-40935518D02*
X48331580Y-40935518D01*
X48331580Y-40935518D02*
X48210628Y-40995994D01*
X48210628Y-40995994D02*
X48150152Y-41056470D01*
X48150152Y-41056470D02*
X48029199Y-41237899D01*
X48029199Y-41237899D02*
X47968723Y-41479803D01*
X47968723Y-41479803D02*
X47968723Y-41963613D01*
X47968723Y-41963613D02*
X48029199Y-42084565D01*
X48029199Y-42084565D02*
X48089676Y-42145042D01*
X48089676Y-42145042D02*
X48210628Y-42205518D01*
X48210628Y-42205518D02*
X48452533Y-42205518D01*
X48452533Y-42205518D02*
X48573485Y-42145042D01*
X48573485Y-42145042D02*
X48633961Y-42084565D01*
X48633961Y-42084565D02*
X48694438Y-41963613D01*
X48694438Y-41963613D02*
X48694438Y-41661232D01*
X48694438Y-41661232D02*
X48633961Y-41540280D01*
X48633961Y-41540280D02*
X48573485Y-41479803D01*
X48573485Y-41479803D02*
X48452533Y-41419327D01*
X48452533Y-41419327D02*
X48210628Y-41419327D01*
X48210628Y-41419327D02*
X48089676Y-41479803D01*
X48089676Y-41479803D02*
X48029199Y-41540280D01*
X48029199Y-41540280D02*
X47968723Y-41661232D01*
D10*
X37558095Y-67677419D02*
X37558095Y-68486942D01*
X37558095Y-68486942D02*
X37605714Y-68582180D01*
X37605714Y-68582180D02*
X37653333Y-68629800D01*
X37653333Y-68629800D02*
X37748571Y-68677419D01*
X37748571Y-68677419D02*
X37939047Y-68677419D01*
X37939047Y-68677419D02*
X38034285Y-68629800D01*
X38034285Y-68629800D02*
X38081904Y-68582180D01*
X38081904Y-68582180D02*
X38129523Y-68486942D01*
X38129523Y-68486942D02*
X38129523Y-67677419D01*
X38510476Y-67677419D02*
X39177142Y-67677419D01*
X39177142Y-67677419D02*
X38748571Y-68677419D01*
X141237419Y-45418094D02*
X142046942Y-45418094D01*
X142046942Y-45418094D02*
X142142180Y-45370475D01*
X142142180Y-45370475D02*
X142189800Y-45322856D01*
X142189800Y-45322856D02*
X142237419Y-45227618D01*
X142237419Y-45227618D02*
X142237419Y-45037142D01*
X142237419Y-45037142D02*
X142189800Y-44941904D01*
X142189800Y-44941904D02*
X142142180Y-44894285D01*
X142142180Y-44894285D02*
X142046942Y-44846666D01*
X142046942Y-44846666D02*
X141237419Y-44846666D01*
X142237419Y-43846666D02*
X142237419Y-44418094D01*
X142237419Y-44132380D02*
X141237419Y-44132380D01*
X141237419Y-44132380D02*
X141380276Y-44227618D01*
X141380276Y-44227618D02*
X141475514Y-44322856D01*
X141475514Y-44322856D02*
X141523133Y-44418094D01*
X141665990Y-43275237D02*
X141618371Y-43370475D01*
X141618371Y-43370475D02*
X141570752Y-43418094D01*
X141570752Y-43418094D02*
X141475514Y-43465713D01*
X141475514Y-43465713D02*
X141427895Y-43465713D01*
X141427895Y-43465713D02*
X141332657Y-43418094D01*
X141332657Y-43418094D02*
X141285038Y-43370475D01*
X141285038Y-43370475D02*
X141237419Y-43275237D01*
X141237419Y-43275237D02*
X141237419Y-43084761D01*
X141237419Y-43084761D02*
X141285038Y-42989523D01*
X141285038Y-42989523D02*
X141332657Y-42941904D01*
X141332657Y-42941904D02*
X141427895Y-42894285D01*
X141427895Y-42894285D02*
X141475514Y-42894285D01*
X141475514Y-42894285D02*
X141570752Y-42941904D01*
X141570752Y-42941904D02*
X141618371Y-42989523D01*
X141618371Y-42989523D02*
X141665990Y-43084761D01*
X141665990Y-43084761D02*
X141665990Y-43275237D01*
X141665990Y-43275237D02*
X141713609Y-43370475D01*
X141713609Y-43370475D02*
X141761228Y-43418094D01*
X141761228Y-43418094D02*
X141856466Y-43465713D01*
X141856466Y-43465713D02*
X142046942Y-43465713D01*
X142046942Y-43465713D02*
X142142180Y-43418094D01*
X142142180Y-43418094D02*
X142189800Y-43370475D01*
X142189800Y-43370475D02*
X142237419Y-43275237D01*
X142237419Y-43275237D02*
X142237419Y-43084761D01*
X142237419Y-43084761D02*
X142189800Y-42989523D01*
X142189800Y-42989523D02*
X142142180Y-42941904D01*
X142142180Y-42941904D02*
X142046942Y-42894285D01*
X142046942Y-42894285D02*
X141856466Y-42894285D01*
X141856466Y-42894285D02*
X141761228Y-42941904D01*
X141761228Y-42941904D02*
X141713609Y-42989523D01*
X141713609Y-42989523D02*
X141665990Y-43084761D01*
X138062580Y-138681905D02*
X137253057Y-138681905D01*
X137253057Y-138681905D02*
X137157819Y-138729524D01*
X137157819Y-138729524D02*
X137110200Y-138777143D01*
X137110200Y-138777143D02*
X137062580Y-138872381D01*
X137062580Y-138872381D02*
X137062580Y-139062857D01*
X137062580Y-139062857D02*
X137110200Y-139158095D01*
X137110200Y-139158095D02*
X137157819Y-139205714D01*
X137157819Y-139205714D02*
X137253057Y-139253333D01*
X137253057Y-139253333D02*
X138062580Y-139253333D01*
X137062580Y-140253333D02*
X137062580Y-139681905D01*
X137062580Y-139967619D02*
X138062580Y-139967619D01*
X138062580Y-139967619D02*
X137919723Y-139872381D01*
X137919723Y-139872381D02*
X137824485Y-139777143D01*
X137824485Y-139777143D02*
X137776866Y-139681905D01*
X138062580Y-140586667D02*
X138062580Y-141205714D01*
X138062580Y-141205714D02*
X137681628Y-140872381D01*
X137681628Y-140872381D02*
X137681628Y-141015238D01*
X137681628Y-141015238D02*
X137634009Y-141110476D01*
X137634009Y-141110476D02*
X137586390Y-141158095D01*
X137586390Y-141158095D02*
X137491152Y-141205714D01*
X137491152Y-141205714D02*
X137253057Y-141205714D01*
X137253057Y-141205714D02*
X137157819Y-141158095D01*
X137157819Y-141158095D02*
X137110200Y-141110476D01*
X137110200Y-141110476D02*
X137062580Y-141015238D01*
X137062580Y-141015238D02*
X137062580Y-140729524D01*
X137062580Y-140729524D02*
X137110200Y-140634286D01*
X137110200Y-140634286D02*
X137157819Y-140586667D01*
X94047619Y-153001704D02*
X94523809Y-153001704D01*
X93952381Y-153287419D02*
X94285714Y-152287419D01*
X94285714Y-152287419D02*
X94619047Y-153287419D01*
X94952381Y-153287419D02*
X94952381Y-152287419D01*
X94952381Y-152287419D02*
X95285714Y-153001704D01*
X95285714Y-153001704D02*
X95619047Y-152287419D01*
X95619047Y-152287419D02*
X95619047Y-153287419D01*
X96428571Y-152763609D02*
X96571428Y-152811228D01*
X96571428Y-152811228D02*
X96619047Y-152858847D01*
X96619047Y-152858847D02*
X96666666Y-152954085D01*
X96666666Y-152954085D02*
X96666666Y-153096942D01*
X96666666Y-153096942D02*
X96619047Y-153192180D01*
X96619047Y-153192180D02*
X96571428Y-153239800D01*
X96571428Y-153239800D02*
X96476190Y-153287419D01*
X96476190Y-153287419D02*
X96095238Y-153287419D01*
X96095238Y-153287419D02*
X96095238Y-152287419D01*
X96095238Y-152287419D02*
X96428571Y-152287419D01*
X96428571Y-152287419D02*
X96523809Y-152335038D01*
X96523809Y-152335038D02*
X96571428Y-152382657D01*
X96571428Y-152382657D02*
X96619047Y-152477895D01*
X96619047Y-152477895D02*
X96619047Y-152573133D01*
X96619047Y-152573133D02*
X96571428Y-152668371D01*
X96571428Y-152668371D02*
X96523809Y-152715990D01*
X96523809Y-152715990D02*
X96428571Y-152763609D01*
X96428571Y-152763609D02*
X96095238Y-152763609D01*
X97095238Y-152763609D02*
X97428571Y-152763609D01*
X97571428Y-153287419D02*
X97095238Y-153287419D01*
X97095238Y-153287419D02*
X97095238Y-152287419D01*
X97095238Y-152287419D02*
X97571428Y-152287419D01*
X98571428Y-153287419D02*
X98238095Y-152811228D01*
X98000000Y-153287419D02*
X98000000Y-152287419D01*
X98000000Y-152287419D02*
X98380952Y-152287419D01*
X98380952Y-152287419D02*
X98476190Y-152335038D01*
X98476190Y-152335038D02*
X98523809Y-152382657D01*
X98523809Y-152382657D02*
X98571428Y-152477895D01*
X98571428Y-152477895D02*
X98571428Y-152620752D01*
X98571428Y-152620752D02*
X98523809Y-152715990D01*
X98523809Y-152715990D02*
X98476190Y-152763609D01*
X98476190Y-152763609D02*
X98380952Y-152811228D01*
X98380952Y-152811228D02*
X98000000Y-152811228D01*
X98761905Y-153382657D02*
X99523809Y-153382657D01*
X100238095Y-153287419D02*
X99761905Y-153287419D01*
X99761905Y-153287419D02*
X99761905Y-152287419D01*
X100571429Y-152763609D02*
X100904762Y-152763609D01*
X101047619Y-153287419D02*
X100571429Y-153287419D01*
X100571429Y-153287419D02*
X100571429Y-152287419D01*
X100571429Y-152287419D02*
X101047619Y-152287419D01*
X101476191Y-153287419D02*
X101476191Y-152287419D01*
X101476191Y-152287419D02*
X101714286Y-152287419D01*
X101714286Y-152287419D02*
X101857143Y-152335038D01*
X101857143Y-152335038D02*
X101952381Y-152430276D01*
X101952381Y-152430276D02*
X102000000Y-152525514D01*
X102000000Y-152525514D02*
X102047619Y-152715990D01*
X102047619Y-152715990D02*
X102047619Y-152858847D01*
X102047619Y-152858847D02*
X102000000Y-153049323D01*
X102000000Y-153049323D02*
X101952381Y-153144561D01*
X101952381Y-153144561D02*
X101857143Y-153239800D01*
X101857143Y-153239800D02*
X101714286Y-153287419D01*
X101714286Y-153287419D02*
X101476191Y-153287419D01*
X103000000Y-153287419D02*
X102428572Y-153287419D01*
X102714286Y-153287419D02*
X102714286Y-152287419D01*
X102714286Y-152287419D02*
X102619048Y-152430276D01*
X102619048Y-152430276D02*
X102523810Y-152525514D01*
X102523810Y-152525514D02*
X102428572Y-152573133D01*
X103380953Y-152382657D02*
X103428572Y-152335038D01*
X103428572Y-152335038D02*
X103523810Y-152287419D01*
X103523810Y-152287419D02*
X103761905Y-152287419D01*
X103761905Y-152287419D02*
X103857143Y-152335038D01*
X103857143Y-152335038D02*
X103904762Y-152382657D01*
X103904762Y-152382657D02*
X103952381Y-152477895D01*
X103952381Y-152477895D02*
X103952381Y-152573133D01*
X103952381Y-152573133D02*
X103904762Y-152715990D01*
X103904762Y-152715990D02*
X103333334Y-153287419D01*
X103333334Y-153287419D02*
X103952381Y-153287419D01*
X49897419Y-46738094D02*
X50706942Y-46738094D01*
X50706942Y-46738094D02*
X50802180Y-46690475D01*
X50802180Y-46690475D02*
X50849800Y-46642856D01*
X50849800Y-46642856D02*
X50897419Y-46547618D01*
X50897419Y-46547618D02*
X50897419Y-46357142D01*
X50897419Y-46357142D02*
X50849800Y-46261904D01*
X50849800Y-46261904D02*
X50802180Y-46214285D01*
X50802180Y-46214285D02*
X50706942Y-46166666D01*
X50706942Y-46166666D02*
X49897419Y-46166666D01*
X49992657Y-45738094D02*
X49945038Y-45690475D01*
X49945038Y-45690475D02*
X49897419Y-45595237D01*
X49897419Y-45595237D02*
X49897419Y-45357142D01*
X49897419Y-45357142D02*
X49945038Y-45261904D01*
X49945038Y-45261904D02*
X49992657Y-45214285D01*
X49992657Y-45214285D02*
X50087895Y-45166666D01*
X50087895Y-45166666D02*
X50183133Y-45166666D01*
X50183133Y-45166666D02*
X50325990Y-45214285D01*
X50325990Y-45214285D02*
X50897419Y-45785713D01*
X50897419Y-45785713D02*
X50897419Y-45166666D01*
X49992657Y-44785713D02*
X49945038Y-44738094D01*
X49945038Y-44738094D02*
X49897419Y-44642856D01*
X49897419Y-44642856D02*
X49897419Y-44404761D01*
X49897419Y-44404761D02*
X49945038Y-44309523D01*
X49945038Y-44309523D02*
X49992657Y-44261904D01*
X49992657Y-44261904D02*
X50087895Y-44214285D01*
X50087895Y-44214285D02*
X50183133Y-44214285D01*
X50183133Y-44214285D02*
X50325990Y-44261904D01*
X50325990Y-44261904D02*
X50897419Y-44833332D01*
X50897419Y-44833332D02*
X50897419Y-44214285D01*
X63965009Y-31304504D02*
X64441199Y-31304504D01*
X63869771Y-31590219D02*
X64203104Y-30590219D01*
X64203104Y-30590219D02*
X64536437Y-31590219D01*
X64869771Y-31590219D02*
X64869771Y-30590219D01*
X64869771Y-30590219D02*
X65203104Y-31304504D01*
X65203104Y-31304504D02*
X65536437Y-30590219D01*
X65536437Y-30590219D02*
X65536437Y-31590219D01*
X66345961Y-31066409D02*
X66488818Y-31114028D01*
X66488818Y-31114028D02*
X66536437Y-31161647D01*
X66536437Y-31161647D02*
X66584056Y-31256885D01*
X66584056Y-31256885D02*
X66584056Y-31399742D01*
X66584056Y-31399742D02*
X66536437Y-31494980D01*
X66536437Y-31494980D02*
X66488818Y-31542600D01*
X66488818Y-31542600D02*
X66393580Y-31590219D01*
X66393580Y-31590219D02*
X66012628Y-31590219D01*
X66012628Y-31590219D02*
X66012628Y-30590219D01*
X66012628Y-30590219D02*
X66345961Y-30590219D01*
X66345961Y-30590219D02*
X66441199Y-30637838D01*
X66441199Y-30637838D02*
X66488818Y-30685457D01*
X66488818Y-30685457D02*
X66536437Y-30780695D01*
X66536437Y-30780695D02*
X66536437Y-30875933D01*
X66536437Y-30875933D02*
X66488818Y-30971171D01*
X66488818Y-30971171D02*
X66441199Y-31018790D01*
X66441199Y-31018790D02*
X66345961Y-31066409D01*
X66345961Y-31066409D02*
X66012628Y-31066409D01*
X67012628Y-31066409D02*
X67345961Y-31066409D01*
X67488818Y-31590219D02*
X67012628Y-31590219D01*
X67012628Y-31590219D02*
X67012628Y-30590219D01*
X67012628Y-30590219D02*
X67488818Y-30590219D01*
X68488818Y-31590219D02*
X68155485Y-31114028D01*
X67917390Y-31590219D02*
X67917390Y-30590219D01*
X67917390Y-30590219D02*
X68298342Y-30590219D01*
X68298342Y-30590219D02*
X68393580Y-30637838D01*
X68393580Y-30637838D02*
X68441199Y-30685457D01*
X68441199Y-30685457D02*
X68488818Y-30780695D01*
X68488818Y-30780695D02*
X68488818Y-30923552D01*
X68488818Y-30923552D02*
X68441199Y-31018790D01*
X68441199Y-31018790D02*
X68393580Y-31066409D01*
X68393580Y-31066409D02*
X68298342Y-31114028D01*
X68298342Y-31114028D02*
X67917390Y-31114028D01*
X68679295Y-31685457D02*
X69441199Y-31685457D01*
X70155485Y-31590219D02*
X69679295Y-31590219D01*
X69679295Y-31590219D02*
X69679295Y-30590219D01*
X70488819Y-31066409D02*
X70822152Y-31066409D01*
X70965009Y-31590219D02*
X70488819Y-31590219D01*
X70488819Y-31590219D02*
X70488819Y-30590219D01*
X70488819Y-30590219D02*
X70965009Y-30590219D01*
X71393581Y-31590219D02*
X71393581Y-30590219D01*
X71393581Y-30590219D02*
X71631676Y-30590219D01*
X71631676Y-30590219D02*
X71774533Y-30637838D01*
X71774533Y-30637838D02*
X71869771Y-30733076D01*
X71869771Y-30733076D02*
X71917390Y-30828314D01*
X71917390Y-30828314D02*
X71965009Y-31018790D01*
X71965009Y-31018790D02*
X71965009Y-31161647D01*
X71965009Y-31161647D02*
X71917390Y-31352123D01*
X71917390Y-31352123D02*
X71869771Y-31447361D01*
X71869771Y-31447361D02*
X71774533Y-31542600D01*
X71774533Y-31542600D02*
X71631676Y-31590219D01*
X71631676Y-31590219D02*
X71393581Y-31590219D01*
X72869771Y-30590219D02*
X72393581Y-30590219D01*
X72393581Y-30590219D02*
X72345962Y-31066409D01*
X72345962Y-31066409D02*
X72393581Y-31018790D01*
X72393581Y-31018790D02*
X72488819Y-30971171D01*
X72488819Y-30971171D02*
X72726914Y-30971171D01*
X72726914Y-30971171D02*
X72822152Y-31018790D01*
X72822152Y-31018790D02*
X72869771Y-31066409D01*
X72869771Y-31066409D02*
X72917390Y-31161647D01*
X72917390Y-31161647D02*
X72917390Y-31399742D01*
X72917390Y-31399742D02*
X72869771Y-31494980D01*
X72869771Y-31494980D02*
X72822152Y-31542600D01*
X72822152Y-31542600D02*
X72726914Y-31590219D01*
X72726914Y-31590219D02*
X72488819Y-31590219D01*
X72488819Y-31590219D02*
X72393581Y-31542600D01*
X72393581Y-31542600D02*
X72345962Y-31494980D01*
X34126609Y-122720504D02*
X34602799Y-122720504D01*
X34031371Y-123006219D02*
X34364704Y-122006219D01*
X34364704Y-122006219D02*
X34698037Y-123006219D01*
X35031371Y-123006219D02*
X35031371Y-122006219D01*
X35031371Y-122006219D02*
X35364704Y-122720504D01*
X35364704Y-122720504D02*
X35698037Y-122006219D01*
X35698037Y-122006219D02*
X35698037Y-123006219D01*
X36507561Y-122482409D02*
X36650418Y-122530028D01*
X36650418Y-122530028D02*
X36698037Y-122577647D01*
X36698037Y-122577647D02*
X36745656Y-122672885D01*
X36745656Y-122672885D02*
X36745656Y-122815742D01*
X36745656Y-122815742D02*
X36698037Y-122910980D01*
X36698037Y-122910980D02*
X36650418Y-122958600D01*
X36650418Y-122958600D02*
X36555180Y-123006219D01*
X36555180Y-123006219D02*
X36174228Y-123006219D01*
X36174228Y-123006219D02*
X36174228Y-122006219D01*
X36174228Y-122006219D02*
X36507561Y-122006219D01*
X36507561Y-122006219D02*
X36602799Y-122053838D01*
X36602799Y-122053838D02*
X36650418Y-122101457D01*
X36650418Y-122101457D02*
X36698037Y-122196695D01*
X36698037Y-122196695D02*
X36698037Y-122291933D01*
X36698037Y-122291933D02*
X36650418Y-122387171D01*
X36650418Y-122387171D02*
X36602799Y-122434790D01*
X36602799Y-122434790D02*
X36507561Y-122482409D01*
X36507561Y-122482409D02*
X36174228Y-122482409D01*
X37174228Y-122482409D02*
X37507561Y-122482409D01*
X37650418Y-123006219D02*
X37174228Y-123006219D01*
X37174228Y-123006219D02*
X37174228Y-122006219D01*
X37174228Y-122006219D02*
X37650418Y-122006219D01*
X38650418Y-123006219D02*
X38317085Y-122530028D01*
X38078990Y-123006219D02*
X38078990Y-122006219D01*
X38078990Y-122006219D02*
X38459942Y-122006219D01*
X38459942Y-122006219D02*
X38555180Y-122053838D01*
X38555180Y-122053838D02*
X38602799Y-122101457D01*
X38602799Y-122101457D02*
X38650418Y-122196695D01*
X38650418Y-122196695D02*
X38650418Y-122339552D01*
X38650418Y-122339552D02*
X38602799Y-122434790D01*
X38602799Y-122434790D02*
X38555180Y-122482409D01*
X38555180Y-122482409D02*
X38459942Y-122530028D01*
X38459942Y-122530028D02*
X38078990Y-122530028D01*
X38840895Y-123101457D02*
X39602799Y-123101457D01*
X40317085Y-123006219D02*
X39840895Y-123006219D01*
X39840895Y-123006219D02*
X39840895Y-122006219D01*
X40650419Y-122482409D02*
X40983752Y-122482409D01*
X41126609Y-123006219D02*
X40650419Y-123006219D01*
X40650419Y-123006219D02*
X40650419Y-122006219D01*
X40650419Y-122006219D02*
X41126609Y-122006219D01*
X41555181Y-123006219D02*
X41555181Y-122006219D01*
X41555181Y-122006219D02*
X41793276Y-122006219D01*
X41793276Y-122006219D02*
X41936133Y-122053838D01*
X41936133Y-122053838D02*
X42031371Y-122149076D01*
X42031371Y-122149076D02*
X42078990Y-122244314D01*
X42078990Y-122244314D02*
X42126609Y-122434790D01*
X42126609Y-122434790D02*
X42126609Y-122577647D01*
X42126609Y-122577647D02*
X42078990Y-122768123D01*
X42078990Y-122768123D02*
X42031371Y-122863361D01*
X42031371Y-122863361D02*
X41936133Y-122958600D01*
X41936133Y-122958600D02*
X41793276Y-123006219D01*
X41793276Y-123006219D02*
X41555181Y-123006219D01*
X42602800Y-123006219D02*
X42793276Y-123006219D01*
X42793276Y-123006219D02*
X42888514Y-122958600D01*
X42888514Y-122958600D02*
X42936133Y-122910980D01*
X42936133Y-122910980D02*
X43031371Y-122768123D01*
X43031371Y-122768123D02*
X43078990Y-122577647D01*
X43078990Y-122577647D02*
X43078990Y-122196695D01*
X43078990Y-122196695D02*
X43031371Y-122101457D01*
X43031371Y-122101457D02*
X42983752Y-122053838D01*
X42983752Y-122053838D02*
X42888514Y-122006219D01*
X42888514Y-122006219D02*
X42698038Y-122006219D01*
X42698038Y-122006219D02*
X42602800Y-122053838D01*
X42602800Y-122053838D02*
X42555181Y-122101457D01*
X42555181Y-122101457D02*
X42507562Y-122196695D01*
X42507562Y-122196695D02*
X42507562Y-122434790D01*
X42507562Y-122434790D02*
X42555181Y-122530028D01*
X42555181Y-122530028D02*
X42602800Y-122577647D01*
X42602800Y-122577647D02*
X42698038Y-122625266D01*
X42698038Y-122625266D02*
X42888514Y-122625266D01*
X42888514Y-122625266D02*
X42983752Y-122577647D01*
X42983752Y-122577647D02*
X43031371Y-122530028D01*
X43031371Y-122530028D02*
X43078990Y-122434790D01*
X87997419Y-48801904D02*
X88806942Y-48801904D01*
X88806942Y-48801904D02*
X88902180Y-48754285D01*
X88902180Y-48754285D02*
X88949800Y-48706666D01*
X88949800Y-48706666D02*
X88997419Y-48611428D01*
X88997419Y-48611428D02*
X88997419Y-48420952D01*
X88997419Y-48420952D02*
X88949800Y-48325714D01*
X88949800Y-48325714D02*
X88902180Y-48278095D01*
X88902180Y-48278095D02*
X88806942Y-48230476D01*
X88806942Y-48230476D02*
X87997419Y-48230476D01*
X88330752Y-47325714D02*
X88997419Y-47325714D01*
X87949800Y-47563809D02*
X88664085Y-47801904D01*
X88664085Y-47801904D02*
X88664085Y-47182857D01*
X94583809Y-30771704D02*
X95059999Y-30771704D01*
X94488571Y-31057419D02*
X94821904Y-30057419D01*
X94821904Y-30057419D02*
X95155237Y-31057419D01*
X95488571Y-31057419D02*
X95488571Y-30057419D01*
X95488571Y-30057419D02*
X95821904Y-30771704D01*
X95821904Y-30771704D02*
X96155237Y-30057419D01*
X96155237Y-30057419D02*
X96155237Y-31057419D01*
X96964761Y-30533609D02*
X97107618Y-30581228D01*
X97107618Y-30581228D02*
X97155237Y-30628847D01*
X97155237Y-30628847D02*
X97202856Y-30724085D01*
X97202856Y-30724085D02*
X97202856Y-30866942D01*
X97202856Y-30866942D02*
X97155237Y-30962180D01*
X97155237Y-30962180D02*
X97107618Y-31009800D01*
X97107618Y-31009800D02*
X97012380Y-31057419D01*
X97012380Y-31057419D02*
X96631428Y-31057419D01*
X96631428Y-31057419D02*
X96631428Y-30057419D01*
X96631428Y-30057419D02*
X96964761Y-30057419D01*
X96964761Y-30057419D02*
X97059999Y-30105038D01*
X97059999Y-30105038D02*
X97107618Y-30152657D01*
X97107618Y-30152657D02*
X97155237Y-30247895D01*
X97155237Y-30247895D02*
X97155237Y-30343133D01*
X97155237Y-30343133D02*
X97107618Y-30438371D01*
X97107618Y-30438371D02*
X97059999Y-30485990D01*
X97059999Y-30485990D02*
X96964761Y-30533609D01*
X96964761Y-30533609D02*
X96631428Y-30533609D01*
X97631428Y-30533609D02*
X97964761Y-30533609D01*
X98107618Y-31057419D02*
X97631428Y-31057419D01*
X97631428Y-31057419D02*
X97631428Y-30057419D01*
X97631428Y-30057419D02*
X98107618Y-30057419D01*
X99107618Y-31057419D02*
X98774285Y-30581228D01*
X98536190Y-31057419D02*
X98536190Y-30057419D01*
X98536190Y-30057419D02*
X98917142Y-30057419D01*
X98917142Y-30057419D02*
X99012380Y-30105038D01*
X99012380Y-30105038D02*
X99059999Y-30152657D01*
X99059999Y-30152657D02*
X99107618Y-30247895D01*
X99107618Y-30247895D02*
X99107618Y-30390752D01*
X99107618Y-30390752D02*
X99059999Y-30485990D01*
X99059999Y-30485990D02*
X99012380Y-30533609D01*
X99012380Y-30533609D02*
X98917142Y-30581228D01*
X98917142Y-30581228D02*
X98536190Y-30581228D01*
X99298095Y-31152657D02*
X100059999Y-31152657D01*
X100774285Y-31057419D02*
X100298095Y-31057419D01*
X100298095Y-31057419D02*
X100298095Y-30057419D01*
X101107619Y-30533609D02*
X101440952Y-30533609D01*
X101583809Y-31057419D02*
X101107619Y-31057419D01*
X101107619Y-31057419D02*
X101107619Y-30057419D01*
X101107619Y-30057419D02*
X101583809Y-30057419D01*
X102012381Y-31057419D02*
X102012381Y-30057419D01*
X102012381Y-30057419D02*
X102250476Y-30057419D01*
X102250476Y-30057419D02*
X102393333Y-30105038D01*
X102393333Y-30105038D02*
X102488571Y-30200276D01*
X102488571Y-30200276D02*
X102536190Y-30295514D01*
X102536190Y-30295514D02*
X102583809Y-30485990D01*
X102583809Y-30485990D02*
X102583809Y-30628847D01*
X102583809Y-30628847D02*
X102536190Y-30819323D01*
X102536190Y-30819323D02*
X102488571Y-30914561D01*
X102488571Y-30914561D02*
X102393333Y-31009800D01*
X102393333Y-31009800D02*
X102250476Y-31057419D01*
X102250476Y-31057419D02*
X102012381Y-31057419D01*
X103440952Y-30390752D02*
X103440952Y-31057419D01*
X103202857Y-30009800D02*
X102964762Y-30724085D01*
X102964762Y-30724085D02*
X103583809Y-30724085D01*
X34513809Y-92671704D02*
X34989999Y-92671704D01*
X34418571Y-92957419D02*
X34751904Y-91957419D01*
X34751904Y-91957419D02*
X35085237Y-92957419D01*
X35418571Y-92957419D02*
X35418571Y-91957419D01*
X35418571Y-91957419D02*
X35751904Y-92671704D01*
X35751904Y-92671704D02*
X36085237Y-91957419D01*
X36085237Y-91957419D02*
X36085237Y-92957419D01*
X36894761Y-92433609D02*
X37037618Y-92481228D01*
X37037618Y-92481228D02*
X37085237Y-92528847D01*
X37085237Y-92528847D02*
X37132856Y-92624085D01*
X37132856Y-92624085D02*
X37132856Y-92766942D01*
X37132856Y-92766942D02*
X37085237Y-92862180D01*
X37085237Y-92862180D02*
X37037618Y-92909800D01*
X37037618Y-92909800D02*
X36942380Y-92957419D01*
X36942380Y-92957419D02*
X36561428Y-92957419D01*
X36561428Y-92957419D02*
X36561428Y-91957419D01*
X36561428Y-91957419D02*
X36894761Y-91957419D01*
X36894761Y-91957419D02*
X36989999Y-92005038D01*
X36989999Y-92005038D02*
X37037618Y-92052657D01*
X37037618Y-92052657D02*
X37085237Y-92147895D01*
X37085237Y-92147895D02*
X37085237Y-92243133D01*
X37085237Y-92243133D02*
X37037618Y-92338371D01*
X37037618Y-92338371D02*
X36989999Y-92385990D01*
X36989999Y-92385990D02*
X36894761Y-92433609D01*
X36894761Y-92433609D02*
X36561428Y-92433609D01*
X37561428Y-92433609D02*
X37894761Y-92433609D01*
X38037618Y-92957419D02*
X37561428Y-92957419D01*
X37561428Y-92957419D02*
X37561428Y-91957419D01*
X37561428Y-91957419D02*
X38037618Y-91957419D01*
X39037618Y-92957419D02*
X38704285Y-92481228D01*
X38466190Y-92957419D02*
X38466190Y-91957419D01*
X38466190Y-91957419D02*
X38847142Y-91957419D01*
X38847142Y-91957419D02*
X38942380Y-92005038D01*
X38942380Y-92005038D02*
X38989999Y-92052657D01*
X38989999Y-92052657D02*
X39037618Y-92147895D01*
X39037618Y-92147895D02*
X39037618Y-92290752D01*
X39037618Y-92290752D02*
X38989999Y-92385990D01*
X38989999Y-92385990D02*
X38942380Y-92433609D01*
X38942380Y-92433609D02*
X38847142Y-92481228D01*
X38847142Y-92481228D02*
X38466190Y-92481228D01*
X39228095Y-93052657D02*
X39989999Y-93052657D01*
X40704285Y-92957419D02*
X40228095Y-92957419D01*
X40228095Y-92957419D02*
X40228095Y-91957419D01*
X41037619Y-92433609D02*
X41370952Y-92433609D01*
X41513809Y-92957419D02*
X41037619Y-92957419D01*
X41037619Y-92957419D02*
X41037619Y-91957419D01*
X41037619Y-91957419D02*
X41513809Y-91957419D01*
X41942381Y-92957419D02*
X41942381Y-91957419D01*
X41942381Y-91957419D02*
X42180476Y-91957419D01*
X42180476Y-91957419D02*
X42323333Y-92005038D01*
X42323333Y-92005038D02*
X42418571Y-92100276D01*
X42418571Y-92100276D02*
X42466190Y-92195514D01*
X42466190Y-92195514D02*
X42513809Y-92385990D01*
X42513809Y-92385990D02*
X42513809Y-92528847D01*
X42513809Y-92528847D02*
X42466190Y-92719323D01*
X42466190Y-92719323D02*
X42418571Y-92814561D01*
X42418571Y-92814561D02*
X42323333Y-92909800D01*
X42323333Y-92909800D02*
X42180476Y-92957419D01*
X42180476Y-92957419D02*
X41942381Y-92957419D01*
X43085238Y-92385990D02*
X42990000Y-92338371D01*
X42990000Y-92338371D02*
X42942381Y-92290752D01*
X42942381Y-92290752D02*
X42894762Y-92195514D01*
X42894762Y-92195514D02*
X42894762Y-92147895D01*
X42894762Y-92147895D02*
X42942381Y-92052657D01*
X42942381Y-92052657D02*
X42990000Y-92005038D01*
X42990000Y-92005038D02*
X43085238Y-91957419D01*
X43085238Y-91957419D02*
X43275714Y-91957419D01*
X43275714Y-91957419D02*
X43370952Y-92005038D01*
X43370952Y-92005038D02*
X43418571Y-92052657D01*
X43418571Y-92052657D02*
X43466190Y-92147895D01*
X43466190Y-92147895D02*
X43466190Y-92195514D01*
X43466190Y-92195514D02*
X43418571Y-92290752D01*
X43418571Y-92290752D02*
X43370952Y-92338371D01*
X43370952Y-92338371D02*
X43275714Y-92385990D01*
X43275714Y-92385990D02*
X43085238Y-92385990D01*
X43085238Y-92385990D02*
X42990000Y-92433609D01*
X42990000Y-92433609D02*
X42942381Y-92481228D01*
X42942381Y-92481228D02*
X42894762Y-92576466D01*
X42894762Y-92576466D02*
X42894762Y-92766942D01*
X42894762Y-92766942D02*
X42942381Y-92862180D01*
X42942381Y-92862180D02*
X42990000Y-92909800D01*
X42990000Y-92909800D02*
X43085238Y-92957419D01*
X43085238Y-92957419D02*
X43275714Y-92957419D01*
X43275714Y-92957419D02*
X43370952Y-92909800D01*
X43370952Y-92909800D02*
X43418571Y-92862180D01*
X43418571Y-92862180D02*
X43466190Y-92766942D01*
X43466190Y-92766942D02*
X43466190Y-92576466D01*
X43466190Y-92576466D02*
X43418571Y-92481228D01*
X43418571Y-92481228D02*
X43370952Y-92433609D01*
X43370952Y-92433609D02*
X43275714Y-92385990D01*
X150616119Y-149240205D02*
X151092309Y-149240205D01*
X150520881Y-149525920D02*
X150854214Y-148525920D01*
X150854214Y-148525920D02*
X151187547Y-149525920D01*
X151520881Y-149525920D02*
X151520881Y-148525920D01*
X151520881Y-148525920D02*
X151854214Y-149240205D01*
X151854214Y-149240205D02*
X152187547Y-148525920D01*
X152187547Y-148525920D02*
X152187547Y-149525920D01*
X152997071Y-149002110D02*
X153139928Y-149049729D01*
X153139928Y-149049729D02*
X153187547Y-149097348D01*
X153187547Y-149097348D02*
X153235166Y-149192586D01*
X153235166Y-149192586D02*
X153235166Y-149335443D01*
X153235166Y-149335443D02*
X153187547Y-149430681D01*
X153187547Y-149430681D02*
X153139928Y-149478301D01*
X153139928Y-149478301D02*
X153044690Y-149525920D01*
X153044690Y-149525920D02*
X152663738Y-149525920D01*
X152663738Y-149525920D02*
X152663738Y-148525920D01*
X152663738Y-148525920D02*
X152997071Y-148525920D01*
X152997071Y-148525920D02*
X153092309Y-148573539D01*
X153092309Y-148573539D02*
X153139928Y-148621158D01*
X153139928Y-148621158D02*
X153187547Y-148716396D01*
X153187547Y-148716396D02*
X153187547Y-148811634D01*
X153187547Y-148811634D02*
X153139928Y-148906872D01*
X153139928Y-148906872D02*
X153092309Y-148954491D01*
X153092309Y-148954491D02*
X152997071Y-149002110D01*
X152997071Y-149002110D02*
X152663738Y-149002110D01*
X153663738Y-149002110D02*
X153997071Y-149002110D01*
X154139928Y-149525920D02*
X153663738Y-149525920D01*
X153663738Y-149525920D02*
X153663738Y-148525920D01*
X153663738Y-148525920D02*
X154139928Y-148525920D01*
X155139928Y-149525920D02*
X154806595Y-149049729D01*
X154568500Y-149525920D02*
X154568500Y-148525920D01*
X154568500Y-148525920D02*
X154949452Y-148525920D01*
X154949452Y-148525920D02*
X155044690Y-148573539D01*
X155044690Y-148573539D02*
X155092309Y-148621158D01*
X155092309Y-148621158D02*
X155139928Y-148716396D01*
X155139928Y-148716396D02*
X155139928Y-148859253D01*
X155139928Y-148859253D02*
X155092309Y-148954491D01*
X155092309Y-148954491D02*
X155044690Y-149002110D01*
X155044690Y-149002110D02*
X154949452Y-149049729D01*
X154949452Y-149049729D02*
X154568500Y-149049729D01*
X155330405Y-149621158D02*
X156092309Y-149621158D01*
X156806595Y-149525920D02*
X156330405Y-149525920D01*
X156330405Y-149525920D02*
X156330405Y-148525920D01*
X157139929Y-149002110D02*
X157473262Y-149002110D01*
X157616119Y-149525920D02*
X157139929Y-149525920D01*
X157139929Y-149525920D02*
X157139929Y-148525920D01*
X157139929Y-148525920D02*
X157616119Y-148525920D01*
X158044691Y-149525920D02*
X158044691Y-148525920D01*
X158044691Y-148525920D02*
X158282786Y-148525920D01*
X158282786Y-148525920D02*
X158425643Y-148573539D01*
X158425643Y-148573539D02*
X158520881Y-148668777D01*
X158520881Y-148668777D02*
X158568500Y-148764015D01*
X158568500Y-148764015D02*
X158616119Y-148954491D01*
X158616119Y-148954491D02*
X158616119Y-149097348D01*
X158616119Y-149097348D02*
X158568500Y-149287824D01*
X158568500Y-149287824D02*
X158520881Y-149383062D01*
X158520881Y-149383062D02*
X158425643Y-149478301D01*
X158425643Y-149478301D02*
X158282786Y-149525920D01*
X158282786Y-149525920D02*
X158044691Y-149525920D01*
X159568500Y-149525920D02*
X158997072Y-149525920D01*
X159282786Y-149525920D02*
X159282786Y-148525920D01*
X159282786Y-148525920D02*
X159187548Y-148668777D01*
X159187548Y-148668777D02*
X159092310Y-148764015D01*
X159092310Y-148764015D02*
X158997072Y-148811634D01*
X160425643Y-148859253D02*
X160425643Y-149525920D01*
X160187548Y-148478301D02*
X159949453Y-149192586D01*
X159949453Y-149192586D02*
X160568500Y-149192586D01*
X37081905Y-82917419D02*
X37081905Y-83726942D01*
X37081905Y-83726942D02*
X37129524Y-83822180D01*
X37129524Y-83822180D02*
X37177143Y-83869800D01*
X37177143Y-83869800D02*
X37272381Y-83917419D01*
X37272381Y-83917419D02*
X37462857Y-83917419D01*
X37462857Y-83917419D02*
X37558095Y-83869800D01*
X37558095Y-83869800D02*
X37605714Y-83822180D01*
X37605714Y-83822180D02*
X37653333Y-83726942D01*
X37653333Y-83726942D02*
X37653333Y-82917419D01*
X38081905Y-83012657D02*
X38129524Y-82965038D01*
X38129524Y-82965038D02*
X38224762Y-82917419D01*
X38224762Y-82917419D02*
X38462857Y-82917419D01*
X38462857Y-82917419D02*
X38558095Y-82965038D01*
X38558095Y-82965038D02*
X38605714Y-83012657D01*
X38605714Y-83012657D02*
X38653333Y-83107895D01*
X38653333Y-83107895D02*
X38653333Y-83203133D01*
X38653333Y-83203133D02*
X38605714Y-83345990D01*
X38605714Y-83345990D02*
X38034286Y-83917419D01*
X38034286Y-83917419D02*
X38653333Y-83917419D01*
X39510476Y-83250752D02*
X39510476Y-83917419D01*
X39272381Y-82869800D02*
X39034286Y-83584085D01*
X39034286Y-83584085D02*
X39653333Y-83584085D01*
D11*
X148787275Y-145443118D02*
X148787275Y-144173118D01*
X150117752Y-145322165D02*
X150057276Y-145382642D01*
X150057276Y-145382642D02*
X149875847Y-145443118D01*
X149875847Y-145443118D02*
X149754895Y-145443118D01*
X149754895Y-145443118D02*
X149573466Y-145382642D01*
X149573466Y-145382642D02*
X149452514Y-145261689D01*
X149452514Y-145261689D02*
X149392037Y-145140737D01*
X149392037Y-145140737D02*
X149331561Y-144898832D01*
X149331561Y-144898832D02*
X149331561Y-144717403D01*
X149331561Y-144717403D02*
X149392037Y-144475499D01*
X149392037Y-144475499D02*
X149452514Y-144354546D01*
X149452514Y-144354546D02*
X149573466Y-144233594D01*
X149573466Y-144233594D02*
X149754895Y-144173118D01*
X149754895Y-144173118D02*
X149875847Y-144173118D01*
X149875847Y-144173118D02*
X150057276Y-144233594D01*
X150057276Y-144233594D02*
X150117752Y-144294070D01*
X151327276Y-145443118D02*
X150601561Y-145443118D01*
X150964418Y-145443118D02*
X150964418Y-144173118D01*
X150964418Y-144173118D02*
X150843466Y-144354546D01*
X150843466Y-144354546D02*
X150722514Y-144475499D01*
X150722514Y-144475499D02*
X150601561Y-144535975D01*
X152415847Y-144596451D02*
X152415847Y-145443118D01*
X152113466Y-144112642D02*
X151811085Y-145019784D01*
X151811085Y-145019784D02*
X152597276Y-145019784D01*
X97168475Y-147154318D02*
X97168475Y-145884318D01*
X98498952Y-147033365D02*
X98438476Y-147093842D01*
X98438476Y-147093842D02*
X98257047Y-147154318D01*
X98257047Y-147154318D02*
X98136095Y-147154318D01*
X98136095Y-147154318D02*
X97954666Y-147093842D01*
X97954666Y-147093842D02*
X97833714Y-146972889D01*
X97833714Y-146972889D02*
X97773237Y-146851937D01*
X97773237Y-146851937D02*
X97712761Y-146610032D01*
X97712761Y-146610032D02*
X97712761Y-146428603D01*
X97712761Y-146428603D02*
X97773237Y-146186699D01*
X97773237Y-146186699D02*
X97833714Y-146065746D01*
X97833714Y-146065746D02*
X97954666Y-145944794D01*
X97954666Y-145944794D02*
X98136095Y-145884318D01*
X98136095Y-145884318D02*
X98257047Y-145884318D01*
X98257047Y-145884318D02*
X98438476Y-145944794D01*
X98438476Y-145944794D02*
X98498952Y-146005270D01*
X99708476Y-147154318D02*
X98982761Y-147154318D01*
X99345618Y-147154318D02*
X99345618Y-145884318D01*
X99345618Y-145884318D02*
X99224666Y-146065746D01*
X99224666Y-146065746D02*
X99103714Y-146186699D01*
X99103714Y-146186699D02*
X98982761Y-146247175D01*
X100192285Y-146005270D02*
X100252761Y-145944794D01*
X100252761Y-145944794D02*
X100373714Y-145884318D01*
X100373714Y-145884318D02*
X100676095Y-145884318D01*
X100676095Y-145884318D02*
X100797047Y-145944794D01*
X100797047Y-145944794D02*
X100857523Y-146005270D01*
X100857523Y-146005270D02*
X100918000Y-146126222D01*
X100918000Y-146126222D02*
X100918000Y-146247175D01*
X100918000Y-146247175D02*
X100857523Y-146428603D01*
X100857523Y-146428603D02*
X100131809Y-147154318D01*
X100131809Y-147154318D02*
X100918000Y-147154318D01*
D10*
X37081905Y-54977419D02*
X37081905Y-55786942D01*
X37081905Y-55786942D02*
X37129524Y-55882180D01*
X37129524Y-55882180D02*
X37177143Y-55929800D01*
X37177143Y-55929800D02*
X37272381Y-55977419D01*
X37272381Y-55977419D02*
X37462857Y-55977419D01*
X37462857Y-55977419D02*
X37558095Y-55929800D01*
X37558095Y-55929800D02*
X37605714Y-55882180D01*
X37605714Y-55882180D02*
X37653333Y-55786942D01*
X37653333Y-55786942D02*
X37653333Y-54977419D01*
X38081905Y-55072657D02*
X38129524Y-55025038D01*
X38129524Y-55025038D02*
X38224762Y-54977419D01*
X38224762Y-54977419D02*
X38462857Y-54977419D01*
X38462857Y-54977419D02*
X38558095Y-55025038D01*
X38558095Y-55025038D02*
X38605714Y-55072657D01*
X38605714Y-55072657D02*
X38653333Y-55167895D01*
X38653333Y-55167895D02*
X38653333Y-55263133D01*
X38653333Y-55263133D02*
X38605714Y-55405990D01*
X38605714Y-55405990D02*
X38034286Y-55977419D01*
X38034286Y-55977419D02*
X38653333Y-55977419D01*
X38986667Y-54977419D02*
X39605714Y-54977419D01*
X39605714Y-54977419D02*
X39272381Y-55358371D01*
X39272381Y-55358371D02*
X39415238Y-55358371D01*
X39415238Y-55358371D02*
X39510476Y-55405990D01*
X39510476Y-55405990D02*
X39558095Y-55453609D01*
X39558095Y-55453609D02*
X39605714Y-55548847D01*
X39605714Y-55548847D02*
X39605714Y-55786942D01*
X39605714Y-55786942D02*
X39558095Y-55882180D01*
X39558095Y-55882180D02*
X39510476Y-55929800D01*
X39510476Y-55929800D02*
X39415238Y-55977419D01*
X39415238Y-55977419D02*
X39129524Y-55977419D01*
X39129524Y-55977419D02*
X39034286Y-55929800D01*
X39034286Y-55929800D02*
X38986667Y-55882180D01*
X122523809Y-32294504D02*
X122999999Y-32294504D01*
X122428571Y-32580219D02*
X122761904Y-31580219D01*
X122761904Y-31580219D02*
X123095237Y-32580219D01*
X123428571Y-32580219D02*
X123428571Y-31580219D01*
X123428571Y-31580219D02*
X123761904Y-32294504D01*
X123761904Y-32294504D02*
X124095237Y-31580219D01*
X124095237Y-31580219D02*
X124095237Y-32580219D01*
X124904761Y-32056409D02*
X125047618Y-32104028D01*
X125047618Y-32104028D02*
X125095237Y-32151647D01*
X125095237Y-32151647D02*
X125142856Y-32246885D01*
X125142856Y-32246885D02*
X125142856Y-32389742D01*
X125142856Y-32389742D02*
X125095237Y-32484980D01*
X125095237Y-32484980D02*
X125047618Y-32532600D01*
X125047618Y-32532600D02*
X124952380Y-32580219D01*
X124952380Y-32580219D02*
X124571428Y-32580219D01*
X124571428Y-32580219D02*
X124571428Y-31580219D01*
X124571428Y-31580219D02*
X124904761Y-31580219D01*
X124904761Y-31580219D02*
X124999999Y-31627838D01*
X124999999Y-31627838D02*
X125047618Y-31675457D01*
X125047618Y-31675457D02*
X125095237Y-31770695D01*
X125095237Y-31770695D02*
X125095237Y-31865933D01*
X125095237Y-31865933D02*
X125047618Y-31961171D01*
X125047618Y-31961171D02*
X124999999Y-32008790D01*
X124999999Y-32008790D02*
X124904761Y-32056409D01*
X124904761Y-32056409D02*
X124571428Y-32056409D01*
X125571428Y-32056409D02*
X125904761Y-32056409D01*
X126047618Y-32580219D02*
X125571428Y-32580219D01*
X125571428Y-32580219D02*
X125571428Y-31580219D01*
X125571428Y-31580219D02*
X126047618Y-31580219D01*
X127047618Y-32580219D02*
X126714285Y-32104028D01*
X126476190Y-32580219D02*
X126476190Y-31580219D01*
X126476190Y-31580219D02*
X126857142Y-31580219D01*
X126857142Y-31580219D02*
X126952380Y-31627838D01*
X126952380Y-31627838D02*
X126999999Y-31675457D01*
X126999999Y-31675457D02*
X127047618Y-31770695D01*
X127047618Y-31770695D02*
X127047618Y-31913552D01*
X127047618Y-31913552D02*
X126999999Y-32008790D01*
X126999999Y-32008790D02*
X126952380Y-32056409D01*
X126952380Y-32056409D02*
X126857142Y-32104028D01*
X126857142Y-32104028D02*
X126476190Y-32104028D01*
X127238095Y-32675457D02*
X127999999Y-32675457D01*
X128714285Y-32580219D02*
X128238095Y-32580219D01*
X128238095Y-32580219D02*
X128238095Y-31580219D01*
X129047619Y-32056409D02*
X129380952Y-32056409D01*
X129523809Y-32580219D02*
X129047619Y-32580219D01*
X129047619Y-32580219D02*
X129047619Y-31580219D01*
X129047619Y-31580219D02*
X129523809Y-31580219D01*
X129952381Y-32580219D02*
X129952381Y-31580219D01*
X129952381Y-31580219D02*
X130190476Y-31580219D01*
X130190476Y-31580219D02*
X130333333Y-31627838D01*
X130333333Y-31627838D02*
X130428571Y-31723076D01*
X130428571Y-31723076D02*
X130476190Y-31818314D01*
X130476190Y-31818314D02*
X130523809Y-32008790D01*
X130523809Y-32008790D02*
X130523809Y-32151647D01*
X130523809Y-32151647D02*
X130476190Y-32342123D01*
X130476190Y-32342123D02*
X130428571Y-32437361D01*
X130428571Y-32437361D02*
X130333333Y-32532600D01*
X130333333Y-32532600D02*
X130190476Y-32580219D01*
X130190476Y-32580219D02*
X129952381Y-32580219D01*
X130857143Y-31580219D02*
X131476190Y-31580219D01*
X131476190Y-31580219D02*
X131142857Y-31961171D01*
X131142857Y-31961171D02*
X131285714Y-31961171D01*
X131285714Y-31961171D02*
X131380952Y-32008790D01*
X131380952Y-32008790D02*
X131428571Y-32056409D01*
X131428571Y-32056409D02*
X131476190Y-32151647D01*
X131476190Y-32151647D02*
X131476190Y-32389742D01*
X131476190Y-32389742D02*
X131428571Y-32484980D01*
X131428571Y-32484980D02*
X131380952Y-32532600D01*
X131380952Y-32532600D02*
X131285714Y-32580219D01*
X131285714Y-32580219D02*
X131000000Y-32580219D01*
X131000000Y-32580219D02*
X130904762Y-32532600D01*
X130904762Y-32532600D02*
X130857143Y-32484980D01*
X67082580Y-32258095D02*
X66273057Y-32258095D01*
X66273057Y-32258095D02*
X66177819Y-32305714D01*
X66177819Y-32305714D02*
X66130200Y-32353333D01*
X66130200Y-32353333D02*
X66082580Y-32448571D01*
X66082580Y-32448571D02*
X66082580Y-32639047D01*
X66082580Y-32639047D02*
X66130200Y-32734285D01*
X66130200Y-32734285D02*
X66177819Y-32781904D01*
X66177819Y-32781904D02*
X66273057Y-32829523D01*
X66273057Y-32829523D02*
X67082580Y-32829523D01*
X67082580Y-33781904D02*
X67082580Y-33305714D01*
X67082580Y-33305714D02*
X66606390Y-33258095D01*
X66606390Y-33258095D02*
X66654009Y-33305714D01*
X66654009Y-33305714D02*
X66701628Y-33400952D01*
X66701628Y-33400952D02*
X66701628Y-33639047D01*
X66701628Y-33639047D02*
X66654009Y-33734285D01*
X66654009Y-33734285D02*
X66606390Y-33781904D01*
X66606390Y-33781904D02*
X66511152Y-33829523D01*
X66511152Y-33829523D02*
X66273057Y-33829523D01*
X66273057Y-33829523D02*
X66177819Y-33781904D01*
X66177819Y-33781904D02*
X66130200Y-33734285D01*
X66130200Y-33734285D02*
X66082580Y-33639047D01*
X66082580Y-33639047D02*
X66082580Y-33400952D01*
X66082580Y-33400952D02*
X66130200Y-33305714D01*
X66130200Y-33305714D02*
X66177819Y-33258095D01*
X145822580Y-138461905D02*
X145013057Y-138461905D01*
X145013057Y-138461905D02*
X144917819Y-138509524D01*
X144917819Y-138509524D02*
X144870200Y-138557143D01*
X144870200Y-138557143D02*
X144822580Y-138652381D01*
X144822580Y-138652381D02*
X144822580Y-138842857D01*
X144822580Y-138842857D02*
X144870200Y-138938095D01*
X144870200Y-138938095D02*
X144917819Y-138985714D01*
X144917819Y-138985714D02*
X145013057Y-139033333D01*
X145013057Y-139033333D02*
X145822580Y-139033333D01*
X145822580Y-139414286D02*
X145822580Y-140033333D01*
X145822580Y-140033333D02*
X145441628Y-139700000D01*
X145441628Y-139700000D02*
X145441628Y-139842857D01*
X145441628Y-139842857D02*
X145394009Y-139938095D01*
X145394009Y-139938095D02*
X145346390Y-139985714D01*
X145346390Y-139985714D02*
X145251152Y-140033333D01*
X145251152Y-140033333D02*
X145013057Y-140033333D01*
X145013057Y-140033333D02*
X144917819Y-139985714D01*
X144917819Y-139985714D02*
X144870200Y-139938095D01*
X144870200Y-139938095D02*
X144822580Y-139842857D01*
X144822580Y-139842857D02*
X144822580Y-139557143D01*
X144822580Y-139557143D02*
X144870200Y-139461905D01*
X144870200Y-139461905D02*
X144917819Y-139414286D01*
X145822580Y-140652381D02*
X145822580Y-140747619D01*
X145822580Y-140747619D02*
X145774961Y-140842857D01*
X145774961Y-140842857D02*
X145727342Y-140890476D01*
X145727342Y-140890476D02*
X145632104Y-140938095D01*
X145632104Y-140938095D02*
X145441628Y-140985714D01*
X145441628Y-140985714D02*
X145203533Y-140985714D01*
X145203533Y-140985714D02*
X145013057Y-140938095D01*
X145013057Y-140938095D02*
X144917819Y-140890476D01*
X144917819Y-140890476D02*
X144870200Y-140842857D01*
X144870200Y-140842857D02*
X144822580Y-140747619D01*
X144822580Y-140747619D02*
X144822580Y-140652381D01*
X144822580Y-140652381D02*
X144870200Y-140557143D01*
X144870200Y-140557143D02*
X144917819Y-140509524D01*
X144917819Y-140509524D02*
X145013057Y-140461905D01*
X145013057Y-140461905D02*
X145203533Y-140414286D01*
X145203533Y-140414286D02*
X145441628Y-140414286D01*
X145441628Y-140414286D02*
X145632104Y-140461905D01*
X145632104Y-140461905D02*
X145727342Y-140509524D01*
X145727342Y-140509524D02*
X145774961Y-140557143D01*
X145774961Y-140557143D02*
X145822580Y-140652381D01*
D11*
X44763237Y-93824318D02*
X44763237Y-92554318D01*
X46093714Y-93703365D02*
X46033238Y-93763842D01*
X46033238Y-93763842D02*
X45851809Y-93824318D01*
X45851809Y-93824318D02*
X45730857Y-93824318D01*
X45730857Y-93824318D02*
X45549428Y-93763842D01*
X45549428Y-93763842D02*
X45428476Y-93642889D01*
X45428476Y-93642889D02*
X45367999Y-93521937D01*
X45367999Y-93521937D02*
X45307523Y-93280032D01*
X45307523Y-93280032D02*
X45307523Y-93098603D01*
X45307523Y-93098603D02*
X45367999Y-92856699D01*
X45367999Y-92856699D02*
X45428476Y-92735746D01*
X45428476Y-92735746D02*
X45549428Y-92614794D01*
X45549428Y-92614794D02*
X45730857Y-92554318D01*
X45730857Y-92554318D02*
X45851809Y-92554318D01*
X45851809Y-92554318D02*
X46033238Y-92614794D01*
X46033238Y-92614794D02*
X46093714Y-92675270D01*
X46819428Y-93098603D02*
X46698476Y-93038127D01*
X46698476Y-93038127D02*
X46637999Y-92977651D01*
X46637999Y-92977651D02*
X46577523Y-92856699D01*
X46577523Y-92856699D02*
X46577523Y-92796222D01*
X46577523Y-92796222D02*
X46637999Y-92675270D01*
X46637999Y-92675270D02*
X46698476Y-92614794D01*
X46698476Y-92614794D02*
X46819428Y-92554318D01*
X46819428Y-92554318D02*
X47061333Y-92554318D01*
X47061333Y-92554318D02*
X47182285Y-92614794D01*
X47182285Y-92614794D02*
X47242761Y-92675270D01*
X47242761Y-92675270D02*
X47303238Y-92796222D01*
X47303238Y-92796222D02*
X47303238Y-92856699D01*
X47303238Y-92856699D02*
X47242761Y-92977651D01*
X47242761Y-92977651D02*
X47182285Y-93038127D01*
X47182285Y-93038127D02*
X47061333Y-93098603D01*
X47061333Y-93098603D02*
X46819428Y-93098603D01*
X46819428Y-93098603D02*
X46698476Y-93159080D01*
X46698476Y-93159080D02*
X46637999Y-93219556D01*
X46637999Y-93219556D02*
X46577523Y-93340508D01*
X46577523Y-93340508D02*
X46577523Y-93582413D01*
X46577523Y-93582413D02*
X46637999Y-93703365D01*
X46637999Y-93703365D02*
X46698476Y-93763842D01*
X46698476Y-93763842D02*
X46819428Y-93824318D01*
X46819428Y-93824318D02*
X47061333Y-93824318D01*
X47061333Y-93824318D02*
X47182285Y-93763842D01*
X47182285Y-93763842D02*
X47242761Y-93703365D01*
X47242761Y-93703365D02*
X47303238Y-93582413D01*
X47303238Y-93582413D02*
X47303238Y-93340508D01*
X47303238Y-93340508D02*
X47242761Y-93219556D01*
X47242761Y-93219556D02*
X47182285Y-93159080D01*
X47182285Y-93159080D02*
X47061333Y-93098603D01*
X43843237Y-65888418D02*
X43843237Y-64618418D01*
X45173714Y-65767465D02*
X45113238Y-65827942D01*
X45113238Y-65827942D02*
X44931809Y-65888418D01*
X44931809Y-65888418D02*
X44810857Y-65888418D01*
X44810857Y-65888418D02*
X44629428Y-65827942D01*
X44629428Y-65827942D02*
X44508476Y-65706989D01*
X44508476Y-65706989D02*
X44447999Y-65586037D01*
X44447999Y-65586037D02*
X44387523Y-65344132D01*
X44387523Y-65344132D02*
X44387523Y-65162703D01*
X44387523Y-65162703D02*
X44447999Y-64920799D01*
X44447999Y-64920799D02*
X44508476Y-64799846D01*
X44508476Y-64799846D02*
X44629428Y-64678894D01*
X44629428Y-64678894D02*
X44810857Y-64618418D01*
X44810857Y-64618418D02*
X44931809Y-64618418D01*
X44931809Y-64618418D02*
X45113238Y-64678894D01*
X45113238Y-64678894D02*
X45173714Y-64739370D01*
X45597047Y-64618418D02*
X46443714Y-64618418D01*
X46443714Y-64618418D02*
X45899428Y-65888418D01*
D10*
X152024819Y-120180504D02*
X152501009Y-120180504D01*
X151929581Y-120466219D02*
X152262914Y-119466219D01*
X152262914Y-119466219D02*
X152596247Y-120466219D01*
X152929581Y-120466219D02*
X152929581Y-119466219D01*
X152929581Y-119466219D02*
X153262914Y-120180504D01*
X153262914Y-120180504D02*
X153596247Y-119466219D01*
X153596247Y-119466219D02*
X153596247Y-120466219D01*
X154405771Y-119942409D02*
X154548628Y-119990028D01*
X154548628Y-119990028D02*
X154596247Y-120037647D01*
X154596247Y-120037647D02*
X154643866Y-120132885D01*
X154643866Y-120132885D02*
X154643866Y-120275742D01*
X154643866Y-120275742D02*
X154596247Y-120370980D01*
X154596247Y-120370980D02*
X154548628Y-120418600D01*
X154548628Y-120418600D02*
X154453390Y-120466219D01*
X154453390Y-120466219D02*
X154072438Y-120466219D01*
X154072438Y-120466219D02*
X154072438Y-119466219D01*
X154072438Y-119466219D02*
X154405771Y-119466219D01*
X154405771Y-119466219D02*
X154501009Y-119513838D01*
X154501009Y-119513838D02*
X154548628Y-119561457D01*
X154548628Y-119561457D02*
X154596247Y-119656695D01*
X154596247Y-119656695D02*
X154596247Y-119751933D01*
X154596247Y-119751933D02*
X154548628Y-119847171D01*
X154548628Y-119847171D02*
X154501009Y-119894790D01*
X154501009Y-119894790D02*
X154405771Y-119942409D01*
X154405771Y-119942409D02*
X154072438Y-119942409D01*
X155072438Y-119942409D02*
X155405771Y-119942409D01*
X155548628Y-120466219D02*
X155072438Y-120466219D01*
X155072438Y-120466219D02*
X155072438Y-119466219D01*
X155072438Y-119466219D02*
X155548628Y-119466219D01*
X156548628Y-120466219D02*
X156215295Y-119990028D01*
X155977200Y-120466219D02*
X155977200Y-119466219D01*
X155977200Y-119466219D02*
X156358152Y-119466219D01*
X156358152Y-119466219D02*
X156453390Y-119513838D01*
X156453390Y-119513838D02*
X156501009Y-119561457D01*
X156501009Y-119561457D02*
X156548628Y-119656695D01*
X156548628Y-119656695D02*
X156548628Y-119799552D01*
X156548628Y-119799552D02*
X156501009Y-119894790D01*
X156501009Y-119894790D02*
X156453390Y-119942409D01*
X156453390Y-119942409D02*
X156358152Y-119990028D01*
X156358152Y-119990028D02*
X155977200Y-119990028D01*
X156739105Y-120561457D02*
X157501009Y-120561457D01*
X158215295Y-120466219D02*
X157739105Y-120466219D01*
X157739105Y-120466219D02*
X157739105Y-119466219D01*
X158548629Y-119942409D02*
X158881962Y-119942409D01*
X159024819Y-120466219D02*
X158548629Y-120466219D01*
X158548629Y-120466219D02*
X158548629Y-119466219D01*
X158548629Y-119466219D02*
X159024819Y-119466219D01*
X159453391Y-120466219D02*
X159453391Y-119466219D01*
X159453391Y-119466219D02*
X159691486Y-119466219D01*
X159691486Y-119466219D02*
X159834343Y-119513838D01*
X159834343Y-119513838D02*
X159929581Y-119609076D01*
X159929581Y-119609076D02*
X159977200Y-119704314D01*
X159977200Y-119704314D02*
X160024819Y-119894790D01*
X160024819Y-119894790D02*
X160024819Y-120037647D01*
X160024819Y-120037647D02*
X159977200Y-120228123D01*
X159977200Y-120228123D02*
X159929581Y-120323361D01*
X159929581Y-120323361D02*
X159834343Y-120418600D01*
X159834343Y-120418600D02*
X159691486Y-120466219D01*
X159691486Y-120466219D02*
X159453391Y-120466219D01*
X160977200Y-120466219D02*
X160405772Y-120466219D01*
X160691486Y-120466219D02*
X160691486Y-119466219D01*
X160691486Y-119466219D02*
X160596248Y-119609076D01*
X160596248Y-119609076D02*
X160501010Y-119704314D01*
X160501010Y-119704314D02*
X160405772Y-119751933D01*
X161881962Y-119466219D02*
X161405772Y-119466219D01*
X161405772Y-119466219D02*
X161358153Y-119942409D01*
X161358153Y-119942409D02*
X161405772Y-119894790D01*
X161405772Y-119894790D02*
X161501010Y-119847171D01*
X161501010Y-119847171D02*
X161739105Y-119847171D01*
X161739105Y-119847171D02*
X161834343Y-119894790D01*
X161834343Y-119894790D02*
X161881962Y-119942409D01*
X161881962Y-119942409D02*
X161929581Y-120037647D01*
X161929581Y-120037647D02*
X161929581Y-120275742D01*
X161929581Y-120275742D02*
X161881962Y-120370980D01*
X161881962Y-120370980D02*
X161834343Y-120418600D01*
X161834343Y-120418600D02*
X161739105Y-120466219D01*
X161739105Y-120466219D02*
X161501010Y-120466219D01*
X161501010Y-120466219D02*
X161405772Y-120418600D01*
X161405772Y-120418600D02*
X161358153Y-120370980D01*
D11*
X97833237Y-38924318D02*
X97833237Y-37654318D01*
X99163714Y-38803365D02*
X99103238Y-38863842D01*
X99103238Y-38863842D02*
X98921809Y-38924318D01*
X98921809Y-38924318D02*
X98800857Y-38924318D01*
X98800857Y-38924318D02*
X98619428Y-38863842D01*
X98619428Y-38863842D02*
X98498476Y-38742889D01*
X98498476Y-38742889D02*
X98437999Y-38621937D01*
X98437999Y-38621937D02*
X98377523Y-38380032D01*
X98377523Y-38380032D02*
X98377523Y-38198603D01*
X98377523Y-38198603D02*
X98437999Y-37956699D01*
X98437999Y-37956699D02*
X98498476Y-37835746D01*
X98498476Y-37835746D02*
X98619428Y-37714794D01*
X98619428Y-37714794D02*
X98800857Y-37654318D01*
X98800857Y-37654318D02*
X98921809Y-37654318D01*
X98921809Y-37654318D02*
X99103238Y-37714794D01*
X99103238Y-37714794D02*
X99163714Y-37775270D01*
X100252285Y-38077651D02*
X100252285Y-38924318D01*
X99949904Y-37593842D02*
X99647523Y-38500984D01*
X99647523Y-38500984D02*
X100433714Y-38500984D01*
D10*
X143761905Y-82917419D02*
X143761905Y-83726942D01*
X143761905Y-83726942D02*
X143809524Y-83822180D01*
X143809524Y-83822180D02*
X143857143Y-83869800D01*
X143857143Y-83869800D02*
X143952381Y-83917419D01*
X143952381Y-83917419D02*
X144142857Y-83917419D01*
X144142857Y-83917419D02*
X144238095Y-83869800D01*
X144238095Y-83869800D02*
X144285714Y-83822180D01*
X144285714Y-83822180D02*
X144333333Y-83726942D01*
X144333333Y-83726942D02*
X144333333Y-82917419D01*
X144714286Y-82917419D02*
X145333333Y-82917419D01*
X145333333Y-82917419D02*
X145000000Y-83298371D01*
X145000000Y-83298371D02*
X145142857Y-83298371D01*
X145142857Y-83298371D02*
X145238095Y-83345990D01*
X145238095Y-83345990D02*
X145285714Y-83393609D01*
X145285714Y-83393609D02*
X145333333Y-83488847D01*
X145333333Y-83488847D02*
X145333333Y-83726942D01*
X145333333Y-83726942D02*
X145285714Y-83822180D01*
X145285714Y-83822180D02*
X145238095Y-83869800D01*
X145238095Y-83869800D02*
X145142857Y-83917419D01*
X145142857Y-83917419D02*
X144857143Y-83917419D01*
X144857143Y-83917419D02*
X144761905Y-83869800D01*
X144761905Y-83869800D02*
X144714286Y-83822180D01*
X145714286Y-83012657D02*
X145761905Y-82965038D01*
X145761905Y-82965038D02*
X145857143Y-82917419D01*
X145857143Y-82917419D02*
X146095238Y-82917419D01*
X146095238Y-82917419D02*
X146190476Y-82965038D01*
X146190476Y-82965038D02*
X146238095Y-83012657D01*
X146238095Y-83012657D02*
X146285714Y-83107895D01*
X146285714Y-83107895D02*
X146285714Y-83203133D01*
X146285714Y-83203133D02*
X146238095Y-83345990D01*
X146238095Y-83345990D02*
X145666667Y-83917419D01*
X145666667Y-83917419D02*
X146285714Y-83917419D01*
D11*
X69893237Y-38924318D02*
X69893237Y-37654318D01*
X71223714Y-38803365D02*
X71163238Y-38863842D01*
X71163238Y-38863842D02*
X70981809Y-38924318D01*
X70981809Y-38924318D02*
X70860857Y-38924318D01*
X70860857Y-38924318D02*
X70679428Y-38863842D01*
X70679428Y-38863842D02*
X70558476Y-38742889D01*
X70558476Y-38742889D02*
X70497999Y-38621937D01*
X70497999Y-38621937D02*
X70437523Y-38380032D01*
X70437523Y-38380032D02*
X70437523Y-38198603D01*
X70437523Y-38198603D02*
X70497999Y-37956699D01*
X70497999Y-37956699D02*
X70558476Y-37835746D01*
X70558476Y-37835746D02*
X70679428Y-37714794D01*
X70679428Y-37714794D02*
X70860857Y-37654318D01*
X70860857Y-37654318D02*
X70981809Y-37654318D01*
X70981809Y-37654318D02*
X71163238Y-37714794D01*
X71163238Y-37714794D02*
X71223714Y-37775270D01*
X72372761Y-37654318D02*
X71767999Y-37654318D01*
X71767999Y-37654318D02*
X71707523Y-38259080D01*
X71707523Y-38259080D02*
X71767999Y-38198603D01*
X71767999Y-38198603D02*
X71888952Y-38138127D01*
X71888952Y-38138127D02*
X72191333Y-38138127D01*
X72191333Y-38138127D02*
X72312285Y-38198603D01*
X72312285Y-38198603D02*
X72372761Y-38259080D01*
X72372761Y-38259080D02*
X72433238Y-38380032D01*
X72433238Y-38380032D02*
X72433238Y-38682413D01*
X72433238Y-38682413D02*
X72372761Y-38803365D01*
X72372761Y-38803365D02*
X72312285Y-38863842D01*
X72312285Y-38863842D02*
X72191333Y-38924318D01*
X72191333Y-38924318D02*
X71888952Y-38924318D01*
X71888952Y-38924318D02*
X71767999Y-38863842D01*
X71767999Y-38863842D02*
X71707523Y-38803365D01*
D10*
X37081905Y-110757419D02*
X37081905Y-111566942D01*
X37081905Y-111566942D02*
X37129524Y-111662180D01*
X37129524Y-111662180D02*
X37177143Y-111709800D01*
X37177143Y-111709800D02*
X37272381Y-111757419D01*
X37272381Y-111757419D02*
X37462857Y-111757419D01*
X37462857Y-111757419D02*
X37558095Y-111709800D01*
X37558095Y-111709800D02*
X37605714Y-111662180D01*
X37605714Y-111662180D02*
X37653333Y-111566942D01*
X37653333Y-111566942D02*
X37653333Y-110757419D01*
X38081905Y-110852657D02*
X38129524Y-110805038D01*
X38129524Y-110805038D02*
X38224762Y-110757419D01*
X38224762Y-110757419D02*
X38462857Y-110757419D01*
X38462857Y-110757419D02*
X38558095Y-110805038D01*
X38558095Y-110805038D02*
X38605714Y-110852657D01*
X38605714Y-110852657D02*
X38653333Y-110947895D01*
X38653333Y-110947895D02*
X38653333Y-111043133D01*
X38653333Y-111043133D02*
X38605714Y-111185990D01*
X38605714Y-111185990D02*
X38034286Y-111757419D01*
X38034286Y-111757419D02*
X38653333Y-111757419D01*
X39558095Y-110757419D02*
X39081905Y-110757419D01*
X39081905Y-110757419D02*
X39034286Y-111233609D01*
X39034286Y-111233609D02*
X39081905Y-111185990D01*
X39081905Y-111185990D02*
X39177143Y-111138371D01*
X39177143Y-111138371D02*
X39415238Y-111138371D01*
X39415238Y-111138371D02*
X39510476Y-111185990D01*
X39510476Y-111185990D02*
X39558095Y-111233609D01*
X39558095Y-111233609D02*
X39605714Y-111328847D01*
X39605714Y-111328847D02*
X39605714Y-111566942D01*
X39605714Y-111566942D02*
X39558095Y-111662180D01*
X39558095Y-111662180D02*
X39510476Y-111709800D01*
X39510476Y-111709800D02*
X39415238Y-111757419D01*
X39415238Y-111757419D02*
X39177143Y-111757419D01*
X39177143Y-111757419D02*
X39081905Y-111709800D01*
X39081905Y-111709800D02*
X39034286Y-111662180D01*
D11*
X149918475Y-93254318D02*
X149918475Y-91984318D01*
X151248952Y-93133365D02*
X151188476Y-93193842D01*
X151188476Y-93193842D02*
X151007047Y-93254318D01*
X151007047Y-93254318D02*
X150886095Y-93254318D01*
X150886095Y-93254318D02*
X150704666Y-93193842D01*
X150704666Y-93193842D02*
X150583714Y-93072889D01*
X150583714Y-93072889D02*
X150523237Y-92951937D01*
X150523237Y-92951937D02*
X150462761Y-92710032D01*
X150462761Y-92710032D02*
X150462761Y-92528603D01*
X150462761Y-92528603D02*
X150523237Y-92286699D01*
X150523237Y-92286699D02*
X150583714Y-92165746D01*
X150583714Y-92165746D02*
X150704666Y-92044794D01*
X150704666Y-92044794D02*
X150886095Y-91984318D01*
X150886095Y-91984318D02*
X151007047Y-91984318D01*
X151007047Y-91984318D02*
X151188476Y-92044794D01*
X151188476Y-92044794D02*
X151248952Y-92105270D01*
X152458476Y-93254318D02*
X151732761Y-93254318D01*
X152095618Y-93254318D02*
X152095618Y-91984318D01*
X152095618Y-91984318D02*
X151974666Y-92165746D01*
X151974666Y-92165746D02*
X151853714Y-92286699D01*
X151853714Y-92286699D02*
X151732761Y-92347175D01*
X153547047Y-91984318D02*
X153305142Y-91984318D01*
X153305142Y-91984318D02*
X153184190Y-92044794D01*
X153184190Y-92044794D02*
X153123714Y-92105270D01*
X153123714Y-92105270D02*
X153002761Y-92286699D01*
X153002761Y-92286699D02*
X152942285Y-92528603D01*
X152942285Y-92528603D02*
X152942285Y-93012413D01*
X152942285Y-93012413D02*
X153002761Y-93133365D01*
X153002761Y-93133365D02*
X153063238Y-93193842D01*
X153063238Y-93193842D02*
X153184190Y-93254318D01*
X153184190Y-93254318D02*
X153426095Y-93254318D01*
X153426095Y-93254318D02*
X153547047Y-93193842D01*
X153547047Y-93193842D02*
X153607523Y-93133365D01*
X153607523Y-93133365D02*
X153668000Y-93012413D01*
X153668000Y-93012413D02*
X153668000Y-92710032D01*
X153668000Y-92710032D02*
X153607523Y-92589080D01*
X153607523Y-92589080D02*
X153547047Y-92528603D01*
X153547047Y-92528603D02*
X153426095Y-92468127D01*
X153426095Y-92468127D02*
X153184190Y-92468127D01*
X153184190Y-92468127D02*
X153063238Y-92528603D01*
X153063238Y-92528603D02*
X153002761Y-92589080D01*
X153002761Y-92589080D02*
X152942285Y-92710032D01*
D10*
X143761905Y-95617419D02*
X143761905Y-96426942D01*
X143761905Y-96426942D02*
X143809524Y-96522180D01*
X143809524Y-96522180D02*
X143857143Y-96569800D01*
X143857143Y-96569800D02*
X143952381Y-96617419D01*
X143952381Y-96617419D02*
X144142857Y-96617419D01*
X144142857Y-96617419D02*
X144238095Y-96569800D01*
X144238095Y-96569800D02*
X144285714Y-96522180D01*
X144285714Y-96522180D02*
X144333333Y-96426942D01*
X144333333Y-96426942D02*
X144333333Y-95617419D01*
X145333333Y-96617419D02*
X144761905Y-96617419D01*
X145047619Y-96617419D02*
X145047619Y-95617419D01*
X145047619Y-95617419D02*
X144952381Y-95760276D01*
X144952381Y-95760276D02*
X144857143Y-95855514D01*
X144857143Y-95855514D02*
X144761905Y-95903133D01*
X146190476Y-95617419D02*
X146000000Y-95617419D01*
X146000000Y-95617419D02*
X145904762Y-95665038D01*
X145904762Y-95665038D02*
X145857143Y-95712657D01*
X145857143Y-95712657D02*
X145761905Y-95855514D01*
X145761905Y-95855514D02*
X145714286Y-96045990D01*
X145714286Y-96045990D02*
X145714286Y-96426942D01*
X145714286Y-96426942D02*
X145761905Y-96522180D01*
X145761905Y-96522180D02*
X145809524Y-96569800D01*
X145809524Y-96569800D02*
X145904762Y-96617419D01*
X145904762Y-96617419D02*
X146095238Y-96617419D01*
X146095238Y-96617419D02*
X146190476Y-96569800D01*
X146190476Y-96569800D02*
X146238095Y-96522180D01*
X146238095Y-96522180D02*
X146285714Y-96426942D01*
X146285714Y-96426942D02*
X146285714Y-96188847D01*
X146285714Y-96188847D02*
X146238095Y-96093609D01*
X146238095Y-96093609D02*
X146190476Y-96045990D01*
X146190476Y-96045990D02*
X146095238Y-95998371D01*
X146095238Y-95998371D02*
X145904762Y-95998371D01*
X145904762Y-95998371D02*
X145809524Y-96045990D01*
X145809524Y-96045990D02*
X145761905Y-96093609D01*
X145761905Y-96093609D02*
X145714286Y-96188847D01*
X121587619Y-153061704D02*
X122063809Y-153061704D01*
X121492381Y-153347419D02*
X121825714Y-152347419D01*
X121825714Y-152347419D02*
X122159047Y-153347419D01*
X122492381Y-153347419D02*
X122492381Y-152347419D01*
X122492381Y-152347419D02*
X122825714Y-153061704D01*
X122825714Y-153061704D02*
X123159047Y-152347419D01*
X123159047Y-152347419D02*
X123159047Y-153347419D01*
X123968571Y-152823609D02*
X124111428Y-152871228D01*
X124111428Y-152871228D02*
X124159047Y-152918847D01*
X124159047Y-152918847D02*
X124206666Y-153014085D01*
X124206666Y-153014085D02*
X124206666Y-153156942D01*
X124206666Y-153156942D02*
X124159047Y-153252180D01*
X124159047Y-153252180D02*
X124111428Y-153299800D01*
X124111428Y-153299800D02*
X124016190Y-153347419D01*
X124016190Y-153347419D02*
X123635238Y-153347419D01*
X123635238Y-153347419D02*
X123635238Y-152347419D01*
X123635238Y-152347419D02*
X123968571Y-152347419D01*
X123968571Y-152347419D02*
X124063809Y-152395038D01*
X124063809Y-152395038D02*
X124111428Y-152442657D01*
X124111428Y-152442657D02*
X124159047Y-152537895D01*
X124159047Y-152537895D02*
X124159047Y-152633133D01*
X124159047Y-152633133D02*
X124111428Y-152728371D01*
X124111428Y-152728371D02*
X124063809Y-152775990D01*
X124063809Y-152775990D02*
X123968571Y-152823609D01*
X123968571Y-152823609D02*
X123635238Y-152823609D01*
X124635238Y-152823609D02*
X124968571Y-152823609D01*
X125111428Y-153347419D02*
X124635238Y-153347419D01*
X124635238Y-153347419D02*
X124635238Y-152347419D01*
X124635238Y-152347419D02*
X125111428Y-152347419D01*
X126111428Y-153347419D02*
X125778095Y-152871228D01*
X125540000Y-153347419D02*
X125540000Y-152347419D01*
X125540000Y-152347419D02*
X125920952Y-152347419D01*
X125920952Y-152347419D02*
X126016190Y-152395038D01*
X126016190Y-152395038D02*
X126063809Y-152442657D01*
X126063809Y-152442657D02*
X126111428Y-152537895D01*
X126111428Y-152537895D02*
X126111428Y-152680752D01*
X126111428Y-152680752D02*
X126063809Y-152775990D01*
X126063809Y-152775990D02*
X126016190Y-152823609D01*
X126016190Y-152823609D02*
X125920952Y-152871228D01*
X125920952Y-152871228D02*
X125540000Y-152871228D01*
X126301905Y-153442657D02*
X127063809Y-153442657D01*
X127778095Y-153347419D02*
X127301905Y-153347419D01*
X127301905Y-153347419D02*
X127301905Y-152347419D01*
X128111429Y-152823609D02*
X128444762Y-152823609D01*
X128587619Y-153347419D02*
X128111429Y-153347419D01*
X128111429Y-153347419D02*
X128111429Y-152347419D01*
X128111429Y-152347419D02*
X128587619Y-152347419D01*
X129016191Y-153347419D02*
X129016191Y-152347419D01*
X129016191Y-152347419D02*
X129254286Y-152347419D01*
X129254286Y-152347419D02*
X129397143Y-152395038D01*
X129397143Y-152395038D02*
X129492381Y-152490276D01*
X129492381Y-152490276D02*
X129540000Y-152585514D01*
X129540000Y-152585514D02*
X129587619Y-152775990D01*
X129587619Y-152775990D02*
X129587619Y-152918847D01*
X129587619Y-152918847D02*
X129540000Y-153109323D01*
X129540000Y-153109323D02*
X129492381Y-153204561D01*
X129492381Y-153204561D02*
X129397143Y-153299800D01*
X129397143Y-153299800D02*
X129254286Y-153347419D01*
X129254286Y-153347419D02*
X129016191Y-153347419D01*
X130540000Y-153347419D02*
X129968572Y-153347419D01*
X130254286Y-153347419D02*
X130254286Y-152347419D01*
X130254286Y-152347419D02*
X130159048Y-152490276D01*
X130159048Y-152490276D02*
X130063810Y-152585514D01*
X130063810Y-152585514D02*
X129968572Y-152633133D01*
X130873334Y-152347419D02*
X131492381Y-152347419D01*
X131492381Y-152347419D02*
X131159048Y-152728371D01*
X131159048Y-152728371D02*
X131301905Y-152728371D01*
X131301905Y-152728371D02*
X131397143Y-152775990D01*
X131397143Y-152775990D02*
X131444762Y-152823609D01*
X131444762Y-152823609D02*
X131492381Y-152918847D01*
X131492381Y-152918847D02*
X131492381Y-153156942D01*
X131492381Y-153156942D02*
X131444762Y-153252180D01*
X131444762Y-153252180D02*
X131397143Y-153299800D01*
X131397143Y-153299800D02*
X131301905Y-153347419D01*
X131301905Y-153347419D02*
X131016191Y-153347419D01*
X131016191Y-153347419D02*
X130920953Y-153299800D01*
X130920953Y-153299800D02*
X130873334Y-153252180D01*
X110122580Y-32001905D02*
X109313057Y-32001905D01*
X109313057Y-32001905D02*
X109217819Y-32049524D01*
X109217819Y-32049524D02*
X109170200Y-32097143D01*
X109170200Y-32097143D02*
X109122580Y-32192381D01*
X109122580Y-32192381D02*
X109122580Y-32382857D01*
X109122580Y-32382857D02*
X109170200Y-32478095D01*
X109170200Y-32478095D02*
X109217819Y-32525714D01*
X109217819Y-32525714D02*
X109313057Y-32573333D01*
X109313057Y-32573333D02*
X110122580Y-32573333D01*
X110027342Y-33001905D02*
X110074961Y-33049524D01*
X110074961Y-33049524D02*
X110122580Y-33144762D01*
X110122580Y-33144762D02*
X110122580Y-33382857D01*
X110122580Y-33382857D02*
X110074961Y-33478095D01*
X110074961Y-33478095D02*
X110027342Y-33525714D01*
X110027342Y-33525714D02*
X109932104Y-33573333D01*
X109932104Y-33573333D02*
X109836866Y-33573333D01*
X109836866Y-33573333D02*
X109694009Y-33525714D01*
X109694009Y-33525714D02*
X109122580Y-32954286D01*
X109122580Y-32954286D02*
X109122580Y-33573333D01*
X110122580Y-34192381D02*
X110122580Y-34287619D01*
X110122580Y-34287619D02*
X110074961Y-34382857D01*
X110074961Y-34382857D02*
X110027342Y-34430476D01*
X110027342Y-34430476D02*
X109932104Y-34478095D01*
X109932104Y-34478095D02*
X109741628Y-34525714D01*
X109741628Y-34525714D02*
X109503533Y-34525714D01*
X109503533Y-34525714D02*
X109313057Y-34478095D01*
X109313057Y-34478095D02*
X109217819Y-34430476D01*
X109217819Y-34430476D02*
X109170200Y-34382857D01*
X109170200Y-34382857D02*
X109122580Y-34287619D01*
X109122580Y-34287619D02*
X109122580Y-34192381D01*
X109122580Y-34192381D02*
X109170200Y-34097143D01*
X109170200Y-34097143D02*
X109217819Y-34049524D01*
X109217819Y-34049524D02*
X109313057Y-34001905D01*
X109313057Y-34001905D02*
X109503533Y-33954286D01*
X109503533Y-33954286D02*
X109741628Y-33954286D01*
X109741628Y-33954286D02*
X109932104Y-34001905D01*
X109932104Y-34001905D02*
X110027342Y-34049524D01*
X110027342Y-34049524D02*
X110074961Y-34097143D01*
X110074961Y-34097143D02*
X110122580Y-34192381D01*
X116017419Y-49278094D02*
X116826942Y-49278094D01*
X116826942Y-49278094D02*
X116922180Y-49230475D01*
X116922180Y-49230475D02*
X116969800Y-49182856D01*
X116969800Y-49182856D02*
X117017419Y-49087618D01*
X117017419Y-49087618D02*
X117017419Y-48897142D01*
X117017419Y-48897142D02*
X116969800Y-48801904D01*
X116969800Y-48801904D02*
X116922180Y-48754285D01*
X116922180Y-48754285D02*
X116826942Y-48706666D01*
X116826942Y-48706666D02*
X116017419Y-48706666D01*
X117017419Y-47706666D02*
X117017419Y-48278094D01*
X117017419Y-47992380D02*
X116017419Y-47992380D01*
X116017419Y-47992380D02*
X116160276Y-48087618D01*
X116160276Y-48087618D02*
X116255514Y-48182856D01*
X116255514Y-48182856D02*
X116303133Y-48278094D01*
X117017419Y-47230475D02*
X117017419Y-47039999D01*
X117017419Y-47039999D02*
X116969800Y-46944761D01*
X116969800Y-46944761D02*
X116922180Y-46897142D01*
X116922180Y-46897142D02*
X116779323Y-46801904D01*
X116779323Y-46801904D02*
X116588847Y-46754285D01*
X116588847Y-46754285D02*
X116207895Y-46754285D01*
X116207895Y-46754285D02*
X116112657Y-46801904D01*
X116112657Y-46801904D02*
X116065038Y-46849523D01*
X116065038Y-46849523D02*
X116017419Y-46944761D01*
X116017419Y-46944761D02*
X116017419Y-47135237D01*
X116017419Y-47135237D02*
X116065038Y-47230475D01*
X116065038Y-47230475D02*
X116112657Y-47278094D01*
X116112657Y-47278094D02*
X116207895Y-47325713D01*
X116207895Y-47325713D02*
X116445990Y-47325713D01*
X116445990Y-47325713D02*
X116541228Y-47278094D01*
X116541228Y-47278094D02*
X116588847Y-47230475D01*
X116588847Y-47230475D02*
X116636466Y-47135237D01*
X116636466Y-47135237D02*
X116636466Y-46944761D01*
X116636466Y-46944761D02*
X116588847Y-46849523D01*
X116588847Y-46849523D02*
X116541228Y-46801904D01*
X116541228Y-46801904D02*
X116445990Y-46754285D01*
D11*
X125709137Y-39914318D02*
X125709137Y-38644318D01*
X127039614Y-39793365D02*
X126979138Y-39853842D01*
X126979138Y-39853842D02*
X126797709Y-39914318D01*
X126797709Y-39914318D02*
X126676757Y-39914318D01*
X126676757Y-39914318D02*
X126495328Y-39853842D01*
X126495328Y-39853842D02*
X126374376Y-39732889D01*
X126374376Y-39732889D02*
X126313899Y-39611937D01*
X126313899Y-39611937D02*
X126253423Y-39370032D01*
X126253423Y-39370032D02*
X126253423Y-39188603D01*
X126253423Y-39188603D02*
X126313899Y-38946699D01*
X126313899Y-38946699D02*
X126374376Y-38825746D01*
X126374376Y-38825746D02*
X126495328Y-38704794D01*
X126495328Y-38704794D02*
X126676757Y-38644318D01*
X126676757Y-38644318D02*
X126797709Y-38644318D01*
X126797709Y-38644318D02*
X126979138Y-38704794D01*
X126979138Y-38704794D02*
X127039614Y-38765270D01*
X127462947Y-38644318D02*
X128249138Y-38644318D01*
X128249138Y-38644318D02*
X127825804Y-39128127D01*
X127825804Y-39128127D02*
X128007233Y-39128127D01*
X128007233Y-39128127D02*
X128128185Y-39188603D01*
X128128185Y-39188603D02*
X128188661Y-39249080D01*
X128188661Y-39249080D02*
X128249138Y-39370032D01*
X128249138Y-39370032D02*
X128249138Y-39672413D01*
X128249138Y-39672413D02*
X128188661Y-39793365D01*
X128188661Y-39793365D02*
X128128185Y-39853842D01*
X128128185Y-39853842D02*
X128007233Y-39914318D01*
X128007233Y-39914318D02*
X127644376Y-39914318D01*
X127644376Y-39914318D02*
X127523423Y-39853842D01*
X127523423Y-39853842D02*
X127462947Y-39793365D01*
D10*
X63432919Y-153458904D02*
X63909109Y-153458904D01*
X63337681Y-153744619D02*
X63671014Y-152744619D01*
X63671014Y-152744619D02*
X64004347Y-153744619D01*
X64337681Y-153744619D02*
X64337681Y-152744619D01*
X64337681Y-152744619D02*
X64671014Y-153458904D01*
X64671014Y-153458904D02*
X65004347Y-152744619D01*
X65004347Y-152744619D02*
X65004347Y-153744619D01*
X65813871Y-153220809D02*
X65956728Y-153268428D01*
X65956728Y-153268428D02*
X66004347Y-153316047D01*
X66004347Y-153316047D02*
X66051966Y-153411285D01*
X66051966Y-153411285D02*
X66051966Y-153554142D01*
X66051966Y-153554142D02*
X66004347Y-153649380D01*
X66004347Y-153649380D02*
X65956728Y-153697000D01*
X65956728Y-153697000D02*
X65861490Y-153744619D01*
X65861490Y-153744619D02*
X65480538Y-153744619D01*
X65480538Y-153744619D02*
X65480538Y-152744619D01*
X65480538Y-152744619D02*
X65813871Y-152744619D01*
X65813871Y-152744619D02*
X65909109Y-152792238D01*
X65909109Y-152792238D02*
X65956728Y-152839857D01*
X65956728Y-152839857D02*
X66004347Y-152935095D01*
X66004347Y-152935095D02*
X66004347Y-153030333D01*
X66004347Y-153030333D02*
X65956728Y-153125571D01*
X65956728Y-153125571D02*
X65909109Y-153173190D01*
X65909109Y-153173190D02*
X65813871Y-153220809D01*
X65813871Y-153220809D02*
X65480538Y-153220809D01*
X66480538Y-153220809D02*
X66813871Y-153220809D01*
X66956728Y-153744619D02*
X66480538Y-153744619D01*
X66480538Y-153744619D02*
X66480538Y-152744619D01*
X66480538Y-152744619D02*
X66956728Y-152744619D01*
X67956728Y-153744619D02*
X67623395Y-153268428D01*
X67385300Y-153744619D02*
X67385300Y-152744619D01*
X67385300Y-152744619D02*
X67766252Y-152744619D01*
X67766252Y-152744619D02*
X67861490Y-152792238D01*
X67861490Y-152792238D02*
X67909109Y-152839857D01*
X67909109Y-152839857D02*
X67956728Y-152935095D01*
X67956728Y-152935095D02*
X67956728Y-153077952D01*
X67956728Y-153077952D02*
X67909109Y-153173190D01*
X67909109Y-153173190D02*
X67861490Y-153220809D01*
X67861490Y-153220809D02*
X67766252Y-153268428D01*
X67766252Y-153268428D02*
X67385300Y-153268428D01*
X68147205Y-153839857D02*
X68909109Y-153839857D01*
X69623395Y-153744619D02*
X69147205Y-153744619D01*
X69147205Y-153744619D02*
X69147205Y-152744619D01*
X69956729Y-153220809D02*
X70290062Y-153220809D01*
X70432919Y-153744619D02*
X69956729Y-153744619D01*
X69956729Y-153744619D02*
X69956729Y-152744619D01*
X69956729Y-152744619D02*
X70432919Y-152744619D01*
X70861491Y-153744619D02*
X70861491Y-152744619D01*
X70861491Y-152744619D02*
X71099586Y-152744619D01*
X71099586Y-152744619D02*
X71242443Y-152792238D01*
X71242443Y-152792238D02*
X71337681Y-152887476D01*
X71337681Y-152887476D02*
X71385300Y-152982714D01*
X71385300Y-152982714D02*
X71432919Y-153173190D01*
X71432919Y-153173190D02*
X71432919Y-153316047D01*
X71432919Y-153316047D02*
X71385300Y-153506523D01*
X71385300Y-153506523D02*
X71337681Y-153601761D01*
X71337681Y-153601761D02*
X71242443Y-153697000D01*
X71242443Y-153697000D02*
X71099586Y-153744619D01*
X71099586Y-153744619D02*
X70861491Y-153744619D01*
X72385300Y-153744619D02*
X71813872Y-153744619D01*
X72099586Y-153744619D02*
X72099586Y-152744619D01*
X72099586Y-152744619D02*
X72004348Y-152887476D01*
X72004348Y-152887476D02*
X71909110Y-152982714D01*
X71909110Y-152982714D02*
X71813872Y-153030333D01*
X73337681Y-153744619D02*
X72766253Y-153744619D01*
X73051967Y-153744619D02*
X73051967Y-152744619D01*
X73051967Y-152744619D02*
X72956729Y-152887476D01*
X72956729Y-152887476D02*
X72861491Y-152982714D01*
X72861491Y-152982714D02*
X72766253Y-153030333D01*
D11*
X149283237Y-65314318D02*
X149283237Y-64044318D01*
X150613714Y-65193365D02*
X150553238Y-65253842D01*
X150553238Y-65253842D02*
X150371809Y-65314318D01*
X150371809Y-65314318D02*
X150250857Y-65314318D01*
X150250857Y-65314318D02*
X150069428Y-65253842D01*
X150069428Y-65253842D02*
X149948476Y-65132889D01*
X149948476Y-65132889D02*
X149887999Y-65011937D01*
X149887999Y-65011937D02*
X149827523Y-64770032D01*
X149827523Y-64770032D02*
X149827523Y-64588603D01*
X149827523Y-64588603D02*
X149887999Y-64346699D01*
X149887999Y-64346699D02*
X149948476Y-64225746D01*
X149948476Y-64225746D02*
X150069428Y-64104794D01*
X150069428Y-64104794D02*
X150250857Y-64044318D01*
X150250857Y-64044318D02*
X150371809Y-64044318D01*
X150371809Y-64044318D02*
X150553238Y-64104794D01*
X150553238Y-64104794D02*
X150613714Y-64165270D01*
X151823238Y-65314318D02*
X151097523Y-65314318D01*
X151460380Y-65314318D02*
X151460380Y-64044318D01*
X151460380Y-64044318D02*
X151339428Y-64225746D01*
X151339428Y-64225746D02*
X151218476Y-64346699D01*
X151218476Y-64346699D02*
X151097523Y-64407175D01*
D10*
X37558095Y-44717419D02*
X37558095Y-45526942D01*
X37558095Y-45526942D02*
X37605714Y-45622180D01*
X37605714Y-45622180D02*
X37653333Y-45669800D01*
X37653333Y-45669800D02*
X37748571Y-45717419D01*
X37748571Y-45717419D02*
X37939047Y-45717419D01*
X37939047Y-45717419D02*
X38034285Y-45669800D01*
X38034285Y-45669800D02*
X38081904Y-45622180D01*
X38081904Y-45622180D02*
X38129523Y-45526942D01*
X38129523Y-45526942D02*
X38129523Y-44717419D01*
X39034285Y-44717419D02*
X38843809Y-44717419D01*
X38843809Y-44717419D02*
X38748571Y-44765038D01*
X38748571Y-44765038D02*
X38700952Y-44812657D01*
X38700952Y-44812657D02*
X38605714Y-44955514D01*
X38605714Y-44955514D02*
X38558095Y-45145990D01*
X38558095Y-45145990D02*
X38558095Y-45526942D01*
X38558095Y-45526942D02*
X38605714Y-45622180D01*
X38605714Y-45622180D02*
X38653333Y-45669800D01*
X38653333Y-45669800D02*
X38748571Y-45717419D01*
X38748571Y-45717419D02*
X38939047Y-45717419D01*
X38939047Y-45717419D02*
X39034285Y-45669800D01*
X39034285Y-45669800D02*
X39081904Y-45622180D01*
X39081904Y-45622180D02*
X39129523Y-45526942D01*
X39129523Y-45526942D02*
X39129523Y-45288847D01*
X39129523Y-45288847D02*
X39081904Y-45193609D01*
X39081904Y-45193609D02*
X39034285Y-45145990D01*
X39034285Y-45145990D02*
X38939047Y-45098371D01*
X38939047Y-45098371D02*
X38748571Y-45098371D01*
X38748571Y-45098371D02*
X38653333Y-45145990D01*
X38653333Y-45145990D02*
X38605714Y-45193609D01*
X38605714Y-45193609D02*
X38558095Y-45288847D01*
D11*
X122029675Y-147747118D02*
X122029675Y-146477118D01*
X123360152Y-147626165D02*
X123299676Y-147686642D01*
X123299676Y-147686642D02*
X123118247Y-147747118D01*
X123118247Y-147747118D02*
X122997295Y-147747118D01*
X122997295Y-147747118D02*
X122815866Y-147686642D01*
X122815866Y-147686642D02*
X122694914Y-147565689D01*
X122694914Y-147565689D02*
X122634437Y-147444737D01*
X122634437Y-147444737D02*
X122573961Y-147202832D01*
X122573961Y-147202832D02*
X122573961Y-147021403D01*
X122573961Y-147021403D02*
X122634437Y-146779499D01*
X122634437Y-146779499D02*
X122694914Y-146658546D01*
X122694914Y-146658546D02*
X122815866Y-146537594D01*
X122815866Y-146537594D02*
X122997295Y-146477118D01*
X122997295Y-146477118D02*
X123118247Y-146477118D01*
X123118247Y-146477118D02*
X123299676Y-146537594D01*
X123299676Y-146537594D02*
X123360152Y-146598070D01*
X124569676Y-147747118D02*
X123843961Y-147747118D01*
X124206818Y-147747118D02*
X124206818Y-146477118D01*
X124206818Y-146477118D02*
X124085866Y-146658546D01*
X124085866Y-146658546D02*
X123964914Y-146779499D01*
X123964914Y-146779499D02*
X123843961Y-146839975D01*
X124993009Y-146477118D02*
X125779200Y-146477118D01*
X125779200Y-146477118D02*
X125355866Y-146960927D01*
X125355866Y-146960927D02*
X125537295Y-146960927D01*
X125537295Y-146960927D02*
X125658247Y-147021403D01*
X125658247Y-147021403D02*
X125718723Y-147081880D01*
X125718723Y-147081880D02*
X125779200Y-147202832D01*
X125779200Y-147202832D02*
X125779200Y-147505213D01*
X125779200Y-147505213D02*
X125718723Y-147626165D01*
X125718723Y-147626165D02*
X125658247Y-147686642D01*
X125658247Y-147686642D02*
X125537295Y-147747118D01*
X125537295Y-147747118D02*
X125174438Y-147747118D01*
X125174438Y-147747118D02*
X125053485Y-147686642D01*
X125053485Y-147686642D02*
X124993009Y-147626165D01*
D10*
X142718095Y-44717419D02*
X142718095Y-45526942D01*
X142718095Y-45526942D02*
X142765714Y-45622180D01*
X142765714Y-45622180D02*
X142813333Y-45669800D01*
X142813333Y-45669800D02*
X142908571Y-45717419D01*
X142908571Y-45717419D02*
X143099047Y-45717419D01*
X143099047Y-45717419D02*
X143194285Y-45669800D01*
X143194285Y-45669800D02*
X143241904Y-45622180D01*
X143241904Y-45622180D02*
X143289523Y-45526942D01*
X143289523Y-45526942D02*
X143289523Y-44717419D01*
X143718095Y-44812657D02*
X143765714Y-44765038D01*
X143765714Y-44765038D02*
X143860952Y-44717419D01*
X143860952Y-44717419D02*
X144099047Y-44717419D01*
X144099047Y-44717419D02*
X144194285Y-44765038D01*
X144194285Y-44765038D02*
X144241904Y-44812657D01*
X144241904Y-44812657D02*
X144289523Y-44907895D01*
X144289523Y-44907895D02*
X144289523Y-45003133D01*
X144289523Y-45003133D02*
X144241904Y-45145990D01*
X144241904Y-45145990D02*
X143670476Y-45717419D01*
X143670476Y-45717419D02*
X144289523Y-45717419D01*
X152501009Y-61482904D02*
X152977199Y-61482904D01*
X152405771Y-61768619D02*
X152739104Y-60768619D01*
X152739104Y-60768619D02*
X153072437Y-61768619D01*
X153405771Y-61768619D02*
X153405771Y-60768619D01*
X153405771Y-60768619D02*
X153739104Y-61482904D01*
X153739104Y-61482904D02*
X154072437Y-60768619D01*
X154072437Y-60768619D02*
X154072437Y-61768619D01*
X154881961Y-61244809D02*
X155024818Y-61292428D01*
X155024818Y-61292428D02*
X155072437Y-61340047D01*
X155072437Y-61340047D02*
X155120056Y-61435285D01*
X155120056Y-61435285D02*
X155120056Y-61578142D01*
X155120056Y-61578142D02*
X155072437Y-61673380D01*
X155072437Y-61673380D02*
X155024818Y-61721000D01*
X155024818Y-61721000D02*
X154929580Y-61768619D01*
X154929580Y-61768619D02*
X154548628Y-61768619D01*
X154548628Y-61768619D02*
X154548628Y-60768619D01*
X154548628Y-60768619D02*
X154881961Y-60768619D01*
X154881961Y-60768619D02*
X154977199Y-60816238D01*
X154977199Y-60816238D02*
X155024818Y-60863857D01*
X155024818Y-60863857D02*
X155072437Y-60959095D01*
X155072437Y-60959095D02*
X155072437Y-61054333D01*
X155072437Y-61054333D02*
X155024818Y-61149571D01*
X155024818Y-61149571D02*
X154977199Y-61197190D01*
X154977199Y-61197190D02*
X154881961Y-61244809D01*
X154881961Y-61244809D02*
X154548628Y-61244809D01*
X155548628Y-61244809D02*
X155881961Y-61244809D01*
X156024818Y-61768619D02*
X155548628Y-61768619D01*
X155548628Y-61768619D02*
X155548628Y-60768619D01*
X155548628Y-60768619D02*
X156024818Y-60768619D01*
X157024818Y-61768619D02*
X156691485Y-61292428D01*
X156453390Y-61768619D02*
X156453390Y-60768619D01*
X156453390Y-60768619D02*
X156834342Y-60768619D01*
X156834342Y-60768619D02*
X156929580Y-60816238D01*
X156929580Y-60816238D02*
X156977199Y-60863857D01*
X156977199Y-60863857D02*
X157024818Y-60959095D01*
X157024818Y-60959095D02*
X157024818Y-61101952D01*
X157024818Y-61101952D02*
X156977199Y-61197190D01*
X156977199Y-61197190D02*
X156929580Y-61244809D01*
X156929580Y-61244809D02*
X156834342Y-61292428D01*
X156834342Y-61292428D02*
X156453390Y-61292428D01*
X157215295Y-61863857D02*
X157977199Y-61863857D01*
X158691485Y-61768619D02*
X158215295Y-61768619D01*
X158215295Y-61768619D02*
X158215295Y-60768619D01*
X159024819Y-61244809D02*
X159358152Y-61244809D01*
X159501009Y-61768619D02*
X159024819Y-61768619D01*
X159024819Y-61768619D02*
X159024819Y-60768619D01*
X159024819Y-60768619D02*
X159501009Y-60768619D01*
X159929581Y-61768619D02*
X159929581Y-60768619D01*
X159929581Y-60768619D02*
X160167676Y-60768619D01*
X160167676Y-60768619D02*
X160310533Y-60816238D01*
X160310533Y-60816238D02*
X160405771Y-60911476D01*
X160405771Y-60911476D02*
X160453390Y-61006714D01*
X160453390Y-61006714D02*
X160501009Y-61197190D01*
X160501009Y-61197190D02*
X160501009Y-61340047D01*
X160501009Y-61340047D02*
X160453390Y-61530523D01*
X160453390Y-61530523D02*
X160405771Y-61625761D01*
X160405771Y-61625761D02*
X160310533Y-61721000D01*
X160310533Y-61721000D02*
X160167676Y-61768619D01*
X160167676Y-61768619D02*
X159929581Y-61768619D01*
X161453390Y-61768619D02*
X160881962Y-61768619D01*
X161167676Y-61768619D02*
X161167676Y-60768619D01*
X161167676Y-60768619D02*
X161072438Y-60911476D01*
X161072438Y-60911476D02*
X160977200Y-61006714D01*
X160977200Y-61006714D02*
X160881962Y-61054333D01*
X143761905Y-133717419D02*
X143761905Y-134526942D01*
X143761905Y-134526942D02*
X143809524Y-134622180D01*
X143809524Y-134622180D02*
X143857143Y-134669800D01*
X143857143Y-134669800D02*
X143952381Y-134717419D01*
X143952381Y-134717419D02*
X144142857Y-134717419D01*
X144142857Y-134717419D02*
X144238095Y-134669800D01*
X144238095Y-134669800D02*
X144285714Y-134622180D01*
X144285714Y-134622180D02*
X144333333Y-134526942D01*
X144333333Y-134526942D02*
X144333333Y-133717419D01*
X145333333Y-134717419D02*
X144761905Y-134717419D01*
X145047619Y-134717419D02*
X145047619Y-133717419D01*
X145047619Y-133717419D02*
X144952381Y-133860276D01*
X144952381Y-133860276D02*
X144857143Y-133955514D01*
X144857143Y-133955514D02*
X144761905Y-134003133D01*
X146190476Y-134050752D02*
X146190476Y-134717419D01*
X145952381Y-133669800D02*
X145714286Y-134384085D01*
X145714286Y-134384085D02*
X146333333Y-134384085D01*
D12*
X113020866Y-117471666D02*
X114020866Y-117471666D01*
X114020866Y-117471666D02*
X114220866Y-117538333D01*
X114220866Y-117538333D02*
X114354200Y-117671666D01*
X114354200Y-117671666D02*
X114420866Y-117871666D01*
X114420866Y-117871666D02*
X114420866Y-118005000D01*
X113154200Y-116871666D02*
X113087533Y-116804999D01*
X113087533Y-116804999D02*
X113020866Y-116671666D01*
X113020866Y-116671666D02*
X113020866Y-116338333D01*
X113020866Y-116338333D02*
X113087533Y-116204999D01*
X113087533Y-116204999D02*
X113154200Y-116138333D01*
X113154200Y-116138333D02*
X113287533Y-116071666D01*
X113287533Y-116071666D02*
X113420866Y-116071666D01*
X113420866Y-116071666D02*
X113620866Y-116138333D01*
X113620866Y-116138333D02*
X114420866Y-116938333D01*
X114420866Y-116938333D02*
X114420866Y-116071666D01*
D10*
X37558095Y-95617419D02*
X37558095Y-96426942D01*
X37558095Y-96426942D02*
X37605714Y-96522180D01*
X37605714Y-96522180D02*
X37653333Y-96569800D01*
X37653333Y-96569800D02*
X37748571Y-96617419D01*
X37748571Y-96617419D02*
X37939047Y-96617419D01*
X37939047Y-96617419D02*
X38034285Y-96569800D01*
X38034285Y-96569800D02*
X38081904Y-96522180D01*
X38081904Y-96522180D02*
X38129523Y-96426942D01*
X38129523Y-96426942D02*
X38129523Y-95617419D01*
X38748571Y-96045990D02*
X38653333Y-95998371D01*
X38653333Y-95998371D02*
X38605714Y-95950752D01*
X38605714Y-95950752D02*
X38558095Y-95855514D01*
X38558095Y-95855514D02*
X38558095Y-95807895D01*
X38558095Y-95807895D02*
X38605714Y-95712657D01*
X38605714Y-95712657D02*
X38653333Y-95665038D01*
X38653333Y-95665038D02*
X38748571Y-95617419D01*
X38748571Y-95617419D02*
X38939047Y-95617419D01*
X38939047Y-95617419D02*
X39034285Y-95665038D01*
X39034285Y-95665038D02*
X39081904Y-95712657D01*
X39081904Y-95712657D02*
X39129523Y-95807895D01*
X39129523Y-95807895D02*
X39129523Y-95855514D01*
X39129523Y-95855514D02*
X39081904Y-95950752D01*
X39081904Y-95950752D02*
X39034285Y-95998371D01*
X39034285Y-95998371D02*
X38939047Y-96045990D01*
X38939047Y-96045990D02*
X38748571Y-96045990D01*
X38748571Y-96045990D02*
X38653333Y-96093609D01*
X38653333Y-96093609D02*
X38605714Y-96141228D01*
X38605714Y-96141228D02*
X38558095Y-96236466D01*
X38558095Y-96236466D02*
X38558095Y-96426942D01*
X38558095Y-96426942D02*
X38605714Y-96522180D01*
X38605714Y-96522180D02*
X38653333Y-96569800D01*
X38653333Y-96569800D02*
X38748571Y-96617419D01*
X38748571Y-96617419D02*
X38939047Y-96617419D01*
X38939047Y-96617419D02*
X39034285Y-96569800D01*
X39034285Y-96569800D02*
X39081904Y-96522180D01*
X39081904Y-96522180D02*
X39129523Y-96426942D01*
X39129523Y-96426942D02*
X39129523Y-96236466D01*
X39129523Y-96236466D02*
X39081904Y-96141228D01*
X39081904Y-96141228D02*
X39034285Y-96093609D01*
X39034285Y-96093609D02*
X38939047Y-96045990D01*
X131177419Y-48801904D02*
X131986942Y-48801904D01*
X131986942Y-48801904D02*
X132082180Y-48754285D01*
X132082180Y-48754285D02*
X132129800Y-48706666D01*
X132129800Y-48706666D02*
X132177419Y-48611428D01*
X132177419Y-48611428D02*
X132177419Y-48420952D01*
X132177419Y-48420952D02*
X132129800Y-48325714D01*
X132129800Y-48325714D02*
X132082180Y-48278095D01*
X132082180Y-48278095D02*
X131986942Y-48230476D01*
X131986942Y-48230476D02*
X131177419Y-48230476D01*
X131177419Y-47849523D02*
X131177419Y-47230476D01*
X131177419Y-47230476D02*
X131558371Y-47563809D01*
X131558371Y-47563809D02*
X131558371Y-47420952D01*
X131558371Y-47420952D02*
X131605990Y-47325714D01*
X131605990Y-47325714D02*
X131653609Y-47278095D01*
X131653609Y-47278095D02*
X131748847Y-47230476D01*
X131748847Y-47230476D02*
X131986942Y-47230476D01*
X131986942Y-47230476D02*
X132082180Y-47278095D01*
X132082180Y-47278095D02*
X132129800Y-47325714D01*
X132129800Y-47325714D02*
X132177419Y-47420952D01*
X132177419Y-47420952D02*
X132177419Y-47706666D01*
X132177419Y-47706666D02*
X132129800Y-47801904D01*
X132129800Y-47801904D02*
X132082180Y-47849523D01*
D11*
X149392037Y-42205518D02*
X149392037Y-40935518D01*
X150722514Y-42084565D02*
X150662038Y-42145042D01*
X150662038Y-42145042D02*
X150480609Y-42205518D01*
X150480609Y-42205518D02*
X150359657Y-42205518D01*
X150359657Y-42205518D02*
X150178228Y-42145042D01*
X150178228Y-42145042D02*
X150057276Y-42024089D01*
X150057276Y-42024089D02*
X149996799Y-41903137D01*
X149996799Y-41903137D02*
X149936323Y-41661232D01*
X149936323Y-41661232D02*
X149936323Y-41479803D01*
X149936323Y-41479803D02*
X149996799Y-41237899D01*
X149996799Y-41237899D02*
X150057276Y-41116946D01*
X150057276Y-41116946D02*
X150178228Y-40995994D01*
X150178228Y-40995994D02*
X150359657Y-40935518D01*
X150359657Y-40935518D02*
X150480609Y-40935518D01*
X150480609Y-40935518D02*
X150662038Y-40995994D01*
X150662038Y-40995994D02*
X150722514Y-41056470D01*
X151206323Y-41056470D02*
X151266799Y-40995994D01*
X151266799Y-40995994D02*
X151387752Y-40935518D01*
X151387752Y-40935518D02*
X151690133Y-40935518D01*
X151690133Y-40935518D02*
X151811085Y-40995994D01*
X151811085Y-40995994D02*
X151871561Y-41056470D01*
X151871561Y-41056470D02*
X151932038Y-41177422D01*
X151932038Y-41177422D02*
X151932038Y-41298375D01*
X151932038Y-41298375D02*
X151871561Y-41479803D01*
X151871561Y-41479803D02*
X151145847Y-42205518D01*
X151145847Y-42205518D02*
X151932038Y-42205518D01*
D10*
X37955309Y-36103205D02*
X38431499Y-36103205D01*
X37860071Y-36388920D02*
X38193404Y-35388920D01*
X38193404Y-35388920D02*
X38526737Y-36388920D01*
X38860071Y-36388920D02*
X38860071Y-35388920D01*
X38860071Y-35388920D02*
X39193404Y-36103205D01*
X39193404Y-36103205D02*
X39526737Y-35388920D01*
X39526737Y-35388920D02*
X39526737Y-36388920D01*
X40336261Y-35865110D02*
X40479118Y-35912729D01*
X40479118Y-35912729D02*
X40526737Y-35960348D01*
X40526737Y-35960348D02*
X40574356Y-36055586D01*
X40574356Y-36055586D02*
X40574356Y-36198443D01*
X40574356Y-36198443D02*
X40526737Y-36293681D01*
X40526737Y-36293681D02*
X40479118Y-36341301D01*
X40479118Y-36341301D02*
X40383880Y-36388920D01*
X40383880Y-36388920D02*
X40002928Y-36388920D01*
X40002928Y-36388920D02*
X40002928Y-35388920D01*
X40002928Y-35388920D02*
X40336261Y-35388920D01*
X40336261Y-35388920D02*
X40431499Y-35436539D01*
X40431499Y-35436539D02*
X40479118Y-35484158D01*
X40479118Y-35484158D02*
X40526737Y-35579396D01*
X40526737Y-35579396D02*
X40526737Y-35674634D01*
X40526737Y-35674634D02*
X40479118Y-35769872D01*
X40479118Y-35769872D02*
X40431499Y-35817491D01*
X40431499Y-35817491D02*
X40336261Y-35865110D01*
X40336261Y-35865110D02*
X40002928Y-35865110D01*
X41002928Y-35865110D02*
X41336261Y-35865110D01*
X41479118Y-36388920D02*
X41002928Y-36388920D01*
X41002928Y-36388920D02*
X41002928Y-35388920D01*
X41002928Y-35388920D02*
X41479118Y-35388920D01*
X42479118Y-36388920D02*
X42145785Y-35912729D01*
X41907690Y-36388920D02*
X41907690Y-35388920D01*
X41907690Y-35388920D02*
X42288642Y-35388920D01*
X42288642Y-35388920D02*
X42383880Y-35436539D01*
X42383880Y-35436539D02*
X42431499Y-35484158D01*
X42431499Y-35484158D02*
X42479118Y-35579396D01*
X42479118Y-35579396D02*
X42479118Y-35722253D01*
X42479118Y-35722253D02*
X42431499Y-35817491D01*
X42431499Y-35817491D02*
X42383880Y-35865110D01*
X42383880Y-35865110D02*
X42288642Y-35912729D01*
X42288642Y-35912729D02*
X41907690Y-35912729D01*
X42669595Y-36484158D02*
X43431499Y-36484158D01*
X44145785Y-36388920D02*
X43669595Y-36388920D01*
X43669595Y-36388920D02*
X43669595Y-35388920D01*
X44479119Y-35865110D02*
X44812452Y-35865110D01*
X44955309Y-36388920D02*
X44479119Y-36388920D01*
X44479119Y-36388920D02*
X44479119Y-35388920D01*
X44479119Y-35388920D02*
X44955309Y-35388920D01*
X45383881Y-36388920D02*
X45383881Y-35388920D01*
X45383881Y-35388920D02*
X45621976Y-35388920D01*
X45621976Y-35388920D02*
X45764833Y-35436539D01*
X45764833Y-35436539D02*
X45860071Y-35531777D01*
X45860071Y-35531777D02*
X45907690Y-35627015D01*
X45907690Y-35627015D02*
X45955309Y-35817491D01*
X45955309Y-35817491D02*
X45955309Y-35960348D01*
X45955309Y-35960348D02*
X45907690Y-36150824D01*
X45907690Y-36150824D02*
X45860071Y-36246062D01*
X45860071Y-36246062D02*
X45764833Y-36341301D01*
X45764833Y-36341301D02*
X45621976Y-36388920D01*
X45621976Y-36388920D02*
X45383881Y-36388920D01*
X46812452Y-35388920D02*
X46621976Y-35388920D01*
X46621976Y-35388920D02*
X46526738Y-35436539D01*
X46526738Y-35436539D02*
X46479119Y-35484158D01*
X46479119Y-35484158D02*
X46383881Y-35627015D01*
X46383881Y-35627015D02*
X46336262Y-35817491D01*
X46336262Y-35817491D02*
X46336262Y-36198443D01*
X46336262Y-36198443D02*
X46383881Y-36293681D01*
X46383881Y-36293681D02*
X46431500Y-36341301D01*
X46431500Y-36341301D02*
X46526738Y-36388920D01*
X46526738Y-36388920D02*
X46717214Y-36388920D01*
X46717214Y-36388920D02*
X46812452Y-36341301D01*
X46812452Y-36341301D02*
X46860071Y-36293681D01*
X46860071Y-36293681D02*
X46907690Y-36198443D01*
X46907690Y-36198443D02*
X46907690Y-35960348D01*
X46907690Y-35960348D02*
X46860071Y-35865110D01*
X46860071Y-35865110D02*
X46812452Y-35817491D01*
X46812452Y-35817491D02*
X46717214Y-35769872D01*
X46717214Y-35769872D02*
X46526738Y-35769872D01*
X46526738Y-35769872D02*
X46431500Y-35817491D01*
X46431500Y-35817491D02*
X46383881Y-35865110D01*
X46383881Y-35865110D02*
X46336262Y-35960348D01*
X128521905Y-113397419D02*
X128521905Y-114206942D01*
X128521905Y-114206942D02*
X128569524Y-114302180D01*
X128569524Y-114302180D02*
X128617143Y-114349800D01*
X128617143Y-114349800D02*
X128712381Y-114397419D01*
X128712381Y-114397419D02*
X128902857Y-114397419D01*
X128902857Y-114397419D02*
X128998095Y-114349800D01*
X128998095Y-114349800D02*
X129045714Y-114302180D01*
X129045714Y-114302180D02*
X129093333Y-114206942D01*
X129093333Y-114206942D02*
X129093333Y-113397419D01*
X129474286Y-113397419D02*
X130093333Y-113397419D01*
X130093333Y-113397419D02*
X129760000Y-113778371D01*
X129760000Y-113778371D02*
X129902857Y-113778371D01*
X129902857Y-113778371D02*
X129998095Y-113825990D01*
X129998095Y-113825990D02*
X130045714Y-113873609D01*
X130045714Y-113873609D02*
X130093333Y-113968847D01*
X130093333Y-113968847D02*
X130093333Y-114206942D01*
X130093333Y-114206942D02*
X130045714Y-114302180D01*
X130045714Y-114302180D02*
X129998095Y-114349800D01*
X129998095Y-114349800D02*
X129902857Y-114397419D01*
X129902857Y-114397419D02*
X129617143Y-114397419D01*
X129617143Y-114397419D02*
X129521905Y-114349800D01*
X129521905Y-114349800D02*
X129474286Y-114302180D01*
X131045714Y-114397419D02*
X130474286Y-114397419D01*
X130760000Y-114397419D02*
X130760000Y-113397419D01*
X130760000Y-113397419D02*
X130664762Y-113540276D01*
X130664762Y-113540276D02*
X130569524Y-113635514D01*
X130569524Y-113635514D02*
X130474286Y-113683133D01*
X37081905Y-133717419D02*
X37081905Y-134526942D01*
X37081905Y-134526942D02*
X37129524Y-134622180D01*
X37129524Y-134622180D02*
X37177143Y-134669800D01*
X37177143Y-134669800D02*
X37272381Y-134717419D01*
X37272381Y-134717419D02*
X37462857Y-134717419D01*
X37462857Y-134717419D02*
X37558095Y-134669800D01*
X37558095Y-134669800D02*
X37605714Y-134622180D01*
X37605714Y-134622180D02*
X37653333Y-134526942D01*
X37653333Y-134526942D02*
X37653333Y-133717419D01*
X38653333Y-134717419D02*
X38081905Y-134717419D01*
X38367619Y-134717419D02*
X38367619Y-133717419D01*
X38367619Y-133717419D02*
X38272381Y-133860276D01*
X38272381Y-133860276D02*
X38177143Y-133955514D01*
X38177143Y-133955514D02*
X38081905Y-134003133D01*
X39272381Y-133717419D02*
X39367619Y-133717419D01*
X39367619Y-133717419D02*
X39462857Y-133765038D01*
X39462857Y-133765038D02*
X39510476Y-133812657D01*
X39510476Y-133812657D02*
X39558095Y-133907895D01*
X39558095Y-133907895D02*
X39605714Y-134098371D01*
X39605714Y-134098371D02*
X39605714Y-134336466D01*
X39605714Y-134336466D02*
X39558095Y-134526942D01*
X39558095Y-134526942D02*
X39510476Y-134622180D01*
X39510476Y-134622180D02*
X39462857Y-134669800D01*
X39462857Y-134669800D02*
X39367619Y-134717419D01*
X39367619Y-134717419D02*
X39272381Y-134717419D01*
X39272381Y-134717419D02*
X39177143Y-134669800D01*
X39177143Y-134669800D02*
X39129524Y-134622180D01*
X39129524Y-134622180D02*
X39081905Y-134526942D01*
X39081905Y-134526942D02*
X39034286Y-134336466D01*
X39034286Y-134336466D02*
X39034286Y-134098371D01*
X39034286Y-134098371D02*
X39081905Y-133907895D01*
X39081905Y-133907895D02*
X39129524Y-133812657D01*
X39129524Y-133812657D02*
X39177143Y-133765038D01*
X39177143Y-133765038D02*
X39272381Y-133717419D01*
X142718095Y-54877419D02*
X142718095Y-55686942D01*
X142718095Y-55686942D02*
X142765714Y-55782180D01*
X142765714Y-55782180D02*
X142813333Y-55829800D01*
X142813333Y-55829800D02*
X142908571Y-55877419D01*
X142908571Y-55877419D02*
X143099047Y-55877419D01*
X143099047Y-55877419D02*
X143194285Y-55829800D01*
X143194285Y-55829800D02*
X143241904Y-55782180D01*
X143241904Y-55782180D02*
X143289523Y-55686942D01*
X143289523Y-55686942D02*
X143289523Y-54877419D01*
X144289523Y-55877419D02*
X143718095Y-55877419D01*
X144003809Y-55877419D02*
X144003809Y-54877419D01*
X144003809Y-54877419D02*
X143908571Y-55020276D01*
X143908571Y-55020276D02*
X143813333Y-55115514D01*
X143813333Y-55115514D02*
X143718095Y-55163133D01*
X66942580Y-138901905D02*
X66133057Y-138901905D01*
X66133057Y-138901905D02*
X66037819Y-138949524D01*
X66037819Y-138949524D02*
X65990200Y-138997143D01*
X65990200Y-138997143D02*
X65942580Y-139092381D01*
X65942580Y-139092381D02*
X65942580Y-139282857D01*
X65942580Y-139282857D02*
X65990200Y-139378095D01*
X65990200Y-139378095D02*
X66037819Y-139425714D01*
X66037819Y-139425714D02*
X66133057Y-139473333D01*
X66133057Y-139473333D02*
X66942580Y-139473333D01*
X65942580Y-140473333D02*
X65942580Y-139901905D01*
X65942580Y-140187619D02*
X66942580Y-140187619D01*
X66942580Y-140187619D02*
X66799723Y-140092381D01*
X66799723Y-140092381D02*
X66704485Y-139997143D01*
X66704485Y-139997143D02*
X66656866Y-139901905D01*
X65942580Y-141425714D02*
X65942580Y-140854286D01*
X65942580Y-141140000D02*
X66942580Y-141140000D01*
X66942580Y-141140000D02*
X66799723Y-141044762D01*
X66799723Y-141044762D02*
X66704485Y-140949524D01*
X66704485Y-140949524D02*
X66656866Y-140854286D01*
X79642580Y-138681905D02*
X78833057Y-138681905D01*
X78833057Y-138681905D02*
X78737819Y-138729524D01*
X78737819Y-138729524D02*
X78690200Y-138777143D01*
X78690200Y-138777143D02*
X78642580Y-138872381D01*
X78642580Y-138872381D02*
X78642580Y-139062857D01*
X78642580Y-139062857D02*
X78690200Y-139158095D01*
X78690200Y-139158095D02*
X78737819Y-139205714D01*
X78737819Y-139205714D02*
X78833057Y-139253333D01*
X78833057Y-139253333D02*
X79642580Y-139253333D01*
X79547342Y-139681905D02*
X79594961Y-139729524D01*
X79594961Y-139729524D02*
X79642580Y-139824762D01*
X79642580Y-139824762D02*
X79642580Y-140062857D01*
X79642580Y-140062857D02*
X79594961Y-140158095D01*
X79594961Y-140158095D02*
X79547342Y-140205714D01*
X79547342Y-140205714D02*
X79452104Y-140253333D01*
X79452104Y-140253333D02*
X79356866Y-140253333D01*
X79356866Y-140253333D02*
X79214009Y-140205714D01*
X79214009Y-140205714D02*
X78642580Y-139634286D01*
X78642580Y-139634286D02*
X78642580Y-140253333D01*
X79642580Y-140586667D02*
X79642580Y-141253333D01*
X79642580Y-141253333D02*
X78642580Y-140824762D01*
X95022580Y-138681905D02*
X94213057Y-138681905D01*
X94213057Y-138681905D02*
X94117819Y-138729524D01*
X94117819Y-138729524D02*
X94070200Y-138777143D01*
X94070200Y-138777143D02*
X94022580Y-138872381D01*
X94022580Y-138872381D02*
X94022580Y-139062857D01*
X94022580Y-139062857D02*
X94070200Y-139158095D01*
X94070200Y-139158095D02*
X94117819Y-139205714D01*
X94117819Y-139205714D02*
X94213057Y-139253333D01*
X94213057Y-139253333D02*
X95022580Y-139253333D01*
X94022580Y-140253333D02*
X94022580Y-139681905D01*
X94022580Y-139967619D02*
X95022580Y-139967619D01*
X95022580Y-139967619D02*
X94879723Y-139872381D01*
X94879723Y-139872381D02*
X94784485Y-139777143D01*
X94784485Y-139777143D02*
X94736866Y-139681905D01*
X94927342Y-140634286D02*
X94974961Y-140681905D01*
X94974961Y-140681905D02*
X95022580Y-140777143D01*
X95022580Y-140777143D02*
X95022580Y-141015238D01*
X95022580Y-141015238D02*
X94974961Y-141110476D01*
X94974961Y-141110476D02*
X94927342Y-141158095D01*
X94927342Y-141158095D02*
X94832104Y-141205714D01*
X94832104Y-141205714D02*
X94736866Y-141205714D01*
X94736866Y-141205714D02*
X94594009Y-141158095D01*
X94594009Y-141158095D02*
X94022580Y-140586667D01*
X94022580Y-140586667D02*
X94022580Y-141205714D01*
X143761905Y-67677419D02*
X143761905Y-68486942D01*
X143761905Y-68486942D02*
X143809524Y-68582180D01*
X143809524Y-68582180D02*
X143857143Y-68629800D01*
X143857143Y-68629800D02*
X143952381Y-68677419D01*
X143952381Y-68677419D02*
X144142857Y-68677419D01*
X144142857Y-68677419D02*
X144238095Y-68629800D01*
X144238095Y-68629800D02*
X144285714Y-68582180D01*
X144285714Y-68582180D02*
X144333333Y-68486942D01*
X144333333Y-68486942D02*
X144333333Y-67677419D01*
X145333333Y-68677419D02*
X144761905Y-68677419D01*
X145047619Y-68677419D02*
X145047619Y-67677419D01*
X145047619Y-67677419D02*
X144952381Y-67820276D01*
X144952381Y-67820276D02*
X144857143Y-67915514D01*
X144857143Y-67915514D02*
X144761905Y-67963133D01*
X145666667Y-67677419D02*
X146333333Y-67677419D01*
X146333333Y-67677419D02*
X145904762Y-68677419D01*
X37558095Y-126097419D02*
X37558095Y-126906942D01*
X37558095Y-126906942D02*
X37605714Y-127002180D01*
X37605714Y-127002180D02*
X37653333Y-127049800D01*
X37653333Y-127049800D02*
X37748571Y-127097419D01*
X37748571Y-127097419D02*
X37939047Y-127097419D01*
X37939047Y-127097419D02*
X38034285Y-127049800D01*
X38034285Y-127049800D02*
X38081904Y-127002180D01*
X38081904Y-127002180D02*
X38129523Y-126906942D01*
X38129523Y-126906942D02*
X38129523Y-126097419D01*
X38653333Y-127097419D02*
X38843809Y-127097419D01*
X38843809Y-127097419D02*
X38939047Y-127049800D01*
X38939047Y-127049800D02*
X38986666Y-127002180D01*
X38986666Y-127002180D02*
X39081904Y-126859323D01*
X39081904Y-126859323D02*
X39129523Y-126668847D01*
X39129523Y-126668847D02*
X39129523Y-126287895D01*
X39129523Y-126287895D02*
X39081904Y-126192657D01*
X39081904Y-126192657D02*
X39034285Y-126145038D01*
X39034285Y-126145038D02*
X38939047Y-126097419D01*
X38939047Y-126097419D02*
X38748571Y-126097419D01*
X38748571Y-126097419D02*
X38653333Y-126145038D01*
X38653333Y-126145038D02*
X38605714Y-126192657D01*
X38605714Y-126192657D02*
X38558095Y-126287895D01*
X38558095Y-126287895D02*
X38558095Y-126525990D01*
X38558095Y-126525990D02*
X38605714Y-126621228D01*
X38605714Y-126621228D02*
X38653333Y-126668847D01*
X38653333Y-126668847D02*
X38748571Y-126716466D01*
X38748571Y-126716466D02*
X38939047Y-126716466D01*
X38939047Y-126716466D02*
X39034285Y-126668847D01*
X39034285Y-126668847D02*
X39081904Y-126621228D01*
X39081904Y-126621228D02*
X39129523Y-126525990D01*
X73800000Y-48040000D02*
X78800000Y-48040000D01*
X78800000Y-33040000D01*
X73800000Y-33040000D01*
X73800000Y-48040000D01*
X145000000Y-124600000D02*
X160000000Y-124600000D01*
X160000000Y-129600000D01*
X145000000Y-129600000D01*
X145000000Y-124600000D01*
X43895000Y-119370000D02*
X43895000Y-121170000D01*
D13*
X44320000Y-122770000D02*
X44320000Y-122770000D01*
X44420000Y-122770000D02*
X44420000Y-122770000D01*
D10*
X46270000Y-119570000D02*
X46270000Y-121170000D01*
D13*
X44320000Y-122770000D02*
G75*
G02*
X44420000Y-122770000I50000J0D01*
G01*
X44420000Y-122770000D02*
G75*
G02*
X44320000Y-122770000I-50000J0D01*
G01*
D10*
X109080000Y-139920000D02*
X104080000Y-139920000D01*
X104080000Y-154920000D01*
X109080000Y-154920000D01*
X109080000Y-139920000D01*
X110460000Y-134660000D02*
X125460000Y-134660000D01*
X125460000Y-139660000D01*
X110460000Y-139660000D01*
X110460000Y-134660000D01*
X158868499Y-39531500D02*
X155568500Y-39531500D01*
X155568500Y-36431500D01*
X158868499Y-36431500D01*
X158868499Y-39531500D01*
X69889100Y-146320000D02*
X69889100Y-148120000D01*
D13*
X70314100Y-149720000D02*
X70314100Y-149720000D01*
X70414100Y-149720000D02*
X70414100Y-149720000D01*
D10*
X72264100Y-146520000D02*
X72264100Y-148120000D01*
D13*
X70314100Y-149720000D02*
G75*
G02*
X70414100Y-149720000I50000J0D01*
G01*
X70414100Y-149720000D02*
G75*
G02*
X70314100Y-149720000I-50000J0D01*
G01*
D10*
X46206200Y-143618800D02*
X46206200Y-145418800D01*
D13*
X46631200Y-147018800D02*
X46631200Y-147018800D01*
X46731200Y-147018800D02*
X46731200Y-147018800D01*
D10*
X48581200Y-143818800D02*
X48581200Y-145418800D01*
D13*
X46631200Y-147018800D02*
G75*
G02*
X46731200Y-147018800I50000J0D01*
G01*
X46731200Y-147018800D02*
G75*
G02*
X46631200Y-147018800I-50000J0D01*
G01*
D10*
X158750000Y-92430000D02*
X162050000Y-92430000D01*
X162050000Y-95530000D01*
X158750000Y-95530000D01*
X158750000Y-92430000D01*
X41902800Y-65485300D02*
X38602800Y-65485301D01*
X38602800Y-62385300D01*
X41902799Y-62385300D01*
X41902800Y-65485300D01*
X45731499Y-152668500D02*
X42431500Y-152668500D01*
X42431500Y-149568500D01*
X45731499Y-149568500D01*
X45731499Y-152668500D01*
X58280000Y-140140000D02*
X53280000Y-140140000D01*
X53280000Y-155140000D01*
X58280000Y-155140000D01*
X58280000Y-140140000D01*
X149335000Y-116830000D02*
X149335000Y-118630000D01*
D13*
X149760000Y-120230000D02*
X149760000Y-120230000D01*
X149860000Y-120230000D02*
X149860000Y-120230000D01*
D10*
X151710000Y-117030000D02*
X151710000Y-118630000D01*
D13*
X149760000Y-120230000D02*
G75*
G02*
X149860000Y-120230000I50000J0D01*
G01*
X149860000Y-120230000D02*
G75*
G02*
X149760000Y-120230000I-50000J0D01*
G01*
D10*
X46206200Y-40381200D02*
X46206200Y-42181200D01*
D13*
X46631200Y-43781200D02*
X46631200Y-43781200D01*
X46731200Y-43781200D02*
X46731200Y-43781200D01*
D10*
X48581200Y-40581200D02*
X48581200Y-42181200D01*
D13*
X46631200Y-43781200D02*
G75*
G02*
X46731200Y-43781200I50000J0D01*
G01*
X46731200Y-43781200D02*
G75*
G02*
X46631200Y-43781200I-50000J0D01*
G01*
D10*
X38320000Y-68720000D02*
X53320000Y-68720000D01*
X53320000Y-73720000D01*
X38320000Y-73720000D01*
X38320000Y-68720000D01*
X142280000Y-44180000D02*
X147280000Y-44180000D01*
X147280000Y-29180000D01*
X142280000Y-29180000D01*
X142280000Y-44180000D01*
X137020000Y-139920000D02*
X132020000Y-139920000D01*
X132020000Y-154920000D01*
X137020000Y-154920000D01*
X137020000Y-139920000D01*
X99000000Y-153330000D02*
X102300000Y-153330000D01*
X102300000Y-156430000D01*
X99000000Y-156430000D01*
X99000000Y-153330000D01*
X50940000Y-45500000D02*
X55940000Y-45500000D01*
X55940000Y-30500000D01*
X50940000Y-30500000D01*
X50940000Y-45500000D01*
X71741200Y-34732800D02*
X68441200Y-34732801D01*
X68441200Y-31632800D01*
X71741199Y-31632800D01*
X71741200Y-34732800D01*
X41902800Y-126148800D02*
X38602800Y-126148801D01*
X38602800Y-123048800D01*
X41902799Y-123048800D01*
X41902800Y-126148800D01*
X89040000Y-48040000D02*
X94040000Y-48040000D01*
X94040000Y-33040000D01*
X89040000Y-33040000D01*
X89040000Y-48040000D01*
X99060000Y-31100000D02*
X102360000Y-31100000D01*
X102360000Y-34200000D01*
X99060000Y-34200000D01*
X99060000Y-31100000D01*
X38990000Y-93000000D02*
X42290000Y-93000000D01*
X42290000Y-96100000D01*
X38990000Y-96100000D01*
X38990000Y-93000000D01*
X158868499Y-152668500D02*
X155568500Y-152668500D01*
X155568500Y-149568500D01*
X158868499Y-149568500D01*
X158868499Y-152668500D01*
X38320000Y-83960000D02*
X53320000Y-83960000D01*
X53320000Y-88960000D01*
X38320000Y-88960000D01*
X38320000Y-83960000D01*
X149443800Y-143618800D02*
X149443800Y-145418800D01*
D13*
X149868800Y-147018800D02*
X149868800Y-147018800D01*
X149968800Y-147018800D02*
X149968800Y-147018800D01*
D10*
X151818800Y-143818800D02*
X151818800Y-145418800D01*
D13*
X149868800Y-147018800D02*
G75*
G02*
X149968800Y-147018800I50000J0D01*
G01*
X149968800Y-147018800D02*
G75*
G02*
X149868800Y-147018800I-50000J0D01*
G01*
D10*
X97825000Y-145330000D02*
X97825000Y-147130000D01*
D13*
X98250000Y-148730000D02*
X98250000Y-148730000D01*
X98350000Y-148730000D02*
X98350000Y-148730000D01*
D10*
X100200000Y-145530000D02*
X100200000Y-147130000D01*
D13*
X98250000Y-148730000D02*
G75*
G02*
X98350000Y-148730000I50000J0D01*
G01*
X98350000Y-148730000D02*
G75*
G02*
X98250000Y-148730000I-50000J0D01*
G01*
D10*
X38320000Y-56020000D02*
X53320000Y-56020000D01*
X53320000Y-61020000D01*
X38320000Y-61020000D01*
X38320000Y-56020000D01*
X130300000Y-35722800D02*
X127000000Y-35722801D01*
X127000000Y-32622800D01*
X130299999Y-32622800D01*
X130300000Y-35722800D01*
X66040000Y-33020000D02*
X61040000Y-33020000D01*
X61040000Y-48020000D01*
X66040000Y-48020000D01*
X66040000Y-33020000D01*
X144780000Y-139700000D02*
X139780000Y-139700000D01*
X139780000Y-154700000D01*
X144780000Y-154700000D01*
X144780000Y-139700000D01*
X44815000Y-92000000D02*
X44815000Y-93800000D01*
D13*
X45240000Y-95400000D02*
X45240000Y-95400000D01*
X45340000Y-95400000D02*
X45340000Y-95400000D01*
D10*
X47190000Y-92200000D02*
X47190000Y-93800000D01*
D13*
X45240000Y-95400000D02*
G75*
G02*
X45340000Y-95400000I50000J0D01*
G01*
X45340000Y-95400000D02*
G75*
G02*
X45240000Y-95400000I-50000J0D01*
G01*
D10*
X43895000Y-64064100D02*
X43895000Y-65864100D01*
D13*
X44320000Y-67464100D02*
X44320000Y-67464100D01*
X44420000Y-67464100D02*
X44420000Y-67464100D01*
D10*
X46270000Y-64264100D02*
X46270000Y-65864100D01*
D13*
X44320000Y-67464100D02*
G75*
G02*
X44420000Y-67464100I50000J0D01*
G01*
X44420000Y-67464100D02*
G75*
G02*
X44320000Y-67464100I-50000J0D01*
G01*
D10*
X160277200Y-123608800D02*
X156977200Y-123608801D01*
X156977200Y-120508800D01*
X160277199Y-120508800D01*
X160277200Y-123608800D01*
X97885000Y-37100000D02*
X97885000Y-38900000D01*
D13*
X98310000Y-40500000D02*
X98310000Y-40500000D01*
X98410000Y-40500000D02*
X98410000Y-40500000D01*
D10*
X100260000Y-37300000D02*
X100260000Y-38900000D01*
D13*
X98310000Y-40500000D02*
G75*
G02*
X98410000Y-40500000I50000J0D01*
G01*
X98410000Y-40500000D02*
G75*
G02*
X98310000Y-40500000I-50000J0D01*
G01*
D10*
X145000000Y-83960000D02*
X160000000Y-83960000D01*
X160000000Y-88960000D01*
X145000000Y-88960000D01*
X145000000Y-83960000D01*
X69945000Y-37100000D02*
X69945000Y-38900000D01*
D13*
X70370000Y-40500000D02*
X70370000Y-40500000D01*
X70470000Y-40500000D02*
X70470000Y-40500000D01*
D10*
X72320000Y-37300000D02*
X72320000Y-38900000D01*
D13*
X70370000Y-40500000D02*
G75*
G02*
X70470000Y-40500000I50000J0D01*
G01*
X70470000Y-40500000D02*
G75*
G02*
X70370000Y-40500000I-50000J0D01*
G01*
D10*
X38320000Y-111800000D02*
X53320000Y-111800000D01*
X53320000Y-116800000D01*
X38320000Y-116800000D01*
X38320000Y-111800000D01*
X150575000Y-91430000D02*
X150575000Y-93230000D01*
D13*
X151000000Y-94830000D02*
X151000000Y-94830000D01*
X151100000Y-94830000D02*
X151100000Y-94830000D01*
D10*
X152950000Y-91630000D02*
X152950000Y-93230000D01*
D13*
X151000000Y-94830000D02*
G75*
G02*
X151100000Y-94830000I50000J0D01*
G01*
X151100000Y-94830000D02*
G75*
G02*
X151000000Y-94830000I-50000J0D01*
G01*
D10*
X145000000Y-96660000D02*
X160000000Y-96660000D01*
X160000000Y-101660000D01*
X145000000Y-101660000D01*
X145000000Y-96660000D01*
X129840000Y-156490000D02*
X126540000Y-156490001D01*
X126540000Y-153390000D01*
X129839999Y-153390000D01*
X129840000Y-156490000D01*
X109080000Y-33240000D02*
X104080000Y-33240000D01*
X104080000Y-48240000D01*
X109080000Y-48240000D01*
X109080000Y-33240000D01*
X117060000Y-48040000D02*
X122060000Y-48040000D01*
X122060000Y-33040000D01*
X117060000Y-33040000D01*
X117060000Y-48040000D01*
X125760900Y-38090000D02*
X125760900Y-39890000D01*
D13*
X126185900Y-41490000D02*
X126185900Y-41490000D01*
X126285900Y-41490000D02*
X126285900Y-41490000D01*
D10*
X128135900Y-38290000D02*
X128135900Y-39890000D01*
D13*
X126185900Y-41490000D02*
G75*
G02*
X126285900Y-41490000I50000J0D01*
G01*
X126285900Y-41490000D02*
G75*
G02*
X126185900Y-41490000I-50000J0D01*
G01*
D10*
X71685300Y-156887200D02*
X68385300Y-156887201D01*
X68385300Y-153787200D01*
X71685299Y-153787200D01*
X71685300Y-156887200D01*
X149335000Y-63490000D02*
X149335000Y-65290000D01*
D13*
X149760000Y-66890000D02*
X149760000Y-66890000D01*
X149860000Y-66890000D02*
X149860000Y-66890000D01*
D10*
X151710000Y-63690000D02*
X151710000Y-65290000D01*
D13*
X149760000Y-66890000D02*
G75*
G02*
X149860000Y-66890000I50000J0D01*
G01*
X149860000Y-66890000D02*
G75*
G02*
X149760000Y-66890000I-50000J0D01*
G01*
D10*
X38320000Y-45760000D02*
X53320000Y-45760000D01*
X53320000Y-50760000D01*
X38320000Y-50760000D01*
X38320000Y-45760000D01*
X122686200Y-145922800D02*
X122686200Y-147722800D01*
D13*
X123111200Y-149322800D02*
X123111200Y-149322800D01*
X123211200Y-149322800D02*
X123211200Y-149322800D01*
D10*
X125061200Y-146122800D02*
X125061200Y-147722800D01*
D13*
X123111200Y-149322800D02*
G75*
G02*
X123211200Y-149322800I50000J0D01*
G01*
X123211200Y-149322800D02*
G75*
G02*
X123111200Y-149322800I-50000J0D01*
G01*
D10*
X143480000Y-45760000D02*
X158480000Y-45760000D01*
X158480000Y-50760000D01*
X143480000Y-50760000D01*
X143480000Y-45760000D01*
X160277200Y-64911200D02*
X156977200Y-64911201D01*
X156977200Y-61811200D01*
X160277199Y-61811200D01*
X160277200Y-64911200D01*
X145000000Y-134760000D02*
X160000000Y-134760000D01*
X160000000Y-139760000D01*
X145000000Y-139760000D01*
X145000000Y-134760000D01*
D14*
X115670000Y-75130000D02*
X118010000Y-75130000D01*
X115670000Y-120450000D02*
X115670000Y-75130000D01*
X118010000Y-75130000D02*
X118010000Y-120450000D01*
X118010000Y-120450000D02*
X115670000Y-120450000D01*
D15*
X114770000Y-119380000D02*
G75*
G02*
X114570000Y-119380000I-100000J0D01*
G01*
X114570000Y-119380000D02*
G75*
G02*
X114770000Y-119380000I100000J0D01*
G01*
D10*
X38320000Y-96660000D02*
X53320000Y-96660000D01*
X53320000Y-101660000D01*
X38320000Y-101660000D01*
X38320000Y-96660000D01*
X132220000Y-48040000D02*
X137220000Y-48040000D01*
X137220000Y-33040000D01*
X132220000Y-33040000D01*
X132220000Y-48040000D01*
X149443800Y-40381200D02*
X149443800Y-42181200D01*
D13*
X149868800Y-43781200D02*
X149868800Y-43781200D01*
X149968800Y-43781200D02*
X149968800Y-43781200D01*
D10*
X151818800Y-40581200D02*
X151818800Y-42181200D01*
D13*
X149868800Y-43781200D02*
G75*
G02*
X149968800Y-43781200I50000J0D01*
G01*
X149968800Y-43781200D02*
G75*
G02*
X149868800Y-43781200I-50000J0D01*
G01*
D10*
X45731499Y-39531500D02*
X42431500Y-39531500D01*
X42431500Y-36431500D01*
X45731499Y-36431500D01*
X45731499Y-39531500D01*
X129760000Y-114440000D02*
X144760000Y-114440000D01*
X144760000Y-119440000D01*
X129760000Y-119440000D01*
X129760000Y-114440000D01*
X38320000Y-134760000D02*
X53320000Y-134760000D01*
X53320000Y-139760000D01*
X38320000Y-139760000D01*
X38320000Y-134760000D01*
X143480000Y-55920000D02*
X158480000Y-55920000D01*
X158480000Y-60920000D01*
X143480000Y-60920000D01*
X143480000Y-55920000D01*
X65900000Y-140140000D02*
X60900000Y-140140000D01*
X60900000Y-155140000D01*
X65900000Y-155140000D01*
X65900000Y-140140000D01*
X78600000Y-139920000D02*
X73600000Y-139920000D01*
X73600000Y-154920000D01*
X78600000Y-154920000D01*
X78600000Y-139920000D01*
X93980000Y-139920000D02*
X88980000Y-139920000D01*
X88980000Y-154920000D01*
X93980000Y-154920000D01*
X93980000Y-139920000D01*
X145000000Y-68720000D02*
X160000000Y-68720000D01*
X160000000Y-73720000D01*
X145000000Y-73720000D01*
X145000000Y-68720000D01*
X38320000Y-127140000D02*
X53320000Y-127140000D01*
X53320000Y-132140000D01*
X38320000Y-132140000D01*
X38320000Y-127140000D01*
%LPC*%
D16*
X76300000Y-47040000D03*
X76300000Y-34040000D03*
X146000000Y-127100000D03*
X159000000Y-127100000D03*
D17*
X44420000Y-121920000D03*
X45720000Y-121920000D03*
X45720000Y-118820000D03*
X44420000Y-118820000D03*
D16*
X106580000Y-140920000D03*
X106580000Y-153920000D03*
X111460000Y-137160000D03*
X124460000Y-137160000D03*
D18*
X155868501Y-37981500D03*
X158568500Y-37981500D03*
D19*
X157218500Y-37981500D03*
D17*
X70414100Y-148870000D03*
X71714100Y-148870000D03*
X71714100Y-145770000D03*
X70414100Y-145770000D03*
X46731200Y-146168800D03*
X48031200Y-146168800D03*
X48031200Y-143068800D03*
X46731200Y-143068800D03*
D18*
X159050000Y-93980000D03*
X161750000Y-93980000D03*
D19*
X160400000Y-93980000D03*
D18*
X38902800Y-63935300D03*
X41602800Y-63935300D03*
D19*
X40252800Y-63935301D03*
D18*
X42731501Y-151118500D03*
X45431500Y-151118500D03*
D19*
X44081500Y-151118500D03*
D16*
X55780000Y-141140000D03*
X55780000Y-154140000D03*
D17*
X149860000Y-119380000D03*
X151160000Y-119380000D03*
X151160000Y-116280000D03*
X149860000Y-116280000D03*
X46731200Y-42931200D03*
X48031200Y-42931200D03*
X48031200Y-39831200D03*
X46731200Y-39831200D03*
D16*
X39320000Y-71220000D03*
X52320000Y-71220000D03*
X144780000Y-43180000D03*
X144780000Y-30180000D03*
X134520000Y-140920000D03*
X134520000Y-153920000D03*
D18*
X99300000Y-154880000D03*
X102000000Y-154880000D03*
D19*
X100650000Y-154880000D03*
D16*
X53440000Y-44500000D03*
X53440000Y-31500000D03*
D18*
X68741200Y-33182800D03*
X71441200Y-33182801D03*
D19*
X70091200Y-33182800D03*
D18*
X38902800Y-124598800D03*
X41602800Y-124598801D03*
D19*
X40252800Y-124598800D03*
D16*
X91540000Y-47040000D03*
X91540000Y-34040000D03*
D18*
X99360000Y-32650000D03*
X102060000Y-32650000D03*
D19*
X100710000Y-32650000D03*
D18*
X39290000Y-94550000D03*
X41990000Y-94550000D03*
D19*
X40640000Y-94550000D03*
D18*
X155868501Y-151118500D03*
X158568500Y-151118500D03*
D19*
X157218500Y-151118500D03*
D16*
X39320000Y-86460000D03*
X52320000Y-86460000D03*
D17*
X149968800Y-146168800D03*
X151268800Y-146168800D03*
X151268800Y-143068800D03*
X149968800Y-143068800D03*
X98350000Y-147880000D03*
X99650000Y-147880000D03*
X99650000Y-144780000D03*
X98350000Y-144780000D03*
D16*
X39320000Y-58520000D03*
X52320000Y-58520000D03*
D18*
X127300000Y-34172800D03*
X130000000Y-34172800D03*
D19*
X128650000Y-34172801D03*
D16*
X63540000Y-34020000D03*
X63540000Y-47020000D03*
X142280000Y-140700000D03*
X142280000Y-153700000D03*
D17*
X45340000Y-94550000D03*
X46640000Y-94550000D03*
X46640000Y-91450000D03*
X45340000Y-91450000D03*
X44420000Y-66614100D03*
X45720000Y-66614100D03*
X45720000Y-63514100D03*
X44420000Y-63514100D03*
D18*
X157277200Y-122058800D03*
X159977200Y-122058800D03*
D19*
X158627200Y-122058801D03*
D17*
X98410000Y-39650000D03*
X99710000Y-39650000D03*
X99710000Y-36550000D03*
X98410000Y-36550000D03*
D16*
X146000000Y-86460000D03*
X159000000Y-86460000D03*
D17*
X70470000Y-39650000D03*
X71770000Y-39650000D03*
X71770000Y-36550000D03*
X70470000Y-36550000D03*
D16*
X39320000Y-114300000D03*
X52320000Y-114300000D03*
D17*
X151100000Y-93980000D03*
X152400000Y-93980000D03*
X152400000Y-90880000D03*
X151100000Y-90880000D03*
D16*
X146000000Y-99160000D03*
X159000000Y-99160000D03*
D18*
X126840000Y-154940000D03*
X129540000Y-154940001D03*
D19*
X128190000Y-154940000D03*
D16*
X106580000Y-34240000D03*
X106580000Y-47240000D03*
X119560000Y-47040000D03*
X119560000Y-34040000D03*
D17*
X126285900Y-40640000D03*
X127585900Y-40640000D03*
X127585900Y-37540000D03*
X126285900Y-37540000D03*
D18*
X68685300Y-155337200D03*
X71385300Y-155337200D03*
D19*
X70035300Y-155337201D03*
D17*
X149860000Y-66040000D03*
X151160000Y-66040000D03*
X151160000Y-62940000D03*
X149860000Y-62940000D03*
D16*
X39320000Y-48260000D03*
X52320000Y-48260000D03*
D17*
X123211200Y-148472800D03*
X124511200Y-148472800D03*
X124511200Y-145372800D03*
X123211200Y-145372800D03*
D16*
X144480000Y-48260000D03*
X157480000Y-48260000D03*
D18*
X157277200Y-63361200D03*
X159977200Y-63361201D03*
D19*
X158627200Y-63361200D03*
D16*
X146000000Y-137260000D03*
X159000000Y-137260000D03*
D20*
X116840000Y-119380000D03*
D21*
X116840000Y-116840000D03*
X116840000Y-114300000D03*
X116840000Y-111760000D03*
X116840000Y-109220000D03*
X116840000Y-106680000D03*
X116840000Y-104140000D03*
X116840000Y-101600000D03*
X116840000Y-99060000D03*
X116840000Y-96520000D03*
X116840000Y-93980000D03*
X116840000Y-91440000D03*
X116840000Y-88900000D03*
X116840000Y-86360000D03*
X116840000Y-83820000D03*
X116840000Y-81280000D03*
X116840000Y-78740000D03*
X116840000Y-76200000D03*
D16*
X39320000Y-99160000D03*
X52320000Y-99160000D03*
X134720000Y-47040000D03*
X134720000Y-34040000D03*
D17*
X149968800Y-42931200D03*
X151268800Y-42931200D03*
X151268800Y-39831200D03*
X149968800Y-39831200D03*
D18*
X42731501Y-37981500D03*
X45431500Y-37981500D03*
D19*
X44081500Y-37981500D03*
D16*
X130760000Y-116940000D03*
X143760000Y-116940000D03*
X39320000Y-137260000D03*
X52320000Y-137260000D03*
X144480000Y-58420000D03*
X157480000Y-58420000D03*
X63400000Y-141140000D03*
X63400000Y-154140000D03*
X76100000Y-140920000D03*
X76100000Y-153920000D03*
X91480000Y-140920000D03*
X91480000Y-153920000D03*
X146000000Y-71220000D03*
X159000000Y-71220000D03*
X39320000Y-129640000D03*
X52320000Y-129640000D03*
%LPD*%
M02*
