G04 #@! TF.GenerationSoftware,KiCad,Pcbnew,8.0.5*
G04 #@! TF.CreationDate,2024-12-27T19:58:17-05:00*
G04 #@! TF.ProjectId,line_sensor_pcb,6c696e65-5f73-4656-9e73-6f725f706362,rev?*
G04 #@! TF.SameCoordinates,Original*
G04 #@! TF.FileFunction,Profile,NP*
%FSLAX46Y46*%
G04 Gerber Fmt 4.6, Leading zero omitted, Abs format (unit mm)*
G04 Created by KiCad (PCBNEW 8.0.5) date 2024-12-27 19:58:17*
%MOMM*%
%LPD*%
G01*
G04 APERTURE LIST*
G04 #@! TA.AperFunction,Profile*
%ADD10C,0.200000*%
G04 #@! TD*
G04 APERTURE END LIST*
D10*
X67731784Y-30297000D02*
X67731784Y-11940698D01*
X158756255Y-76813331D02*
G75*
G02*
X155256255Y-76813331I-1750000J0D01*
G01*
X155256255Y-76813331D02*
G75*
G02*
X158756255Y-76813331I1750000J0D01*
G01*
X35560000Y-124460000D02*
X16987614Y-124460000D01*
X129894784Y-30297000D02*
X67731784Y-30297000D01*
X50056255Y-109813331D02*
G75*
G02*
X46556255Y-109813331I-1750000J0D01*
G01*
X46556255Y-109813331D02*
G75*
G02*
X50056255Y-109813331I1750000J0D01*
G01*
X103511844Y-98781822D02*
X76200000Y-124460000D01*
X42056255Y-76813331D02*
G75*
G02*
X38556255Y-76813331I-1750000J0D01*
G01*
X38556255Y-76813331D02*
G75*
G02*
X42056255Y-76813331I1750000J0D01*
G01*
X17232133Y-62297000D02*
G75*
G02*
X67731785Y-11940702I81670577J-31403220D01*
G01*
X162560000Y-124460000D02*
X162560000Y-62297000D01*
X129894784Y-157297000D02*
X129894784Y-175527752D01*
X62136645Y-26354217D02*
G75*
G02*
X54136645Y-26354217I-4000000J0D01*
G01*
X54136645Y-26354217D02*
G75*
G02*
X62136645Y-26354217I4000000J0D01*
G01*
X60675524Y-46322164D02*
G75*
G02*
X57175524Y-46322164I-1750000J0D01*
G01*
X57175524Y-46322164D02*
G75*
G02*
X60675524Y-46322164I1750000J0D01*
G01*
X116834999Y-143754377D02*
G75*
G02*
X113334999Y-143754377I-1750000J0D01*
G01*
X113334999Y-143754377D02*
G75*
G02*
X116834999Y-143754377I1750000J0D01*
G01*
X116834999Y-35754377D02*
G75*
G02*
X113334999Y-35754377I-1750000J0D01*
G01*
X113334999Y-35754377D02*
G75*
G02*
X116834999Y-35754377I1750000J0D01*
G01*
X67731784Y-175459770D02*
X67731784Y-157297000D01*
X34760077Y-134420449D02*
G75*
G02*
X26760077Y-134420449I-4000000J0D01*
G01*
X26760077Y-134420449D02*
G75*
G02*
X34760077Y-134420449I4000000J0D01*
G01*
X103511844Y-88781822D02*
X103511844Y-98781822D01*
X142136645Y-26354217D02*
G75*
G02*
X134136645Y-26354217I-4000000J0D01*
G01*
X134136645Y-26354217D02*
G75*
G02*
X142136645Y-26354217I4000000J0D01*
G01*
X142136645Y-161354217D02*
G75*
G02*
X134136645Y-161354217I-4000000J0D01*
G01*
X134136645Y-161354217D02*
G75*
G02*
X142136645Y-161354217I4000000J0D01*
G01*
X150756255Y-109813331D02*
G75*
G02*
X147256255Y-109813331I-1750000J0D01*
G01*
X147256255Y-109813331D02*
G75*
G02*
X150756255Y-109813331I1750000J0D01*
G01*
X162560000Y-62297000D02*
X180573330Y-62297000D01*
X67731784Y-157297000D02*
X129894784Y-157297000D01*
X50056255Y-76813331D02*
G75*
G02*
X46556255Y-76813331I-1750000J0D01*
G01*
X46556255Y-76813331D02*
G75*
G02*
X50056255Y-76813331I1750000J0D01*
G01*
X180817850Y-124460000D02*
X162560000Y-124460000D01*
X180817850Y-124460000D02*
G75*
G02*
X129894783Y-175527750I-81915120J30759770D01*
G01*
X158756255Y-109813331D02*
G75*
G02*
X155256255Y-109813331I-1750000J0D01*
G01*
X155256255Y-109813331D02*
G75*
G02*
X158756255Y-109813331I1750000J0D01*
G01*
X129894784Y-11872720D02*
G75*
G02*
X180573330Y-62297000I-30992034J-81827500D01*
G01*
X83834999Y-143754377D02*
G75*
G02*
X80334999Y-143754377I-1750000J0D01*
G01*
X80334999Y-143754377D02*
G75*
G02*
X83834999Y-143754377I1750000J0D01*
G01*
X83834999Y-35754377D02*
G75*
G02*
X80334999Y-35754377I-1750000J0D01*
G01*
X80334999Y-35754377D02*
G75*
G02*
X83834999Y-35754377I1750000J0D01*
G01*
X35560000Y-62297000D02*
X35560000Y-124460000D01*
X83834999Y-151754377D02*
G75*
G02*
X80334999Y-151754377I-1750000J0D01*
G01*
X80334999Y-151754377D02*
G75*
G02*
X83834999Y-151754377I1750000J0D01*
G01*
X62136645Y-161354217D02*
G75*
G02*
X54136645Y-161354217I-4000000J0D01*
G01*
X54136645Y-161354217D02*
G75*
G02*
X62136645Y-161354217I4000000J0D01*
G01*
X42056255Y-109813331D02*
G75*
G02*
X38556255Y-109813331I-1750000J0D01*
G01*
X38556255Y-109813331D02*
G75*
G02*
X42056255Y-109813331I1750000J0D01*
G01*
X116834999Y-151754377D02*
G75*
G02*
X113334999Y-151754377I-1750000J0D01*
G01*
X113334999Y-151754377D02*
G75*
G02*
X116834999Y-151754377I1750000J0D01*
G01*
X129894784Y-11872720D02*
X129894784Y-30297000D01*
X116834999Y-43754377D02*
G75*
G02*
X113334999Y-43754377I-1750000J0D01*
G01*
X113334999Y-43754377D02*
G75*
G02*
X116834999Y-43754377I1750000J0D01*
G01*
X76200000Y-124460000D02*
X76200000Y-88781822D01*
X169760077Y-134420449D02*
G75*
G02*
X161760077Y-134420449I-4000000J0D01*
G01*
X161760077Y-134420449D02*
G75*
G02*
X169760077Y-134420449I4000000J0D01*
G01*
X67731784Y-175459770D02*
G75*
G02*
X16987611Y-124460001I31170906J81759500D01*
G01*
X169760077Y-54420449D02*
G75*
G02*
X161760077Y-54420449I-4000000J0D01*
G01*
X161760077Y-54420449D02*
G75*
G02*
X169760077Y-54420449I4000000J0D01*
G01*
X150756255Y-76813331D02*
G75*
G02*
X147256255Y-76813331I-1750000J0D01*
G01*
X147256255Y-76813331D02*
G75*
G02*
X150756255Y-76813331I1750000J0D01*
G01*
X61834999Y-63754377D02*
G75*
G02*
X58334999Y-63754377I-1750000J0D01*
G01*
X58334999Y-63754377D02*
G75*
G02*
X61834999Y-63754377I1750000J0D01*
G01*
X34760077Y-54420449D02*
G75*
G02*
X26760077Y-54420449I-4000000J0D01*
G01*
X26760077Y-54420449D02*
G75*
G02*
X34760077Y-54420449I4000000J0D01*
G01*
X17232133Y-62297000D02*
X35560000Y-62297000D01*
X83834999Y-43754377D02*
G75*
G02*
X80334999Y-43754377I-1750000J0D01*
G01*
X80334999Y-43754377D02*
G75*
G02*
X83834999Y-43754377I1750000J0D01*
G01*
X76200000Y-88781822D02*
X103511844Y-88781822D01*
M02*
