%TF.GenerationSoftware,KiCad,Pcbnew,8.0.5*%
%TF.CreationDate,2024-12-27T19:58:19-05:00*%
%TF.ProjectId,line_sensor_pcb,6c696e65-5f73-4656-9e73-6f725f706362,rev?*%
%TF.SameCoordinates,Original*%
%TF.FileFunction,Drillmap*%
%TF.FilePolarity,Positive*%
%FSLAX45Y45*%
G04 Gerber Fmt 4.5, Leading zero omitted, Abs format (unit mm)*
G04 Created by KiCad (PCBNEW 8.0.5) date 2024-12-27 19:58:19*
%MOMM*%
%LPD*%
G01*
G04 APERTURE LIST*
%ADD10C,0.200000*%
%ADD11C,0.100000*%
G04 APERTURE END LIST*
D10*
X6773178Y-3029700D02*
X6773178Y-1194070D01*
X15875625Y-7681333D02*
G75*
G02*
X15525625Y-7681333I-175000J0D01*
G01*
X15525625Y-7681333D02*
G75*
G02*
X15875625Y-7681333I175000J0D01*
G01*
X3556000Y-12446000D02*
X1698761Y-12446000D01*
X12989478Y-3029700D02*
X6773178Y-3029700D01*
X5005626Y-10981333D02*
G75*
G02*
X4655626Y-10981333I-175000J0D01*
G01*
X4655626Y-10981333D02*
G75*
G02*
X5005626Y-10981333I175000J0D01*
G01*
X10351184Y-9878182D02*
X7620000Y-12446000D01*
X4205626Y-7681333D02*
G75*
G02*
X3855625Y-7681333I-175000J0D01*
G01*
X3855625Y-7681333D02*
G75*
G02*
X4205626Y-7681333I175000J0D01*
G01*
X1723213Y-6229700D02*
G75*
G02*
X6773178Y-1194070I8167058J-3140322D01*
G01*
X16256000Y-12446000D02*
X16256000Y-6229700D01*
X12989478Y-15729700D02*
X12989478Y-17552775D01*
X6213664Y-2635422D02*
G75*
G02*
X5413665Y-2635422I-400000J0D01*
G01*
X5413665Y-2635422D02*
G75*
G02*
X6213664Y-2635422I400000J0D01*
G01*
X6067552Y-4632216D02*
G75*
G02*
X5717552Y-4632216I-175000J0D01*
G01*
X5717552Y-4632216D02*
G75*
G02*
X6067552Y-4632216I175000J0D01*
G01*
X11683500Y-14375438D02*
G75*
G02*
X11333500Y-14375438I-175000J0D01*
G01*
X11333500Y-14375438D02*
G75*
G02*
X11683500Y-14375438I175000J0D01*
G01*
X11683500Y-3575438D02*
G75*
G02*
X11333500Y-3575438I-175000J0D01*
G01*
X11333500Y-3575438D02*
G75*
G02*
X11683500Y-3575438I175000J0D01*
G01*
X6773178Y-17545977D02*
X6773178Y-15729700D01*
X3476008Y-13442045D02*
G75*
G02*
X2676008Y-13442045I-400000J0D01*
G01*
X2676008Y-13442045D02*
G75*
G02*
X3476008Y-13442045I400000J0D01*
G01*
X10351184Y-8878182D02*
X10351184Y-9878182D01*
X14213664Y-2635422D02*
G75*
G02*
X13413664Y-2635422I-400000J0D01*
G01*
X13413664Y-2635422D02*
G75*
G02*
X14213664Y-2635422I400000J0D01*
G01*
X14213664Y-16135422D02*
G75*
G02*
X13413664Y-16135422I-400000J0D01*
G01*
X13413664Y-16135422D02*
G75*
G02*
X14213664Y-16135422I400000J0D01*
G01*
X15075625Y-10981333D02*
G75*
G02*
X14725625Y-10981333I-175000J0D01*
G01*
X14725625Y-10981333D02*
G75*
G02*
X15075625Y-10981333I175000J0D01*
G01*
X16256000Y-6229700D02*
X18057333Y-6229700D01*
X6773178Y-15729700D02*
X12989478Y-15729700D01*
X5005626Y-7681333D02*
G75*
G02*
X4655626Y-7681333I-175000J0D01*
G01*
X4655626Y-7681333D02*
G75*
G02*
X5005626Y-7681333I175000J0D01*
G01*
X18081785Y-12446000D02*
X16256000Y-12446000D01*
X18081785Y-12446000D02*
G75*
G02*
X12989478Y-17552775I-8191512J3075977D01*
G01*
X15875625Y-10981333D02*
G75*
G02*
X15525625Y-10981333I-175000J0D01*
G01*
X15525625Y-10981333D02*
G75*
G02*
X15875625Y-10981333I175000J0D01*
G01*
X12989478Y-1187272D02*
G75*
G02*
X18057333Y-6229700I-3099203J-8182750D01*
G01*
X8383500Y-14375438D02*
G75*
G02*
X8033500Y-14375438I-175000J0D01*
G01*
X8033500Y-14375438D02*
G75*
G02*
X8383500Y-14375438I175000J0D01*
G01*
X8383500Y-3575438D02*
G75*
G02*
X8033500Y-3575438I-175000J0D01*
G01*
X8033500Y-3575438D02*
G75*
G02*
X8383500Y-3575438I175000J0D01*
G01*
X3556000Y-6229700D02*
X3556000Y-12446000D01*
X8383500Y-15175438D02*
G75*
G02*
X8033500Y-15175438I-175000J0D01*
G01*
X8033500Y-15175438D02*
G75*
G02*
X8383500Y-15175438I175000J0D01*
G01*
X6213664Y-16135422D02*
G75*
G02*
X5413665Y-16135422I-400000J0D01*
G01*
X5413665Y-16135422D02*
G75*
G02*
X6213664Y-16135422I400000J0D01*
G01*
X4205626Y-10981333D02*
G75*
G02*
X3855625Y-10981333I-175000J0D01*
G01*
X3855625Y-10981333D02*
G75*
G02*
X4205626Y-10981333I175000J0D01*
G01*
X11683500Y-15175438D02*
G75*
G02*
X11333500Y-15175438I-175000J0D01*
G01*
X11333500Y-15175438D02*
G75*
G02*
X11683500Y-15175438I175000J0D01*
G01*
X12989478Y-1187272D02*
X12989478Y-3029700D01*
X11683500Y-4375438D02*
G75*
G02*
X11333500Y-4375438I-175000J0D01*
G01*
X11333500Y-4375438D02*
G75*
G02*
X11683500Y-4375438I175000J0D01*
G01*
X7620000Y-12446000D02*
X7620000Y-8878182D01*
X16976008Y-13442045D02*
G75*
G02*
X16176008Y-13442045I-400000J0D01*
G01*
X16176008Y-13442045D02*
G75*
G02*
X16976008Y-13442045I400000J0D01*
G01*
X6773178Y-17545977D02*
G75*
G02*
X1698761Y-12446000I3117091J8175950D01*
G01*
X16976008Y-5442045D02*
G75*
G02*
X16176008Y-5442045I-400000J0D01*
G01*
X16176008Y-5442045D02*
G75*
G02*
X16976008Y-5442045I400000J0D01*
G01*
X15075625Y-7681333D02*
G75*
G02*
X14725625Y-7681333I-175000J0D01*
G01*
X14725625Y-7681333D02*
G75*
G02*
X15075625Y-7681333I175000J0D01*
G01*
X6183500Y-6375438D02*
G75*
G02*
X5833500Y-6375438I-175000J0D01*
G01*
X5833500Y-6375438D02*
G75*
G02*
X6183500Y-6375438I175000J0D01*
G01*
X3476008Y-5442045D02*
G75*
G02*
X2676008Y-5442045I-400000J0D01*
G01*
X2676008Y-5442045D02*
G75*
G02*
X3476008Y-5442045I400000J0D01*
G01*
X1723213Y-6229700D02*
X3556000Y-6229700D01*
X8383500Y-4375438D02*
G75*
G02*
X8033500Y-4375438I-175000J0D01*
G01*
X8033500Y-4375438D02*
G75*
G02*
X8383500Y-4375438I175000J0D01*
G01*
X7620000Y-8878182D02*
X10351184Y-8878182D01*
D11*
X3899500Y-4793500D02*
X3964500Y-4858500D01*
X3964500Y-4793500D02*
X3899500Y-4858500D01*
X3899500Y-5819500D02*
X3964500Y-5884500D01*
X3964500Y-5819500D02*
X3899500Y-5884500D01*
X3899500Y-7089500D02*
X3964500Y-7154500D01*
X3964500Y-7089500D02*
X3899500Y-7154500D01*
X3899500Y-8613500D02*
X3964500Y-8678500D01*
X3964500Y-8613500D02*
X3899500Y-8678500D01*
X3899500Y-9883500D02*
X3964500Y-9948500D01*
X3964500Y-9883500D02*
X3899500Y-9948500D01*
X3899500Y-11397500D02*
X3964500Y-11462500D01*
X3964500Y-11397500D02*
X3899500Y-11462500D01*
X3899500Y-12931500D02*
X3964500Y-12996500D01*
X3964500Y-12931500D02*
X3899500Y-12996500D01*
X3899500Y-13693500D02*
X3964500Y-13758500D01*
X3964500Y-13693500D02*
X3899500Y-13758500D01*
X5199500Y-4793500D02*
X5264500Y-4858500D01*
X5264500Y-4793500D02*
X5199500Y-4858500D01*
X5199500Y-5819500D02*
X5264500Y-5884500D01*
X5264500Y-5819500D02*
X5199500Y-5884500D01*
X5199500Y-7089500D02*
X5264500Y-7154500D01*
X5264500Y-7089500D02*
X5199500Y-7154500D01*
X5199500Y-8613500D02*
X5264500Y-8678500D01*
X5264500Y-8613500D02*
X5199500Y-8678500D01*
X5199500Y-9883500D02*
X5264500Y-9948500D01*
X5264500Y-9883500D02*
X5199500Y-9948500D01*
X5199500Y-11397500D02*
X5264500Y-11462500D01*
X5264500Y-11397500D02*
X5199500Y-11462500D01*
X5199500Y-12931500D02*
X5264500Y-12996500D01*
X5264500Y-12931500D02*
X5199500Y-12996500D01*
X5199500Y-13693500D02*
X5264500Y-13758500D01*
X5264500Y-13693500D02*
X5199500Y-13758500D01*
X5311500Y-3117500D02*
X5376500Y-3182500D01*
X5376500Y-3117500D02*
X5311500Y-3182500D01*
X5311500Y-4417500D02*
X5376500Y-4482500D01*
X5376500Y-4417500D02*
X5311500Y-4482500D01*
X5545500Y-14081500D02*
X5610500Y-14146500D01*
X5610500Y-14081500D02*
X5545500Y-14146500D01*
X5545500Y-15381500D02*
X5610500Y-15446500D01*
X5610500Y-15381500D02*
X5545500Y-15446500D01*
X6307500Y-14081500D02*
X6372500Y-14146500D01*
X6372500Y-14081500D02*
X6307500Y-14146500D01*
X6307500Y-15381500D02*
X6372500Y-15446500D01*
X6372500Y-15381500D02*
X6307500Y-15446500D01*
X6321500Y-3369500D02*
X6386500Y-3434500D01*
X6386500Y-3369500D02*
X6321500Y-3434500D01*
X6321500Y-4669500D02*
X6386500Y-4734500D01*
X6386500Y-4669500D02*
X6321500Y-4734500D01*
X7577500Y-14059500D02*
X7642500Y-14124500D01*
X7642500Y-14059500D02*
X7577500Y-14124500D01*
X7577500Y-15359500D02*
X7642500Y-15424500D01*
X7642500Y-15359500D02*
X7577500Y-15424500D01*
X7597500Y-3371500D02*
X7662500Y-3436500D01*
X7662500Y-3371500D02*
X7597500Y-3436500D01*
X7597500Y-4671500D02*
X7662500Y-4736500D01*
X7662500Y-4671500D02*
X7597500Y-4736500D01*
X9115500Y-14059500D02*
X9180500Y-14124500D01*
X9180500Y-14059500D02*
X9115500Y-14124500D01*
X9115500Y-15359500D02*
X9180500Y-15424500D01*
X9180500Y-15359500D02*
X9115500Y-15424500D01*
X9121500Y-3371500D02*
X9186500Y-3436500D01*
X9186500Y-3371500D02*
X9121500Y-3436500D01*
X9121500Y-4671500D02*
X9186500Y-4736500D01*
X9186500Y-4671500D02*
X9121500Y-4736500D01*
X10625500Y-3391500D02*
X10690500Y-3456500D01*
X10690500Y-3391500D02*
X10625500Y-3456500D01*
X10625500Y-4691500D02*
X10690500Y-4756500D01*
X10690500Y-4691500D02*
X10625500Y-4756500D01*
X10625500Y-14059500D02*
X10690500Y-14124500D01*
X10690500Y-14059500D02*
X10625500Y-14124500D01*
X10625500Y-15359500D02*
X10690500Y-15424500D01*
X10690500Y-15359500D02*
X10625500Y-15424500D01*
X11113500Y-13683500D02*
X11178500Y-13748500D01*
X11178500Y-13683500D02*
X11113500Y-13748500D01*
X11923500Y-3371500D02*
X11988500Y-3436500D01*
X11988500Y-3371500D02*
X11923500Y-3436500D01*
X11923500Y-4671500D02*
X11988500Y-4736500D01*
X11988500Y-4671500D02*
X11923500Y-4736500D01*
X12413500Y-13683500D02*
X12478500Y-13748500D01*
X12478500Y-13683500D02*
X12413500Y-13748500D01*
X13043500Y-11661500D02*
X13108500Y-11726500D01*
X13108500Y-11661500D02*
X13043500Y-11726500D01*
X13419500Y-14059500D02*
X13484500Y-14124500D01*
X13484500Y-14059500D02*
X13419500Y-14124500D01*
X13419500Y-15359500D02*
X13484500Y-15424500D01*
X13484500Y-15359500D02*
X13419500Y-15424500D01*
X13439500Y-3371500D02*
X13504500Y-3436500D01*
X13504500Y-3371500D02*
X13439500Y-3436500D01*
X13439500Y-4671500D02*
X13504500Y-4736500D01*
X13504500Y-4671500D02*
X13439500Y-4736500D01*
X14195500Y-14037500D02*
X14260500Y-14102500D01*
X14260500Y-14037500D02*
X14195500Y-14102500D01*
X14195500Y-15337500D02*
X14260500Y-15402500D01*
X14260500Y-15337500D02*
X14195500Y-15402500D01*
X14343500Y-11661500D02*
X14408500Y-11726500D01*
X14408500Y-11661500D02*
X14343500Y-11726500D01*
X14415500Y-4793500D02*
X14480500Y-4858500D01*
X14480500Y-4793500D02*
X14415500Y-4858500D01*
X14415500Y-5809500D02*
X14480500Y-5874500D01*
X14480500Y-5809500D02*
X14415500Y-5874500D01*
X14445500Y-2985500D02*
X14510500Y-3050500D01*
X14510500Y-2985500D02*
X14445500Y-3050500D01*
X14445500Y-4285500D02*
X14510500Y-4350500D01*
X14510500Y-4285500D02*
X14445500Y-4350500D01*
X14567500Y-7089500D02*
X14632500Y-7154500D01*
X14632500Y-7089500D02*
X14567500Y-7154500D01*
X14567500Y-8613500D02*
X14632500Y-8678500D01*
X14632500Y-8613500D02*
X14567500Y-8678500D01*
X14567500Y-9883500D02*
X14632500Y-9948500D01*
X14632500Y-9883500D02*
X14567500Y-9948500D01*
X14567500Y-12677500D02*
X14632500Y-12742500D01*
X14632500Y-12677500D02*
X14567500Y-12742500D01*
X14567500Y-13693500D02*
X14632500Y-13758500D01*
X14632500Y-13693500D02*
X14567500Y-13758500D01*
X15715500Y-4793500D02*
X15780500Y-4858500D01*
X15780500Y-4793500D02*
X15715500Y-4858500D01*
X15715500Y-5809500D02*
X15780500Y-5874500D01*
X15780500Y-5809500D02*
X15715500Y-5874500D01*
X15867500Y-7089500D02*
X15932500Y-7154500D01*
X15932500Y-7089500D02*
X15867500Y-7154500D01*
X15867500Y-8613500D02*
X15932500Y-8678500D01*
X15932500Y-8613500D02*
X15867500Y-8678500D01*
X15867500Y-9883500D02*
X15932500Y-9948500D01*
X15932500Y-9883500D02*
X15867500Y-9948500D01*
X15867500Y-12677500D02*
X15932500Y-12742500D01*
X15932500Y-12677500D02*
X15867500Y-12742500D01*
X15867500Y-13693500D02*
X15932500Y-13758500D01*
X15932500Y-13693500D02*
X15867500Y-13758500D01*
X11728500Y-7620000D02*
G75*
G02*
X11639500Y-7620000I-44500J0D01*
G01*
X11639500Y-7620000D02*
G75*
G02*
X11728500Y-7620000I44500J0D01*
G01*
X11728500Y-7874000D02*
G75*
G02*
X11639500Y-7874000I-44500J0D01*
G01*
X11639500Y-7874000D02*
G75*
G02*
X11728500Y-7874000I44500J0D01*
G01*
X11728500Y-8128000D02*
G75*
G02*
X11639500Y-8128000I-44500J0D01*
G01*
X11639500Y-8128000D02*
G75*
G02*
X11728500Y-8128000I44500J0D01*
G01*
X11728500Y-8382000D02*
G75*
G02*
X11639500Y-8382000I-44500J0D01*
G01*
X11639500Y-8382000D02*
G75*
G02*
X11728500Y-8382000I44500J0D01*
G01*
X11728500Y-8636000D02*
G75*
G02*
X11639500Y-8636000I-44500J0D01*
G01*
X11639500Y-8636000D02*
G75*
G02*
X11728500Y-8636000I44500J0D01*
G01*
X11728500Y-8890000D02*
G75*
G02*
X11639500Y-8890000I-44500J0D01*
G01*
X11639500Y-8890000D02*
G75*
G02*
X11728500Y-8890000I44500J0D01*
G01*
X11728500Y-9144000D02*
G75*
G02*
X11639500Y-9144000I-44500J0D01*
G01*
X11639500Y-9144000D02*
G75*
G02*
X11728500Y-9144000I44500J0D01*
G01*
X11728500Y-9398000D02*
G75*
G02*
X11639500Y-9398000I-44500J0D01*
G01*
X11639500Y-9398000D02*
G75*
G02*
X11728500Y-9398000I44500J0D01*
G01*
X11728500Y-9652000D02*
G75*
G02*
X11639500Y-9652000I-44500J0D01*
G01*
X11639500Y-9652000D02*
G75*
G02*
X11728500Y-9652000I44500J0D01*
G01*
X11728500Y-9906000D02*
G75*
G02*
X11639500Y-9906000I-44500J0D01*
G01*
X11639500Y-9906000D02*
G75*
G02*
X11728500Y-9906000I44500J0D01*
G01*
X11728500Y-10160000D02*
G75*
G02*
X11639500Y-10160000I-44500J0D01*
G01*
X11639500Y-10160000D02*
G75*
G02*
X11728500Y-10160000I44500J0D01*
G01*
X11728500Y-10414000D02*
G75*
G02*
X11639500Y-10414000I-44500J0D01*
G01*
X11639500Y-10414000D02*
G75*
G02*
X11728500Y-10414000I44500J0D01*
G01*
X11728500Y-10668000D02*
G75*
G02*
X11639500Y-10668000I-44500J0D01*
G01*
X11639500Y-10668000D02*
G75*
G02*
X11728500Y-10668000I44500J0D01*
G01*
X11728500Y-10922000D02*
G75*
G02*
X11639500Y-10922000I-44500J0D01*
G01*
X11639500Y-10922000D02*
G75*
G02*
X11728500Y-10922000I44500J0D01*
G01*
X11728500Y-11176000D02*
G75*
G02*
X11639500Y-11176000I-44500J0D01*
G01*
X11639500Y-11176000D02*
G75*
G02*
X11728500Y-11176000I44500J0D01*
G01*
X11728500Y-11430000D02*
G75*
G02*
X11639500Y-11430000I-44500J0D01*
G01*
X11639500Y-11430000D02*
G75*
G02*
X11728500Y-11430000I44500J0D01*
G01*
X11728500Y-11684000D02*
G75*
G02*
X11639500Y-11684000I-44500J0D01*
G01*
X11639500Y-11684000D02*
G75*
G02*
X11728500Y-11684000I44500J0D01*
G01*
X11728500Y-11938000D02*
G75*
G02*
X11639500Y-11938000I-44500J0D01*
G01*
X11639500Y-11938000D02*
G75*
G02*
X11728500Y-11938000I44500J0D01*
G01*
D10*
X1949538Y-17874259D02*
X1949538Y-17674259D01*
X1949538Y-17674259D02*
X1997157Y-17674259D01*
X1997157Y-17674259D02*
X2025729Y-17683783D01*
X2025729Y-17683783D02*
X2044776Y-17702830D01*
X2044776Y-17702830D02*
X2054300Y-17721878D01*
X2054300Y-17721878D02*
X2063824Y-17759973D01*
X2063824Y-17759973D02*
X2063824Y-17788545D01*
X2063824Y-17788545D02*
X2054300Y-17826640D01*
X2054300Y-17826640D02*
X2044776Y-17845688D01*
X2044776Y-17845688D02*
X2025729Y-17864735D01*
X2025729Y-17864735D02*
X1997157Y-17874259D01*
X1997157Y-17874259D02*
X1949538Y-17874259D01*
X2149538Y-17874259D02*
X2149538Y-17740926D01*
X2149538Y-17779021D02*
X2159062Y-17759973D01*
X2159062Y-17759973D02*
X2168586Y-17750449D01*
X2168586Y-17750449D02*
X2187633Y-17740926D01*
X2187633Y-17740926D02*
X2206681Y-17740926D01*
X2273348Y-17874259D02*
X2273348Y-17740926D01*
X2273348Y-17674259D02*
X2263824Y-17683783D01*
X2263824Y-17683783D02*
X2273348Y-17693307D01*
X2273348Y-17693307D02*
X2282872Y-17683783D01*
X2282872Y-17683783D02*
X2273348Y-17674259D01*
X2273348Y-17674259D02*
X2273348Y-17693307D01*
X2397157Y-17874259D02*
X2378110Y-17864735D01*
X2378110Y-17864735D02*
X2368586Y-17845688D01*
X2368586Y-17845688D02*
X2368586Y-17674259D01*
X2501919Y-17874259D02*
X2482872Y-17864735D01*
X2482872Y-17864735D02*
X2473348Y-17845688D01*
X2473348Y-17845688D02*
X2473348Y-17674259D01*
X2730491Y-17874259D02*
X2730491Y-17674259D01*
X2730491Y-17674259D02*
X2797157Y-17817116D01*
X2797157Y-17817116D02*
X2863824Y-17674259D01*
X2863824Y-17674259D02*
X2863824Y-17874259D01*
X3044776Y-17874259D02*
X3044776Y-17769497D01*
X3044776Y-17769497D02*
X3035252Y-17750449D01*
X3035252Y-17750449D02*
X3016205Y-17740926D01*
X3016205Y-17740926D02*
X2978110Y-17740926D01*
X2978110Y-17740926D02*
X2959062Y-17750449D01*
X3044776Y-17864735D02*
X3025729Y-17874259D01*
X3025729Y-17874259D02*
X2978110Y-17874259D01*
X2978110Y-17874259D02*
X2959062Y-17864735D01*
X2959062Y-17864735D02*
X2949538Y-17845688D01*
X2949538Y-17845688D02*
X2949538Y-17826640D01*
X2949538Y-17826640D02*
X2959062Y-17807592D01*
X2959062Y-17807592D02*
X2978110Y-17798069D01*
X2978110Y-17798069D02*
X3025729Y-17798069D01*
X3025729Y-17798069D02*
X3044776Y-17788545D01*
X3140014Y-17740926D02*
X3140014Y-17940926D01*
X3140014Y-17750449D02*
X3159062Y-17740926D01*
X3159062Y-17740926D02*
X3197157Y-17740926D01*
X3197157Y-17740926D02*
X3216205Y-17750449D01*
X3216205Y-17750449D02*
X3225729Y-17759973D01*
X3225729Y-17759973D02*
X3235252Y-17779021D01*
X3235252Y-17779021D02*
X3235252Y-17836164D01*
X3235252Y-17836164D02*
X3225729Y-17855211D01*
X3225729Y-17855211D02*
X3216205Y-17864735D01*
X3216205Y-17864735D02*
X3197157Y-17874259D01*
X3197157Y-17874259D02*
X3159062Y-17874259D01*
X3159062Y-17874259D02*
X3140014Y-17864735D01*
X3320967Y-17855211D02*
X3330491Y-17864735D01*
X3330491Y-17864735D02*
X3320967Y-17874259D01*
X3320967Y-17874259D02*
X3311443Y-17864735D01*
X3311443Y-17864735D02*
X3320967Y-17855211D01*
X3320967Y-17855211D02*
X3320967Y-17874259D01*
X3320967Y-17750449D02*
X3330491Y-17759973D01*
X3330491Y-17759973D02*
X3320967Y-17769497D01*
X3320967Y-17769497D02*
X3311443Y-17759973D01*
X3311443Y-17759973D02*
X3320967Y-17750449D01*
X3320967Y-17750449D02*
X3320967Y-17769497D01*
D11*
X1623761Y-18170275D02*
X1688761Y-18235275D01*
X1688761Y-18170275D02*
X1623761Y-18235275D01*
D10*
X1987633Y-18094259D02*
X2006681Y-18094259D01*
X2006681Y-18094259D02*
X2025729Y-18103783D01*
X2025729Y-18103783D02*
X2035252Y-18113307D01*
X2035252Y-18113307D02*
X2044776Y-18132354D01*
X2044776Y-18132354D02*
X2054300Y-18170449D01*
X2054300Y-18170449D02*
X2054300Y-18218069D01*
X2054300Y-18218069D02*
X2044776Y-18256164D01*
X2044776Y-18256164D02*
X2035252Y-18275211D01*
X2035252Y-18275211D02*
X2025729Y-18284735D01*
X2025729Y-18284735D02*
X2006681Y-18294259D01*
X2006681Y-18294259D02*
X1987633Y-18294259D01*
X1987633Y-18294259D02*
X1968586Y-18284735D01*
X1968586Y-18284735D02*
X1959062Y-18275211D01*
X1959062Y-18275211D02*
X1949538Y-18256164D01*
X1949538Y-18256164D02*
X1940014Y-18218069D01*
X1940014Y-18218069D02*
X1940014Y-18170449D01*
X1940014Y-18170449D02*
X1949538Y-18132354D01*
X1949538Y-18132354D02*
X1959062Y-18113307D01*
X1959062Y-18113307D02*
X1968586Y-18103783D01*
X1968586Y-18103783D02*
X1987633Y-18094259D01*
X2140014Y-18275211D02*
X2149538Y-18284735D01*
X2149538Y-18284735D02*
X2140014Y-18294259D01*
X2140014Y-18294259D02*
X2130491Y-18284735D01*
X2130491Y-18284735D02*
X2140014Y-18275211D01*
X2140014Y-18275211D02*
X2140014Y-18294259D01*
X2320967Y-18094259D02*
X2282872Y-18094259D01*
X2282872Y-18094259D02*
X2263824Y-18103783D01*
X2263824Y-18103783D02*
X2254300Y-18113307D01*
X2254300Y-18113307D02*
X2235253Y-18141878D01*
X2235253Y-18141878D02*
X2225729Y-18179973D01*
X2225729Y-18179973D02*
X2225729Y-18256164D01*
X2225729Y-18256164D02*
X2235253Y-18275211D01*
X2235253Y-18275211D02*
X2244776Y-18284735D01*
X2244776Y-18284735D02*
X2263824Y-18294259D01*
X2263824Y-18294259D02*
X2301919Y-18294259D01*
X2301919Y-18294259D02*
X2320967Y-18284735D01*
X2320967Y-18284735D02*
X2330491Y-18275211D01*
X2330491Y-18275211D02*
X2340014Y-18256164D01*
X2340014Y-18256164D02*
X2340014Y-18208545D01*
X2340014Y-18208545D02*
X2330491Y-18189497D01*
X2330491Y-18189497D02*
X2320967Y-18179973D01*
X2320967Y-18179973D02*
X2301919Y-18170449D01*
X2301919Y-18170449D02*
X2263824Y-18170449D01*
X2263824Y-18170449D02*
X2244776Y-18179973D01*
X2244776Y-18179973D02*
X2235253Y-18189497D01*
X2235253Y-18189497D02*
X2225729Y-18208545D01*
X2520967Y-18094259D02*
X2425729Y-18094259D01*
X2425729Y-18094259D02*
X2416205Y-18189497D01*
X2416205Y-18189497D02*
X2425729Y-18179973D01*
X2425729Y-18179973D02*
X2444776Y-18170449D01*
X2444776Y-18170449D02*
X2492395Y-18170449D01*
X2492395Y-18170449D02*
X2511443Y-18179973D01*
X2511443Y-18179973D02*
X2520967Y-18189497D01*
X2520967Y-18189497D02*
X2530491Y-18208545D01*
X2530491Y-18208545D02*
X2530491Y-18256164D01*
X2530491Y-18256164D02*
X2520967Y-18275211D01*
X2520967Y-18275211D02*
X2511443Y-18284735D01*
X2511443Y-18284735D02*
X2492395Y-18294259D01*
X2492395Y-18294259D02*
X2444776Y-18294259D01*
X2444776Y-18294259D02*
X2425729Y-18284735D01*
X2425729Y-18284735D02*
X2416205Y-18275211D01*
X2654300Y-18094259D02*
X2673348Y-18094259D01*
X2673348Y-18094259D02*
X2692395Y-18103783D01*
X2692395Y-18103783D02*
X2701919Y-18113307D01*
X2701919Y-18113307D02*
X2711443Y-18132354D01*
X2711443Y-18132354D02*
X2720967Y-18170449D01*
X2720967Y-18170449D02*
X2720967Y-18218069D01*
X2720967Y-18218069D02*
X2711443Y-18256164D01*
X2711443Y-18256164D02*
X2701919Y-18275211D01*
X2701919Y-18275211D02*
X2692395Y-18284735D01*
X2692395Y-18284735D02*
X2673348Y-18294259D01*
X2673348Y-18294259D02*
X2654300Y-18294259D01*
X2654300Y-18294259D02*
X2635253Y-18284735D01*
X2635253Y-18284735D02*
X2625729Y-18275211D01*
X2625729Y-18275211D02*
X2616205Y-18256164D01*
X2616205Y-18256164D02*
X2606681Y-18218069D01*
X2606681Y-18218069D02*
X2606681Y-18170449D01*
X2606681Y-18170449D02*
X2616205Y-18132354D01*
X2616205Y-18132354D02*
X2625729Y-18113307D01*
X2625729Y-18113307D02*
X2635253Y-18103783D01*
X2635253Y-18103783D02*
X2654300Y-18094259D01*
X2806681Y-18294259D02*
X2806681Y-18160926D01*
X2806681Y-18179973D02*
X2816205Y-18170449D01*
X2816205Y-18170449D02*
X2835252Y-18160926D01*
X2835252Y-18160926D02*
X2863824Y-18160926D01*
X2863824Y-18160926D02*
X2882872Y-18170449D01*
X2882872Y-18170449D02*
X2892395Y-18189497D01*
X2892395Y-18189497D02*
X2892395Y-18294259D01*
X2892395Y-18189497D02*
X2901919Y-18170449D01*
X2901919Y-18170449D02*
X2920967Y-18160926D01*
X2920967Y-18160926D02*
X2949538Y-18160926D01*
X2949538Y-18160926D02*
X2968586Y-18170449D01*
X2968586Y-18170449D02*
X2978110Y-18189497D01*
X2978110Y-18189497D02*
X2978110Y-18294259D01*
X3073348Y-18294259D02*
X3073348Y-18160926D01*
X3073348Y-18179973D02*
X3082872Y-18170449D01*
X3082872Y-18170449D02*
X3101919Y-18160926D01*
X3101919Y-18160926D02*
X3130491Y-18160926D01*
X3130491Y-18160926D02*
X3149538Y-18170449D01*
X3149538Y-18170449D02*
X3159062Y-18189497D01*
X3159062Y-18189497D02*
X3159062Y-18294259D01*
X3159062Y-18189497D02*
X3168586Y-18170449D01*
X3168586Y-18170449D02*
X3187633Y-18160926D01*
X3187633Y-18160926D02*
X3216205Y-18160926D01*
X3216205Y-18160926D02*
X3235253Y-18170449D01*
X3235253Y-18170449D02*
X3244776Y-18189497D01*
X3244776Y-18189497D02*
X3244776Y-18294259D01*
X3635253Y-18084735D02*
X3463824Y-18341878D01*
X3892395Y-18094259D02*
X3911443Y-18094259D01*
X3911443Y-18094259D02*
X3930491Y-18103783D01*
X3930491Y-18103783D02*
X3940015Y-18113307D01*
X3940015Y-18113307D02*
X3949538Y-18132354D01*
X3949538Y-18132354D02*
X3959062Y-18170449D01*
X3959062Y-18170449D02*
X3959062Y-18218069D01*
X3959062Y-18218069D02*
X3949538Y-18256164D01*
X3949538Y-18256164D02*
X3940015Y-18275211D01*
X3940015Y-18275211D02*
X3930491Y-18284735D01*
X3930491Y-18284735D02*
X3911443Y-18294259D01*
X3911443Y-18294259D02*
X3892395Y-18294259D01*
X3892395Y-18294259D02*
X3873348Y-18284735D01*
X3873348Y-18284735D02*
X3863824Y-18275211D01*
X3863824Y-18275211D02*
X3854300Y-18256164D01*
X3854300Y-18256164D02*
X3844776Y-18218069D01*
X3844776Y-18218069D02*
X3844776Y-18170449D01*
X3844776Y-18170449D02*
X3854300Y-18132354D01*
X3854300Y-18132354D02*
X3863824Y-18113307D01*
X3863824Y-18113307D02*
X3873348Y-18103783D01*
X3873348Y-18103783D02*
X3892395Y-18094259D01*
X4044776Y-18275211D02*
X4054300Y-18284735D01*
X4054300Y-18284735D02*
X4044776Y-18294259D01*
X4044776Y-18294259D02*
X4035253Y-18284735D01*
X4035253Y-18284735D02*
X4044776Y-18275211D01*
X4044776Y-18275211D02*
X4044776Y-18294259D01*
X4178110Y-18094259D02*
X4197158Y-18094259D01*
X4197158Y-18094259D02*
X4216205Y-18103783D01*
X4216205Y-18103783D02*
X4225729Y-18113307D01*
X4225729Y-18113307D02*
X4235253Y-18132354D01*
X4235253Y-18132354D02*
X4244777Y-18170449D01*
X4244777Y-18170449D02*
X4244777Y-18218069D01*
X4244777Y-18218069D02*
X4235253Y-18256164D01*
X4235253Y-18256164D02*
X4225729Y-18275211D01*
X4225729Y-18275211D02*
X4216205Y-18284735D01*
X4216205Y-18284735D02*
X4197158Y-18294259D01*
X4197158Y-18294259D02*
X4178110Y-18294259D01*
X4178110Y-18294259D02*
X4159062Y-18284735D01*
X4159062Y-18284735D02*
X4149538Y-18275211D01*
X4149538Y-18275211D02*
X4140015Y-18256164D01*
X4140015Y-18256164D02*
X4130491Y-18218069D01*
X4130491Y-18218069D02*
X4130491Y-18170449D01*
X4130491Y-18170449D02*
X4140015Y-18132354D01*
X4140015Y-18132354D02*
X4149538Y-18113307D01*
X4149538Y-18113307D02*
X4159062Y-18103783D01*
X4159062Y-18103783D02*
X4178110Y-18094259D01*
X4320967Y-18113307D02*
X4330491Y-18103783D01*
X4330491Y-18103783D02*
X4349538Y-18094259D01*
X4349538Y-18094259D02*
X4397158Y-18094259D01*
X4397158Y-18094259D02*
X4416205Y-18103783D01*
X4416205Y-18103783D02*
X4425729Y-18113307D01*
X4425729Y-18113307D02*
X4435253Y-18132354D01*
X4435253Y-18132354D02*
X4435253Y-18151402D01*
X4435253Y-18151402D02*
X4425729Y-18179973D01*
X4425729Y-18179973D02*
X4311443Y-18294259D01*
X4311443Y-18294259D02*
X4435253Y-18294259D01*
X4616205Y-18094259D02*
X4520967Y-18094259D01*
X4520967Y-18094259D02*
X4511443Y-18189497D01*
X4511443Y-18189497D02*
X4520967Y-18179973D01*
X4520967Y-18179973D02*
X4540015Y-18170449D01*
X4540015Y-18170449D02*
X4587634Y-18170449D01*
X4587634Y-18170449D02*
X4606681Y-18179973D01*
X4606681Y-18179973D02*
X4616205Y-18189497D01*
X4616205Y-18189497D02*
X4625729Y-18208545D01*
X4625729Y-18208545D02*
X4625729Y-18256164D01*
X4625729Y-18256164D02*
X4616205Y-18275211D01*
X4616205Y-18275211D02*
X4606681Y-18284735D01*
X4606681Y-18284735D02*
X4587634Y-18294259D01*
X4587634Y-18294259D02*
X4540015Y-18294259D01*
X4540015Y-18294259D02*
X4520967Y-18284735D01*
X4520967Y-18284735D02*
X4511443Y-18275211D01*
X4797158Y-18094259D02*
X4759062Y-18094259D01*
X4759062Y-18094259D02*
X4740015Y-18103783D01*
X4740015Y-18103783D02*
X4730491Y-18113307D01*
X4730491Y-18113307D02*
X4711443Y-18141878D01*
X4711443Y-18141878D02*
X4701919Y-18179973D01*
X4701919Y-18179973D02*
X4701919Y-18256164D01*
X4701919Y-18256164D02*
X4711443Y-18275211D01*
X4711443Y-18275211D02*
X4720967Y-18284735D01*
X4720967Y-18284735D02*
X4740015Y-18294259D01*
X4740015Y-18294259D02*
X4778110Y-18294259D01*
X4778110Y-18294259D02*
X4797158Y-18284735D01*
X4797158Y-18284735D02*
X4806681Y-18275211D01*
X4806681Y-18275211D02*
X4816205Y-18256164D01*
X4816205Y-18256164D02*
X4816205Y-18208545D01*
X4816205Y-18208545D02*
X4806681Y-18189497D01*
X4806681Y-18189497D02*
X4797158Y-18179973D01*
X4797158Y-18179973D02*
X4778110Y-18170449D01*
X4778110Y-18170449D02*
X4740015Y-18170449D01*
X4740015Y-18170449D02*
X4720967Y-18179973D01*
X4720967Y-18179973D02*
X4711443Y-18189497D01*
X4711443Y-18189497D02*
X4701919Y-18208545D01*
X4892396Y-18094259D02*
X4892396Y-18132354D01*
X4968586Y-18094259D02*
X4968586Y-18132354D01*
X5263824Y-18370449D02*
X5254300Y-18360926D01*
X5254300Y-18360926D02*
X5235253Y-18332354D01*
X5235253Y-18332354D02*
X5225729Y-18313307D01*
X5225729Y-18313307D02*
X5216205Y-18284735D01*
X5216205Y-18284735D02*
X5206681Y-18237116D01*
X5206681Y-18237116D02*
X5206681Y-18199021D01*
X5206681Y-18199021D02*
X5216205Y-18151402D01*
X5216205Y-18151402D02*
X5225729Y-18122830D01*
X5225729Y-18122830D02*
X5235253Y-18103783D01*
X5235253Y-18103783D02*
X5254300Y-18075211D01*
X5254300Y-18075211D02*
X5263824Y-18065688D01*
X5425729Y-18094259D02*
X5387634Y-18094259D01*
X5387634Y-18094259D02*
X5368586Y-18103783D01*
X5368586Y-18103783D02*
X5359062Y-18113307D01*
X5359062Y-18113307D02*
X5340015Y-18141878D01*
X5340015Y-18141878D02*
X5330491Y-18179973D01*
X5330491Y-18179973D02*
X5330491Y-18256164D01*
X5330491Y-18256164D02*
X5340015Y-18275211D01*
X5340015Y-18275211D02*
X5349539Y-18284735D01*
X5349539Y-18284735D02*
X5368586Y-18294259D01*
X5368586Y-18294259D02*
X5406681Y-18294259D01*
X5406681Y-18294259D02*
X5425729Y-18284735D01*
X5425729Y-18284735D02*
X5435253Y-18275211D01*
X5435253Y-18275211D02*
X5444777Y-18256164D01*
X5444777Y-18256164D02*
X5444777Y-18208545D01*
X5444777Y-18208545D02*
X5435253Y-18189497D01*
X5435253Y-18189497D02*
X5425729Y-18179973D01*
X5425729Y-18179973D02*
X5406681Y-18170449D01*
X5406681Y-18170449D02*
X5368586Y-18170449D01*
X5368586Y-18170449D02*
X5349539Y-18179973D01*
X5349539Y-18179973D02*
X5340015Y-18189497D01*
X5340015Y-18189497D02*
X5330491Y-18208545D01*
X5616205Y-18160926D02*
X5616205Y-18294259D01*
X5568586Y-18084735D02*
X5520967Y-18227592D01*
X5520967Y-18227592D02*
X5644777Y-18227592D01*
X5873348Y-18294259D02*
X5873348Y-18094259D01*
X5959062Y-18294259D02*
X5959062Y-18189497D01*
X5959062Y-18189497D02*
X5949539Y-18170449D01*
X5949539Y-18170449D02*
X5930491Y-18160926D01*
X5930491Y-18160926D02*
X5901919Y-18160926D01*
X5901919Y-18160926D02*
X5882872Y-18170449D01*
X5882872Y-18170449D02*
X5873348Y-18179973D01*
X6082872Y-18294259D02*
X6063824Y-18284735D01*
X6063824Y-18284735D02*
X6054300Y-18275211D01*
X6054300Y-18275211D02*
X6044777Y-18256164D01*
X6044777Y-18256164D02*
X6044777Y-18199021D01*
X6044777Y-18199021D02*
X6054300Y-18179973D01*
X6054300Y-18179973D02*
X6063824Y-18170449D01*
X6063824Y-18170449D02*
X6082872Y-18160926D01*
X6082872Y-18160926D02*
X6111443Y-18160926D01*
X6111443Y-18160926D02*
X6130491Y-18170449D01*
X6130491Y-18170449D02*
X6140015Y-18179973D01*
X6140015Y-18179973D02*
X6149539Y-18199021D01*
X6149539Y-18199021D02*
X6149539Y-18256164D01*
X6149539Y-18256164D02*
X6140015Y-18275211D01*
X6140015Y-18275211D02*
X6130491Y-18284735D01*
X6130491Y-18284735D02*
X6111443Y-18294259D01*
X6111443Y-18294259D02*
X6082872Y-18294259D01*
X6263824Y-18294259D02*
X6244777Y-18284735D01*
X6244777Y-18284735D02*
X6235253Y-18265688D01*
X6235253Y-18265688D02*
X6235253Y-18094259D01*
X6416205Y-18284735D02*
X6397158Y-18294259D01*
X6397158Y-18294259D02*
X6359062Y-18294259D01*
X6359062Y-18294259D02*
X6340015Y-18284735D01*
X6340015Y-18284735D02*
X6330491Y-18265688D01*
X6330491Y-18265688D02*
X6330491Y-18189497D01*
X6330491Y-18189497D02*
X6340015Y-18170449D01*
X6340015Y-18170449D02*
X6359062Y-18160926D01*
X6359062Y-18160926D02*
X6397158Y-18160926D01*
X6397158Y-18160926D02*
X6416205Y-18170449D01*
X6416205Y-18170449D02*
X6425729Y-18189497D01*
X6425729Y-18189497D02*
X6425729Y-18208545D01*
X6425729Y-18208545D02*
X6330491Y-18227592D01*
X6501920Y-18284735D02*
X6520967Y-18294259D01*
X6520967Y-18294259D02*
X6559062Y-18294259D01*
X6559062Y-18294259D02*
X6578110Y-18284735D01*
X6578110Y-18284735D02*
X6587634Y-18265688D01*
X6587634Y-18265688D02*
X6587634Y-18256164D01*
X6587634Y-18256164D02*
X6578110Y-18237116D01*
X6578110Y-18237116D02*
X6559062Y-18227592D01*
X6559062Y-18227592D02*
X6530491Y-18227592D01*
X6530491Y-18227592D02*
X6511443Y-18218069D01*
X6511443Y-18218069D02*
X6501920Y-18199021D01*
X6501920Y-18199021D02*
X6501920Y-18189497D01*
X6501920Y-18189497D02*
X6511443Y-18170449D01*
X6511443Y-18170449D02*
X6530491Y-18160926D01*
X6530491Y-18160926D02*
X6559062Y-18160926D01*
X6559062Y-18160926D02*
X6578110Y-18170449D01*
X6654301Y-18370449D02*
X6663824Y-18360926D01*
X6663824Y-18360926D02*
X6682872Y-18332354D01*
X6682872Y-18332354D02*
X6692396Y-18313307D01*
X6692396Y-18313307D02*
X6701920Y-18284735D01*
X6701920Y-18284735D02*
X6711443Y-18237116D01*
X6711443Y-18237116D02*
X6711443Y-18199021D01*
X6711443Y-18199021D02*
X6701920Y-18151402D01*
X6701920Y-18151402D02*
X6692396Y-18122830D01*
X6692396Y-18122830D02*
X6682872Y-18103783D01*
X6682872Y-18103783D02*
X6663824Y-18075211D01*
X6663824Y-18075211D02*
X6654301Y-18065688D01*
D11*
X1688761Y-18466775D02*
G75*
G02*
X1599761Y-18466775I-44500J0D01*
G01*
X1599761Y-18466775D02*
G75*
G02*
X1688761Y-18466775I44500J0D01*
G01*
D10*
X1987633Y-18358259D02*
X2006681Y-18358259D01*
X2006681Y-18358259D02*
X2025729Y-18367783D01*
X2025729Y-18367783D02*
X2035252Y-18377307D01*
X2035252Y-18377307D02*
X2044776Y-18396354D01*
X2044776Y-18396354D02*
X2054300Y-18434449D01*
X2054300Y-18434449D02*
X2054300Y-18482069D01*
X2054300Y-18482069D02*
X2044776Y-18520164D01*
X2044776Y-18520164D02*
X2035252Y-18539211D01*
X2035252Y-18539211D02*
X2025729Y-18548735D01*
X2025729Y-18548735D02*
X2006681Y-18558259D01*
X2006681Y-18558259D02*
X1987633Y-18558259D01*
X1987633Y-18558259D02*
X1968586Y-18548735D01*
X1968586Y-18548735D02*
X1959062Y-18539211D01*
X1959062Y-18539211D02*
X1949538Y-18520164D01*
X1949538Y-18520164D02*
X1940014Y-18482069D01*
X1940014Y-18482069D02*
X1940014Y-18434449D01*
X1940014Y-18434449D02*
X1949538Y-18396354D01*
X1949538Y-18396354D02*
X1959062Y-18377307D01*
X1959062Y-18377307D02*
X1968586Y-18367783D01*
X1968586Y-18367783D02*
X1987633Y-18358259D01*
X2140014Y-18539211D02*
X2149538Y-18548735D01*
X2149538Y-18548735D02*
X2140014Y-18558259D01*
X2140014Y-18558259D02*
X2130491Y-18548735D01*
X2130491Y-18548735D02*
X2140014Y-18539211D01*
X2140014Y-18539211D02*
X2140014Y-18558259D01*
X2263824Y-18443973D02*
X2244776Y-18434449D01*
X2244776Y-18434449D02*
X2235253Y-18424926D01*
X2235253Y-18424926D02*
X2225729Y-18405878D01*
X2225729Y-18405878D02*
X2225729Y-18396354D01*
X2225729Y-18396354D02*
X2235253Y-18377307D01*
X2235253Y-18377307D02*
X2244776Y-18367783D01*
X2244776Y-18367783D02*
X2263824Y-18358259D01*
X2263824Y-18358259D02*
X2301919Y-18358259D01*
X2301919Y-18358259D02*
X2320967Y-18367783D01*
X2320967Y-18367783D02*
X2330491Y-18377307D01*
X2330491Y-18377307D02*
X2340014Y-18396354D01*
X2340014Y-18396354D02*
X2340014Y-18405878D01*
X2340014Y-18405878D02*
X2330491Y-18424926D01*
X2330491Y-18424926D02*
X2320967Y-18434449D01*
X2320967Y-18434449D02*
X2301919Y-18443973D01*
X2301919Y-18443973D02*
X2263824Y-18443973D01*
X2263824Y-18443973D02*
X2244776Y-18453497D01*
X2244776Y-18453497D02*
X2235253Y-18463021D01*
X2235253Y-18463021D02*
X2225729Y-18482069D01*
X2225729Y-18482069D02*
X2225729Y-18520164D01*
X2225729Y-18520164D02*
X2235253Y-18539211D01*
X2235253Y-18539211D02*
X2244776Y-18548735D01*
X2244776Y-18548735D02*
X2263824Y-18558259D01*
X2263824Y-18558259D02*
X2301919Y-18558259D01*
X2301919Y-18558259D02*
X2320967Y-18548735D01*
X2320967Y-18548735D02*
X2330491Y-18539211D01*
X2330491Y-18539211D02*
X2340014Y-18520164D01*
X2340014Y-18520164D02*
X2340014Y-18482069D01*
X2340014Y-18482069D02*
X2330491Y-18463021D01*
X2330491Y-18463021D02*
X2320967Y-18453497D01*
X2320967Y-18453497D02*
X2301919Y-18443973D01*
X2435253Y-18558259D02*
X2473348Y-18558259D01*
X2473348Y-18558259D02*
X2492395Y-18548735D01*
X2492395Y-18548735D02*
X2501919Y-18539211D01*
X2501919Y-18539211D02*
X2520967Y-18510640D01*
X2520967Y-18510640D02*
X2530491Y-18472545D01*
X2530491Y-18472545D02*
X2530491Y-18396354D01*
X2530491Y-18396354D02*
X2520967Y-18377307D01*
X2520967Y-18377307D02*
X2511443Y-18367783D01*
X2511443Y-18367783D02*
X2492395Y-18358259D01*
X2492395Y-18358259D02*
X2454300Y-18358259D01*
X2454300Y-18358259D02*
X2435253Y-18367783D01*
X2435253Y-18367783D02*
X2425729Y-18377307D01*
X2425729Y-18377307D02*
X2416205Y-18396354D01*
X2416205Y-18396354D02*
X2416205Y-18443973D01*
X2416205Y-18443973D02*
X2425729Y-18463021D01*
X2425729Y-18463021D02*
X2435253Y-18472545D01*
X2435253Y-18472545D02*
X2454300Y-18482069D01*
X2454300Y-18482069D02*
X2492395Y-18482069D01*
X2492395Y-18482069D02*
X2511443Y-18472545D01*
X2511443Y-18472545D02*
X2520967Y-18463021D01*
X2520967Y-18463021D02*
X2530491Y-18443973D01*
X2654300Y-18358259D02*
X2673348Y-18358259D01*
X2673348Y-18358259D02*
X2692395Y-18367783D01*
X2692395Y-18367783D02*
X2701919Y-18377307D01*
X2701919Y-18377307D02*
X2711443Y-18396354D01*
X2711443Y-18396354D02*
X2720967Y-18434449D01*
X2720967Y-18434449D02*
X2720967Y-18482069D01*
X2720967Y-18482069D02*
X2711443Y-18520164D01*
X2711443Y-18520164D02*
X2701919Y-18539211D01*
X2701919Y-18539211D02*
X2692395Y-18548735D01*
X2692395Y-18548735D02*
X2673348Y-18558259D01*
X2673348Y-18558259D02*
X2654300Y-18558259D01*
X2654300Y-18558259D02*
X2635253Y-18548735D01*
X2635253Y-18548735D02*
X2625729Y-18539211D01*
X2625729Y-18539211D02*
X2616205Y-18520164D01*
X2616205Y-18520164D02*
X2606681Y-18482069D01*
X2606681Y-18482069D02*
X2606681Y-18434449D01*
X2606681Y-18434449D02*
X2616205Y-18396354D01*
X2616205Y-18396354D02*
X2625729Y-18377307D01*
X2625729Y-18377307D02*
X2635253Y-18367783D01*
X2635253Y-18367783D02*
X2654300Y-18358259D01*
X2806681Y-18558259D02*
X2806681Y-18424926D01*
X2806681Y-18443973D02*
X2816205Y-18434449D01*
X2816205Y-18434449D02*
X2835252Y-18424926D01*
X2835252Y-18424926D02*
X2863824Y-18424926D01*
X2863824Y-18424926D02*
X2882872Y-18434449D01*
X2882872Y-18434449D02*
X2892395Y-18453497D01*
X2892395Y-18453497D02*
X2892395Y-18558259D01*
X2892395Y-18453497D02*
X2901919Y-18434449D01*
X2901919Y-18434449D02*
X2920967Y-18424926D01*
X2920967Y-18424926D02*
X2949538Y-18424926D01*
X2949538Y-18424926D02*
X2968586Y-18434449D01*
X2968586Y-18434449D02*
X2978110Y-18453497D01*
X2978110Y-18453497D02*
X2978110Y-18558259D01*
X3073348Y-18558259D02*
X3073348Y-18424926D01*
X3073348Y-18443973D02*
X3082872Y-18434449D01*
X3082872Y-18434449D02*
X3101919Y-18424926D01*
X3101919Y-18424926D02*
X3130491Y-18424926D01*
X3130491Y-18424926D02*
X3149538Y-18434449D01*
X3149538Y-18434449D02*
X3159062Y-18453497D01*
X3159062Y-18453497D02*
X3159062Y-18558259D01*
X3159062Y-18453497D02*
X3168586Y-18434449D01*
X3168586Y-18434449D02*
X3187633Y-18424926D01*
X3187633Y-18424926D02*
X3216205Y-18424926D01*
X3216205Y-18424926D02*
X3235253Y-18434449D01*
X3235253Y-18434449D02*
X3244776Y-18453497D01*
X3244776Y-18453497D02*
X3244776Y-18558259D01*
X3635253Y-18348735D02*
X3463824Y-18605878D01*
X3892395Y-18358259D02*
X3911443Y-18358259D01*
X3911443Y-18358259D02*
X3930491Y-18367783D01*
X3930491Y-18367783D02*
X3940015Y-18377307D01*
X3940015Y-18377307D02*
X3949538Y-18396354D01*
X3949538Y-18396354D02*
X3959062Y-18434449D01*
X3959062Y-18434449D02*
X3959062Y-18482069D01*
X3959062Y-18482069D02*
X3949538Y-18520164D01*
X3949538Y-18520164D02*
X3940015Y-18539211D01*
X3940015Y-18539211D02*
X3930491Y-18548735D01*
X3930491Y-18548735D02*
X3911443Y-18558259D01*
X3911443Y-18558259D02*
X3892395Y-18558259D01*
X3892395Y-18558259D02*
X3873348Y-18548735D01*
X3873348Y-18548735D02*
X3863824Y-18539211D01*
X3863824Y-18539211D02*
X3854300Y-18520164D01*
X3854300Y-18520164D02*
X3844776Y-18482069D01*
X3844776Y-18482069D02*
X3844776Y-18434449D01*
X3844776Y-18434449D02*
X3854300Y-18396354D01*
X3854300Y-18396354D02*
X3863824Y-18377307D01*
X3863824Y-18377307D02*
X3873348Y-18367783D01*
X3873348Y-18367783D02*
X3892395Y-18358259D01*
X4044776Y-18539211D02*
X4054300Y-18548735D01*
X4054300Y-18548735D02*
X4044776Y-18558259D01*
X4044776Y-18558259D02*
X4035253Y-18548735D01*
X4035253Y-18548735D02*
X4044776Y-18539211D01*
X4044776Y-18539211D02*
X4044776Y-18558259D01*
X4178110Y-18358259D02*
X4197158Y-18358259D01*
X4197158Y-18358259D02*
X4216205Y-18367783D01*
X4216205Y-18367783D02*
X4225729Y-18377307D01*
X4225729Y-18377307D02*
X4235253Y-18396354D01*
X4235253Y-18396354D02*
X4244777Y-18434449D01*
X4244777Y-18434449D02*
X4244777Y-18482069D01*
X4244777Y-18482069D02*
X4235253Y-18520164D01*
X4235253Y-18520164D02*
X4225729Y-18539211D01*
X4225729Y-18539211D02*
X4216205Y-18548735D01*
X4216205Y-18548735D02*
X4197158Y-18558259D01*
X4197158Y-18558259D02*
X4178110Y-18558259D01*
X4178110Y-18558259D02*
X4159062Y-18548735D01*
X4159062Y-18548735D02*
X4149538Y-18539211D01*
X4149538Y-18539211D02*
X4140015Y-18520164D01*
X4140015Y-18520164D02*
X4130491Y-18482069D01*
X4130491Y-18482069D02*
X4130491Y-18434449D01*
X4130491Y-18434449D02*
X4140015Y-18396354D01*
X4140015Y-18396354D02*
X4149538Y-18377307D01*
X4149538Y-18377307D02*
X4159062Y-18367783D01*
X4159062Y-18367783D02*
X4178110Y-18358259D01*
X4311443Y-18358259D02*
X4435253Y-18358259D01*
X4435253Y-18358259D02*
X4368586Y-18434449D01*
X4368586Y-18434449D02*
X4397158Y-18434449D01*
X4397158Y-18434449D02*
X4416205Y-18443973D01*
X4416205Y-18443973D02*
X4425729Y-18453497D01*
X4425729Y-18453497D02*
X4435253Y-18472545D01*
X4435253Y-18472545D02*
X4435253Y-18520164D01*
X4435253Y-18520164D02*
X4425729Y-18539211D01*
X4425729Y-18539211D02*
X4416205Y-18548735D01*
X4416205Y-18548735D02*
X4397158Y-18558259D01*
X4397158Y-18558259D02*
X4340015Y-18558259D01*
X4340015Y-18558259D02*
X4320967Y-18548735D01*
X4320967Y-18548735D02*
X4311443Y-18539211D01*
X4616205Y-18358259D02*
X4520967Y-18358259D01*
X4520967Y-18358259D02*
X4511443Y-18453497D01*
X4511443Y-18453497D02*
X4520967Y-18443973D01*
X4520967Y-18443973D02*
X4540015Y-18434449D01*
X4540015Y-18434449D02*
X4587634Y-18434449D01*
X4587634Y-18434449D02*
X4606681Y-18443973D01*
X4606681Y-18443973D02*
X4616205Y-18453497D01*
X4616205Y-18453497D02*
X4625729Y-18472545D01*
X4625729Y-18472545D02*
X4625729Y-18520164D01*
X4625729Y-18520164D02*
X4616205Y-18539211D01*
X4616205Y-18539211D02*
X4606681Y-18548735D01*
X4606681Y-18548735D02*
X4587634Y-18558259D01*
X4587634Y-18558259D02*
X4540015Y-18558259D01*
X4540015Y-18558259D02*
X4520967Y-18548735D01*
X4520967Y-18548735D02*
X4511443Y-18539211D01*
X4749538Y-18358259D02*
X4768586Y-18358259D01*
X4768586Y-18358259D02*
X4787634Y-18367783D01*
X4787634Y-18367783D02*
X4797158Y-18377307D01*
X4797158Y-18377307D02*
X4806681Y-18396354D01*
X4806681Y-18396354D02*
X4816205Y-18434449D01*
X4816205Y-18434449D02*
X4816205Y-18482069D01*
X4816205Y-18482069D02*
X4806681Y-18520164D01*
X4806681Y-18520164D02*
X4797158Y-18539211D01*
X4797158Y-18539211D02*
X4787634Y-18548735D01*
X4787634Y-18548735D02*
X4768586Y-18558259D01*
X4768586Y-18558259D02*
X4749538Y-18558259D01*
X4749538Y-18558259D02*
X4730491Y-18548735D01*
X4730491Y-18548735D02*
X4720967Y-18539211D01*
X4720967Y-18539211D02*
X4711443Y-18520164D01*
X4711443Y-18520164D02*
X4701919Y-18482069D01*
X4701919Y-18482069D02*
X4701919Y-18434449D01*
X4701919Y-18434449D02*
X4711443Y-18396354D01*
X4711443Y-18396354D02*
X4720967Y-18377307D01*
X4720967Y-18377307D02*
X4730491Y-18367783D01*
X4730491Y-18367783D02*
X4749538Y-18358259D01*
X4892396Y-18358259D02*
X4892396Y-18396354D01*
X4968586Y-18358259D02*
X4968586Y-18396354D01*
X5263824Y-18634449D02*
X5254300Y-18624926D01*
X5254300Y-18624926D02*
X5235253Y-18596354D01*
X5235253Y-18596354D02*
X5225729Y-18577307D01*
X5225729Y-18577307D02*
X5216205Y-18548735D01*
X5216205Y-18548735D02*
X5206681Y-18501116D01*
X5206681Y-18501116D02*
X5206681Y-18463021D01*
X5206681Y-18463021D02*
X5216205Y-18415402D01*
X5216205Y-18415402D02*
X5225729Y-18386830D01*
X5225729Y-18386830D02*
X5235253Y-18367783D01*
X5235253Y-18367783D02*
X5254300Y-18339211D01*
X5254300Y-18339211D02*
X5263824Y-18329688D01*
X5444777Y-18558259D02*
X5330491Y-18558259D01*
X5387634Y-18558259D02*
X5387634Y-18358259D01*
X5387634Y-18358259D02*
X5368586Y-18386830D01*
X5368586Y-18386830D02*
X5349539Y-18405878D01*
X5349539Y-18405878D02*
X5330491Y-18415402D01*
X5559062Y-18443973D02*
X5540015Y-18434449D01*
X5540015Y-18434449D02*
X5530491Y-18424926D01*
X5530491Y-18424926D02*
X5520967Y-18405878D01*
X5520967Y-18405878D02*
X5520967Y-18396354D01*
X5520967Y-18396354D02*
X5530491Y-18377307D01*
X5530491Y-18377307D02*
X5540015Y-18367783D01*
X5540015Y-18367783D02*
X5559062Y-18358259D01*
X5559062Y-18358259D02*
X5597158Y-18358259D01*
X5597158Y-18358259D02*
X5616205Y-18367783D01*
X5616205Y-18367783D02*
X5625729Y-18377307D01*
X5625729Y-18377307D02*
X5635253Y-18396354D01*
X5635253Y-18396354D02*
X5635253Y-18405878D01*
X5635253Y-18405878D02*
X5625729Y-18424926D01*
X5625729Y-18424926D02*
X5616205Y-18434449D01*
X5616205Y-18434449D02*
X5597158Y-18443973D01*
X5597158Y-18443973D02*
X5559062Y-18443973D01*
X5559062Y-18443973D02*
X5540015Y-18453497D01*
X5540015Y-18453497D02*
X5530491Y-18463021D01*
X5530491Y-18463021D02*
X5520967Y-18482069D01*
X5520967Y-18482069D02*
X5520967Y-18520164D01*
X5520967Y-18520164D02*
X5530491Y-18539211D01*
X5530491Y-18539211D02*
X5540015Y-18548735D01*
X5540015Y-18548735D02*
X5559062Y-18558259D01*
X5559062Y-18558259D02*
X5597158Y-18558259D01*
X5597158Y-18558259D02*
X5616205Y-18548735D01*
X5616205Y-18548735D02*
X5625729Y-18539211D01*
X5625729Y-18539211D02*
X5635253Y-18520164D01*
X5635253Y-18520164D02*
X5635253Y-18482069D01*
X5635253Y-18482069D02*
X5625729Y-18463021D01*
X5625729Y-18463021D02*
X5616205Y-18453497D01*
X5616205Y-18453497D02*
X5597158Y-18443973D01*
X5873348Y-18558259D02*
X5873348Y-18358259D01*
X5959062Y-18558259D02*
X5959062Y-18453497D01*
X5959062Y-18453497D02*
X5949539Y-18434449D01*
X5949539Y-18434449D02*
X5930491Y-18424926D01*
X5930491Y-18424926D02*
X5901919Y-18424926D01*
X5901919Y-18424926D02*
X5882872Y-18434449D01*
X5882872Y-18434449D02*
X5873348Y-18443973D01*
X6082872Y-18558259D02*
X6063824Y-18548735D01*
X6063824Y-18548735D02*
X6054300Y-18539211D01*
X6054300Y-18539211D02*
X6044777Y-18520164D01*
X6044777Y-18520164D02*
X6044777Y-18463021D01*
X6044777Y-18463021D02*
X6054300Y-18443973D01*
X6054300Y-18443973D02*
X6063824Y-18434449D01*
X6063824Y-18434449D02*
X6082872Y-18424926D01*
X6082872Y-18424926D02*
X6111443Y-18424926D01*
X6111443Y-18424926D02*
X6130491Y-18434449D01*
X6130491Y-18434449D02*
X6140015Y-18443973D01*
X6140015Y-18443973D02*
X6149539Y-18463021D01*
X6149539Y-18463021D02*
X6149539Y-18520164D01*
X6149539Y-18520164D02*
X6140015Y-18539211D01*
X6140015Y-18539211D02*
X6130491Y-18548735D01*
X6130491Y-18548735D02*
X6111443Y-18558259D01*
X6111443Y-18558259D02*
X6082872Y-18558259D01*
X6263824Y-18558259D02*
X6244777Y-18548735D01*
X6244777Y-18548735D02*
X6235253Y-18529688D01*
X6235253Y-18529688D02*
X6235253Y-18358259D01*
X6416205Y-18548735D02*
X6397158Y-18558259D01*
X6397158Y-18558259D02*
X6359062Y-18558259D01*
X6359062Y-18558259D02*
X6340015Y-18548735D01*
X6340015Y-18548735D02*
X6330491Y-18529688D01*
X6330491Y-18529688D02*
X6330491Y-18453497D01*
X6330491Y-18453497D02*
X6340015Y-18434449D01*
X6340015Y-18434449D02*
X6359062Y-18424926D01*
X6359062Y-18424926D02*
X6397158Y-18424926D01*
X6397158Y-18424926D02*
X6416205Y-18434449D01*
X6416205Y-18434449D02*
X6425729Y-18453497D01*
X6425729Y-18453497D02*
X6425729Y-18472545D01*
X6425729Y-18472545D02*
X6330491Y-18491592D01*
X6501920Y-18548735D02*
X6520967Y-18558259D01*
X6520967Y-18558259D02*
X6559062Y-18558259D01*
X6559062Y-18558259D02*
X6578110Y-18548735D01*
X6578110Y-18548735D02*
X6587634Y-18529688D01*
X6587634Y-18529688D02*
X6587634Y-18520164D01*
X6587634Y-18520164D02*
X6578110Y-18501116D01*
X6578110Y-18501116D02*
X6559062Y-18491592D01*
X6559062Y-18491592D02*
X6530491Y-18491592D01*
X6530491Y-18491592D02*
X6511443Y-18482069D01*
X6511443Y-18482069D02*
X6501920Y-18463021D01*
X6501920Y-18463021D02*
X6501920Y-18453497D01*
X6501920Y-18453497D02*
X6511443Y-18434449D01*
X6511443Y-18434449D02*
X6530491Y-18424926D01*
X6530491Y-18424926D02*
X6559062Y-18424926D01*
X6559062Y-18424926D02*
X6578110Y-18434449D01*
X6654301Y-18634449D02*
X6663824Y-18624926D01*
X6663824Y-18624926D02*
X6682872Y-18596354D01*
X6682872Y-18596354D02*
X6692396Y-18577307D01*
X6692396Y-18577307D02*
X6701920Y-18548735D01*
X6701920Y-18548735D02*
X6711443Y-18501116D01*
X6711443Y-18501116D02*
X6711443Y-18463021D01*
X6711443Y-18463021D02*
X6701920Y-18415402D01*
X6701920Y-18415402D02*
X6692396Y-18386830D01*
X6692396Y-18386830D02*
X6682872Y-18367783D01*
X6682872Y-18367783D02*
X6663824Y-18339211D01*
X6663824Y-18339211D02*
X6654301Y-18329688D01*
M02*
