G04 #@! TF.GenerationSoftware,KiCad,Pcbnew,8.0.5*
G04 #@! TF.CreationDate,2024-12-27T19:58:16-05:00*
G04 #@! TF.ProjectId,line_sensor_pcb,6c696e65-5f73-4656-9e73-6f725f706362,rev?*
G04 #@! TF.SameCoordinates,Original*
G04 #@! TF.FileFunction,Copper,L1,Top*
G04 #@! TF.FilePolarity,Positive*
%FSLAX46Y46*%
G04 Gerber Fmt 4.6, Leading zero omitted, Abs format (unit mm)*
G04 Created by KiCad (PCBNEW 8.0.5) date 2024-12-27 19:58:16*
%MOMM*%
%LPD*%
G01*
G04 APERTURE LIST*
%ADD10C,0.300000*%
G04 #@! TA.AperFunction,NonConductor*
%ADD11C,0.300000*%
G04 #@! TD*
G04 #@! TA.AperFunction,ComponentPad*
%ADD12C,1.300000*%
G04 #@! TD*
G04 #@! TA.AperFunction,SMDPad,CuDef*
%ADD13R,0.800000X0.800000*%
G04 #@! TD*
G04 #@! TA.AperFunction,SMDPad,CuDef*
%ADD14R,0.600000X3.100000*%
G04 #@! TD*
G04 #@! TA.AperFunction,SMDPad,CuDef*
%ADD15R,1.300000X3.100000*%
G04 #@! TD*
G04 #@! TA.AperFunction,ComponentPad*
%ADD16R,1.398000X1.398000*%
G04 #@! TD*
G04 #@! TA.AperFunction,ComponentPad*
%ADD17C,1.398000*%
G04 #@! TD*
G04 #@! TA.AperFunction,Conductor*
%ADD18C,0.200000*%
G04 #@! TD*
G04 APERTURE END LIST*
D10*
D11*
G36*
X84219533Y-51510636D02*
G01*
X84287074Y-51539108D01*
X84319720Y-51553963D01*
X84391482Y-51587554D01*
X84458386Y-51617887D01*
X84509497Y-51638593D01*
X84583583Y-51664433D01*
X84654898Y-51693594D01*
X84723442Y-51726074D01*
X84789216Y-51761875D01*
X84852219Y-51800996D01*
X84912452Y-51843437D01*
X84969914Y-51889198D01*
X85024605Y-51938279D01*
X85084283Y-51999525D01*
X85136003Y-52062362D01*
X85179766Y-52126791D01*
X85215573Y-52192811D01*
X85249141Y-52277574D01*
X85270277Y-52364823D01*
X85278980Y-52454559D01*
X85279228Y-52472805D01*
X85275038Y-52549220D01*
X85262469Y-52623953D01*
X85241519Y-52697003D01*
X85212189Y-52768369D01*
X85191667Y-52808394D01*
X85150239Y-52876315D01*
X85102569Y-52938065D01*
X85048659Y-52993643D01*
X84988507Y-53043051D01*
X84951332Y-53068513D01*
X84882291Y-53105990D01*
X84803487Y-53135712D01*
X84730359Y-53154558D01*
X84650451Y-53168020D01*
X84563764Y-53176096D01*
X84489532Y-53178681D01*
X84470296Y-53178789D01*
X84394631Y-53174120D01*
X84321111Y-53162520D01*
X84297006Y-53157540D01*
X84221581Y-53137248D01*
X84152827Y-53110767D01*
X84110526Y-53087930D01*
X84039067Y-53069605D01*
X84008311Y-53046531D01*
X83970524Y-52980083D01*
X83967278Y-52949445D01*
X83968244Y-52875614D01*
X83969092Y-52846863D01*
X84261102Y-52846863D01*
X84328147Y-52877775D01*
X84353426Y-52884965D01*
X84426756Y-52895949D01*
X84469197Y-52897421D01*
X84548186Y-52895283D01*
X84629204Y-52887384D01*
X84707114Y-52871230D01*
X84776041Y-52843969D01*
X84788667Y-52836605D01*
X84847177Y-52791916D01*
X84896768Y-52737444D01*
X84934113Y-52679434D01*
X84964984Y-52610015D01*
X84983040Y-52538778D01*
X84988335Y-52472438D01*
X84981045Y-52395448D01*
X84959176Y-52321785D01*
X84922728Y-52251450D01*
X84871700Y-52184442D01*
X84806092Y-52120761D01*
X84743109Y-52072212D01*
X84689748Y-52037198D01*
X84625451Y-52001798D01*
X84558475Y-51969417D01*
X84490383Y-51938616D01*
X84411128Y-51904345D01*
X84339687Y-51874429D01*
X84261102Y-51842292D01*
X84261102Y-52846863D01*
X83969092Y-52846863D01*
X83970408Y-52802226D01*
X83973315Y-52727569D01*
X83977170Y-52643164D01*
X83981024Y-52558777D01*
X83983932Y-52484172D01*
X83986096Y-52410888D01*
X83987062Y-52337250D01*
X83986596Y-52255441D01*
X83985555Y-52174073D01*
X83984155Y-52091269D01*
X83982592Y-52011671D01*
X83982299Y-51997630D01*
X83980680Y-51916705D01*
X83979215Y-51832353D01*
X83978206Y-51758835D01*
X83977578Y-51680232D01*
X83977536Y-51658011D01*
X84001045Y-51584433D01*
X84032124Y-51546270D01*
X84092192Y-51502818D01*
X84148628Y-51490582D01*
X84219533Y-51510636D01*
G37*
G36*
X86007335Y-52009491D02*
G01*
X86086578Y-52020511D01*
X86158174Y-52039544D01*
X86229577Y-52070537D01*
X86290247Y-52112050D01*
X86341338Y-52170486D01*
X86372966Y-52240644D01*
X86385130Y-52322527D01*
X86385282Y-52333586D01*
X86370303Y-52408134D01*
X86330690Y-52470645D01*
X86273870Y-52522622D01*
X86258520Y-52533621D01*
X86192321Y-52572412D01*
X86124034Y-52606350D01*
X86047911Y-52641384D01*
X86026612Y-52650858D01*
X85679298Y-52803632D01*
X85749136Y-52828361D01*
X85798733Y-52838803D01*
X85874112Y-52847595D01*
X85948334Y-52850481D01*
X85959567Y-52850526D01*
X86033897Y-52845629D01*
X86108601Y-52828699D01*
X86181189Y-52796108D01*
X86193307Y-52788611D01*
X86257339Y-52752793D01*
X86330694Y-52733290D01*
X86403824Y-52755519D01*
X86436001Y-52822208D01*
X86437672Y-52849427D01*
X86420857Y-52926485D01*
X86376968Y-52987823D01*
X86315087Y-53035971D01*
X86265481Y-53063018D01*
X86192368Y-53093151D01*
X86117012Y-53114675D01*
X86039411Y-53127589D01*
X85959567Y-53131894D01*
X85884813Y-53129023D01*
X85800870Y-53117998D01*
X85723212Y-53098703D01*
X85651839Y-53071140D01*
X85586753Y-53035308D01*
X85556566Y-53014291D01*
X85497799Y-52961784D01*
X85451191Y-52901806D01*
X85416741Y-52834358D01*
X85394450Y-52759439D01*
X85384318Y-52677050D01*
X85383642Y-52647927D01*
X85386987Y-52568370D01*
X85389993Y-52545711D01*
X85658782Y-52545711D01*
X85731489Y-52513991D01*
X85803982Y-52482485D01*
X85876260Y-52451194D01*
X85890690Y-52444961D01*
X85964509Y-52410034D01*
X86035993Y-52372925D01*
X86101815Y-52334172D01*
X86112341Y-52327358D01*
X86043759Y-52300310D01*
X85965760Y-52288757D01*
X85932090Y-52287791D01*
X85858695Y-52298433D01*
X85789933Y-52333695D01*
X85767958Y-52352271D01*
X85720835Y-52409699D01*
X85684155Y-52478272D01*
X85658782Y-52545711D01*
X85389993Y-52545711D01*
X85397023Y-52492730D01*
X85413749Y-52421008D01*
X85442652Y-52340113D01*
X85481189Y-52264860D01*
X85520662Y-52206458D01*
X85570884Y-52148831D01*
X85637997Y-52092571D01*
X85712581Y-52050376D01*
X85794635Y-52022246D01*
X85868720Y-52009549D01*
X85931723Y-52006423D01*
X86007335Y-52009491D01*
G37*
G36*
X87339661Y-52358133D02*
G01*
X87265860Y-52345721D01*
X87216929Y-52293286D01*
X87143158Y-52287877D01*
X87132299Y-52287791D01*
X87048008Y-52289942D01*
X86971710Y-52297888D01*
X86899772Y-52322206D01*
X86884270Y-52348974D01*
X86942660Y-52403012D01*
X87015646Y-52436901D01*
X87033747Y-52444228D01*
X87105510Y-52473479D01*
X87177545Y-52504446D01*
X87244458Y-52535673D01*
X87309619Y-52571357D01*
X87375015Y-52621251D01*
X87426252Y-52684115D01*
X87453841Y-52754108D01*
X87459096Y-52804731D01*
X87451207Y-52880024D01*
X87422871Y-52955770D01*
X87373927Y-53020525D01*
X87314196Y-53068170D01*
X87294232Y-53080237D01*
X87223936Y-53113095D01*
X87146038Y-53136565D01*
X87071641Y-53149401D01*
X86991423Y-53155048D01*
X86967435Y-53155341D01*
X86892245Y-53151603D01*
X86813119Y-53138680D01*
X86738644Y-53116527D01*
X86717208Y-53108080D01*
X86649568Y-53072200D01*
X86592195Y-53016594D01*
X86563961Y-52941625D01*
X86562602Y-52918670D01*
X86582858Y-52844187D01*
X86649977Y-52806440D01*
X86685334Y-52803632D01*
X86761012Y-52817370D01*
X86822355Y-52838803D01*
X86892970Y-52862845D01*
X86960474Y-52873974D01*
X87042039Y-52870345D01*
X87117644Y-52855014D01*
X87170495Y-52802802D01*
X87170767Y-52798136D01*
X87119492Y-52739302D01*
X87051313Y-52706157D01*
X87025321Y-52695921D01*
X86951132Y-52667280D01*
X86878122Y-52637870D01*
X86805685Y-52606395D01*
X86753478Y-52579783D01*
X86689845Y-52531973D01*
X86639990Y-52468552D01*
X86613145Y-52394929D01*
X86608032Y-52340181D01*
X86615747Y-52264468D01*
X86644250Y-52188606D01*
X86693755Y-52126173D01*
X86764263Y-52077168D01*
X86827484Y-52050387D01*
X86900322Y-52031153D01*
X86977766Y-52018831D01*
X87054334Y-52011618D01*
X87140303Y-52007496D01*
X87219127Y-52006423D01*
X87293945Y-52010958D01*
X87365143Y-52030573D01*
X87371535Y-52033900D01*
X87424706Y-52090301D01*
X87439612Y-52162990D01*
X87439678Y-52169089D01*
X87434893Y-52242750D01*
X87411451Y-52316595D01*
X87345814Y-52357948D01*
X87339661Y-52358133D01*
G37*
G36*
X87870523Y-51842292D02*
G01*
X87798412Y-51827955D01*
X87756217Y-51801625D01*
X87713572Y-51740039D01*
X87707857Y-51701608D01*
X87730715Y-51629162D01*
X87756217Y-51601957D01*
X87823537Y-51566694D01*
X87870523Y-51560924D01*
X87942505Y-51575390D01*
X87984462Y-51601957D01*
X88026785Y-51663221D01*
X88032456Y-51701608D01*
X88009771Y-51774227D01*
X87984462Y-51801625D01*
X87917458Y-51836573D01*
X87870523Y-51842292D01*
G37*
G36*
X87958084Y-52610924D02*
G01*
X87959000Y-52688410D01*
X87960692Y-52762721D01*
X87961748Y-52802166D01*
X87963680Y-52877321D01*
X87965121Y-52953948D01*
X87965411Y-52993042D01*
X87946363Y-53066117D01*
X87925111Y-53092693D01*
X87859812Y-53128066D01*
X87823262Y-53131894D01*
X87751307Y-53115012D01*
X87721046Y-53092693D01*
X87685012Y-53028748D01*
X87681113Y-52993042D01*
X87680197Y-52915648D01*
X87678504Y-52841506D01*
X87677449Y-52802166D01*
X87675517Y-52726818D01*
X87674075Y-52650047D01*
X87673785Y-52610924D01*
X87675228Y-52534589D01*
X87678634Y-52460980D01*
X87683412Y-52386961D01*
X87684043Y-52378283D01*
X87689002Y-52303270D01*
X87692609Y-52228623D01*
X87694292Y-52151137D01*
X87694302Y-52145275D01*
X87713177Y-52072200D01*
X87734235Y-52045624D01*
X87799865Y-52010251D01*
X87836451Y-52006423D01*
X87908248Y-52023306D01*
X87938300Y-52045624D01*
X87974665Y-52109569D01*
X87978600Y-52145275D01*
X87977158Y-52221662D01*
X87973752Y-52295393D01*
X87968973Y-52369582D01*
X87968342Y-52378283D01*
X87963383Y-52453119D01*
X87959777Y-52527637D01*
X87958094Y-52605063D01*
X87958084Y-52610924D01*
G37*
G36*
X88863169Y-52010353D02*
G01*
X88937782Y-52024655D01*
X88955694Y-52030237D01*
X89022781Y-52062466D01*
X89069267Y-52102411D01*
X89143731Y-52127874D01*
X89189713Y-52189028D01*
X89200059Y-52257749D01*
X89195309Y-52334176D01*
X89184670Y-52411894D01*
X89178443Y-52448625D01*
X89165783Y-52525193D01*
X89154823Y-52603085D01*
X89145562Y-52682300D01*
X89138000Y-52762839D01*
X89132138Y-52844702D01*
X89127975Y-52927889D01*
X89126786Y-52961535D01*
X89122802Y-53042118D01*
X89115978Y-53116988D01*
X89103456Y-53202541D01*
X89086497Y-53279168D01*
X89060291Y-53359338D01*
X89027696Y-53426653D01*
X89015411Y-53446235D01*
X88968199Y-53504284D01*
X88910826Y-53552495D01*
X88843292Y-53590866D01*
X88765597Y-53619399D01*
X88677741Y-53638093D01*
X88600140Y-53645964D01*
X88537672Y-53647735D01*
X88443734Y-53644884D01*
X88362321Y-53636332D01*
X88278168Y-53617624D01*
X88203018Y-53583414D01*
X88150960Y-53527290D01*
X88136870Y-53465286D01*
X88152332Y-53390423D01*
X88172773Y-53359773D01*
X88236457Y-53322660D01*
X88267662Y-53319473D01*
X88341421Y-53328632D01*
X88400652Y-53342920D01*
X88472590Y-53358948D01*
X88545702Y-53366276D01*
X88554159Y-53366367D01*
X88633982Y-53360108D01*
X88707856Y-53338469D01*
X88771101Y-53296815D01*
X88780572Y-53287233D01*
X88821883Y-53221359D01*
X88845573Y-53148529D01*
X88858991Y-53069486D01*
X88863004Y-53024916D01*
X88803513Y-53074200D01*
X88744668Y-53105150D01*
X88671085Y-53126018D01*
X88600321Y-53131894D01*
X88526089Y-53127129D01*
X88446322Y-53109522D01*
X88373919Y-53078943D01*
X88308878Y-53035391D01*
X88266929Y-52996339D01*
X88216965Y-52933405D01*
X88179274Y-52863213D01*
X88153853Y-52785763D01*
X88140705Y-52701055D01*
X88138702Y-52649392D01*
X88139109Y-52640966D01*
X88421168Y-52640966D01*
X88425676Y-52714690D01*
X88442987Y-52786818D01*
X88467330Y-52833307D01*
X88525399Y-52881393D01*
X88600801Y-52897358D01*
X88606549Y-52897421D01*
X88680740Y-52877926D01*
X88744556Y-52830185D01*
X88776542Y-52795572D01*
X88819962Y-52735372D01*
X88854308Y-52663794D01*
X88868133Y-52604696D01*
X88881070Y-52529119D01*
X88892244Y-52452480D01*
X88902623Y-52373625D01*
X88911965Y-52297273D01*
X88913562Y-52283761D01*
X88846450Y-52252562D01*
X88844319Y-52251887D01*
X88778740Y-52240896D01*
X88696400Y-52248338D01*
X88623768Y-52270663D01*
X88553662Y-52313570D01*
X88507630Y-52359965D01*
X88465835Y-52426036D01*
X88437718Y-52502250D01*
X88424208Y-52578511D01*
X88421168Y-52640966D01*
X88139109Y-52640966D01*
X88142879Y-52562986D01*
X88155410Y-52481910D01*
X88176295Y-52406164D01*
X88205534Y-52335750D01*
X88243128Y-52270667D01*
X88289075Y-52210914D01*
X88309794Y-52188506D01*
X88368247Y-52136051D01*
X88432783Y-52092486D01*
X88503401Y-52057812D01*
X88580102Y-52032029D01*
X88662884Y-52015136D01*
X88751749Y-52007134D01*
X88788998Y-52006423D01*
X88863169Y-52010353D01*
G37*
G36*
X90148942Y-53155341D02*
G01*
X90075084Y-53141229D01*
X90022066Y-53088159D01*
X90007892Y-53035907D01*
X89997124Y-52959365D01*
X89986254Y-52882515D01*
X89978949Y-52831109D01*
X89970189Y-52758026D01*
X89964779Y-52681656D01*
X89963562Y-52626678D01*
X89966571Y-52550106D01*
X89967226Y-52538750D01*
X89970714Y-52463796D01*
X89970889Y-52450823D01*
X89972721Y-52415652D01*
X89974919Y-52369856D01*
X89955828Y-52297488D01*
X89930589Y-52287791D01*
X89854097Y-52305749D01*
X89790317Y-52348997D01*
X89744476Y-52396601D01*
X89696469Y-52462415D01*
X89659003Y-52528652D01*
X89626436Y-52602171D01*
X89601960Y-52672473D01*
X89594547Y-52747927D01*
X89592801Y-52761500D01*
X89586725Y-52836857D01*
X89586573Y-52850526D01*
X89591989Y-52925791D01*
X89593168Y-52936256D01*
X89599530Y-53010022D01*
X89599762Y-53021618D01*
X89578754Y-53094419D01*
X89559096Y-53117240D01*
X89493136Y-53151621D01*
X89456514Y-53155341D01*
X89384559Y-53138775D01*
X89354298Y-53116873D01*
X89317523Y-53051166D01*
X89314364Y-53019787D01*
X89309249Y-52943921D01*
X89308136Y-52933325D01*
X89302127Y-52858256D01*
X89301908Y-52846496D01*
X89303596Y-52769651D01*
X89307489Y-52693253D01*
X89312847Y-52615126D01*
X89316196Y-52572456D01*
X89321906Y-52499218D01*
X89326715Y-52424577D01*
X89330150Y-52344865D01*
X89330851Y-52298049D01*
X89328243Y-52224730D01*
X89327187Y-52206458D01*
X89323753Y-52132201D01*
X89323524Y-52115233D01*
X89345100Y-52043296D01*
X89365289Y-52020711D01*
X89431721Y-51986661D01*
X89467871Y-51982976D01*
X89540056Y-51998933D01*
X89591030Y-52053346D01*
X89610581Y-52126588D01*
X89612219Y-52146374D01*
X89613318Y-52157732D01*
X89670350Y-52106310D01*
X89738321Y-52059765D01*
X89807834Y-52027701D01*
X89889167Y-52008787D01*
X89930589Y-52006423D01*
X90010075Y-52014032D01*
X90086748Y-52041360D01*
X90148309Y-52088564D01*
X90194757Y-52155643D01*
X90199501Y-52165425D01*
X90225583Y-52242362D01*
X90239493Y-52318749D01*
X90246593Y-52396406D01*
X90248911Y-52471007D01*
X90248960Y-52484162D01*
X90248960Y-52555603D01*
X90247861Y-52621182D01*
X90252068Y-52698479D01*
X90261277Y-52771413D01*
X90269842Y-52823415D01*
X90281628Y-52896266D01*
X90290008Y-52971691D01*
X90292191Y-53024549D01*
X90270804Y-53095622D01*
X90250792Y-53117972D01*
X90185021Y-53151692D01*
X90148942Y-53155341D01*
G37*
G36*
X91003078Y-52009491D02*
G01*
X91082321Y-52020511D01*
X91153917Y-52039544D01*
X91225321Y-52070537D01*
X91285991Y-52112050D01*
X91337081Y-52170486D01*
X91368709Y-52240644D01*
X91380873Y-52322527D01*
X91381025Y-52333586D01*
X91366047Y-52408134D01*
X91326433Y-52470645D01*
X91269613Y-52522622D01*
X91254263Y-52533621D01*
X91188064Y-52572412D01*
X91119778Y-52606350D01*
X91043654Y-52641384D01*
X91022355Y-52650858D01*
X90675041Y-52803632D01*
X90744880Y-52828361D01*
X90794476Y-52838803D01*
X90869856Y-52847595D01*
X90944077Y-52850481D01*
X90955310Y-52850526D01*
X91029640Y-52845629D01*
X91104344Y-52828699D01*
X91176932Y-52796108D01*
X91189050Y-52788611D01*
X91253082Y-52752793D01*
X91326437Y-52733290D01*
X91399567Y-52755519D01*
X91431744Y-52822208D01*
X91433415Y-52849427D01*
X91416600Y-52926485D01*
X91372711Y-52987823D01*
X91310830Y-53035971D01*
X91261224Y-53063018D01*
X91188112Y-53093151D01*
X91112755Y-53114675D01*
X91035155Y-53127589D01*
X90955310Y-53131894D01*
X90880556Y-53129023D01*
X90796613Y-53117998D01*
X90718955Y-53098703D01*
X90647583Y-53071140D01*
X90582496Y-53035308D01*
X90552309Y-53014291D01*
X90493542Y-52961784D01*
X90446934Y-52901806D01*
X90412484Y-52834358D01*
X90390193Y-52759439D01*
X90380061Y-52677050D01*
X90379385Y-52647927D01*
X90382731Y-52568370D01*
X90385737Y-52545711D01*
X90654525Y-52545711D01*
X90727233Y-52513991D01*
X90799725Y-52482485D01*
X90872004Y-52451194D01*
X90886434Y-52444961D01*
X90960252Y-52410034D01*
X91031736Y-52372925D01*
X91097558Y-52334172D01*
X91108084Y-52327358D01*
X91039502Y-52300310D01*
X90961503Y-52288757D01*
X90927833Y-52287791D01*
X90854438Y-52298433D01*
X90785676Y-52333695D01*
X90763702Y-52352271D01*
X90716578Y-52409699D01*
X90679899Y-52478272D01*
X90654525Y-52545711D01*
X90385737Y-52545711D01*
X90392766Y-52492730D01*
X90409492Y-52421008D01*
X90438395Y-52340113D01*
X90476932Y-52264860D01*
X90516406Y-52206458D01*
X90566627Y-52148831D01*
X90633740Y-52092571D01*
X90708324Y-52050376D01*
X90790378Y-52022246D01*
X90864463Y-52009549D01*
X90927466Y-52006423D01*
X91003078Y-52009491D01*
G37*
G36*
X92602677Y-51462389D02*
G01*
X92628129Y-51483255D01*
X92662205Y-51549218D01*
X92665132Y-51579975D01*
X92663667Y-51664514D01*
X92660644Y-51740059D01*
X92655973Y-51826012D01*
X92650821Y-51905588D01*
X92644524Y-51992392D01*
X92641685Y-52029138D01*
X92635035Y-52118727D01*
X92629513Y-52201107D01*
X92625118Y-52276278D01*
X92621331Y-52356967D01*
X92618964Y-52437983D01*
X92618604Y-52477934D01*
X92618976Y-52566176D01*
X92620092Y-52646805D01*
X92622534Y-52736884D01*
X92626139Y-52815068D01*
X92631999Y-52893185D01*
X92642418Y-52970694D01*
X92645348Y-53000736D01*
X92623962Y-53072631D01*
X92603949Y-53094891D01*
X92537962Y-53128967D01*
X92508328Y-53131894D01*
X92435002Y-53110449D01*
X92395122Y-53064117D01*
X92328130Y-53097175D01*
X92254364Y-53118241D01*
X92249675Y-53119071D01*
X92173288Y-53128688D01*
X92099346Y-53131882D01*
X92094337Y-53131894D01*
X92010539Y-53126819D01*
X91932255Y-53111595D01*
X91859483Y-53086222D01*
X91792223Y-53050699D01*
X91730477Y-53005026D01*
X91711120Y-52987547D01*
X91658204Y-52929471D01*
X91616237Y-52865702D01*
X91585218Y-52796240D01*
X91565146Y-52721085D01*
X91556023Y-52640238D01*
X91555415Y-52612023D01*
X91555670Y-52606528D01*
X91820296Y-52606528D01*
X91833901Y-52683373D01*
X91874714Y-52750787D01*
X91902728Y-52778719D01*
X91968313Y-52822477D01*
X92041420Y-52846038D01*
X92094337Y-52850526D01*
X92167767Y-52845770D01*
X92214870Y-52833674D01*
X92278480Y-52795961D01*
X92309392Y-52773956D01*
X92343464Y-52745380D01*
X92342404Y-52667525D01*
X92342434Y-52591192D01*
X92342794Y-52506592D01*
X92343331Y-52422573D01*
X92343464Y-52404295D01*
X92295771Y-52345147D01*
X92254804Y-52316734D01*
X92182748Y-52292568D01*
X92125111Y-52287791D01*
X92045410Y-52294108D01*
X91970992Y-52315947D01*
X91906323Y-52357987D01*
X91896500Y-52367658D01*
X91853114Y-52431753D01*
X91829301Y-52506399D01*
X91820594Y-52586919D01*
X91820296Y-52606528D01*
X91555670Y-52606528D01*
X91559234Y-52529736D01*
X91570692Y-52452547D01*
X91589788Y-52380457D01*
X91622787Y-52300678D01*
X91666785Y-52228241D01*
X91711852Y-52173485D01*
X91774015Y-52116710D01*
X91842902Y-52071682D01*
X91918512Y-52038400D01*
X92000845Y-52016864D01*
X92074592Y-52007891D01*
X92121081Y-52006423D01*
X92194262Y-52010545D01*
X92259200Y-52022909D01*
X92328781Y-52049957D01*
X92364347Y-52072369D01*
X92367730Y-51985180D01*
X92371285Y-51904963D01*
X92375012Y-51831719D01*
X92379911Y-51749968D01*
X92386145Y-51666248D01*
X92393907Y-51588403D01*
X92396221Y-51570083D01*
X92419999Y-51498122D01*
X92478241Y-51451587D01*
X92530310Y-51443688D01*
X92602677Y-51462389D01*
G37*
G36*
X93968248Y-51465213D02*
G01*
X94003248Y-51529789D01*
X94007124Y-51574113D01*
X94003461Y-51621008D01*
X93999797Y-51667536D01*
X93999797Y-52090687D01*
X94069870Y-52055857D01*
X94141597Y-52028998D01*
X94145976Y-52027672D01*
X94219164Y-52011092D01*
X94281165Y-52006423D01*
X94354570Y-52010627D01*
X94436659Y-52026770D01*
X94512204Y-52055020D01*
X94581206Y-52095377D01*
X94643666Y-52147842D01*
X94672442Y-52178614D01*
X94719754Y-52241473D01*
X94757278Y-52309149D01*
X94785013Y-52381642D01*
X94802959Y-52458952D01*
X94811117Y-52541079D01*
X94811660Y-52569525D01*
X94805967Y-52654666D01*
X94788889Y-52734784D01*
X94760424Y-52809879D01*
X94720573Y-52879950D01*
X94669336Y-52944998D01*
X94649727Y-52965565D01*
X94585160Y-53022091D01*
X94515106Y-53066922D01*
X94439564Y-53100058D01*
X94358536Y-53121499D01*
X94272022Y-53131244D01*
X94241964Y-53131894D01*
X94161928Y-53127025D01*
X94084210Y-53112420D01*
X94008810Y-53088076D01*
X93967923Y-53070345D01*
X93901497Y-53106065D01*
X93875233Y-53108447D01*
X93803321Y-53089142D01*
X93779612Y-53071078D01*
X93742518Y-53004514D01*
X93740045Y-52977655D01*
X93742976Y-52901451D01*
X93746270Y-52826830D01*
X93746273Y-52825247D01*
X93746273Y-52555462D01*
X93999250Y-52555462D01*
X93999353Y-52639972D01*
X93999557Y-52722144D01*
X93999797Y-52795572D01*
X94075979Y-52822137D01*
X94153216Y-52841457D01*
X94229168Y-52850312D01*
X94241964Y-52850526D01*
X94319165Y-52842763D01*
X94393590Y-52816288D01*
X94457020Y-52771025D01*
X94505203Y-52711268D01*
X94533385Y-52641813D01*
X94541650Y-52570258D01*
X94533511Y-52491865D01*
X94506068Y-52417702D01*
X94472773Y-52369856D01*
X94411997Y-52319848D01*
X94337928Y-52292920D01*
X94281165Y-52287791D01*
X94207549Y-52298810D01*
X94157334Y-52316001D01*
X94087868Y-52348222D01*
X94021413Y-52386045D01*
X93999797Y-52399532D01*
X93999325Y-52476304D01*
X93999250Y-52555462D01*
X93746273Y-52555462D01*
X93746273Y-51649951D01*
X93755579Y-51575480D01*
X93779246Y-51517327D01*
X93829346Y-51462097D01*
X93896849Y-51443688D01*
X93968248Y-51465213D01*
G37*
G36*
X96022128Y-52204260D02*
G01*
X95983892Y-52282572D01*
X95948693Y-52354457D01*
X95909394Y-52434550D01*
X95865997Y-52522853D01*
X95830760Y-52594466D01*
X95793217Y-52670698D01*
X95753368Y-52751546D01*
X95711214Y-52837013D01*
X95666755Y-52927096D01*
X95627077Y-53007557D01*
X95590476Y-53083617D01*
X95556953Y-53155276D01*
X95526506Y-53222535D01*
X95494031Y-53297436D01*
X95465987Y-53366001D01*
X95440248Y-53438177D01*
X95414415Y-53508195D01*
X95397843Y-53552480D01*
X95358225Y-53614154D01*
X95288770Y-53646247D01*
X95265952Y-53647735D01*
X95192105Y-53629899D01*
X95163004Y-53610000D01*
X95122180Y-53546250D01*
X95118674Y-53515844D01*
X95135946Y-53433377D01*
X95160468Y-53362241D01*
X95187762Y-53292312D01*
X95221880Y-53210807D01*
X95251946Y-53142083D01*
X95285850Y-53066847D01*
X95323593Y-52985101D01*
X95337027Y-52956406D01*
X95298403Y-52882517D01*
X95262828Y-52816091D01*
X95223098Y-52743162D01*
X95179211Y-52663729D01*
X95131169Y-52577794D01*
X95092410Y-52509075D01*
X95051313Y-52436698D01*
X95007878Y-52360663D01*
X94977623Y-52307941D01*
X94936656Y-52244463D01*
X94927065Y-52229539D01*
X94900200Y-52159251D01*
X94899221Y-52144542D01*
X94922122Y-52072548D01*
X94943551Y-52048189D01*
X95007415Y-52011358D01*
X95045401Y-52006423D01*
X95118845Y-52025886D01*
X95151646Y-52056249D01*
X95198517Y-52120867D01*
X95247767Y-52194966D01*
X95288880Y-52261072D01*
X95331516Y-52333246D01*
X95375674Y-52411487D01*
X95421355Y-52495797D01*
X95456615Y-52563011D01*
X95492732Y-52633639D01*
X95525073Y-52563396D01*
X95558286Y-52491337D01*
X95589319Y-52424133D01*
X95621295Y-52355221D01*
X95626454Y-52344211D01*
X95662885Y-52271190D01*
X95698903Y-52202703D01*
X95738931Y-52131074D01*
X95769703Y-52079330D01*
X95822276Y-52024650D01*
X95891336Y-52006423D01*
X95964710Y-52024605D01*
X95994284Y-52044891D01*
X96035277Y-52106097D01*
X96039713Y-52139413D01*
X96022128Y-52204260D01*
G37*
G36*
X97508834Y-52255551D02*
G01*
X97486707Y-52338375D01*
X97464923Y-52422567D01*
X97444782Y-52502035D01*
X97422834Y-52589964D01*
X97403975Y-52666400D01*
X97383959Y-52748251D01*
X97378775Y-52769560D01*
X97366711Y-52843677D01*
X97354789Y-52917651D01*
X97343011Y-52991482D01*
X97340673Y-53006231D01*
X97311352Y-53078311D01*
X97260245Y-53134373D01*
X97185334Y-53155341D01*
X97111524Y-53137905D01*
X97073227Y-53105882D01*
X97040838Y-53037517D01*
X97038056Y-53006231D01*
X97041457Y-52928140D01*
X97051660Y-52842931D01*
X97065820Y-52764230D01*
X97084976Y-52680300D01*
X97104758Y-52606364D01*
X97109131Y-52591140D01*
X97134078Y-52504650D01*
X97155980Y-52428360D01*
X97179074Y-52347343D01*
X97200506Y-52271162D01*
X97219807Y-52199926D01*
X97223436Y-52184842D01*
X97238366Y-52104036D01*
X97253478Y-52023184D01*
X97268774Y-51942286D01*
X97284253Y-51861343D01*
X97301834Y-51783041D01*
X97323029Y-51704907D01*
X97348154Y-51633043D01*
X97384270Y-51564588D01*
X97441302Y-51511469D01*
X97515800Y-51490654D01*
X97520924Y-51490582D01*
X97593523Y-51509095D01*
X97647188Y-51564634D01*
X97659043Y-51587302D01*
X97685490Y-51662958D01*
X97704684Y-51738099D01*
X97721583Y-51817045D01*
X97735980Y-51893085D01*
X97747704Y-51960628D01*
X97762983Y-52047285D01*
X97780426Y-52135982D01*
X97795939Y-52208407D01*
X97812838Y-52282138D01*
X97831122Y-52357174D01*
X97850791Y-52433515D01*
X97871845Y-52511161D01*
X97882892Y-52550474D01*
X97912029Y-52472782D01*
X97940640Y-52393212D01*
X97968724Y-52311765D01*
X97996282Y-52228440D01*
X98023313Y-52143237D01*
X98049817Y-52056157D01*
X98075794Y-51967199D01*
X98101245Y-51876364D01*
X98159131Y-51638593D01*
X98195266Y-51567045D01*
X98252496Y-51511396D01*
X98324100Y-51490727D01*
X98331322Y-51490582D01*
X98407314Y-51514951D01*
X98458283Y-51572489D01*
X98490969Y-51642888D01*
X98498018Y-51663872D01*
X98516957Y-51740681D01*
X98530636Y-51817233D01*
X98541595Y-51889997D01*
X98546378Y-51924724D01*
X98557848Y-52007000D01*
X98569867Y-52087042D01*
X98582432Y-52164849D01*
X98595545Y-52240421D01*
X98609205Y-52313759D01*
X98628271Y-52408066D01*
X98648309Y-52498401D01*
X98669320Y-52584762D01*
X98691305Y-52667151D01*
X98696953Y-52687128D01*
X98718420Y-52763131D01*
X98741228Y-52845207D01*
X98762695Y-52924737D01*
X98781300Y-52998599D01*
X98788545Y-53037739D01*
X98767718Y-53110002D01*
X98740184Y-53141053D01*
X98672351Y-53175104D01*
X98637969Y-53178789D01*
X98561977Y-53155605D01*
X98511008Y-53100865D01*
X98478321Y-53033889D01*
X98471273Y-53013925D01*
X98413754Y-52758203D01*
X98394910Y-52680940D01*
X98378755Y-52607660D01*
X98362188Y-52526294D01*
X98345210Y-52436842D01*
X98331331Y-52359459D01*
X98317189Y-52276902D01*
X98306409Y-52211587D01*
X98279367Y-52291958D01*
X98254126Y-52365400D01*
X98229846Y-52435220D01*
X98202614Y-52512876D01*
X98172430Y-52598367D01*
X98152903Y-52653422D01*
X98090987Y-52846496D01*
X98064402Y-52920276D01*
X98034512Y-52989802D01*
X98011486Y-53034441D01*
X97964465Y-53093827D01*
X97894241Y-53128468D01*
X97859078Y-53131894D01*
X97787930Y-53112666D01*
X97735457Y-53060786D01*
X97710701Y-53015390D01*
X97653182Y-52820118D01*
X97628406Y-52735527D01*
X97604452Y-52649594D01*
X97581322Y-52562320D01*
X97559015Y-52473704D01*
X97541761Y-52401845D01*
X97525034Y-52329127D01*
X97508834Y-52255551D01*
G37*
G36*
X99575518Y-52014100D02*
G01*
X99646873Y-52032225D01*
X99716232Y-52057653D01*
X99724239Y-52061011D01*
X99792360Y-52095312D01*
X99850141Y-52141923D01*
X99879944Y-52214152D01*
X99856130Y-52278265D01*
X99843216Y-52350668D01*
X99840010Y-52380115D01*
X99835566Y-52455553D01*
X99834515Y-52523363D01*
X99835847Y-52602964D01*
X99840633Y-52681229D01*
X99851509Y-52759997D01*
X99862358Y-52802533D01*
X99892206Y-52869714D01*
X99909619Y-52907679D01*
X99939844Y-52976189D01*
X99949919Y-53007330D01*
X99926426Y-53077466D01*
X99908154Y-53096357D01*
X99841492Y-53129083D01*
X99811800Y-53131894D01*
X99741011Y-53102798D01*
X99680404Y-53056370D01*
X99661591Y-53039937D01*
X99593619Y-53070866D01*
X99522392Y-53099006D01*
X99494528Y-53108447D01*
X99420172Y-53127406D01*
X99371796Y-53131894D01*
X99297311Y-53128674D01*
X99215909Y-53116309D01*
X99143214Y-53094671D01*
X99069409Y-53057705D01*
X99007454Y-53008117D01*
X98999570Y-53000003D01*
X98951177Y-52935864D01*
X98914670Y-52859173D01*
X98892838Y-52783447D01*
X98879739Y-52698500D01*
X98875662Y-52623747D01*
X99160771Y-52623747D01*
X99165601Y-52702343D01*
X99184148Y-52779280D01*
X99210230Y-52828911D01*
X99267465Y-52878086D01*
X99340495Y-52896819D01*
X99358607Y-52897421D01*
X99431982Y-52890059D01*
X99479508Y-52876538D01*
X99548373Y-52842707D01*
X99587219Y-52814989D01*
X99576760Y-52728466D01*
X99568465Y-52650520D01*
X99561523Y-52570425D01*
X99557195Y-52493186D01*
X99556444Y-52452655D01*
X99560840Y-52377916D01*
X99571482Y-52302810D01*
X99574762Y-52283761D01*
X99538126Y-52269106D01*
X99511015Y-52264344D01*
X99434868Y-52272922D01*
X99364286Y-52298656D01*
X99299268Y-52341546D01*
X99265551Y-52372787D01*
X99214900Y-52436482D01*
X99180826Y-52505567D01*
X99163329Y-52580043D01*
X99160771Y-52623747D01*
X98875662Y-52623747D01*
X98875494Y-52620665D01*
X98875373Y-52604330D01*
X98879845Y-52529014D01*
X98897018Y-52443216D01*
X98927072Y-52362415D01*
X98970005Y-52286612D01*
X99015622Y-52227261D01*
X99058555Y-52182278D01*
X99117676Y-52131617D01*
X99180321Y-52089542D01*
X99246490Y-52056054D01*
X99316183Y-52031153D01*
X99389401Y-52014838D01*
X99466142Y-52007110D01*
X99497826Y-52006423D01*
X99575518Y-52014100D01*
G37*
G36*
X101081812Y-51462389D02*
G01*
X101107264Y-51483255D01*
X101141340Y-51549218D01*
X101144267Y-51579975D01*
X101142801Y-51664514D01*
X101139779Y-51740059D01*
X101135108Y-51826012D01*
X101129956Y-51905588D01*
X101123659Y-51992392D01*
X101120819Y-52029138D01*
X101114170Y-52118727D01*
X101108648Y-52201107D01*
X101104253Y-52276278D01*
X101100466Y-52356967D01*
X101098099Y-52437983D01*
X101097739Y-52477934D01*
X101098111Y-52566176D01*
X101099227Y-52646805D01*
X101101669Y-52736884D01*
X101105273Y-52815068D01*
X101111134Y-52893185D01*
X101121552Y-52970694D01*
X101124483Y-53000736D01*
X101103096Y-53072631D01*
X101083084Y-53094891D01*
X101017097Y-53128967D01*
X100987463Y-53131894D01*
X100914137Y-53110449D01*
X100874256Y-53064117D01*
X100807264Y-53097175D01*
X100733499Y-53118241D01*
X100728810Y-53119071D01*
X100652423Y-53128688D01*
X100578481Y-53131882D01*
X100573471Y-53131894D01*
X100489674Y-53126819D01*
X100411389Y-53111595D01*
X100338617Y-53086222D01*
X100271358Y-53050699D01*
X100209611Y-53005026D01*
X100190254Y-52987547D01*
X100137339Y-52929471D01*
X100095372Y-52865702D01*
X100064352Y-52796240D01*
X100044281Y-52721085D01*
X100035158Y-52640238D01*
X100034549Y-52612023D01*
X100034804Y-52606528D01*
X100299431Y-52606528D01*
X100313035Y-52683373D01*
X100353849Y-52750787D01*
X100381863Y-52778719D01*
X100447448Y-52822477D01*
X100520554Y-52846038D01*
X100573471Y-52850526D01*
X100646902Y-52845770D01*
X100694005Y-52833674D01*
X100757615Y-52795961D01*
X100788527Y-52773956D01*
X100822599Y-52745380D01*
X100821538Y-52667525D01*
X100821569Y-52591192D01*
X100821929Y-52506592D01*
X100822466Y-52422573D01*
X100822599Y-52404295D01*
X100774906Y-52345147D01*
X100733939Y-52316734D01*
X100661882Y-52292568D01*
X100604246Y-52287791D01*
X100524544Y-52294108D01*
X100450127Y-52315947D01*
X100385458Y-52357987D01*
X100375635Y-52367658D01*
X100332249Y-52431753D01*
X100308435Y-52506399D01*
X100299728Y-52586919D01*
X100299431Y-52606528D01*
X100034804Y-52606528D01*
X100038369Y-52529736D01*
X100049826Y-52452547D01*
X100068923Y-52380457D01*
X100101921Y-52300678D01*
X100145919Y-52228241D01*
X100190987Y-52173485D01*
X100253150Y-52116710D01*
X100322037Y-52071682D01*
X100397646Y-52038400D01*
X100479980Y-52016864D01*
X100553727Y-52007891D01*
X100600216Y-52006423D01*
X100673397Y-52010545D01*
X100738335Y-52022909D01*
X100807916Y-52049957D01*
X100843482Y-52072369D01*
X100846865Y-51985180D01*
X100850420Y-51904963D01*
X100854146Y-51831719D01*
X100859046Y-51749968D01*
X100865280Y-51666248D01*
X100873041Y-51588403D01*
X100875355Y-51570083D01*
X100899134Y-51498122D01*
X100957375Y-51451587D01*
X101009445Y-51443688D01*
X101081812Y-51462389D01*
G37*
G36*
X101627501Y-52154068D02*
G01*
X101685375Y-52103595D01*
X101751561Y-52060894D01*
X101788702Y-52043060D01*
X101860650Y-52019339D01*
X101936588Y-52007711D01*
X101972983Y-52006423D01*
X102054911Y-52012583D01*
X102132300Y-52034237D01*
X102199935Y-52076584D01*
X102226507Y-52104975D01*
X102263309Y-52171384D01*
X102284296Y-52243806D01*
X102295660Y-52322261D01*
X102296482Y-52331755D01*
X102299795Y-52410630D01*
X102303323Y-52489721D01*
X102307065Y-52569026D01*
X102307840Y-52584912D01*
X102315304Y-52659445D01*
X102323026Y-52735531D01*
X102328356Y-52786046D01*
X102338915Y-52860960D01*
X102352113Y-52934882D01*
X102363161Y-52984982D01*
X102368290Y-53023084D01*
X102345578Y-53095358D01*
X102324326Y-53117972D01*
X102257280Y-53151692D01*
X102222110Y-53155341D01*
X102149665Y-53138532D01*
X102098694Y-53082834D01*
X102087288Y-53053492D01*
X102069222Y-52982189D01*
X102055111Y-52908286D01*
X102043146Y-52830517D01*
X102041859Y-52821217D01*
X102032827Y-52744491D01*
X102026258Y-52668757D01*
X102023193Y-52591099D01*
X102023175Y-52585279D01*
X102025581Y-52511523D01*
X102025739Y-52508342D01*
X102028659Y-52434669D01*
X102028670Y-52431406D01*
X102027631Y-52357590D01*
X102026472Y-52343845D01*
X101978387Y-52288010D01*
X101972983Y-52287791D01*
X101896908Y-52299956D01*
X101825856Y-52336450D01*
X101765621Y-52390739D01*
X101717535Y-52453430D01*
X101674945Y-52520020D01*
X101635928Y-52586378D01*
X101635361Y-52673063D01*
X101633661Y-52750669D01*
X101629942Y-52834910D01*
X101623141Y-52917273D01*
X101610106Y-52995314D01*
X101599658Y-53025648D01*
X101551492Y-53085079D01*
X101477223Y-53108366D01*
X101471796Y-53108447D01*
X101398595Y-53090265D01*
X101369214Y-53069979D01*
X101328883Y-53008773D01*
X101324518Y-52975457D01*
X101335875Y-52921235D01*
X101342653Y-52840726D01*
X101345630Y-52757126D01*
X101347682Y-52675463D01*
X101348332Y-52644630D01*
X101346833Y-52557810D01*
X101346234Y-52470780D01*
X101346180Y-52391548D01*
X101346503Y-52303776D01*
X101347204Y-52207462D01*
X101347978Y-52129622D01*
X101348965Y-52046977D01*
X101350163Y-51959528D01*
X101352362Y-51925823D01*
X101355908Y-51852185D01*
X101358438Y-51778923D01*
X101358590Y-51764256D01*
X101351548Y-51689082D01*
X101348698Y-51670467D01*
X101339926Y-51596983D01*
X101339173Y-51576678D01*
X101360938Y-51503729D01*
X101381304Y-51481057D01*
X101447878Y-51447337D01*
X101483520Y-51443688D01*
X101555268Y-51461766D01*
X101605007Y-51516003D01*
X101620540Y-51553230D01*
X101634478Y-51626110D01*
X101639484Y-51705279D01*
X101639958Y-51743740D01*
X101639082Y-51821690D01*
X101636454Y-51900567D01*
X101633729Y-51953667D01*
X101629934Y-52029418D01*
X101627891Y-52104448D01*
X101627501Y-52154068D01*
G37*
G36*
X103186404Y-52014100D02*
G01*
X103257759Y-52032225D01*
X103327118Y-52057653D01*
X103335125Y-52061011D01*
X103403246Y-52095312D01*
X103461027Y-52141923D01*
X103490830Y-52214152D01*
X103467016Y-52278265D01*
X103454102Y-52350668D01*
X103450896Y-52380115D01*
X103446453Y-52455553D01*
X103445401Y-52523363D01*
X103446733Y-52602964D01*
X103451519Y-52681229D01*
X103462395Y-52759997D01*
X103473244Y-52802533D01*
X103503092Y-52869714D01*
X103520505Y-52907679D01*
X103550730Y-52976189D01*
X103560806Y-53007330D01*
X103537312Y-53077466D01*
X103519040Y-53096357D01*
X103452378Y-53129083D01*
X103422686Y-53131894D01*
X103351898Y-53102798D01*
X103291290Y-53056370D01*
X103272477Y-53039937D01*
X103204505Y-53070866D01*
X103133278Y-53099006D01*
X103105415Y-53108447D01*
X103031059Y-53127406D01*
X102982683Y-53131894D01*
X102908197Y-53128674D01*
X102826795Y-53116309D01*
X102754101Y-53094671D01*
X102680295Y-53057705D01*
X102618340Y-53008117D01*
X102610457Y-53000003D01*
X102562063Y-52935864D01*
X102525556Y-52859173D01*
X102503724Y-52783447D01*
X102490625Y-52698500D01*
X102486548Y-52623747D01*
X102771657Y-52623747D01*
X102776487Y-52702343D01*
X102795034Y-52779280D01*
X102821116Y-52828911D01*
X102878352Y-52878086D01*
X102951381Y-52896819D01*
X102969494Y-52897421D01*
X103042869Y-52890059D01*
X103090394Y-52876538D01*
X103159259Y-52842707D01*
X103198105Y-52814989D01*
X103187646Y-52728466D01*
X103179352Y-52650520D01*
X103172409Y-52570425D01*
X103168082Y-52493186D01*
X103167330Y-52452655D01*
X103171727Y-52377916D01*
X103182368Y-52302810D01*
X103185648Y-52283761D01*
X103149012Y-52269106D01*
X103121901Y-52264344D01*
X103045755Y-52272922D01*
X102975172Y-52298656D01*
X102910154Y-52341546D01*
X102876437Y-52372787D01*
X102825786Y-52436482D01*
X102791712Y-52505567D01*
X102774215Y-52580043D01*
X102771657Y-52623747D01*
X102486548Y-52623747D01*
X102486380Y-52620665D01*
X102486259Y-52604330D01*
X102490731Y-52529014D01*
X102507905Y-52443216D01*
X102537958Y-52362415D01*
X102580891Y-52286612D01*
X102626508Y-52227261D01*
X102669441Y-52182278D01*
X102728562Y-52131617D01*
X102791207Y-52089542D01*
X102857376Y-52056054D01*
X102927070Y-52031153D01*
X103000287Y-52014838D01*
X103077029Y-52007110D01*
X103108712Y-52006423D01*
X103186404Y-52014100D01*
G37*
G36*
X104253234Y-53014291D02*
G01*
X104225542Y-53083602D01*
X104210736Y-53098921D01*
X104142186Y-53130316D01*
X104119145Y-53131894D01*
X104044643Y-53114239D01*
X103990216Y-53061272D01*
X103971866Y-53024916D01*
X103942179Y-52951397D01*
X103908806Y-52869325D01*
X103871746Y-52778702D01*
X103841531Y-52705122D01*
X103809243Y-52626731D01*
X103774882Y-52543529D01*
X103738446Y-52455517D01*
X103699937Y-52362694D01*
X103659355Y-52265061D01*
X103631147Y-52197299D01*
X103617592Y-52139047D01*
X103640682Y-52067892D01*
X103662288Y-52044891D01*
X103730137Y-52010180D01*
X103764870Y-52006423D01*
X103836880Y-52024214D01*
X103889202Y-52082408D01*
X103891632Y-52087390D01*
X103922607Y-52157787D01*
X103951258Y-52227541D01*
X103985347Y-52313520D01*
X104016534Y-52393986D01*
X104051201Y-52484836D01*
X104079486Y-52559788D01*
X104109728Y-52640581D01*
X104120244Y-52668810D01*
X104154224Y-52593214D01*
X104185182Y-52521073D01*
X104214870Y-52449946D01*
X104247469Y-52370240D01*
X104270819Y-52312337D01*
X104297009Y-52243524D01*
X104325681Y-52172562D01*
X104356809Y-52098113D01*
X104360579Y-52089221D01*
X104409657Y-52029791D01*
X104483124Y-52006504D01*
X104488440Y-52006423D01*
X104561468Y-52024605D01*
X104590655Y-52044891D01*
X104631318Y-52106113D01*
X104635718Y-52139780D01*
X104612225Y-52214621D01*
X104582859Y-52287359D01*
X104549414Y-52365959D01*
X104516784Y-52440611D01*
X104478934Y-52525728D01*
X104468656Y-52548642D01*
X104435557Y-52622276D01*
X104404222Y-52691501D01*
X104367532Y-52771835D01*
X104333597Y-52845281D01*
X104302416Y-52911841D01*
X104268636Y-52982620D01*
X104253234Y-53014291D01*
G37*
G36*
X105288354Y-52009491D02*
G01*
X105367597Y-52020511D01*
X105439193Y-52039544D01*
X105510596Y-52070537D01*
X105571266Y-52112050D01*
X105622357Y-52170486D01*
X105653984Y-52240644D01*
X105666149Y-52322527D01*
X105666301Y-52333586D01*
X105651322Y-52408134D01*
X105611709Y-52470645D01*
X105554889Y-52522622D01*
X105539539Y-52533621D01*
X105473340Y-52572412D01*
X105405053Y-52606350D01*
X105328930Y-52641384D01*
X105307630Y-52650858D01*
X104960317Y-52803632D01*
X105030155Y-52828361D01*
X105079752Y-52838803D01*
X105155131Y-52847595D01*
X105229353Y-52850481D01*
X105240586Y-52850526D01*
X105314916Y-52845629D01*
X105389620Y-52828699D01*
X105462207Y-52796108D01*
X105474326Y-52788611D01*
X105538358Y-52752793D01*
X105611713Y-52733290D01*
X105684842Y-52755519D01*
X105717020Y-52822208D01*
X105718691Y-52849427D01*
X105701876Y-52926485D01*
X105657987Y-52987823D01*
X105596106Y-53035971D01*
X105546500Y-53063018D01*
X105473387Y-53093151D01*
X105398031Y-53114675D01*
X105320430Y-53127589D01*
X105240586Y-53131894D01*
X105165832Y-53129023D01*
X105081888Y-53117998D01*
X105004231Y-53098703D01*
X104932858Y-53071140D01*
X104867771Y-53035308D01*
X104837585Y-53014291D01*
X104778818Y-52961784D01*
X104732209Y-52901806D01*
X104697760Y-52834358D01*
X104675469Y-52759439D01*
X104665337Y-52677050D01*
X104664661Y-52647927D01*
X104668006Y-52568370D01*
X104671012Y-52545711D01*
X104939801Y-52545711D01*
X105012508Y-52513991D01*
X105085001Y-52482485D01*
X105157279Y-52451194D01*
X105171709Y-52444961D01*
X105245528Y-52410034D01*
X105317012Y-52372925D01*
X105382834Y-52334172D01*
X105393360Y-52327358D01*
X105324778Y-52300310D01*
X105246779Y-52288757D01*
X105213108Y-52287791D01*
X105139714Y-52298433D01*
X105070952Y-52333695D01*
X105048977Y-52352271D01*
X105001854Y-52409699D01*
X104965174Y-52478272D01*
X104939801Y-52545711D01*
X104671012Y-52545711D01*
X104678042Y-52492730D01*
X104694768Y-52421008D01*
X104723671Y-52340113D01*
X104762208Y-52264860D01*
X104801681Y-52206458D01*
X104851903Y-52148831D01*
X104919016Y-52092571D01*
X104993600Y-52050376D01*
X105075654Y-52022246D01*
X105149739Y-52009549D01*
X105212742Y-52006423D01*
X105288354Y-52009491D01*
G37*
G36*
X106707142Y-53155341D02*
G01*
X106633283Y-53141229D01*
X106580265Y-53088159D01*
X106566092Y-53035907D01*
X106555324Y-52959365D01*
X106544453Y-52882515D01*
X106537149Y-52831109D01*
X106528388Y-52758026D01*
X106522979Y-52681656D01*
X106521762Y-52626678D01*
X106524770Y-52550106D01*
X106525425Y-52538750D01*
X106528914Y-52463796D01*
X106529089Y-52450823D01*
X106530921Y-52415652D01*
X106533119Y-52369856D01*
X106514027Y-52297488D01*
X106488789Y-52287791D01*
X106412297Y-52305749D01*
X106348517Y-52348997D01*
X106302676Y-52396601D01*
X106254669Y-52462415D01*
X106217202Y-52528652D01*
X106184636Y-52602171D01*
X106160160Y-52672473D01*
X106152747Y-52747927D01*
X106151001Y-52761500D01*
X106144925Y-52836857D01*
X106144773Y-52850526D01*
X106150189Y-52925791D01*
X106151367Y-52936256D01*
X106157730Y-53010022D01*
X106157962Y-53021618D01*
X106136953Y-53094419D01*
X106117295Y-53117240D01*
X106051336Y-53151621D01*
X106014713Y-53155341D01*
X105942758Y-53138775D01*
X105912498Y-53116873D01*
X105875723Y-53051166D01*
X105872564Y-53019787D01*
X105867449Y-52943921D01*
X105866336Y-52933325D01*
X105860327Y-52858256D01*
X105860108Y-52846496D01*
X105861796Y-52769651D01*
X105865689Y-52693253D01*
X105871047Y-52615126D01*
X105874396Y-52572456D01*
X105880106Y-52499218D01*
X105884915Y-52424577D01*
X105888349Y-52344865D01*
X105889050Y-52298049D01*
X105886442Y-52224730D01*
X105885387Y-52206458D01*
X105881952Y-52132201D01*
X105881723Y-52115233D01*
X105903299Y-52043296D01*
X105923489Y-52020711D01*
X105989921Y-51986661D01*
X106026071Y-51982976D01*
X106098256Y-51998933D01*
X106149229Y-52053346D01*
X106168781Y-52126588D01*
X106170418Y-52146374D01*
X106171517Y-52157732D01*
X106228550Y-52106310D01*
X106296520Y-52059765D01*
X106366034Y-52027701D01*
X106447367Y-52008787D01*
X106488789Y-52006423D01*
X106568275Y-52014032D01*
X106644948Y-52041360D01*
X106706509Y-52088564D01*
X106752957Y-52155643D01*
X106757700Y-52165425D01*
X106783782Y-52242362D01*
X106797693Y-52318749D01*
X106804793Y-52396406D01*
X106807111Y-52471007D01*
X106807159Y-52484162D01*
X106807159Y-52555603D01*
X106806060Y-52621182D01*
X106810268Y-52698479D01*
X106819477Y-52771413D01*
X106828042Y-52823415D01*
X106839827Y-52896266D01*
X106848208Y-52971691D01*
X106850390Y-53024549D01*
X106829003Y-53095622D01*
X106808991Y-53117972D01*
X106743220Y-53151692D01*
X106707142Y-53155341D01*
G37*
G36*
X107987045Y-51462389D02*
G01*
X108012498Y-51483255D01*
X108046574Y-51549218D01*
X108049501Y-51579975D01*
X108048035Y-51664514D01*
X108045013Y-51740059D01*
X108040341Y-51826012D01*
X108035189Y-51905588D01*
X108028893Y-51992392D01*
X108026053Y-52029138D01*
X108019404Y-52118727D01*
X108013882Y-52201107D01*
X108009486Y-52276278D01*
X108005700Y-52356967D01*
X108003333Y-52437983D01*
X108002972Y-52477934D01*
X108003344Y-52566176D01*
X108004461Y-52646805D01*
X108006902Y-52736884D01*
X108010507Y-52815068D01*
X108016367Y-52893185D01*
X108026786Y-52970694D01*
X108029717Y-53000736D01*
X108008330Y-53072631D01*
X107988318Y-53094891D01*
X107922330Y-53128967D01*
X107892697Y-53131894D01*
X107819371Y-53110449D01*
X107779490Y-53064117D01*
X107712498Y-53097175D01*
X107638733Y-53118241D01*
X107634043Y-53119071D01*
X107557657Y-53128688D01*
X107483715Y-53131882D01*
X107478705Y-53131894D01*
X107394908Y-53126819D01*
X107316623Y-53111595D01*
X107243851Y-53086222D01*
X107176592Y-53050699D01*
X107114845Y-53005026D01*
X107095488Y-52987547D01*
X107042573Y-52929471D01*
X107000605Y-52865702D01*
X106969586Y-52796240D01*
X106949515Y-52721085D01*
X106940391Y-52640238D01*
X106939783Y-52612023D01*
X106940038Y-52606528D01*
X107204665Y-52606528D01*
X107218269Y-52683373D01*
X107259083Y-52750787D01*
X107287096Y-52778719D01*
X107352681Y-52822477D01*
X107425788Y-52846038D01*
X107478705Y-52850526D01*
X107552136Y-52845770D01*
X107599239Y-52833674D01*
X107662849Y-52795961D01*
X107693761Y-52773956D01*
X107727833Y-52745380D01*
X107726772Y-52667525D01*
X107726802Y-52591192D01*
X107727163Y-52506592D01*
X107727700Y-52422573D01*
X107727833Y-52404295D01*
X107680140Y-52345147D01*
X107639173Y-52316734D01*
X107567116Y-52292568D01*
X107509480Y-52287791D01*
X107429778Y-52294108D01*
X107355360Y-52315947D01*
X107290691Y-52357987D01*
X107280868Y-52367658D01*
X107237483Y-52431753D01*
X107213669Y-52506399D01*
X107204962Y-52586919D01*
X107204665Y-52606528D01*
X106940038Y-52606528D01*
X106943602Y-52529736D01*
X106955060Y-52452547D01*
X106974157Y-52380457D01*
X107007155Y-52300678D01*
X107051153Y-52228241D01*
X107096221Y-52173485D01*
X107158384Y-52116710D01*
X107227270Y-52071682D01*
X107302880Y-52038400D01*
X107385213Y-52016864D01*
X107458960Y-52007891D01*
X107505450Y-52006423D01*
X107578631Y-52010545D01*
X107643569Y-52022909D01*
X107713150Y-52049957D01*
X107748715Y-52072369D01*
X107752099Y-51985180D01*
X107755654Y-51904963D01*
X107759380Y-51831719D01*
X107764280Y-51749968D01*
X107770514Y-51666248D01*
X107778275Y-51588403D01*
X107780589Y-51570083D01*
X107804368Y-51498122D01*
X107862609Y-51451587D01*
X107914678Y-51443688D01*
X107987045Y-51462389D01*
G37*
G36*
X109090341Y-52359965D02*
G01*
X109075307Y-52438420D01*
X109030092Y-52499441D01*
X108955352Y-52522105D01*
X108947093Y-52522264D01*
X108873046Y-52506679D01*
X108825162Y-52448075D01*
X108817034Y-52390373D01*
X108811905Y-52287791D01*
X108729700Y-52306870D01*
X108656744Y-52337181D01*
X108593035Y-52378724D01*
X108538574Y-52431497D01*
X108493361Y-52495502D01*
X108480345Y-52519333D01*
X108481444Y-53023084D01*
X108460625Y-53095021D01*
X108441144Y-53117606D01*
X108375515Y-53151656D01*
X108338928Y-53155341D01*
X108267567Y-53137828D01*
X108240010Y-53114675D01*
X108209098Y-53047836D01*
X108207037Y-53020519D01*
X108207037Y-52352271D01*
X108208341Y-52276933D01*
X108208869Y-52258115D01*
X108210893Y-52183809D01*
X108211067Y-52163593D01*
X108228858Y-52091278D01*
X108245505Y-52068339D01*
X108310489Y-52032913D01*
X108344057Y-52029870D01*
X108416975Y-52046408D01*
X108466435Y-52101650D01*
X108480345Y-52147473D01*
X108550167Y-52099538D01*
X108622798Y-52061521D01*
X108698236Y-52033421D01*
X108776482Y-52015239D01*
X108857536Y-52006974D01*
X108885177Y-52006423D01*
X108965548Y-52019940D01*
X109033228Y-52068489D01*
X109071298Y-52139933D01*
X109088218Y-52222687D01*
X109091441Y-52288890D01*
X109090341Y-52359965D01*
G37*
G36*
X109887939Y-52014100D02*
G01*
X109959295Y-52032225D01*
X110028653Y-52057653D01*
X110036660Y-52061011D01*
X110104781Y-52095312D01*
X110162562Y-52141923D01*
X110192365Y-52214152D01*
X110168551Y-52278265D01*
X110155637Y-52350668D01*
X110152431Y-52380115D01*
X110147988Y-52455553D01*
X110146936Y-52523363D01*
X110148268Y-52602964D01*
X110153054Y-52681229D01*
X110163930Y-52759997D01*
X110174780Y-52802533D01*
X110204627Y-52869714D01*
X110222041Y-52907679D01*
X110252266Y-52976189D01*
X110262341Y-53007330D01*
X110238848Y-53077466D01*
X110220575Y-53096357D01*
X110153913Y-53129083D01*
X110124221Y-53131894D01*
X110053433Y-53102798D01*
X109992825Y-53056370D01*
X109974012Y-53039937D01*
X109906040Y-53070866D01*
X109834814Y-53099006D01*
X109806950Y-53108447D01*
X109732594Y-53127406D01*
X109684218Y-53131894D01*
X109609732Y-53128674D01*
X109528331Y-53116309D01*
X109455636Y-53094671D01*
X109381830Y-53057705D01*
X109319875Y-53008117D01*
X109311992Y-53000003D01*
X109263598Y-52935864D01*
X109227091Y-52859173D01*
X109205260Y-52783447D01*
X109192161Y-52698500D01*
X109188084Y-52623747D01*
X109473192Y-52623747D01*
X109478022Y-52702343D01*
X109496569Y-52779280D01*
X109522651Y-52828911D01*
X109579887Y-52878086D01*
X109652916Y-52896819D01*
X109671029Y-52897421D01*
X109744404Y-52890059D01*
X109791929Y-52876538D01*
X109860794Y-52842707D01*
X109899640Y-52814989D01*
X109889182Y-52728466D01*
X109880887Y-52650520D01*
X109873945Y-52570425D01*
X109869617Y-52493186D01*
X109868866Y-52452655D01*
X109873262Y-52377916D01*
X109883904Y-52302810D01*
X109887184Y-52283761D01*
X109850547Y-52269106D01*
X109823436Y-52264344D01*
X109747290Y-52272922D01*
X109676707Y-52298656D01*
X109611689Y-52341546D01*
X109577972Y-52372787D01*
X109527322Y-52436482D01*
X109493248Y-52505567D01*
X109475750Y-52580043D01*
X109473192Y-52623747D01*
X109188084Y-52623747D01*
X109187916Y-52620665D01*
X109187794Y-52604330D01*
X109192267Y-52529014D01*
X109209440Y-52443216D01*
X109239493Y-52362415D01*
X109282427Y-52286612D01*
X109328043Y-52227261D01*
X109370976Y-52182278D01*
X109430097Y-52131617D01*
X109492743Y-52089542D01*
X109558912Y-52056054D01*
X109628605Y-52031153D01*
X109701822Y-52014838D01*
X109778564Y-52007110D01*
X109810247Y-52006423D01*
X109887939Y-52014100D01*
G37*
G36*
X112541859Y-51842292D02*
G01*
X112461856Y-51840236D01*
X112380153Y-51835857D01*
X112302169Y-51830602D01*
X112291632Y-51829836D01*
X112214421Y-51824615D01*
X112139163Y-51820712D01*
X112063868Y-51818776D01*
X112041039Y-51818845D01*
X112044871Y-51902510D01*
X112050015Y-51988380D01*
X112055931Y-52076466D01*
X112061924Y-52160084D01*
X112067414Y-52233663D01*
X112068883Y-52252986D01*
X112075110Y-52336379D01*
X112080282Y-52414136D01*
X112085095Y-52500007D01*
X112088388Y-52577764D01*
X112090308Y-52658224D01*
X112090498Y-52689326D01*
X112094620Y-52763721D01*
X112097826Y-52797404D01*
X112104123Y-52872966D01*
X112105153Y-52905115D01*
X112096910Y-52981318D01*
X112072180Y-53049462D01*
X112024712Y-53108630D01*
X111951646Y-53131894D01*
X111879799Y-53114231D01*
X111851263Y-53094525D01*
X111809703Y-53033703D01*
X111802903Y-52989378D01*
X111808032Y-52943949D01*
X111813527Y-52897055D01*
X111811073Y-52820627D01*
X111806566Y-52747944D01*
X111802058Y-52669966D01*
X111799972Y-52597735D01*
X111798621Y-52519402D01*
X111795222Y-52440454D01*
X111790663Y-52365055D01*
X111784583Y-52282520D01*
X111778356Y-52208290D01*
X111771081Y-52124400D01*
X111764825Y-52049043D01*
X111758664Y-51969878D01*
X111753332Y-51893049D01*
X111749413Y-51818845D01*
X111695924Y-51818845D01*
X111613106Y-51818020D01*
X111536933Y-51815547D01*
X111456466Y-51810578D01*
X111375579Y-51802152D01*
X111331025Y-51795397D01*
X111261370Y-51762579D01*
X111220738Y-51695510D01*
X111216720Y-51657278D01*
X111235835Y-51585539D01*
X111253722Y-51560558D01*
X111314617Y-51519234D01*
X111367295Y-51514030D01*
X111442350Y-51520725D01*
X111515437Y-51528734D01*
X111531060Y-51530516D01*
X111607404Y-51537632D01*
X111683768Y-51541410D01*
X111695924Y-51541507D01*
X111774418Y-51541049D01*
X111853604Y-51540104D01*
X111883869Y-51539675D01*
X111962651Y-51538423D01*
X112036780Y-51537614D01*
X112072180Y-51537477D01*
X112148584Y-51537477D01*
X112225048Y-51537477D01*
X112307020Y-51537477D01*
X112380499Y-51537477D01*
X112458501Y-51537477D01*
X112531797Y-51537477D01*
X112541859Y-51537477D01*
X112614446Y-51556410D01*
X112645540Y-51581441D01*
X112682371Y-51647498D01*
X112687306Y-51689152D01*
X112670991Y-51761709D01*
X112645540Y-51797962D01*
X112582045Y-51837054D01*
X112541859Y-51842292D01*
G37*
G36*
X113078583Y-52154068D02*
G01*
X113136457Y-52103595D01*
X113202642Y-52060894D01*
X113239783Y-52043060D01*
X113311731Y-52019339D01*
X113387670Y-52007711D01*
X113424064Y-52006423D01*
X113505993Y-52012583D01*
X113583382Y-52034237D01*
X113651016Y-52076584D01*
X113677588Y-52104975D01*
X113714391Y-52171384D01*
X113735378Y-52243806D01*
X113746742Y-52322261D01*
X113747564Y-52331755D01*
X113750877Y-52410630D01*
X113754405Y-52489721D01*
X113758147Y-52569026D01*
X113758921Y-52584912D01*
X113766386Y-52659445D01*
X113774108Y-52735531D01*
X113779438Y-52786046D01*
X113789997Y-52860960D01*
X113803195Y-52934882D01*
X113814242Y-52984982D01*
X113819371Y-53023084D01*
X113796660Y-53095358D01*
X113775408Y-53117972D01*
X113708362Y-53151692D01*
X113673192Y-53155341D01*
X113600746Y-53138532D01*
X113549776Y-53082834D01*
X113538370Y-53053492D01*
X113520304Y-52982189D01*
X113506193Y-52908286D01*
X113494227Y-52830517D01*
X113492941Y-52821217D01*
X113483909Y-52744491D01*
X113477340Y-52668757D01*
X113474275Y-52591099D01*
X113474256Y-52585279D01*
X113476663Y-52511523D01*
X113476821Y-52508342D01*
X113479740Y-52434669D01*
X113479752Y-52431406D01*
X113478713Y-52357590D01*
X113477554Y-52343845D01*
X113429468Y-52288010D01*
X113424064Y-52287791D01*
X113347990Y-52299956D01*
X113276938Y-52336450D01*
X113216702Y-52390739D01*
X113168617Y-52453430D01*
X113126027Y-52520020D01*
X113087009Y-52586378D01*
X113086443Y-52673063D01*
X113084742Y-52750669D01*
X113081023Y-52834910D01*
X113074223Y-52917273D01*
X113061188Y-52995314D01*
X113050739Y-53025648D01*
X113002573Y-53085079D01*
X112928304Y-53108366D01*
X112922878Y-53108447D01*
X112849677Y-53090265D01*
X112820296Y-53069979D01*
X112779965Y-53008773D01*
X112775600Y-52975457D01*
X112786957Y-52921235D01*
X112793735Y-52840726D01*
X112796711Y-52757126D01*
X112798764Y-52675463D01*
X112799413Y-52644630D01*
X112797915Y-52557810D01*
X112797316Y-52470780D01*
X112797261Y-52391548D01*
X112797585Y-52303776D01*
X112798286Y-52207462D01*
X112799060Y-52129622D01*
X112800046Y-52046977D01*
X112801245Y-51959528D01*
X112803443Y-51925823D01*
X112806989Y-51852185D01*
X112809519Y-51778923D01*
X112809672Y-51764256D01*
X112802629Y-51689082D01*
X112799780Y-51670467D01*
X112791008Y-51596983D01*
X112790254Y-51576678D01*
X112812020Y-51503729D01*
X112832386Y-51481057D01*
X112898960Y-51447337D01*
X112934602Y-51443688D01*
X113006350Y-51461766D01*
X113056089Y-51516003D01*
X113071622Y-51553230D01*
X113085559Y-51626110D01*
X113090565Y-51705279D01*
X113091039Y-51743740D01*
X113090163Y-51821690D01*
X113087536Y-51900567D01*
X113084811Y-51953667D01*
X113081016Y-52029418D01*
X113078972Y-52104448D01*
X113078583Y-52154068D01*
G37*
G36*
X114637486Y-52014100D02*
G01*
X114708841Y-52032225D01*
X114778200Y-52057653D01*
X114786207Y-52061011D01*
X114854328Y-52095312D01*
X114912109Y-52141923D01*
X114941912Y-52214152D01*
X114918098Y-52278265D01*
X114905184Y-52350668D01*
X114901978Y-52380115D01*
X114897534Y-52455553D01*
X114896482Y-52523363D01*
X114897815Y-52602964D01*
X114902600Y-52681229D01*
X114913477Y-52759997D01*
X114924326Y-52802533D01*
X114954174Y-52869714D01*
X114971587Y-52907679D01*
X115001812Y-52976189D01*
X115011887Y-53007330D01*
X114988394Y-53077466D01*
X114970122Y-53096357D01*
X114903459Y-53129083D01*
X114873768Y-53131894D01*
X114802979Y-53102798D01*
X114742372Y-53056370D01*
X114723558Y-53039937D01*
X114655586Y-53070866D01*
X114584360Y-53099006D01*
X114556496Y-53108447D01*
X114482140Y-53127406D01*
X114433764Y-53131894D01*
X114359279Y-53128674D01*
X114277877Y-53116309D01*
X114205182Y-53094671D01*
X114131376Y-53057705D01*
X114069422Y-53008117D01*
X114061538Y-53000003D01*
X114013145Y-52935864D01*
X113976638Y-52859173D01*
X113954806Y-52783447D01*
X113941707Y-52698500D01*
X113937630Y-52623747D01*
X114222739Y-52623747D01*
X114227569Y-52702343D01*
X114246116Y-52779280D01*
X114272198Y-52828911D01*
X114329433Y-52878086D01*
X114402463Y-52896819D01*
X114420575Y-52897421D01*
X114493950Y-52890059D01*
X114541475Y-52876538D01*
X114610340Y-52842707D01*
X114649187Y-52814989D01*
X114638728Y-52728466D01*
X114630433Y-52650520D01*
X114623491Y-52570425D01*
X114619163Y-52493186D01*
X114618412Y-52452655D01*
X114622808Y-52377916D01*
X114633450Y-52302810D01*
X114636730Y-52283761D01*
X114600094Y-52269106D01*
X114572983Y-52264344D01*
X114496836Y-52272922D01*
X114426254Y-52298656D01*
X114361236Y-52341546D01*
X114327519Y-52372787D01*
X114276868Y-52436482D01*
X114242794Y-52505567D01*
X114225297Y-52580043D01*
X114222739Y-52623747D01*
X113937630Y-52623747D01*
X113937462Y-52620665D01*
X113937341Y-52604330D01*
X113941813Y-52529014D01*
X113958986Y-52443216D01*
X113989040Y-52362415D01*
X114031973Y-52286612D01*
X114077590Y-52227261D01*
X114120523Y-52182278D01*
X114179644Y-52131617D01*
X114242289Y-52089542D01*
X114308458Y-52056054D01*
X114378151Y-52031153D01*
X114451369Y-52014838D01*
X114528110Y-52007110D01*
X114559794Y-52006423D01*
X114637486Y-52014100D01*
G37*
G36*
X116017557Y-53131894D02*
G01*
X115946024Y-53113942D01*
X115894092Y-53060087D01*
X115853359Y-52991581D01*
X115811145Y-52929541D01*
X115766907Y-52869869D01*
X115742418Y-52838436D01*
X115697117Y-52780822D01*
X115645749Y-52715458D01*
X115600363Y-52657643D01*
X115576454Y-52627044D01*
X115514255Y-52671681D01*
X115450817Y-52713504D01*
X115440533Y-52719734D01*
X115435575Y-52799355D01*
X115432239Y-52877063D01*
X115430526Y-52952859D01*
X115430275Y-52994141D01*
X115411227Y-53066382D01*
X115389975Y-53092693D01*
X115324519Y-53128066D01*
X115288126Y-53131894D01*
X115211425Y-53114971D01*
X115159866Y-53057264D01*
X115143247Y-52979588D01*
X115142679Y-52958604D01*
X115144614Y-52879158D01*
X115148736Y-52799860D01*
X115153682Y-52725036D01*
X115154403Y-52714972D01*
X115159692Y-52638882D01*
X115163836Y-52565379D01*
X115166387Y-52487301D01*
X115166493Y-52471339D01*
X115166768Y-52393945D01*
X115167592Y-52311238D01*
X115168764Y-52234512D01*
X115170357Y-52153719D01*
X115170889Y-52129888D01*
X115172745Y-52047877D01*
X115174145Y-51970144D01*
X115175089Y-51896689D01*
X115175610Y-51817978D01*
X115175652Y-51789902D01*
X115172973Y-51714545D01*
X115170889Y-51685488D01*
X115166922Y-51609988D01*
X115166493Y-51580708D01*
X115185368Y-51508640D01*
X115206427Y-51482522D01*
X115272056Y-51447480D01*
X115308642Y-51443688D01*
X115380440Y-51459623D01*
X115410491Y-51480690D01*
X115447604Y-51544291D01*
X115450792Y-51574846D01*
X115453677Y-51649103D01*
X115455921Y-51677794D01*
X115460549Y-51751625D01*
X115461050Y-51780376D01*
X115460477Y-51858744D01*
X115458983Y-51937595D01*
X115456877Y-52014303D01*
X115455188Y-52065408D01*
X115452532Y-52143489D01*
X115450792Y-52217266D01*
X115449929Y-52295119D01*
X115450059Y-52351905D01*
X115507804Y-52305017D01*
X115563757Y-52256440D01*
X115626830Y-52199222D01*
X115682414Y-52147227D01*
X115742555Y-52089702D01*
X115807253Y-52026648D01*
X115876507Y-51958063D01*
X115941497Y-51918002D01*
X115979822Y-51912634D01*
X116052677Y-51932894D01*
X116081671Y-51955498D01*
X116121672Y-52020514D01*
X116126001Y-52054417D01*
X116103332Y-52124759D01*
X116085701Y-52147473D01*
X116030277Y-52208194D01*
X115979256Y-52261216D01*
X115924988Y-52315140D01*
X115867474Y-52369966D01*
X115806715Y-52425694D01*
X115796273Y-52435069D01*
X116010596Y-52714605D01*
X116055347Y-52776685D01*
X116099036Y-52842184D01*
X116136202Y-52906195D01*
X116163507Y-52974466D01*
X116165935Y-52994141D01*
X116144462Y-53064918D01*
X116120505Y-53091594D01*
X116055838Y-53127132D01*
X116017557Y-53131894D01*
G37*
G36*
X117188091Y-52492222D02*
G01*
X117188332Y-52570554D01*
X117188816Y-52647234D01*
X117189190Y-52695921D01*
X117189770Y-52774181D01*
X117190182Y-52850430D01*
X117190289Y-52899253D01*
X117193586Y-52962267D01*
X117197250Y-53025282D01*
X117175674Y-53096166D01*
X117155484Y-53118339D01*
X117089052Y-53151728D01*
X117052903Y-53155341D01*
X116979080Y-53137390D01*
X116928339Y-53083534D01*
X116853425Y-53106911D01*
X116777063Y-53122638D01*
X116699252Y-53130713D01*
X116655397Y-53131894D01*
X116576646Y-53127112D01*
X116497777Y-53110583D01*
X116427996Y-53082247D01*
X116408834Y-53071444D01*
X116347604Y-53021942D01*
X116304048Y-52959989D01*
X116278167Y-52885586D01*
X116275111Y-52869211D01*
X116263501Y-52791863D01*
X116253859Y-52717127D01*
X116244886Y-52630891D01*
X116238747Y-52548416D01*
X116235441Y-52469702D01*
X116234811Y-52419316D01*
X116237245Y-52342641D01*
X116243496Y-52269620D01*
X116253594Y-52192020D01*
X116265586Y-52120362D01*
X116294780Y-52050931D01*
X116357570Y-52011875D01*
X116404804Y-52006423D01*
X116478604Y-52023566D01*
X116506653Y-52042693D01*
X116546495Y-52107471D01*
X116549152Y-52133918D01*
X116543284Y-52207735D01*
X116534131Y-52270572D01*
X116523862Y-52343191D01*
X116519110Y-52411622D01*
X116519892Y-52487356D01*
X116522597Y-52564980D01*
X116527804Y-52642431D01*
X116529002Y-52655621D01*
X116537760Y-52728607D01*
X116551364Y-52800996D01*
X116558311Y-52827812D01*
X116608136Y-52844665D01*
X116655031Y-52850526D01*
X116728883Y-52847414D01*
X116807101Y-52838076D01*
X116881228Y-52824349D01*
X116906723Y-52818653D01*
X116906482Y-52742280D01*
X116905882Y-52668667D01*
X116905624Y-52644630D01*
X116904285Y-52566474D01*
X116903460Y-52490957D01*
X116903426Y-52477201D01*
X116904121Y-52402635D01*
X116906691Y-52320589D01*
X116911154Y-52243873D01*
X116918573Y-52162723D01*
X116923210Y-52124759D01*
X116950103Y-52052648D01*
X117013888Y-52012086D01*
X117063161Y-52006423D01*
X117135409Y-52022517D01*
X117167208Y-52043792D01*
X117205654Y-52107352D01*
X117207508Y-52137581D01*
X117202957Y-52227112D01*
X117199013Y-52303728D01*
X117194936Y-52381337D01*
X117190821Y-52456089D01*
X117188091Y-52492222D01*
G37*
G36*
X118240655Y-52359965D02*
G01*
X118225621Y-52438420D01*
X118180406Y-52499441D01*
X118105666Y-52522105D01*
X118097407Y-52522264D01*
X118023360Y-52506679D01*
X117975476Y-52448075D01*
X117967348Y-52390373D01*
X117962219Y-52287791D01*
X117880014Y-52306870D01*
X117807058Y-52337181D01*
X117743349Y-52378724D01*
X117688888Y-52431497D01*
X117643675Y-52495502D01*
X117630659Y-52519333D01*
X117631758Y-53023084D01*
X117610939Y-53095021D01*
X117591458Y-53117606D01*
X117525829Y-53151656D01*
X117489242Y-53155341D01*
X117417881Y-53137828D01*
X117390324Y-53114675D01*
X117359412Y-53047836D01*
X117357351Y-53020519D01*
X117357351Y-52352271D01*
X117358655Y-52276933D01*
X117359183Y-52258115D01*
X117361207Y-52183809D01*
X117361381Y-52163593D01*
X117379172Y-52091278D01*
X117395819Y-52068339D01*
X117460803Y-52032913D01*
X117494371Y-52029870D01*
X117567289Y-52046408D01*
X117616749Y-52101650D01*
X117630659Y-52147473D01*
X117700481Y-52099538D01*
X117773112Y-52061521D01*
X117848550Y-52033421D01*
X117926796Y-52015239D01*
X118007850Y-52006974D01*
X118035491Y-52006423D01*
X118115862Y-52019940D01*
X118183542Y-52068489D01*
X118221612Y-52139933D01*
X118238532Y-52222687D01*
X118241755Y-52288890D01*
X118240655Y-52359965D01*
G37*
D12*
X76300000Y-47040000D03*
X76300000Y-34040000D03*
X146000000Y-127100000D03*
X159000000Y-127100000D03*
D13*
X44420000Y-121920000D03*
X45720000Y-121920000D03*
X45720000Y-118820000D03*
X44420000Y-118820000D03*
D12*
X106580000Y-140920000D03*
X106580000Y-153920000D03*
X111460000Y-137160000D03*
X124460000Y-137160000D03*
D14*
X155868501Y-37981500D03*
X158568500Y-37981500D03*
D15*
X157218500Y-37981500D03*
D13*
X70414100Y-148870000D03*
X71714100Y-148870000D03*
X71714100Y-145770000D03*
X70414100Y-145770000D03*
X46731200Y-146168800D03*
X48031200Y-146168800D03*
X48031200Y-143068800D03*
X46731200Y-143068800D03*
D14*
X159050000Y-93980000D03*
X161750000Y-93980000D03*
D15*
X160400000Y-93980000D03*
D14*
X38902800Y-63935300D03*
X41602800Y-63935300D03*
D15*
X40252800Y-63935301D03*
D14*
X42731501Y-151118500D03*
X45431500Y-151118500D03*
D15*
X44081500Y-151118500D03*
D12*
X55780000Y-141140000D03*
X55780000Y-154140000D03*
D13*
X149860000Y-119380000D03*
X151160000Y-119380000D03*
X151160000Y-116280000D03*
X149860000Y-116280000D03*
X46731200Y-42931200D03*
X48031200Y-42931200D03*
X48031200Y-39831200D03*
X46731200Y-39831200D03*
D12*
X39320000Y-71220000D03*
X52320000Y-71220000D03*
X144780000Y-43180000D03*
X144780000Y-30180000D03*
X134520000Y-140920000D03*
X134520000Y-153920000D03*
D14*
X99300000Y-154880000D03*
X102000000Y-154880000D03*
D15*
X100650000Y-154880000D03*
D12*
X53440000Y-44500000D03*
X53440000Y-31500000D03*
D14*
X68741200Y-33182800D03*
X71441200Y-33182801D03*
D15*
X70091200Y-33182800D03*
D14*
X38902800Y-124598800D03*
X41602800Y-124598801D03*
D15*
X40252800Y-124598800D03*
D12*
X91540000Y-47040000D03*
X91540000Y-34040000D03*
D14*
X99360000Y-32650000D03*
X102060000Y-32650000D03*
D15*
X100710000Y-32650000D03*
D14*
X39290000Y-94550000D03*
X41990000Y-94550000D03*
D15*
X40640000Y-94550000D03*
D14*
X155868501Y-151118500D03*
X158568500Y-151118500D03*
D15*
X157218500Y-151118500D03*
D12*
X39320000Y-86460000D03*
X52320000Y-86460000D03*
D13*
X149968800Y-146168800D03*
X151268800Y-146168800D03*
X151268800Y-143068800D03*
X149968800Y-143068800D03*
X98350000Y-147880000D03*
X99650000Y-147880000D03*
X99650000Y-144780000D03*
X98350000Y-144780000D03*
D12*
X39320000Y-58520000D03*
X52320000Y-58520000D03*
D14*
X127300000Y-34172800D03*
X130000000Y-34172800D03*
D15*
X128650000Y-34172801D03*
D12*
X63540000Y-34020000D03*
X63540000Y-47020000D03*
X142280000Y-140700000D03*
X142280000Y-153700000D03*
D13*
X45340000Y-94550000D03*
X46640000Y-94550000D03*
X46640000Y-91450000D03*
X45340000Y-91450000D03*
X44420000Y-66614100D03*
X45720000Y-66614100D03*
X45720000Y-63514100D03*
X44420000Y-63514100D03*
D14*
X157277200Y-122058800D03*
X159977200Y-122058800D03*
D15*
X158627200Y-122058801D03*
D13*
X98410000Y-39650000D03*
X99710000Y-39650000D03*
X99710000Y-36550000D03*
X98410000Y-36550000D03*
D12*
X146000000Y-86460000D03*
X159000000Y-86460000D03*
D13*
X70470000Y-39650000D03*
X71770000Y-39650000D03*
X71770000Y-36550000D03*
X70470000Y-36550000D03*
D12*
X39320000Y-114300000D03*
X52320000Y-114300000D03*
D13*
X151100000Y-93980000D03*
X152400000Y-93980000D03*
X152400000Y-90880000D03*
X151100000Y-90880000D03*
D12*
X146000000Y-99160000D03*
X159000000Y-99160000D03*
D14*
X126840000Y-154940000D03*
X129540000Y-154940001D03*
D15*
X128190000Y-154940000D03*
D12*
X106580000Y-34240000D03*
X106580000Y-47240000D03*
X119560000Y-47040000D03*
X119560000Y-34040000D03*
D13*
X126285900Y-40640000D03*
X127585900Y-40640000D03*
X127585900Y-37540000D03*
X126285900Y-37540000D03*
D14*
X68685300Y-155337200D03*
X71385300Y-155337200D03*
D15*
X70035300Y-155337201D03*
D13*
X149860000Y-66040000D03*
X151160000Y-66040000D03*
X151160000Y-62940000D03*
X149860000Y-62940000D03*
D12*
X39320000Y-48260000D03*
X52320000Y-48260000D03*
D13*
X123211200Y-148472800D03*
X124511200Y-148472800D03*
X124511200Y-145372800D03*
X123211200Y-145372800D03*
D12*
X144480000Y-48260000D03*
X157480000Y-48260000D03*
D14*
X157277200Y-63361200D03*
X159977200Y-63361201D03*
D15*
X158627200Y-63361200D03*
D12*
X146000000Y-137260000D03*
X159000000Y-137260000D03*
D16*
X116840000Y-119380000D03*
D17*
X116840000Y-116840000D03*
X116840000Y-114300000D03*
X116840000Y-111760000D03*
X116840000Y-109220000D03*
X116840000Y-106680000D03*
X116840000Y-104140000D03*
X116840000Y-101600000D03*
X116840000Y-99060000D03*
X116840000Y-96520000D03*
X116840000Y-93980000D03*
X116840000Y-91440000D03*
X116840000Y-88900000D03*
X116840000Y-86360000D03*
X116840000Y-83820000D03*
X116840000Y-81280000D03*
X116840000Y-78740000D03*
X116840000Y-76200000D03*
D12*
X39320000Y-99160000D03*
X52320000Y-99160000D03*
X134720000Y-47040000D03*
X134720000Y-34040000D03*
D13*
X149968800Y-42931200D03*
X151268800Y-42931200D03*
X151268800Y-39831200D03*
X149968800Y-39831200D03*
D14*
X42731501Y-37981500D03*
X45431500Y-37981500D03*
D15*
X44081500Y-37981500D03*
D12*
X130760000Y-116940000D03*
X143760000Y-116940000D03*
X39320000Y-137260000D03*
X52320000Y-137260000D03*
X144480000Y-58420000D03*
X157480000Y-58420000D03*
X63400000Y-141140000D03*
X63400000Y-154140000D03*
X76100000Y-140920000D03*
X76100000Y-153920000D03*
X91480000Y-140920000D03*
X91480000Y-153920000D03*
X146000000Y-71220000D03*
X159000000Y-71220000D03*
X39320000Y-129640000D03*
X52320000Y-129640000D03*
D18*
X109745400Y-94505400D02*
X116620800Y-87630000D01*
X64677100Y-139573700D02*
X109745400Y-94505400D01*
X119100400Y-85632900D02*
X119100400Y-78460400D01*
X119100400Y-78460400D02*
X116840000Y-76200000D01*
X50226300Y-139573700D02*
X64677100Y-139573700D01*
X116620800Y-87630000D02*
X117103300Y-87630000D01*
X117103300Y-87630000D02*
X119100400Y-85632900D01*
X46731200Y-143068800D02*
X50226300Y-139573700D01*
X119505100Y-86234900D02*
X119505100Y-77435200D01*
X90422700Y-48352800D02*
X76228700Y-48352800D01*
X69768300Y-37953400D02*
X70470000Y-37251700D01*
X119505100Y-77435200D02*
X90422700Y-48352800D01*
X76228700Y-48352800D02*
X69768300Y-41892400D01*
X70470000Y-36550000D02*
X70470000Y-37251700D01*
X69768300Y-41892400D02*
X69768300Y-37953400D01*
X116840000Y-88900000D02*
X119505100Y-86234900D01*
X116840000Y-101600000D02*
X139678300Y-101600000D01*
X151100000Y-90880000D02*
X150398300Y-90880000D01*
X139678300Y-101600000D02*
X150398300Y-90880000D01*
X137018300Y-104140000D02*
X149158300Y-116280000D01*
X149860000Y-116280000D02*
X149158300Y-116280000D01*
X116840000Y-104140000D02*
X137018300Y-104140000D01*
X116840000Y-116840000D02*
X105067400Y-116840000D01*
X71548800Y-144635300D02*
X70414100Y-145770000D01*
X77272100Y-144635300D02*
X71548800Y-144635300D01*
X105067400Y-116840000D02*
X77272100Y-144635300D01*
X116840000Y-111760000D02*
X137211700Y-111760000D01*
X53308000Y-137671700D02*
X53308000Y-129249800D01*
X100411700Y-35009300D02*
X84243400Y-35009300D01*
X41602800Y-63935300D02*
X41602800Y-65787000D01*
X71441200Y-33182800D02*
X71441200Y-32256900D01*
X41990000Y-92698300D02*
X44455400Y-92698300D01*
X45431500Y-39833200D02*
X47827800Y-42229500D01*
X102060000Y-32970000D02*
X102060000Y-34501700D01*
X88075200Y-152626600D02*
X99650000Y-152626600D01*
X71385300Y-155337200D02*
X71385300Y-155003600D01*
X46029400Y-142527500D02*
X49865100Y-138691800D01*
X151986400Y-36129800D02*
X158568500Y-36129800D01*
X159977200Y-120207100D02*
X155870600Y-120207100D01*
X150276400Y-147862900D02*
X155383700Y-152970200D01*
X155870600Y-120207100D02*
X152750900Y-117087400D01*
X151986400Y-42564400D02*
X151986400Y-36129800D01*
X151268800Y-146870500D02*
X150276400Y-147862900D01*
X151986400Y-36129800D02*
X151986400Y-36040400D01*
X151970500Y-135968800D02*
X159977200Y-127962100D01*
X151268800Y-42931200D02*
X151268800Y-43282000D01*
X152750900Y-93980000D02*
X153101700Y-93980000D01*
X159977200Y-127962100D02*
X159977200Y-122058800D01*
X59067600Y-153069400D02*
X57037900Y-155099100D01*
X44455400Y-92698300D02*
X44613400Y-92540300D01*
X159977200Y-64287000D02*
X159977200Y-63361200D01*
X151160000Y-119380000D02*
X151160000Y-118678300D01*
X44613400Y-92540300D02*
X46623100Y-94550000D01*
X49865100Y-138691800D02*
X52287900Y-138691800D01*
X152400000Y-93980000D02*
X152750900Y-93980000D01*
X57037900Y-155099100D02*
X47560400Y-155099100D01*
X41602800Y-124598800D02*
X41602800Y-125524600D01*
X47855800Y-145467100D02*
X46029400Y-143640700D01*
X45720000Y-122420100D02*
X42615500Y-125524600D01*
X48031200Y-146344200D02*
X48031200Y-146519600D01*
X53308000Y-129249800D02*
X46478300Y-122420100D01*
X71714100Y-152323000D02*
X71714100Y-148870000D01*
X77273300Y-33637300D02*
X77273300Y-33700200D01*
X42615500Y-125524600D02*
X41602800Y-125524600D01*
X102000000Y-154775000D02*
X102000000Y-154870200D01*
X99650000Y-152626600D02*
X101598300Y-152626600D01*
X101598300Y-152626600D02*
X102000000Y-153028300D01*
X137589600Y-36024500D02*
X130000000Y-36024500D01*
X125212900Y-148611200D02*
X125212900Y-148472800D01*
X48031200Y-42570000D02*
X53306500Y-47845300D01*
X45431500Y-151118500D02*
X45431500Y-149266800D01*
X100411700Y-35009300D02*
X100411700Y-39650000D01*
X151268800Y-43282000D02*
X151268800Y-43632900D01*
X129540000Y-152938300D02*
X125212900Y-148611200D01*
X48031200Y-145467100D02*
X47855800Y-145467100D01*
X45720000Y-66614100D02*
X44892900Y-65787000D01*
X151970500Y-146168800D02*
X151970500Y-135968800D01*
X71385300Y-155003600D02*
X85698200Y-155003600D01*
X54618400Y-30546700D02*
X51014600Y-30546700D01*
X71441200Y-31331100D02*
X55402800Y-31331100D01*
X46623100Y-94550000D02*
X46640000Y-94550000D01*
X48031200Y-146344200D02*
X48031200Y-146168800D01*
X44892900Y-65787000D02*
X41602800Y-65787000D01*
X51014600Y-30546700D02*
X45431500Y-36129800D01*
X129540000Y-152938300D02*
X129540000Y-153088300D01*
X152688800Y-65212900D02*
X151861700Y-66040000D01*
X45720000Y-122420100D02*
X45720000Y-121920000D01*
X152750900Y-117087400D02*
X151160000Y-118678300D01*
X102000000Y-154880000D02*
X102000000Y-154870200D01*
X99650000Y-152626600D02*
X99650000Y-148581700D01*
X154953400Y-92128300D02*
X153101700Y-93980000D01*
X48031200Y-42570000D02*
X48031200Y-42229500D01*
X99650000Y-147880000D02*
X99650000Y-148581700D01*
X82934300Y-33700200D02*
X77273300Y-33700200D01*
X41990000Y-94550000D02*
X41990000Y-92698300D01*
X128314400Y-39209800D02*
X127585900Y-39938300D01*
X159977200Y-92128300D02*
X161750000Y-92128300D01*
X71385300Y-155003600D02*
X71385300Y-153586300D01*
X45431500Y-151118500D02*
X45431500Y-152970200D01*
X84243400Y-35009300D02*
X82934300Y-33700200D01*
X53289100Y-70796600D02*
X49106600Y-66614100D01*
X128314400Y-36024500D02*
X128314400Y-39209800D01*
X100919300Y-34501700D02*
X100411700Y-35009300D01*
X159977200Y-65212900D02*
X152688800Y-65212900D01*
X102000000Y-154870200D02*
X102052400Y-154922600D01*
X123820500Y-32970000D02*
X126875000Y-36024500D01*
X45431500Y-37981500D02*
X45431500Y-39833200D01*
X152750900Y-93980000D02*
X152750900Y-117087400D01*
X102060000Y-34501700D02*
X100919300Y-34501700D01*
X53289100Y-77057400D02*
X53289100Y-70796600D01*
X70967700Y-153069400D02*
X71714100Y-152323000D01*
X41602800Y-63935300D02*
X41602800Y-62083600D01*
X151986400Y-36040400D02*
X145174300Y-29228300D01*
X102060000Y-32650000D02*
X102060000Y-32970000D01*
X71770000Y-39650000D02*
X72471700Y-39650000D01*
X44613400Y-92540300D02*
X44613400Y-85733100D01*
X118061400Y-154922600D02*
X124511200Y-148472800D01*
X75892900Y-32256900D02*
X77273300Y-33637300D01*
X130000000Y-34172800D02*
X130000000Y-36024500D01*
X45431500Y-37981500D02*
X45431500Y-36129800D01*
X52287900Y-138691800D02*
X53308000Y-137671700D01*
X152688800Y-45052900D02*
X151268800Y-43632900D01*
X47560400Y-155099100D02*
X45431500Y-152970200D01*
X155383700Y-152970200D02*
X158568500Y-152970200D01*
X53306500Y-47845300D02*
X53306500Y-50379900D01*
X53306500Y-50379900D02*
X41602800Y-62083600D01*
X77273300Y-34848400D02*
X72471700Y-39650000D01*
X158568500Y-151118500D02*
X158568500Y-152970200D01*
X143461100Y-154678200D02*
X150276400Y-147862900D01*
X48031200Y-146667100D02*
X48031200Y-146519600D01*
X137211700Y-111760000D02*
X144130000Y-118678300D01*
X159977200Y-65212900D02*
X159977200Y-92128300D01*
X71385300Y-153586300D02*
X71385300Y-153487000D01*
X151268800Y-146168800D02*
X151970500Y-146168800D01*
X139115200Y-152938300D02*
X140855100Y-154678200D01*
X129540000Y-152938300D02*
X139115200Y-152938300D01*
X46478300Y-122420100D02*
X45720000Y-122420100D01*
X102060000Y-32970000D02*
X123820500Y-32970000D01*
X124511200Y-148472800D02*
X125212900Y-148472800D01*
X102052400Y-154922600D02*
X118061400Y-154922600D01*
X159977200Y-64287000D02*
X159977200Y-65212900D01*
X49106600Y-66614100D02*
X45720000Y-66614100D01*
X151160000Y-66040000D02*
X151861700Y-66040000D01*
X159977200Y-92128300D02*
X154953400Y-92128300D01*
X102000000Y-154775000D02*
X102000000Y-153028300D01*
X77273300Y-33700200D02*
X77273300Y-34848400D01*
X46029400Y-143640700D02*
X46029400Y-142527500D01*
X152688800Y-65212900D02*
X152688800Y-45052900D01*
X151268800Y-43282000D02*
X151986400Y-42564400D01*
X145174300Y-29228300D02*
X144385800Y-29228300D01*
X55402800Y-31331100D02*
X54618400Y-30546700D01*
X85698200Y-155003600D02*
X88075200Y-152626600D01*
X48031200Y-42931200D02*
X48031200Y-42570000D01*
X159977200Y-122058800D02*
X159977200Y-120207100D01*
X71441200Y-32256900D02*
X71441200Y-31331100D01*
X144130000Y-118678300D02*
X151160000Y-118678300D01*
X140855100Y-154678200D02*
X143461100Y-154678200D01*
X151268800Y-146168800D02*
X151268800Y-146870500D01*
X144385800Y-29228300D02*
X137589600Y-36024500D01*
X47827800Y-42229500D02*
X48031200Y-42229500D01*
X161750000Y-93980000D02*
X161750000Y-92128300D01*
X71385300Y-153487000D02*
X70967700Y-153069400D01*
X126875000Y-36024500D02*
X128314400Y-36024500D01*
X48031200Y-146168800D02*
X48031200Y-145467100D01*
X128314400Y-36024500D02*
X130000000Y-36024500D01*
X99710000Y-39650000D02*
X100411700Y-39650000D01*
X44613400Y-85733100D02*
X53289100Y-77057400D01*
X71441200Y-32256900D02*
X75892900Y-32256900D01*
X129540000Y-154940000D02*
X129540000Y-153088300D01*
X45431500Y-149266800D02*
X48031200Y-146667100D01*
X158568500Y-37981500D02*
X158568500Y-36129800D01*
X70967700Y-153069400D02*
X59067600Y-153069400D01*
X127585900Y-40640000D02*
X127585900Y-39938300D01*
X123211200Y-121711700D02*
X123211200Y-145372800D01*
X115416400Y-114392600D02*
X116793800Y-115770000D01*
X115416400Y-110643600D02*
X115416400Y-114392600D01*
X116793800Y-115770000D02*
X117269500Y-115770000D01*
X117269500Y-115770000D02*
X123211200Y-121711700D01*
X116840000Y-109220000D02*
X115416400Y-110643600D01*
X149968800Y-39831200D02*
X149968800Y-40532900D01*
X149197000Y-41304700D02*
X149968800Y-40532900D01*
X135369000Y-77991000D02*
X135369000Y-60152800D01*
X116840000Y-96520000D02*
X135369000Y-77991000D01*
X135369000Y-60152800D02*
X149197000Y-46324800D01*
X149197000Y-46324800D02*
X149197000Y-41304700D01*
X55510000Y-81280000D02*
X45340000Y-91450000D01*
X116840000Y-81280000D02*
X55510000Y-81280000D01*
X143260000Y-47040000D02*
X134720000Y-47040000D01*
X134520000Y-140920000D02*
X142060000Y-140920000D01*
X91480000Y-140920000D02*
X106580000Y-140920000D01*
X63400000Y-141140000D02*
X75880000Y-141140000D01*
X143260000Y-44700000D02*
X144780000Y-43180000D01*
X145720000Y-137260000D02*
X142280000Y-140700000D01*
X143260000Y-47040000D02*
X143260000Y-44700000D01*
X143260000Y-47040000D02*
X144480000Y-48260000D01*
X76300000Y-47040000D02*
X91540000Y-47040000D01*
X142060000Y-140920000D02*
X142280000Y-140700000D01*
X134720000Y-47040000D02*
X119560000Y-47040000D01*
X63540000Y-34020000D02*
X53440000Y-44120000D01*
X106580000Y-140920000D02*
X107700000Y-140920000D01*
X146000000Y-137260000D02*
X145720000Y-137260000D01*
X75880000Y-141140000D02*
X76100000Y-140920000D01*
X55780000Y-141140000D02*
X63400000Y-141140000D01*
X53440000Y-44120000D02*
X53440000Y-44500000D01*
X107700000Y-140920000D02*
X111460000Y-137160000D01*
X119953400Y-88326600D02*
X116840000Y-91440000D01*
X97263900Y-46356300D02*
X119953400Y-69045800D01*
X98410000Y-36550000D02*
X98410000Y-37251700D01*
X119953400Y-69045800D02*
X119953400Y-88326600D01*
X97263900Y-38397800D02*
X97263900Y-46356300D01*
X98410000Y-37251700D02*
X97263900Y-38397800D01*
X116615000Y-110490000D02*
X115829500Y-111275500D01*
X115829500Y-112167900D02*
X116691600Y-113030000D01*
X116840000Y-106680000D02*
X117862100Y-107702100D01*
X123136100Y-113030000D02*
X149968800Y-139862700D01*
X115829500Y-111275500D02*
X115829500Y-112167900D01*
X117862100Y-107702100D02*
X117862100Y-109641600D01*
X117862100Y-109641600D02*
X117013700Y-110490000D01*
X116691600Y-113030000D02*
X123136100Y-113030000D01*
X117013700Y-110490000D02*
X116615000Y-110490000D01*
X149968800Y-139862700D02*
X149968800Y-143068800D01*
X84370000Y-77470000D02*
X117018300Y-77470000D01*
X118695700Y-79147400D02*
X118695700Y-84504300D01*
X118695700Y-84504300D02*
X116840000Y-86360000D01*
X117018300Y-77470000D02*
X118695700Y-79147400D01*
X46731200Y-39831200D02*
X84370000Y-77470000D01*
X117013700Y-80010000D02*
X72133300Y-80010000D01*
X56354600Y-64231300D02*
X45137200Y-64231300D01*
X117862100Y-80858400D02*
X117013700Y-80010000D01*
X116840000Y-83820000D02*
X117862100Y-82797900D01*
X117862100Y-82797900D02*
X117862100Y-80858400D01*
X45137200Y-64231300D02*
X44420000Y-63514100D01*
X72133300Y-80010000D02*
X56354600Y-64231300D01*
X149860000Y-62940000D02*
X149860000Y-63641700D01*
X138904000Y-76996000D02*
X138904000Y-74597700D01*
X138904000Y-74597700D02*
X149860000Y-63641700D01*
X116840000Y-99060000D02*
X138904000Y-76996000D01*
X116840000Y-93980000D02*
X120359300Y-90460700D01*
X120359300Y-90460700D02*
X120359300Y-49201800D01*
X118569200Y-45958400D02*
X126285900Y-38241700D01*
X118569200Y-47411700D02*
X118569200Y-45958400D01*
X120359300Y-49201800D02*
X118569200Y-47411700D01*
X126285900Y-37540000D02*
X126285900Y-38241700D01*
X116840000Y-133131400D02*
X105893100Y-144078300D01*
X105893100Y-144078300D02*
X99051700Y-144078300D01*
X116840000Y-119380000D02*
X116840000Y-133131400D01*
X99051700Y-144078300D02*
X98350000Y-144780000D01*
X78150000Y-85090000D02*
X44420000Y-118820000D01*
X118292500Y-83796700D02*
X116999200Y-85090000D01*
X118292500Y-80192500D02*
X118292500Y-83796700D01*
X116840000Y-78740000D02*
X118292500Y-80192500D01*
X116999200Y-85090000D02*
X78150000Y-85090000D01*
X157277200Y-63361200D02*
X157277200Y-58622800D01*
X157277200Y-58622800D02*
X157480000Y-58420000D01*
X155868500Y-46648500D02*
X155868500Y-39833200D01*
X157480000Y-48260000D02*
X155868500Y-46648500D01*
X155868500Y-37981500D02*
X155868500Y-39833200D01*
X127300000Y-34172800D02*
X127300000Y-32321100D01*
X133001100Y-32321100D02*
X134720000Y-34040000D01*
X127300000Y-32321100D02*
X133001100Y-32321100D01*
X92001700Y-34501700D02*
X91540000Y-34040000D01*
X99360000Y-32650000D02*
X99360000Y-34501700D01*
X99360000Y-34501700D02*
X92001700Y-34501700D01*
X68741200Y-35034500D02*
X63540000Y-40235700D01*
X63540000Y-40235700D02*
X63540000Y-47020000D01*
X68741200Y-33182800D02*
X68741200Y-35034500D01*
X50830400Y-48260000D02*
X52320000Y-48260000D01*
X42731500Y-37981500D02*
X42731500Y-40161100D01*
X42731500Y-40161100D02*
X50830400Y-48260000D01*
X52320000Y-71220000D02*
X44335800Y-71220000D01*
X38902800Y-63935300D02*
X38902800Y-65787000D01*
X44335800Y-71220000D02*
X38902800Y-65787000D01*
X49561700Y-96401700D02*
X52320000Y-99160000D01*
X39290000Y-96401700D02*
X49561700Y-96401700D01*
X39290000Y-94550000D02*
X39290000Y-96401700D01*
X38902800Y-124598800D02*
X38902800Y-126450500D01*
X42092300Y-129640000D02*
X52320000Y-129640000D01*
X38902800Y-126450500D02*
X42092300Y-129640000D01*
X52320000Y-137260000D02*
X50728800Y-137260000D01*
X42731500Y-145257300D02*
X42731500Y-151118500D01*
X50728800Y-137260000D02*
X42731500Y-145257300D01*
X68685300Y-155337200D02*
X68685300Y-153485500D01*
X63400000Y-154140000D02*
X64054500Y-153485500D01*
X64054500Y-153485500D02*
X68685300Y-153485500D01*
X92371700Y-153028300D02*
X99300000Y-153028300D01*
X91480000Y-153920000D02*
X92371700Y-153028300D01*
X99300000Y-154880000D02*
X99300000Y-153028300D01*
X126840000Y-154940000D02*
X126840000Y-156791700D01*
X131648300Y-156791700D02*
X134520000Y-153920000D01*
X126840000Y-156791700D02*
X131648300Y-156791700D01*
X155868500Y-140391500D02*
X159000000Y-137260000D01*
X155868500Y-151118500D02*
X155868500Y-140391500D01*
X157277200Y-122058800D02*
X157277200Y-125377200D01*
X157277200Y-125377200D02*
X159000000Y-127100000D01*
X159050000Y-93980000D02*
X159050000Y-99110000D01*
X159050000Y-99110000D02*
X159000000Y-99160000D01*
X151160000Y-63641700D02*
X150984600Y-63641700D01*
X150984600Y-63641700D02*
X149158300Y-65468000D01*
X149158300Y-65468000D02*
X149158300Y-66569900D01*
X151160000Y-62940000D02*
X151160000Y-63641700D01*
X153808400Y-71220000D02*
X159000000Y-71220000D01*
X149158300Y-66569900D02*
X153808400Y-71220000D01*
X151268800Y-36668800D02*
X144780000Y-30180000D01*
X151268800Y-39831200D02*
X151268800Y-36668800D01*
X124085900Y-34040000D02*
X127585900Y-37540000D01*
X119560000Y-34040000D02*
X124085900Y-34040000D01*
X99710000Y-36550000D02*
X99710000Y-37251700D01*
X99534600Y-37251700D02*
X99710000Y-37251700D01*
X104769800Y-47240000D02*
X97708300Y-40178500D01*
X106580000Y-47240000D02*
X104769800Y-47240000D01*
X97708300Y-40178500D02*
X97708300Y-39078000D01*
X97708300Y-39078000D02*
X99534600Y-37251700D01*
X71770000Y-36550000D02*
X72471700Y-36550000D01*
X74981700Y-34040000D02*
X76300000Y-34040000D01*
X72471700Y-36550000D02*
X74981700Y-34040000D01*
X48031200Y-39129500D02*
X53440000Y-33720700D01*
X53440000Y-33720700D02*
X53440000Y-31500000D01*
X48031200Y-39831200D02*
X48031200Y-39129500D01*
X45720000Y-63514100D02*
X47325900Y-63514100D01*
X47325900Y-63514100D02*
X52320000Y-58520000D01*
X47341700Y-91438300D02*
X52320000Y-86460000D01*
X46640000Y-91450000D02*
X47341700Y-91450000D01*
X47341700Y-91450000D02*
X47341700Y-91438300D01*
X47800000Y-118820000D02*
X52320000Y-114300000D01*
X45720000Y-118820000D02*
X47800000Y-118820000D01*
X55780000Y-151519300D02*
X55780000Y-154140000D01*
X48031200Y-143770500D02*
X55780000Y-151519300D01*
X48031200Y-143068800D02*
X48031200Y-143770500D01*
X71714100Y-146471700D02*
X76100000Y-150857600D01*
X71714100Y-145770000D02*
X71714100Y-146471700D01*
X76100000Y-150857600D02*
X76100000Y-153920000D01*
X106580000Y-152411700D02*
X106580000Y-153920000D01*
X99650000Y-145481700D02*
X106580000Y-152411700D01*
X99650000Y-144780000D02*
X99650000Y-145481700D01*
X124460000Y-144619900D02*
X124460000Y-137160000D01*
X124511200Y-145372800D02*
X124511200Y-144671100D01*
X124511200Y-144671100D02*
X124460000Y-144619900D01*
X151268800Y-143068800D02*
X151268800Y-143770500D01*
X151268800Y-143770500D02*
X151093400Y-143770500D01*
X151093400Y-143770500D02*
X142280000Y-152583900D01*
X142280000Y-152583900D02*
X142280000Y-153700000D01*
X150458300Y-116981700D02*
X143801700Y-116981700D01*
X151160000Y-116280000D02*
X150458300Y-116981700D01*
X143801700Y-116981700D02*
X143760000Y-116940000D01*
X154580000Y-90880000D02*
X159000000Y-86460000D01*
X152400000Y-90880000D02*
X154580000Y-90880000D01*
M02*
