M48
; DRILL file {KiCad 8.0.5} date 2024-11-19T19:18:47-0500
; FORMAT={-:-/ absolute / metric / decimal}
; #@! TF.CreationDate,2024-11-19T19:18:47-05:00
; #@! TF.GenerationSoftware,Kicad,Pcbnew,8.0.5
; #@! TF.FileFunction,Plated,1,2,PTH
FMAT,2
METRIC
; #@! TA.AperFunction,Plated,PTH,ViaDrill
T1C0.300
; #@! TA.AperFunction,Plated,PTH,ComponentDrill
T2C0.700
; #@! TA.AperFunction,Plated,PTH,ComponentDrill
T3C0.890
%
G90
G05
T1
X33.93Y-49.584
X53.712Y-28.454
X70.858Y-131.159
X71.815Y-150.704
X78.171Y-147.091
X91.958Y-106.452
X93.367Y-143.92
X93.549Y-105.227
X94.04Y-127.345
X97.619Y-30.969
X100.584Y-115.963
X100.9Y-35.1
X101.288Y-116.632
X101.886Y-152.762
X103.554Y-40.256
X103.831Y-38.425
X104.868Y-39.471
X115.448Y-119.182
X124.378Y-39.54
X145.725Y-161.421
X150.355Y-24.423
X151.131Y-70.181
X151.131Y-118.045
X153.723Y-59.084
X159.929Y-140.972
T2
X88.9Y-108.61
X88.9Y-111.76
X88.9Y-114.91
X88.9Y-118.06
X88.9Y-121.21
X88.9Y-124.36
X91.44Y-108.61
X91.44Y-111.76
X91.44Y-114.91
X91.44Y-118.06
X91.44Y-121.21
X91.44Y-124.36
X104.14Y-108.61
X104.14Y-111.76
X104.14Y-114.91
X104.14Y-118.06
X104.14Y-121.21
X104.14Y-124.36
X106.68Y-108.61
X106.68Y-111.76
X106.68Y-114.91
X106.68Y-118.06
X106.68Y-121.21
X106.68Y-124.36
X116.84Y-115.62
X116.84Y-118.77
X116.84Y-121.92
X116.84Y-125.07
X119.38Y-115.62
X119.38Y-118.77
X119.38Y-121.92
X119.38Y-125.07
T3
X76.2Y-134.62
X78.74Y-134.62
X81.28Y-134.62
X83.82Y-134.62
X86.36Y-134.62
X88.9Y-134.62
X91.44Y-134.62
X93.98Y-134.62
X96.52Y-134.62
X99.06Y-134.62
X101.6Y-134.62
X104.14Y-134.62
X106.68Y-134.62
X109.22Y-134.62
X111.76Y-134.62
X114.3Y-134.62
X116.84Y-134.62
X119.38Y-134.62
M30
