%TF.GenerationSoftware,KiCad,Pcbnew,8.0.5*%
%TF.CreationDate,2024-11-19T19:18:07-05:00*%
%TF.ProjectId,line_sensor_pcb,6c696e65-5f73-4656-9e73-6f725f706362,rev?*%
%TF.SameCoordinates,Original*%
%TF.FileFunction,Copper,L1,Top*%
%TF.FilePolarity,Positive*%
%FSLAX46Y46*%
G04 Gerber Fmt 4.6, Leading zero omitted, Abs format (unit mm)*
G04 Created by KiCad (PCBNEW 8.0.5) date 2024-11-19 19:18:07*
%MOMM*%
%LPD*%
G01*
G04 APERTURE LIST*
%TA.AperFunction,SMDPad,CuDef*%
%ADD10R,0.900000X1.000000*%
%TD*%
%TA.AperFunction,SMDPad,CuDef*%
%ADD11R,0.800000X0.400000*%
%TD*%
%TA.AperFunction,ComponentPad*%
%ADD12C,1.400000*%
%TD*%
%TA.AperFunction,ComponentPad*%
%ADD13O,1.400000X1.400000*%
%TD*%
%TA.AperFunction,SMDPad,CuDef*%
%ADD14R,1.000000X1.250000*%
%TD*%
%TA.AperFunction,SMDPad,CuDef*%
%ADD15R,1.250000X1.000000*%
%TD*%
%TA.AperFunction,SMDPad,CuDef*%
%ADD16R,1.000000X0.900000*%
%TD*%
%TA.AperFunction,SMDPad,CuDef*%
%ADD17R,0.400000X0.800000*%
%TD*%
%TA.AperFunction,ComponentPad*%
%ADD18R,1.398000X1.398000*%
%TD*%
%TA.AperFunction,ComponentPad*%
%ADD19C,1.398000*%
%TD*%
%TA.AperFunction,ViaPad*%
%ADD20C,0.600000*%
%TD*%
%TA.AperFunction,Conductor*%
%ADD21C,0.200000*%
%TD*%
G04 APERTURE END LIST*
D10*
%TO.P,D10,1,K*%
%TO.N,3V GND*%
X157480000Y-115340000D03*
%TO.P,D10,2,A*%
%TO.N,Net-(D10-A)*%
X157480000Y-118340000D03*
D11*
%TO.P,D10,3*%
%TO.N,N/C*%
X157030000Y-117240000D03*
%TO.P,D10,4*%
X157030000Y-116440000D03*
%TD*%
D10*
%TO.P,D1,1,K*%
%TO.N,3V GND*%
X167640000Y-140740000D03*
%TO.P,D1,2,A*%
%TO.N,Net-(D1-A)*%
X167640000Y-143740000D03*
D11*
%TO.P,D1,3*%
%TO.N,N/C*%
X167190000Y-142640000D03*
%TO.P,D1,4*%
X167190000Y-141840000D03*
%TD*%
D12*
%TO.P,R29,1*%
%TO.N,Net-(D13-A)*%
X116840000Y-115620000D03*
D13*
%TO.P,R29,2*%
%TO.N,3V*%
X119380000Y-115620000D03*
%TD*%
D14*
%TO.P,LED10,1,K*%
%TO.N,A0*%
X152400000Y-116840000D03*
%TO.P,LED10,2,A*%
%TO.N,3.3V*%
X150200000Y-116840000D03*
%TD*%
D12*
%TO.P,R18,1*%
%TO.N,Net-(D2-A)*%
X88900000Y-111760000D03*
D13*
%TO.P,R18,2*%
%TO.N,3V*%
X91440000Y-111760000D03*
%TD*%
D12*
%TO.P,R26,1*%
%TO.N,Net-(D10-A)*%
X104140000Y-118060000D03*
D13*
%TO.P,R26,2*%
%TO.N,3V*%
X106680000Y-118060000D03*
%TD*%
D12*
%TO.P,R17,1*%
%TO.N,Net-(D1-A)*%
X88900000Y-108610000D03*
D13*
%TO.P,R17,2*%
%TO.N,3V*%
X91440000Y-108610000D03*
%TD*%
D14*
%TO.P,LED1,1,K*%
%TO.N,A9*%
X162560000Y-142240000D03*
%TO.P,LED1,2,A*%
%TO.N,3.3V*%
X160360000Y-142240000D03*
%TD*%
%TO.P,LED13,1,K*%
%TO.N,A13*%
X38100000Y-142240000D03*
%TO.P,LED13,2,A*%
%TO.N,3.3V*%
X35900000Y-142240000D03*
%TD*%
%TO.P,LED7,1,K*%
%TO.N,A3*%
X33360000Y-48260000D03*
%TO.P,LED7,2,A*%
%TO.N,3.3V*%
X35560000Y-48260000D03*
%TD*%
D15*
%TO.P,LED6,1,K*%
%TO.N,A4*%
X76200000Y-145120000D03*
%TO.P,LED6,2,A*%
%TO.N,3.3V*%
X76200000Y-147320000D03*
%TD*%
D12*
%TO.P,R24,1*%
%TO.N,Net-(D8-A)*%
X104140000Y-111760000D03*
D13*
%TO.P,R24,2*%
%TO.N,3V*%
X106680000Y-111760000D03*
%TD*%
D16*
%TO.P,D5,1,K*%
%TO.N,3V GND*%
X125960000Y-152400000D03*
%TO.P,D5,2,A*%
%TO.N,Net-(D5-A)*%
X122960000Y-152400000D03*
D17*
%TO.P,D5,3*%
%TO.N,N/C*%
X124060000Y-151950000D03*
%TO.P,D5,4*%
X124860000Y-151950000D03*
%TD*%
D12*
%TO.P,R28,1*%
%TO.N,Net-(D12-A)*%
X104140000Y-124360000D03*
D13*
%TO.P,R28,2*%
%TO.N,3V*%
X106680000Y-124360000D03*
%TD*%
D12*
%TO.P,R20,1*%
%TO.N,Net-(D4-A)*%
X88900000Y-118060000D03*
D13*
%TO.P,R20,2*%
%TO.N,3V*%
X91440000Y-118060000D03*
%TD*%
D15*
%TO.P,LED3,1,K*%
%TO.N,A7*%
X50800000Y-30480000D03*
%TO.P,LED3,2,A*%
%TO.N,3.3V*%
X50800000Y-32680000D03*
%TD*%
D12*
%TO.P,R22,1*%
%TO.N,Net-(D6-A)*%
X88900000Y-124360000D03*
D13*
%TO.P,R22,2*%
%TO.N,3V*%
X91440000Y-124360000D03*
%TD*%
D10*
%TO.P,D9,1,K*%
%TO.N,3V GND*%
X157480000Y-67080000D03*
%TO.P,D9,2,A*%
%TO.N,Net-(D9-A)*%
X157480000Y-70080000D03*
D11*
%TO.P,D9,3*%
%TO.N,N/C*%
X157030000Y-68980000D03*
%TO.P,D9,4*%
X157030000Y-68180000D03*
%TD*%
D16*
%TO.P,D3,1,K*%
%TO.N,3V GND*%
X46760000Y-25400000D03*
%TO.P,D3,2,A*%
%TO.N,Net-(D3-A)*%
X49760000Y-25400000D03*
D17*
%TO.P,D3,3*%
%TO.N,N/C*%
X48660000Y-25850000D03*
%TO.P,D3,4*%
X47860000Y-25850000D03*
%TD*%
D12*
%TO.P,R25,1*%
%TO.N,Net-(D9-A)*%
X104140000Y-114910000D03*
D13*
%TO.P,R25,2*%
%TO.N,3V*%
X106680000Y-114910000D03*
%TD*%
D15*
%TO.P,LED9,1,K*%
%TO.N,A1*%
X50800000Y-154940000D03*
%TO.P,LED9,2,A*%
%TO.N,3.3V*%
X50800000Y-157140000D03*
%TD*%
D16*
%TO.P,D8,1,K*%
%TO.N,3V GND*%
X70660000Y-33020000D03*
%TO.P,D8,2,A*%
%TO.N,Net-(D8-A)*%
X73660000Y-33020000D03*
D17*
%TO.P,D8,3*%
%TO.N,N/C*%
X72560000Y-33470000D03*
%TO.P,D8,4*%
X71760000Y-33470000D03*
%TD*%
D16*
%TO.P,D12,1,K*%
%TO.N,3V GND*%
X27480000Y-48260000D03*
%TO.P,D12,2,A*%
%TO.N,Net-(D12-A)*%
X30480000Y-48260000D03*
D17*
%TO.P,D12,3*%
%TO.N,N/C*%
X29380000Y-48710000D03*
%TO.P,D12,4*%
X28580000Y-48710000D03*
%TD*%
D12*
%TO.P,R32,1*%
%TO.N,Net-(D16-A)*%
X116840000Y-125070000D03*
D13*
%TO.P,R32,2*%
%TO.N,3V*%
X119380000Y-125070000D03*
%TD*%
D15*
%TO.P,LED2,1,K*%
%TO.N,A8*%
X121920000Y-145120000D03*
%TO.P,LED2,2,A*%
%TO.N,3.3V*%
X121920000Y-147320000D03*
%TD*%
D10*
%TO.P,D2,1,K*%
%TO.N,3V GND*%
X37700000Y-117890000D03*
%TO.P,D2,2,A*%
%TO.N,Net-(D2-A)*%
X37700000Y-114890000D03*
D11*
%TO.P,D2,3*%
%TO.N,N/C*%
X38150000Y-115990000D03*
%TO.P,D2,4*%
X38150000Y-116790000D03*
%TD*%
D15*
%TO.P,LED5,1,K*%
%TO.N,A5*%
X147320000Y-154940000D03*
%TO.P,LED5,2,A*%
%TO.N,3.3V*%
X147320000Y-157140000D03*
%TD*%
%TO.P,LED8,1,K*%
%TO.N,A2*%
X73660000Y-38100000D03*
%TO.P,LED8,2,A*%
%TO.N,3.3V*%
X73660000Y-40300000D03*
%TD*%
D18*
%TO.P,J2,1,Pin_1*%
%TO.N,A11*%
X76200000Y-134620000D03*
D19*
%TO.P,J2,2,Pin_2*%
%TO.N,A10*%
X78740000Y-134620000D03*
%TO.P,J2,3,Pin_3*%
%TO.N,3.3V*%
X81280000Y-134620000D03*
%TO.P,J2,4,Pin_4*%
%TO.N,3.3V GND*%
X83820000Y-134620000D03*
%TO.P,J2,5,Pin_5*%
%TO.N,A12*%
X86360000Y-134620000D03*
%TO.P,J2,6,Pin_6*%
%TO.N,A13*%
X88900000Y-134620000D03*
%TO.P,J2,7,Pin_7*%
%TO.N,A14*%
X91440000Y-134620000D03*
%TO.P,J2,8,Pin_8*%
%TO.N,A15*%
X93980000Y-134620000D03*
%TO.P,J2,9,Pin_9*%
%TO.N,A0*%
X96520000Y-134620000D03*
%TO.P,J2,10,Pin_10*%
%TO.N,A1*%
X99060000Y-134620000D03*
%TO.P,J2,11,Pin_11*%
%TO.N,A2*%
X101600000Y-134620000D03*
%TO.P,J2,12,Pin_12*%
%TO.N,A3*%
X104140000Y-134620000D03*
%TO.P,J2,13,Pin_13*%
%TO.N,A4*%
X106680000Y-134620000D03*
%TO.P,J2,14,Pin_14*%
%TO.N,A5*%
X109220000Y-134620000D03*
%TO.P,J2,15,Pin_15*%
%TO.N,A6*%
X111760000Y-134620000D03*
%TO.P,J2,16,Pin_16*%
%TO.N,A7*%
X114300000Y-134620000D03*
%TO.P,J2,17,Pin_17*%
%TO.N,A8*%
X116840000Y-134620000D03*
%TO.P,J2,18,Pin_18*%
%TO.N,A9*%
X119380000Y-134620000D03*
%TD*%
D16*
%TO.P,D11,1,K*%
%TO.N,3V GND*%
X52300000Y-162560000D03*
%TO.P,D11,2,A*%
%TO.N,Net-(D11-A)*%
X49300000Y-162560000D03*
D17*
%TO.P,D11,3*%
%TO.N,N/C*%
X50400000Y-162110000D03*
%TO.P,D11,4*%
X51200000Y-162110000D03*
%TD*%
D15*
%TO.P,LED4,1,K*%
%TO.N,A6*%
X124460000Y-38440000D03*
%TO.P,LED4,2,A*%
%TO.N,3.3V*%
X124460000Y-40640000D03*
%TD*%
D16*
%TO.P,D6,1,K*%
%TO.N,3V GND*%
X75160000Y-152400000D03*
%TO.P,D6,2,A*%
%TO.N,Net-(D6-A)*%
X72160000Y-152400000D03*
D17*
%TO.P,D6,3*%
%TO.N,N/C*%
X73260000Y-151950000D03*
%TO.P,D6,4*%
X74060000Y-151950000D03*
%TD*%
D15*
%TO.P,LED12,1,K*%
%TO.N,A14*%
X147320000Y-30820000D03*
%TO.P,LED12,2,A*%
%TO.N,3.3V*%
X147320000Y-33020000D03*
%TD*%
D16*
%TO.P,D14,1,K*%
%TO.N,3V GND*%
X167180000Y-48260000D03*
%TO.P,D14,2,A*%
%TO.N,Net-(D14-A)*%
X170180000Y-48260000D03*
D17*
%TO.P,D14,3*%
%TO.N,N/C*%
X169080000Y-48710000D03*
%TO.P,D14,4*%
X168280000Y-48710000D03*
%TD*%
D14*
%TO.P,LED16,1,K*%
%TO.N,A11*%
X162560000Y-48260000D03*
%TO.P,LED16,2,A*%
%TO.N,3.3V*%
X160360000Y-48260000D03*
%TD*%
D16*
%TO.P,D7,1,K*%
%TO.N,3V GND*%
X148820000Y-162560000D03*
%TO.P,D7,2,A*%
%TO.N,Net-(D7-A)*%
X145820000Y-162560000D03*
D17*
%TO.P,D7,3*%
%TO.N,N/C*%
X146920000Y-162110000D03*
%TO.P,D7,4*%
X147720000Y-162110000D03*
%TD*%
D14*
%TO.P,LED11,1,K*%
%TO.N,A15*%
X43180000Y-68580000D03*
%TO.P,LED11,2,A*%
%TO.N,3.3V*%
X45380000Y-68580000D03*
%TD*%
%TO.P,LED14,1,K*%
%TO.N,A12*%
X152400000Y-68580000D03*
%TO.P,LED14,2,A*%
%TO.N,3.3V*%
X150200000Y-68580000D03*
%TD*%
D10*
%TO.P,D16,1,K*%
%TO.N,3V GND*%
X39140000Y-70080000D03*
%TO.P,D16,2,A*%
%TO.N,Net-(D16-A)*%
X39140000Y-67080000D03*
D11*
%TO.P,D16,3*%
%TO.N,N/C*%
X39590000Y-68180000D03*
%TO.P,D16,4*%
X39590000Y-68980000D03*
%TD*%
D16*
%TO.P,D4,1,K*%
%TO.N,3V GND*%
X125500000Y-33020000D03*
%TO.P,D4,2,A*%
%TO.N,Net-(D4-A)*%
X128500000Y-33020000D03*
D17*
%TO.P,D4,3*%
%TO.N,N/C*%
X127400000Y-33470000D03*
%TO.P,D4,4*%
X126600000Y-33470000D03*
%TD*%
D12*
%TO.P,R27,1*%
%TO.N,Net-(D11-A)*%
X104140000Y-121210000D03*
D13*
%TO.P,R27,2*%
%TO.N,3V*%
X106680000Y-121210000D03*
%TD*%
D12*
%TO.P,R31,1*%
%TO.N,Net-(D15-A)*%
X116840000Y-121920000D03*
D13*
%TO.P,R31,2*%
%TO.N,3V*%
X119380000Y-121920000D03*
%TD*%
D14*
%TO.P,LED15,1,K*%
%TO.N,A10*%
X43180000Y-115740000D03*
%TO.P,LED15,2,A*%
%TO.N,3.3V*%
X45380000Y-115740000D03*
%TD*%
D12*
%TO.P,R21,1*%
%TO.N,Net-(D5-A)*%
X88900000Y-121210000D03*
D13*
%TO.P,R21,2*%
%TO.N,3V*%
X91440000Y-121210000D03*
%TD*%
D12*
%TO.P,R23,1*%
%TO.N,Net-(D7-A)*%
X104140000Y-108610000D03*
D13*
%TO.P,R23,2*%
%TO.N,3V*%
X106680000Y-108610000D03*
%TD*%
D12*
%TO.P,R19,1*%
%TO.N,Net-(D3-A)*%
X88900000Y-114910000D03*
D13*
%TO.P,R19,2*%
%TO.N,3V*%
X91440000Y-114910000D03*
%TD*%
D16*
%TO.P,D13,1,K*%
%TO.N,3V GND*%
X147320000Y-25400000D03*
%TO.P,D13,2,A*%
%TO.N,Net-(D13-A)*%
X150320000Y-25400000D03*
D17*
%TO.P,D13,3*%
%TO.N,N/C*%
X149220000Y-25850000D03*
%TO.P,D13,4*%
X148420000Y-25850000D03*
%TD*%
D12*
%TO.P,R30,1*%
%TO.N,Net-(D14-A)*%
X116840000Y-118770000D03*
D13*
%TO.P,R30,2*%
%TO.N,3V*%
X119380000Y-118770000D03*
%TD*%
D10*
%TO.P,D15,1,K*%
%TO.N,3V GND*%
X66925700Y-125890000D03*
%TO.P,D15,2,A*%
%TO.N,Net-(D15-A)*%
X66925700Y-122890000D03*
D11*
%TO.P,D15,3*%
%TO.N,N/C*%
X67375700Y-123990000D03*
%TO.P,D15,4*%
X67375700Y-124790000D03*
%TD*%
D20*
%TO.N,Net-(D3-A)*%
X53712300Y-28454300D03*
%TO.N,Net-(D4-A)*%
X100899900Y-35100500D03*
%TO.N,Net-(D5-A)*%
X101886000Y-152761800D03*
%TO.N,Net-(D6-A)*%
X71815400Y-150704500D03*
%TO.N,Net-(D7-A)*%
X145725400Y-161421000D03*
%TO.N,Net-(D8-A)*%
X104868100Y-39470700D03*
%TO.N,Net-(D11-A)*%
X93366800Y-143920000D03*
%TO.N,Net-(D13-A)*%
X150354500Y-24422700D03*
%TO.N,Net-(D14-A)*%
X153722600Y-59083800D03*
%TO.N,Net-(D16-A)*%
X115447700Y-119181900D03*
%TO.N,A15*%
X93549500Y-105227400D03*
%TO.N,A14*%
X103553900Y-40256200D03*
%TO.N,A12*%
X100583600Y-115962800D03*
X94039800Y-127344900D03*
%TO.N,A7*%
X97619000Y-30968700D03*
%TO.N,3.3V*%
X151131400Y-118044700D03*
X151131400Y-70181500D03*
X159928600Y-140972500D03*
X78171500Y-147090800D03*
%TO.N,A3*%
X33930400Y-49583900D03*
X70858100Y-131159200D03*
%TO.N,A6*%
X124377700Y-39540000D03*
%TO.N,A0*%
X101287800Y-116632000D03*
%TO.N,A2*%
X103830600Y-38425300D03*
%TO.N,A11*%
X91958300Y-106451900D03*
%TD*%
D21*
%TO.N,3V GND*%
X157480000Y-115340000D02*
X158231700Y-115340000D01*
X60226100Y-153151700D02*
X52300000Y-161077800D01*
X125279200Y-154232500D02*
X125960000Y-153551700D01*
X171043000Y-47688900D02*
X151048700Y-27694600D01*
X125500000Y-33020000D02*
X125500000Y-32369100D01*
X66925700Y-125890000D02*
X46451700Y-125890000D01*
X46760000Y-31279900D02*
X46760000Y-26151700D01*
X151048700Y-27694600D02*
X148862900Y-27694600D01*
X76240800Y-154232500D02*
X125279200Y-154232500D01*
X31216200Y-47508300D02*
X31700900Y-47993000D01*
X125498300Y-32268300D02*
X70660000Y-32268300D01*
X125960000Y-153551700D02*
X125960000Y-153151700D01*
X158231700Y-120627700D02*
X158231700Y-115340000D01*
X170106000Y-142650700D02*
X170106000Y-132502000D01*
X170106000Y-132502000D02*
X158231700Y-120627700D01*
X125960000Y-153551700D02*
X140563400Y-153551700D01*
X140563400Y-153551700D02*
X148820000Y-161808300D01*
X126548500Y-31221500D02*
X142250200Y-31221500D01*
X142250200Y-31221500D02*
X147320000Y-26151700D01*
X159068200Y-67916500D02*
X158231700Y-67080000D01*
X148862900Y-27694600D02*
X147320000Y-26151700D01*
X37700000Y-117890000D02*
X38451700Y-117890000D01*
X168198100Y-144558600D02*
X170106000Y-142650700D01*
X148820000Y-161808300D02*
X166069700Y-144558600D01*
X75160000Y-152400000D02*
X75160000Y-153151700D01*
X125500000Y-32270000D02*
X126548500Y-31221500D01*
X46451700Y-125890000D02*
X38451700Y-117890000D01*
X70660000Y-32268300D02*
X70013900Y-31622200D01*
X148820000Y-162560000D02*
X148820000Y-161808300D01*
X166888300Y-140740000D02*
X166458800Y-141169500D01*
X125960000Y-152400000D02*
X125960000Y-153151700D01*
X27480000Y-48260000D02*
X27480000Y-47508300D01*
X52300000Y-162560000D02*
X52300000Y-163311700D01*
X167600100Y-49431800D02*
X170386700Y-49431800D01*
X157480000Y-67080000D02*
X157480000Y-56555200D01*
X75160000Y-153151700D02*
X76240800Y-154232500D01*
X125500000Y-32369100D02*
X125500000Y-32270000D01*
X159068200Y-114503500D02*
X159068200Y-67916500D01*
X52300000Y-163311700D02*
X48640100Y-163311700D01*
X157480000Y-56555200D02*
X165775200Y-48260000D01*
X70660000Y-33020000D02*
X70660000Y-32268300D01*
X165775200Y-48260000D02*
X167180000Y-48260000D01*
X31700900Y-48608500D02*
X38388300Y-55295900D01*
X171043000Y-48775500D02*
X171043000Y-47688900D01*
X46760000Y-25400000D02*
X46760000Y-26151700D01*
X166458800Y-144558600D02*
X168198100Y-144558600D01*
X75160000Y-153151700D02*
X60226100Y-153151700D01*
X52300000Y-161077800D02*
X52300000Y-162560000D01*
X170386700Y-49431800D02*
X171043000Y-48775500D01*
X38388300Y-55295900D02*
X38388300Y-70080000D01*
X70013900Y-31622200D02*
X47102300Y-31622200D01*
X125500000Y-32270000D02*
X125498300Y-32268300D01*
X31216200Y-47508300D02*
X47102300Y-31622200D01*
X35098300Y-137243400D02*
X46451700Y-125890000D01*
X31700900Y-47993000D02*
X31700900Y-48608500D01*
X39140000Y-70080000D02*
X38388300Y-70080000D01*
X166069700Y-144558600D02*
X166458800Y-144558600D01*
X47102300Y-31622200D02*
X46760000Y-31279900D01*
X27480000Y-47508300D02*
X31216200Y-47508300D01*
X158231700Y-115340000D02*
X159068200Y-114503500D01*
X167180000Y-48260000D02*
X167180000Y-49011700D01*
X167180000Y-49011700D02*
X167600100Y-49431800D01*
X157480000Y-67080000D02*
X158231700Y-67080000D01*
X166458800Y-141169500D02*
X166458800Y-144558600D01*
X147320000Y-25400000D02*
X147320000Y-26151700D01*
X48640100Y-163311700D02*
X35098300Y-149769900D01*
X167640000Y-140740000D02*
X166888300Y-140740000D01*
X35098300Y-149769900D02*
X35098300Y-137243400D01*
%TO.N,Net-(D1-A)*%
X93506100Y-110587200D02*
X103123100Y-120204200D01*
X168121100Y-139824200D02*
X168391700Y-140094800D01*
X90877200Y-110587200D02*
X93506100Y-110587200D01*
X164462200Y-139824200D02*
X168121100Y-139824200D01*
X167640000Y-143740000D02*
X168391700Y-143740000D01*
X144842200Y-120204200D02*
X164462200Y-139824200D01*
X88900000Y-108610000D02*
X90877200Y-110587200D01*
X103123100Y-120204200D02*
X144842200Y-120204200D01*
X168391700Y-140094800D02*
X168391700Y-143740000D01*
%TO.N,Net-(D2-A)*%
X39203400Y-114138300D02*
X86521700Y-114138300D01*
X37700000Y-114890000D02*
X38451700Y-114890000D01*
X38451700Y-114890000D02*
X39203400Y-114138300D01*
X86521700Y-114138300D02*
X88900000Y-111760000D01*
%TO.N,Net-(D3-A)*%
X50658000Y-25400000D02*
X53712300Y-28454300D01*
X49760000Y-25400000D02*
X50658000Y-25400000D01*
%TO.N,Net-(D4-A)*%
X128500000Y-33020000D02*
X128500000Y-33771700D01*
X128500000Y-33771700D02*
X128100000Y-34171700D01*
X102322300Y-33678100D02*
X100899900Y-35100500D01*
X120886800Y-34171700D02*
X120393200Y-33678100D01*
X128100000Y-34171700D02*
X120886800Y-34171700D01*
X120393200Y-33678100D02*
X102322300Y-33678100D01*
%TO.N,Net-(D5-A)*%
X122960000Y-153151700D02*
X122292000Y-153819700D01*
X122292000Y-153819700D02*
X102943900Y-153819700D01*
X122960000Y-152400000D02*
X122960000Y-153151700D01*
X102943900Y-153819700D02*
X101886000Y-152761800D01*
%TO.N,Net-(D6-A)*%
X72160000Y-152400000D02*
X72160000Y-151648300D01*
X71815400Y-151303700D02*
X71815400Y-150704500D01*
X72160000Y-151648300D02*
X71815400Y-151303700D01*
%TO.N,Net-(D7-A)*%
X145725400Y-161421000D02*
X145820000Y-161515600D01*
X145820000Y-161515600D02*
X145820000Y-162560000D01*
%TO.N,Net-(D8-A)*%
X72733300Y-35727100D02*
X72733300Y-38746200D01*
X72733300Y-38746200D02*
X73457800Y-39470700D01*
X73660000Y-33020000D02*
X73660000Y-34800400D01*
X73660000Y-34800400D02*
X72733300Y-35727100D01*
X73457800Y-39470700D02*
X104868100Y-39470700D01*
%TO.N,Net-(D9-A)*%
X104140000Y-114910000D02*
X105583700Y-113466300D01*
X157480000Y-71248300D02*
X157480000Y-70080000D01*
X105583700Y-113466300D02*
X115262000Y-113466300D01*
X115262000Y-113466300D02*
X157480000Y-71248300D01*
%TO.N,Net-(D10-A)*%
X155284700Y-119783600D02*
X105863600Y-119783600D01*
X156728300Y-118340000D02*
X155284700Y-119783600D01*
X105863600Y-119783600D02*
X104140000Y-118060000D01*
X157480000Y-118340000D02*
X156728300Y-118340000D01*
%TO.N,Net-(D11-A)*%
X62409600Y-148698700D02*
X88588100Y-148698700D01*
X49300000Y-162560000D02*
X49300000Y-161808300D01*
X88588100Y-148698700D02*
X93366800Y-143920000D01*
X49300000Y-161808300D02*
X62409600Y-148698700D01*
%TO.N,Net-(D12-A)*%
X104140000Y-124360000D02*
X96265300Y-124360000D01*
X90170000Y-118264700D02*
X90170000Y-111593900D01*
X78103900Y-110454800D02*
X37775000Y-70125900D01*
X31281700Y-48827900D02*
X31281700Y-48260000D01*
X96265300Y-124360000D02*
X90170000Y-118264700D01*
X37775000Y-55321200D02*
X31281700Y-48827900D01*
X30480000Y-48260000D02*
X31281700Y-48260000D01*
X37775000Y-70125900D02*
X37775000Y-55321200D01*
X89030900Y-110454800D02*
X78103900Y-110454800D01*
X90170000Y-111593900D02*
X89030900Y-110454800D01*
%TO.N,Net-(D13-A)*%
X150354500Y-24422700D02*
X150320000Y-24457200D01*
X150320000Y-24457200D02*
X150320000Y-25400000D01*
%TO.N,Net-(D14-A)*%
X170180000Y-48260000D02*
X170180000Y-47508300D01*
X154383400Y-59083800D02*
X153722600Y-59083800D01*
X170180000Y-47508300D02*
X165958900Y-47508300D01*
X165958900Y-47508300D02*
X154383400Y-59083800D01*
%TO.N,Net-(D15-A)*%
X81688900Y-135626400D02*
X82550000Y-134765300D01*
X77328500Y-134627700D02*
X78327200Y-135626400D01*
X112130900Y-126629100D02*
X116840000Y-121920000D01*
X90385300Y-126629100D02*
X112130900Y-126629100D01*
X77328500Y-132541100D02*
X77328500Y-134627700D01*
X66925700Y-122890000D02*
X67677400Y-122890000D01*
X82550000Y-134765300D02*
X82550000Y-134464400D01*
X78327200Y-135626400D02*
X81688900Y-135626400D01*
X67677400Y-122890000D02*
X77328500Y-132541100D01*
X82550000Y-134464400D02*
X90385300Y-126629100D01*
%TO.N,Net-(D16-A)*%
X101961300Y-117233800D02*
X101003400Y-117233800D01*
X58241500Y-73952900D02*
X46764600Y-73952900D01*
X101003400Y-117233800D02*
X99676100Y-115906500D01*
X46764600Y-73952900D02*
X39891700Y-67080000D01*
X115447700Y-119181900D02*
X113308000Y-117042200D01*
X39140000Y-67080000D02*
X39891700Y-67080000D01*
X99676100Y-115387500D02*
X58241500Y-73952900D01*
X113308000Y-117042200D02*
X102152900Y-117042200D01*
X99676100Y-115906500D02*
X99676100Y-115387500D01*
X102152900Y-117042200D02*
X101961300Y-117233800D01*
%TO.N,A4*%
X76200000Y-145120000D02*
X76200000Y-144318300D01*
X101298200Y-140001800D02*
X106680000Y-134620000D01*
X80516500Y-140001800D02*
X101298200Y-140001800D01*
X76200000Y-144318300D02*
X80516500Y-140001800D01*
%TO.N,A15*%
X43981700Y-68780400D02*
X43981700Y-68580000D01*
X58168800Y-69846700D02*
X45048000Y-69846700D01*
X45048000Y-69846700D02*
X43981700Y-68780400D01*
X93549500Y-105227400D02*
X58168800Y-69846700D01*
X43180000Y-68580000D02*
X43981700Y-68580000D01*
%TO.N,A14*%
X147320000Y-30820000D02*
X147320000Y-31621700D01*
X114485800Y-40256200D02*
X118984200Y-35757800D01*
X103553900Y-40256200D02*
X114485800Y-40256200D01*
X142382200Y-35757800D02*
X146518300Y-31621700D01*
X118984200Y-35757800D02*
X142382200Y-35757800D01*
X146518300Y-31621700D02*
X147320000Y-31621700D01*
%TO.N,A10*%
X63658100Y-118235100D02*
X78740000Y-133317000D01*
X78740000Y-133317000D02*
X78740000Y-134620000D01*
X43981700Y-115740000D02*
X43981700Y-115940400D01*
X43981700Y-115940400D02*
X46276400Y-118235100D01*
X43180000Y-115740000D02*
X43981700Y-115740000D01*
X46276400Y-118235100D02*
X63658100Y-118235100D01*
%TO.N,A12*%
X109141700Y-113054600D02*
X152400000Y-69796300D01*
X86360000Y-134620000D02*
X93635100Y-127344900D01*
X103491800Y-113054600D02*
X109141700Y-113054600D01*
X100583600Y-115962800D02*
X103491800Y-113054600D01*
X93635100Y-127344900D02*
X94039800Y-127344900D01*
X152400000Y-69796300D02*
X152400000Y-68580000D01*
%TO.N,A9*%
X119380000Y-134620000D02*
X154427000Y-134620000D01*
X154427000Y-134620000D02*
X161758300Y-141951300D01*
X162560000Y-142240000D02*
X161758300Y-142240000D01*
X161758300Y-141951300D02*
X161758300Y-142240000D01*
%TO.N,A1*%
X99060000Y-134620000D02*
X94279900Y-139400100D01*
X50800000Y-154940000D02*
X50800000Y-154138300D01*
X94279900Y-139400100D02*
X65538200Y-139400100D01*
X65538200Y-139400100D02*
X50800000Y-154138300D01*
%TO.N,A7*%
X52215400Y-30968700D02*
X97619000Y-30968700D01*
X51726700Y-30480000D02*
X52215400Y-30968700D01*
X50800000Y-30480000D02*
X51726700Y-30480000D01*
%TO.N,3.3V*%
X160360000Y-141776600D02*
X160360000Y-142240000D01*
X153945900Y-58482100D02*
X153473500Y-58482100D01*
X35560000Y-48260000D02*
X36361700Y-48260000D01*
X151938300Y-40640000D02*
X159558300Y-48260000D01*
X88830300Y-147090800D02*
X92609000Y-143312100D01*
X150853400Y-117766700D02*
X151131400Y-118044700D01*
X50800000Y-156739100D02*
X36701700Y-142640800D01*
X159928600Y-140972500D02*
X160269400Y-141313300D01*
X147320000Y-33020000D02*
X147320000Y-33821700D01*
X150200000Y-68580000D02*
X150200000Y-69506700D01*
X44050900Y-48260000D02*
X44050900Y-68052600D01*
X50800000Y-156338300D02*
X54104200Y-156338300D01*
X54104200Y-156338300D02*
X63122500Y-147320000D01*
X36701700Y-142640800D02*
X36701700Y-142240000D01*
X50800000Y-157140000D02*
X50800000Y-156739100D01*
X153473500Y-58482100D02*
X150200000Y-61755600D01*
X123282200Y-40891100D02*
X123533300Y-40640000D01*
X150874800Y-70181500D02*
X151131400Y-70181500D01*
X52010900Y-40300000D02*
X52010900Y-34692600D01*
X35900000Y-142240000D02*
X36701700Y-142240000D01*
X75177800Y-40891100D02*
X123282200Y-40891100D01*
X73660000Y-40300000D02*
X52010900Y-40300000D01*
X45380000Y-68580000D02*
X44578300Y-68580000D01*
X92609000Y-143312100D02*
X109543600Y-143312100D01*
X78171500Y-147090800D02*
X88830300Y-147090800D01*
X109543600Y-143312100D02*
X113551500Y-147320000D01*
X50800000Y-156739100D02*
X50800000Y-156338300D01*
X36361700Y-48260000D02*
X44050900Y-48260000D01*
X52010900Y-34692600D02*
X50800000Y-33481700D01*
X63122500Y-147320000D02*
X76200000Y-147320000D01*
X161161700Y-48059600D02*
X161931400Y-47289900D01*
X160360000Y-143537900D02*
X147559600Y-156338300D01*
X147320000Y-157140000D02*
X147320000Y-156338300D01*
X62400000Y-115740000D02*
X45380000Y-115740000D01*
X73832200Y-40300000D02*
X73660000Y-40300000D01*
X163142700Y-47289900D02*
X163381000Y-47528200D01*
X147320000Y-40640000D02*
X147320000Y-33821700D01*
X44050900Y-68052600D02*
X44578300Y-68580000D01*
X77126700Y-147320000D02*
X77355900Y-147090800D01*
X146518300Y-156338300D02*
X147320000Y-156338300D01*
X121920000Y-147320000D02*
X137500000Y-147320000D01*
X150200000Y-61755600D02*
X150200000Y-68580000D01*
X50800000Y-32680000D02*
X50800000Y-33481700D01*
X150200000Y-117766700D02*
X150853400Y-117766700D01*
X137500000Y-147320000D02*
X146518300Y-156338300D01*
X73832200Y-40300000D02*
X74586700Y-40300000D01*
X163381000Y-49047000D02*
X153945900Y-58482100D01*
X160360000Y-48260000D02*
X159558300Y-48260000D01*
X81280000Y-134620000D02*
X62400000Y-115740000D01*
X161161700Y-48260000D02*
X161161700Y-48059600D01*
X150200000Y-116840000D02*
X150200000Y-117766700D01*
X160360000Y-141776600D02*
X160360000Y-141313300D01*
X76200000Y-147320000D02*
X77126700Y-147320000D01*
X161931400Y-47289900D02*
X163142700Y-47289900D01*
X150200000Y-69506700D02*
X150874800Y-70181500D01*
X77355900Y-147090800D02*
X78171500Y-147090800D01*
X147320000Y-40640000D02*
X124460000Y-40640000D01*
X147320000Y-40640000D02*
X151938300Y-40640000D01*
X124460000Y-40640000D02*
X123533300Y-40640000D01*
X163381000Y-47528200D02*
X163381000Y-49047000D01*
X160269400Y-141313300D02*
X160360000Y-141313300D01*
X74586700Y-40300000D02*
X75177800Y-40891100D01*
X160360000Y-48260000D02*
X161161700Y-48260000D01*
X147559600Y-156338300D02*
X147320000Y-156338300D01*
X113551500Y-147320000D02*
X121920000Y-147320000D01*
X160360000Y-142240000D02*
X160360000Y-143537900D01*
X52010900Y-40300000D02*
X44050900Y-48260000D01*
%TO.N,A3*%
X88502800Y-133602000D02*
X87360700Y-134744100D01*
X104140000Y-134620000D02*
X103122000Y-133602000D01*
X86364200Y-136031100D02*
X75730000Y-136031100D01*
X87360700Y-134744100D02*
X87360700Y-135034600D01*
X87360700Y-135034600D02*
X86364200Y-136031100D01*
X103122000Y-133602000D02*
X88502800Y-133602000D01*
X33533200Y-49186700D02*
X33360000Y-49186700D01*
X33360000Y-48260000D02*
X33360000Y-49186700D01*
X33930400Y-49583900D02*
X33533200Y-49186700D01*
X75730000Y-136031100D02*
X70858100Y-131159200D01*
%TO.N,A13*%
X38100000Y-142240000D02*
X38901700Y-142240000D01*
X42944800Y-138196900D02*
X38901700Y-142240000D01*
X88900000Y-134620000D02*
X85323100Y-138196900D01*
X85323100Y-138196900D02*
X42944800Y-138196900D01*
%TO.N,A5*%
X147320000Y-154940000D02*
X147320000Y-154138300D01*
X120521700Y-145921700D02*
X139103400Y-145921700D01*
X109220000Y-134620000D02*
X120521700Y-145921700D01*
X139103400Y-145921700D02*
X147320000Y-154138300D01*
%TO.N,A6*%
X124460000Y-39457700D02*
X124460000Y-38440000D01*
X124377700Y-39540000D02*
X124460000Y-39457700D01*
%TO.N,A0*%
X151598300Y-116840000D02*
X151598300Y-116639600D01*
X150872000Y-115913300D02*
X149575000Y-115913300D01*
X152400000Y-116840000D02*
X151598300Y-116840000D01*
X148856300Y-116632000D02*
X101287800Y-116632000D01*
X151598300Y-116639600D02*
X150872000Y-115913300D01*
X149575000Y-115913300D02*
X148856300Y-116632000D01*
%TO.N,A2*%
X74586700Y-38100000D02*
X74912000Y-38425300D01*
X73660000Y-38100000D02*
X74586700Y-38100000D01*
X74912000Y-38425300D02*
X103830600Y-38425300D01*
%TO.N,A11*%
X161758300Y-48460400D02*
X161758300Y-48260000D01*
X162560000Y-48260000D02*
X161758300Y-48260000D01*
X91958300Y-106451900D02*
X103766800Y-106451900D01*
X103766800Y-106451900D02*
X161758300Y-48460400D01*
%TO.N,A8*%
X116840000Y-139238300D02*
X121920000Y-144318300D01*
X116840000Y-134620000D02*
X116840000Y-139238300D01*
X121920000Y-145120000D02*
X121920000Y-144318300D01*
%TO.N,3V*%
X104673600Y-125364700D02*
X105678300Y-124360000D01*
X107681700Y-121210000D02*
X107983800Y-120907900D01*
X106680000Y-124360000D02*
X105678300Y-124360000D01*
X119380000Y-121920000D02*
X118378300Y-121920000D01*
X93446400Y-125364700D02*
X104673600Y-125364700D01*
X92441700Y-124360000D02*
X93446400Y-125364700D01*
X106680000Y-121210000D02*
X107681700Y-121210000D01*
X107983800Y-120907900D02*
X117366200Y-120907900D01*
X91440000Y-124360000D02*
X92441700Y-124360000D01*
X117366200Y-120907900D02*
X118378300Y-121920000D01*
%TD*%
M02*
