%TF.GenerationSoftware,KiCad,Pcbnew,8.0.5*%
%TF.CreationDate,2024-11-19T19:18:47-05:00*%
%TF.ProjectId,line_sensor_pcb,6c696e65-5f73-4656-9e73-6f725f706362,rev?*%
%TF.SameCoordinates,Original*%
%TF.FileFunction,Drillmap*%
%TF.FilePolarity,Positive*%
%FSLAX45Y45*%
G04 Gerber Fmt 4.5, Leading zero omitted, Abs format (unit mm)*
G04 Created by KiCad (PCBNEW 8.0.5) date 2024-11-19 19:18:47*
%MOMM*%
%LPD*%
G01*
G04 APERTURE LIST*
%ADD10C,0.200000*%
%ADD11C,0.100000*%
G04 APERTURE END LIST*
D10*
X6773178Y-3029700D02*
X6773178Y-1194070D01*
X15875625Y-7681333D02*
G75*
G02*
X15525625Y-7681333I-175000J0D01*
G01*
X15525625Y-7681333D02*
G75*
G02*
X15875625Y-7681333I175000J0D01*
G01*
X3556000Y-12446000D02*
X1698761Y-12446000D01*
X12989478Y-3029700D02*
X6773178Y-3029700D01*
X5005626Y-10981333D02*
G75*
G02*
X4655626Y-10981333I-175000J0D01*
G01*
X4655626Y-10981333D02*
G75*
G02*
X5005626Y-10981333I175000J0D01*
G01*
X10351184Y-9878182D02*
X9351184Y-9878182D01*
X4205626Y-7681333D02*
G75*
G02*
X3855625Y-7681333I-175000J0D01*
G01*
X3855625Y-7681333D02*
G75*
G02*
X4205626Y-7681333I175000J0D01*
G01*
X1723213Y-6229700D02*
G75*
G02*
X6773178Y-1194070I8167058J-3140322D01*
G01*
X16256000Y-12446000D02*
X16256000Y-6229700D01*
X12989478Y-15729700D02*
X12989478Y-17552775D01*
X6213664Y-2635422D02*
G75*
G02*
X5413665Y-2635422I-400000J0D01*
G01*
X5413665Y-2635422D02*
G75*
G02*
X6213664Y-2635422I400000J0D01*
G01*
X6067552Y-4632216D02*
G75*
G02*
X5717552Y-4632216I-175000J0D01*
G01*
X5717552Y-4632216D02*
G75*
G02*
X6067552Y-4632216I175000J0D01*
G01*
X11683500Y-14375438D02*
G75*
G02*
X11333500Y-14375438I-175000J0D01*
G01*
X11333500Y-14375438D02*
G75*
G02*
X11683500Y-14375438I175000J0D01*
G01*
X11683500Y-3575438D02*
G75*
G02*
X11333500Y-3575438I-175000J0D01*
G01*
X11333500Y-3575438D02*
G75*
G02*
X11683500Y-3575438I175000J0D01*
G01*
X6773178Y-17545977D02*
X6773178Y-15729700D01*
X3476008Y-13442045D02*
G75*
G02*
X2676008Y-13442045I-400000J0D01*
G01*
X2676008Y-13442045D02*
G75*
G02*
X3476008Y-13442045I400000J0D01*
G01*
X10351184Y-8878182D02*
X10351184Y-9878182D01*
X14213664Y-2635422D02*
G75*
G02*
X13413664Y-2635422I-400000J0D01*
G01*
X13413664Y-2635422D02*
G75*
G02*
X14213664Y-2635422I400000J0D01*
G01*
X14213664Y-16135422D02*
G75*
G02*
X13413664Y-16135422I-400000J0D01*
G01*
X13413664Y-16135422D02*
G75*
G02*
X14213664Y-16135422I400000J0D01*
G01*
X15075625Y-10981333D02*
G75*
G02*
X14725625Y-10981333I-175000J0D01*
G01*
X14725625Y-10981333D02*
G75*
G02*
X15075625Y-10981333I175000J0D01*
G01*
X16256000Y-6229700D02*
X18057333Y-6229700D01*
X6773178Y-15729700D02*
X12989478Y-15729700D01*
X5005626Y-7681333D02*
G75*
G02*
X4655626Y-7681333I-175000J0D01*
G01*
X4655626Y-7681333D02*
G75*
G02*
X5005626Y-7681333I175000J0D01*
G01*
X18081785Y-12446000D02*
X16256000Y-12446000D01*
X18081785Y-12446000D02*
G75*
G02*
X12989478Y-17552775I-8191512J3075977D01*
G01*
X15875625Y-10981333D02*
G75*
G02*
X15525625Y-10981333I-175000J0D01*
G01*
X15525625Y-10981333D02*
G75*
G02*
X15875625Y-10981333I175000J0D01*
G01*
X12989478Y-1187272D02*
G75*
G02*
X18057333Y-6229700I-3099203J-8182750D01*
G01*
X8383500Y-14375438D02*
G75*
G02*
X8033500Y-14375438I-175000J0D01*
G01*
X8033500Y-14375438D02*
G75*
G02*
X8383500Y-14375438I175000J0D01*
G01*
X8383500Y-3575438D02*
G75*
G02*
X8033500Y-3575438I-175000J0D01*
G01*
X8033500Y-3575438D02*
G75*
G02*
X8383500Y-3575438I175000J0D01*
G01*
X3556000Y-6229700D02*
X3556000Y-12446000D01*
X8383500Y-15175438D02*
G75*
G02*
X8033500Y-15175438I-175000J0D01*
G01*
X8033500Y-15175438D02*
G75*
G02*
X8383500Y-15175438I175000J0D01*
G01*
X6213664Y-16135422D02*
G75*
G02*
X5413665Y-16135422I-400000J0D01*
G01*
X5413665Y-16135422D02*
G75*
G02*
X6213664Y-16135422I400000J0D01*
G01*
X4205626Y-10981333D02*
G75*
G02*
X3855625Y-10981333I-175000J0D01*
G01*
X3855625Y-10981333D02*
G75*
G02*
X4205626Y-10981333I175000J0D01*
G01*
X11683500Y-15175438D02*
G75*
G02*
X11333500Y-15175438I-175000J0D01*
G01*
X11333500Y-15175438D02*
G75*
G02*
X11683500Y-15175438I175000J0D01*
G01*
X12989478Y-1187272D02*
X12989478Y-3029700D01*
X11683500Y-4375438D02*
G75*
G02*
X11333500Y-4375438I-175000J0D01*
G01*
X11333500Y-4375438D02*
G75*
G02*
X11683500Y-4375438I175000J0D01*
G01*
X9351184Y-9878182D02*
X9351184Y-8878182D01*
X16976008Y-13442045D02*
G75*
G02*
X16176008Y-13442045I-400000J0D01*
G01*
X16176008Y-13442045D02*
G75*
G02*
X16976008Y-13442045I400000J0D01*
G01*
X6773178Y-17545977D02*
G75*
G02*
X1698761Y-12446000I3117091J8175950D01*
G01*
X16976008Y-5442045D02*
G75*
G02*
X16176008Y-5442045I-400000J0D01*
G01*
X16176008Y-5442045D02*
G75*
G02*
X16976008Y-5442045I400000J0D01*
G01*
X15075625Y-7681333D02*
G75*
G02*
X14725625Y-7681333I-175000J0D01*
G01*
X14725625Y-7681333D02*
G75*
G02*
X15075625Y-7681333I175000J0D01*
G01*
X6183500Y-6375438D02*
G75*
G02*
X5833500Y-6375438I-175000J0D01*
G01*
X5833500Y-6375438D02*
G75*
G02*
X6183500Y-6375438I175000J0D01*
G01*
X3476008Y-5442045D02*
G75*
G02*
X2676008Y-5442045I-400000J0D01*
G01*
X2676008Y-5442045D02*
G75*
G02*
X3476008Y-5442045I400000J0D01*
G01*
X1723213Y-6229700D02*
X3556000Y-6229700D01*
X8383500Y-4375438D02*
G75*
G02*
X8033500Y-4375438I-175000J0D01*
G01*
X8033500Y-4375438D02*
G75*
G02*
X8383500Y-4375438I175000J0D01*
G01*
X9351184Y-8878182D02*
X10351184Y-8878182D01*
D11*
X3378040Y-4943390D02*
X3408040Y-4973390D01*
X3408040Y-4943390D02*
X3378040Y-4973390D01*
X5356230Y-2830430D02*
X5386230Y-2860430D01*
X5386230Y-2830430D02*
X5356230Y-2860430D01*
X7070810Y-13100920D02*
X7100810Y-13130920D01*
X7100810Y-13100920D02*
X7070810Y-13130920D01*
X7166540Y-15055450D02*
X7196540Y-15085450D01*
X7196540Y-15055450D02*
X7166540Y-15085450D01*
X7802150Y-14694080D02*
X7832150Y-14724080D01*
X7832150Y-14694080D02*
X7802150Y-14724080D01*
X9180830Y-10630190D02*
X9210830Y-10660190D01*
X9210830Y-10630190D02*
X9180830Y-10660190D01*
X9321680Y-14377000D02*
X9351680Y-14407000D01*
X9351680Y-14377000D02*
X9321680Y-14407000D01*
X9339950Y-10507740D02*
X9369950Y-10537740D01*
X9369950Y-10507740D02*
X9339950Y-10537740D01*
X9388980Y-12719490D02*
X9418980Y-12749490D01*
X9418980Y-12719490D02*
X9388980Y-12749490D01*
X9746900Y-3081870D02*
X9776900Y-3111870D01*
X9776900Y-3081870D02*
X9746900Y-3111870D01*
X10043360Y-11581280D02*
X10073360Y-11611280D01*
X10073360Y-11581280D02*
X10043360Y-11611280D01*
X10074990Y-3495050D02*
X10104990Y-3525050D01*
X10104990Y-3495050D02*
X10074990Y-3525050D01*
X10113780Y-11648200D02*
X10143780Y-11678200D01*
X10143780Y-11648200D02*
X10113780Y-11678200D01*
X10173600Y-15261180D02*
X10203600Y-15291180D01*
X10203600Y-15261180D02*
X10173600Y-15291180D01*
X10340390Y-4010620D02*
X10370390Y-4040620D01*
X10370390Y-4010620D02*
X10340390Y-4040620D01*
X10368060Y-3827530D02*
X10398060Y-3857530D01*
X10398060Y-3827530D02*
X10368060Y-3857530D01*
X10471810Y-3932070D02*
X10501810Y-3962070D01*
X10501810Y-3932070D02*
X10471810Y-3962070D01*
X11529770Y-11903190D02*
X11559770Y-11933190D01*
X11559770Y-11903190D02*
X11529770Y-11933190D01*
X12422770Y-3939000D02*
X12452770Y-3969000D01*
X12452770Y-3939000D02*
X12422770Y-3969000D01*
X14557540Y-16127100D02*
X14587540Y-16157100D01*
X14587540Y-16127100D02*
X14557540Y-16157100D01*
X15020450Y-2427270D02*
X15050450Y-2457270D01*
X15050450Y-2427270D02*
X15020450Y-2457270D01*
X15098140Y-7003150D02*
X15128140Y-7033150D01*
X15128140Y-7003150D02*
X15098140Y-7033150D01*
X15098140Y-11789470D02*
X15128140Y-11819470D01*
X15128140Y-11789470D02*
X15098140Y-11819470D01*
X15357260Y-5893380D02*
X15387260Y-5923380D01*
X15387260Y-5893380D02*
X15357260Y-5923380D01*
X15977860Y-14082250D02*
X16007860Y-14112250D01*
X16007860Y-14082250D02*
X15977860Y-14112250D01*
X8925000Y-10861000D02*
G75*
G02*
X8855000Y-10861000I-35000J0D01*
G01*
X8855000Y-10861000D02*
G75*
G02*
X8925000Y-10861000I35000J0D01*
G01*
X8925000Y-11176000D02*
G75*
G02*
X8855000Y-11176000I-35000J0D01*
G01*
X8855000Y-11176000D02*
G75*
G02*
X8925000Y-11176000I35000J0D01*
G01*
X8925000Y-11491000D02*
G75*
G02*
X8855000Y-11491000I-35000J0D01*
G01*
X8855000Y-11491000D02*
G75*
G02*
X8925000Y-11491000I35000J0D01*
G01*
X8925000Y-11806000D02*
G75*
G02*
X8855000Y-11806000I-35000J0D01*
G01*
X8855000Y-11806000D02*
G75*
G02*
X8925000Y-11806000I35000J0D01*
G01*
X8925000Y-12121000D02*
G75*
G02*
X8855000Y-12121000I-35000J0D01*
G01*
X8855000Y-12121000D02*
G75*
G02*
X8925000Y-12121000I35000J0D01*
G01*
X8925000Y-12436000D02*
G75*
G02*
X8855000Y-12436000I-35000J0D01*
G01*
X8855000Y-12436000D02*
G75*
G02*
X8925000Y-12436000I35000J0D01*
G01*
X9179000Y-10861000D02*
G75*
G02*
X9109000Y-10861000I-35000J0D01*
G01*
X9109000Y-10861000D02*
G75*
G02*
X9179000Y-10861000I35000J0D01*
G01*
X9179000Y-11176000D02*
G75*
G02*
X9109000Y-11176000I-35000J0D01*
G01*
X9109000Y-11176000D02*
G75*
G02*
X9179000Y-11176000I35000J0D01*
G01*
X9179000Y-11491000D02*
G75*
G02*
X9109000Y-11491000I-35000J0D01*
G01*
X9109000Y-11491000D02*
G75*
G02*
X9179000Y-11491000I35000J0D01*
G01*
X9179000Y-11806000D02*
G75*
G02*
X9109000Y-11806000I-35000J0D01*
G01*
X9109000Y-11806000D02*
G75*
G02*
X9179000Y-11806000I35000J0D01*
G01*
X9179000Y-12121000D02*
G75*
G02*
X9109000Y-12121000I-35000J0D01*
G01*
X9109000Y-12121000D02*
G75*
G02*
X9179000Y-12121000I35000J0D01*
G01*
X9179000Y-12436000D02*
G75*
G02*
X9109000Y-12436000I-35000J0D01*
G01*
X9109000Y-12436000D02*
G75*
G02*
X9179000Y-12436000I35000J0D01*
G01*
X10449000Y-10861000D02*
G75*
G02*
X10379000Y-10861000I-35000J0D01*
G01*
X10379000Y-10861000D02*
G75*
G02*
X10449000Y-10861000I35000J0D01*
G01*
X10449000Y-11176000D02*
G75*
G02*
X10379000Y-11176000I-35000J0D01*
G01*
X10379000Y-11176000D02*
G75*
G02*
X10449000Y-11176000I35000J0D01*
G01*
X10449000Y-11491000D02*
G75*
G02*
X10379000Y-11491000I-35000J0D01*
G01*
X10379000Y-11491000D02*
G75*
G02*
X10449000Y-11491000I35000J0D01*
G01*
X10449000Y-11806000D02*
G75*
G02*
X10379000Y-11806000I-35000J0D01*
G01*
X10379000Y-11806000D02*
G75*
G02*
X10449000Y-11806000I35000J0D01*
G01*
X10449000Y-12121000D02*
G75*
G02*
X10379000Y-12121000I-35000J0D01*
G01*
X10379000Y-12121000D02*
G75*
G02*
X10449000Y-12121000I35000J0D01*
G01*
X10449000Y-12436000D02*
G75*
G02*
X10379000Y-12436000I-35000J0D01*
G01*
X10379000Y-12436000D02*
G75*
G02*
X10449000Y-12436000I35000J0D01*
G01*
X10703000Y-10861000D02*
G75*
G02*
X10633000Y-10861000I-35000J0D01*
G01*
X10633000Y-10861000D02*
G75*
G02*
X10703000Y-10861000I35000J0D01*
G01*
X10703000Y-11176000D02*
G75*
G02*
X10633000Y-11176000I-35000J0D01*
G01*
X10633000Y-11176000D02*
G75*
G02*
X10703000Y-11176000I35000J0D01*
G01*
X10703000Y-11491000D02*
G75*
G02*
X10633000Y-11491000I-35000J0D01*
G01*
X10633000Y-11491000D02*
G75*
G02*
X10703000Y-11491000I35000J0D01*
G01*
X10703000Y-11806000D02*
G75*
G02*
X10633000Y-11806000I-35000J0D01*
G01*
X10633000Y-11806000D02*
G75*
G02*
X10703000Y-11806000I35000J0D01*
G01*
X10703000Y-12121000D02*
G75*
G02*
X10633000Y-12121000I-35000J0D01*
G01*
X10633000Y-12121000D02*
G75*
G02*
X10703000Y-12121000I35000J0D01*
G01*
X10703000Y-12436000D02*
G75*
G02*
X10633000Y-12436000I-35000J0D01*
G01*
X10633000Y-12436000D02*
G75*
G02*
X10703000Y-12436000I35000J0D01*
G01*
X11719000Y-11562000D02*
G75*
G02*
X11649000Y-11562000I-35000J0D01*
G01*
X11649000Y-11562000D02*
G75*
G02*
X11719000Y-11562000I35000J0D01*
G01*
X11719000Y-11877000D02*
G75*
G02*
X11649000Y-11877000I-35000J0D01*
G01*
X11649000Y-11877000D02*
G75*
G02*
X11719000Y-11877000I35000J0D01*
G01*
X11719000Y-12192000D02*
G75*
G02*
X11649000Y-12192000I-35000J0D01*
G01*
X11649000Y-12192000D02*
G75*
G02*
X11719000Y-12192000I35000J0D01*
G01*
X11719000Y-12507000D02*
G75*
G02*
X11649000Y-12507000I-35000J0D01*
G01*
X11649000Y-12507000D02*
G75*
G02*
X11719000Y-12507000I35000J0D01*
G01*
X11973000Y-11562000D02*
G75*
G02*
X11903000Y-11562000I-35000J0D01*
G01*
X11903000Y-11562000D02*
G75*
G02*
X11973000Y-11562000I35000J0D01*
G01*
X11973000Y-11877000D02*
G75*
G02*
X11903000Y-11877000I-35000J0D01*
G01*
X11903000Y-11877000D02*
G75*
G02*
X11973000Y-11877000I35000J0D01*
G01*
X11973000Y-12192000D02*
G75*
G02*
X11903000Y-12192000I-35000J0D01*
G01*
X11903000Y-12192000D02*
G75*
G02*
X11973000Y-12192000I35000J0D01*
G01*
X11973000Y-12507000D02*
G75*
G02*
X11903000Y-12507000I-35000J0D01*
G01*
X11903000Y-12507000D02*
G75*
G02*
X11973000Y-12507000I35000J0D01*
G01*
X7620000Y-13417500D02*
X7620000Y-13506500D01*
X7575500Y-13462000D02*
X7664500Y-13462000D01*
X7874000Y-13417500D02*
X7874000Y-13506500D01*
X7829500Y-13462000D02*
X7918500Y-13462000D01*
X8128000Y-13417500D02*
X8128000Y-13506500D01*
X8083500Y-13462000D02*
X8172500Y-13462000D01*
X8382000Y-13417500D02*
X8382000Y-13506500D01*
X8337500Y-13462000D02*
X8426500Y-13462000D01*
X8636000Y-13417500D02*
X8636000Y-13506500D01*
X8591500Y-13462000D02*
X8680500Y-13462000D01*
X8890000Y-13417500D02*
X8890000Y-13506500D01*
X8845500Y-13462000D02*
X8934500Y-13462000D01*
X9144000Y-13417500D02*
X9144000Y-13506500D01*
X9099500Y-13462000D02*
X9188500Y-13462000D01*
X9398000Y-13417500D02*
X9398000Y-13506500D01*
X9353500Y-13462000D02*
X9442500Y-13462000D01*
X9652000Y-13417500D02*
X9652000Y-13506500D01*
X9607500Y-13462000D02*
X9696500Y-13462000D01*
X9906000Y-13417500D02*
X9906000Y-13506500D01*
X9861500Y-13462000D02*
X9950500Y-13462000D01*
X10160000Y-13417500D02*
X10160000Y-13506500D01*
X10115500Y-13462000D02*
X10204500Y-13462000D01*
X10414000Y-13417500D02*
X10414000Y-13506500D01*
X10369500Y-13462000D02*
X10458500Y-13462000D01*
X10668000Y-13417500D02*
X10668000Y-13506500D01*
X10623500Y-13462000D02*
X10712500Y-13462000D01*
X10922000Y-13417500D02*
X10922000Y-13506500D01*
X10877500Y-13462000D02*
X10966500Y-13462000D01*
X11176000Y-13417500D02*
X11176000Y-13506500D01*
X11131500Y-13462000D02*
X11220500Y-13462000D01*
X11430000Y-13417500D02*
X11430000Y-13506500D01*
X11385500Y-13462000D02*
X11474500Y-13462000D01*
X11684000Y-13417500D02*
X11684000Y-13506500D01*
X11639500Y-13462000D02*
X11728500Y-13462000D01*
X11938000Y-13417500D02*
X11938000Y-13506500D01*
X11893500Y-13462000D02*
X11982500Y-13462000D01*
D10*
X1949538Y-17874259D02*
X1949538Y-17674259D01*
X1949538Y-17674259D02*
X1997157Y-17674259D01*
X1997157Y-17674259D02*
X2025729Y-17683783D01*
X2025729Y-17683783D02*
X2044776Y-17702830D01*
X2044776Y-17702830D02*
X2054300Y-17721878D01*
X2054300Y-17721878D02*
X2063824Y-17759973D01*
X2063824Y-17759973D02*
X2063824Y-17788545D01*
X2063824Y-17788545D02*
X2054300Y-17826640D01*
X2054300Y-17826640D02*
X2044776Y-17845688D01*
X2044776Y-17845688D02*
X2025729Y-17864735D01*
X2025729Y-17864735D02*
X1997157Y-17874259D01*
X1997157Y-17874259D02*
X1949538Y-17874259D01*
X2149538Y-17874259D02*
X2149538Y-17740926D01*
X2149538Y-17779021D02*
X2159062Y-17759973D01*
X2159062Y-17759973D02*
X2168586Y-17750449D01*
X2168586Y-17750449D02*
X2187633Y-17740926D01*
X2187633Y-17740926D02*
X2206681Y-17740926D01*
X2273348Y-17874259D02*
X2273348Y-17740926D01*
X2273348Y-17674259D02*
X2263824Y-17683783D01*
X2263824Y-17683783D02*
X2273348Y-17693307D01*
X2273348Y-17693307D02*
X2282872Y-17683783D01*
X2282872Y-17683783D02*
X2273348Y-17674259D01*
X2273348Y-17674259D02*
X2273348Y-17693307D01*
X2397157Y-17874259D02*
X2378110Y-17864735D01*
X2378110Y-17864735D02*
X2368586Y-17845688D01*
X2368586Y-17845688D02*
X2368586Y-17674259D01*
X2501919Y-17874259D02*
X2482872Y-17864735D01*
X2482872Y-17864735D02*
X2473348Y-17845688D01*
X2473348Y-17845688D02*
X2473348Y-17674259D01*
X2730491Y-17874259D02*
X2730491Y-17674259D01*
X2730491Y-17674259D02*
X2797157Y-17817116D01*
X2797157Y-17817116D02*
X2863824Y-17674259D01*
X2863824Y-17674259D02*
X2863824Y-17874259D01*
X3044776Y-17874259D02*
X3044776Y-17769497D01*
X3044776Y-17769497D02*
X3035252Y-17750449D01*
X3035252Y-17750449D02*
X3016205Y-17740926D01*
X3016205Y-17740926D02*
X2978110Y-17740926D01*
X2978110Y-17740926D02*
X2959062Y-17750449D01*
X3044776Y-17864735D02*
X3025729Y-17874259D01*
X3025729Y-17874259D02*
X2978110Y-17874259D01*
X2978110Y-17874259D02*
X2959062Y-17864735D01*
X2959062Y-17864735D02*
X2949538Y-17845688D01*
X2949538Y-17845688D02*
X2949538Y-17826640D01*
X2949538Y-17826640D02*
X2959062Y-17807592D01*
X2959062Y-17807592D02*
X2978110Y-17798069D01*
X2978110Y-17798069D02*
X3025729Y-17798069D01*
X3025729Y-17798069D02*
X3044776Y-17788545D01*
X3140014Y-17740926D02*
X3140014Y-17940926D01*
X3140014Y-17750449D02*
X3159062Y-17740926D01*
X3159062Y-17740926D02*
X3197157Y-17740926D01*
X3197157Y-17740926D02*
X3216205Y-17750449D01*
X3216205Y-17750449D02*
X3225729Y-17759973D01*
X3225729Y-17759973D02*
X3235252Y-17779021D01*
X3235252Y-17779021D02*
X3235252Y-17836164D01*
X3235252Y-17836164D02*
X3225729Y-17855211D01*
X3225729Y-17855211D02*
X3216205Y-17864735D01*
X3216205Y-17864735D02*
X3197157Y-17874259D01*
X3197157Y-17874259D02*
X3159062Y-17874259D01*
X3159062Y-17874259D02*
X3140014Y-17864735D01*
X3320967Y-17855211D02*
X3330491Y-17864735D01*
X3330491Y-17864735D02*
X3320967Y-17874259D01*
X3320967Y-17874259D02*
X3311443Y-17864735D01*
X3311443Y-17864735D02*
X3320967Y-17855211D01*
X3320967Y-17855211D02*
X3320967Y-17874259D01*
X3320967Y-17750449D02*
X3330491Y-17759973D01*
X3330491Y-17759973D02*
X3320967Y-17769497D01*
X3320967Y-17769497D02*
X3311443Y-17759973D01*
X3311443Y-17759973D02*
X3320967Y-17750449D01*
X3320967Y-17750449D02*
X3320967Y-17769497D01*
D11*
X1658761Y-18187775D02*
X1688761Y-18217775D01*
X1688761Y-18187775D02*
X1658761Y-18217775D01*
D10*
X1987633Y-18094259D02*
X2006681Y-18094259D01*
X2006681Y-18094259D02*
X2025729Y-18103783D01*
X2025729Y-18103783D02*
X2035252Y-18113307D01*
X2035252Y-18113307D02*
X2044776Y-18132354D01*
X2044776Y-18132354D02*
X2054300Y-18170449D01*
X2054300Y-18170449D02*
X2054300Y-18218069D01*
X2054300Y-18218069D02*
X2044776Y-18256164D01*
X2044776Y-18256164D02*
X2035252Y-18275211D01*
X2035252Y-18275211D02*
X2025729Y-18284735D01*
X2025729Y-18284735D02*
X2006681Y-18294259D01*
X2006681Y-18294259D02*
X1987633Y-18294259D01*
X1987633Y-18294259D02*
X1968586Y-18284735D01*
X1968586Y-18284735D02*
X1959062Y-18275211D01*
X1959062Y-18275211D02*
X1949538Y-18256164D01*
X1949538Y-18256164D02*
X1940014Y-18218069D01*
X1940014Y-18218069D02*
X1940014Y-18170449D01*
X1940014Y-18170449D02*
X1949538Y-18132354D01*
X1949538Y-18132354D02*
X1959062Y-18113307D01*
X1959062Y-18113307D02*
X1968586Y-18103783D01*
X1968586Y-18103783D02*
X1987633Y-18094259D01*
X2140014Y-18275211D02*
X2149538Y-18284735D01*
X2149538Y-18284735D02*
X2140014Y-18294259D01*
X2140014Y-18294259D02*
X2130491Y-18284735D01*
X2130491Y-18284735D02*
X2140014Y-18275211D01*
X2140014Y-18275211D02*
X2140014Y-18294259D01*
X2216205Y-18094259D02*
X2340014Y-18094259D01*
X2340014Y-18094259D02*
X2273348Y-18170449D01*
X2273348Y-18170449D02*
X2301919Y-18170449D01*
X2301919Y-18170449D02*
X2320967Y-18179973D01*
X2320967Y-18179973D02*
X2330491Y-18189497D01*
X2330491Y-18189497D02*
X2340014Y-18208545D01*
X2340014Y-18208545D02*
X2340014Y-18256164D01*
X2340014Y-18256164D02*
X2330491Y-18275211D01*
X2330491Y-18275211D02*
X2320967Y-18284735D01*
X2320967Y-18284735D02*
X2301919Y-18294259D01*
X2301919Y-18294259D02*
X2244776Y-18294259D01*
X2244776Y-18294259D02*
X2225729Y-18284735D01*
X2225729Y-18284735D02*
X2216205Y-18275211D01*
X2463824Y-18094259D02*
X2482872Y-18094259D01*
X2482872Y-18094259D02*
X2501919Y-18103783D01*
X2501919Y-18103783D02*
X2511443Y-18113307D01*
X2511443Y-18113307D02*
X2520967Y-18132354D01*
X2520967Y-18132354D02*
X2530491Y-18170449D01*
X2530491Y-18170449D02*
X2530491Y-18218069D01*
X2530491Y-18218069D02*
X2520967Y-18256164D01*
X2520967Y-18256164D02*
X2511443Y-18275211D01*
X2511443Y-18275211D02*
X2501919Y-18284735D01*
X2501919Y-18284735D02*
X2482872Y-18294259D01*
X2482872Y-18294259D02*
X2463824Y-18294259D01*
X2463824Y-18294259D02*
X2444776Y-18284735D01*
X2444776Y-18284735D02*
X2435253Y-18275211D01*
X2435253Y-18275211D02*
X2425729Y-18256164D01*
X2425729Y-18256164D02*
X2416205Y-18218069D01*
X2416205Y-18218069D02*
X2416205Y-18170449D01*
X2416205Y-18170449D02*
X2425729Y-18132354D01*
X2425729Y-18132354D02*
X2435253Y-18113307D01*
X2435253Y-18113307D02*
X2444776Y-18103783D01*
X2444776Y-18103783D02*
X2463824Y-18094259D01*
X2654300Y-18094259D02*
X2673348Y-18094259D01*
X2673348Y-18094259D02*
X2692395Y-18103783D01*
X2692395Y-18103783D02*
X2701919Y-18113307D01*
X2701919Y-18113307D02*
X2711443Y-18132354D01*
X2711443Y-18132354D02*
X2720967Y-18170449D01*
X2720967Y-18170449D02*
X2720967Y-18218069D01*
X2720967Y-18218069D02*
X2711443Y-18256164D01*
X2711443Y-18256164D02*
X2701919Y-18275211D01*
X2701919Y-18275211D02*
X2692395Y-18284735D01*
X2692395Y-18284735D02*
X2673348Y-18294259D01*
X2673348Y-18294259D02*
X2654300Y-18294259D01*
X2654300Y-18294259D02*
X2635253Y-18284735D01*
X2635253Y-18284735D02*
X2625729Y-18275211D01*
X2625729Y-18275211D02*
X2616205Y-18256164D01*
X2616205Y-18256164D02*
X2606681Y-18218069D01*
X2606681Y-18218069D02*
X2606681Y-18170449D01*
X2606681Y-18170449D02*
X2616205Y-18132354D01*
X2616205Y-18132354D02*
X2625729Y-18113307D01*
X2625729Y-18113307D02*
X2635253Y-18103783D01*
X2635253Y-18103783D02*
X2654300Y-18094259D01*
X2806681Y-18294259D02*
X2806681Y-18160926D01*
X2806681Y-18179973D02*
X2816205Y-18170449D01*
X2816205Y-18170449D02*
X2835252Y-18160926D01*
X2835252Y-18160926D02*
X2863824Y-18160926D01*
X2863824Y-18160926D02*
X2882872Y-18170449D01*
X2882872Y-18170449D02*
X2892395Y-18189497D01*
X2892395Y-18189497D02*
X2892395Y-18294259D01*
X2892395Y-18189497D02*
X2901919Y-18170449D01*
X2901919Y-18170449D02*
X2920967Y-18160926D01*
X2920967Y-18160926D02*
X2949538Y-18160926D01*
X2949538Y-18160926D02*
X2968586Y-18170449D01*
X2968586Y-18170449D02*
X2978110Y-18189497D01*
X2978110Y-18189497D02*
X2978110Y-18294259D01*
X3073348Y-18294259D02*
X3073348Y-18160926D01*
X3073348Y-18179973D02*
X3082872Y-18170449D01*
X3082872Y-18170449D02*
X3101919Y-18160926D01*
X3101919Y-18160926D02*
X3130491Y-18160926D01*
X3130491Y-18160926D02*
X3149538Y-18170449D01*
X3149538Y-18170449D02*
X3159062Y-18189497D01*
X3159062Y-18189497D02*
X3159062Y-18294259D01*
X3159062Y-18189497D02*
X3168586Y-18170449D01*
X3168586Y-18170449D02*
X3187633Y-18160926D01*
X3187633Y-18160926D02*
X3216205Y-18160926D01*
X3216205Y-18160926D02*
X3235253Y-18170449D01*
X3235253Y-18170449D02*
X3244776Y-18189497D01*
X3244776Y-18189497D02*
X3244776Y-18294259D01*
X3635253Y-18084735D02*
X3463824Y-18341878D01*
X3892395Y-18094259D02*
X3911443Y-18094259D01*
X3911443Y-18094259D02*
X3930491Y-18103783D01*
X3930491Y-18103783D02*
X3940015Y-18113307D01*
X3940015Y-18113307D02*
X3949538Y-18132354D01*
X3949538Y-18132354D02*
X3959062Y-18170449D01*
X3959062Y-18170449D02*
X3959062Y-18218069D01*
X3959062Y-18218069D02*
X3949538Y-18256164D01*
X3949538Y-18256164D02*
X3940015Y-18275211D01*
X3940015Y-18275211D02*
X3930491Y-18284735D01*
X3930491Y-18284735D02*
X3911443Y-18294259D01*
X3911443Y-18294259D02*
X3892395Y-18294259D01*
X3892395Y-18294259D02*
X3873348Y-18284735D01*
X3873348Y-18284735D02*
X3863824Y-18275211D01*
X3863824Y-18275211D02*
X3854300Y-18256164D01*
X3854300Y-18256164D02*
X3844776Y-18218069D01*
X3844776Y-18218069D02*
X3844776Y-18170449D01*
X3844776Y-18170449D02*
X3854300Y-18132354D01*
X3854300Y-18132354D02*
X3863824Y-18113307D01*
X3863824Y-18113307D02*
X3873348Y-18103783D01*
X3873348Y-18103783D02*
X3892395Y-18094259D01*
X4044776Y-18275211D02*
X4054300Y-18284735D01*
X4054300Y-18284735D02*
X4044776Y-18294259D01*
X4044776Y-18294259D02*
X4035253Y-18284735D01*
X4035253Y-18284735D02*
X4044776Y-18275211D01*
X4044776Y-18275211D02*
X4044776Y-18294259D01*
X4178110Y-18094259D02*
X4197158Y-18094259D01*
X4197158Y-18094259D02*
X4216205Y-18103783D01*
X4216205Y-18103783D02*
X4225729Y-18113307D01*
X4225729Y-18113307D02*
X4235253Y-18132354D01*
X4235253Y-18132354D02*
X4244777Y-18170449D01*
X4244777Y-18170449D02*
X4244777Y-18218069D01*
X4244777Y-18218069D02*
X4235253Y-18256164D01*
X4235253Y-18256164D02*
X4225729Y-18275211D01*
X4225729Y-18275211D02*
X4216205Y-18284735D01*
X4216205Y-18284735D02*
X4197158Y-18294259D01*
X4197158Y-18294259D02*
X4178110Y-18294259D01*
X4178110Y-18294259D02*
X4159062Y-18284735D01*
X4159062Y-18284735D02*
X4149538Y-18275211D01*
X4149538Y-18275211D02*
X4140015Y-18256164D01*
X4140015Y-18256164D02*
X4130491Y-18218069D01*
X4130491Y-18218069D02*
X4130491Y-18170449D01*
X4130491Y-18170449D02*
X4140015Y-18132354D01*
X4140015Y-18132354D02*
X4149538Y-18113307D01*
X4149538Y-18113307D02*
X4159062Y-18103783D01*
X4159062Y-18103783D02*
X4178110Y-18094259D01*
X4435253Y-18294259D02*
X4320967Y-18294259D01*
X4378110Y-18294259D02*
X4378110Y-18094259D01*
X4378110Y-18094259D02*
X4359062Y-18122830D01*
X4359062Y-18122830D02*
X4340015Y-18141878D01*
X4340015Y-18141878D02*
X4320967Y-18151402D01*
X4625729Y-18294259D02*
X4511443Y-18294259D01*
X4568586Y-18294259D02*
X4568586Y-18094259D01*
X4568586Y-18094259D02*
X4549538Y-18122830D01*
X4549538Y-18122830D02*
X4530491Y-18141878D01*
X4530491Y-18141878D02*
X4511443Y-18151402D01*
X4740015Y-18179973D02*
X4720967Y-18170449D01*
X4720967Y-18170449D02*
X4711443Y-18160926D01*
X4711443Y-18160926D02*
X4701919Y-18141878D01*
X4701919Y-18141878D02*
X4701919Y-18132354D01*
X4701919Y-18132354D02*
X4711443Y-18113307D01*
X4711443Y-18113307D02*
X4720967Y-18103783D01*
X4720967Y-18103783D02*
X4740015Y-18094259D01*
X4740015Y-18094259D02*
X4778110Y-18094259D01*
X4778110Y-18094259D02*
X4797158Y-18103783D01*
X4797158Y-18103783D02*
X4806681Y-18113307D01*
X4806681Y-18113307D02*
X4816205Y-18132354D01*
X4816205Y-18132354D02*
X4816205Y-18141878D01*
X4816205Y-18141878D02*
X4806681Y-18160926D01*
X4806681Y-18160926D02*
X4797158Y-18170449D01*
X4797158Y-18170449D02*
X4778110Y-18179973D01*
X4778110Y-18179973D02*
X4740015Y-18179973D01*
X4740015Y-18179973D02*
X4720967Y-18189497D01*
X4720967Y-18189497D02*
X4711443Y-18199021D01*
X4711443Y-18199021D02*
X4701919Y-18218069D01*
X4701919Y-18218069D02*
X4701919Y-18256164D01*
X4701919Y-18256164D02*
X4711443Y-18275211D01*
X4711443Y-18275211D02*
X4720967Y-18284735D01*
X4720967Y-18284735D02*
X4740015Y-18294259D01*
X4740015Y-18294259D02*
X4778110Y-18294259D01*
X4778110Y-18294259D02*
X4797158Y-18284735D01*
X4797158Y-18284735D02*
X4806681Y-18275211D01*
X4806681Y-18275211D02*
X4816205Y-18256164D01*
X4816205Y-18256164D02*
X4816205Y-18218069D01*
X4816205Y-18218069D02*
X4806681Y-18199021D01*
X4806681Y-18199021D02*
X4797158Y-18189497D01*
X4797158Y-18189497D02*
X4778110Y-18179973D01*
X4892396Y-18094259D02*
X4892396Y-18132354D01*
X4968586Y-18094259D02*
X4968586Y-18132354D01*
X5263824Y-18370449D02*
X5254300Y-18360926D01*
X5254300Y-18360926D02*
X5235253Y-18332354D01*
X5235253Y-18332354D02*
X5225729Y-18313307D01*
X5225729Y-18313307D02*
X5216205Y-18284735D01*
X5216205Y-18284735D02*
X5206681Y-18237116D01*
X5206681Y-18237116D02*
X5206681Y-18199021D01*
X5206681Y-18199021D02*
X5216205Y-18151402D01*
X5216205Y-18151402D02*
X5225729Y-18122830D01*
X5225729Y-18122830D02*
X5235253Y-18103783D01*
X5235253Y-18103783D02*
X5254300Y-18075211D01*
X5254300Y-18075211D02*
X5263824Y-18065688D01*
X5330491Y-18113307D02*
X5340015Y-18103783D01*
X5340015Y-18103783D02*
X5359062Y-18094259D01*
X5359062Y-18094259D02*
X5406681Y-18094259D01*
X5406681Y-18094259D02*
X5425729Y-18103783D01*
X5425729Y-18103783D02*
X5435253Y-18113307D01*
X5435253Y-18113307D02*
X5444777Y-18132354D01*
X5444777Y-18132354D02*
X5444777Y-18151402D01*
X5444777Y-18151402D02*
X5435253Y-18179973D01*
X5435253Y-18179973D02*
X5320967Y-18294259D01*
X5320967Y-18294259D02*
X5444777Y-18294259D01*
X5625729Y-18094259D02*
X5530491Y-18094259D01*
X5530491Y-18094259D02*
X5520967Y-18189497D01*
X5520967Y-18189497D02*
X5530491Y-18179973D01*
X5530491Y-18179973D02*
X5549539Y-18170449D01*
X5549539Y-18170449D02*
X5597158Y-18170449D01*
X5597158Y-18170449D02*
X5616205Y-18179973D01*
X5616205Y-18179973D02*
X5625729Y-18189497D01*
X5625729Y-18189497D02*
X5635253Y-18208545D01*
X5635253Y-18208545D02*
X5635253Y-18256164D01*
X5635253Y-18256164D02*
X5625729Y-18275211D01*
X5625729Y-18275211D02*
X5616205Y-18284735D01*
X5616205Y-18284735D02*
X5597158Y-18294259D01*
X5597158Y-18294259D02*
X5549539Y-18294259D01*
X5549539Y-18294259D02*
X5530491Y-18284735D01*
X5530491Y-18284735D02*
X5520967Y-18275211D01*
X5873348Y-18294259D02*
X5873348Y-18094259D01*
X5959062Y-18294259D02*
X5959062Y-18189497D01*
X5959062Y-18189497D02*
X5949539Y-18170449D01*
X5949539Y-18170449D02*
X5930491Y-18160926D01*
X5930491Y-18160926D02*
X5901919Y-18160926D01*
X5901919Y-18160926D02*
X5882872Y-18170449D01*
X5882872Y-18170449D02*
X5873348Y-18179973D01*
X6082872Y-18294259D02*
X6063824Y-18284735D01*
X6063824Y-18284735D02*
X6054300Y-18275211D01*
X6054300Y-18275211D02*
X6044777Y-18256164D01*
X6044777Y-18256164D02*
X6044777Y-18199021D01*
X6044777Y-18199021D02*
X6054300Y-18179973D01*
X6054300Y-18179973D02*
X6063824Y-18170449D01*
X6063824Y-18170449D02*
X6082872Y-18160926D01*
X6082872Y-18160926D02*
X6111443Y-18160926D01*
X6111443Y-18160926D02*
X6130491Y-18170449D01*
X6130491Y-18170449D02*
X6140015Y-18179973D01*
X6140015Y-18179973D02*
X6149539Y-18199021D01*
X6149539Y-18199021D02*
X6149539Y-18256164D01*
X6149539Y-18256164D02*
X6140015Y-18275211D01*
X6140015Y-18275211D02*
X6130491Y-18284735D01*
X6130491Y-18284735D02*
X6111443Y-18294259D01*
X6111443Y-18294259D02*
X6082872Y-18294259D01*
X6263824Y-18294259D02*
X6244777Y-18284735D01*
X6244777Y-18284735D02*
X6235253Y-18265688D01*
X6235253Y-18265688D02*
X6235253Y-18094259D01*
X6416205Y-18284735D02*
X6397158Y-18294259D01*
X6397158Y-18294259D02*
X6359062Y-18294259D01*
X6359062Y-18294259D02*
X6340015Y-18284735D01*
X6340015Y-18284735D02*
X6330491Y-18265688D01*
X6330491Y-18265688D02*
X6330491Y-18189497D01*
X6330491Y-18189497D02*
X6340015Y-18170449D01*
X6340015Y-18170449D02*
X6359062Y-18160926D01*
X6359062Y-18160926D02*
X6397158Y-18160926D01*
X6397158Y-18160926D02*
X6416205Y-18170449D01*
X6416205Y-18170449D02*
X6425729Y-18189497D01*
X6425729Y-18189497D02*
X6425729Y-18208545D01*
X6425729Y-18208545D02*
X6330491Y-18227592D01*
X6501920Y-18284735D02*
X6520967Y-18294259D01*
X6520967Y-18294259D02*
X6559062Y-18294259D01*
X6559062Y-18294259D02*
X6578110Y-18284735D01*
X6578110Y-18284735D02*
X6587634Y-18265688D01*
X6587634Y-18265688D02*
X6587634Y-18256164D01*
X6587634Y-18256164D02*
X6578110Y-18237116D01*
X6578110Y-18237116D02*
X6559062Y-18227592D01*
X6559062Y-18227592D02*
X6530491Y-18227592D01*
X6530491Y-18227592D02*
X6511443Y-18218069D01*
X6511443Y-18218069D02*
X6501920Y-18199021D01*
X6501920Y-18199021D02*
X6501920Y-18189497D01*
X6501920Y-18189497D02*
X6511443Y-18170449D01*
X6511443Y-18170449D02*
X6530491Y-18160926D01*
X6530491Y-18160926D02*
X6559062Y-18160926D01*
X6559062Y-18160926D02*
X6578110Y-18170449D01*
X6654301Y-18370449D02*
X6663824Y-18360926D01*
X6663824Y-18360926D02*
X6682872Y-18332354D01*
X6682872Y-18332354D02*
X6692396Y-18313307D01*
X6692396Y-18313307D02*
X6701920Y-18284735D01*
X6701920Y-18284735D02*
X6711443Y-18237116D01*
X6711443Y-18237116D02*
X6711443Y-18199021D01*
X6711443Y-18199021D02*
X6701920Y-18151402D01*
X6701920Y-18151402D02*
X6692396Y-18122830D01*
X6692396Y-18122830D02*
X6682872Y-18103783D01*
X6682872Y-18103783D02*
X6663824Y-18075211D01*
X6663824Y-18075211D02*
X6654301Y-18065688D01*
D11*
X1688761Y-18466775D02*
G75*
G02*
X1618761Y-18466775I-35000J0D01*
G01*
X1618761Y-18466775D02*
G75*
G02*
X1688761Y-18466775I35000J0D01*
G01*
D10*
X1987633Y-18358259D02*
X2006681Y-18358259D01*
X2006681Y-18358259D02*
X2025729Y-18367783D01*
X2025729Y-18367783D02*
X2035252Y-18377307D01*
X2035252Y-18377307D02*
X2044776Y-18396354D01*
X2044776Y-18396354D02*
X2054300Y-18434449D01*
X2054300Y-18434449D02*
X2054300Y-18482069D01*
X2054300Y-18482069D02*
X2044776Y-18520164D01*
X2044776Y-18520164D02*
X2035252Y-18539211D01*
X2035252Y-18539211D02*
X2025729Y-18548735D01*
X2025729Y-18548735D02*
X2006681Y-18558259D01*
X2006681Y-18558259D02*
X1987633Y-18558259D01*
X1987633Y-18558259D02*
X1968586Y-18548735D01*
X1968586Y-18548735D02*
X1959062Y-18539211D01*
X1959062Y-18539211D02*
X1949538Y-18520164D01*
X1949538Y-18520164D02*
X1940014Y-18482069D01*
X1940014Y-18482069D02*
X1940014Y-18434449D01*
X1940014Y-18434449D02*
X1949538Y-18396354D01*
X1949538Y-18396354D02*
X1959062Y-18377307D01*
X1959062Y-18377307D02*
X1968586Y-18367783D01*
X1968586Y-18367783D02*
X1987633Y-18358259D01*
X2140014Y-18539211D02*
X2149538Y-18548735D01*
X2149538Y-18548735D02*
X2140014Y-18558259D01*
X2140014Y-18558259D02*
X2130491Y-18548735D01*
X2130491Y-18548735D02*
X2140014Y-18539211D01*
X2140014Y-18539211D02*
X2140014Y-18558259D01*
X2216205Y-18358259D02*
X2349538Y-18358259D01*
X2349538Y-18358259D02*
X2263824Y-18558259D01*
X2463824Y-18358259D02*
X2482872Y-18358259D01*
X2482872Y-18358259D02*
X2501919Y-18367783D01*
X2501919Y-18367783D02*
X2511443Y-18377307D01*
X2511443Y-18377307D02*
X2520967Y-18396354D01*
X2520967Y-18396354D02*
X2530491Y-18434449D01*
X2530491Y-18434449D02*
X2530491Y-18482069D01*
X2530491Y-18482069D02*
X2520967Y-18520164D01*
X2520967Y-18520164D02*
X2511443Y-18539211D01*
X2511443Y-18539211D02*
X2501919Y-18548735D01*
X2501919Y-18548735D02*
X2482872Y-18558259D01*
X2482872Y-18558259D02*
X2463824Y-18558259D01*
X2463824Y-18558259D02*
X2444776Y-18548735D01*
X2444776Y-18548735D02*
X2435253Y-18539211D01*
X2435253Y-18539211D02*
X2425729Y-18520164D01*
X2425729Y-18520164D02*
X2416205Y-18482069D01*
X2416205Y-18482069D02*
X2416205Y-18434449D01*
X2416205Y-18434449D02*
X2425729Y-18396354D01*
X2425729Y-18396354D02*
X2435253Y-18377307D01*
X2435253Y-18377307D02*
X2444776Y-18367783D01*
X2444776Y-18367783D02*
X2463824Y-18358259D01*
X2654300Y-18358259D02*
X2673348Y-18358259D01*
X2673348Y-18358259D02*
X2692395Y-18367783D01*
X2692395Y-18367783D02*
X2701919Y-18377307D01*
X2701919Y-18377307D02*
X2711443Y-18396354D01*
X2711443Y-18396354D02*
X2720967Y-18434449D01*
X2720967Y-18434449D02*
X2720967Y-18482069D01*
X2720967Y-18482069D02*
X2711443Y-18520164D01*
X2711443Y-18520164D02*
X2701919Y-18539211D01*
X2701919Y-18539211D02*
X2692395Y-18548735D01*
X2692395Y-18548735D02*
X2673348Y-18558259D01*
X2673348Y-18558259D02*
X2654300Y-18558259D01*
X2654300Y-18558259D02*
X2635253Y-18548735D01*
X2635253Y-18548735D02*
X2625729Y-18539211D01*
X2625729Y-18539211D02*
X2616205Y-18520164D01*
X2616205Y-18520164D02*
X2606681Y-18482069D01*
X2606681Y-18482069D02*
X2606681Y-18434449D01*
X2606681Y-18434449D02*
X2616205Y-18396354D01*
X2616205Y-18396354D02*
X2625729Y-18377307D01*
X2625729Y-18377307D02*
X2635253Y-18367783D01*
X2635253Y-18367783D02*
X2654300Y-18358259D01*
X2806681Y-18558259D02*
X2806681Y-18424926D01*
X2806681Y-18443973D02*
X2816205Y-18434449D01*
X2816205Y-18434449D02*
X2835252Y-18424926D01*
X2835252Y-18424926D02*
X2863824Y-18424926D01*
X2863824Y-18424926D02*
X2882872Y-18434449D01*
X2882872Y-18434449D02*
X2892395Y-18453497D01*
X2892395Y-18453497D02*
X2892395Y-18558259D01*
X2892395Y-18453497D02*
X2901919Y-18434449D01*
X2901919Y-18434449D02*
X2920967Y-18424926D01*
X2920967Y-18424926D02*
X2949538Y-18424926D01*
X2949538Y-18424926D02*
X2968586Y-18434449D01*
X2968586Y-18434449D02*
X2978110Y-18453497D01*
X2978110Y-18453497D02*
X2978110Y-18558259D01*
X3073348Y-18558259D02*
X3073348Y-18424926D01*
X3073348Y-18443973D02*
X3082872Y-18434449D01*
X3082872Y-18434449D02*
X3101919Y-18424926D01*
X3101919Y-18424926D02*
X3130491Y-18424926D01*
X3130491Y-18424926D02*
X3149538Y-18434449D01*
X3149538Y-18434449D02*
X3159062Y-18453497D01*
X3159062Y-18453497D02*
X3159062Y-18558259D01*
X3159062Y-18453497D02*
X3168586Y-18434449D01*
X3168586Y-18434449D02*
X3187633Y-18424926D01*
X3187633Y-18424926D02*
X3216205Y-18424926D01*
X3216205Y-18424926D02*
X3235253Y-18434449D01*
X3235253Y-18434449D02*
X3244776Y-18453497D01*
X3244776Y-18453497D02*
X3244776Y-18558259D01*
X3635253Y-18348735D02*
X3463824Y-18605878D01*
X3892395Y-18358259D02*
X3911443Y-18358259D01*
X3911443Y-18358259D02*
X3930491Y-18367783D01*
X3930491Y-18367783D02*
X3940015Y-18377307D01*
X3940015Y-18377307D02*
X3949538Y-18396354D01*
X3949538Y-18396354D02*
X3959062Y-18434449D01*
X3959062Y-18434449D02*
X3959062Y-18482069D01*
X3959062Y-18482069D02*
X3949538Y-18520164D01*
X3949538Y-18520164D02*
X3940015Y-18539211D01*
X3940015Y-18539211D02*
X3930491Y-18548735D01*
X3930491Y-18548735D02*
X3911443Y-18558259D01*
X3911443Y-18558259D02*
X3892395Y-18558259D01*
X3892395Y-18558259D02*
X3873348Y-18548735D01*
X3873348Y-18548735D02*
X3863824Y-18539211D01*
X3863824Y-18539211D02*
X3854300Y-18520164D01*
X3854300Y-18520164D02*
X3844776Y-18482069D01*
X3844776Y-18482069D02*
X3844776Y-18434449D01*
X3844776Y-18434449D02*
X3854300Y-18396354D01*
X3854300Y-18396354D02*
X3863824Y-18377307D01*
X3863824Y-18377307D02*
X3873348Y-18367783D01*
X3873348Y-18367783D02*
X3892395Y-18358259D01*
X4044776Y-18539211D02*
X4054300Y-18548735D01*
X4054300Y-18548735D02*
X4044776Y-18558259D01*
X4044776Y-18558259D02*
X4035253Y-18548735D01*
X4035253Y-18548735D02*
X4044776Y-18539211D01*
X4044776Y-18539211D02*
X4044776Y-18558259D01*
X4178110Y-18358259D02*
X4197158Y-18358259D01*
X4197158Y-18358259D02*
X4216205Y-18367783D01*
X4216205Y-18367783D02*
X4225729Y-18377307D01*
X4225729Y-18377307D02*
X4235253Y-18396354D01*
X4235253Y-18396354D02*
X4244777Y-18434449D01*
X4244777Y-18434449D02*
X4244777Y-18482069D01*
X4244777Y-18482069D02*
X4235253Y-18520164D01*
X4235253Y-18520164D02*
X4225729Y-18539211D01*
X4225729Y-18539211D02*
X4216205Y-18548735D01*
X4216205Y-18548735D02*
X4197158Y-18558259D01*
X4197158Y-18558259D02*
X4178110Y-18558259D01*
X4178110Y-18558259D02*
X4159062Y-18548735D01*
X4159062Y-18548735D02*
X4149538Y-18539211D01*
X4149538Y-18539211D02*
X4140015Y-18520164D01*
X4140015Y-18520164D02*
X4130491Y-18482069D01*
X4130491Y-18482069D02*
X4130491Y-18434449D01*
X4130491Y-18434449D02*
X4140015Y-18396354D01*
X4140015Y-18396354D02*
X4149538Y-18377307D01*
X4149538Y-18377307D02*
X4159062Y-18367783D01*
X4159062Y-18367783D02*
X4178110Y-18358259D01*
X4320967Y-18377307D02*
X4330491Y-18367783D01*
X4330491Y-18367783D02*
X4349538Y-18358259D01*
X4349538Y-18358259D02*
X4397158Y-18358259D01*
X4397158Y-18358259D02*
X4416205Y-18367783D01*
X4416205Y-18367783D02*
X4425729Y-18377307D01*
X4425729Y-18377307D02*
X4435253Y-18396354D01*
X4435253Y-18396354D02*
X4435253Y-18415402D01*
X4435253Y-18415402D02*
X4425729Y-18443973D01*
X4425729Y-18443973D02*
X4311443Y-18558259D01*
X4311443Y-18558259D02*
X4435253Y-18558259D01*
X4501919Y-18358259D02*
X4635253Y-18358259D01*
X4635253Y-18358259D02*
X4549538Y-18558259D01*
X4797158Y-18358259D02*
X4759062Y-18358259D01*
X4759062Y-18358259D02*
X4740015Y-18367783D01*
X4740015Y-18367783D02*
X4730491Y-18377307D01*
X4730491Y-18377307D02*
X4711443Y-18405878D01*
X4711443Y-18405878D02*
X4701919Y-18443973D01*
X4701919Y-18443973D02*
X4701919Y-18520164D01*
X4701919Y-18520164D02*
X4711443Y-18539211D01*
X4711443Y-18539211D02*
X4720967Y-18548735D01*
X4720967Y-18548735D02*
X4740015Y-18558259D01*
X4740015Y-18558259D02*
X4778110Y-18558259D01*
X4778110Y-18558259D02*
X4797158Y-18548735D01*
X4797158Y-18548735D02*
X4806681Y-18539211D01*
X4806681Y-18539211D02*
X4816205Y-18520164D01*
X4816205Y-18520164D02*
X4816205Y-18472545D01*
X4816205Y-18472545D02*
X4806681Y-18453497D01*
X4806681Y-18453497D02*
X4797158Y-18443973D01*
X4797158Y-18443973D02*
X4778110Y-18434449D01*
X4778110Y-18434449D02*
X4740015Y-18434449D01*
X4740015Y-18434449D02*
X4720967Y-18443973D01*
X4720967Y-18443973D02*
X4711443Y-18453497D01*
X4711443Y-18453497D02*
X4701919Y-18472545D01*
X4892396Y-18358259D02*
X4892396Y-18396354D01*
X4968586Y-18358259D02*
X4968586Y-18396354D01*
X5263824Y-18634449D02*
X5254300Y-18624926D01*
X5254300Y-18624926D02*
X5235253Y-18596354D01*
X5235253Y-18596354D02*
X5225729Y-18577307D01*
X5225729Y-18577307D02*
X5216205Y-18548735D01*
X5216205Y-18548735D02*
X5206681Y-18501116D01*
X5206681Y-18501116D02*
X5206681Y-18463021D01*
X5206681Y-18463021D02*
X5216205Y-18415402D01*
X5216205Y-18415402D02*
X5225729Y-18386830D01*
X5225729Y-18386830D02*
X5235253Y-18367783D01*
X5235253Y-18367783D02*
X5254300Y-18339211D01*
X5254300Y-18339211D02*
X5263824Y-18329688D01*
X5320967Y-18358259D02*
X5444777Y-18358259D01*
X5444777Y-18358259D02*
X5378110Y-18434449D01*
X5378110Y-18434449D02*
X5406681Y-18434449D01*
X5406681Y-18434449D02*
X5425729Y-18443973D01*
X5425729Y-18443973D02*
X5435253Y-18453497D01*
X5435253Y-18453497D02*
X5444777Y-18472545D01*
X5444777Y-18472545D02*
X5444777Y-18520164D01*
X5444777Y-18520164D02*
X5435253Y-18539211D01*
X5435253Y-18539211D02*
X5425729Y-18548735D01*
X5425729Y-18548735D02*
X5406681Y-18558259D01*
X5406681Y-18558259D02*
X5349539Y-18558259D01*
X5349539Y-18558259D02*
X5330491Y-18548735D01*
X5330491Y-18548735D02*
X5320967Y-18539211D01*
X5520967Y-18377307D02*
X5530491Y-18367783D01*
X5530491Y-18367783D02*
X5549539Y-18358259D01*
X5549539Y-18358259D02*
X5597158Y-18358259D01*
X5597158Y-18358259D02*
X5616205Y-18367783D01*
X5616205Y-18367783D02*
X5625729Y-18377307D01*
X5625729Y-18377307D02*
X5635253Y-18396354D01*
X5635253Y-18396354D02*
X5635253Y-18415402D01*
X5635253Y-18415402D02*
X5625729Y-18443973D01*
X5625729Y-18443973D02*
X5511443Y-18558259D01*
X5511443Y-18558259D02*
X5635253Y-18558259D01*
X5873348Y-18558259D02*
X5873348Y-18358259D01*
X5959062Y-18558259D02*
X5959062Y-18453497D01*
X5959062Y-18453497D02*
X5949539Y-18434449D01*
X5949539Y-18434449D02*
X5930491Y-18424926D01*
X5930491Y-18424926D02*
X5901919Y-18424926D01*
X5901919Y-18424926D02*
X5882872Y-18434449D01*
X5882872Y-18434449D02*
X5873348Y-18443973D01*
X6082872Y-18558259D02*
X6063824Y-18548735D01*
X6063824Y-18548735D02*
X6054300Y-18539211D01*
X6054300Y-18539211D02*
X6044777Y-18520164D01*
X6044777Y-18520164D02*
X6044777Y-18463021D01*
X6044777Y-18463021D02*
X6054300Y-18443973D01*
X6054300Y-18443973D02*
X6063824Y-18434449D01*
X6063824Y-18434449D02*
X6082872Y-18424926D01*
X6082872Y-18424926D02*
X6111443Y-18424926D01*
X6111443Y-18424926D02*
X6130491Y-18434449D01*
X6130491Y-18434449D02*
X6140015Y-18443973D01*
X6140015Y-18443973D02*
X6149539Y-18463021D01*
X6149539Y-18463021D02*
X6149539Y-18520164D01*
X6149539Y-18520164D02*
X6140015Y-18539211D01*
X6140015Y-18539211D02*
X6130491Y-18548735D01*
X6130491Y-18548735D02*
X6111443Y-18558259D01*
X6111443Y-18558259D02*
X6082872Y-18558259D01*
X6263824Y-18558259D02*
X6244777Y-18548735D01*
X6244777Y-18548735D02*
X6235253Y-18529688D01*
X6235253Y-18529688D02*
X6235253Y-18358259D01*
X6416205Y-18548735D02*
X6397158Y-18558259D01*
X6397158Y-18558259D02*
X6359062Y-18558259D01*
X6359062Y-18558259D02*
X6340015Y-18548735D01*
X6340015Y-18548735D02*
X6330491Y-18529688D01*
X6330491Y-18529688D02*
X6330491Y-18453497D01*
X6330491Y-18453497D02*
X6340015Y-18434449D01*
X6340015Y-18434449D02*
X6359062Y-18424926D01*
X6359062Y-18424926D02*
X6397158Y-18424926D01*
X6397158Y-18424926D02*
X6416205Y-18434449D01*
X6416205Y-18434449D02*
X6425729Y-18453497D01*
X6425729Y-18453497D02*
X6425729Y-18472545D01*
X6425729Y-18472545D02*
X6330491Y-18491592D01*
X6501920Y-18548735D02*
X6520967Y-18558259D01*
X6520967Y-18558259D02*
X6559062Y-18558259D01*
X6559062Y-18558259D02*
X6578110Y-18548735D01*
X6578110Y-18548735D02*
X6587634Y-18529688D01*
X6587634Y-18529688D02*
X6587634Y-18520164D01*
X6587634Y-18520164D02*
X6578110Y-18501116D01*
X6578110Y-18501116D02*
X6559062Y-18491592D01*
X6559062Y-18491592D02*
X6530491Y-18491592D01*
X6530491Y-18491592D02*
X6511443Y-18482069D01*
X6511443Y-18482069D02*
X6501920Y-18463021D01*
X6501920Y-18463021D02*
X6501920Y-18453497D01*
X6501920Y-18453497D02*
X6511443Y-18434449D01*
X6511443Y-18434449D02*
X6530491Y-18424926D01*
X6530491Y-18424926D02*
X6559062Y-18424926D01*
X6559062Y-18424926D02*
X6578110Y-18434449D01*
X6654301Y-18634449D02*
X6663824Y-18624926D01*
X6663824Y-18624926D02*
X6682872Y-18596354D01*
X6682872Y-18596354D02*
X6692396Y-18577307D01*
X6692396Y-18577307D02*
X6701920Y-18548735D01*
X6701920Y-18548735D02*
X6711443Y-18501116D01*
X6711443Y-18501116D02*
X6711443Y-18463021D01*
X6711443Y-18463021D02*
X6701920Y-18415402D01*
X6701920Y-18415402D02*
X6692396Y-18386830D01*
X6692396Y-18386830D02*
X6682872Y-18367783D01*
X6682872Y-18367783D02*
X6663824Y-18339211D01*
X6663824Y-18339211D02*
X6654301Y-18329688D01*
D11*
X1644261Y-18686275D02*
X1644261Y-18775275D01*
X1599761Y-18730775D02*
X1688761Y-18730775D01*
D10*
X1987633Y-18622259D02*
X2006681Y-18622259D01*
X2006681Y-18622259D02*
X2025729Y-18631783D01*
X2025729Y-18631783D02*
X2035252Y-18641307D01*
X2035252Y-18641307D02*
X2044776Y-18660354D01*
X2044776Y-18660354D02*
X2054300Y-18698449D01*
X2054300Y-18698449D02*
X2054300Y-18746069D01*
X2054300Y-18746069D02*
X2044776Y-18784164D01*
X2044776Y-18784164D02*
X2035252Y-18803211D01*
X2035252Y-18803211D02*
X2025729Y-18812735D01*
X2025729Y-18812735D02*
X2006681Y-18822259D01*
X2006681Y-18822259D02*
X1987633Y-18822259D01*
X1987633Y-18822259D02*
X1968586Y-18812735D01*
X1968586Y-18812735D02*
X1959062Y-18803211D01*
X1959062Y-18803211D02*
X1949538Y-18784164D01*
X1949538Y-18784164D02*
X1940014Y-18746069D01*
X1940014Y-18746069D02*
X1940014Y-18698449D01*
X1940014Y-18698449D02*
X1949538Y-18660354D01*
X1949538Y-18660354D02*
X1959062Y-18641307D01*
X1959062Y-18641307D02*
X1968586Y-18631783D01*
X1968586Y-18631783D02*
X1987633Y-18622259D01*
X2140014Y-18803211D02*
X2149538Y-18812735D01*
X2149538Y-18812735D02*
X2140014Y-18822259D01*
X2140014Y-18822259D02*
X2130491Y-18812735D01*
X2130491Y-18812735D02*
X2140014Y-18803211D01*
X2140014Y-18803211D02*
X2140014Y-18822259D01*
X2263824Y-18707973D02*
X2244776Y-18698449D01*
X2244776Y-18698449D02*
X2235253Y-18688926D01*
X2235253Y-18688926D02*
X2225729Y-18669878D01*
X2225729Y-18669878D02*
X2225729Y-18660354D01*
X2225729Y-18660354D02*
X2235253Y-18641307D01*
X2235253Y-18641307D02*
X2244776Y-18631783D01*
X2244776Y-18631783D02*
X2263824Y-18622259D01*
X2263824Y-18622259D02*
X2301919Y-18622259D01*
X2301919Y-18622259D02*
X2320967Y-18631783D01*
X2320967Y-18631783D02*
X2330491Y-18641307D01*
X2330491Y-18641307D02*
X2340014Y-18660354D01*
X2340014Y-18660354D02*
X2340014Y-18669878D01*
X2340014Y-18669878D02*
X2330491Y-18688926D01*
X2330491Y-18688926D02*
X2320967Y-18698449D01*
X2320967Y-18698449D02*
X2301919Y-18707973D01*
X2301919Y-18707973D02*
X2263824Y-18707973D01*
X2263824Y-18707973D02*
X2244776Y-18717497D01*
X2244776Y-18717497D02*
X2235253Y-18727021D01*
X2235253Y-18727021D02*
X2225729Y-18746069D01*
X2225729Y-18746069D02*
X2225729Y-18784164D01*
X2225729Y-18784164D02*
X2235253Y-18803211D01*
X2235253Y-18803211D02*
X2244776Y-18812735D01*
X2244776Y-18812735D02*
X2263824Y-18822259D01*
X2263824Y-18822259D02*
X2301919Y-18822259D01*
X2301919Y-18822259D02*
X2320967Y-18812735D01*
X2320967Y-18812735D02*
X2330491Y-18803211D01*
X2330491Y-18803211D02*
X2340014Y-18784164D01*
X2340014Y-18784164D02*
X2340014Y-18746069D01*
X2340014Y-18746069D02*
X2330491Y-18727021D01*
X2330491Y-18727021D02*
X2320967Y-18717497D01*
X2320967Y-18717497D02*
X2301919Y-18707973D01*
X2435253Y-18822259D02*
X2473348Y-18822259D01*
X2473348Y-18822259D02*
X2492395Y-18812735D01*
X2492395Y-18812735D02*
X2501919Y-18803211D01*
X2501919Y-18803211D02*
X2520967Y-18774640D01*
X2520967Y-18774640D02*
X2530491Y-18736545D01*
X2530491Y-18736545D02*
X2530491Y-18660354D01*
X2530491Y-18660354D02*
X2520967Y-18641307D01*
X2520967Y-18641307D02*
X2511443Y-18631783D01*
X2511443Y-18631783D02*
X2492395Y-18622259D01*
X2492395Y-18622259D02*
X2454300Y-18622259D01*
X2454300Y-18622259D02*
X2435253Y-18631783D01*
X2435253Y-18631783D02*
X2425729Y-18641307D01*
X2425729Y-18641307D02*
X2416205Y-18660354D01*
X2416205Y-18660354D02*
X2416205Y-18707973D01*
X2416205Y-18707973D02*
X2425729Y-18727021D01*
X2425729Y-18727021D02*
X2435253Y-18736545D01*
X2435253Y-18736545D02*
X2454300Y-18746069D01*
X2454300Y-18746069D02*
X2492395Y-18746069D01*
X2492395Y-18746069D02*
X2511443Y-18736545D01*
X2511443Y-18736545D02*
X2520967Y-18727021D01*
X2520967Y-18727021D02*
X2530491Y-18707973D01*
X2654300Y-18622259D02*
X2673348Y-18622259D01*
X2673348Y-18622259D02*
X2692395Y-18631783D01*
X2692395Y-18631783D02*
X2701919Y-18641307D01*
X2701919Y-18641307D02*
X2711443Y-18660354D01*
X2711443Y-18660354D02*
X2720967Y-18698449D01*
X2720967Y-18698449D02*
X2720967Y-18746069D01*
X2720967Y-18746069D02*
X2711443Y-18784164D01*
X2711443Y-18784164D02*
X2701919Y-18803211D01*
X2701919Y-18803211D02*
X2692395Y-18812735D01*
X2692395Y-18812735D02*
X2673348Y-18822259D01*
X2673348Y-18822259D02*
X2654300Y-18822259D01*
X2654300Y-18822259D02*
X2635253Y-18812735D01*
X2635253Y-18812735D02*
X2625729Y-18803211D01*
X2625729Y-18803211D02*
X2616205Y-18784164D01*
X2616205Y-18784164D02*
X2606681Y-18746069D01*
X2606681Y-18746069D02*
X2606681Y-18698449D01*
X2606681Y-18698449D02*
X2616205Y-18660354D01*
X2616205Y-18660354D02*
X2625729Y-18641307D01*
X2625729Y-18641307D02*
X2635253Y-18631783D01*
X2635253Y-18631783D02*
X2654300Y-18622259D01*
X2806681Y-18822259D02*
X2806681Y-18688926D01*
X2806681Y-18707973D02*
X2816205Y-18698449D01*
X2816205Y-18698449D02*
X2835252Y-18688926D01*
X2835252Y-18688926D02*
X2863824Y-18688926D01*
X2863824Y-18688926D02*
X2882872Y-18698449D01*
X2882872Y-18698449D02*
X2892395Y-18717497D01*
X2892395Y-18717497D02*
X2892395Y-18822259D01*
X2892395Y-18717497D02*
X2901919Y-18698449D01*
X2901919Y-18698449D02*
X2920967Y-18688926D01*
X2920967Y-18688926D02*
X2949538Y-18688926D01*
X2949538Y-18688926D02*
X2968586Y-18698449D01*
X2968586Y-18698449D02*
X2978110Y-18717497D01*
X2978110Y-18717497D02*
X2978110Y-18822259D01*
X3073348Y-18822259D02*
X3073348Y-18688926D01*
X3073348Y-18707973D02*
X3082872Y-18698449D01*
X3082872Y-18698449D02*
X3101919Y-18688926D01*
X3101919Y-18688926D02*
X3130491Y-18688926D01*
X3130491Y-18688926D02*
X3149538Y-18698449D01*
X3149538Y-18698449D02*
X3159062Y-18717497D01*
X3159062Y-18717497D02*
X3159062Y-18822259D01*
X3159062Y-18717497D02*
X3168586Y-18698449D01*
X3168586Y-18698449D02*
X3187633Y-18688926D01*
X3187633Y-18688926D02*
X3216205Y-18688926D01*
X3216205Y-18688926D02*
X3235253Y-18698449D01*
X3235253Y-18698449D02*
X3244776Y-18717497D01*
X3244776Y-18717497D02*
X3244776Y-18822259D01*
X3635253Y-18612735D02*
X3463824Y-18869878D01*
X3892395Y-18622259D02*
X3911443Y-18622259D01*
X3911443Y-18622259D02*
X3930491Y-18631783D01*
X3930491Y-18631783D02*
X3940015Y-18641307D01*
X3940015Y-18641307D02*
X3949538Y-18660354D01*
X3949538Y-18660354D02*
X3959062Y-18698449D01*
X3959062Y-18698449D02*
X3959062Y-18746069D01*
X3959062Y-18746069D02*
X3949538Y-18784164D01*
X3949538Y-18784164D02*
X3940015Y-18803211D01*
X3940015Y-18803211D02*
X3930491Y-18812735D01*
X3930491Y-18812735D02*
X3911443Y-18822259D01*
X3911443Y-18822259D02*
X3892395Y-18822259D01*
X3892395Y-18822259D02*
X3873348Y-18812735D01*
X3873348Y-18812735D02*
X3863824Y-18803211D01*
X3863824Y-18803211D02*
X3854300Y-18784164D01*
X3854300Y-18784164D02*
X3844776Y-18746069D01*
X3844776Y-18746069D02*
X3844776Y-18698449D01*
X3844776Y-18698449D02*
X3854300Y-18660354D01*
X3854300Y-18660354D02*
X3863824Y-18641307D01*
X3863824Y-18641307D02*
X3873348Y-18631783D01*
X3873348Y-18631783D02*
X3892395Y-18622259D01*
X4044776Y-18803211D02*
X4054300Y-18812735D01*
X4054300Y-18812735D02*
X4044776Y-18822259D01*
X4044776Y-18822259D02*
X4035253Y-18812735D01*
X4035253Y-18812735D02*
X4044776Y-18803211D01*
X4044776Y-18803211D02*
X4044776Y-18822259D01*
X4178110Y-18622259D02*
X4197158Y-18622259D01*
X4197158Y-18622259D02*
X4216205Y-18631783D01*
X4216205Y-18631783D02*
X4225729Y-18641307D01*
X4225729Y-18641307D02*
X4235253Y-18660354D01*
X4235253Y-18660354D02*
X4244777Y-18698449D01*
X4244777Y-18698449D02*
X4244777Y-18746069D01*
X4244777Y-18746069D02*
X4235253Y-18784164D01*
X4235253Y-18784164D02*
X4225729Y-18803211D01*
X4225729Y-18803211D02*
X4216205Y-18812735D01*
X4216205Y-18812735D02*
X4197158Y-18822259D01*
X4197158Y-18822259D02*
X4178110Y-18822259D01*
X4178110Y-18822259D02*
X4159062Y-18812735D01*
X4159062Y-18812735D02*
X4149538Y-18803211D01*
X4149538Y-18803211D02*
X4140015Y-18784164D01*
X4140015Y-18784164D02*
X4130491Y-18746069D01*
X4130491Y-18746069D02*
X4130491Y-18698449D01*
X4130491Y-18698449D02*
X4140015Y-18660354D01*
X4140015Y-18660354D02*
X4149538Y-18641307D01*
X4149538Y-18641307D02*
X4159062Y-18631783D01*
X4159062Y-18631783D02*
X4178110Y-18622259D01*
X4311443Y-18622259D02*
X4435253Y-18622259D01*
X4435253Y-18622259D02*
X4368586Y-18698449D01*
X4368586Y-18698449D02*
X4397158Y-18698449D01*
X4397158Y-18698449D02*
X4416205Y-18707973D01*
X4416205Y-18707973D02*
X4425729Y-18717497D01*
X4425729Y-18717497D02*
X4435253Y-18736545D01*
X4435253Y-18736545D02*
X4435253Y-18784164D01*
X4435253Y-18784164D02*
X4425729Y-18803211D01*
X4425729Y-18803211D02*
X4416205Y-18812735D01*
X4416205Y-18812735D02*
X4397158Y-18822259D01*
X4397158Y-18822259D02*
X4340015Y-18822259D01*
X4340015Y-18822259D02*
X4320967Y-18812735D01*
X4320967Y-18812735D02*
X4311443Y-18803211D01*
X4616205Y-18622259D02*
X4520967Y-18622259D01*
X4520967Y-18622259D02*
X4511443Y-18717497D01*
X4511443Y-18717497D02*
X4520967Y-18707973D01*
X4520967Y-18707973D02*
X4540015Y-18698449D01*
X4540015Y-18698449D02*
X4587634Y-18698449D01*
X4587634Y-18698449D02*
X4606681Y-18707973D01*
X4606681Y-18707973D02*
X4616205Y-18717497D01*
X4616205Y-18717497D02*
X4625729Y-18736545D01*
X4625729Y-18736545D02*
X4625729Y-18784164D01*
X4625729Y-18784164D02*
X4616205Y-18803211D01*
X4616205Y-18803211D02*
X4606681Y-18812735D01*
X4606681Y-18812735D02*
X4587634Y-18822259D01*
X4587634Y-18822259D02*
X4540015Y-18822259D01*
X4540015Y-18822259D02*
X4520967Y-18812735D01*
X4520967Y-18812735D02*
X4511443Y-18803211D01*
X4749538Y-18622259D02*
X4768586Y-18622259D01*
X4768586Y-18622259D02*
X4787634Y-18631783D01*
X4787634Y-18631783D02*
X4797158Y-18641307D01*
X4797158Y-18641307D02*
X4806681Y-18660354D01*
X4806681Y-18660354D02*
X4816205Y-18698449D01*
X4816205Y-18698449D02*
X4816205Y-18746069D01*
X4816205Y-18746069D02*
X4806681Y-18784164D01*
X4806681Y-18784164D02*
X4797158Y-18803211D01*
X4797158Y-18803211D02*
X4787634Y-18812735D01*
X4787634Y-18812735D02*
X4768586Y-18822259D01*
X4768586Y-18822259D02*
X4749538Y-18822259D01*
X4749538Y-18822259D02*
X4730491Y-18812735D01*
X4730491Y-18812735D02*
X4720967Y-18803211D01*
X4720967Y-18803211D02*
X4711443Y-18784164D01*
X4711443Y-18784164D02*
X4701919Y-18746069D01*
X4701919Y-18746069D02*
X4701919Y-18698449D01*
X4701919Y-18698449D02*
X4711443Y-18660354D01*
X4711443Y-18660354D02*
X4720967Y-18641307D01*
X4720967Y-18641307D02*
X4730491Y-18631783D01*
X4730491Y-18631783D02*
X4749538Y-18622259D01*
X4892396Y-18622259D02*
X4892396Y-18660354D01*
X4968586Y-18622259D02*
X4968586Y-18660354D01*
X5263824Y-18898449D02*
X5254300Y-18888926D01*
X5254300Y-18888926D02*
X5235253Y-18860354D01*
X5235253Y-18860354D02*
X5225729Y-18841307D01*
X5225729Y-18841307D02*
X5216205Y-18812735D01*
X5216205Y-18812735D02*
X5206681Y-18765116D01*
X5206681Y-18765116D02*
X5206681Y-18727021D01*
X5206681Y-18727021D02*
X5216205Y-18679402D01*
X5216205Y-18679402D02*
X5225729Y-18650830D01*
X5225729Y-18650830D02*
X5235253Y-18631783D01*
X5235253Y-18631783D02*
X5254300Y-18603211D01*
X5254300Y-18603211D02*
X5263824Y-18593688D01*
X5444777Y-18822259D02*
X5330491Y-18822259D01*
X5387634Y-18822259D02*
X5387634Y-18622259D01*
X5387634Y-18622259D02*
X5368586Y-18650830D01*
X5368586Y-18650830D02*
X5349539Y-18669878D01*
X5349539Y-18669878D02*
X5330491Y-18679402D01*
X5559062Y-18707973D02*
X5540015Y-18698449D01*
X5540015Y-18698449D02*
X5530491Y-18688926D01*
X5530491Y-18688926D02*
X5520967Y-18669878D01*
X5520967Y-18669878D02*
X5520967Y-18660354D01*
X5520967Y-18660354D02*
X5530491Y-18641307D01*
X5530491Y-18641307D02*
X5540015Y-18631783D01*
X5540015Y-18631783D02*
X5559062Y-18622259D01*
X5559062Y-18622259D02*
X5597158Y-18622259D01*
X5597158Y-18622259D02*
X5616205Y-18631783D01*
X5616205Y-18631783D02*
X5625729Y-18641307D01*
X5625729Y-18641307D02*
X5635253Y-18660354D01*
X5635253Y-18660354D02*
X5635253Y-18669878D01*
X5635253Y-18669878D02*
X5625729Y-18688926D01*
X5625729Y-18688926D02*
X5616205Y-18698449D01*
X5616205Y-18698449D02*
X5597158Y-18707973D01*
X5597158Y-18707973D02*
X5559062Y-18707973D01*
X5559062Y-18707973D02*
X5540015Y-18717497D01*
X5540015Y-18717497D02*
X5530491Y-18727021D01*
X5530491Y-18727021D02*
X5520967Y-18746069D01*
X5520967Y-18746069D02*
X5520967Y-18784164D01*
X5520967Y-18784164D02*
X5530491Y-18803211D01*
X5530491Y-18803211D02*
X5540015Y-18812735D01*
X5540015Y-18812735D02*
X5559062Y-18822259D01*
X5559062Y-18822259D02*
X5597158Y-18822259D01*
X5597158Y-18822259D02*
X5616205Y-18812735D01*
X5616205Y-18812735D02*
X5625729Y-18803211D01*
X5625729Y-18803211D02*
X5635253Y-18784164D01*
X5635253Y-18784164D02*
X5635253Y-18746069D01*
X5635253Y-18746069D02*
X5625729Y-18727021D01*
X5625729Y-18727021D02*
X5616205Y-18717497D01*
X5616205Y-18717497D02*
X5597158Y-18707973D01*
X5873348Y-18822259D02*
X5873348Y-18622259D01*
X5959062Y-18822259D02*
X5959062Y-18717497D01*
X5959062Y-18717497D02*
X5949539Y-18698449D01*
X5949539Y-18698449D02*
X5930491Y-18688926D01*
X5930491Y-18688926D02*
X5901919Y-18688926D01*
X5901919Y-18688926D02*
X5882872Y-18698449D01*
X5882872Y-18698449D02*
X5873348Y-18707973D01*
X6082872Y-18822259D02*
X6063824Y-18812735D01*
X6063824Y-18812735D02*
X6054300Y-18803211D01*
X6054300Y-18803211D02*
X6044777Y-18784164D01*
X6044777Y-18784164D02*
X6044777Y-18727021D01*
X6044777Y-18727021D02*
X6054300Y-18707973D01*
X6054300Y-18707973D02*
X6063824Y-18698449D01*
X6063824Y-18698449D02*
X6082872Y-18688926D01*
X6082872Y-18688926D02*
X6111443Y-18688926D01*
X6111443Y-18688926D02*
X6130491Y-18698449D01*
X6130491Y-18698449D02*
X6140015Y-18707973D01*
X6140015Y-18707973D02*
X6149539Y-18727021D01*
X6149539Y-18727021D02*
X6149539Y-18784164D01*
X6149539Y-18784164D02*
X6140015Y-18803211D01*
X6140015Y-18803211D02*
X6130491Y-18812735D01*
X6130491Y-18812735D02*
X6111443Y-18822259D01*
X6111443Y-18822259D02*
X6082872Y-18822259D01*
X6263824Y-18822259D02*
X6244777Y-18812735D01*
X6244777Y-18812735D02*
X6235253Y-18793688D01*
X6235253Y-18793688D02*
X6235253Y-18622259D01*
X6416205Y-18812735D02*
X6397158Y-18822259D01*
X6397158Y-18822259D02*
X6359062Y-18822259D01*
X6359062Y-18822259D02*
X6340015Y-18812735D01*
X6340015Y-18812735D02*
X6330491Y-18793688D01*
X6330491Y-18793688D02*
X6330491Y-18717497D01*
X6330491Y-18717497D02*
X6340015Y-18698449D01*
X6340015Y-18698449D02*
X6359062Y-18688926D01*
X6359062Y-18688926D02*
X6397158Y-18688926D01*
X6397158Y-18688926D02*
X6416205Y-18698449D01*
X6416205Y-18698449D02*
X6425729Y-18717497D01*
X6425729Y-18717497D02*
X6425729Y-18736545D01*
X6425729Y-18736545D02*
X6330491Y-18755592D01*
X6501920Y-18812735D02*
X6520967Y-18822259D01*
X6520967Y-18822259D02*
X6559062Y-18822259D01*
X6559062Y-18822259D02*
X6578110Y-18812735D01*
X6578110Y-18812735D02*
X6587634Y-18793688D01*
X6587634Y-18793688D02*
X6587634Y-18784164D01*
X6587634Y-18784164D02*
X6578110Y-18765116D01*
X6578110Y-18765116D02*
X6559062Y-18755592D01*
X6559062Y-18755592D02*
X6530491Y-18755592D01*
X6530491Y-18755592D02*
X6511443Y-18746069D01*
X6511443Y-18746069D02*
X6501920Y-18727021D01*
X6501920Y-18727021D02*
X6501920Y-18717497D01*
X6501920Y-18717497D02*
X6511443Y-18698449D01*
X6511443Y-18698449D02*
X6530491Y-18688926D01*
X6530491Y-18688926D02*
X6559062Y-18688926D01*
X6559062Y-18688926D02*
X6578110Y-18698449D01*
X6654301Y-18898449D02*
X6663824Y-18888926D01*
X6663824Y-18888926D02*
X6682872Y-18860354D01*
X6682872Y-18860354D02*
X6692396Y-18841307D01*
X6692396Y-18841307D02*
X6701920Y-18812735D01*
X6701920Y-18812735D02*
X6711443Y-18765116D01*
X6711443Y-18765116D02*
X6711443Y-18727021D01*
X6711443Y-18727021D02*
X6701920Y-18679402D01*
X6701920Y-18679402D02*
X6692396Y-18650830D01*
X6692396Y-18650830D02*
X6682872Y-18631783D01*
X6682872Y-18631783D02*
X6663824Y-18603211D01*
X6663824Y-18603211D02*
X6654301Y-18593688D01*
M02*
