%TF.GenerationSoftware,KiCad,Pcbnew,8.0.5*%
%TF.CreationDate,2024-11-19T19:18:07-05:00*%
%TF.ProjectId,line_sensor_pcb,6c696e65-5f73-4656-9e73-6f725f706362,rev?*%
%TF.SameCoordinates,Original*%
%TF.FileFunction,Paste,Top*%
%TF.FilePolarity,Positive*%
%FSLAX46Y46*%
G04 Gerber Fmt 4.6, Leading zero omitted, Abs format (unit mm)*
G04 Created by KiCad (PCBNEW 8.0.5) date 2024-11-19 19:18:07*
%MOMM*%
%LPD*%
G01*
G04 APERTURE LIST*
%ADD10R,0.900000X1.000000*%
%ADD11R,0.800000X0.400000*%
%ADD12R,1.000000X1.250000*%
%ADD13R,1.250000X1.000000*%
%ADD14R,1.000000X0.900000*%
%ADD15R,0.400000X0.800000*%
G04 APERTURE END LIST*
D10*
%TO.C,D10*%
X157480000Y-115340000D03*
X157480000Y-118340000D03*
D11*
X157030000Y-117240000D03*
X157030000Y-116440000D03*
%TD*%
D10*
%TO.C,D1*%
X167640000Y-140740000D03*
X167640000Y-143740000D03*
D11*
X167190000Y-142640000D03*
X167190000Y-141840000D03*
%TD*%
D12*
%TO.C,LED10*%
X152400000Y-116840000D03*
X150200000Y-116840000D03*
%TD*%
%TO.C,LED1*%
X162560000Y-142240000D03*
X160360000Y-142240000D03*
%TD*%
%TO.C,LED13*%
X38100000Y-142240000D03*
X35900000Y-142240000D03*
%TD*%
%TO.C,LED7*%
X33360000Y-48260000D03*
X35560000Y-48260000D03*
%TD*%
D13*
%TO.C,LED6*%
X76200000Y-145120000D03*
X76200000Y-147320000D03*
%TD*%
D14*
%TO.C,D5*%
X125960000Y-152400000D03*
X122960000Y-152400000D03*
D15*
X124060000Y-151950000D03*
X124860000Y-151950000D03*
%TD*%
D13*
%TO.C,LED3*%
X50800000Y-30480000D03*
X50800000Y-32680000D03*
%TD*%
D10*
%TO.C,D9*%
X157480000Y-67080000D03*
X157480000Y-70080000D03*
D11*
X157030000Y-68980000D03*
X157030000Y-68180000D03*
%TD*%
D14*
%TO.C,D3*%
X46760000Y-25400000D03*
X49760000Y-25400000D03*
D15*
X48660000Y-25850000D03*
X47860000Y-25850000D03*
%TD*%
D13*
%TO.C,LED9*%
X50800000Y-154940000D03*
X50800000Y-157140000D03*
%TD*%
D14*
%TO.C,D8*%
X70660000Y-33020000D03*
X73660000Y-33020000D03*
D15*
X72560000Y-33470000D03*
X71760000Y-33470000D03*
%TD*%
D14*
%TO.C,D12*%
X27480000Y-48260000D03*
X30480000Y-48260000D03*
D15*
X29380000Y-48710000D03*
X28580000Y-48710000D03*
%TD*%
D13*
%TO.C,LED2*%
X121920000Y-145120000D03*
X121920000Y-147320000D03*
%TD*%
D10*
%TO.C,D2*%
X37700000Y-117890000D03*
X37700000Y-114890000D03*
D11*
X38150000Y-115990000D03*
X38150000Y-116790000D03*
%TD*%
D13*
%TO.C,LED5*%
X147320000Y-154940000D03*
X147320000Y-157140000D03*
%TD*%
%TO.C,LED8*%
X73660000Y-38100000D03*
X73660000Y-40300000D03*
%TD*%
D14*
%TO.C,D11*%
X52300000Y-162560000D03*
X49300000Y-162560000D03*
D15*
X50400000Y-162110000D03*
X51200000Y-162110000D03*
%TD*%
D13*
%TO.C,LED4*%
X124460000Y-38440000D03*
X124460000Y-40640000D03*
%TD*%
D14*
%TO.C,D6*%
X75160000Y-152400000D03*
X72160000Y-152400000D03*
D15*
X73260000Y-151950000D03*
X74060000Y-151950000D03*
%TD*%
D13*
%TO.C,LED12*%
X147320000Y-30820000D03*
X147320000Y-33020000D03*
%TD*%
D14*
%TO.C,D14*%
X167180000Y-48260000D03*
X170180000Y-48260000D03*
D15*
X169080000Y-48710000D03*
X168280000Y-48710000D03*
%TD*%
D12*
%TO.C,LED16*%
X162560000Y-48260000D03*
X160360000Y-48260000D03*
%TD*%
D14*
%TO.C,D7*%
X148820000Y-162560000D03*
X145820000Y-162560000D03*
D15*
X146920000Y-162110000D03*
X147720000Y-162110000D03*
%TD*%
D12*
%TO.C,LED11*%
X43180000Y-68580000D03*
X45380000Y-68580000D03*
%TD*%
%TO.C,LED14*%
X152400000Y-68580000D03*
X150200000Y-68580000D03*
%TD*%
D10*
%TO.C,D16*%
X39140000Y-70080000D03*
X39140000Y-67080000D03*
D11*
X39590000Y-68180000D03*
X39590000Y-68980000D03*
%TD*%
D14*
%TO.C,D4*%
X125500000Y-33020000D03*
X128500000Y-33020000D03*
D15*
X127400000Y-33470000D03*
X126600000Y-33470000D03*
%TD*%
D12*
%TO.C,LED15*%
X43180000Y-115740000D03*
X45380000Y-115740000D03*
%TD*%
D14*
%TO.C,D13*%
X147320000Y-25400000D03*
X150320000Y-25400000D03*
D15*
X149220000Y-25850000D03*
X148420000Y-25850000D03*
%TD*%
D10*
%TO.C,D15*%
X66925700Y-125890000D03*
X66925700Y-122890000D03*
D11*
X67375700Y-123990000D03*
X67375700Y-124790000D03*
%TD*%
M02*
