M48
; DRILL file {KiCad 8.0.5} date 2024-12-27T19:52:23-0500
; FORMAT={-:-/ absolute / metric / decimal}
; #@! TF.CreationDate,2024-12-27T19:52:23-05:00
; #@! TF.GenerationSoftware,Kicad,Pcbnew,8.0.5
; #@! TF.FileFunction,Plated,1,2,PTH
FMAT,2
METRIC
; #@! TA.AperFunction,Plated,PTH,ViaDrill
T1C0.300
; #@! TA.AperFunction,Plated,PTH,ComponentDrill
T2C0.700
; #@! TA.AperFunction,Plated,PTH,ComponentDrill
T3C0.800
; #@! TA.AperFunction,Plated,PTH,ComponentDrill
T4C0.890
; #@! TA.AperFunction,Plated,PTH,ComponentDrill
T5C1.000
; #@! TA.AperFunction,Plated,PTH,ComponentDrill
T6C1.020
; #@! TA.AperFunction,Plated,PTH,ComponentDrill
T7C1.110
; #@! TA.AperFunction,Plated,PTH,ComponentDrill
T8C1.280
; #@! TA.AperFunction,Plated,PTH,ComponentDrill
T9C1.600
; #@! TA.AperFunction,Plated,PTH,ComponentDrill
T10C4.550
%
G90
G05
T1
X291.934Y-177.989
X293.021Y-216.622
X295.874Y-153.634
X317.298Y-197.259
X332.92Y-169.634
X332.92Y-217.375
X338.256Y-170.357
X338.256Y-191.3
X342.897Y-211.525
X348.16Y-164.202
X351.416Y-168.697
X352.101Y-195.521
X353.43Y-188.897
X356.35Y-164.487
X359.382Y-184.731
X364.387Y-202.254
T2
X266.96Y-179.0
X267.28Y-187.0
X269.5Y-179.0
X269.82Y-187.0
T4
X357.243Y-252.257
X359.04Y-250.46
X360.836Y-248.664
X362.632Y-246.868
X364.428Y-245.072
X366.224Y-243.276
X368.02Y-241.48
X369.816Y-239.684
X371.612Y-237.888
X373.408Y-236.092
X375.204Y-234.296
X377.0Y-232.5
X377.46Y-170.18
X377.46Y-172.72
X377.46Y-175.26
X377.46Y-177.8
X377.46Y-180.34
X377.46Y-182.88
X377.46Y-185.42
X377.46Y-187.96
X377.46Y-190.5
X377.46Y-193.04
X377.46Y-195.58
X377.46Y-198.12
X377.46Y-200.66
X377.46Y-203.2
X377.46Y-205.74
X377.46Y-208.28
X377.46Y-210.82
X377.46Y-213.36
X378.796Y-230.704
X380.592Y-228.908
X382.388Y-227.112
X384.184Y-225.316
X385.98Y-223.52
X387.776Y-221.724
T5
X314.92Y-131.0
X317.46Y-131.0
X320.0Y-131.0
X325.08Y-131.0
X327.62Y-131.0
X330.16Y-131.0
X332.7Y-131.0
T6
X297.34Y-219.34
X297.34Y-232.0
X298.04Y-143.5
X298.04Y-156.16
X299.88Y-219.34
X299.88Y-232.0
X300.58Y-143.5
X300.58Y-156.16
X302.42Y-219.34
X302.42Y-232.0
X303.12Y-143.5
X303.12Y-156.16
X304.96Y-219.34
X304.96Y-232.0
X305.66Y-143.5
X305.66Y-156.16
X307.5Y-219.34
X307.5Y-232.0
X308.2Y-143.5
X308.2Y-156.16
X310.04Y-219.34
X310.04Y-232.0
X310.74Y-143.5
X310.74Y-156.16
X312.58Y-219.34
X312.58Y-232.0
X313.28Y-143.5
X313.28Y-156.16
X317.84Y-218.84
X317.84Y-231.5
X319.5Y-143.34
X319.5Y-156.0
X320.38Y-218.84
X320.38Y-231.5
X322.04Y-143.34
X322.04Y-156.0
X322.92Y-218.84
X322.92Y-231.5
X324.58Y-143.34
X324.58Y-156.0
X325.46Y-218.84
X325.46Y-231.5
X327.12Y-143.34
X327.12Y-156.0
X328.0Y-218.84
X328.0Y-231.5
X329.66Y-143.34
X329.66Y-156.0
X330.54Y-218.84
X330.54Y-231.5
X332.2Y-143.34
X332.2Y-156.0
X333.08Y-218.84
X333.08Y-231.5
X334.74Y-143.34
X334.74Y-156.0
X340.54Y-143.5
X340.54Y-156.16
X343.08Y-143.5
X343.08Y-156.16
X345.62Y-143.5
X345.62Y-156.16
X348.16Y-143.5
X348.16Y-156.16
X350.7Y-143.5
X350.7Y-156.16
X353.24Y-143.5
X353.24Y-156.16
X355.78Y-143.5
X355.78Y-156.16
T7
X350.76Y-170.64
X350.76Y-173.18
X350.76Y-175.72
X350.76Y-178.26
X350.76Y-180.8
X350.76Y-183.34
X350.76Y-185.88
X350.76Y-188.42
X350.76Y-190.96
X350.76Y-193.5
X350.76Y-196.04
X350.76Y-198.58
X350.76Y-201.12
X350.76Y-203.66
X350.76Y-206.2
X350.76Y-208.74
X350.76Y-211.28
X350.76Y-213.82
X350.76Y-216.36
X350.76Y-218.9
X350.76Y-221.44
X350.76Y-223.98
X350.76Y-226.52
X350.76Y-229.06
X353.3Y-216.36
X353.81Y-176.99
X353.81Y-179.53
X353.81Y-182.07
X353.81Y-184.61
X353.81Y-187.15
X355.84Y-216.36
X358.38Y-216.36
X360.92Y-216.36
X363.46Y-173.18
X363.46Y-216.36
X366.0Y-170.64
X366.0Y-173.18
X366.0Y-175.72
X366.0Y-178.26
X366.0Y-180.8
X366.0Y-183.34
X366.0Y-185.88
X366.0Y-188.42
X366.0Y-190.96
X366.0Y-193.5
X366.0Y-196.04
X366.0Y-198.58
X366.0Y-201.12
X366.0Y-203.66
X366.0Y-206.2
X366.0Y-208.74
X366.0Y-211.28
X366.0Y-213.82
X366.0Y-216.36
X366.0Y-218.9
X366.0Y-221.44
X366.0Y-223.98
X366.0Y-226.52
X366.0Y-229.06
T8
X340.36Y-228.6
X342.9Y-228.6
X345.44Y-228.6
T9
X305.92Y-174.5
X308.42Y-201.0
X311.0Y-174.5
X313.5Y-201.0
X318.92Y-174.5
X321.0Y-201.0
X324.0Y-174.5
X326.08Y-201.0
X332.92Y-175.0
X332.92Y-201.0
X338.0Y-175.0
X338.0Y-201.0
T10
X366.5Y-131.4
X366.5Y-138.6
T3
X266.135Y-211.525G85X270.535Y-211.525
G05
X266.135Y-219.525G85X270.535Y-219.525
G05
X266.135Y-227.025G85X270.535Y-227.025
G05
X366.5Y-154.2G85X366.5Y-149.8
G05
X374.5Y-154.2G85X374.5Y-149.8
G05
X382.0Y-154.2G85X382.0Y-149.8
G05
M30
