G04 #@! TF.GenerationSoftware,KiCad,Pcbnew,8.0.5*
G04 #@! TF.CreationDate,2024-12-27T19:52:07-05:00*
G04 #@! TF.ProjectId,RoboCup25PCBv1,526f626f-4375-4703-9235-50434276312e,rev?*
G04 #@! TF.SameCoordinates,Original*
G04 #@! TF.FileFunction,Copper,L2,Bot*
G04 #@! TF.FilePolarity,Positive*
%FSLAX46Y46*%
G04 Gerber Fmt 4.6, Leading zero omitted, Abs format (unit mm)*
G04 Created by KiCad (PCBNEW 8.0.5) date 2024-12-27 19:52:07*
%MOMM*%
%LPD*%
G01*
G04 APERTURE LIST*
G04 Aperture macros list*
%AMRotRect*
0 Rectangle, with rotation*
0 The origin of the aperture is its center*
0 $1 length*
0 $2 width*
0 $3 Rotation angle, in degrees counterclockwise*
0 Add horizontal line*
21,1,$1,$2,0,0,$3*%
G04 Aperture macros list end*
G04 #@! TA.AperFunction,ComponentPad*
%ADD10R,2.400000X2.400000*%
G04 #@! TD*
G04 #@! TA.AperFunction,ComponentPad*
%ADD11C,2.400000*%
G04 #@! TD*
G04 #@! TA.AperFunction,ComponentPad*
%ADD12C,1.524000*%
G04 #@! TD*
G04 #@! TA.AperFunction,ComponentPad*
%ADD13R,5.600000X1.200000*%
G04 #@! TD*
G04 #@! TA.AperFunction,ComponentPad*
%ADD14R,1.920000X1.920000*%
G04 #@! TD*
G04 #@! TA.AperFunction,ComponentPad*
%ADD15C,1.920000*%
G04 #@! TD*
G04 #@! TA.AperFunction,ComponentPad*
%ADD16R,1.200000X5.600000*%
G04 #@! TD*
G04 #@! TA.AperFunction,ComponentPad*
%ADD17C,1.400000*%
G04 #@! TD*
G04 #@! TA.AperFunction,ComponentPad*
%ADD18O,1.400000X1.400000*%
G04 #@! TD*
G04 #@! TA.AperFunction,ComponentPad*
%ADD19R,1.398000X1.398000*%
G04 #@! TD*
G04 #@! TA.AperFunction,ComponentPad*
%ADD20C,1.398000*%
G04 #@! TD*
G04 #@! TA.AperFunction,ComponentPad*
%ADD21R,1.508000X1.508000*%
G04 #@! TD*
G04 #@! TA.AperFunction,ComponentPad*
%ADD22C,1.508000*%
G04 #@! TD*
G04 #@! TA.AperFunction,ComponentPad*
%ADD23C,1.665000*%
G04 #@! TD*
G04 #@! TA.AperFunction,ComponentPad*
%ADD24C,6.000000*%
G04 #@! TD*
G04 #@! TA.AperFunction,ComponentPad*
%ADD25R,6.000000X6.000000*%
G04 #@! TD*
G04 #@! TA.AperFunction,ComponentPad*
%ADD26RotRect,1.398000X1.398000X45.000000*%
G04 #@! TD*
G04 #@! TA.AperFunction,ViaPad*
%ADD27C,0.600000*%
G04 #@! TD*
G04 #@! TA.AperFunction,ViaPad*
%ADD28C,1.500000*%
G04 #@! TD*
G04 #@! TA.AperFunction,Conductor*
%ADD29C,0.200000*%
G04 #@! TD*
G04 #@! TA.AperFunction,Conductor*
%ADD30C,3.000000*%
G04 #@! TD*
G04 #@! TA.AperFunction,Conductor*
%ADD31C,1.523800*%
G04 #@! TD*
G04 APERTURE END LIST*
D10*
X332920000Y-201000000D03*
D11*
X338000000Y-201000000D03*
D12*
X317840000Y-231500000D03*
X320380000Y-231500000D03*
X322920000Y-231500000D03*
X325460000Y-231500000D03*
X328000000Y-231500000D03*
X330540000Y-231500000D03*
X333080000Y-231500000D03*
X333080000Y-218840000D03*
X330540000Y-218840000D03*
X328000000Y-218840000D03*
X325460000Y-218840000D03*
X322920000Y-218840000D03*
X320380000Y-218840000D03*
X317840000Y-218840000D03*
D13*
X268335000Y-219525000D03*
X268335000Y-227025000D03*
X268335000Y-211525000D03*
D14*
X340360000Y-228600000D03*
D15*
X342900000Y-228600000D03*
X345440000Y-228600000D03*
D12*
X334740000Y-143340000D03*
X332200000Y-143340000D03*
X329660000Y-143340000D03*
X327120000Y-143340000D03*
X324580000Y-143340000D03*
X322040000Y-143340000D03*
X319500000Y-143340000D03*
X319500000Y-156000000D03*
X322040000Y-156000000D03*
X324580000Y-156000000D03*
X327120000Y-156000000D03*
X329660000Y-156000000D03*
X332200000Y-156000000D03*
X334740000Y-156000000D03*
D16*
X374500000Y-152000000D03*
X382000000Y-152000000D03*
X366500000Y-152000000D03*
D10*
X311000000Y-174500000D03*
D11*
X305920000Y-174500000D03*
D10*
X308420000Y-201000000D03*
D11*
X313500000Y-201000000D03*
D12*
X297340000Y-232000000D03*
X299880000Y-232000000D03*
X302420000Y-232000000D03*
X304960000Y-232000000D03*
X307500000Y-232000000D03*
X310040000Y-232000000D03*
X312580000Y-232000000D03*
X312580000Y-219340000D03*
X310040000Y-219340000D03*
X307500000Y-219340000D03*
X304960000Y-219340000D03*
X302420000Y-219340000D03*
X299880000Y-219340000D03*
X297340000Y-219340000D03*
D17*
X266960000Y-179000000D03*
D18*
X269500000Y-179000000D03*
D19*
X377460000Y-213360000D03*
D20*
X377460000Y-210820000D03*
X377460000Y-208280000D03*
X377460000Y-205740000D03*
X377460000Y-203200000D03*
X377460000Y-200660000D03*
X377460000Y-198120000D03*
X377460000Y-195580000D03*
X377460000Y-193040000D03*
X377460000Y-190500000D03*
X377460000Y-187960000D03*
X377460000Y-185420000D03*
X377460000Y-182880000D03*
X377460000Y-180340000D03*
X377460000Y-177800000D03*
X377460000Y-175260000D03*
X377460000Y-172720000D03*
X377460000Y-170180000D03*
D21*
X314920000Y-131000000D03*
D22*
X317460000Y-131000000D03*
X320000000Y-131000000D03*
X325080000Y-131000000D03*
X327620000Y-131000000D03*
X330160000Y-131000000D03*
X332700000Y-131000000D03*
D12*
X355780000Y-143500000D03*
X353240000Y-143500000D03*
X350700000Y-143500000D03*
X348160000Y-143500000D03*
X345620000Y-143500000D03*
X343080000Y-143500000D03*
X340540000Y-143500000D03*
X340540000Y-156160000D03*
X343080000Y-156160000D03*
X345620000Y-156160000D03*
X348160000Y-156160000D03*
X350700000Y-156160000D03*
X353240000Y-156160000D03*
X355780000Y-156160000D03*
D23*
X350760000Y-175720000D03*
X350760000Y-178260000D03*
X350760000Y-180800000D03*
X350760000Y-183340000D03*
X350760000Y-185880000D03*
X350760000Y-188420000D03*
X350760000Y-190960000D03*
X350760000Y-193500000D03*
X350760000Y-196040000D03*
X350760000Y-198580000D03*
X350760000Y-201120000D03*
X350760000Y-203660000D03*
X366000000Y-203660000D03*
X366000000Y-201120000D03*
X366000000Y-198580000D03*
X366000000Y-196040000D03*
X366000000Y-193500000D03*
X366000000Y-190960000D03*
X366000000Y-188420000D03*
X366000000Y-185880000D03*
X366000000Y-183340000D03*
X366000000Y-180800000D03*
X366000000Y-178260000D03*
X350760000Y-208740000D03*
X350760000Y-211280000D03*
X350760000Y-213820000D03*
X350760000Y-216360000D03*
X350760000Y-218900000D03*
X350760000Y-221440000D03*
X350760000Y-223980000D03*
X350760000Y-226520000D03*
X350760000Y-229060000D03*
X366000000Y-229060000D03*
X366000000Y-226520000D03*
X366000000Y-223980000D03*
X366000000Y-221440000D03*
X366000000Y-218900000D03*
X366000000Y-216360000D03*
X366000000Y-213820000D03*
X366000000Y-211280000D03*
X366000000Y-208740000D03*
X350760000Y-206200000D03*
X353300000Y-216360000D03*
X355840000Y-216360000D03*
X358380000Y-216360000D03*
X360920000Y-216360000D03*
X363460000Y-216360000D03*
X353810000Y-187150000D03*
X353810000Y-184610000D03*
X353810000Y-182070000D03*
X353810000Y-179530000D03*
X353810000Y-176990000D03*
X366000000Y-175720000D03*
X366000000Y-170640000D03*
X350760000Y-173180000D03*
X363460000Y-173180000D03*
X366000000Y-206200000D03*
X366000000Y-173180000D03*
X350760000Y-170640000D03*
D12*
X313280000Y-143500000D03*
X310740000Y-143500000D03*
X308200000Y-143500000D03*
X305660000Y-143500000D03*
X303120000Y-143500000D03*
X300580000Y-143500000D03*
X298040000Y-143500000D03*
X298040000Y-156160000D03*
X300580000Y-156160000D03*
X303120000Y-156160000D03*
X305660000Y-156160000D03*
X308200000Y-156160000D03*
X310740000Y-156160000D03*
X313280000Y-156160000D03*
D24*
X366500000Y-138600000D03*
D25*
X366500000Y-131400000D03*
D10*
X321000000Y-201000000D03*
D11*
X326080000Y-201000000D03*
D17*
X267280000Y-187000000D03*
D18*
X269820000Y-187000000D03*
D26*
X357243465Y-252256535D03*
D20*
X359039516Y-250460484D03*
X360835567Y-248664433D03*
X362631618Y-246868382D03*
X364427669Y-245072331D03*
X366223721Y-243276279D03*
X368019772Y-241480228D03*
X369815823Y-239684177D03*
X371611874Y-237888126D03*
X373407926Y-236092074D03*
X375203977Y-234296023D03*
X377000028Y-232499972D03*
X378796079Y-230703921D03*
X380592131Y-228907869D03*
X382388182Y-227111818D03*
X384184233Y-225315767D03*
X385980284Y-223519716D03*
X387776335Y-221723665D03*
D10*
X338000000Y-175000000D03*
D11*
X332920000Y-175000000D03*
D10*
X324000000Y-174500000D03*
D11*
X318920000Y-174500000D03*
D27*
X364387000Y-202254200D03*
X352100800Y-195521100D03*
X351416000Y-168696900D03*
X338256000Y-191300200D03*
X359382200Y-184730700D03*
X291934300Y-177989400D03*
X353430000Y-188896500D03*
X293021200Y-216621700D03*
D28*
X317298300Y-197258600D03*
D27*
X332920000Y-217374600D03*
X356350100Y-164487400D03*
X338256000Y-170357200D03*
X332920000Y-169633600D03*
X348160000Y-164202000D03*
X295874300Y-153634300D03*
X342896600Y-211525000D03*
D29*
X350760000Y-193500000D02*
X334625100Y-209634900D01*
X323092500Y-230333700D02*
X304086300Y-230333700D01*
X334625100Y-209634900D02*
X334625100Y-218801100D01*
X304086300Y-230333700D02*
X302420000Y-232000000D01*
X334625100Y-218801100D02*
X323092500Y-230333700D01*
X367587100Y-215407100D02*
X366000000Y-213820000D01*
X366223700Y-243276300D02*
X366223700Y-241390000D01*
X367587100Y-240026600D02*
X367587100Y-215407100D01*
X366223700Y-241390000D02*
X367587100Y-240026600D01*
X368339300Y-190759300D02*
X366000000Y-188420000D01*
X368339300Y-198697100D02*
X368339300Y-190759300D01*
X368741000Y-201133600D02*
X368741000Y-199098800D01*
X369142700Y-201535300D02*
X368741000Y-201133600D01*
X370596800Y-210584200D02*
X370596800Y-210016200D01*
X372334200Y-220650000D02*
X372334200Y-212321600D01*
X369142700Y-208562100D02*
X369142700Y-201535300D01*
X380592100Y-228907900D02*
X372334200Y-220650000D01*
X370596800Y-210016200D02*
X369142700Y-208562100D01*
X368741000Y-199098800D02*
X368339300Y-198697100D01*
X372334200Y-212321600D02*
X370596800Y-210584200D01*
X364387000Y-213875100D02*
X364387000Y-202254200D01*
X367185400Y-222794600D02*
X367185400Y-215941300D01*
X366000000Y-223980000D02*
X367185400Y-222794600D01*
X365737700Y-215225800D02*
X364387000Y-213875100D01*
X366469900Y-215225800D02*
X365737700Y-215225800D01*
X367185400Y-215941300D02*
X366469900Y-215225800D01*
X327120000Y-145112100D02*
X338650800Y-156642900D01*
X338650800Y-156642900D02*
X338650800Y-160019800D01*
X327120000Y-143340000D02*
X327120000Y-145112100D01*
X348573600Y-186233600D02*
X350760000Y-188420000D01*
X348573600Y-169942600D02*
X348573600Y-186233600D01*
X338650800Y-160019800D02*
X348573600Y-169942600D01*
X368339300Y-208894700D02*
X368339300Y-201867900D01*
X367535900Y-195035900D02*
X366000000Y-193500000D01*
X371530800Y-212654200D02*
X369793400Y-210916800D01*
X369793400Y-210348800D02*
X368339300Y-208894700D01*
X369793400Y-210916800D02*
X369793400Y-210348800D01*
X377000000Y-232500000D02*
X371530800Y-227030800D01*
X371530800Y-227030800D02*
X371530800Y-212654200D01*
X367535900Y-199029700D02*
X367535900Y-195035900D01*
X367937600Y-201466200D02*
X367937600Y-199431400D01*
X368339300Y-201867900D02*
X367937600Y-201466200D01*
X367937600Y-199431400D02*
X367535900Y-199029700D01*
X367937600Y-209061000D02*
X367937600Y-202034200D01*
X367134200Y-197174200D02*
X366000000Y-196040000D01*
X367134200Y-199196100D02*
X367134200Y-197174200D01*
X371129100Y-212820500D02*
X369391700Y-211083100D01*
X369391700Y-211083100D02*
X369391700Y-210515100D01*
X367535900Y-201632500D02*
X367535900Y-199597800D01*
X375204000Y-234296000D02*
X371129100Y-230221100D01*
X367535900Y-199597800D02*
X367134200Y-199196100D01*
X371129100Y-230221100D02*
X371129100Y-212820500D01*
X367937600Y-202034200D02*
X367535900Y-201632500D01*
X369391700Y-210515100D02*
X367937600Y-209061000D01*
X364427700Y-217932300D02*
X366000000Y-216360000D01*
X364427700Y-245072300D02*
X364427700Y-217932300D01*
X349625800Y-186418900D02*
X350221100Y-187014200D01*
X339477800Y-156702000D02*
X339477800Y-159428600D01*
X349625800Y-169576600D02*
X349625800Y-186418900D01*
X329660000Y-143340000D02*
X329660000Y-146884200D01*
X352100800Y-188090500D02*
X352100800Y-195521100D01*
X351024500Y-187014200D02*
X352100800Y-188090500D01*
X329660000Y-146884200D02*
X339477800Y-156702000D01*
X350221100Y-187014200D02*
X351024500Y-187014200D01*
X339477800Y-159428600D02*
X349625800Y-169576600D01*
X368019800Y-241480200D02*
X368019800Y-213299800D01*
X368019800Y-213299800D02*
X366000000Y-211280000D01*
X350700000Y-143500000D02*
X349632000Y-144568000D01*
X349632000Y-144568000D02*
X349632000Y-158286100D01*
X349632000Y-158286100D02*
X354958500Y-163612600D01*
X354958500Y-163612600D02*
X354958500Y-194381500D01*
X354958500Y-194381500D02*
X350760000Y-198580000D01*
X373407900Y-236092100D02*
X370727400Y-233411600D01*
X367134200Y-199965600D02*
X366000000Y-198831400D01*
X370727400Y-212986800D02*
X368990000Y-211249400D01*
X367535900Y-209227400D02*
X367535900Y-202200600D01*
X368990000Y-210681500D02*
X367535900Y-209227400D01*
X367134200Y-201798900D02*
X367134200Y-199965600D01*
X370727400Y-233411600D02*
X370727400Y-212986800D01*
X366000000Y-198831400D02*
X366000000Y-198580000D01*
X368990000Y-211249400D02*
X368990000Y-210681500D01*
X367535900Y-202200600D02*
X367134200Y-201798900D01*
X362190000Y-179336300D02*
X362190000Y-216955000D01*
X327620000Y-137760000D02*
X327620000Y-131000000D01*
X378519300Y-176740700D02*
X377460000Y-177800000D01*
X346890000Y-164170900D02*
X351416000Y-168696900D01*
X364595100Y-172044900D02*
X364595100Y-176931200D01*
X362190000Y-216955000D02*
X360835600Y-218309400D01*
X364595100Y-176931200D02*
X362190000Y-179336300D01*
X377460000Y-172720000D02*
X378519300Y-173779300D01*
X343080000Y-143500000D02*
X346890000Y-147310000D01*
X360835600Y-218309400D02*
X360835600Y-248664400D01*
X322040000Y-143340000D02*
X327620000Y-137760000D01*
X346890000Y-147310000D02*
X346890000Y-164170900D01*
X378519300Y-173779300D02*
X378519300Y-176740700D01*
X366000000Y-170640000D02*
X364595100Y-172044900D01*
X306851900Y-225987700D02*
X301346300Y-231493300D01*
X326730000Y-202826200D02*
X326730000Y-219466900D01*
X301346300Y-231493300D02*
X301346300Y-232460200D01*
X338256000Y-191300200D02*
X326730000Y-202826200D01*
X320209200Y-225987700D02*
X306851900Y-225987700D01*
X301952500Y-233066400D02*
X303893600Y-233066400D01*
X301346300Y-232460200D02*
X301952500Y-233066400D01*
X326730000Y-219466900D02*
X320209200Y-225987700D01*
X303893600Y-233066400D02*
X304960000Y-232000000D01*
X377270600Y-204470000D02*
X369946100Y-197145500D01*
X377638700Y-204470000D02*
X377270600Y-204470000D01*
X379609700Y-213557100D02*
X379609700Y-206441000D01*
X369946100Y-182206100D02*
X366000000Y-178260000D01*
X379609700Y-206441000D02*
X377638700Y-204470000D01*
X369946100Y-197145500D02*
X369946100Y-182206100D01*
X387776300Y-221723700D02*
X379609700Y-213557100D01*
X369142700Y-200967300D02*
X369142700Y-198932500D01*
X368741000Y-188621000D02*
X366000000Y-185880000D01*
X370998500Y-209849900D02*
X369544400Y-208395800D01*
X382388200Y-227111800D02*
X382388200Y-221807600D01*
X369142700Y-198932500D02*
X368741000Y-198530800D01*
X370998500Y-210417900D02*
X370998500Y-209849900D01*
X369544400Y-201369000D02*
X369142700Y-200967300D01*
X368741000Y-198530800D02*
X368741000Y-188621000D01*
X369544400Y-208395800D02*
X369544400Y-201369000D01*
X382388200Y-221807600D02*
X370998500Y-210417900D01*
X359039500Y-250460500D02*
X359039500Y-224409400D01*
X352030000Y-215090000D02*
X350760000Y-213820000D01*
X352030000Y-217399900D02*
X352030000Y-215090000D01*
X359039500Y-224409400D02*
X352030000Y-217399900D01*
X350760000Y-196040000D02*
X340559900Y-206240100D01*
X340559900Y-213860100D02*
X322920000Y-231500000D01*
X340559900Y-206240100D02*
X340559900Y-213860100D01*
X349224500Y-144564500D02*
X349224500Y-158600300D01*
X352017700Y-161393500D02*
X352017700Y-184622300D01*
X348160000Y-143500000D02*
X349224500Y-144564500D01*
X349224500Y-158600300D02*
X352017700Y-161393500D01*
X352017700Y-184622300D02*
X350760000Y-185880000D01*
X366000000Y-201793300D02*
X366000000Y-201120000D01*
X368446900Y-211442800D02*
X368446900Y-210789000D01*
X370015800Y-213011700D02*
X368446900Y-211442800D01*
X367134200Y-209476300D02*
X367134200Y-202927500D01*
X368446900Y-210789000D02*
X367134200Y-209476300D01*
X371611900Y-237888100D02*
X370015800Y-236292000D01*
X370015800Y-236292000D02*
X370015800Y-213011700D01*
X367134200Y-202927500D02*
X366000000Y-201793300D01*
X353300000Y-216360000D02*
X359382200Y-210277800D01*
X359382200Y-210277800D02*
X359382200Y-184730700D01*
X377460000Y-170180000D02*
X376410700Y-171229300D01*
X324580000Y-143340000D02*
X323344300Y-144575700D01*
X376410700Y-171229300D02*
X376410700Y-174210700D01*
X376410700Y-174210700D02*
X377460000Y-175260000D01*
X293661700Y-189989600D02*
X292133800Y-188461700D01*
X350760000Y-170640000D02*
X350760000Y-170072100D01*
X302279100Y-143500000D02*
X292133800Y-153645300D01*
X303120000Y-143500000D02*
X302279100Y-143500000D01*
X293661700Y-225781700D02*
X293661700Y-189989600D01*
X341811500Y-152951500D02*
X332200000Y-143340000D01*
X292133800Y-177989400D02*
X291934300Y-177989400D01*
X299880000Y-232000000D02*
X293661700Y-225781700D01*
X332200000Y-143340000D02*
X332200000Y-133040000D01*
X323344300Y-144575700D02*
X311815700Y-144575700D01*
X341811500Y-161123600D02*
X341811500Y-152951500D01*
X350760000Y-170072100D02*
X341811500Y-161123600D01*
X292133800Y-188461700D02*
X292133800Y-177989400D01*
X292133800Y-153645300D02*
X292133800Y-177989400D01*
X311815700Y-144575700D02*
X310740000Y-143500000D01*
X332200000Y-133040000D02*
X330160000Y-131000000D01*
X345544900Y-185744900D02*
X345544900Y-167541600D01*
X345544900Y-167541600D02*
X338207800Y-160204500D01*
X350760000Y-190960000D02*
X345544900Y-185744900D01*
X338207800Y-160204500D02*
X338207800Y-156824900D01*
X310631900Y-145931900D02*
X308200000Y-143500000D01*
X338207800Y-156824900D02*
X327314800Y-145931900D01*
X327314800Y-145931900D02*
X310631900Y-145931900D01*
X366000000Y-209563900D02*
X369414200Y-212978100D01*
X366000000Y-208740000D02*
X366000000Y-209563900D01*
X369414200Y-239282600D02*
X369815800Y-239684200D01*
X369414200Y-212978100D02*
X369414200Y-239282600D01*
X342294500Y-205374200D02*
X342294500Y-214665500D01*
X342294500Y-214665500D02*
X325460000Y-231500000D01*
X351039700Y-197445800D02*
X350222900Y-197445800D01*
X353430000Y-188896500D02*
X353430000Y-195055500D01*
X350222900Y-197445800D02*
X342294500Y-205374200D01*
X353430000Y-195055500D02*
X351039700Y-197445800D01*
X369142700Y-198364500D02*
X369142700Y-186482700D01*
X369142700Y-186482700D02*
X366000000Y-183340000D01*
X369544400Y-198766200D02*
X369142700Y-198364500D01*
X384184200Y-222467600D02*
X369946100Y-208229500D01*
X384184200Y-225315800D02*
X384184200Y-222467600D01*
X369946100Y-208229500D02*
X369946100Y-201202700D01*
X369544400Y-200801000D02*
X369544400Y-198766200D01*
X369946100Y-201202700D02*
X369544400Y-200801000D01*
X385980300Y-223519700D02*
X378727900Y-216267300D01*
X370349300Y-199003100D02*
X369544400Y-198198200D01*
X378727900Y-212794800D02*
X377847300Y-211914200D01*
X369544400Y-198198200D02*
X369544400Y-184344400D01*
X370349300Y-205139600D02*
X370349300Y-199003100D01*
X378727900Y-216267300D02*
X378727900Y-212794800D01*
X377123900Y-211914200D02*
X370349300Y-205139600D01*
X377847300Y-211914200D02*
X377123900Y-211914200D01*
X369544400Y-184344400D02*
X366000000Y-180800000D01*
X368741000Y-208728400D02*
X368741000Y-201701600D01*
X368741000Y-201701600D02*
X368339300Y-201299900D01*
X367937600Y-198863400D02*
X367937600Y-192897600D01*
X371932500Y-212487900D02*
X370195100Y-210750500D01*
X378796100Y-230703900D02*
X371932500Y-223840300D01*
X368339300Y-199265100D02*
X367937600Y-198863400D01*
X368339300Y-201299900D02*
X368339300Y-199265100D01*
X370195100Y-210750500D02*
X370195100Y-210182500D01*
X370195100Y-210182500D02*
X368741000Y-208728400D01*
X371932500Y-223840300D02*
X371932500Y-212487900D01*
X367937600Y-192897600D02*
X366000000Y-190960000D01*
X269820000Y-187000000D02*
X269820000Y-188001700D01*
X269820000Y-188001700D02*
X293021200Y-211202900D01*
X293021200Y-211202900D02*
X293021200Y-216621700D01*
X350760000Y-217003500D02*
X356535900Y-222779400D01*
X356535900Y-222779400D02*
X356535900Y-251548800D01*
X350760000Y-216360000D02*
X350760000Y-217003500D01*
X357243500Y-252256500D02*
X356535900Y-251548800D01*
D30*
X366500000Y-131400000D02*
X367180000Y-132080000D01*
X374500000Y-135740000D02*
X374500000Y-152000000D01*
X367180000Y-132080000D02*
X370840000Y-132080000D01*
X370840000Y-132080000D02*
X374500000Y-135740000D01*
X341716200Y-168778400D02*
X341716200Y-197283800D01*
X319245100Y-222603900D02*
X299880000Y-222603900D01*
X341716200Y-197283800D02*
X338000000Y-201000000D01*
X320380000Y-222102200D02*
X320301300Y-222102200D01*
D31*
X320380000Y-222102200D02*
X320380000Y-218840000D01*
D30*
X320380000Y-215576100D02*
X317298300Y-212494400D01*
D31*
X299880000Y-222603900D02*
X299880000Y-219340000D01*
D30*
X332200000Y-159262200D02*
X341716200Y-168778400D01*
D31*
X319746800Y-222102200D02*
X320301300Y-222102200D01*
D30*
X317298300Y-212494400D02*
X317298300Y-197258600D01*
D31*
X320380000Y-215576100D02*
X320380000Y-218840000D01*
X319745100Y-222103900D02*
X319746800Y-222102200D01*
D30*
X319745100Y-222103900D02*
X319245100Y-222603900D01*
D31*
X332200000Y-159262200D02*
X332200000Y-156000000D01*
D29*
X332920000Y-201000000D02*
X332920000Y-217374600D01*
X305660000Y-174240000D02*
X305660000Y-156160000D01*
X305920000Y-174500000D02*
X305660000Y-174240000D01*
X311000000Y-172998300D02*
X308200000Y-170198300D01*
X311000000Y-174500000D02*
X311000000Y-172998300D01*
X308200000Y-170198300D02*
X308200000Y-156160000D01*
X302420000Y-219340000D02*
X308420000Y-213340000D01*
X308420000Y-213340000D02*
X308420000Y-201000000D01*
X304960000Y-219340000D02*
X313500000Y-210800000D01*
X313500000Y-210800000D02*
X313500000Y-201000000D01*
X321000000Y-201000000D02*
X321000000Y-202501700D01*
X322981700Y-204483400D02*
X321000000Y-202501700D01*
X322981700Y-218778300D02*
X322981700Y-204483400D01*
X322920000Y-218840000D02*
X322981700Y-218778300D01*
X325460000Y-201620000D02*
X326080000Y-201000000D01*
X325460000Y-218840000D02*
X325460000Y-201620000D01*
X356350100Y-164487400D02*
X356350100Y-163870300D01*
X338000000Y-173498300D02*
X338256000Y-173242300D01*
X350700000Y-158220200D02*
X350700000Y-156160000D01*
X356350100Y-163870300D02*
X350700000Y-158220200D01*
X338256000Y-173242300D02*
X338256000Y-170357200D01*
X338000000Y-175000000D02*
X338000000Y-173498300D01*
X332920000Y-175000000D02*
X332920000Y-169633600D01*
X348160000Y-156160000D02*
X348160000Y-164202000D01*
X327120000Y-156000000D02*
X327120000Y-166300000D01*
X327120000Y-166300000D02*
X318920000Y-174500000D01*
X328323600Y-168674700D02*
X324000000Y-172998300D01*
X329660000Y-156000000D02*
X328323600Y-157336400D01*
X328323600Y-157336400D02*
X328323600Y-168674700D01*
X324000000Y-174500000D02*
X324000000Y-172998300D01*
X355840000Y-216360000D02*
X361788000Y-210412000D01*
X361788000Y-210412000D02*
X361788000Y-173244200D01*
X268335000Y-219525000D02*
X271436700Y-219525000D01*
X361788000Y-173244200D02*
X365534200Y-169498000D01*
X365534200Y-169498000D02*
X366618000Y-169498000D01*
X268335000Y-227025000D02*
X271436700Y-227025000D01*
X271436700Y-227025000D02*
X271436700Y-219525000D01*
X366618000Y-169498000D02*
X377460000Y-180340000D01*
D30*
X294771100Y-187219500D02*
X296302100Y-188750500D01*
X294733800Y-154722256D02*
X295848028Y-153608028D01*
X296622100Y-152886500D02*
X295874300Y-153634300D01*
X296302100Y-188750500D02*
X296302100Y-218302100D01*
X295874300Y-153634300D02*
X295874300Y-153581756D01*
D31*
X296302100Y-218302100D02*
X297340000Y-219340000D01*
D30*
X294771100Y-154737500D02*
X296610600Y-152898000D01*
X312688700Y-152886500D02*
X296622100Y-152886500D01*
X294771100Y-154737500D02*
X294771100Y-187219500D01*
X313280000Y-153477800D02*
X312688700Y-152886500D01*
D31*
X313280000Y-153477800D02*
X313280000Y-156160000D01*
D30*
X295874300Y-153634300D02*
X294771100Y-154737500D01*
X295874300Y-153581756D02*
X294733800Y-154722256D01*
D29*
X350760000Y-203660000D02*
X342896600Y-211523400D01*
X342896600Y-211523400D02*
X342896600Y-211525000D01*
M02*
