G04 #@! TF.GenerationSoftware,KiCad,Pcbnew,8.0.5*
G04 #@! TF.CreationDate,2024-12-27T19:52:07-05:00*
G04 #@! TF.ProjectId,RoboCup25PCBv1,526f626f-4375-4703-9235-50434276312e,rev?*
G04 #@! TF.SameCoordinates,Original*
G04 #@! TF.FileFunction,Legend,Top*
G04 #@! TF.FilePolarity,Positive*
%FSLAX46Y46*%
G04 Gerber Fmt 4.6, Leading zero omitted, Abs format (unit mm)*
G04 Created by KiCad (PCBNEW 8.0.5) date 2024-12-27 19:52:07*
%MOMM*%
%LPD*%
G01*
G04 APERTURE LIST*
G04 Aperture macros list*
%AMRoundRect*
0 Rectangle with rounded corners*
0 $1 Rounding radius*
0 $2 $3 $4 $5 $6 $7 $8 $9 X,Y pos of 4 corners*
0 Add a 4 corners polygon primitive as box body*
4,1,4,$2,$3,$4,$5,$6,$7,$8,$9,$2,$3,0*
0 Add four circle primitives for the rounded corners*
1,1,$1+$1,$2,$3*
1,1,$1+$1,$4,$5*
1,1,$1+$1,$6,$7*
1,1,$1+$1,$8,$9*
0 Add four rect primitives between the rounded corners*
20,1,$1+$1,$2,$3,$4,$5,0*
20,1,$1+$1,$4,$5,$6,$7,0*
20,1,$1+$1,$6,$7,$8,$9,0*
20,1,$1+$1,$8,$9,$2,$3,0*%
G04 Aperture macros list end*
%ADD10C,0.100000*%
%ADD11C,0.150000*%
%ADD12C,0.254000*%
%ADD13C,0.127000*%
%ADD14C,0.200000*%
%ADD15C,0.120000*%
%ADD16RoundRect,0.102000X-1.200000X-1.200000X1.200000X-1.200000X1.200000X1.200000X-1.200000X1.200000X0*%
%ADD17C,2.604000*%
%ADD18C,1.524000*%
%ADD19R,5.600000X1.200000*%
%ADD20R,1.920000X1.920000*%
%ADD21C,1.920000*%
%ADD22R,1.200000X5.600000*%
%ADD23RoundRect,0.102000X1.200000X1.200000X-1.200000X1.200000X-1.200000X-1.200000X1.200000X-1.200000X0*%
%ADD24C,1.400000*%
%ADD25O,1.400000X1.400000*%
%ADD26RoundRect,0.102000X0.699000X-0.699000X0.699000X0.699000X-0.699000X0.699000X-0.699000X-0.699000X0*%
%ADD27C,1.602000*%
%ADD28RoundRect,0.102000X-0.754000X-0.754000X0.754000X-0.754000X0.754000X0.754000X-0.754000X0.754000X0*%
%ADD29C,1.712000*%
%ADD30R,1.000000X0.900000*%
%ADD31R,0.400000X0.800000*%
%ADD32C,1.869000*%
%ADD33RoundRect,0.100000X-0.217500X-0.100000X0.217500X-0.100000X0.217500X0.100000X-0.217500X0.100000X0*%
%ADD34C,6.204000*%
%ADD35RoundRect,0.102000X-3.000000X3.000000X-3.000000X-3.000000X3.000000X-3.000000X3.000000X3.000000X0*%
%ADD36RoundRect,0.102000X0.000000X-0.988535X0.988535X0.000000X0.000000X0.988535X-0.988535X0.000000X0*%
G04 APERTURE END LIST*
D10*
G36*
X307738768Y-249634735D02*
G01*
X307808262Y-249666849D01*
X307833492Y-249679092D01*
X307904452Y-249712958D01*
X307974730Y-249745690D01*
X308017041Y-249763722D01*
X308088865Y-249790106D01*
X308157976Y-249819799D01*
X308224374Y-249852800D01*
X308288059Y-249889111D01*
X308363848Y-249939151D01*
X308435399Y-249994362D01*
X308502709Y-250054742D01*
X308515662Y-250067438D01*
X308572420Y-250128638D01*
X308621610Y-250191338D01*
X308663233Y-250255538D01*
X308697288Y-250321237D01*
X308729214Y-250405471D01*
X308749316Y-250492047D01*
X308757593Y-250580968D01*
X308757829Y-250599033D01*
X308753850Y-250674645D01*
X308741911Y-250748889D01*
X308722013Y-250821766D01*
X308694156Y-250893275D01*
X308674665Y-250933524D01*
X308635548Y-251000552D01*
X308590645Y-251061551D01*
X308539958Y-251116518D01*
X308483485Y-251165455D01*
X308448618Y-251190711D01*
X308383836Y-251227441D01*
X308309291Y-251256571D01*
X308224982Y-251278102D01*
X308147268Y-251290240D01*
X308062773Y-251297100D01*
X307990296Y-251298789D01*
X307915055Y-251293637D01*
X307842033Y-251280837D01*
X307818105Y-251275341D01*
X307744848Y-251254503D01*
X307675910Y-251224852D01*
X307642983Y-251203900D01*
X307632725Y-251203900D01*
X307562164Y-251177174D01*
X307558353Y-251173492D01*
X307528793Y-251104198D01*
X307528677Y-251098754D01*
X307529607Y-251021481D01*
X307529807Y-251014124D01*
X307738604Y-251014124D01*
X307760219Y-251027313D01*
X307828269Y-251061729D01*
X307899824Y-251080620D01*
X307980611Y-251087704D01*
X307989197Y-251087763D01*
X308072780Y-251085251D01*
X308147398Y-251077717D01*
X308223122Y-251062577D01*
X308294723Y-251036903D01*
X308331381Y-251016322D01*
X308389728Y-250969646D01*
X308440203Y-250913883D01*
X308482807Y-250849032D01*
X308490383Y-250834972D01*
X308521682Y-250762794D01*
X308541388Y-250688683D01*
X308549502Y-250612641D01*
X308549734Y-250597201D01*
X308541988Y-250509129D01*
X308518751Y-250425117D01*
X308480021Y-250345167D01*
X308437884Y-250284130D01*
X308385831Y-250225692D01*
X308323864Y-250169853D01*
X308251982Y-250116612D01*
X308232463Y-250103709D01*
X308162693Y-250063317D01*
X308087796Y-250024969D01*
X308010604Y-249987738D01*
X307939177Y-249954502D01*
X307859152Y-249918198D01*
X307770529Y-249878825D01*
X307747030Y-249868503D01*
X307752159Y-250162693D01*
X307755090Y-250456151D01*
X307738604Y-251014124D01*
X307529807Y-251014124D01*
X307531691Y-250944670D01*
X307534491Y-250866529D01*
X307537617Y-250791430D01*
X307538203Y-250778185D01*
X307541564Y-250701712D01*
X307544607Y-250622001D01*
X307546926Y-250543439D01*
X307548085Y-250464041D01*
X307548094Y-250457250D01*
X307547718Y-250380765D01*
X307546750Y-250297160D01*
X307545415Y-250211946D01*
X307543908Y-250129948D01*
X307543332Y-250100778D01*
X307541838Y-250016023D01*
X307540653Y-249939537D01*
X307539661Y-249860755D01*
X307539043Y-249784500D01*
X307538935Y-249744305D01*
X307567475Y-249673776D01*
X307582166Y-249656744D01*
X307644311Y-249614234D01*
X307668628Y-249610582D01*
X307738768Y-249634735D01*
G37*
G36*
X309533331Y-250130064D02*
G01*
X309607062Y-250140986D01*
X309680593Y-250161977D01*
X309730893Y-250184675D01*
X309795180Y-250231359D01*
X309841934Y-250297504D01*
X309861805Y-250369884D01*
X309863883Y-250405959D01*
X309847500Y-250481590D01*
X309803697Y-250546212D01*
X309747379Y-250595736D01*
X309680340Y-250633162D01*
X309613841Y-250664924D01*
X309539354Y-250698218D01*
X309529026Y-250702714D01*
X309135551Y-250875638D01*
X309187178Y-250935665D01*
X309247996Y-250982390D01*
X309279166Y-250999469D01*
X309353774Y-251026273D01*
X309430908Y-251038887D01*
X309479567Y-251040868D01*
X309556870Y-251034457D01*
X309628850Y-251019806D01*
X309646629Y-251015223D01*
X309719992Y-250990425D01*
X309783685Y-250951977D01*
X309803066Y-250929860D01*
X309858708Y-250880057D01*
X309878538Y-250876737D01*
X309942651Y-250905314D01*
X309971228Y-250971992D01*
X309953231Y-251043612D01*
X309906261Y-251102502D01*
X309840035Y-251150422D01*
X309786946Y-251178255D01*
X309718285Y-251206948D01*
X309640844Y-251231111D01*
X309564503Y-251246069D01*
X309489261Y-251251822D01*
X309479933Y-251251894D01*
X309395672Y-251247798D01*
X309317645Y-251235511D01*
X309245852Y-251215032D01*
X309169973Y-251180786D01*
X309102578Y-251135390D01*
X309049040Y-251083398D01*
X309000579Y-251013559D01*
X308971041Y-250945828D01*
X308952580Y-250870832D01*
X308945195Y-250788571D01*
X308945041Y-250774155D01*
X308947924Y-250699783D01*
X309117965Y-250699783D01*
X309434138Y-250560198D01*
X309510603Y-250524528D01*
X309576831Y-250490925D01*
X309646937Y-250450762D01*
X309700118Y-250414019D01*
X309637765Y-250373640D01*
X309561529Y-250348217D01*
X309481049Y-250338122D01*
X309451723Y-250337449D01*
X309377298Y-250346286D01*
X309304935Y-250376421D01*
X309247791Y-250422374D01*
X309242529Y-250427941D01*
X309194472Y-250493214D01*
X309158318Y-250567254D01*
X309131826Y-250645233D01*
X309117965Y-250699783D01*
X308947924Y-250699783D01*
X308948208Y-250692469D01*
X308957707Y-250615023D01*
X308973538Y-250541816D01*
X309000895Y-250459564D01*
X309037372Y-250383418D01*
X309074734Y-250324626D01*
X309121129Y-250267527D01*
X309182919Y-250211782D01*
X309251380Y-250169974D01*
X309326514Y-250142101D01*
X309408319Y-250128165D01*
X309451723Y-250126423D01*
X309533331Y-250130064D01*
G37*
G36*
X310844640Y-250407791D02*
G01*
X310774855Y-250380219D01*
X310765139Y-250366025D01*
X310745102Y-250290813D01*
X310738394Y-250243660D01*
X310661800Y-250264938D01*
X310584119Y-250288795D01*
X310510228Y-250312569D01*
X310500258Y-250315833D01*
X310427580Y-250350753D01*
X310365713Y-250399875D01*
X310333977Y-250466851D01*
X310333196Y-250478866D01*
X310394012Y-250495352D01*
X310478625Y-250512409D01*
X310554686Y-250531708D01*
X310632614Y-250557055D01*
X310707421Y-250589759D01*
X310746454Y-250612222D01*
X310811978Y-250664472D01*
X310861408Y-250726014D01*
X310894745Y-250796847D01*
X310911988Y-250876972D01*
X310914616Y-250926929D01*
X310905525Y-251006041D01*
X310878254Y-251074849D01*
X310832802Y-251133352D01*
X310769169Y-251181552D01*
X310696326Y-251215555D01*
X310623111Y-251236438D01*
X310541927Y-251248528D01*
X310464354Y-251251894D01*
X310389296Y-251248359D01*
X310316208Y-251237752D01*
X310245091Y-251220074D01*
X310206434Y-251207198D01*
X310137030Y-251175988D01*
X310078162Y-251129055D01*
X310048417Y-251061117D01*
X310047798Y-251048562D01*
X310078054Y-250979398D01*
X310080038Y-250977487D01*
X310148903Y-250947198D01*
X310154043Y-250947079D01*
X310221132Y-250979682D01*
X310236475Y-250992875D01*
X310308123Y-251021726D01*
X310347484Y-251029511D01*
X310421960Y-251038994D01*
X310463988Y-251040868D01*
X310540538Y-251036360D01*
X310616395Y-251020352D01*
X310682012Y-250987403D01*
X310712383Y-250925464D01*
X310696907Y-250853722D01*
X310650481Y-250796355D01*
X310583231Y-250757428D01*
X310516744Y-250735687D01*
X310409399Y-250712606D01*
X310331525Y-250693551D01*
X310258573Y-250668134D01*
X310214860Y-250644829D01*
X310160777Y-250589913D01*
X310134266Y-250516253D01*
X310131329Y-250475935D01*
X310138464Y-250401961D01*
X310164826Y-250326271D01*
X310210612Y-250262012D01*
X310275823Y-250209183D01*
X310334295Y-250178447D01*
X310408602Y-250150776D01*
X310483763Y-250127619D01*
X310532131Y-250113967D01*
X310602649Y-250093845D01*
X310677559Y-250069811D01*
X310727037Y-250050586D01*
X310800339Y-250033265D01*
X310818628Y-250032634D01*
X310887579Y-250057428D01*
X310891168Y-250060844D01*
X310919633Y-250128872D01*
X310919745Y-250134483D01*
X310930276Y-250209872D01*
X310932568Y-250220212D01*
X310944939Y-250293998D01*
X310945390Y-250305942D01*
X310920274Y-250375987D01*
X310916814Y-250379581D01*
X310847372Y-250407763D01*
X310844640Y-250407791D01*
G37*
G36*
X311367076Y-249868503D02*
G01*
X311295411Y-249848187D01*
X311281346Y-249837728D01*
X311245758Y-249771055D01*
X311245443Y-249762990D01*
X311274930Y-249694501D01*
X311281346Y-249688618D01*
X311348992Y-249658572D01*
X311367076Y-249657477D01*
X311438256Y-249678035D01*
X311452072Y-249688618D01*
X311487297Y-249754928D01*
X311487609Y-249762990D01*
X311458423Y-249831780D01*
X311452072Y-249837728D01*
X311382192Y-249867751D01*
X311367076Y-249868503D01*
G37*
G36*
X311413604Y-250723963D02*
G01*
X311414428Y-250802274D01*
X311416128Y-250881563D01*
X311416901Y-250911908D01*
X311418987Y-250990690D01*
X311420336Y-251064819D01*
X311420565Y-251100219D01*
X311397697Y-251170047D01*
X311392721Y-251175690D01*
X311325058Y-251204885D01*
X311319448Y-251205000D01*
X311250540Y-251179240D01*
X311246908Y-251175690D01*
X311218808Y-251105924D01*
X311218698Y-251100219D01*
X311217782Y-251021634D01*
X311215893Y-250942259D01*
X311215034Y-250911908D01*
X311212949Y-250833169D01*
X311211600Y-250759203D01*
X311211371Y-250723963D01*
X311212583Y-250650451D01*
X311215789Y-250573629D01*
X311220387Y-250496352D01*
X311221629Y-250478133D01*
X311226765Y-250399143D01*
X311230500Y-250320418D01*
X311232212Y-250244812D01*
X311232254Y-250232302D01*
X311255422Y-250161385D01*
X311260464Y-250155732D01*
X311330271Y-250126452D01*
X311333004Y-250126423D01*
X311401955Y-250152183D01*
X311405544Y-250155732D01*
X311433869Y-250223599D01*
X311434120Y-250232302D01*
X311432908Y-250305815D01*
X311429702Y-250382637D01*
X311425104Y-250459913D01*
X311423862Y-250478133D01*
X311418903Y-250557123D01*
X311415297Y-250635848D01*
X311413644Y-250711454D01*
X311413604Y-250723963D01*
G37*
G36*
X312363579Y-250131262D02*
G01*
X312438157Y-250148641D01*
X312446385Y-250151702D01*
X312512541Y-250190327D01*
X312545303Y-250227173D01*
X312616702Y-250249145D01*
X312652886Y-250316625D01*
X312655579Y-250351737D01*
X312651441Y-250426490D01*
X312641309Y-250505968D01*
X312633963Y-250551039D01*
X312622133Y-250625138D01*
X312611228Y-250701216D01*
X312606120Y-250748143D01*
X312582306Y-251100219D01*
X312578927Y-251176237D01*
X312572348Y-251258087D01*
X312562929Y-251332574D01*
X312548686Y-251408687D01*
X312540174Y-251443136D01*
X312517171Y-251513231D01*
X312484398Y-251582863D01*
X312439264Y-251647842D01*
X312391796Y-251693729D01*
X312323012Y-251736365D01*
X312251555Y-251763679D01*
X312169579Y-251781665D01*
X312090943Y-251789660D01*
X312034225Y-251791182D01*
X311960629Y-251789501D01*
X311887012Y-251783691D01*
X311810007Y-251771241D01*
X311804148Y-251769933D01*
X311730309Y-251741955D01*
X311680661Y-251684433D01*
X311674455Y-251646468D01*
X311694178Y-251574416D01*
X311764214Y-251546085D01*
X311838470Y-251554570D01*
X311887679Y-251564036D01*
X311961013Y-251575534D01*
X312034180Y-251580136D01*
X312079288Y-251580157D01*
X312159986Y-251569738D01*
X312228973Y-251541368D01*
X312286250Y-251495046D01*
X312331816Y-251430771D01*
X312352595Y-251385983D01*
X312374417Y-251313672D01*
X312388740Y-251236350D01*
X312397473Y-251159637D01*
X312402934Y-251073289D01*
X312404986Y-250993974D01*
X312368106Y-251061522D01*
X312322745Y-251122602D01*
X312272362Y-251169829D01*
X312206460Y-251207782D01*
X312133182Y-251226386D01*
X312096873Y-251228447D01*
X312018619Y-251222241D01*
X311947027Y-251203623D01*
X311873365Y-251167147D01*
X311808404Y-251114459D01*
X311793524Y-251098754D01*
X311747985Y-251038314D01*
X311713632Y-250970476D01*
X311690463Y-250895240D01*
X311678479Y-250812606D01*
X311676653Y-250762065D01*
X311677501Y-250743381D01*
X311876322Y-250743381D01*
X311881867Y-250822170D01*
X311900778Y-250893549D01*
X311933108Y-250948911D01*
X311993596Y-250995744D01*
X312069102Y-251015748D01*
X312103101Y-251017421D01*
X312180313Y-251002326D01*
X312249641Y-250961967D01*
X312305334Y-250910076D01*
X312353270Y-250848431D01*
X312388725Y-250781035D01*
X312406085Y-250714071D01*
X312419916Y-250639303D01*
X312431445Y-250563156D01*
X312441871Y-250484620D01*
X312451059Y-250408456D01*
X312452613Y-250394968D01*
X312386138Y-250358564D01*
X312366884Y-250351737D01*
X312292912Y-250337951D01*
X312275293Y-250337449D01*
X312193801Y-250343357D01*
X312120829Y-250361081D01*
X312047865Y-250395805D01*
X311986029Y-250445963D01*
X311972309Y-250460914D01*
X311925909Y-250528138D01*
X311897413Y-250595921D01*
X311880915Y-250671260D01*
X311876322Y-250743381D01*
X311677501Y-250743381D01*
X311680553Y-250676134D01*
X311692252Y-250595570D01*
X311711751Y-250520372D01*
X311739050Y-250450541D01*
X311774148Y-250386077D01*
X311826561Y-250315803D01*
X311836388Y-250304842D01*
X311890824Y-250253442D01*
X311951092Y-250210754D01*
X312017191Y-250176778D01*
X312089122Y-250151513D01*
X312166885Y-250134961D01*
X312250480Y-250127120D01*
X312285551Y-250126423D01*
X312363579Y-250131262D01*
G37*
G36*
X313661981Y-251251894D02*
G01*
X313589597Y-251226045D01*
X313561964Y-251160303D01*
X313533021Y-250946713D01*
X313524886Y-250870068D01*
X313520128Y-250796800D01*
X313518733Y-250733122D01*
X313521538Y-250656506D01*
X313522397Y-250640799D01*
X313525770Y-250566401D01*
X313526060Y-250548108D01*
X313522116Y-250466025D01*
X313505452Y-250390114D01*
X313453610Y-250338272D01*
X313443628Y-250337449D01*
X313365500Y-250353164D01*
X313296577Y-250394723D01*
X313242882Y-250446672D01*
X313223077Y-250470439D01*
X313178220Y-250534896D01*
X313138538Y-250607368D01*
X313108062Y-250677354D01*
X313081547Y-250753477D01*
X313074699Y-250776353D01*
X313068095Y-250852762D01*
X313065540Y-250874173D01*
X313059701Y-250947262D01*
X313059312Y-250970893D01*
X313064081Y-251046467D01*
X313065540Y-251061018D01*
X313071470Y-251136339D01*
X313071769Y-251150778D01*
X313046653Y-251220136D01*
X313043192Y-251223684D01*
X312973407Y-251251867D01*
X312970652Y-251251894D01*
X312900928Y-251227100D01*
X312897379Y-251223684D01*
X312870009Y-251155656D01*
X312869902Y-251150045D01*
X312864572Y-251074190D01*
X312862941Y-251059553D01*
X312856758Y-250985776D01*
X312856346Y-250968695D01*
X312858078Y-250887933D01*
X312862071Y-250807752D01*
X312867566Y-250725824D01*
X312871001Y-250681099D01*
X312876854Y-250604458D01*
X312881783Y-250526227D01*
X312885083Y-250450152D01*
X312886022Y-250393136D01*
X312883414Y-250316561D01*
X312882358Y-250297515D01*
X312879322Y-250222492D01*
X312879061Y-250201894D01*
X312906567Y-250132553D01*
X312908370Y-250130819D01*
X312978222Y-250103003D01*
X312980910Y-250102976D01*
X313051112Y-250132841D01*
X313081609Y-250207040D01*
X313085324Y-250238897D01*
X313088255Y-250360896D01*
X313142526Y-250293348D01*
X313197263Y-250237248D01*
X313263560Y-250185041D01*
X313330528Y-250149321D01*
X313409503Y-250128484D01*
X313443628Y-250126423D01*
X313519809Y-250135124D01*
X313590569Y-250165714D01*
X313645505Y-250218329D01*
X313673339Y-250265642D01*
X313699054Y-250339886D01*
X313713009Y-250416280D01*
X313720062Y-250496010D01*
X313721699Y-250540048D01*
X313721699Y-250639699D01*
X313720600Y-250731657D01*
X313724228Y-250806196D01*
X313732964Y-250881546D01*
X313742581Y-250943415D01*
X313754367Y-251019715D01*
X313762289Y-251092653D01*
X313764930Y-251154075D01*
X313737424Y-251223073D01*
X313735621Y-251224783D01*
X313667464Y-251251788D01*
X313661981Y-251251894D01*
G37*
G36*
X314505627Y-250130064D02*
G01*
X314579357Y-250140986D01*
X314652889Y-250161977D01*
X314703189Y-250184675D01*
X314767476Y-250231359D01*
X314814230Y-250297504D01*
X314834101Y-250369884D01*
X314836179Y-250405959D01*
X314819795Y-250481590D01*
X314775993Y-250546212D01*
X314719675Y-250595736D01*
X314652636Y-250633162D01*
X314586137Y-250664924D01*
X314511650Y-250698218D01*
X314501322Y-250702714D01*
X314107847Y-250875638D01*
X314159474Y-250935665D01*
X314220292Y-250982390D01*
X314251461Y-250999469D01*
X314326070Y-251026273D01*
X314403204Y-251038887D01*
X314451863Y-251040868D01*
X314529166Y-251034457D01*
X314601146Y-251019806D01*
X314618925Y-251015223D01*
X314692287Y-250990425D01*
X314755980Y-250951977D01*
X314775362Y-250929860D01*
X314831004Y-250880057D01*
X314850833Y-250876737D01*
X314914947Y-250905314D01*
X314943524Y-250971992D01*
X314925527Y-251043612D01*
X314878557Y-251102502D01*
X314812331Y-251150422D01*
X314759242Y-251178255D01*
X314690581Y-251206948D01*
X314613140Y-251231111D01*
X314536799Y-251246069D01*
X314461557Y-251251822D01*
X314452229Y-251251894D01*
X314367968Y-251247798D01*
X314289941Y-251235511D01*
X314218148Y-251215032D01*
X314142268Y-251180786D01*
X314074874Y-251135390D01*
X314021336Y-251083398D01*
X313972875Y-251013559D01*
X313943337Y-250945828D01*
X313924876Y-250870832D01*
X313917491Y-250788571D01*
X313917337Y-250774155D01*
X313920220Y-250699783D01*
X314090261Y-250699783D01*
X314406434Y-250560198D01*
X314482899Y-250524528D01*
X314549127Y-250490925D01*
X314619233Y-250450762D01*
X314672414Y-250414019D01*
X314610061Y-250373640D01*
X314533825Y-250348217D01*
X314453345Y-250338122D01*
X314424019Y-250337449D01*
X314349594Y-250346286D01*
X314277231Y-250376421D01*
X314220087Y-250422374D01*
X314214825Y-250427941D01*
X314166768Y-250493214D01*
X314130614Y-250567254D01*
X314104121Y-250645233D01*
X314090261Y-250699783D01*
X313920220Y-250699783D01*
X313920504Y-250692469D01*
X313930003Y-250615023D01*
X313945834Y-250541816D01*
X313973191Y-250459564D01*
X314009667Y-250383418D01*
X314047030Y-250324626D01*
X314093425Y-250267527D01*
X314155215Y-250211782D01*
X314223676Y-250169974D01*
X314298809Y-250142101D01*
X314380615Y-250128165D01*
X314424019Y-250126423D01*
X314505627Y-250130064D01*
G37*
G36*
X316088046Y-249588600D02*
G01*
X316111493Y-249663339D01*
X316109529Y-249742186D01*
X316105723Y-249818706D01*
X316101235Y-249892042D01*
X316095464Y-249976151D01*
X316088412Y-250071033D01*
X316082281Y-250149265D01*
X316075429Y-250233557D01*
X316070460Y-250293119D01*
X316065010Y-250368430D01*
X316061118Y-250443786D01*
X316058782Y-250519188D01*
X316058004Y-250594637D01*
X316058502Y-250677389D01*
X316059996Y-250754921D01*
X316063264Y-250844494D01*
X316068089Y-250925910D01*
X316074470Y-250999169D01*
X316084181Y-251076311D01*
X316089877Y-251110478D01*
X316091709Y-251133925D01*
X316062766Y-251201702D01*
X315996088Y-251228447D01*
X315929570Y-251192097D01*
X315902299Y-251135390D01*
X315836422Y-251178597D01*
X315768301Y-251212687D01*
X315748426Y-251220753D01*
X315677210Y-251242041D01*
X315603328Y-251251408D01*
X315581730Y-251251894D01*
X315504347Y-251246884D01*
X315432116Y-251231853D01*
X315354358Y-251201652D01*
X315283613Y-251157811D01*
X315228555Y-251109378D01*
X315179499Y-251051801D01*
X315140593Y-250988427D01*
X315111836Y-250919257D01*
X315093229Y-250844291D01*
X315084771Y-250763529D01*
X315084207Y-250735321D01*
X315084410Y-250730558D01*
X315266657Y-250730558D01*
X315275852Y-250806543D01*
X315303436Y-250875587D01*
X315349411Y-250937690D01*
X315360812Y-250949277D01*
X315423001Y-250997577D01*
X315491416Y-251027988D01*
X315566055Y-251040511D01*
X315581730Y-251040868D01*
X315657175Y-251034187D01*
X315728276Y-251010460D01*
X315793206Y-250967018D01*
X315842581Y-250928394D01*
X315872257Y-250897986D01*
X315869326Y-250727627D01*
X315870425Y-250613321D01*
X315872257Y-250497184D01*
X315833228Y-250434943D01*
X315776258Y-250382530D01*
X315768210Y-250377383D01*
X315696952Y-250347432D01*
X315624082Y-250337605D01*
X315612871Y-250337449D01*
X315531653Y-250343586D01*
X315453255Y-250365159D01*
X315388595Y-250402267D01*
X315353119Y-250435635D01*
X315311323Y-250498511D01*
X315285655Y-250567588D01*
X315270794Y-250649076D01*
X315266657Y-250730558D01*
X315084410Y-250730558D01*
X315087767Y-250651679D01*
X315098447Y-250573405D01*
X315116246Y-250500497D01*
X315147004Y-250420091D01*
X315188014Y-250347414D01*
X315230020Y-250292752D01*
X315287753Y-250236226D01*
X315351590Y-250191396D01*
X315421533Y-250158260D01*
X315497581Y-250136819D01*
X315579734Y-250127073D01*
X315608475Y-250126423D01*
X315684344Y-250130795D01*
X315757264Y-250147237D01*
X315793122Y-250163426D01*
X315889842Y-250234501D01*
X315892570Y-250156193D01*
X315895394Y-250082839D01*
X315899309Y-249992736D01*
X315903397Y-249911437D01*
X315908747Y-249822195D01*
X315914366Y-249746709D01*
X315922683Y-249664140D01*
X315923914Y-249654546D01*
X315953956Y-249586402D01*
X316017704Y-249563688D01*
X316088046Y-249588600D01*
G37*
G36*
X317183229Y-249622054D02*
G01*
X317194099Y-249676528D01*
X317188970Y-249718660D01*
X317183841Y-249760792D01*
X317180910Y-249985739D01*
X317178712Y-250248056D01*
X317244743Y-250206720D01*
X317313371Y-250171590D01*
X317349071Y-250156831D01*
X317422804Y-250135005D01*
X317496661Y-250126453D01*
X317501113Y-250126423D01*
X317581295Y-250132399D01*
X317655604Y-250150328D01*
X317724039Y-250180210D01*
X317786602Y-250222044D01*
X317843291Y-250275831D01*
X317860882Y-250296416D01*
X317904958Y-250358893D01*
X317939914Y-250426521D01*
X317965751Y-250499302D01*
X317982469Y-250577234D01*
X317990069Y-250660319D01*
X317990575Y-250689159D01*
X317985243Y-250774738D01*
X317969246Y-250855345D01*
X317942584Y-250930980D01*
X317905258Y-251001644D01*
X317857267Y-251067337D01*
X317838900Y-251088129D01*
X317779545Y-251143784D01*
X317714961Y-251187923D01*
X317645147Y-251220549D01*
X317570104Y-251241659D01*
X317489831Y-251251254D01*
X317461912Y-251251894D01*
X317384929Y-251247337D01*
X317311519Y-251233668D01*
X317241681Y-251210884D01*
X317175415Y-251178988D01*
X317117918Y-251225356D01*
X317095181Y-251228447D01*
X317028503Y-251201336D01*
X317001392Y-251133192D01*
X317003798Y-251058017D01*
X317003956Y-251054790D01*
X317006498Y-250981196D01*
X317006521Y-250976022D01*
X317005948Y-250897726D01*
X317004666Y-250819942D01*
X317002943Y-250740837D01*
X317001020Y-250664828D01*
X317000659Y-250651423D01*
X317000650Y-250651057D01*
X317177613Y-250651057D01*
X317178712Y-250804930D01*
X317179811Y-250966863D01*
X317248204Y-250995006D01*
X317319030Y-251022184D01*
X317391104Y-251036763D01*
X317461912Y-251040868D01*
X317541732Y-251032928D01*
X317613033Y-251009106D01*
X317675813Y-250969404D01*
X317707009Y-250940484D01*
X317753409Y-250879900D01*
X317784624Y-250811491D01*
X317800653Y-250735258D01*
X317802997Y-250689525D01*
X317796882Y-250610712D01*
X317778538Y-250539550D01*
X317743812Y-250469455D01*
X317725694Y-250444061D01*
X317667870Y-250387840D01*
X317598812Y-250352441D01*
X317518519Y-250337865D01*
X317501113Y-250337449D01*
X317426540Y-250346144D01*
X317355788Y-250369791D01*
X317328189Y-250382878D01*
X317264781Y-250421695D01*
X317198982Y-250466775D01*
X317179811Y-250480331D01*
X317177613Y-250651057D01*
X317000650Y-250651057D01*
X316998791Y-250574027D01*
X316997101Y-250493337D01*
X316995813Y-250413784D01*
X316995185Y-250340436D01*
X316995163Y-250326458D01*
X316995318Y-250251651D01*
X316995637Y-250170932D01*
X316996005Y-250093565D01*
X316996263Y-250043625D01*
X316996636Y-249970252D01*
X316996974Y-249896436D01*
X316997254Y-249820180D01*
X316997362Y-249760059D01*
X317008406Y-249684640D01*
X317023007Y-249649417D01*
X317075615Y-249595893D01*
X317116796Y-249587135D01*
X317183229Y-249622054D01*
G37*
G36*
X319124839Y-250286891D02*
G01*
X318768367Y-251051493D01*
X318736361Y-251119866D01*
X318699075Y-251201339D01*
X318664813Y-251278375D01*
X318633573Y-251350976D01*
X318605357Y-251419139D01*
X318575489Y-251495080D01*
X318566500Y-251518974D01*
X318498356Y-251717177D01*
X318455865Y-251777017D01*
X318405666Y-251791182D01*
X318334912Y-251767354D01*
X318330928Y-251764071D01*
X318299787Y-251697393D01*
X318313686Y-251623983D01*
X318336489Y-251553218D01*
X318362549Y-251482825D01*
X318395559Y-251400181D01*
X318424877Y-251330159D01*
X318458104Y-251253246D01*
X318495241Y-251169442D01*
X318522170Y-251109745D01*
X318153241Y-250396800D01*
X318107079Y-250321329D01*
X318079915Y-250251912D01*
X318079235Y-250241461D01*
X318103919Y-250170015D01*
X318111475Y-250161228D01*
X318176893Y-250126729D01*
X318184382Y-250126423D01*
X318252290Y-250156813D01*
X318257288Y-250163426D01*
X318301475Y-250229389D01*
X318346475Y-250301980D01*
X318392288Y-250381201D01*
X318438913Y-250467050D01*
X318474416Y-250535788D01*
X318510376Y-250608254D01*
X318546793Y-250684448D01*
X318583667Y-250764372D01*
X318620999Y-250848024D01*
X318633545Y-250876737D01*
X318785952Y-250513670D01*
X318816645Y-250446286D01*
X318851900Y-250371676D01*
X318886559Y-250301379D01*
X318920622Y-250235395D01*
X318944588Y-250190903D01*
X318993818Y-250135491D01*
X319031050Y-250126423D01*
X319099653Y-250152300D01*
X319105788Y-250157930D01*
X319138108Y-250224666D01*
X319138394Y-250232669D01*
X319124839Y-250286891D01*
G37*
G36*
X321477997Y-251298789D02*
G01*
X321408166Y-251270210D01*
X321386406Y-251243468D01*
X321355180Y-251175469D01*
X321333812Y-251099469D01*
X321330718Y-251085931D01*
X321293715Y-250902749D01*
X321276053Y-250824426D01*
X321258697Y-250737098D01*
X321243086Y-250652797D01*
X321225942Y-250555661D01*
X321212076Y-250474388D01*
X321197348Y-250385894D01*
X321181757Y-250290182D01*
X321165303Y-250187251D01*
X321159626Y-250151336D01*
X320953729Y-250793206D01*
X320892913Y-250995439D01*
X320869464Y-251066286D01*
X320840476Y-251140063D01*
X320815610Y-251192177D01*
X320757470Y-251240464D01*
X320699106Y-251251894D01*
X320627936Y-251229729D01*
X320603485Y-251205000D01*
X320575408Y-251135764D01*
X320562086Y-251091060D01*
X320532411Y-250973091D01*
X320513117Y-250902145D01*
X320494256Y-250830265D01*
X320475825Y-250757451D01*
X320457827Y-250683703D01*
X320440260Y-250609022D01*
X320423124Y-250533407D01*
X320406419Y-250456858D01*
X320390147Y-250379375D01*
X320374305Y-250300958D01*
X320358896Y-250221608D01*
X320348862Y-250168189D01*
X320311859Y-250357233D01*
X320178869Y-250914473D01*
X320168963Y-250993266D01*
X320154740Y-251074156D01*
X320139872Y-251147288D01*
X320127212Y-251205000D01*
X320079839Y-251261878D01*
X320025362Y-251275341D01*
X319954651Y-251249781D01*
X319944762Y-251239438D01*
X319919217Y-251169177D01*
X319919117Y-251163600D01*
X319922518Y-251085174D01*
X319930847Y-251012007D01*
X319944173Y-250933353D01*
X319962497Y-250849212D01*
X319981585Y-250774904D01*
X319990191Y-250744113D01*
X320103764Y-250315101D01*
X320163482Y-249979877D01*
X320180685Y-249897394D01*
X320201179Y-249815619D01*
X320225159Y-249741224D01*
X320259103Y-249672131D01*
X320314980Y-249620740D01*
X320360952Y-249610582D01*
X320431449Y-249641351D01*
X320460969Y-249689351D01*
X320486729Y-249767868D01*
X320505443Y-249845694D01*
X320521929Y-249927387D01*
X320535983Y-250006032D01*
X320547431Y-250075865D01*
X320562115Y-250164239D01*
X320578687Y-250254422D01*
X320597148Y-250346413D01*
X320617499Y-250440214D01*
X320634001Y-250511752D01*
X320651566Y-250584307D01*
X320670194Y-250657880D01*
X320689884Y-250732470D01*
X320710637Y-250808077D01*
X320717791Y-250833506D01*
X320746007Y-250756342D01*
X320773501Y-250678586D01*
X320800274Y-250600237D01*
X320826326Y-250521295D01*
X320851657Y-250441761D01*
X320876266Y-250361635D01*
X320900154Y-250280916D01*
X320923321Y-250199604D01*
X320945767Y-250117700D01*
X320967491Y-250035204D01*
X320981573Y-249979877D01*
X321012348Y-249824539D01*
X321030620Y-249749416D01*
X321056998Y-249680562D01*
X321060708Y-249673230D01*
X321115435Y-249622573D01*
X321170983Y-249610582D01*
X321240497Y-249641367D01*
X321283800Y-249708747D01*
X321306172Y-249771416D01*
X321322000Y-249849455D01*
X321333656Y-249925839D01*
X321343524Y-249999435D01*
X321346472Y-250022742D01*
X321358136Y-250111700D01*
X321370321Y-250198185D01*
X321383029Y-250282197D01*
X321396257Y-250363736D01*
X321410008Y-250442802D01*
X321424280Y-250519395D01*
X321439074Y-250593515D01*
X321459610Y-250688495D01*
X321481074Y-250779078D01*
X321497780Y-250844131D01*
X321548339Y-251027313D01*
X321568818Y-251103298D01*
X321584746Y-251174935D01*
X321587173Y-251197672D01*
X321557549Y-251265807D01*
X321553468Y-251269480D01*
X321485819Y-251298531D01*
X321477997Y-251298789D01*
G37*
G36*
X322367822Y-250134102D02*
G01*
X322444767Y-250154822D01*
X322492459Y-250172951D01*
X322560112Y-250207425D01*
X322615873Y-250259340D01*
X322632411Y-250312903D01*
X322611528Y-250362362D01*
X322599957Y-250436067D01*
X322595408Y-250492055D01*
X322591956Y-250566535D01*
X322589968Y-250647391D01*
X322589180Y-250722498D01*
X322590425Y-250797574D01*
X322597019Y-250873686D01*
X322606765Y-250925464D01*
X322630175Y-250999478D01*
X322658657Y-251074809D01*
X322671612Y-251107547D01*
X322695059Y-251162501D01*
X322701287Y-251180087D01*
X322672344Y-251248230D01*
X322605300Y-251275341D01*
X322543627Y-251232013D01*
X322534225Y-251222585D01*
X322485682Y-251165054D01*
X322465348Y-251134658D01*
X322400113Y-251171120D01*
X322330160Y-251205618D01*
X322290959Y-251222219D01*
X322218088Y-251245374D01*
X322165296Y-251251894D01*
X322079494Y-251247141D01*
X322002888Y-251232883D01*
X321925138Y-251204235D01*
X321859904Y-251162649D01*
X321813953Y-251116706D01*
X321773411Y-251054618D01*
X321742827Y-250979592D01*
X321724537Y-250904987D01*
X321713563Y-250820877D01*
X321710007Y-250743523D01*
X321709933Y-250731657D01*
X321913237Y-250731657D01*
X321917961Y-250812508D01*
X321934290Y-250887999D01*
X321969281Y-250958659D01*
X321972955Y-250963565D01*
X322031391Y-251013616D01*
X322102935Y-251037169D01*
X322152473Y-251040868D01*
X322227886Y-251035427D01*
X322302580Y-251015624D01*
X322320268Y-251007896D01*
X322385346Y-250966242D01*
X322424316Y-250936088D01*
X322414817Y-250861075D01*
X322405543Y-250779158D01*
X322398588Y-250706077D01*
X322393404Y-250631983D01*
X322391343Y-250562030D01*
X322395255Y-250488450D01*
X322396838Y-250473736D01*
X322408379Y-250398792D01*
X322413691Y-250372254D01*
X322348478Y-250345875D01*
X322304881Y-250337449D01*
X322227738Y-250344914D01*
X322156045Y-250367308D01*
X322089802Y-250404631D01*
X322029009Y-250456884D01*
X321978359Y-250518708D01*
X321942180Y-250585111D01*
X321920473Y-250656094D01*
X321913237Y-250731657D01*
X321709933Y-250731657D01*
X321709905Y-250727260D01*
X321714091Y-250651399D01*
X321726649Y-250579062D01*
X321752770Y-250496909D01*
X321790946Y-250419831D01*
X321841178Y-250347827D01*
X321881364Y-250302644D01*
X321936678Y-250251877D01*
X322007329Y-250202315D01*
X322082643Y-250165144D01*
X322162619Y-250140362D01*
X322247258Y-250127972D01*
X322291325Y-250126423D01*
X322367822Y-250134102D01*
G37*
G36*
X323841779Y-249588600D02*
G01*
X323865226Y-249663339D01*
X323863263Y-249742186D01*
X323859456Y-249818706D01*
X323854968Y-249892042D01*
X323849198Y-249976151D01*
X323842145Y-250071033D01*
X323836014Y-250149265D01*
X323829162Y-250233557D01*
X323824193Y-250293119D01*
X323818744Y-250368430D01*
X323814851Y-250443786D01*
X323812516Y-250519188D01*
X323811737Y-250594637D01*
X323812235Y-250677389D01*
X323813729Y-250754921D01*
X323816998Y-250844494D01*
X323821822Y-250925910D01*
X323828203Y-250999169D01*
X323837915Y-251076311D01*
X323843611Y-251110478D01*
X323845443Y-251133925D01*
X323816500Y-251201702D01*
X323749822Y-251228447D01*
X323683304Y-251192097D01*
X323656032Y-251135390D01*
X323590155Y-251178597D01*
X323522035Y-251212687D01*
X323502159Y-251220753D01*
X323430943Y-251242041D01*
X323357062Y-251251408D01*
X323335464Y-251251894D01*
X323258081Y-251246884D01*
X323185850Y-251231853D01*
X323108092Y-251201652D01*
X323037346Y-251157811D01*
X322982288Y-251109378D01*
X322933233Y-251051801D01*
X322894327Y-250988427D01*
X322865570Y-250919257D01*
X322846963Y-250844291D01*
X322838505Y-250763529D01*
X322837941Y-250735321D01*
X322838144Y-250730558D01*
X323020390Y-250730558D01*
X323029585Y-250806543D01*
X323057170Y-250875587D01*
X323103144Y-250937690D01*
X323114546Y-250949277D01*
X323176735Y-250997577D01*
X323245149Y-251027988D01*
X323319789Y-251040511D01*
X323335464Y-251040868D01*
X323410908Y-251034187D01*
X323482009Y-251010460D01*
X323546939Y-250967018D01*
X323596315Y-250928394D01*
X323625990Y-250897986D01*
X323623060Y-250727627D01*
X323624159Y-250613321D01*
X323625990Y-250497184D01*
X323586961Y-250434943D01*
X323529992Y-250382530D01*
X323521943Y-250377383D01*
X323450685Y-250347432D01*
X323377816Y-250337605D01*
X323366605Y-250337449D01*
X323285386Y-250343586D01*
X323206989Y-250365159D01*
X323142328Y-250402267D01*
X323106852Y-250435635D01*
X323065057Y-250498511D01*
X323039388Y-250567588D01*
X323024528Y-250649076D01*
X323020390Y-250730558D01*
X322838144Y-250730558D01*
X322841501Y-250651679D01*
X322852180Y-250573405D01*
X322869980Y-250500497D01*
X322900737Y-250420091D01*
X322941747Y-250347414D01*
X322983754Y-250292752D01*
X323041486Y-250236226D01*
X323105324Y-250191396D01*
X323175266Y-250158260D01*
X323251314Y-250136819D01*
X323333467Y-250127073D01*
X323362208Y-250126423D01*
X323438078Y-250130795D01*
X323510998Y-250147237D01*
X323546856Y-250163426D01*
X323643576Y-250234501D01*
X323646303Y-250156193D01*
X323649127Y-250082839D01*
X323653043Y-249992736D01*
X323657130Y-249911437D01*
X323662481Y-249822195D01*
X323668099Y-249746709D01*
X323676417Y-249664140D01*
X323677648Y-249654546D01*
X323707690Y-249586402D01*
X323771437Y-249563688D01*
X323841779Y-249588600D01*
G37*
G36*
X324969815Y-251251894D02*
G01*
X324900627Y-251224513D01*
X324873827Y-251174225D01*
X324856757Y-251101135D01*
X324843319Y-251025115D01*
X324831836Y-250944950D01*
X324830596Y-250935355D01*
X324821741Y-250856095D01*
X324815301Y-250777885D01*
X324812349Y-250703838D01*
X324812278Y-250691723D01*
X324814532Y-250617427D01*
X324814842Y-250610757D01*
X324817367Y-250536906D01*
X324817407Y-250529790D01*
X324812779Y-250454845D01*
X324790110Y-250379711D01*
X324726637Y-250337637D01*
X324720687Y-250337449D01*
X324641468Y-250349077D01*
X324567758Y-250383960D01*
X324506131Y-250435238D01*
X324486580Y-250456517D01*
X324441552Y-250517740D01*
X324400613Y-250584146D01*
X324364524Y-250647937D01*
X324342233Y-250689159D01*
X324341717Y-250784161D01*
X324340172Y-250868952D01*
X324337596Y-250943530D01*
X324332927Y-251022391D01*
X324325199Y-251095962D01*
X324309260Y-251163234D01*
X324260631Y-251219276D01*
X324219501Y-251228447D01*
X324149519Y-251203331D01*
X324145495Y-251199870D01*
X324113652Y-251132448D01*
X324113621Y-251129895D01*
X324122780Y-251084832D01*
X324131473Y-251008887D01*
X324134138Y-250935355D01*
X324137435Y-250783681D01*
X324140366Y-250030069D01*
X324144538Y-249952496D01*
X324147436Y-249878387D01*
X324147693Y-249858977D01*
X324142129Y-249783689D01*
X324137801Y-249760059D01*
X324128383Y-249684899D01*
X324127909Y-249662972D01*
X324155759Y-249593675D01*
X324157585Y-249591898D01*
X324225827Y-249563798D01*
X324231224Y-249563688D01*
X324301291Y-249588193D01*
X324330143Y-249650516D01*
X324340580Y-249725362D01*
X324345869Y-249798932D01*
X324346263Y-249823440D01*
X324345284Y-249902437D01*
X324342667Y-249977024D01*
X324339302Y-250039595D01*
X324335886Y-250114921D01*
X324334201Y-250191287D01*
X324334173Y-250261612D01*
X324335272Y-250352103D01*
X324383774Y-250292946D01*
X324439774Y-250237819D01*
X324503935Y-250190073D01*
X324515889Y-250182843D01*
X324583518Y-250150721D01*
X324660454Y-250130886D01*
X324720321Y-250126423D01*
X324799158Y-250133361D01*
X324871810Y-250157753D01*
X324932618Y-250205452D01*
X324955160Y-250237431D01*
X324983719Y-250311225D01*
X324997903Y-250386248D01*
X325005305Y-250467094D01*
X325006817Y-250500847D01*
X325015244Y-250697219D01*
X325035760Y-250911542D01*
X325046363Y-250990780D01*
X325058523Y-251063265D01*
X325070931Y-251123300D01*
X325074961Y-251152976D01*
X325045736Y-251221907D01*
X325043820Y-251223684D01*
X324975170Y-251251784D01*
X324969815Y-251251894D01*
G37*
G36*
X325886385Y-250134102D02*
G01*
X325963330Y-250154822D01*
X326011022Y-250172951D01*
X326078674Y-250207425D01*
X326134436Y-250259340D01*
X326150973Y-250312903D01*
X326130090Y-250362362D01*
X326118520Y-250436067D01*
X326113970Y-250492055D01*
X326110518Y-250566535D01*
X326108531Y-250647391D01*
X326107742Y-250722498D01*
X326108987Y-250797574D01*
X326115582Y-250873686D01*
X326125327Y-250925464D01*
X326148738Y-250999478D01*
X326177220Y-251074809D01*
X326190174Y-251107547D01*
X326213621Y-251162501D01*
X326219849Y-251180087D01*
X326190907Y-251248230D01*
X326123862Y-251275341D01*
X326062190Y-251232013D01*
X326052787Y-251222585D01*
X326004244Y-251165054D01*
X325983911Y-251134658D01*
X325918675Y-251171120D01*
X325848722Y-251205618D01*
X325809521Y-251222219D01*
X325736650Y-251245374D01*
X325683859Y-251251894D01*
X325598056Y-251247141D01*
X325521450Y-251232883D01*
X325443700Y-251204235D01*
X325378467Y-251162649D01*
X325332515Y-251116706D01*
X325291973Y-251054618D01*
X325261389Y-250979592D01*
X325243099Y-250904987D01*
X325232126Y-250820877D01*
X325228569Y-250743523D01*
X325228495Y-250731657D01*
X325431800Y-250731657D01*
X325436524Y-250812508D01*
X325452853Y-250887999D01*
X325487843Y-250958659D01*
X325491517Y-250963565D01*
X325549954Y-251013616D01*
X325621498Y-251037169D01*
X325671036Y-251040868D01*
X325746449Y-251035427D01*
X325821142Y-251015624D01*
X325838831Y-251007896D01*
X325903909Y-250966242D01*
X325942878Y-250936088D01*
X325933379Y-250861075D01*
X325924105Y-250779158D01*
X325917150Y-250706077D01*
X325911966Y-250631983D01*
X325909905Y-250562030D01*
X325913818Y-250488450D01*
X325915401Y-250473736D01*
X325926941Y-250398792D01*
X325932254Y-250372254D01*
X325867041Y-250345875D01*
X325823443Y-250337449D01*
X325746301Y-250344914D01*
X325674608Y-250367308D01*
X325608365Y-250404631D01*
X325547571Y-250456884D01*
X325496921Y-250518708D01*
X325460743Y-250585111D01*
X325439036Y-250656094D01*
X325431800Y-250731657D01*
X325228495Y-250731657D01*
X325228468Y-250727260D01*
X325232654Y-250651399D01*
X325245212Y-250579062D01*
X325271332Y-250496909D01*
X325309509Y-250419831D01*
X325359741Y-250347827D01*
X325399926Y-250302644D01*
X325455240Y-250251877D01*
X325525891Y-250202315D01*
X325601205Y-250165144D01*
X325681181Y-250140362D01*
X325765820Y-250127972D01*
X325809888Y-250126423D01*
X325886385Y-250134102D01*
G37*
G36*
X326868681Y-251151877D02*
G01*
X326843768Y-251223043D01*
X326774891Y-251246765D01*
X326703085Y-251218712D01*
X326665348Y-251158105D01*
X326507812Y-250740816D01*
X326324630Y-250269305D01*
X326314005Y-250223876D01*
X326343918Y-250156797D01*
X326345879Y-250155000D01*
X326415023Y-250126535D01*
X326420251Y-250126423D01*
X326488761Y-250153090D01*
X326508911Y-250182843D01*
X326770495Y-250901284D01*
X326800900Y-250834393D01*
X326834139Y-250757096D01*
X326864003Y-250684732D01*
X326895834Y-250605141D01*
X326922716Y-250536264D01*
X326950858Y-250462763D01*
X326965401Y-250424277D01*
X326990766Y-250353145D01*
X327018751Y-250279228D01*
X327045622Y-250210512D01*
X327052962Y-250192002D01*
X327103251Y-250135645D01*
X327143454Y-250126423D01*
X327213800Y-250152827D01*
X327217826Y-250156465D01*
X327249668Y-250224620D01*
X327249699Y-250227173D01*
X327225794Y-250307201D01*
X327195913Y-250385391D01*
X327161881Y-250469991D01*
X327128679Y-250550397D01*
X327100292Y-250618124D01*
X327079706Y-250666810D01*
X326868681Y-251151877D01*
G37*
G36*
X327949730Y-250130064D02*
G01*
X328023461Y-250140986D01*
X328096993Y-250161977D01*
X328147292Y-250184675D01*
X328211579Y-250231359D01*
X328258334Y-250297504D01*
X328278204Y-250369884D01*
X328280282Y-250405959D01*
X328263899Y-250481590D01*
X328220096Y-250546212D01*
X328163778Y-250595736D01*
X328096739Y-250633162D01*
X328030240Y-250664924D01*
X327955754Y-250698218D01*
X327945425Y-250702714D01*
X327551950Y-250875638D01*
X327603577Y-250935665D01*
X327664395Y-250982390D01*
X327695565Y-250999469D01*
X327770173Y-251026273D01*
X327847307Y-251038887D01*
X327895966Y-251040868D01*
X327973269Y-251034457D01*
X328045249Y-251019806D01*
X328063028Y-251015223D01*
X328136391Y-250990425D01*
X328200084Y-250951977D01*
X328219466Y-250929860D01*
X328275107Y-250880057D01*
X328294937Y-250876737D01*
X328359050Y-250905314D01*
X328387627Y-250971992D01*
X328369631Y-251043612D01*
X328322661Y-251102502D01*
X328256434Y-251150422D01*
X328203346Y-251178255D01*
X328134684Y-251206948D01*
X328057244Y-251231111D01*
X327980902Y-251246069D01*
X327905660Y-251251822D01*
X327896332Y-251251894D01*
X327812071Y-251247798D01*
X327734044Y-251235511D01*
X327662251Y-251215032D01*
X327586372Y-251180786D01*
X327518977Y-251135390D01*
X327465439Y-251083398D01*
X327416978Y-251013559D01*
X327387440Y-250945828D01*
X327368979Y-250870832D01*
X327361594Y-250788571D01*
X327361441Y-250774155D01*
X327364324Y-250699783D01*
X327534364Y-250699783D01*
X327850537Y-250560198D01*
X327927002Y-250524528D01*
X327993230Y-250490925D01*
X328063336Y-250450762D01*
X328116517Y-250414019D01*
X328054164Y-250373640D01*
X327977929Y-250348217D01*
X327897448Y-250338122D01*
X327868122Y-250337449D01*
X327793697Y-250346286D01*
X327721334Y-250376421D01*
X327664190Y-250422374D01*
X327658928Y-250427941D01*
X327610872Y-250493214D01*
X327574717Y-250567254D01*
X327548225Y-250645233D01*
X327534364Y-250699783D01*
X327364324Y-250699783D01*
X327364607Y-250692469D01*
X327374106Y-250615023D01*
X327389938Y-250541816D01*
X327417295Y-250459564D01*
X327453771Y-250383418D01*
X327491133Y-250324626D01*
X327537528Y-250267527D01*
X327599318Y-250211782D01*
X327667779Y-250169974D01*
X327742913Y-250142101D01*
X327824718Y-250128165D01*
X327868122Y-250126423D01*
X327949730Y-250130064D01*
G37*
G36*
X329355561Y-251251894D02*
G01*
X329283177Y-251226045D01*
X329255544Y-251160303D01*
X329226601Y-250946713D01*
X329218466Y-250870068D01*
X329213708Y-250796800D01*
X329212313Y-250733122D01*
X329215118Y-250656506D01*
X329215976Y-250640799D01*
X329219350Y-250566401D01*
X329219640Y-250548108D01*
X329215696Y-250466025D01*
X329199032Y-250390114D01*
X329147190Y-250338272D01*
X329137208Y-250337449D01*
X329059080Y-250353164D01*
X328990157Y-250394723D01*
X328936462Y-250446672D01*
X328916657Y-250470439D01*
X328871800Y-250534896D01*
X328832118Y-250607368D01*
X328801642Y-250677354D01*
X328775127Y-250753477D01*
X328768279Y-250776353D01*
X328761675Y-250852762D01*
X328759120Y-250874173D01*
X328753281Y-250947262D01*
X328752892Y-250970893D01*
X328757660Y-251046467D01*
X328759120Y-251061018D01*
X328765050Y-251136339D01*
X328765348Y-251150778D01*
X328740232Y-251220136D01*
X328736772Y-251223684D01*
X328666987Y-251251867D01*
X328664232Y-251251894D01*
X328594508Y-251227100D01*
X328590959Y-251223684D01*
X328563589Y-251155656D01*
X328563482Y-251150045D01*
X328558152Y-251074190D01*
X328556521Y-251059553D01*
X328550338Y-250985776D01*
X328549926Y-250968695D01*
X328551658Y-250887933D01*
X328555651Y-250807752D01*
X328561146Y-250725824D01*
X328564581Y-250681099D01*
X328570434Y-250604458D01*
X328575362Y-250526227D01*
X328578663Y-250450152D01*
X328579602Y-250393136D01*
X328576994Y-250316561D01*
X328575938Y-250297515D01*
X328572902Y-250222492D01*
X328572641Y-250201894D01*
X328600147Y-250132553D01*
X328601950Y-250130819D01*
X328671802Y-250103003D01*
X328674490Y-250102976D01*
X328744691Y-250132841D01*
X328775189Y-250207040D01*
X328778904Y-250238897D01*
X328781835Y-250360896D01*
X328836106Y-250293348D01*
X328890842Y-250237248D01*
X328957140Y-250185041D01*
X329024107Y-250149321D01*
X329103083Y-250128484D01*
X329137208Y-250126423D01*
X329213389Y-250135124D01*
X329284148Y-250165714D01*
X329339085Y-250218329D01*
X329366919Y-250265642D01*
X329392633Y-250339886D01*
X329406589Y-250416280D01*
X329413641Y-250496010D01*
X329415279Y-250540048D01*
X329415279Y-250639699D01*
X329414180Y-250731657D01*
X329417807Y-250806196D01*
X329426544Y-250881546D01*
X329436161Y-250943415D01*
X329447947Y-251019715D01*
X329455869Y-251092653D01*
X329458510Y-251154075D01*
X329431004Y-251223073D01*
X329429200Y-251224783D01*
X329361044Y-251251788D01*
X329355561Y-251251894D01*
G37*
G36*
X330631242Y-249588600D02*
G01*
X330654689Y-249663339D01*
X330652725Y-249742186D01*
X330648919Y-249818706D01*
X330644431Y-249892042D01*
X330638661Y-249976151D01*
X330631608Y-250071033D01*
X330625477Y-250149265D01*
X330618625Y-250233557D01*
X330613656Y-250293119D01*
X330608206Y-250368430D01*
X330604314Y-250443786D01*
X330601978Y-250519188D01*
X330601200Y-250594637D01*
X330601698Y-250677389D01*
X330603192Y-250754921D01*
X330606460Y-250844494D01*
X330611285Y-250925910D01*
X330617666Y-250999169D01*
X330627377Y-251076311D01*
X330633073Y-251110478D01*
X330634905Y-251133925D01*
X330605963Y-251201702D01*
X330539284Y-251228447D01*
X330472766Y-251192097D01*
X330445495Y-251135390D01*
X330379618Y-251178597D01*
X330311497Y-251212687D01*
X330291622Y-251220753D01*
X330220406Y-251242041D01*
X330146525Y-251251408D01*
X330124926Y-251251894D01*
X330047543Y-251246884D01*
X329975312Y-251231853D01*
X329897554Y-251201652D01*
X329826809Y-251157811D01*
X329771751Y-251109378D01*
X329722695Y-251051801D01*
X329683789Y-250988427D01*
X329655033Y-250919257D01*
X329636425Y-250844291D01*
X329627967Y-250763529D01*
X329627404Y-250735321D01*
X329627607Y-250730558D01*
X329809853Y-250730558D01*
X329819048Y-250806543D01*
X329846632Y-250875587D01*
X329892607Y-250937690D01*
X329904009Y-250949277D01*
X329966197Y-250997577D01*
X330034612Y-251027988D01*
X330109251Y-251040511D01*
X330124926Y-251040868D01*
X330200371Y-251034187D01*
X330271472Y-251010460D01*
X330336402Y-250967018D01*
X330385778Y-250928394D01*
X330415453Y-250897986D01*
X330412522Y-250727627D01*
X330413621Y-250613321D01*
X330415453Y-250497184D01*
X330376424Y-250434943D01*
X330319454Y-250382530D01*
X330311406Y-250377383D01*
X330240148Y-250347432D01*
X330167279Y-250337605D01*
X330156067Y-250337449D01*
X330074849Y-250343586D01*
X329996452Y-250365159D01*
X329931791Y-250402267D01*
X329896315Y-250435635D01*
X329854519Y-250498511D01*
X329828851Y-250567588D01*
X329813990Y-250649076D01*
X329809853Y-250730558D01*
X329627607Y-250730558D01*
X329630963Y-250651679D01*
X329641643Y-250573405D01*
X329659443Y-250500497D01*
X329690200Y-250420091D01*
X329731210Y-250347414D01*
X329773217Y-250292752D01*
X329830949Y-250236226D01*
X329894786Y-250191396D01*
X329964729Y-250158260D01*
X330040777Y-250136819D01*
X330122930Y-250127073D01*
X330151671Y-250126423D01*
X330227540Y-250130795D01*
X330300461Y-250147237D01*
X330336318Y-250163426D01*
X330433039Y-250234501D01*
X330435766Y-250156193D01*
X330438590Y-250082839D01*
X330442505Y-249992736D01*
X330446593Y-249911437D01*
X330451943Y-249822195D01*
X330457562Y-249746709D01*
X330465879Y-249664140D01*
X330467110Y-249654546D01*
X330497152Y-249586402D01*
X330560900Y-249563688D01*
X330631242Y-249588600D01*
G37*
G36*
X331698461Y-250422079D02*
G01*
X331682990Y-250494041D01*
X331628266Y-250544031D01*
X331595512Y-250548475D01*
X331526333Y-250520040D01*
X331506852Y-250447725D01*
X331503555Y-250376284D01*
X331500624Y-250290554D01*
X331423321Y-250303560D01*
X331345990Y-250326074D01*
X331278859Y-250356935D01*
X331239773Y-250382145D01*
X331180440Y-250436247D01*
X331132813Y-250499331D01*
X331095087Y-250567424D01*
X331087365Y-250584012D01*
X331089563Y-251147847D01*
X331070069Y-251218973D01*
X331000047Y-251251488D01*
X330987714Y-251251894D01*
X330916820Y-251222736D01*
X330896856Y-251148579D01*
X330896856Y-250431971D01*
X330898549Y-250354949D01*
X330899420Y-250330854D01*
X330901682Y-250256893D01*
X330901985Y-250229738D01*
X330921949Y-250155581D01*
X330992843Y-250126423D01*
X331061926Y-250157488D01*
X331089443Y-250225483D01*
X331094692Y-250288722D01*
X331157572Y-250235211D01*
X331222562Y-250190770D01*
X331289663Y-250155398D01*
X331358875Y-250129096D01*
X331430198Y-250111864D01*
X331503632Y-250103701D01*
X331533597Y-250102976D01*
X331606503Y-250118455D01*
X331658161Y-250164891D01*
X331687876Y-250236440D01*
X331698549Y-250313617D01*
X331699560Y-250351004D01*
X331698461Y-250422079D01*
G37*
G36*
X332472149Y-250134102D02*
G01*
X332549094Y-250154822D01*
X332596786Y-250172951D01*
X332664438Y-250207425D01*
X332720200Y-250259340D01*
X332736737Y-250312903D01*
X332715854Y-250362362D01*
X332704284Y-250436067D01*
X332699734Y-250492055D01*
X332696282Y-250566535D01*
X332694295Y-250647391D01*
X332693506Y-250722498D01*
X332694751Y-250797574D01*
X332701346Y-250873686D01*
X332711092Y-250925464D01*
X332734502Y-250999478D01*
X332762984Y-251074809D01*
X332775938Y-251107547D01*
X332799385Y-251162501D01*
X332805614Y-251180087D01*
X332776671Y-251248230D01*
X332709626Y-251275341D01*
X332647954Y-251232013D01*
X332638551Y-251222585D01*
X332590008Y-251165054D01*
X332569675Y-251134658D01*
X332504439Y-251171120D01*
X332434487Y-251205618D01*
X332395286Y-251222219D01*
X332322415Y-251245374D01*
X332269623Y-251251894D01*
X332183820Y-251247141D01*
X332107215Y-251232883D01*
X332029464Y-251204235D01*
X331964231Y-251162649D01*
X331918279Y-251116706D01*
X331877737Y-251054618D01*
X331847153Y-250979592D01*
X331828864Y-250904987D01*
X331817890Y-250820877D01*
X331814333Y-250743523D01*
X331814259Y-250731657D01*
X332017564Y-250731657D01*
X332022288Y-250812508D01*
X332038617Y-250887999D01*
X332073607Y-250958659D01*
X332077281Y-250963565D01*
X332135718Y-251013616D01*
X332207262Y-251037169D01*
X332256800Y-251040868D01*
X332332213Y-251035427D01*
X332406906Y-251015624D01*
X332424595Y-251007896D01*
X332489673Y-250966242D01*
X332528642Y-250936088D01*
X332519143Y-250861075D01*
X332509870Y-250779158D01*
X332502914Y-250706077D01*
X332497730Y-250631983D01*
X332495669Y-250562030D01*
X332499582Y-250488450D01*
X332501165Y-250473736D01*
X332512705Y-250398792D01*
X332518018Y-250372254D01*
X332452805Y-250345875D01*
X332409207Y-250337449D01*
X332332065Y-250344914D01*
X332260372Y-250367308D01*
X332194129Y-250404631D01*
X332133335Y-250456884D01*
X332082685Y-250518708D01*
X332046507Y-250585111D01*
X332024800Y-250656094D01*
X332017564Y-250731657D01*
X331814259Y-250731657D01*
X331814232Y-250727260D01*
X331818418Y-250651399D01*
X331830976Y-250579062D01*
X331857096Y-250496909D01*
X331895273Y-250419831D01*
X331945505Y-250347827D01*
X331985690Y-250302644D01*
X332041005Y-250251877D01*
X332111656Y-250202315D01*
X332186969Y-250165144D01*
X332266945Y-250140362D01*
X332351584Y-250127972D01*
X332395652Y-250126423D01*
X332472149Y-250134102D01*
G37*
G36*
X334866779Y-249914665D02*
G01*
X334791198Y-249912609D01*
X334714462Y-249908230D01*
X334631573Y-249902208D01*
X334550490Y-249896805D01*
X334474198Y-249893113D01*
X334396734Y-249891950D01*
X334323461Y-249891950D01*
X334326300Y-249973008D01*
X334330233Y-250048107D01*
X334335711Y-250135468D01*
X334341457Y-250217635D01*
X334348276Y-250308317D01*
X334351304Y-250346974D01*
X334357848Y-250435478D01*
X334363283Y-250517577D01*
X334367608Y-250593272D01*
X334371335Y-250675653D01*
X334373664Y-250760107D01*
X334374019Y-250802732D01*
X334378141Y-250876646D01*
X334381346Y-250910443D01*
X334387464Y-250983621D01*
X334388674Y-251019253D01*
X334380666Y-251094327D01*
X334365959Y-251137955D01*
X334317330Y-251195571D01*
X334276200Y-251205000D01*
X334206347Y-251179884D01*
X334202194Y-251176423D01*
X334169350Y-251108674D01*
X334169221Y-251103150D01*
X334174351Y-251057355D01*
X334179480Y-251011559D01*
X334177155Y-250934520D01*
X334172885Y-250861716D01*
X334168377Y-250783778D01*
X334166290Y-250710774D01*
X334164802Y-250630655D01*
X334161058Y-250548416D01*
X334156035Y-250468913D01*
X334149337Y-250381088D01*
X334142477Y-250301545D01*
X334135228Y-250216294D01*
X334129053Y-250138914D01*
X334123060Y-250056448D01*
X334118021Y-249974562D01*
X334114838Y-249899870D01*
X334114633Y-249891950D01*
X334020844Y-249893049D01*
X333939614Y-249891916D01*
X333865185Y-249888515D01*
X333786946Y-249881683D01*
X333708865Y-249870097D01*
X333666203Y-249860809D01*
X333601026Y-249821998D01*
X333582672Y-249760792D01*
X333607771Y-249689864D01*
X333609417Y-249687885D01*
X333677097Y-249655147D01*
X333688918Y-249655279D01*
X333764360Y-249662926D01*
X333838025Y-249671958D01*
X333853782Y-249673963D01*
X333930958Y-249681791D01*
X334008180Y-249685947D01*
X334020478Y-249686053D01*
X334098330Y-249685412D01*
X334177636Y-249684090D01*
X334208056Y-249683489D01*
X334287082Y-249682029D01*
X334360830Y-249681084D01*
X334395635Y-249680924D01*
X334472866Y-249682799D01*
X334549474Y-249686791D01*
X334631207Y-249692281D01*
X334704457Y-249697250D01*
X334782560Y-249701465D01*
X334856542Y-249703594D01*
X334866779Y-249703639D01*
X334937018Y-249730365D01*
X334940785Y-249734047D01*
X334970562Y-249801198D01*
X334970826Y-249809518D01*
X334944422Y-249880401D01*
X334940785Y-249884256D01*
X334872263Y-249914546D01*
X334866779Y-249914665D01*
G37*
G36*
X335896263Y-251251894D02*
G01*
X335827075Y-251224513D01*
X335800275Y-251174225D01*
X335783205Y-251101135D01*
X335769767Y-251025115D01*
X335758284Y-250944950D01*
X335757044Y-250935355D01*
X335748189Y-250856095D01*
X335741749Y-250777885D01*
X335738798Y-250703838D01*
X335738726Y-250691723D01*
X335740980Y-250617427D01*
X335741290Y-250610757D01*
X335743815Y-250536906D01*
X335743855Y-250529790D01*
X335739227Y-250454845D01*
X335716558Y-250379711D01*
X335653085Y-250337637D01*
X335647135Y-250337449D01*
X335567916Y-250349077D01*
X335494206Y-250383960D01*
X335432579Y-250435238D01*
X335413028Y-250456517D01*
X335368000Y-250517740D01*
X335327061Y-250584146D01*
X335290972Y-250647937D01*
X335268681Y-250689159D01*
X335268165Y-250784161D01*
X335266620Y-250868952D01*
X335264044Y-250943530D01*
X335259375Y-251022391D01*
X335251647Y-251095962D01*
X335235708Y-251163234D01*
X335187079Y-251219276D01*
X335145949Y-251228447D01*
X335075967Y-251203331D01*
X335071943Y-251199870D01*
X335040100Y-251132448D01*
X335040069Y-251129895D01*
X335049228Y-251084832D01*
X335057921Y-251008887D01*
X335060586Y-250935355D01*
X335063883Y-250783681D01*
X335066814Y-250030069D01*
X335070986Y-249952496D01*
X335073884Y-249878387D01*
X335074141Y-249858977D01*
X335068577Y-249783689D01*
X335064249Y-249760059D01*
X335054831Y-249684899D01*
X335054357Y-249662972D01*
X335082207Y-249593675D01*
X335084033Y-249591898D01*
X335152275Y-249563798D01*
X335157672Y-249563688D01*
X335227739Y-249588193D01*
X335256591Y-249650516D01*
X335267028Y-249725362D01*
X335272317Y-249798932D01*
X335272711Y-249823440D01*
X335271732Y-249902437D01*
X335269115Y-249977024D01*
X335265750Y-250039595D01*
X335262334Y-250114921D01*
X335260649Y-250191287D01*
X335260621Y-250261612D01*
X335261720Y-250352103D01*
X335310223Y-250292946D01*
X335366222Y-250237819D01*
X335430383Y-250190073D01*
X335442337Y-250182843D01*
X335509966Y-250150721D01*
X335586902Y-250130886D01*
X335646769Y-250126423D01*
X335725606Y-250133361D01*
X335798258Y-250157753D01*
X335859066Y-250205452D01*
X335881608Y-250237431D01*
X335910167Y-250311225D01*
X335924351Y-250386248D01*
X335931753Y-250467094D01*
X335933265Y-250500847D01*
X335941692Y-250697219D01*
X335962208Y-250911542D01*
X335972811Y-250990780D01*
X335984971Y-251063265D01*
X335997379Y-251123300D01*
X336001409Y-251152976D01*
X335972184Y-251221907D01*
X335970268Y-251223684D01*
X335901618Y-251251784D01*
X335896263Y-251251894D01*
G37*
G36*
X336812833Y-250134102D02*
G01*
X336889778Y-250154822D01*
X336937470Y-250172951D01*
X337005122Y-250207425D01*
X337060884Y-250259340D01*
X337077421Y-250312903D01*
X337056538Y-250362362D01*
X337044968Y-250436067D01*
X337040418Y-250492055D01*
X337036966Y-250566535D01*
X337034979Y-250647391D01*
X337034190Y-250722498D01*
X337035435Y-250797574D01*
X337042030Y-250873686D01*
X337051775Y-250925464D01*
X337075186Y-250999478D01*
X337103668Y-251074809D01*
X337116622Y-251107547D01*
X337140069Y-251162501D01*
X337146297Y-251180087D01*
X337117355Y-251248230D01*
X337050310Y-251275341D01*
X336988638Y-251232013D01*
X336979235Y-251222585D01*
X336930692Y-251165054D01*
X336910359Y-251134658D01*
X336845123Y-251171120D01*
X336775170Y-251205618D01*
X336735969Y-251222219D01*
X336663098Y-251245374D01*
X336610307Y-251251894D01*
X336524504Y-251247141D01*
X336447898Y-251232883D01*
X336370148Y-251204235D01*
X336304915Y-251162649D01*
X336258963Y-251116706D01*
X336218421Y-251054618D01*
X336187837Y-250979592D01*
X336169547Y-250904987D01*
X336158574Y-250820877D01*
X336155017Y-250743523D01*
X336154943Y-250731657D01*
X336358248Y-250731657D01*
X336362972Y-250812508D01*
X336379301Y-250887999D01*
X336414291Y-250958659D01*
X336417965Y-250963565D01*
X336476402Y-251013616D01*
X336547946Y-251037169D01*
X336597484Y-251040868D01*
X336672897Y-251035427D01*
X336747590Y-251015624D01*
X336765279Y-251007896D01*
X336830357Y-250966242D01*
X336869326Y-250936088D01*
X336859827Y-250861075D01*
X336850553Y-250779158D01*
X336843598Y-250706077D01*
X336838414Y-250631983D01*
X336836353Y-250562030D01*
X336840266Y-250488450D01*
X336841849Y-250473736D01*
X336853389Y-250398792D01*
X336858702Y-250372254D01*
X336793489Y-250345875D01*
X336749891Y-250337449D01*
X336672749Y-250344914D01*
X336601056Y-250367308D01*
X336534813Y-250404631D01*
X336474019Y-250456884D01*
X336423369Y-250518708D01*
X336387191Y-250585111D01*
X336365484Y-250656094D01*
X336358248Y-250731657D01*
X336154943Y-250731657D01*
X336154916Y-250727260D01*
X336159102Y-250651399D01*
X336171660Y-250579062D01*
X336197780Y-250496909D01*
X336235957Y-250419831D01*
X336286189Y-250347827D01*
X336326374Y-250302644D01*
X336381688Y-250251877D01*
X336452340Y-250202315D01*
X336527653Y-250165144D01*
X336607629Y-250140362D01*
X336692268Y-250127972D01*
X336736336Y-250126423D01*
X336812833Y-250134102D01*
G37*
G36*
X338178346Y-251264717D02*
G01*
X338110153Y-251233867D01*
X338090785Y-251205000D01*
X338051987Y-251135984D01*
X338007893Y-251067447D01*
X337961399Y-251001415D01*
X337928852Y-250957704D01*
X337746402Y-250708576D01*
X337686998Y-250753561D01*
X337626491Y-250796724D01*
X337561022Y-250841933D01*
X337556053Y-250920220D01*
X337552504Y-250997546D01*
X337550374Y-251073910D01*
X337549665Y-251149312D01*
X337524549Y-251219723D01*
X337521088Y-251223318D01*
X337451303Y-251251866D01*
X337448548Y-251251894D01*
X337377422Y-251225107D01*
X337347041Y-251152261D01*
X337344501Y-251111943D01*
X337346149Y-251035745D01*
X337350042Y-250954064D01*
X337354805Y-250876819D01*
X337356224Y-250855854D01*
X337361514Y-250775964D01*
X337365658Y-250698732D01*
X337368125Y-250622520D01*
X337368314Y-250599766D01*
X337368589Y-250518753D01*
X337369280Y-250443285D01*
X337370392Y-250363538D01*
X337371925Y-250279514D01*
X337372711Y-250242194D01*
X337374329Y-250168280D01*
X337375794Y-250086215D01*
X337376804Y-250008637D01*
X337377399Y-249925472D01*
X337377473Y-249886088D01*
X337375013Y-249810876D01*
X337372711Y-249776912D01*
X337368834Y-249701463D01*
X337368314Y-249667735D01*
X337391483Y-249598146D01*
X337396524Y-249592630D01*
X337466332Y-249563716D01*
X337469064Y-249563688D01*
X337538015Y-249589126D01*
X337541605Y-249592630D01*
X337570069Y-249662354D01*
X337570181Y-249668101D01*
X337572605Y-249741555D01*
X337575310Y-249780209D01*
X337580033Y-249854226D01*
X337580806Y-249892316D01*
X337573478Y-250224975D01*
X337571567Y-250303532D01*
X337570323Y-250382124D01*
X337569744Y-250460751D01*
X337569832Y-250539413D01*
X337570181Y-250584378D01*
X337631061Y-250524487D01*
X337682435Y-250471198D01*
X337733062Y-250416106D01*
X337782942Y-250359211D01*
X337832075Y-250300513D01*
X337840191Y-250290554D01*
X338066971Y-249998196D01*
X338132939Y-249963334D01*
X338140244Y-249963025D01*
X338206606Y-249999432D01*
X338212784Y-250007355D01*
X338240805Y-250075476D01*
X338245390Y-250128988D01*
X338234799Y-250204606D01*
X338215348Y-250255750D01*
X338165752Y-250311464D01*
X338112034Y-250368699D01*
X338054194Y-250427453D01*
X337992233Y-250487727D01*
X337937450Y-250539116D01*
X337903206Y-250570457D01*
X338127787Y-250882233D01*
X338173171Y-250946096D01*
X338217479Y-251013003D01*
X338255170Y-251077648D01*
X338283939Y-251150046D01*
X338285324Y-251163600D01*
X338254724Y-251232809D01*
X338252718Y-251234675D01*
X338183573Y-251264600D01*
X338178346Y-251264717D01*
G37*
G36*
X339295024Y-250596468D02*
G01*
X339295234Y-250672263D01*
X339295695Y-250750903D01*
X339296123Y-250809692D01*
X339296654Y-250884029D01*
X339297068Y-250959616D01*
X339297222Y-251022916D01*
X339300519Y-251089228D01*
X339304183Y-251155174D01*
X339275989Y-251223074D01*
X339274141Y-251224783D01*
X339203923Y-251251868D01*
X339201235Y-251251894D01*
X339130111Y-251230681D01*
X339100118Y-251184849D01*
X339024654Y-251217259D01*
X338952320Y-251237163D01*
X338875040Y-251248686D01*
X338803363Y-251251894D01*
X338723607Y-251246170D01*
X338646289Y-251226649D01*
X338579881Y-251193276D01*
X338521981Y-251141933D01*
X338482783Y-251076563D01*
X338463377Y-251004965D01*
X338451873Y-250922819D01*
X338442318Y-250843535D01*
X338434714Y-250767114D01*
X338429059Y-250693555D01*
X338424847Y-250609062D01*
X338423443Y-250528691D01*
X338425878Y-250447956D01*
X338432129Y-250371083D01*
X338442227Y-250289400D01*
X338454218Y-250213984D01*
X338488941Y-250145663D01*
X338552037Y-250126423D01*
X338622276Y-250150573D01*
X338626043Y-250153900D01*
X338656055Y-250221922D01*
X338656085Y-250224609D01*
X338650789Y-250298800D01*
X338641064Y-250371887D01*
X338631575Y-250446123D01*
X338626466Y-250519299D01*
X338626409Y-250526127D01*
X338627119Y-250606681D01*
X338629248Y-250681282D01*
X338633341Y-250758092D01*
X338637766Y-250812623D01*
X338646873Y-250888942D01*
X338660985Y-250964848D01*
X338671472Y-251003866D01*
X338738517Y-251031343D01*
X338803363Y-251040868D01*
X338882272Y-251037449D01*
X338963616Y-251027190D01*
X339037965Y-251012329D01*
X339094989Y-250997637D01*
X339094256Y-250792840D01*
X339092058Y-250597201D01*
X339092741Y-250517603D01*
X339094789Y-250442023D01*
X339098903Y-250358926D01*
X339104877Y-250281298D01*
X339111475Y-250219113D01*
X339142158Y-250149596D01*
X339211493Y-250126423D01*
X339281732Y-250150895D01*
X339285498Y-250154267D01*
X339313709Y-250223143D01*
X339295024Y-250596468D01*
G37*
G36*
X340347588Y-250422079D02*
G01*
X340332118Y-250494041D01*
X340277394Y-250544031D01*
X340244640Y-250548475D01*
X340175461Y-250520040D01*
X340155980Y-250447725D01*
X340152683Y-250376284D01*
X340149752Y-250290554D01*
X340072449Y-250303560D01*
X339995117Y-250326074D01*
X339927987Y-250356935D01*
X339888900Y-250382145D01*
X339829568Y-250436247D01*
X339781941Y-250499331D01*
X339744215Y-250567424D01*
X339736493Y-250584012D01*
X339738691Y-251147847D01*
X339719196Y-251218973D01*
X339649175Y-251251488D01*
X339636842Y-251251894D01*
X339565947Y-251222736D01*
X339545983Y-251148579D01*
X339545983Y-250431971D01*
X339547676Y-250354949D01*
X339548548Y-250330854D01*
X339550810Y-250256893D01*
X339551113Y-250229738D01*
X339571077Y-250155581D01*
X339641971Y-250126423D01*
X339711053Y-250157488D01*
X339738571Y-250225483D01*
X339743820Y-250288722D01*
X339806700Y-250235211D01*
X339871690Y-250190770D01*
X339938791Y-250155398D01*
X340008003Y-250129096D01*
X340079326Y-250111864D01*
X340152760Y-250103701D01*
X340182725Y-250102976D01*
X340255631Y-250118455D01*
X340307288Y-250164891D01*
X340337004Y-250236440D01*
X340347677Y-250313617D01*
X340348688Y-250351004D01*
X340347588Y-250422079D01*
G37*
D11*
X333358333Y-193350866D02*
X333358333Y-194350866D01*
X333358333Y-194350866D02*
X333291666Y-194550866D01*
X333291666Y-194550866D02*
X333158333Y-194684200D01*
X333158333Y-194684200D02*
X332958333Y-194750866D01*
X332958333Y-194750866D02*
X332825000Y-194750866D01*
X333958333Y-193484200D02*
X334025000Y-193417533D01*
X334025000Y-193417533D02*
X334158333Y-193350866D01*
X334158333Y-193350866D02*
X334491667Y-193350866D01*
X334491667Y-193350866D02*
X334625000Y-193417533D01*
X334625000Y-193417533D02*
X334691667Y-193484200D01*
X334691667Y-193484200D02*
X334758333Y-193617533D01*
X334758333Y-193617533D02*
X334758333Y-193750866D01*
X334758333Y-193750866D02*
X334691667Y-193950866D01*
X334691667Y-193950866D02*
X333891667Y-194750866D01*
X333891667Y-194750866D02*
X334758333Y-194750866D01*
D10*
X316527419Y-241817619D02*
X315527419Y-241817619D01*
X315527419Y-241817619D02*
X315527419Y-241579524D01*
X315527419Y-241579524D02*
X315575038Y-241436667D01*
X315575038Y-241436667D02*
X315670276Y-241341429D01*
X315670276Y-241341429D02*
X315765514Y-241293810D01*
X315765514Y-241293810D02*
X315955990Y-241246191D01*
X315955990Y-241246191D02*
X316098847Y-241246191D01*
X316098847Y-241246191D02*
X316289323Y-241293810D01*
X316289323Y-241293810D02*
X316384561Y-241341429D01*
X316384561Y-241341429D02*
X316479800Y-241436667D01*
X316479800Y-241436667D02*
X316527419Y-241579524D01*
X316527419Y-241579524D02*
X316527419Y-241817619D01*
X316527419Y-240246191D02*
X316051228Y-240579524D01*
X316527419Y-240817619D02*
X315527419Y-240817619D01*
X315527419Y-240817619D02*
X315527419Y-240436667D01*
X315527419Y-240436667D02*
X315575038Y-240341429D01*
X315575038Y-240341429D02*
X315622657Y-240293810D01*
X315622657Y-240293810D02*
X315717895Y-240246191D01*
X315717895Y-240246191D02*
X315860752Y-240246191D01*
X315860752Y-240246191D02*
X315955990Y-240293810D01*
X315955990Y-240293810D02*
X316003609Y-240341429D01*
X316003609Y-240341429D02*
X316051228Y-240436667D01*
X316051228Y-240436667D02*
X316051228Y-240817619D01*
X315527419Y-239960476D02*
X316527419Y-239627143D01*
X316527419Y-239627143D02*
X315527419Y-239293810D01*
X315955990Y-238817619D02*
X315908371Y-238912857D01*
X315908371Y-238912857D02*
X315860752Y-238960476D01*
X315860752Y-238960476D02*
X315765514Y-239008095D01*
X315765514Y-239008095D02*
X315717895Y-239008095D01*
X315717895Y-239008095D02*
X315622657Y-238960476D01*
X315622657Y-238960476D02*
X315575038Y-238912857D01*
X315575038Y-238912857D02*
X315527419Y-238817619D01*
X315527419Y-238817619D02*
X315527419Y-238627143D01*
X315527419Y-238627143D02*
X315575038Y-238531905D01*
X315575038Y-238531905D02*
X315622657Y-238484286D01*
X315622657Y-238484286D02*
X315717895Y-238436667D01*
X315717895Y-238436667D02*
X315765514Y-238436667D01*
X315765514Y-238436667D02*
X315860752Y-238484286D01*
X315860752Y-238484286D02*
X315908371Y-238531905D01*
X315908371Y-238531905D02*
X315955990Y-238627143D01*
X315955990Y-238627143D02*
X315955990Y-238817619D01*
X315955990Y-238817619D02*
X316003609Y-238912857D01*
X316003609Y-238912857D02*
X316051228Y-238960476D01*
X316051228Y-238960476D02*
X316146466Y-239008095D01*
X316146466Y-239008095D02*
X316336942Y-239008095D01*
X316336942Y-239008095D02*
X316432180Y-238960476D01*
X316432180Y-238960476D02*
X316479800Y-238912857D01*
X316479800Y-238912857D02*
X316527419Y-238817619D01*
X316527419Y-238817619D02*
X316527419Y-238627143D01*
X316527419Y-238627143D02*
X316479800Y-238531905D01*
X316479800Y-238531905D02*
X316432180Y-238484286D01*
X316432180Y-238484286D02*
X316336942Y-238436667D01*
X316336942Y-238436667D02*
X316146466Y-238436667D01*
X316146466Y-238436667D02*
X316051228Y-238484286D01*
X316051228Y-238484286D02*
X316003609Y-238531905D01*
X316003609Y-238531905D02*
X315955990Y-238627143D01*
X315955990Y-237865238D02*
X315908371Y-237960476D01*
X315908371Y-237960476D02*
X315860752Y-238008095D01*
X315860752Y-238008095D02*
X315765514Y-238055714D01*
X315765514Y-238055714D02*
X315717895Y-238055714D01*
X315717895Y-238055714D02*
X315622657Y-238008095D01*
X315622657Y-238008095D02*
X315575038Y-237960476D01*
X315575038Y-237960476D02*
X315527419Y-237865238D01*
X315527419Y-237865238D02*
X315527419Y-237674762D01*
X315527419Y-237674762D02*
X315575038Y-237579524D01*
X315575038Y-237579524D02*
X315622657Y-237531905D01*
X315622657Y-237531905D02*
X315717895Y-237484286D01*
X315717895Y-237484286D02*
X315765514Y-237484286D01*
X315765514Y-237484286D02*
X315860752Y-237531905D01*
X315860752Y-237531905D02*
X315908371Y-237579524D01*
X315908371Y-237579524D02*
X315955990Y-237674762D01*
X315955990Y-237674762D02*
X315955990Y-237865238D01*
X315955990Y-237865238D02*
X316003609Y-237960476D01*
X316003609Y-237960476D02*
X316051228Y-238008095D01*
X316051228Y-238008095D02*
X316146466Y-238055714D01*
X316146466Y-238055714D02*
X316336942Y-238055714D01*
X316336942Y-238055714D02*
X316432180Y-238008095D01*
X316432180Y-238008095D02*
X316479800Y-237960476D01*
X316479800Y-237960476D02*
X316527419Y-237865238D01*
X316527419Y-237865238D02*
X316527419Y-237674762D01*
X316527419Y-237674762D02*
X316479800Y-237579524D01*
X316479800Y-237579524D02*
X316432180Y-237531905D01*
X316432180Y-237531905D02*
X316336942Y-237484286D01*
X316336942Y-237484286D02*
X316146466Y-237484286D01*
X316146466Y-237484286D02*
X316051228Y-237531905D01*
X316051228Y-237531905D02*
X316003609Y-237579524D01*
X316003609Y-237579524D02*
X315955990Y-237674762D01*
X315527419Y-237150952D02*
X315527419Y-236484286D01*
X315527419Y-236484286D02*
X316527419Y-236912857D01*
X315860752Y-235674762D02*
X316527419Y-235674762D01*
X315479800Y-235912857D02*
X316194085Y-236150952D01*
X316194085Y-236150952D02*
X316194085Y-235531905D01*
X316622657Y-235389048D02*
X316622657Y-234627143D01*
X316432180Y-233817619D02*
X316479800Y-233865238D01*
X316479800Y-233865238D02*
X316527419Y-234008095D01*
X316527419Y-234008095D02*
X316527419Y-234103333D01*
X316527419Y-234103333D02*
X316479800Y-234246190D01*
X316479800Y-234246190D02*
X316384561Y-234341428D01*
X316384561Y-234341428D02*
X316289323Y-234389047D01*
X316289323Y-234389047D02*
X316098847Y-234436666D01*
X316098847Y-234436666D02*
X315955990Y-234436666D01*
X315955990Y-234436666D02*
X315765514Y-234389047D01*
X315765514Y-234389047D02*
X315670276Y-234341428D01*
X315670276Y-234341428D02*
X315575038Y-234246190D01*
X315575038Y-234246190D02*
X315527419Y-234103333D01*
X315527419Y-234103333D02*
X315527419Y-234008095D01*
X315527419Y-234008095D02*
X315575038Y-233865238D01*
X315575038Y-233865238D02*
X315622657Y-233817619D01*
X316527419Y-232960476D02*
X316003609Y-232960476D01*
X316003609Y-232960476D02*
X315908371Y-233008095D01*
X315908371Y-233008095D02*
X315860752Y-233103333D01*
X315860752Y-233103333D02*
X315860752Y-233293809D01*
X315860752Y-233293809D02*
X315908371Y-233389047D01*
X316479800Y-232960476D02*
X316527419Y-233055714D01*
X316527419Y-233055714D02*
X316527419Y-233293809D01*
X316527419Y-233293809D02*
X316479800Y-233389047D01*
X316479800Y-233389047D02*
X316384561Y-233436666D01*
X316384561Y-233436666D02*
X316289323Y-233436666D01*
X316289323Y-233436666D02*
X316194085Y-233389047D01*
X316194085Y-233389047D02*
X316146466Y-233293809D01*
X316146466Y-233293809D02*
X316146466Y-233055714D01*
X316146466Y-233055714D02*
X316098847Y-232960476D01*
X316527419Y-232484285D02*
X315860752Y-232484285D01*
X316051228Y-232484285D02*
X315955990Y-232436666D01*
X315955990Y-232436666D02*
X315908371Y-232389047D01*
X315908371Y-232389047D02*
X315860752Y-232293809D01*
X315860752Y-232293809D02*
X315860752Y-232198571D01*
X316527419Y-231865237D02*
X315860752Y-231865237D01*
X316051228Y-231865237D02*
X315955990Y-231817618D01*
X315955990Y-231817618D02*
X315908371Y-231769999D01*
X315908371Y-231769999D02*
X315860752Y-231674761D01*
X315860752Y-231674761D02*
X315860752Y-231579523D01*
X316527419Y-231246189D02*
X315860752Y-231246189D01*
X315527419Y-231246189D02*
X315575038Y-231293808D01*
X315575038Y-231293808D02*
X315622657Y-231246189D01*
X315622657Y-231246189D02*
X315575038Y-231198570D01*
X315575038Y-231198570D02*
X315527419Y-231246189D01*
X315527419Y-231246189D02*
X315622657Y-231246189D01*
X316479800Y-230389047D02*
X316527419Y-230484285D01*
X316527419Y-230484285D02*
X316527419Y-230674761D01*
X316527419Y-230674761D02*
X316479800Y-230769999D01*
X316479800Y-230769999D02*
X316384561Y-230817618D01*
X316384561Y-230817618D02*
X316003609Y-230817618D01*
X316003609Y-230817618D02*
X315908371Y-230769999D01*
X315908371Y-230769999D02*
X315860752Y-230674761D01*
X315860752Y-230674761D02*
X315860752Y-230484285D01*
X315860752Y-230484285D02*
X315908371Y-230389047D01*
X315908371Y-230389047D02*
X316003609Y-230341428D01*
X316003609Y-230341428D02*
X316098847Y-230341428D01*
X316098847Y-230341428D02*
X316194085Y-230817618D01*
X316527419Y-229912856D02*
X315860752Y-229912856D01*
X316051228Y-229912856D02*
X315955990Y-229865237D01*
X315955990Y-229865237D02*
X315908371Y-229817618D01*
X315908371Y-229817618D02*
X315860752Y-229722380D01*
X315860752Y-229722380D02*
X315860752Y-229627142D01*
X316622657Y-229531904D02*
X316622657Y-228769999D01*
X316003609Y-228198570D02*
X316051228Y-228055713D01*
X316051228Y-228055713D02*
X316098847Y-228008094D01*
X316098847Y-228008094D02*
X316194085Y-227960475D01*
X316194085Y-227960475D02*
X316336942Y-227960475D01*
X316336942Y-227960475D02*
X316432180Y-228008094D01*
X316432180Y-228008094D02*
X316479800Y-228055713D01*
X316479800Y-228055713D02*
X316527419Y-228150951D01*
X316527419Y-228150951D02*
X316527419Y-228531903D01*
X316527419Y-228531903D02*
X315527419Y-228531903D01*
X315527419Y-228531903D02*
X315527419Y-228198570D01*
X315527419Y-228198570D02*
X315575038Y-228103332D01*
X315575038Y-228103332D02*
X315622657Y-228055713D01*
X315622657Y-228055713D02*
X315717895Y-228008094D01*
X315717895Y-228008094D02*
X315813133Y-228008094D01*
X315813133Y-228008094D02*
X315908371Y-228055713D01*
X315908371Y-228055713D02*
X315955990Y-228103332D01*
X315955990Y-228103332D02*
X316003609Y-228198570D01*
X316003609Y-228198570D02*
X316003609Y-228531903D01*
X316527419Y-227389046D02*
X316479800Y-227484284D01*
X316479800Y-227484284D02*
X316432180Y-227531903D01*
X316432180Y-227531903D02*
X316336942Y-227579522D01*
X316336942Y-227579522D02*
X316051228Y-227579522D01*
X316051228Y-227579522D02*
X315955990Y-227531903D01*
X315955990Y-227531903D02*
X315908371Y-227484284D01*
X315908371Y-227484284D02*
X315860752Y-227389046D01*
X315860752Y-227389046D02*
X315860752Y-227246189D01*
X315860752Y-227246189D02*
X315908371Y-227150951D01*
X315908371Y-227150951D02*
X315955990Y-227103332D01*
X315955990Y-227103332D02*
X316051228Y-227055713D01*
X316051228Y-227055713D02*
X316336942Y-227055713D01*
X316336942Y-227055713D02*
X316432180Y-227103332D01*
X316432180Y-227103332D02*
X316479800Y-227150951D01*
X316479800Y-227150951D02*
X316527419Y-227246189D01*
X316527419Y-227246189D02*
X316527419Y-227389046D01*
X316527419Y-226198570D02*
X316003609Y-226198570D01*
X316003609Y-226198570D02*
X315908371Y-226246189D01*
X315908371Y-226246189D02*
X315860752Y-226341427D01*
X315860752Y-226341427D02*
X315860752Y-226531903D01*
X315860752Y-226531903D02*
X315908371Y-226627141D01*
X316479800Y-226198570D02*
X316527419Y-226293808D01*
X316527419Y-226293808D02*
X316527419Y-226531903D01*
X316527419Y-226531903D02*
X316479800Y-226627141D01*
X316479800Y-226627141D02*
X316384561Y-226674760D01*
X316384561Y-226674760D02*
X316289323Y-226674760D01*
X316289323Y-226674760D02*
X316194085Y-226627141D01*
X316194085Y-226627141D02*
X316146466Y-226531903D01*
X316146466Y-226531903D02*
X316146466Y-226293808D01*
X316146466Y-226293808D02*
X316098847Y-226198570D01*
X316527419Y-225722379D02*
X315860752Y-225722379D01*
X316051228Y-225722379D02*
X315955990Y-225674760D01*
X315955990Y-225674760D02*
X315908371Y-225627141D01*
X315908371Y-225627141D02*
X315860752Y-225531903D01*
X315860752Y-225531903D02*
X315860752Y-225436665D01*
X316527419Y-224674760D02*
X315527419Y-224674760D01*
X316479800Y-224674760D02*
X316527419Y-224769998D01*
X316527419Y-224769998D02*
X316527419Y-224960474D01*
X316527419Y-224960474D02*
X316479800Y-225055712D01*
X316479800Y-225055712D02*
X316432180Y-225103331D01*
X316432180Y-225103331D02*
X316336942Y-225150950D01*
X316336942Y-225150950D02*
X316051228Y-225150950D01*
X316051228Y-225150950D02*
X315955990Y-225103331D01*
X315955990Y-225103331D02*
X315908371Y-225055712D01*
X315908371Y-225055712D02*
X315860752Y-224960474D01*
X315860752Y-224960474D02*
X315860752Y-224769998D01*
X315860752Y-224769998D02*
X315908371Y-224674760D01*
X315527419Y-224293807D02*
X315527419Y-223674760D01*
X315527419Y-223674760D02*
X315908371Y-224008093D01*
X315908371Y-224008093D02*
X315908371Y-223865236D01*
X315908371Y-223865236D02*
X315955990Y-223769998D01*
X315955990Y-223769998D02*
X316003609Y-223722379D01*
X316003609Y-223722379D02*
X316098847Y-223674760D01*
X316098847Y-223674760D02*
X316336942Y-223674760D01*
X316336942Y-223674760D02*
X316432180Y-223722379D01*
X316432180Y-223722379D02*
X316479800Y-223769998D01*
X316479800Y-223769998D02*
X316527419Y-223865236D01*
X316527419Y-223865236D02*
X316527419Y-224150950D01*
X316527419Y-224150950D02*
X316479800Y-224246188D01*
X316479800Y-224246188D02*
X316432180Y-224293807D01*
X267501667Y-204434800D02*
X267644524Y-204482419D01*
X267644524Y-204482419D02*
X267882619Y-204482419D01*
X267882619Y-204482419D02*
X267977857Y-204434800D01*
X267977857Y-204434800D02*
X268025476Y-204387180D01*
X268025476Y-204387180D02*
X268073095Y-204291942D01*
X268073095Y-204291942D02*
X268073095Y-204196704D01*
X268073095Y-204196704D02*
X268025476Y-204101466D01*
X268025476Y-204101466D02*
X267977857Y-204053847D01*
X267977857Y-204053847D02*
X267882619Y-204006228D01*
X267882619Y-204006228D02*
X267692143Y-203958609D01*
X267692143Y-203958609D02*
X267596905Y-203910990D01*
X267596905Y-203910990D02*
X267549286Y-203863371D01*
X267549286Y-203863371D02*
X267501667Y-203768133D01*
X267501667Y-203768133D02*
X267501667Y-203672895D01*
X267501667Y-203672895D02*
X267549286Y-203577657D01*
X267549286Y-203577657D02*
X267596905Y-203530038D01*
X267596905Y-203530038D02*
X267692143Y-203482419D01*
X267692143Y-203482419D02*
X267930238Y-203482419D01*
X267930238Y-203482419D02*
X268073095Y-203530038D01*
X268406429Y-203482419D02*
X268644524Y-204482419D01*
X268644524Y-204482419D02*
X268835000Y-203768133D01*
X268835000Y-203768133D02*
X269025476Y-204482419D01*
X269025476Y-204482419D02*
X269263572Y-203482419D01*
X269596905Y-203577657D02*
X269644524Y-203530038D01*
X269644524Y-203530038D02*
X269739762Y-203482419D01*
X269739762Y-203482419D02*
X269977857Y-203482419D01*
X269977857Y-203482419D02*
X270073095Y-203530038D01*
X270073095Y-203530038D02*
X270120714Y-203577657D01*
X270120714Y-203577657D02*
X270168333Y-203672895D01*
X270168333Y-203672895D02*
X270168333Y-203768133D01*
X270168333Y-203768133D02*
X270120714Y-203910990D01*
X270120714Y-203910990D02*
X269549286Y-204482419D01*
X269549286Y-204482419D02*
X270168333Y-204482419D01*
D12*
X340239047Y-229295270D02*
X340118095Y-229234794D01*
X340118095Y-229234794D02*
X339997142Y-229113842D01*
X339997142Y-229113842D02*
X339815714Y-228932413D01*
X339815714Y-228932413D02*
X339694761Y-228871937D01*
X339694761Y-228871937D02*
X339573809Y-228871937D01*
X339634285Y-229174318D02*
X339513333Y-229113842D01*
X339513333Y-229113842D02*
X339392380Y-228992889D01*
X339392380Y-228992889D02*
X339331904Y-228750984D01*
X339331904Y-228750984D02*
X339331904Y-228327651D01*
X339331904Y-228327651D02*
X339392380Y-228085746D01*
X339392380Y-228085746D02*
X339513333Y-227964794D01*
X339513333Y-227964794D02*
X339634285Y-227904318D01*
X339634285Y-227904318D02*
X339876190Y-227904318D01*
X339876190Y-227904318D02*
X339997142Y-227964794D01*
X339997142Y-227964794D02*
X340118095Y-228085746D01*
X340118095Y-228085746D02*
X340178571Y-228327651D01*
X340178571Y-228327651D02*
X340178571Y-228750984D01*
X340178571Y-228750984D02*
X340118095Y-228992889D01*
X340118095Y-228992889D02*
X339997142Y-229113842D01*
X339997142Y-229113842D02*
X339876190Y-229174318D01*
X339876190Y-229174318D02*
X339634285Y-229174318D01*
X341388095Y-229174318D02*
X340662380Y-229174318D01*
X341025237Y-229174318D02*
X341025237Y-227904318D01*
X341025237Y-227904318D02*
X340904285Y-228085746D01*
X340904285Y-228085746D02*
X340783333Y-228206699D01*
X340783333Y-228206699D02*
X340662380Y-228267175D01*
D10*
X331242580Y-133792380D02*
X332242580Y-133792380D01*
X332242580Y-133792380D02*
X332242580Y-134030475D01*
X332242580Y-134030475D02*
X332194961Y-134173332D01*
X332194961Y-134173332D02*
X332099723Y-134268570D01*
X332099723Y-134268570D02*
X332004485Y-134316189D01*
X332004485Y-134316189D02*
X331814009Y-134363808D01*
X331814009Y-134363808D02*
X331671152Y-134363808D01*
X331671152Y-134363808D02*
X331480676Y-134316189D01*
X331480676Y-134316189D02*
X331385438Y-134268570D01*
X331385438Y-134268570D02*
X331290200Y-134173332D01*
X331290200Y-134173332D02*
X331242580Y-134030475D01*
X331242580Y-134030475D02*
X331242580Y-133792380D01*
X331242580Y-135363808D02*
X331718771Y-135030475D01*
X331242580Y-134792380D02*
X332242580Y-134792380D01*
X332242580Y-134792380D02*
X332242580Y-135173332D01*
X332242580Y-135173332D02*
X332194961Y-135268570D01*
X332194961Y-135268570D02*
X332147342Y-135316189D01*
X332147342Y-135316189D02*
X332052104Y-135363808D01*
X332052104Y-135363808D02*
X331909247Y-135363808D01*
X331909247Y-135363808D02*
X331814009Y-135316189D01*
X331814009Y-135316189D02*
X331766390Y-135268570D01*
X331766390Y-135268570D02*
X331718771Y-135173332D01*
X331718771Y-135173332D02*
X331718771Y-134792380D01*
X332242580Y-135649523D02*
X331242580Y-135982856D01*
X331242580Y-135982856D02*
X332242580Y-136316189D01*
X331814009Y-136792380D02*
X331861628Y-136697142D01*
X331861628Y-136697142D02*
X331909247Y-136649523D01*
X331909247Y-136649523D02*
X332004485Y-136601904D01*
X332004485Y-136601904D02*
X332052104Y-136601904D01*
X332052104Y-136601904D02*
X332147342Y-136649523D01*
X332147342Y-136649523D02*
X332194961Y-136697142D01*
X332194961Y-136697142D02*
X332242580Y-136792380D01*
X332242580Y-136792380D02*
X332242580Y-136982856D01*
X332242580Y-136982856D02*
X332194961Y-137078094D01*
X332194961Y-137078094D02*
X332147342Y-137125713D01*
X332147342Y-137125713D02*
X332052104Y-137173332D01*
X332052104Y-137173332D02*
X332004485Y-137173332D01*
X332004485Y-137173332D02*
X331909247Y-137125713D01*
X331909247Y-137125713D02*
X331861628Y-137078094D01*
X331861628Y-137078094D02*
X331814009Y-136982856D01*
X331814009Y-136982856D02*
X331814009Y-136792380D01*
X331814009Y-136792380D02*
X331766390Y-136697142D01*
X331766390Y-136697142D02*
X331718771Y-136649523D01*
X331718771Y-136649523D02*
X331623533Y-136601904D01*
X331623533Y-136601904D02*
X331433057Y-136601904D01*
X331433057Y-136601904D02*
X331337819Y-136649523D01*
X331337819Y-136649523D02*
X331290200Y-136697142D01*
X331290200Y-136697142D02*
X331242580Y-136792380D01*
X331242580Y-136792380D02*
X331242580Y-136982856D01*
X331242580Y-136982856D02*
X331290200Y-137078094D01*
X331290200Y-137078094D02*
X331337819Y-137125713D01*
X331337819Y-137125713D02*
X331433057Y-137173332D01*
X331433057Y-137173332D02*
X331623533Y-137173332D01*
X331623533Y-137173332D02*
X331718771Y-137125713D01*
X331718771Y-137125713D02*
X331766390Y-137078094D01*
X331766390Y-137078094D02*
X331814009Y-136982856D01*
X331814009Y-137744761D02*
X331861628Y-137649523D01*
X331861628Y-137649523D02*
X331909247Y-137601904D01*
X331909247Y-137601904D02*
X332004485Y-137554285D01*
X332004485Y-137554285D02*
X332052104Y-137554285D01*
X332052104Y-137554285D02*
X332147342Y-137601904D01*
X332147342Y-137601904D02*
X332194961Y-137649523D01*
X332194961Y-137649523D02*
X332242580Y-137744761D01*
X332242580Y-137744761D02*
X332242580Y-137935237D01*
X332242580Y-137935237D02*
X332194961Y-138030475D01*
X332194961Y-138030475D02*
X332147342Y-138078094D01*
X332147342Y-138078094D02*
X332052104Y-138125713D01*
X332052104Y-138125713D02*
X332004485Y-138125713D01*
X332004485Y-138125713D02*
X331909247Y-138078094D01*
X331909247Y-138078094D02*
X331861628Y-138030475D01*
X331861628Y-138030475D02*
X331814009Y-137935237D01*
X331814009Y-137935237D02*
X331814009Y-137744761D01*
X331814009Y-137744761D02*
X331766390Y-137649523D01*
X331766390Y-137649523D02*
X331718771Y-137601904D01*
X331718771Y-137601904D02*
X331623533Y-137554285D01*
X331623533Y-137554285D02*
X331433057Y-137554285D01*
X331433057Y-137554285D02*
X331337819Y-137601904D01*
X331337819Y-137601904D02*
X331290200Y-137649523D01*
X331290200Y-137649523D02*
X331242580Y-137744761D01*
X331242580Y-137744761D02*
X331242580Y-137935237D01*
X331242580Y-137935237D02*
X331290200Y-138030475D01*
X331290200Y-138030475D02*
X331337819Y-138078094D01*
X331337819Y-138078094D02*
X331433057Y-138125713D01*
X331433057Y-138125713D02*
X331623533Y-138125713D01*
X331623533Y-138125713D02*
X331718771Y-138078094D01*
X331718771Y-138078094D02*
X331766390Y-138030475D01*
X331766390Y-138030475D02*
X331814009Y-137935237D01*
X332242580Y-138459047D02*
X332242580Y-139125713D01*
X332242580Y-139125713D02*
X331242580Y-138697142D01*
X331909247Y-139935237D02*
X331242580Y-139935237D01*
X332290200Y-139697142D02*
X331575914Y-139459047D01*
X331575914Y-139459047D02*
X331575914Y-140078094D01*
X331147342Y-140220952D02*
X331147342Y-140982856D01*
X331337819Y-141792380D02*
X331290200Y-141744761D01*
X331290200Y-141744761D02*
X331242580Y-141601904D01*
X331242580Y-141601904D02*
X331242580Y-141506666D01*
X331242580Y-141506666D02*
X331290200Y-141363809D01*
X331290200Y-141363809D02*
X331385438Y-141268571D01*
X331385438Y-141268571D02*
X331480676Y-141220952D01*
X331480676Y-141220952D02*
X331671152Y-141173333D01*
X331671152Y-141173333D02*
X331814009Y-141173333D01*
X331814009Y-141173333D02*
X332004485Y-141220952D01*
X332004485Y-141220952D02*
X332099723Y-141268571D01*
X332099723Y-141268571D02*
X332194961Y-141363809D01*
X332194961Y-141363809D02*
X332242580Y-141506666D01*
X332242580Y-141506666D02*
X332242580Y-141601904D01*
X332242580Y-141601904D02*
X332194961Y-141744761D01*
X332194961Y-141744761D02*
X332147342Y-141792380D01*
X331242580Y-142649523D02*
X331766390Y-142649523D01*
X331766390Y-142649523D02*
X331861628Y-142601904D01*
X331861628Y-142601904D02*
X331909247Y-142506666D01*
X331909247Y-142506666D02*
X331909247Y-142316190D01*
X331909247Y-142316190D02*
X331861628Y-142220952D01*
X331290200Y-142649523D02*
X331242580Y-142554285D01*
X331242580Y-142554285D02*
X331242580Y-142316190D01*
X331242580Y-142316190D02*
X331290200Y-142220952D01*
X331290200Y-142220952D02*
X331385438Y-142173333D01*
X331385438Y-142173333D02*
X331480676Y-142173333D01*
X331480676Y-142173333D02*
X331575914Y-142220952D01*
X331575914Y-142220952D02*
X331623533Y-142316190D01*
X331623533Y-142316190D02*
X331623533Y-142554285D01*
X331623533Y-142554285D02*
X331671152Y-142649523D01*
X331242580Y-143125714D02*
X331909247Y-143125714D01*
X331718771Y-143125714D02*
X331814009Y-143173333D01*
X331814009Y-143173333D02*
X331861628Y-143220952D01*
X331861628Y-143220952D02*
X331909247Y-143316190D01*
X331909247Y-143316190D02*
X331909247Y-143411428D01*
X331242580Y-143744762D02*
X331909247Y-143744762D01*
X331718771Y-143744762D02*
X331814009Y-143792381D01*
X331814009Y-143792381D02*
X331861628Y-143840000D01*
X331861628Y-143840000D02*
X331909247Y-143935238D01*
X331909247Y-143935238D02*
X331909247Y-144030476D01*
X331242580Y-144363810D02*
X331909247Y-144363810D01*
X332242580Y-144363810D02*
X332194961Y-144316191D01*
X332194961Y-144316191D02*
X332147342Y-144363810D01*
X332147342Y-144363810D02*
X332194961Y-144411429D01*
X332194961Y-144411429D02*
X332242580Y-144363810D01*
X332242580Y-144363810D02*
X332147342Y-144363810D01*
X331290200Y-145220952D02*
X331242580Y-145125714D01*
X331242580Y-145125714D02*
X331242580Y-144935238D01*
X331242580Y-144935238D02*
X331290200Y-144840000D01*
X331290200Y-144840000D02*
X331385438Y-144792381D01*
X331385438Y-144792381D02*
X331766390Y-144792381D01*
X331766390Y-144792381D02*
X331861628Y-144840000D01*
X331861628Y-144840000D02*
X331909247Y-144935238D01*
X331909247Y-144935238D02*
X331909247Y-145125714D01*
X331909247Y-145125714D02*
X331861628Y-145220952D01*
X331861628Y-145220952D02*
X331766390Y-145268571D01*
X331766390Y-145268571D02*
X331671152Y-145268571D01*
X331671152Y-145268571D02*
X331575914Y-144792381D01*
X331242580Y-145697143D02*
X331909247Y-145697143D01*
X331718771Y-145697143D02*
X331814009Y-145744762D01*
X331814009Y-145744762D02*
X331861628Y-145792381D01*
X331861628Y-145792381D02*
X331909247Y-145887619D01*
X331909247Y-145887619D02*
X331909247Y-145982857D01*
X331147342Y-146078096D02*
X331147342Y-146840000D01*
X331766390Y-147411429D02*
X331718771Y-147554286D01*
X331718771Y-147554286D02*
X331671152Y-147601905D01*
X331671152Y-147601905D02*
X331575914Y-147649524D01*
X331575914Y-147649524D02*
X331433057Y-147649524D01*
X331433057Y-147649524D02*
X331337819Y-147601905D01*
X331337819Y-147601905D02*
X331290200Y-147554286D01*
X331290200Y-147554286D02*
X331242580Y-147459048D01*
X331242580Y-147459048D02*
X331242580Y-147078096D01*
X331242580Y-147078096D02*
X332242580Y-147078096D01*
X332242580Y-147078096D02*
X332242580Y-147411429D01*
X332242580Y-147411429D02*
X332194961Y-147506667D01*
X332194961Y-147506667D02*
X332147342Y-147554286D01*
X332147342Y-147554286D02*
X332052104Y-147601905D01*
X332052104Y-147601905D02*
X331956866Y-147601905D01*
X331956866Y-147601905D02*
X331861628Y-147554286D01*
X331861628Y-147554286D02*
X331814009Y-147506667D01*
X331814009Y-147506667D02*
X331766390Y-147411429D01*
X331766390Y-147411429D02*
X331766390Y-147078096D01*
X331242580Y-148220953D02*
X331290200Y-148125715D01*
X331290200Y-148125715D02*
X331337819Y-148078096D01*
X331337819Y-148078096D02*
X331433057Y-148030477D01*
X331433057Y-148030477D02*
X331718771Y-148030477D01*
X331718771Y-148030477D02*
X331814009Y-148078096D01*
X331814009Y-148078096D02*
X331861628Y-148125715D01*
X331861628Y-148125715D02*
X331909247Y-148220953D01*
X331909247Y-148220953D02*
X331909247Y-148363810D01*
X331909247Y-148363810D02*
X331861628Y-148459048D01*
X331861628Y-148459048D02*
X331814009Y-148506667D01*
X331814009Y-148506667D02*
X331718771Y-148554286D01*
X331718771Y-148554286D02*
X331433057Y-148554286D01*
X331433057Y-148554286D02*
X331337819Y-148506667D01*
X331337819Y-148506667D02*
X331290200Y-148459048D01*
X331290200Y-148459048D02*
X331242580Y-148363810D01*
X331242580Y-148363810D02*
X331242580Y-148220953D01*
X331242580Y-149411429D02*
X331766390Y-149411429D01*
X331766390Y-149411429D02*
X331861628Y-149363810D01*
X331861628Y-149363810D02*
X331909247Y-149268572D01*
X331909247Y-149268572D02*
X331909247Y-149078096D01*
X331909247Y-149078096D02*
X331861628Y-148982858D01*
X331290200Y-149411429D02*
X331242580Y-149316191D01*
X331242580Y-149316191D02*
X331242580Y-149078096D01*
X331242580Y-149078096D02*
X331290200Y-148982858D01*
X331290200Y-148982858D02*
X331385438Y-148935239D01*
X331385438Y-148935239D02*
X331480676Y-148935239D01*
X331480676Y-148935239D02*
X331575914Y-148982858D01*
X331575914Y-148982858D02*
X331623533Y-149078096D01*
X331623533Y-149078096D02*
X331623533Y-149316191D01*
X331623533Y-149316191D02*
X331671152Y-149411429D01*
X331242580Y-149887620D02*
X331909247Y-149887620D01*
X331718771Y-149887620D02*
X331814009Y-149935239D01*
X331814009Y-149935239D02*
X331861628Y-149982858D01*
X331861628Y-149982858D02*
X331909247Y-150078096D01*
X331909247Y-150078096D02*
X331909247Y-150173334D01*
X331242580Y-150935239D02*
X332242580Y-150935239D01*
X331290200Y-150935239D02*
X331242580Y-150840001D01*
X331242580Y-150840001D02*
X331242580Y-150649525D01*
X331242580Y-150649525D02*
X331290200Y-150554287D01*
X331290200Y-150554287D02*
X331337819Y-150506668D01*
X331337819Y-150506668D02*
X331433057Y-150459049D01*
X331433057Y-150459049D02*
X331718771Y-150459049D01*
X331718771Y-150459049D02*
X331814009Y-150506668D01*
X331814009Y-150506668D02*
X331861628Y-150554287D01*
X331861628Y-150554287D02*
X331909247Y-150649525D01*
X331909247Y-150649525D02*
X331909247Y-150840001D01*
X331909247Y-150840001D02*
X331861628Y-150935239D01*
X332242580Y-151887620D02*
X332242580Y-151411430D01*
X332242580Y-151411430D02*
X331766390Y-151363811D01*
X331766390Y-151363811D02*
X331814009Y-151411430D01*
X331814009Y-151411430D02*
X331861628Y-151506668D01*
X331861628Y-151506668D02*
X331861628Y-151744763D01*
X331861628Y-151744763D02*
X331814009Y-151840001D01*
X331814009Y-151840001D02*
X331766390Y-151887620D01*
X331766390Y-151887620D02*
X331671152Y-151935239D01*
X331671152Y-151935239D02*
X331433057Y-151935239D01*
X331433057Y-151935239D02*
X331337819Y-151887620D01*
X331337819Y-151887620D02*
X331290200Y-151840001D01*
X331290200Y-151840001D02*
X331242580Y-151744763D01*
X331242580Y-151744763D02*
X331242580Y-151506668D01*
X331242580Y-151506668D02*
X331290200Y-151411430D01*
X331290200Y-151411430D02*
X331337819Y-151363811D01*
X359409800Y-152833332D02*
X359457419Y-152690475D01*
X359457419Y-152690475D02*
X359457419Y-152452380D01*
X359457419Y-152452380D02*
X359409800Y-152357142D01*
X359409800Y-152357142D02*
X359362180Y-152309523D01*
X359362180Y-152309523D02*
X359266942Y-152261904D01*
X359266942Y-152261904D02*
X359171704Y-152261904D01*
X359171704Y-152261904D02*
X359076466Y-152309523D01*
X359076466Y-152309523D02*
X359028847Y-152357142D01*
X359028847Y-152357142D02*
X358981228Y-152452380D01*
X358981228Y-152452380D02*
X358933609Y-152642856D01*
X358933609Y-152642856D02*
X358885990Y-152738094D01*
X358885990Y-152738094D02*
X358838371Y-152785713D01*
X358838371Y-152785713D02*
X358743133Y-152833332D01*
X358743133Y-152833332D02*
X358647895Y-152833332D01*
X358647895Y-152833332D02*
X358552657Y-152785713D01*
X358552657Y-152785713D02*
X358505038Y-152738094D01*
X358505038Y-152738094D02*
X358457419Y-152642856D01*
X358457419Y-152642856D02*
X358457419Y-152404761D01*
X358457419Y-152404761D02*
X358505038Y-152261904D01*
X358457419Y-151928570D02*
X359457419Y-151690475D01*
X359457419Y-151690475D02*
X358743133Y-151499999D01*
X358743133Y-151499999D02*
X359457419Y-151309523D01*
X359457419Y-151309523D02*
X358457419Y-151071428D01*
X359457419Y-150166666D02*
X359457419Y-150738094D01*
X359457419Y-150452380D02*
X358457419Y-150452380D01*
X358457419Y-150452380D02*
X358600276Y-150547618D01*
X358600276Y-150547618D02*
X358695514Y-150642856D01*
X358695514Y-150642856D02*
X358743133Y-150738094D01*
D11*
X309628333Y-180628866D02*
X309628333Y-181628866D01*
X309628333Y-181628866D02*
X309561666Y-181828866D01*
X309561666Y-181828866D02*
X309428333Y-181962200D01*
X309428333Y-181962200D02*
X309228333Y-182028866D01*
X309228333Y-182028866D02*
X309095000Y-182028866D01*
X310161667Y-180628866D02*
X311095000Y-180628866D01*
X311095000Y-180628866D02*
X310495000Y-182028866D01*
X308858333Y-193350866D02*
X308858333Y-194350866D01*
X308858333Y-194350866D02*
X308791666Y-194550866D01*
X308791666Y-194550866D02*
X308658333Y-194684200D01*
X308658333Y-194684200D02*
X308458333Y-194750866D01*
X308458333Y-194750866D02*
X308325000Y-194750866D01*
X309391667Y-193350866D02*
X310258333Y-193350866D01*
X310258333Y-193350866D02*
X309791667Y-193884200D01*
X309791667Y-193884200D02*
X309991667Y-193884200D01*
X309991667Y-193884200D02*
X310125000Y-193950866D01*
X310125000Y-193950866D02*
X310191667Y-194017533D01*
X310191667Y-194017533D02*
X310258333Y-194150866D01*
X310258333Y-194150866D02*
X310258333Y-194484200D01*
X310258333Y-194484200D02*
X310191667Y-194617533D01*
X310191667Y-194617533D02*
X310125000Y-194684200D01*
X310125000Y-194684200D02*
X309991667Y-194750866D01*
X309991667Y-194750866D02*
X309591667Y-194750866D01*
X309591667Y-194750866D02*
X309458333Y-194684200D01*
X309458333Y-194684200D02*
X309391667Y-194617533D01*
D10*
X296027419Y-242317619D02*
X295027419Y-242317619D01*
X295027419Y-242317619D02*
X295027419Y-242079524D01*
X295027419Y-242079524D02*
X295075038Y-241936667D01*
X295075038Y-241936667D02*
X295170276Y-241841429D01*
X295170276Y-241841429D02*
X295265514Y-241793810D01*
X295265514Y-241793810D02*
X295455990Y-241746191D01*
X295455990Y-241746191D02*
X295598847Y-241746191D01*
X295598847Y-241746191D02*
X295789323Y-241793810D01*
X295789323Y-241793810D02*
X295884561Y-241841429D01*
X295884561Y-241841429D02*
X295979800Y-241936667D01*
X295979800Y-241936667D02*
X296027419Y-242079524D01*
X296027419Y-242079524D02*
X296027419Y-242317619D01*
X296027419Y-240746191D02*
X295551228Y-241079524D01*
X296027419Y-241317619D02*
X295027419Y-241317619D01*
X295027419Y-241317619D02*
X295027419Y-240936667D01*
X295027419Y-240936667D02*
X295075038Y-240841429D01*
X295075038Y-240841429D02*
X295122657Y-240793810D01*
X295122657Y-240793810D02*
X295217895Y-240746191D01*
X295217895Y-240746191D02*
X295360752Y-240746191D01*
X295360752Y-240746191D02*
X295455990Y-240793810D01*
X295455990Y-240793810D02*
X295503609Y-240841429D01*
X295503609Y-240841429D02*
X295551228Y-240936667D01*
X295551228Y-240936667D02*
X295551228Y-241317619D01*
X295027419Y-240460476D02*
X296027419Y-240127143D01*
X296027419Y-240127143D02*
X295027419Y-239793810D01*
X295455990Y-239317619D02*
X295408371Y-239412857D01*
X295408371Y-239412857D02*
X295360752Y-239460476D01*
X295360752Y-239460476D02*
X295265514Y-239508095D01*
X295265514Y-239508095D02*
X295217895Y-239508095D01*
X295217895Y-239508095D02*
X295122657Y-239460476D01*
X295122657Y-239460476D02*
X295075038Y-239412857D01*
X295075038Y-239412857D02*
X295027419Y-239317619D01*
X295027419Y-239317619D02*
X295027419Y-239127143D01*
X295027419Y-239127143D02*
X295075038Y-239031905D01*
X295075038Y-239031905D02*
X295122657Y-238984286D01*
X295122657Y-238984286D02*
X295217895Y-238936667D01*
X295217895Y-238936667D02*
X295265514Y-238936667D01*
X295265514Y-238936667D02*
X295360752Y-238984286D01*
X295360752Y-238984286D02*
X295408371Y-239031905D01*
X295408371Y-239031905D02*
X295455990Y-239127143D01*
X295455990Y-239127143D02*
X295455990Y-239317619D01*
X295455990Y-239317619D02*
X295503609Y-239412857D01*
X295503609Y-239412857D02*
X295551228Y-239460476D01*
X295551228Y-239460476D02*
X295646466Y-239508095D01*
X295646466Y-239508095D02*
X295836942Y-239508095D01*
X295836942Y-239508095D02*
X295932180Y-239460476D01*
X295932180Y-239460476D02*
X295979800Y-239412857D01*
X295979800Y-239412857D02*
X296027419Y-239317619D01*
X296027419Y-239317619D02*
X296027419Y-239127143D01*
X296027419Y-239127143D02*
X295979800Y-239031905D01*
X295979800Y-239031905D02*
X295932180Y-238984286D01*
X295932180Y-238984286D02*
X295836942Y-238936667D01*
X295836942Y-238936667D02*
X295646466Y-238936667D01*
X295646466Y-238936667D02*
X295551228Y-238984286D01*
X295551228Y-238984286D02*
X295503609Y-239031905D01*
X295503609Y-239031905D02*
X295455990Y-239127143D01*
X295455990Y-238365238D02*
X295408371Y-238460476D01*
X295408371Y-238460476D02*
X295360752Y-238508095D01*
X295360752Y-238508095D02*
X295265514Y-238555714D01*
X295265514Y-238555714D02*
X295217895Y-238555714D01*
X295217895Y-238555714D02*
X295122657Y-238508095D01*
X295122657Y-238508095D02*
X295075038Y-238460476D01*
X295075038Y-238460476D02*
X295027419Y-238365238D01*
X295027419Y-238365238D02*
X295027419Y-238174762D01*
X295027419Y-238174762D02*
X295075038Y-238079524D01*
X295075038Y-238079524D02*
X295122657Y-238031905D01*
X295122657Y-238031905D02*
X295217895Y-237984286D01*
X295217895Y-237984286D02*
X295265514Y-237984286D01*
X295265514Y-237984286D02*
X295360752Y-238031905D01*
X295360752Y-238031905D02*
X295408371Y-238079524D01*
X295408371Y-238079524D02*
X295455990Y-238174762D01*
X295455990Y-238174762D02*
X295455990Y-238365238D01*
X295455990Y-238365238D02*
X295503609Y-238460476D01*
X295503609Y-238460476D02*
X295551228Y-238508095D01*
X295551228Y-238508095D02*
X295646466Y-238555714D01*
X295646466Y-238555714D02*
X295836942Y-238555714D01*
X295836942Y-238555714D02*
X295932180Y-238508095D01*
X295932180Y-238508095D02*
X295979800Y-238460476D01*
X295979800Y-238460476D02*
X296027419Y-238365238D01*
X296027419Y-238365238D02*
X296027419Y-238174762D01*
X296027419Y-238174762D02*
X295979800Y-238079524D01*
X295979800Y-238079524D02*
X295932180Y-238031905D01*
X295932180Y-238031905D02*
X295836942Y-237984286D01*
X295836942Y-237984286D02*
X295646466Y-237984286D01*
X295646466Y-237984286D02*
X295551228Y-238031905D01*
X295551228Y-238031905D02*
X295503609Y-238079524D01*
X295503609Y-238079524D02*
X295455990Y-238174762D01*
X295027419Y-237650952D02*
X295027419Y-236984286D01*
X295027419Y-236984286D02*
X296027419Y-237412857D01*
X295360752Y-236174762D02*
X296027419Y-236174762D01*
X294979800Y-236412857D02*
X295694085Y-236650952D01*
X295694085Y-236650952D02*
X295694085Y-236031905D01*
X296122657Y-235889048D02*
X296122657Y-235127143D01*
X295932180Y-234317619D02*
X295979800Y-234365238D01*
X295979800Y-234365238D02*
X296027419Y-234508095D01*
X296027419Y-234508095D02*
X296027419Y-234603333D01*
X296027419Y-234603333D02*
X295979800Y-234746190D01*
X295979800Y-234746190D02*
X295884561Y-234841428D01*
X295884561Y-234841428D02*
X295789323Y-234889047D01*
X295789323Y-234889047D02*
X295598847Y-234936666D01*
X295598847Y-234936666D02*
X295455990Y-234936666D01*
X295455990Y-234936666D02*
X295265514Y-234889047D01*
X295265514Y-234889047D02*
X295170276Y-234841428D01*
X295170276Y-234841428D02*
X295075038Y-234746190D01*
X295075038Y-234746190D02*
X295027419Y-234603333D01*
X295027419Y-234603333D02*
X295027419Y-234508095D01*
X295027419Y-234508095D02*
X295075038Y-234365238D01*
X295075038Y-234365238D02*
X295122657Y-234317619D01*
X296027419Y-233460476D02*
X295503609Y-233460476D01*
X295503609Y-233460476D02*
X295408371Y-233508095D01*
X295408371Y-233508095D02*
X295360752Y-233603333D01*
X295360752Y-233603333D02*
X295360752Y-233793809D01*
X295360752Y-233793809D02*
X295408371Y-233889047D01*
X295979800Y-233460476D02*
X296027419Y-233555714D01*
X296027419Y-233555714D02*
X296027419Y-233793809D01*
X296027419Y-233793809D02*
X295979800Y-233889047D01*
X295979800Y-233889047D02*
X295884561Y-233936666D01*
X295884561Y-233936666D02*
X295789323Y-233936666D01*
X295789323Y-233936666D02*
X295694085Y-233889047D01*
X295694085Y-233889047D02*
X295646466Y-233793809D01*
X295646466Y-233793809D02*
X295646466Y-233555714D01*
X295646466Y-233555714D02*
X295598847Y-233460476D01*
X296027419Y-232984285D02*
X295360752Y-232984285D01*
X295551228Y-232984285D02*
X295455990Y-232936666D01*
X295455990Y-232936666D02*
X295408371Y-232889047D01*
X295408371Y-232889047D02*
X295360752Y-232793809D01*
X295360752Y-232793809D02*
X295360752Y-232698571D01*
X296027419Y-232365237D02*
X295360752Y-232365237D01*
X295551228Y-232365237D02*
X295455990Y-232317618D01*
X295455990Y-232317618D02*
X295408371Y-232269999D01*
X295408371Y-232269999D02*
X295360752Y-232174761D01*
X295360752Y-232174761D02*
X295360752Y-232079523D01*
X296027419Y-231746189D02*
X295360752Y-231746189D01*
X295027419Y-231746189D02*
X295075038Y-231793808D01*
X295075038Y-231793808D02*
X295122657Y-231746189D01*
X295122657Y-231746189D02*
X295075038Y-231698570D01*
X295075038Y-231698570D02*
X295027419Y-231746189D01*
X295027419Y-231746189D02*
X295122657Y-231746189D01*
X295979800Y-230889047D02*
X296027419Y-230984285D01*
X296027419Y-230984285D02*
X296027419Y-231174761D01*
X296027419Y-231174761D02*
X295979800Y-231269999D01*
X295979800Y-231269999D02*
X295884561Y-231317618D01*
X295884561Y-231317618D02*
X295503609Y-231317618D01*
X295503609Y-231317618D02*
X295408371Y-231269999D01*
X295408371Y-231269999D02*
X295360752Y-231174761D01*
X295360752Y-231174761D02*
X295360752Y-230984285D01*
X295360752Y-230984285D02*
X295408371Y-230889047D01*
X295408371Y-230889047D02*
X295503609Y-230841428D01*
X295503609Y-230841428D02*
X295598847Y-230841428D01*
X295598847Y-230841428D02*
X295694085Y-231317618D01*
X296027419Y-230412856D02*
X295360752Y-230412856D01*
X295551228Y-230412856D02*
X295455990Y-230365237D01*
X295455990Y-230365237D02*
X295408371Y-230317618D01*
X295408371Y-230317618D02*
X295360752Y-230222380D01*
X295360752Y-230222380D02*
X295360752Y-230127142D01*
X296122657Y-230031904D02*
X296122657Y-229269999D01*
X295503609Y-228698570D02*
X295551228Y-228555713D01*
X295551228Y-228555713D02*
X295598847Y-228508094D01*
X295598847Y-228508094D02*
X295694085Y-228460475D01*
X295694085Y-228460475D02*
X295836942Y-228460475D01*
X295836942Y-228460475D02*
X295932180Y-228508094D01*
X295932180Y-228508094D02*
X295979800Y-228555713D01*
X295979800Y-228555713D02*
X296027419Y-228650951D01*
X296027419Y-228650951D02*
X296027419Y-229031903D01*
X296027419Y-229031903D02*
X295027419Y-229031903D01*
X295027419Y-229031903D02*
X295027419Y-228698570D01*
X295027419Y-228698570D02*
X295075038Y-228603332D01*
X295075038Y-228603332D02*
X295122657Y-228555713D01*
X295122657Y-228555713D02*
X295217895Y-228508094D01*
X295217895Y-228508094D02*
X295313133Y-228508094D01*
X295313133Y-228508094D02*
X295408371Y-228555713D01*
X295408371Y-228555713D02*
X295455990Y-228603332D01*
X295455990Y-228603332D02*
X295503609Y-228698570D01*
X295503609Y-228698570D02*
X295503609Y-229031903D01*
X296027419Y-227889046D02*
X295979800Y-227984284D01*
X295979800Y-227984284D02*
X295932180Y-228031903D01*
X295932180Y-228031903D02*
X295836942Y-228079522D01*
X295836942Y-228079522D02*
X295551228Y-228079522D01*
X295551228Y-228079522D02*
X295455990Y-228031903D01*
X295455990Y-228031903D02*
X295408371Y-227984284D01*
X295408371Y-227984284D02*
X295360752Y-227889046D01*
X295360752Y-227889046D02*
X295360752Y-227746189D01*
X295360752Y-227746189D02*
X295408371Y-227650951D01*
X295408371Y-227650951D02*
X295455990Y-227603332D01*
X295455990Y-227603332D02*
X295551228Y-227555713D01*
X295551228Y-227555713D02*
X295836942Y-227555713D01*
X295836942Y-227555713D02*
X295932180Y-227603332D01*
X295932180Y-227603332D02*
X295979800Y-227650951D01*
X295979800Y-227650951D02*
X296027419Y-227746189D01*
X296027419Y-227746189D02*
X296027419Y-227889046D01*
X296027419Y-226698570D02*
X295503609Y-226698570D01*
X295503609Y-226698570D02*
X295408371Y-226746189D01*
X295408371Y-226746189D02*
X295360752Y-226841427D01*
X295360752Y-226841427D02*
X295360752Y-227031903D01*
X295360752Y-227031903D02*
X295408371Y-227127141D01*
X295979800Y-226698570D02*
X296027419Y-226793808D01*
X296027419Y-226793808D02*
X296027419Y-227031903D01*
X296027419Y-227031903D02*
X295979800Y-227127141D01*
X295979800Y-227127141D02*
X295884561Y-227174760D01*
X295884561Y-227174760D02*
X295789323Y-227174760D01*
X295789323Y-227174760D02*
X295694085Y-227127141D01*
X295694085Y-227127141D02*
X295646466Y-227031903D01*
X295646466Y-227031903D02*
X295646466Y-226793808D01*
X295646466Y-226793808D02*
X295598847Y-226698570D01*
X296027419Y-226222379D02*
X295360752Y-226222379D01*
X295551228Y-226222379D02*
X295455990Y-226174760D01*
X295455990Y-226174760D02*
X295408371Y-226127141D01*
X295408371Y-226127141D02*
X295360752Y-226031903D01*
X295360752Y-226031903D02*
X295360752Y-225936665D01*
X296027419Y-225174760D02*
X295027419Y-225174760D01*
X295979800Y-225174760D02*
X296027419Y-225269998D01*
X296027419Y-225269998D02*
X296027419Y-225460474D01*
X296027419Y-225460474D02*
X295979800Y-225555712D01*
X295979800Y-225555712D02*
X295932180Y-225603331D01*
X295932180Y-225603331D02*
X295836942Y-225650950D01*
X295836942Y-225650950D02*
X295551228Y-225650950D01*
X295551228Y-225650950D02*
X295455990Y-225603331D01*
X295455990Y-225603331D02*
X295408371Y-225555712D01*
X295408371Y-225555712D02*
X295360752Y-225460474D01*
X295360752Y-225460474D02*
X295360752Y-225269998D01*
X295360752Y-225269998D02*
X295408371Y-225174760D01*
X295122657Y-224746188D02*
X295075038Y-224698569D01*
X295075038Y-224698569D02*
X295027419Y-224603331D01*
X295027419Y-224603331D02*
X295027419Y-224365236D01*
X295027419Y-224365236D02*
X295075038Y-224269998D01*
X295075038Y-224269998D02*
X295122657Y-224222379D01*
X295122657Y-224222379D02*
X295217895Y-224174760D01*
X295217895Y-224174760D02*
X295313133Y-224174760D01*
X295313133Y-224174760D02*
X295455990Y-224222379D01*
X295455990Y-224222379D02*
X296027419Y-224793807D01*
X296027419Y-224793807D02*
X296027419Y-224174760D01*
D11*
X268063333Y-177534819D02*
X267730000Y-177058628D01*
X267491905Y-177534819D02*
X267491905Y-176534819D01*
X267491905Y-176534819D02*
X267872857Y-176534819D01*
X267872857Y-176534819D02*
X267968095Y-176582438D01*
X267968095Y-176582438D02*
X268015714Y-176630057D01*
X268015714Y-176630057D02*
X268063333Y-176725295D01*
X268063333Y-176725295D02*
X268063333Y-176868152D01*
X268063333Y-176868152D02*
X268015714Y-176963390D01*
X268015714Y-176963390D02*
X267968095Y-177011009D01*
X267968095Y-177011009D02*
X267872857Y-177058628D01*
X267872857Y-177058628D02*
X267491905Y-177058628D01*
X269015714Y-177534819D02*
X268444286Y-177534819D01*
X268730000Y-177534819D02*
X268730000Y-176534819D01*
X268730000Y-176534819D02*
X268634762Y-176677676D01*
X268634762Y-176677676D02*
X268539524Y-176772914D01*
X268539524Y-176772914D02*
X268444286Y-176820533D01*
X373640866Y-212118332D02*
X374640866Y-212118332D01*
X374640866Y-212118332D02*
X374840866Y-212184999D01*
X374840866Y-212184999D02*
X374974200Y-212318332D01*
X374974200Y-212318332D02*
X375040866Y-212518332D01*
X375040866Y-212518332D02*
X375040866Y-212651666D01*
X375040866Y-210718332D02*
X375040866Y-211518332D01*
X375040866Y-211118332D02*
X373640866Y-211118332D01*
X373640866Y-211118332D02*
X373840866Y-211251665D01*
X373840866Y-211251665D02*
X373974200Y-211384999D01*
X373974200Y-211384999D02*
X374040866Y-211518332D01*
X373640866Y-209851666D02*
X373640866Y-209718332D01*
X373640866Y-209718332D02*
X373707533Y-209584999D01*
X373707533Y-209584999D02*
X373774200Y-209518332D01*
X373774200Y-209518332D02*
X373907533Y-209451666D01*
X373907533Y-209451666D02*
X374174200Y-209384999D01*
X374174200Y-209384999D02*
X374507533Y-209384999D01*
X374507533Y-209384999D02*
X374774200Y-209451666D01*
X374774200Y-209451666D02*
X374907533Y-209518332D01*
X374907533Y-209518332D02*
X374974200Y-209584999D01*
X374974200Y-209584999D02*
X375040866Y-209718332D01*
X375040866Y-209718332D02*
X375040866Y-209851666D01*
X375040866Y-209851666D02*
X374974200Y-209984999D01*
X374974200Y-209984999D02*
X374907533Y-210051666D01*
X374907533Y-210051666D02*
X374774200Y-210118332D01*
X374774200Y-210118332D02*
X374507533Y-210184999D01*
X374507533Y-210184999D02*
X374174200Y-210184999D01*
X374174200Y-210184999D02*
X373907533Y-210118332D01*
X373907533Y-210118332D02*
X373774200Y-210051666D01*
X373774200Y-210051666D02*
X373707533Y-209984999D01*
X373707533Y-209984999D02*
X373640866Y-209851666D01*
X314350714Y-127139819D02*
X314350714Y-126139819D01*
X314350714Y-126139819D02*
X314731666Y-126139819D01*
X314731666Y-126139819D02*
X314826904Y-126187438D01*
X314826904Y-126187438D02*
X314874523Y-126235057D01*
X314874523Y-126235057D02*
X314922142Y-126330295D01*
X314922142Y-126330295D02*
X314922142Y-126473152D01*
X314922142Y-126473152D02*
X314874523Y-126568390D01*
X314874523Y-126568390D02*
X314826904Y-126616009D01*
X314826904Y-126616009D02*
X314731666Y-126663628D01*
X314731666Y-126663628D02*
X314350714Y-126663628D01*
X315303095Y-127092200D02*
X315445952Y-127139819D01*
X315445952Y-127139819D02*
X315684047Y-127139819D01*
X315684047Y-127139819D02*
X315779285Y-127092200D01*
X315779285Y-127092200D02*
X315826904Y-127044580D01*
X315826904Y-127044580D02*
X315874523Y-126949342D01*
X315874523Y-126949342D02*
X315874523Y-126854104D01*
X315874523Y-126854104D02*
X315826904Y-126758866D01*
X315826904Y-126758866D02*
X315779285Y-126711247D01*
X315779285Y-126711247D02*
X315684047Y-126663628D01*
X315684047Y-126663628D02*
X315493571Y-126616009D01*
X315493571Y-126616009D02*
X315398333Y-126568390D01*
X315398333Y-126568390D02*
X315350714Y-126520771D01*
X315350714Y-126520771D02*
X315303095Y-126425533D01*
X315303095Y-126425533D02*
X315303095Y-126330295D01*
X315303095Y-126330295D02*
X315350714Y-126235057D01*
X315350714Y-126235057D02*
X315398333Y-126187438D01*
X315398333Y-126187438D02*
X315493571Y-126139819D01*
X315493571Y-126139819D02*
X315731666Y-126139819D01*
X315731666Y-126139819D02*
X315874523Y-126187438D01*
X316826904Y-127139819D02*
X316255476Y-127139819D01*
X316541190Y-127139819D02*
X316541190Y-126139819D01*
X316541190Y-126139819D02*
X316445952Y-126282676D01*
X316445952Y-126282676D02*
X316350714Y-126377914D01*
X316350714Y-126377914D02*
X316255476Y-126425533D01*
D10*
X357092580Y-133182380D02*
X358092580Y-133182380D01*
X358092580Y-133182380D02*
X358092580Y-133420475D01*
X358092580Y-133420475D02*
X358044961Y-133563332D01*
X358044961Y-133563332D02*
X357949723Y-133658570D01*
X357949723Y-133658570D02*
X357854485Y-133706189D01*
X357854485Y-133706189D02*
X357664009Y-133753808D01*
X357664009Y-133753808D02*
X357521152Y-133753808D01*
X357521152Y-133753808D02*
X357330676Y-133706189D01*
X357330676Y-133706189D02*
X357235438Y-133658570D01*
X357235438Y-133658570D02*
X357140200Y-133563332D01*
X357140200Y-133563332D02*
X357092580Y-133420475D01*
X357092580Y-133420475D02*
X357092580Y-133182380D01*
X357092580Y-134753808D02*
X357568771Y-134420475D01*
X357092580Y-134182380D02*
X358092580Y-134182380D01*
X358092580Y-134182380D02*
X358092580Y-134563332D01*
X358092580Y-134563332D02*
X358044961Y-134658570D01*
X358044961Y-134658570D02*
X357997342Y-134706189D01*
X357997342Y-134706189D02*
X357902104Y-134753808D01*
X357902104Y-134753808D02*
X357759247Y-134753808D01*
X357759247Y-134753808D02*
X357664009Y-134706189D01*
X357664009Y-134706189D02*
X357616390Y-134658570D01*
X357616390Y-134658570D02*
X357568771Y-134563332D01*
X357568771Y-134563332D02*
X357568771Y-134182380D01*
X358092580Y-135039523D02*
X357092580Y-135372856D01*
X357092580Y-135372856D02*
X358092580Y-135706189D01*
X357664009Y-136182380D02*
X357711628Y-136087142D01*
X357711628Y-136087142D02*
X357759247Y-136039523D01*
X357759247Y-136039523D02*
X357854485Y-135991904D01*
X357854485Y-135991904D02*
X357902104Y-135991904D01*
X357902104Y-135991904D02*
X357997342Y-136039523D01*
X357997342Y-136039523D02*
X358044961Y-136087142D01*
X358044961Y-136087142D02*
X358092580Y-136182380D01*
X358092580Y-136182380D02*
X358092580Y-136372856D01*
X358092580Y-136372856D02*
X358044961Y-136468094D01*
X358044961Y-136468094D02*
X357997342Y-136515713D01*
X357997342Y-136515713D02*
X357902104Y-136563332D01*
X357902104Y-136563332D02*
X357854485Y-136563332D01*
X357854485Y-136563332D02*
X357759247Y-136515713D01*
X357759247Y-136515713D02*
X357711628Y-136468094D01*
X357711628Y-136468094D02*
X357664009Y-136372856D01*
X357664009Y-136372856D02*
X357664009Y-136182380D01*
X357664009Y-136182380D02*
X357616390Y-136087142D01*
X357616390Y-136087142D02*
X357568771Y-136039523D01*
X357568771Y-136039523D02*
X357473533Y-135991904D01*
X357473533Y-135991904D02*
X357283057Y-135991904D01*
X357283057Y-135991904D02*
X357187819Y-136039523D01*
X357187819Y-136039523D02*
X357140200Y-136087142D01*
X357140200Y-136087142D02*
X357092580Y-136182380D01*
X357092580Y-136182380D02*
X357092580Y-136372856D01*
X357092580Y-136372856D02*
X357140200Y-136468094D01*
X357140200Y-136468094D02*
X357187819Y-136515713D01*
X357187819Y-136515713D02*
X357283057Y-136563332D01*
X357283057Y-136563332D02*
X357473533Y-136563332D01*
X357473533Y-136563332D02*
X357568771Y-136515713D01*
X357568771Y-136515713D02*
X357616390Y-136468094D01*
X357616390Y-136468094D02*
X357664009Y-136372856D01*
X357664009Y-137134761D02*
X357711628Y-137039523D01*
X357711628Y-137039523D02*
X357759247Y-136991904D01*
X357759247Y-136991904D02*
X357854485Y-136944285D01*
X357854485Y-136944285D02*
X357902104Y-136944285D01*
X357902104Y-136944285D02*
X357997342Y-136991904D01*
X357997342Y-136991904D02*
X358044961Y-137039523D01*
X358044961Y-137039523D02*
X358092580Y-137134761D01*
X358092580Y-137134761D02*
X358092580Y-137325237D01*
X358092580Y-137325237D02*
X358044961Y-137420475D01*
X358044961Y-137420475D02*
X357997342Y-137468094D01*
X357997342Y-137468094D02*
X357902104Y-137515713D01*
X357902104Y-137515713D02*
X357854485Y-137515713D01*
X357854485Y-137515713D02*
X357759247Y-137468094D01*
X357759247Y-137468094D02*
X357711628Y-137420475D01*
X357711628Y-137420475D02*
X357664009Y-137325237D01*
X357664009Y-137325237D02*
X357664009Y-137134761D01*
X357664009Y-137134761D02*
X357616390Y-137039523D01*
X357616390Y-137039523D02*
X357568771Y-136991904D01*
X357568771Y-136991904D02*
X357473533Y-136944285D01*
X357473533Y-136944285D02*
X357283057Y-136944285D01*
X357283057Y-136944285D02*
X357187819Y-136991904D01*
X357187819Y-136991904D02*
X357140200Y-137039523D01*
X357140200Y-137039523D02*
X357092580Y-137134761D01*
X357092580Y-137134761D02*
X357092580Y-137325237D01*
X357092580Y-137325237D02*
X357140200Y-137420475D01*
X357140200Y-137420475D02*
X357187819Y-137468094D01*
X357187819Y-137468094D02*
X357283057Y-137515713D01*
X357283057Y-137515713D02*
X357473533Y-137515713D01*
X357473533Y-137515713D02*
X357568771Y-137468094D01*
X357568771Y-137468094D02*
X357616390Y-137420475D01*
X357616390Y-137420475D02*
X357664009Y-137325237D01*
X358092580Y-137849047D02*
X358092580Y-138515713D01*
X358092580Y-138515713D02*
X357092580Y-138087142D01*
X357759247Y-139325237D02*
X357092580Y-139325237D01*
X358140200Y-139087142D02*
X357425914Y-138849047D01*
X357425914Y-138849047D02*
X357425914Y-139468094D01*
X356997342Y-139610952D02*
X356997342Y-140372856D01*
X357187819Y-141182380D02*
X357140200Y-141134761D01*
X357140200Y-141134761D02*
X357092580Y-140991904D01*
X357092580Y-140991904D02*
X357092580Y-140896666D01*
X357092580Y-140896666D02*
X357140200Y-140753809D01*
X357140200Y-140753809D02*
X357235438Y-140658571D01*
X357235438Y-140658571D02*
X357330676Y-140610952D01*
X357330676Y-140610952D02*
X357521152Y-140563333D01*
X357521152Y-140563333D02*
X357664009Y-140563333D01*
X357664009Y-140563333D02*
X357854485Y-140610952D01*
X357854485Y-140610952D02*
X357949723Y-140658571D01*
X357949723Y-140658571D02*
X358044961Y-140753809D01*
X358044961Y-140753809D02*
X358092580Y-140896666D01*
X358092580Y-140896666D02*
X358092580Y-140991904D01*
X358092580Y-140991904D02*
X358044961Y-141134761D01*
X358044961Y-141134761D02*
X357997342Y-141182380D01*
X357092580Y-142039523D02*
X357616390Y-142039523D01*
X357616390Y-142039523D02*
X357711628Y-141991904D01*
X357711628Y-141991904D02*
X357759247Y-141896666D01*
X357759247Y-141896666D02*
X357759247Y-141706190D01*
X357759247Y-141706190D02*
X357711628Y-141610952D01*
X357140200Y-142039523D02*
X357092580Y-141944285D01*
X357092580Y-141944285D02*
X357092580Y-141706190D01*
X357092580Y-141706190D02*
X357140200Y-141610952D01*
X357140200Y-141610952D02*
X357235438Y-141563333D01*
X357235438Y-141563333D02*
X357330676Y-141563333D01*
X357330676Y-141563333D02*
X357425914Y-141610952D01*
X357425914Y-141610952D02*
X357473533Y-141706190D01*
X357473533Y-141706190D02*
X357473533Y-141944285D01*
X357473533Y-141944285D02*
X357521152Y-142039523D01*
X357092580Y-142515714D02*
X357759247Y-142515714D01*
X357568771Y-142515714D02*
X357664009Y-142563333D01*
X357664009Y-142563333D02*
X357711628Y-142610952D01*
X357711628Y-142610952D02*
X357759247Y-142706190D01*
X357759247Y-142706190D02*
X357759247Y-142801428D01*
X357092580Y-143134762D02*
X357759247Y-143134762D01*
X357568771Y-143134762D02*
X357664009Y-143182381D01*
X357664009Y-143182381D02*
X357711628Y-143230000D01*
X357711628Y-143230000D02*
X357759247Y-143325238D01*
X357759247Y-143325238D02*
X357759247Y-143420476D01*
X357092580Y-143753810D02*
X357759247Y-143753810D01*
X358092580Y-143753810D02*
X358044961Y-143706191D01*
X358044961Y-143706191D02*
X357997342Y-143753810D01*
X357997342Y-143753810D02*
X358044961Y-143801429D01*
X358044961Y-143801429D02*
X358092580Y-143753810D01*
X358092580Y-143753810D02*
X357997342Y-143753810D01*
X357140200Y-144610952D02*
X357092580Y-144515714D01*
X357092580Y-144515714D02*
X357092580Y-144325238D01*
X357092580Y-144325238D02*
X357140200Y-144230000D01*
X357140200Y-144230000D02*
X357235438Y-144182381D01*
X357235438Y-144182381D02*
X357616390Y-144182381D01*
X357616390Y-144182381D02*
X357711628Y-144230000D01*
X357711628Y-144230000D02*
X357759247Y-144325238D01*
X357759247Y-144325238D02*
X357759247Y-144515714D01*
X357759247Y-144515714D02*
X357711628Y-144610952D01*
X357711628Y-144610952D02*
X357616390Y-144658571D01*
X357616390Y-144658571D02*
X357521152Y-144658571D01*
X357521152Y-144658571D02*
X357425914Y-144182381D01*
X357092580Y-145087143D02*
X357759247Y-145087143D01*
X357568771Y-145087143D02*
X357664009Y-145134762D01*
X357664009Y-145134762D02*
X357711628Y-145182381D01*
X357711628Y-145182381D02*
X357759247Y-145277619D01*
X357759247Y-145277619D02*
X357759247Y-145372857D01*
X356997342Y-145468096D02*
X356997342Y-146230000D01*
X357616390Y-146801429D02*
X357568771Y-146944286D01*
X357568771Y-146944286D02*
X357521152Y-146991905D01*
X357521152Y-146991905D02*
X357425914Y-147039524D01*
X357425914Y-147039524D02*
X357283057Y-147039524D01*
X357283057Y-147039524D02*
X357187819Y-146991905D01*
X357187819Y-146991905D02*
X357140200Y-146944286D01*
X357140200Y-146944286D02*
X357092580Y-146849048D01*
X357092580Y-146849048D02*
X357092580Y-146468096D01*
X357092580Y-146468096D02*
X358092580Y-146468096D01*
X358092580Y-146468096D02*
X358092580Y-146801429D01*
X358092580Y-146801429D02*
X358044961Y-146896667D01*
X358044961Y-146896667D02*
X357997342Y-146944286D01*
X357997342Y-146944286D02*
X357902104Y-146991905D01*
X357902104Y-146991905D02*
X357806866Y-146991905D01*
X357806866Y-146991905D02*
X357711628Y-146944286D01*
X357711628Y-146944286D02*
X357664009Y-146896667D01*
X357664009Y-146896667D02*
X357616390Y-146801429D01*
X357616390Y-146801429D02*
X357616390Y-146468096D01*
X357092580Y-147610953D02*
X357140200Y-147515715D01*
X357140200Y-147515715D02*
X357187819Y-147468096D01*
X357187819Y-147468096D02*
X357283057Y-147420477D01*
X357283057Y-147420477D02*
X357568771Y-147420477D01*
X357568771Y-147420477D02*
X357664009Y-147468096D01*
X357664009Y-147468096D02*
X357711628Y-147515715D01*
X357711628Y-147515715D02*
X357759247Y-147610953D01*
X357759247Y-147610953D02*
X357759247Y-147753810D01*
X357759247Y-147753810D02*
X357711628Y-147849048D01*
X357711628Y-147849048D02*
X357664009Y-147896667D01*
X357664009Y-147896667D02*
X357568771Y-147944286D01*
X357568771Y-147944286D02*
X357283057Y-147944286D01*
X357283057Y-147944286D02*
X357187819Y-147896667D01*
X357187819Y-147896667D02*
X357140200Y-147849048D01*
X357140200Y-147849048D02*
X357092580Y-147753810D01*
X357092580Y-147753810D02*
X357092580Y-147610953D01*
X357092580Y-148801429D02*
X357616390Y-148801429D01*
X357616390Y-148801429D02*
X357711628Y-148753810D01*
X357711628Y-148753810D02*
X357759247Y-148658572D01*
X357759247Y-148658572D02*
X357759247Y-148468096D01*
X357759247Y-148468096D02*
X357711628Y-148372858D01*
X357140200Y-148801429D02*
X357092580Y-148706191D01*
X357092580Y-148706191D02*
X357092580Y-148468096D01*
X357092580Y-148468096D02*
X357140200Y-148372858D01*
X357140200Y-148372858D02*
X357235438Y-148325239D01*
X357235438Y-148325239D02*
X357330676Y-148325239D01*
X357330676Y-148325239D02*
X357425914Y-148372858D01*
X357425914Y-148372858D02*
X357473533Y-148468096D01*
X357473533Y-148468096D02*
X357473533Y-148706191D01*
X357473533Y-148706191D02*
X357521152Y-148801429D01*
X357092580Y-149277620D02*
X357759247Y-149277620D01*
X357568771Y-149277620D02*
X357664009Y-149325239D01*
X357664009Y-149325239D02*
X357711628Y-149372858D01*
X357711628Y-149372858D02*
X357759247Y-149468096D01*
X357759247Y-149468096D02*
X357759247Y-149563334D01*
X357092580Y-150325239D02*
X358092580Y-150325239D01*
X357140200Y-150325239D02*
X357092580Y-150230001D01*
X357092580Y-150230001D02*
X357092580Y-150039525D01*
X357092580Y-150039525D02*
X357140200Y-149944287D01*
X357140200Y-149944287D02*
X357187819Y-149896668D01*
X357187819Y-149896668D02*
X357283057Y-149849049D01*
X357283057Y-149849049D02*
X357568771Y-149849049D01*
X357568771Y-149849049D02*
X357664009Y-149896668D01*
X357664009Y-149896668D02*
X357711628Y-149944287D01*
X357711628Y-149944287D02*
X357759247Y-150039525D01*
X357759247Y-150039525D02*
X357759247Y-150230001D01*
X357759247Y-150230001D02*
X357711628Y-150325239D01*
X357759247Y-151230001D02*
X357092580Y-151230001D01*
X358140200Y-150991906D02*
X357425914Y-150753811D01*
X357425914Y-150753811D02*
X357425914Y-151372858D01*
D11*
X262829405Y-189254819D02*
X262829405Y-188254819D01*
X262829405Y-188254819D02*
X263067500Y-188254819D01*
X263067500Y-188254819D02*
X263210357Y-188302438D01*
X263210357Y-188302438D02*
X263305595Y-188397676D01*
X263305595Y-188397676D02*
X263353214Y-188492914D01*
X263353214Y-188492914D02*
X263400833Y-188683390D01*
X263400833Y-188683390D02*
X263400833Y-188826247D01*
X263400833Y-188826247D02*
X263353214Y-189016723D01*
X263353214Y-189016723D02*
X263305595Y-189111961D01*
X263305595Y-189111961D02*
X263210357Y-189207200D01*
X263210357Y-189207200D02*
X263067500Y-189254819D01*
X263067500Y-189254819D02*
X262829405Y-189254819D01*
X263734167Y-188254819D02*
X264353214Y-188254819D01*
X264353214Y-188254819D02*
X264019881Y-188635771D01*
X264019881Y-188635771D02*
X264162738Y-188635771D01*
X264162738Y-188635771D02*
X264257976Y-188683390D01*
X264257976Y-188683390D02*
X264305595Y-188731009D01*
X264305595Y-188731009D02*
X264353214Y-188826247D01*
X264353214Y-188826247D02*
X264353214Y-189064342D01*
X264353214Y-189064342D02*
X264305595Y-189159580D01*
X264305595Y-189159580D02*
X264257976Y-189207200D01*
X264257976Y-189207200D02*
X264162738Y-189254819D01*
X264162738Y-189254819D02*
X263877024Y-189254819D01*
X263877024Y-189254819D02*
X263781786Y-189207200D01*
X263781786Y-189207200D02*
X263734167Y-189159580D01*
X358834819Y-200826189D02*
X357834819Y-200826189D01*
X358739580Y-199778571D02*
X358787200Y-199826190D01*
X358787200Y-199826190D02*
X358834819Y-199969047D01*
X358834819Y-199969047D02*
X358834819Y-200064285D01*
X358834819Y-200064285D02*
X358787200Y-200207142D01*
X358787200Y-200207142D02*
X358691961Y-200302380D01*
X358691961Y-200302380D02*
X358596723Y-200349999D01*
X358596723Y-200349999D02*
X358406247Y-200397618D01*
X358406247Y-200397618D02*
X358263390Y-200397618D01*
X358263390Y-200397618D02*
X358072914Y-200349999D01*
X358072914Y-200349999D02*
X357977676Y-200302380D01*
X357977676Y-200302380D02*
X357882438Y-200207142D01*
X357882438Y-200207142D02*
X357834819Y-200064285D01*
X357834819Y-200064285D02*
X357834819Y-199969047D01*
X357834819Y-199969047D02*
X357882438Y-199826190D01*
X357882438Y-199826190D02*
X357930057Y-199778571D01*
X358834819Y-198826190D02*
X358834819Y-199397618D01*
X358834819Y-199111904D02*
X357834819Y-199111904D01*
X357834819Y-199111904D02*
X357977676Y-199207142D01*
X357977676Y-199207142D02*
X358072914Y-199302380D01*
X358072914Y-199302380D02*
X358120533Y-199397618D01*
D10*
X314592580Y-133182380D02*
X315592580Y-133182380D01*
X315592580Y-133182380D02*
X315592580Y-133420475D01*
X315592580Y-133420475D02*
X315544961Y-133563332D01*
X315544961Y-133563332D02*
X315449723Y-133658570D01*
X315449723Y-133658570D02*
X315354485Y-133706189D01*
X315354485Y-133706189D02*
X315164009Y-133753808D01*
X315164009Y-133753808D02*
X315021152Y-133753808D01*
X315021152Y-133753808D02*
X314830676Y-133706189D01*
X314830676Y-133706189D02*
X314735438Y-133658570D01*
X314735438Y-133658570D02*
X314640200Y-133563332D01*
X314640200Y-133563332D02*
X314592580Y-133420475D01*
X314592580Y-133420475D02*
X314592580Y-133182380D01*
X314592580Y-134753808D02*
X315068771Y-134420475D01*
X314592580Y-134182380D02*
X315592580Y-134182380D01*
X315592580Y-134182380D02*
X315592580Y-134563332D01*
X315592580Y-134563332D02*
X315544961Y-134658570D01*
X315544961Y-134658570D02*
X315497342Y-134706189D01*
X315497342Y-134706189D02*
X315402104Y-134753808D01*
X315402104Y-134753808D02*
X315259247Y-134753808D01*
X315259247Y-134753808D02*
X315164009Y-134706189D01*
X315164009Y-134706189D02*
X315116390Y-134658570D01*
X315116390Y-134658570D02*
X315068771Y-134563332D01*
X315068771Y-134563332D02*
X315068771Y-134182380D01*
X315592580Y-135039523D02*
X314592580Y-135372856D01*
X314592580Y-135372856D02*
X315592580Y-135706189D01*
X315164009Y-136182380D02*
X315211628Y-136087142D01*
X315211628Y-136087142D02*
X315259247Y-136039523D01*
X315259247Y-136039523D02*
X315354485Y-135991904D01*
X315354485Y-135991904D02*
X315402104Y-135991904D01*
X315402104Y-135991904D02*
X315497342Y-136039523D01*
X315497342Y-136039523D02*
X315544961Y-136087142D01*
X315544961Y-136087142D02*
X315592580Y-136182380D01*
X315592580Y-136182380D02*
X315592580Y-136372856D01*
X315592580Y-136372856D02*
X315544961Y-136468094D01*
X315544961Y-136468094D02*
X315497342Y-136515713D01*
X315497342Y-136515713D02*
X315402104Y-136563332D01*
X315402104Y-136563332D02*
X315354485Y-136563332D01*
X315354485Y-136563332D02*
X315259247Y-136515713D01*
X315259247Y-136515713D02*
X315211628Y-136468094D01*
X315211628Y-136468094D02*
X315164009Y-136372856D01*
X315164009Y-136372856D02*
X315164009Y-136182380D01*
X315164009Y-136182380D02*
X315116390Y-136087142D01*
X315116390Y-136087142D02*
X315068771Y-136039523D01*
X315068771Y-136039523D02*
X314973533Y-135991904D01*
X314973533Y-135991904D02*
X314783057Y-135991904D01*
X314783057Y-135991904D02*
X314687819Y-136039523D01*
X314687819Y-136039523D02*
X314640200Y-136087142D01*
X314640200Y-136087142D02*
X314592580Y-136182380D01*
X314592580Y-136182380D02*
X314592580Y-136372856D01*
X314592580Y-136372856D02*
X314640200Y-136468094D01*
X314640200Y-136468094D02*
X314687819Y-136515713D01*
X314687819Y-136515713D02*
X314783057Y-136563332D01*
X314783057Y-136563332D02*
X314973533Y-136563332D01*
X314973533Y-136563332D02*
X315068771Y-136515713D01*
X315068771Y-136515713D02*
X315116390Y-136468094D01*
X315116390Y-136468094D02*
X315164009Y-136372856D01*
X315164009Y-137134761D02*
X315211628Y-137039523D01*
X315211628Y-137039523D02*
X315259247Y-136991904D01*
X315259247Y-136991904D02*
X315354485Y-136944285D01*
X315354485Y-136944285D02*
X315402104Y-136944285D01*
X315402104Y-136944285D02*
X315497342Y-136991904D01*
X315497342Y-136991904D02*
X315544961Y-137039523D01*
X315544961Y-137039523D02*
X315592580Y-137134761D01*
X315592580Y-137134761D02*
X315592580Y-137325237D01*
X315592580Y-137325237D02*
X315544961Y-137420475D01*
X315544961Y-137420475D02*
X315497342Y-137468094D01*
X315497342Y-137468094D02*
X315402104Y-137515713D01*
X315402104Y-137515713D02*
X315354485Y-137515713D01*
X315354485Y-137515713D02*
X315259247Y-137468094D01*
X315259247Y-137468094D02*
X315211628Y-137420475D01*
X315211628Y-137420475D02*
X315164009Y-137325237D01*
X315164009Y-137325237D02*
X315164009Y-137134761D01*
X315164009Y-137134761D02*
X315116390Y-137039523D01*
X315116390Y-137039523D02*
X315068771Y-136991904D01*
X315068771Y-136991904D02*
X314973533Y-136944285D01*
X314973533Y-136944285D02*
X314783057Y-136944285D01*
X314783057Y-136944285D02*
X314687819Y-136991904D01*
X314687819Y-136991904D02*
X314640200Y-137039523D01*
X314640200Y-137039523D02*
X314592580Y-137134761D01*
X314592580Y-137134761D02*
X314592580Y-137325237D01*
X314592580Y-137325237D02*
X314640200Y-137420475D01*
X314640200Y-137420475D02*
X314687819Y-137468094D01*
X314687819Y-137468094D02*
X314783057Y-137515713D01*
X314783057Y-137515713D02*
X314973533Y-137515713D01*
X314973533Y-137515713D02*
X315068771Y-137468094D01*
X315068771Y-137468094D02*
X315116390Y-137420475D01*
X315116390Y-137420475D02*
X315164009Y-137325237D01*
X315592580Y-137849047D02*
X315592580Y-138515713D01*
X315592580Y-138515713D02*
X314592580Y-138087142D01*
X315259247Y-139325237D02*
X314592580Y-139325237D01*
X315640200Y-139087142D02*
X314925914Y-138849047D01*
X314925914Y-138849047D02*
X314925914Y-139468094D01*
X314497342Y-139610952D02*
X314497342Y-140372856D01*
X314687819Y-141182380D02*
X314640200Y-141134761D01*
X314640200Y-141134761D02*
X314592580Y-140991904D01*
X314592580Y-140991904D02*
X314592580Y-140896666D01*
X314592580Y-140896666D02*
X314640200Y-140753809D01*
X314640200Y-140753809D02*
X314735438Y-140658571D01*
X314735438Y-140658571D02*
X314830676Y-140610952D01*
X314830676Y-140610952D02*
X315021152Y-140563333D01*
X315021152Y-140563333D02*
X315164009Y-140563333D01*
X315164009Y-140563333D02*
X315354485Y-140610952D01*
X315354485Y-140610952D02*
X315449723Y-140658571D01*
X315449723Y-140658571D02*
X315544961Y-140753809D01*
X315544961Y-140753809D02*
X315592580Y-140896666D01*
X315592580Y-140896666D02*
X315592580Y-140991904D01*
X315592580Y-140991904D02*
X315544961Y-141134761D01*
X315544961Y-141134761D02*
X315497342Y-141182380D01*
X314592580Y-142039523D02*
X315116390Y-142039523D01*
X315116390Y-142039523D02*
X315211628Y-141991904D01*
X315211628Y-141991904D02*
X315259247Y-141896666D01*
X315259247Y-141896666D02*
X315259247Y-141706190D01*
X315259247Y-141706190D02*
X315211628Y-141610952D01*
X314640200Y-142039523D02*
X314592580Y-141944285D01*
X314592580Y-141944285D02*
X314592580Y-141706190D01*
X314592580Y-141706190D02*
X314640200Y-141610952D01*
X314640200Y-141610952D02*
X314735438Y-141563333D01*
X314735438Y-141563333D02*
X314830676Y-141563333D01*
X314830676Y-141563333D02*
X314925914Y-141610952D01*
X314925914Y-141610952D02*
X314973533Y-141706190D01*
X314973533Y-141706190D02*
X314973533Y-141944285D01*
X314973533Y-141944285D02*
X315021152Y-142039523D01*
X314592580Y-142515714D02*
X315259247Y-142515714D01*
X315068771Y-142515714D02*
X315164009Y-142563333D01*
X315164009Y-142563333D02*
X315211628Y-142610952D01*
X315211628Y-142610952D02*
X315259247Y-142706190D01*
X315259247Y-142706190D02*
X315259247Y-142801428D01*
X314592580Y-143134762D02*
X315259247Y-143134762D01*
X315068771Y-143134762D02*
X315164009Y-143182381D01*
X315164009Y-143182381D02*
X315211628Y-143230000D01*
X315211628Y-143230000D02*
X315259247Y-143325238D01*
X315259247Y-143325238D02*
X315259247Y-143420476D01*
X314592580Y-143753810D02*
X315259247Y-143753810D01*
X315592580Y-143753810D02*
X315544961Y-143706191D01*
X315544961Y-143706191D02*
X315497342Y-143753810D01*
X315497342Y-143753810D02*
X315544961Y-143801429D01*
X315544961Y-143801429D02*
X315592580Y-143753810D01*
X315592580Y-143753810D02*
X315497342Y-143753810D01*
X314640200Y-144610952D02*
X314592580Y-144515714D01*
X314592580Y-144515714D02*
X314592580Y-144325238D01*
X314592580Y-144325238D02*
X314640200Y-144230000D01*
X314640200Y-144230000D02*
X314735438Y-144182381D01*
X314735438Y-144182381D02*
X315116390Y-144182381D01*
X315116390Y-144182381D02*
X315211628Y-144230000D01*
X315211628Y-144230000D02*
X315259247Y-144325238D01*
X315259247Y-144325238D02*
X315259247Y-144515714D01*
X315259247Y-144515714D02*
X315211628Y-144610952D01*
X315211628Y-144610952D02*
X315116390Y-144658571D01*
X315116390Y-144658571D02*
X315021152Y-144658571D01*
X315021152Y-144658571D02*
X314925914Y-144182381D01*
X314592580Y-145087143D02*
X315259247Y-145087143D01*
X315068771Y-145087143D02*
X315164009Y-145134762D01*
X315164009Y-145134762D02*
X315211628Y-145182381D01*
X315211628Y-145182381D02*
X315259247Y-145277619D01*
X315259247Y-145277619D02*
X315259247Y-145372857D01*
X314497342Y-145468096D02*
X314497342Y-146230000D01*
X315116390Y-146801429D02*
X315068771Y-146944286D01*
X315068771Y-146944286D02*
X315021152Y-146991905D01*
X315021152Y-146991905D02*
X314925914Y-147039524D01*
X314925914Y-147039524D02*
X314783057Y-147039524D01*
X314783057Y-147039524D02*
X314687819Y-146991905D01*
X314687819Y-146991905D02*
X314640200Y-146944286D01*
X314640200Y-146944286D02*
X314592580Y-146849048D01*
X314592580Y-146849048D02*
X314592580Y-146468096D01*
X314592580Y-146468096D02*
X315592580Y-146468096D01*
X315592580Y-146468096D02*
X315592580Y-146801429D01*
X315592580Y-146801429D02*
X315544961Y-146896667D01*
X315544961Y-146896667D02*
X315497342Y-146944286D01*
X315497342Y-146944286D02*
X315402104Y-146991905D01*
X315402104Y-146991905D02*
X315306866Y-146991905D01*
X315306866Y-146991905D02*
X315211628Y-146944286D01*
X315211628Y-146944286D02*
X315164009Y-146896667D01*
X315164009Y-146896667D02*
X315116390Y-146801429D01*
X315116390Y-146801429D02*
X315116390Y-146468096D01*
X314592580Y-147610953D02*
X314640200Y-147515715D01*
X314640200Y-147515715D02*
X314687819Y-147468096D01*
X314687819Y-147468096D02*
X314783057Y-147420477D01*
X314783057Y-147420477D02*
X315068771Y-147420477D01*
X315068771Y-147420477D02*
X315164009Y-147468096D01*
X315164009Y-147468096D02*
X315211628Y-147515715D01*
X315211628Y-147515715D02*
X315259247Y-147610953D01*
X315259247Y-147610953D02*
X315259247Y-147753810D01*
X315259247Y-147753810D02*
X315211628Y-147849048D01*
X315211628Y-147849048D02*
X315164009Y-147896667D01*
X315164009Y-147896667D02*
X315068771Y-147944286D01*
X315068771Y-147944286D02*
X314783057Y-147944286D01*
X314783057Y-147944286D02*
X314687819Y-147896667D01*
X314687819Y-147896667D02*
X314640200Y-147849048D01*
X314640200Y-147849048D02*
X314592580Y-147753810D01*
X314592580Y-147753810D02*
X314592580Y-147610953D01*
X314592580Y-148801429D02*
X315116390Y-148801429D01*
X315116390Y-148801429D02*
X315211628Y-148753810D01*
X315211628Y-148753810D02*
X315259247Y-148658572D01*
X315259247Y-148658572D02*
X315259247Y-148468096D01*
X315259247Y-148468096D02*
X315211628Y-148372858D01*
X314640200Y-148801429D02*
X314592580Y-148706191D01*
X314592580Y-148706191D02*
X314592580Y-148468096D01*
X314592580Y-148468096D02*
X314640200Y-148372858D01*
X314640200Y-148372858D02*
X314735438Y-148325239D01*
X314735438Y-148325239D02*
X314830676Y-148325239D01*
X314830676Y-148325239D02*
X314925914Y-148372858D01*
X314925914Y-148372858D02*
X314973533Y-148468096D01*
X314973533Y-148468096D02*
X314973533Y-148706191D01*
X314973533Y-148706191D02*
X315021152Y-148801429D01*
X314592580Y-149277620D02*
X315259247Y-149277620D01*
X315068771Y-149277620D02*
X315164009Y-149325239D01*
X315164009Y-149325239D02*
X315211628Y-149372858D01*
X315211628Y-149372858D02*
X315259247Y-149468096D01*
X315259247Y-149468096D02*
X315259247Y-149563334D01*
X314592580Y-150325239D02*
X315592580Y-150325239D01*
X314640200Y-150325239D02*
X314592580Y-150230001D01*
X314592580Y-150230001D02*
X314592580Y-150039525D01*
X314592580Y-150039525D02*
X314640200Y-149944287D01*
X314640200Y-149944287D02*
X314687819Y-149896668D01*
X314687819Y-149896668D02*
X314783057Y-149849049D01*
X314783057Y-149849049D02*
X315068771Y-149849049D01*
X315068771Y-149849049D02*
X315164009Y-149896668D01*
X315164009Y-149896668D02*
X315211628Y-149944287D01*
X315211628Y-149944287D02*
X315259247Y-150039525D01*
X315259247Y-150039525D02*
X315259247Y-150230001D01*
X315259247Y-150230001D02*
X315211628Y-150325239D01*
X314592580Y-151325239D02*
X314592580Y-150753811D01*
X314592580Y-151039525D02*
X315592580Y-151039525D01*
X315592580Y-151039525D02*
X315449723Y-150944287D01*
X315449723Y-150944287D02*
X315354485Y-150849049D01*
X315354485Y-150849049D02*
X315306866Y-150753811D01*
D11*
X338333333Y-220809580D02*
X338285714Y-220857200D01*
X338285714Y-220857200D02*
X338142857Y-220904819D01*
X338142857Y-220904819D02*
X338047619Y-220904819D01*
X338047619Y-220904819D02*
X337904762Y-220857200D01*
X337904762Y-220857200D02*
X337809524Y-220761961D01*
X337809524Y-220761961D02*
X337761905Y-220666723D01*
X337761905Y-220666723D02*
X337714286Y-220476247D01*
X337714286Y-220476247D02*
X337714286Y-220333390D01*
X337714286Y-220333390D02*
X337761905Y-220142914D01*
X337761905Y-220142914D02*
X337809524Y-220047676D01*
X337809524Y-220047676D02*
X337904762Y-219952438D01*
X337904762Y-219952438D02*
X338047619Y-219904819D01*
X338047619Y-219904819D02*
X338142857Y-219904819D01*
X338142857Y-219904819D02*
X338285714Y-219952438D01*
X338285714Y-219952438D02*
X338333333Y-220000057D01*
X339285714Y-220904819D02*
X338714286Y-220904819D01*
X339000000Y-220904819D02*
X339000000Y-219904819D01*
X339000000Y-219904819D02*
X338904762Y-220047676D01*
X338904762Y-220047676D02*
X338809524Y-220142914D01*
X338809524Y-220142914D02*
X338714286Y-220190533D01*
X371889819Y-130508333D02*
X372604104Y-130508333D01*
X372604104Y-130508333D02*
X372746961Y-130555952D01*
X372746961Y-130555952D02*
X372842200Y-130651190D01*
X372842200Y-130651190D02*
X372889819Y-130794047D01*
X372889819Y-130794047D02*
X372889819Y-130889285D01*
X372889819Y-129508333D02*
X372889819Y-130079761D01*
X372889819Y-129794047D02*
X371889819Y-129794047D01*
X371889819Y-129794047D02*
X372032676Y-129889285D01*
X372032676Y-129889285D02*
X372127914Y-129984523D01*
X372127914Y-129984523D02*
X372175533Y-130079761D01*
X321438333Y-193350866D02*
X321438333Y-194350866D01*
X321438333Y-194350866D02*
X321371666Y-194550866D01*
X321371666Y-194550866D02*
X321238333Y-194684200D01*
X321238333Y-194684200D02*
X321038333Y-194750866D01*
X321038333Y-194750866D02*
X320905000Y-194750866D01*
X322705000Y-193817533D02*
X322705000Y-194750866D01*
X322371667Y-193284200D02*
X322038333Y-194284200D01*
X322038333Y-194284200D02*
X322905000Y-194284200D01*
X268383333Y-185534819D02*
X268050000Y-185058628D01*
X267811905Y-185534819D02*
X267811905Y-184534819D01*
X267811905Y-184534819D02*
X268192857Y-184534819D01*
X268192857Y-184534819D02*
X268288095Y-184582438D01*
X268288095Y-184582438D02*
X268335714Y-184630057D01*
X268335714Y-184630057D02*
X268383333Y-184725295D01*
X268383333Y-184725295D02*
X268383333Y-184868152D01*
X268383333Y-184868152D02*
X268335714Y-184963390D01*
X268335714Y-184963390D02*
X268288095Y-185011009D01*
X268288095Y-185011009D02*
X268192857Y-185058628D01*
X268192857Y-185058628D02*
X267811905Y-185058628D01*
X268764286Y-184630057D02*
X268811905Y-184582438D01*
X268811905Y-184582438D02*
X268907143Y-184534819D01*
X268907143Y-184534819D02*
X269145238Y-184534819D01*
X269145238Y-184534819D02*
X269240476Y-184582438D01*
X269240476Y-184582438D02*
X269288095Y-184630057D01*
X269288095Y-184630057D02*
X269335714Y-184725295D01*
X269335714Y-184725295D02*
X269335714Y-184820533D01*
X269335714Y-184820533D02*
X269288095Y-184963390D01*
X269288095Y-184963390D02*
X268716667Y-185534819D01*
X268716667Y-185534819D02*
X269335714Y-185534819D01*
X374117295Y-239141169D02*
X374824402Y-239848276D01*
X374824402Y-239848276D02*
X374918683Y-240036838D01*
X374918683Y-240036838D02*
X374918683Y-240225400D01*
X374918683Y-240225400D02*
X374824402Y-240413961D01*
X374824402Y-240413961D02*
X374730121Y-240508242D01*
X375154385Y-238952607D02*
X375012964Y-238999748D01*
X375012964Y-238999748D02*
X374918683Y-238999748D01*
X374918683Y-238999748D02*
X374777261Y-238952607D01*
X374777261Y-238952607D02*
X374730121Y-238905467D01*
X374730121Y-238905467D02*
X374682981Y-238764045D01*
X374682981Y-238764045D02*
X374682981Y-238669764D01*
X374682981Y-238669764D02*
X374730121Y-238528343D01*
X374730121Y-238528343D02*
X374918683Y-238339781D01*
X374918683Y-238339781D02*
X375060104Y-238292641D01*
X375060104Y-238292641D02*
X375154385Y-238292641D01*
X375154385Y-238292641D02*
X375295806Y-238339781D01*
X375295806Y-238339781D02*
X375342947Y-238386922D01*
X375342947Y-238386922D02*
X375390087Y-238528343D01*
X375390087Y-238528343D02*
X375390087Y-238622624D01*
X375390087Y-238622624D02*
X375342947Y-238764045D01*
X375342947Y-238764045D02*
X375154385Y-238952607D01*
X375154385Y-238952607D02*
X375107245Y-239094029D01*
X375107245Y-239094029D02*
X375107245Y-239188309D01*
X375107245Y-239188309D02*
X375154385Y-239329731D01*
X375154385Y-239329731D02*
X375342947Y-239518293D01*
X375342947Y-239518293D02*
X375484368Y-239565433D01*
X375484368Y-239565433D02*
X375578649Y-239565433D01*
X375578649Y-239565433D02*
X375720071Y-239518293D01*
X375720071Y-239518293D02*
X375908632Y-239329731D01*
X375908632Y-239329731D02*
X375955773Y-239188309D01*
X375955773Y-239188309D02*
X375955773Y-239094029D01*
X375955773Y-239094029D02*
X375908632Y-238952607D01*
X375908632Y-238952607D02*
X375720071Y-238764045D01*
X375720071Y-238764045D02*
X375578649Y-238716905D01*
X375578649Y-238716905D02*
X375484368Y-238716905D01*
X375484368Y-238716905D02*
X375342947Y-238764045D01*
X262761905Y-181254819D02*
X262761905Y-180254819D01*
X262761905Y-180254819D02*
X263000000Y-180254819D01*
X263000000Y-180254819D02*
X263142857Y-180302438D01*
X263142857Y-180302438D02*
X263238095Y-180397676D01*
X263238095Y-180397676D02*
X263285714Y-180492914D01*
X263285714Y-180492914D02*
X263333333Y-180683390D01*
X263333333Y-180683390D02*
X263333333Y-180826247D01*
X263333333Y-180826247D02*
X263285714Y-181016723D01*
X263285714Y-181016723D02*
X263238095Y-181111961D01*
X263238095Y-181111961D02*
X263142857Y-181207200D01*
X263142857Y-181207200D02*
X263000000Y-181254819D01*
X263000000Y-181254819D02*
X262761905Y-181254819D01*
X263714286Y-180350057D02*
X263761905Y-180302438D01*
X263761905Y-180302438D02*
X263857143Y-180254819D01*
X263857143Y-180254819D02*
X264095238Y-180254819D01*
X264095238Y-180254819D02*
X264190476Y-180302438D01*
X264190476Y-180302438D02*
X264238095Y-180350057D01*
X264238095Y-180350057D02*
X264285714Y-180445295D01*
X264285714Y-180445295D02*
X264285714Y-180540533D01*
X264285714Y-180540533D02*
X264238095Y-180683390D01*
X264238095Y-180683390D02*
X263666667Y-181254819D01*
X263666667Y-181254819D02*
X264285714Y-181254819D01*
X336628333Y-181128866D02*
X336628333Y-182128866D01*
X336628333Y-182128866D02*
X336561666Y-182328866D01*
X336561666Y-182328866D02*
X336428333Y-182462200D01*
X336428333Y-182462200D02*
X336228333Y-182528866D01*
X336228333Y-182528866D02*
X336095000Y-182528866D01*
X337961667Y-181128866D02*
X337295000Y-181128866D01*
X337295000Y-181128866D02*
X337228333Y-181795533D01*
X337228333Y-181795533D02*
X337295000Y-181728866D01*
X337295000Y-181728866D02*
X337428333Y-181662200D01*
X337428333Y-181662200D02*
X337761667Y-181662200D01*
X337761667Y-181662200D02*
X337895000Y-181728866D01*
X337895000Y-181728866D02*
X337961667Y-181795533D01*
X337961667Y-181795533D02*
X338028333Y-181928866D01*
X338028333Y-181928866D02*
X338028333Y-182262200D01*
X338028333Y-182262200D02*
X337961667Y-182395533D01*
X337961667Y-182395533D02*
X337895000Y-182462200D01*
X337895000Y-182462200D02*
X337761667Y-182528866D01*
X337761667Y-182528866D02*
X337428333Y-182528866D01*
X337428333Y-182528866D02*
X337295000Y-182462200D01*
X337295000Y-182462200D02*
X337228333Y-182395533D01*
X322628333Y-180628866D02*
X322628333Y-181628866D01*
X322628333Y-181628866D02*
X322561666Y-181828866D01*
X322561666Y-181828866D02*
X322428333Y-181962200D01*
X322428333Y-181962200D02*
X322228333Y-182028866D01*
X322228333Y-182028866D02*
X322095000Y-182028866D01*
X323895000Y-180628866D02*
X323628333Y-180628866D01*
X323628333Y-180628866D02*
X323495000Y-180695533D01*
X323495000Y-180695533D02*
X323428333Y-180762200D01*
X323428333Y-180762200D02*
X323295000Y-180962200D01*
X323295000Y-180962200D02*
X323228333Y-181228866D01*
X323228333Y-181228866D02*
X323228333Y-181762200D01*
X323228333Y-181762200D02*
X323295000Y-181895533D01*
X323295000Y-181895533D02*
X323361667Y-181962200D01*
X323361667Y-181962200D02*
X323495000Y-182028866D01*
X323495000Y-182028866D02*
X323761667Y-182028866D01*
X323761667Y-182028866D02*
X323895000Y-181962200D01*
X323895000Y-181962200D02*
X323961667Y-181895533D01*
X323961667Y-181895533D02*
X324028333Y-181762200D01*
X324028333Y-181762200D02*
X324028333Y-181428866D01*
X324028333Y-181428866D02*
X323961667Y-181295533D01*
X323961667Y-181295533D02*
X323895000Y-181228866D01*
X323895000Y-181228866D02*
X323761667Y-181162200D01*
X323761667Y-181162200D02*
X323495000Y-181162200D01*
X323495000Y-181162200D02*
X323361667Y-181228866D01*
X323361667Y-181228866D02*
X323295000Y-181295533D01*
X323295000Y-181295533D02*
X323228333Y-181428866D01*
D13*
X330380000Y-196000000D02*
X340540000Y-196000000D01*
X330380000Y-206600000D02*
X330380000Y-196000000D01*
X340540000Y-196000000D02*
X340540000Y-206600000D01*
X340540000Y-206600000D02*
X330380000Y-206600000D01*
D14*
X333020000Y-195000000D02*
G75*
G02*
X332820000Y-195000000I-100000J0D01*
G01*
X332820000Y-195000000D02*
G75*
G02*
X333020000Y-195000000I100000J0D01*
G01*
D10*
X316570000Y-232770000D02*
X334370000Y-232770000D01*
X334370000Y-217570000D01*
X316570000Y-217570000D01*
X316570000Y-232770000D01*
X262335000Y-210025000D02*
X275335000Y-210025000D01*
X275335000Y-228825000D01*
X262335000Y-228825000D01*
X262335000Y-210025000D01*
X266035000Y-211375000D02*
X271035000Y-211375000D01*
X271035000Y-211975000D01*
X266035000Y-211975000D01*
X266035000Y-211375000D01*
X266035000Y-219075000D02*
X270835000Y-219075000D01*
X270835000Y-219675000D01*
X266035000Y-219675000D01*
X266035000Y-219075000D01*
X266035000Y-226775000D02*
X271035000Y-226775000D01*
X271035000Y-227375000D01*
X266035000Y-227375000D01*
X266035000Y-226775000D01*
D14*
X337630000Y-225405000D02*
X337630000Y-228600000D01*
X348170000Y-225405000D02*
X337630000Y-225405000D01*
X348170000Y-230095000D02*
X348170000Y-225405000D01*
D10*
X336010000Y-142070000D02*
X318210000Y-142070000D01*
X318210000Y-157270000D01*
X336010000Y-157270000D01*
X336010000Y-142070000D01*
X365000000Y-158000000D02*
X383800000Y-158000000D01*
X383800000Y-145000000D01*
X365000000Y-145000000D01*
X365000000Y-158000000D01*
X366350000Y-154300000D02*
X366950000Y-154300000D01*
X366950000Y-149300000D01*
X366350000Y-149300000D01*
X366350000Y-154300000D01*
X374050000Y-154300000D02*
X374650000Y-154300000D01*
X374650000Y-149500000D01*
X374050000Y-149500000D01*
X374050000Y-154300000D01*
X381750000Y-154300000D02*
X382350000Y-154300000D01*
X382350000Y-149300000D01*
X381750000Y-149300000D01*
X381750000Y-154300000D01*
D13*
X303380000Y-168900000D02*
X313540000Y-168900000D01*
X303380000Y-179500000D02*
X303380000Y-168900000D01*
X313540000Y-168900000D02*
X313540000Y-179500000D01*
X313540000Y-179500000D02*
X303380000Y-179500000D01*
D14*
X311100000Y-180500000D02*
G75*
G02*
X310900000Y-180500000I-100000J0D01*
G01*
X310900000Y-180500000D02*
G75*
G02*
X311100000Y-180500000I100000J0D01*
G01*
D13*
X305880000Y-196000000D02*
X316040000Y-196000000D01*
X305880000Y-206600000D02*
X305880000Y-196000000D01*
X316040000Y-196000000D02*
X316040000Y-206600000D01*
X316040000Y-206600000D02*
X305880000Y-206600000D01*
D14*
X308520000Y-195000000D02*
G75*
G02*
X308320000Y-195000000I-100000J0D01*
G01*
X308320000Y-195000000D02*
G75*
G02*
X308520000Y-195000000I100000J0D01*
G01*
D10*
X296070000Y-233270000D02*
X313870000Y-233270000D01*
X313870000Y-218070000D01*
X296070000Y-218070000D01*
X296070000Y-233270000D01*
D15*
X267880000Y-179000000D02*
X268500000Y-179000000D01*
X267880000Y-179000000D02*
G75*
G02*
X266040000Y-179000000I-920000J0D01*
G01*
X266040000Y-179000000D02*
G75*
G02*
X267880000Y-179000000I920000J0D01*
G01*
D13*
X376290000Y-169110000D02*
X378630000Y-169110000D01*
X376290000Y-214430000D02*
X376290000Y-169110000D01*
X378630000Y-169110000D02*
X378630000Y-214430000D01*
X378630000Y-214430000D02*
X376290000Y-214430000D01*
D14*
X375390000Y-213360000D02*
G75*
G02*
X375190000Y-213360000I-100000J0D01*
G01*
X375190000Y-213360000D02*
G75*
G02*
X375390000Y-213360000I100000J0D01*
G01*
D13*
X312920000Y-127800000D02*
X334720000Y-127800000D01*
X312920000Y-137000000D02*
X312920000Y-127800000D01*
X334720000Y-127800000D02*
X334720000Y-137000000D01*
X334720000Y-137000000D02*
X312920000Y-137000000D01*
D14*
X312420000Y-130900000D02*
G75*
G02*
X312220000Y-130900000I-100000J0D01*
G01*
X312220000Y-130900000D02*
G75*
G02*
X312420000Y-130900000I100000J0D01*
G01*
D10*
X357050000Y-142230000D02*
X339250000Y-142230000D01*
X339250000Y-157430000D01*
X357050000Y-157430000D01*
X357050000Y-142230000D01*
D15*
X261367500Y-187000000D02*
X261367500Y-187650000D01*
X261367500Y-187650000D02*
X262067500Y-187650000D01*
X262567500Y-186350000D02*
G75*
G02*
X264567500Y-186350000I1000000J-400000D01*
G01*
D14*
X348860000Y-175720000D02*
X348860000Y-175720000D01*
X348860000Y-175720000D02*
X348860000Y-175720000D01*
X348860000Y-175820000D02*
X348860000Y-175820000D01*
X349490000Y-169370000D02*
X349490000Y-230330000D01*
X349490000Y-230330000D02*
X367270000Y-230330000D01*
X367270000Y-169370000D02*
X349490000Y-169370000D01*
X367270000Y-230330000D02*
X367270000Y-169370000D01*
X348860000Y-175720000D02*
G75*
G02*
X348860000Y-175820000I0J-50000D01*
G01*
X348860000Y-175820000D02*
G75*
G02*
X348860000Y-175720000I0J50000D01*
G01*
X348860000Y-175820000D02*
G75*
G02*
X348860000Y-175720000I0J50000D01*
G01*
D10*
X314550000Y-142230000D02*
X296750000Y-142230000D01*
X296750000Y-157430000D01*
X314550000Y-157430000D01*
X314550000Y-142230000D01*
D13*
X362450000Y-127250000D02*
X370550000Y-127250000D01*
X362450000Y-139950000D02*
X362450000Y-127250000D01*
X364900000Y-142750000D02*
X362450000Y-139950000D01*
X366500000Y-125500000D02*
X366500000Y-126500000D01*
X366500000Y-143500000D02*
X366500000Y-144500000D01*
X367000000Y-126000000D02*
X366000000Y-126000000D01*
X368100000Y-142750000D02*
X364900000Y-142750000D01*
X370550000Y-127250000D02*
X370550000Y-139950000D01*
X370550000Y-139950000D02*
X368100000Y-142750000D01*
X318460000Y-196000000D02*
X328620000Y-196000000D01*
X318460000Y-206600000D02*
X318460000Y-196000000D01*
X328620000Y-196000000D02*
X328620000Y-206600000D01*
X328620000Y-206600000D02*
X318460000Y-206600000D01*
D14*
X321100000Y-195000000D02*
G75*
G02*
X320900000Y-195000000I-100000J0D01*
G01*
X320900000Y-195000000D02*
G75*
G02*
X321100000Y-195000000I100000J0D01*
G01*
D15*
X268200000Y-187000000D02*
X268820000Y-187000000D01*
X268200000Y-187000000D02*
G75*
G02*
X266360000Y-187000000I-920000J0D01*
G01*
X266360000Y-187000000D02*
G75*
G02*
X268200000Y-187000000I920000J0D01*
G01*
D13*
X355659545Y-252185825D02*
X387705625Y-220139745D01*
X357314175Y-253840455D02*
X355659545Y-252185825D01*
X387705625Y-220139745D02*
X389360255Y-221794375D01*
X389360255Y-221794375D02*
X357314175Y-253840455D01*
D14*
X355809043Y-250722114D02*
G75*
G02*
X355609043Y-250722114I-100000J0D01*
G01*
X355609043Y-250722114D02*
G75*
G02*
X355809043Y-250722114I100000J0D01*
G01*
D15*
X261300000Y-179000000D02*
X261300000Y-179650000D01*
X261300000Y-179650000D02*
X262000000Y-179650000D01*
X262500000Y-178350000D02*
G75*
G02*
X264500000Y-178350000I1000000J-400000D01*
G01*
D13*
X330380000Y-169400000D02*
X340540000Y-169400000D01*
X330380000Y-180000000D02*
X330380000Y-169400000D01*
X340540000Y-169400000D02*
X340540000Y-180000000D01*
X340540000Y-180000000D02*
X330380000Y-180000000D01*
D14*
X338100000Y-181000000D02*
G75*
G02*
X337900000Y-181000000I-100000J0D01*
G01*
X337900000Y-181000000D02*
G75*
G02*
X338100000Y-181000000I100000J0D01*
G01*
D13*
X316380000Y-168900000D02*
X326540000Y-168900000D01*
X316380000Y-179500000D02*
X316380000Y-168900000D01*
X326540000Y-168900000D02*
X326540000Y-179500000D01*
X326540000Y-179500000D02*
X316380000Y-179500000D01*
D14*
X324100000Y-180500000D02*
G75*
G02*
X323900000Y-180500000I-100000J0D01*
G01*
X323900000Y-180500000D02*
G75*
G02*
X324100000Y-180500000I100000J0D01*
G01*
%LPC*%
D16*
X332920000Y-201000000D03*
D17*
X338000000Y-201000000D03*
D18*
X317840000Y-231500000D03*
X320380000Y-231500000D03*
X322920000Y-231500000D03*
X325460000Y-231500000D03*
X328000000Y-231500000D03*
X330540000Y-231500000D03*
X333080000Y-231500000D03*
X333080000Y-218840000D03*
X330540000Y-218840000D03*
X328000000Y-218840000D03*
X325460000Y-218840000D03*
X322920000Y-218840000D03*
X320380000Y-218840000D03*
X317840000Y-218840000D03*
D19*
X268335000Y-219525000D03*
X268335000Y-227025000D03*
X268335000Y-211525000D03*
D20*
X340360000Y-228600000D03*
D21*
X342900000Y-228600000D03*
X345440000Y-228600000D03*
D18*
X334740000Y-143340000D03*
X332200000Y-143340000D03*
X329660000Y-143340000D03*
X327120000Y-143340000D03*
X324580000Y-143340000D03*
X322040000Y-143340000D03*
X319500000Y-143340000D03*
X319500000Y-156000000D03*
X322040000Y-156000000D03*
X324580000Y-156000000D03*
X327120000Y-156000000D03*
X329660000Y-156000000D03*
X332200000Y-156000000D03*
X334740000Y-156000000D03*
D22*
X374500000Y-152000000D03*
X382000000Y-152000000D03*
X366500000Y-152000000D03*
D23*
X311000000Y-174500000D03*
D17*
X305920000Y-174500000D03*
D16*
X308420000Y-201000000D03*
D17*
X313500000Y-201000000D03*
D18*
X297340000Y-232000000D03*
X299880000Y-232000000D03*
X302420000Y-232000000D03*
X304960000Y-232000000D03*
X307500000Y-232000000D03*
X310040000Y-232000000D03*
X312580000Y-232000000D03*
X312580000Y-219340000D03*
X310040000Y-219340000D03*
X307500000Y-219340000D03*
X304960000Y-219340000D03*
X302420000Y-219340000D03*
X299880000Y-219340000D03*
X297340000Y-219340000D03*
D24*
X266960000Y-179000000D03*
D25*
X269500000Y-179000000D03*
D26*
X377460000Y-213360000D03*
D27*
X377460000Y-210820000D03*
X377460000Y-208280000D03*
X377460000Y-205740000D03*
X377460000Y-203200000D03*
X377460000Y-200660000D03*
X377460000Y-198120000D03*
X377460000Y-195580000D03*
X377460000Y-193040000D03*
X377460000Y-190500000D03*
X377460000Y-187960000D03*
X377460000Y-185420000D03*
X377460000Y-182880000D03*
X377460000Y-180340000D03*
X377460000Y-177800000D03*
X377460000Y-175260000D03*
X377460000Y-172720000D03*
X377460000Y-170180000D03*
D28*
X314920000Y-131000000D03*
D29*
X317460000Y-131000000D03*
X320000000Y-131000000D03*
X325080000Y-131000000D03*
X327620000Y-131000000D03*
X330160000Y-131000000D03*
X332700000Y-131000000D03*
D18*
X355780000Y-143500000D03*
X353240000Y-143500000D03*
X350700000Y-143500000D03*
X348160000Y-143500000D03*
X345620000Y-143500000D03*
X343080000Y-143500000D03*
X340540000Y-143500000D03*
X340540000Y-156160000D03*
X343080000Y-156160000D03*
X345620000Y-156160000D03*
X348160000Y-156160000D03*
X350700000Y-156160000D03*
X353240000Y-156160000D03*
X355780000Y-156160000D03*
D30*
X262067500Y-187000000D03*
X265067500Y-187000000D03*
D31*
X263967500Y-187450000D03*
X263167500Y-187450000D03*
D32*
X350760000Y-175720000D03*
X350760000Y-178260000D03*
X350760000Y-180800000D03*
X350760000Y-183340000D03*
X350760000Y-185880000D03*
X350760000Y-188420000D03*
X350760000Y-190960000D03*
X350760000Y-193500000D03*
X350760000Y-196040000D03*
X350760000Y-198580000D03*
X350760000Y-201120000D03*
X350760000Y-203660000D03*
X366000000Y-203660000D03*
X366000000Y-201120000D03*
X366000000Y-198580000D03*
X366000000Y-196040000D03*
X366000000Y-193500000D03*
X366000000Y-190960000D03*
X366000000Y-188420000D03*
X366000000Y-185880000D03*
X366000000Y-183340000D03*
X366000000Y-180800000D03*
X366000000Y-178260000D03*
X350760000Y-208740000D03*
X350760000Y-211280000D03*
X350760000Y-213820000D03*
X350760000Y-216360000D03*
X350760000Y-218900000D03*
X350760000Y-221440000D03*
X350760000Y-223980000D03*
X350760000Y-226520000D03*
X350760000Y-229060000D03*
X366000000Y-229060000D03*
X366000000Y-226520000D03*
X366000000Y-223980000D03*
X366000000Y-221440000D03*
X366000000Y-218900000D03*
X366000000Y-216360000D03*
X366000000Y-213820000D03*
X366000000Y-211280000D03*
X366000000Y-208740000D03*
X350760000Y-206200000D03*
X353300000Y-216360000D03*
X355840000Y-216360000D03*
X358380000Y-216360000D03*
X360920000Y-216360000D03*
X363460000Y-216360000D03*
X353810000Y-187150000D03*
X353810000Y-184610000D03*
X353810000Y-182070000D03*
X353810000Y-179530000D03*
X353810000Y-176990000D03*
X366000000Y-175720000D03*
X366000000Y-170640000D03*
X350760000Y-173180000D03*
X363460000Y-173180000D03*
X366000000Y-206200000D03*
X366000000Y-173180000D03*
X350760000Y-170640000D03*
D18*
X313280000Y-143500000D03*
X310740000Y-143500000D03*
X308200000Y-143500000D03*
X305660000Y-143500000D03*
X303120000Y-143500000D03*
X300580000Y-143500000D03*
X298040000Y-143500000D03*
X298040000Y-156160000D03*
X300580000Y-156160000D03*
X303120000Y-156160000D03*
X305660000Y-156160000D03*
X308200000Y-156160000D03*
X310740000Y-156160000D03*
X313280000Y-156160000D03*
D33*
X338092500Y-221500000D03*
X338907500Y-221500000D03*
D34*
X366500000Y-138600000D03*
D35*
X366500000Y-131400000D03*
D16*
X321000000Y-201000000D03*
D17*
X326080000Y-201000000D03*
D24*
X267280000Y-187000000D03*
D25*
X269820000Y-187000000D03*
D36*
X357243465Y-252256535D03*
D27*
X359039516Y-250460484D03*
X360835567Y-248664433D03*
X362631618Y-246868382D03*
X364427669Y-245072331D03*
X366223721Y-243276279D03*
X368019772Y-241480228D03*
X369815823Y-239684177D03*
X371611874Y-237888126D03*
X373407926Y-236092074D03*
X375203977Y-234296023D03*
X377000028Y-232499972D03*
X378796079Y-230703921D03*
X380592131Y-228907869D03*
X382388182Y-227111818D03*
X384184233Y-225315767D03*
X385980284Y-223519716D03*
X387776335Y-221723665D03*
D30*
X262000000Y-179000000D03*
X265000000Y-179000000D03*
D31*
X263900000Y-179450000D03*
X263100000Y-179450000D03*
D23*
X338000000Y-175000000D03*
D17*
X332920000Y-175000000D03*
D23*
X324000000Y-174500000D03*
D17*
X318920000Y-174500000D03*
%LPD*%
M02*
